<?xml version="1.0" encoding="UTF-8" standalone="no"?>
<!DOCTYPE svg PUBLIC "-//W3C//DTD SVG 1.1//EN"
 "http://www.w3.org/Graphics/SVG/1.1/DTD/svg11.dtd">
<!-- Generated by graphviz version 8.0.2 (20230410.1723)
 -->
<!-- Title: include/NNFSCore/Activation/Activation.hpp Pages: 1 -->
<svg width="664pt" height="225pt"
 viewBox="0.00 0.00 663.50 225.00" xmlns="http://www.w3.org/2000/svg" xmlns:xlink="http://www.w3.org/1999/xlink">
<g id="graph0" class="graph" transform="scale(1 1) rotate(0) translate(4 221)">
<title>include/NNFSCore/Activation/Activation.hpp</title>
<!-- Node1 -->
<g id="node1" class="node">
<title>Node1</title>
<g id="a_node1"><a xlink:title=" ">
<polygon fill="#999999" stroke="#666666" points="471,-217 326,-217 326,-187 471,-187 471,-217"/>
<text text-anchor="start" x="334" y="-205" font-family="Helvetica,sans-Serif" font-size="10.00">include/NNFSCore/Activation</text>
<text text-anchor="middle" x="398.5" y="-194" font-family="Helvetica,sans-Serif" font-size="10.00">/Activation.hpp</text>
</a>
</g>
</g>
<!-- Node2 -->
<g id="node2" class="node">
<title>Node2</title>
<g id="a_node2"><a xlink:href="_linear_8hpp.html" target="_top" xlink:title=" ">
<polygon fill="white" stroke="#666666" points="308,-151 163,-151 163,-121 308,-121 308,-151"/>
<text text-anchor="start" x="171" y="-139" font-family="Helvetica,sans-Serif" font-size="10.00">include/NNFSCore/Activation</text>
<text text-anchor="middle" x="235.5" y="-128" font-family="Helvetica,sans-Serif" font-size="10.00">/Linear.hpp</text>
</a>
</g>
</g>
<!-- Node1&#45;&gt;Node2 -->
<g id="edge1" class="edge">
<title>Node1&#45;&gt;Node2</title>
<path fill="none" stroke="#63b8ff" d="M351.82,-182.67C326.55,-172.75 295.78,-160.67 272.24,-151.43"/>
<polygon fill="#63b8ff" stroke="#63b8ff" points="350.33,-186.24 360.92,-186.64 352.89,-179.72 350.33,-186.24"/>
</g>
<!-- Node4 -->
<g id="node4" class="node">
<title>Node4</title>
<g id="a_node4"><a xlink:href="_re_l_u_8hpp.html" target="_top" xlink:title=" ">
<polygon fill="white" stroke="#666666" points="471,-151 326,-151 326,-121 471,-121 471,-151"/>
<text text-anchor="start" x="334" y="-139" font-family="Helvetica,sans-Serif" font-size="10.00">include/NNFSCore/Activation</text>
<text text-anchor="middle" x="398.5" y="-128" font-family="Helvetica,sans-Serif" font-size="10.00">/ReLU.hpp</text>
</a>
</g>
</g>
<!-- Node1&#45;&gt;Node4 -->
<g id="edge3" class="edge">
<title>Node1&#45;&gt;Node4</title>
<path fill="none" stroke="#63b8ff" d="M398.5,-175.97C398.5,-167.55 398.5,-158.45 398.5,-151.16"/>
<polygon fill="#63b8ff" stroke="#63b8ff" points="395,-175.8 398.5,-185.8 402,-175.8 395,-175.8"/>
</g>
<!-- Node6 -->
<g id="node6" class="node">
<title>Node6</title>
<g id="a_node6"><a xlink:href="_sigmoid_8hpp.html" target="_top" xlink:title=" ">
<polygon fill="white" stroke="#666666" points="145,-151 0,-151 0,-121 145,-121 145,-151"/>
<text text-anchor="start" x="8" y="-139" font-family="Helvetica,sans-Serif" font-size="10.00">include/NNFSCore/Activation</text>
<text text-anchor="middle" x="72.5" y="-128" font-family="Helvetica,sans-Serif" font-size="10.00">/Sigmoid.hpp</text>
</a>
</g>
</g>
<!-- Node1&#45;&gt;Node6 -->
<g id="edge6" class="edge">
<title>Node1&#45;&gt;Node6</title>
<path fill="none" stroke="#63b8ff" d="M315.12,-184.63C262.67,-174.33 195.63,-161.17 145.31,-151.29"/>
<polygon fill="#63b8ff" stroke="#63b8ff" points="314.26,-188.22 324.74,-186.72 315.61,-181.36 314.26,-188.22"/>
</g>
<!-- Node7 -->
<g id="node7" class="node">
<title>Node7</title>
<g id="a_node7"><a xlink:href="_model_8hpp.html" target="_top" xlink:title=" ">
<polygon fill="white" stroke="#666666" points="655.5,-151 527.5,-151 527.5,-121 655.5,-121 655.5,-151"/>
<text text-anchor="start" x="535.5" y="-139" font-family="Helvetica,sans-Serif" font-size="10.00">include/NNFSCore/Model</text>
<text text-anchor="middle" x="591.5" y="-128" font-family="Helvetica,sans-Serif" font-size="10.00">/Model.hpp</text>
</a>
</g>
</g>
<!-- Node1&#45;&gt;Node7 -->
<g id="edge9" class="edge">
<title>Node1&#45;&gt;Node7</title>
<path fill="none" stroke="#63b8ff" d="M452.18,-183.2C482.39,-173.18 519.62,-160.83 548,-151.43"/>
<polygon fill="#63b8ff" stroke="#63b8ff" points="451.2,-180.17 442.81,-186.64 453.41,-186.81 451.2,-180.17"/>
</g>
<!-- Node8 -->
<g id="node8" class="node">
<title>Node8</title>
<g id="a_node8"><a xlink:href="_neural_network_8hpp.html" target="_top" xlink:title=" ">
<polygon fill="white" stroke="#666666" points="563.5,-85 435.5,-85 435.5,-55 563.5,-55 563.5,-85"/>
<text text-anchor="start" x="443.5" y="-73" font-family="Helvetica,sans-Serif" font-size="10.00">include/NNFSCore/Model</text>
<text text-anchor="middle" x="499.5" y="-62" font-family="Helvetica,sans-Serif" font-size="10.00">/NeuralNetwork.hpp</text>
</a>
</g>
</g>
<!-- Node1&#45;&gt;Node8 -->
<g id="edge12" class="edge">
<title>Node1&#45;&gt;Node8</title>
<path fill="none" stroke="#63b8ff" d="M443.68,-181.37C456.93,-173.64 470.32,-163.56 479.5,-151 493.87,-131.35 497.97,-102.52 499.11,-85.37"/>
<polygon fill="#63b8ff" stroke="#63b8ff" points="442.22,-178.73 435.11,-186.59 445.57,-184.88 442.22,-178.73"/>
</g>
<!-- Node3 -->
<g id="node3" class="node">
<title>Node3</title>
<g id="a_node3"><a xlink:href="test__activation_8cpp.html" target="_top" xlink:title=" ">
<polygon fill="white" stroke="#666666" points="297,-79.5 174,-79.5 174,-60.5 297,-60.5 297,-79.5"/>
<text text-anchor="middle" x="235.5" y="-67.5" font-family="Helvetica,sans-Serif" font-size="10.00">tests/test_activation.cpp</text>
</a>
</g>
</g>
<!-- Node2&#45;&gt;Node3 -->
<g id="edge2" class="edge">
<title>Node2&#45;&gt;Node3</title>
<path fill="none" stroke="#63b8ff" d="M235.5,-109.93C235.5,-99.31 235.5,-87.61 235.5,-79.84"/>
<polygon fill="#63b8ff" stroke="#63b8ff" points="232,-109.8 235.5,-119.8 239,-109.8 232,-109.8"/>
</g>
<!-- Node4&#45;&gt;Node3 -->
<g id="edge4" class="edge">
<title>Node4&#45;&gt;Node3</title>
<path fill="none" stroke="#63b8ff" d="M351.88,-116.69C321.25,-104.67 282.53,-89.47 258.39,-79.99"/>
<polygon fill="#63b8ff" stroke="#63b8ff" points="350.33,-120.24 360.92,-120.64 352.89,-113.72 350.33,-120.24"/>
</g>
<!-- Node5 -->
<g id="node5" class="node">
<title>Node5</title>
<g id="a_node5"><a xlink:href="test__neural__network_8cpp.html" target="_top" xlink:title=" ">
<polygon fill="white" stroke="#666666" points="472,-19 325,-19 325,0 472,0 472,-19"/>
<text text-anchor="middle" x="398.5" y="-7" font-family="Helvetica,sans-Serif" font-size="10.00">tests/test_neural_network.cpp</text>
</a>
</g>
</g>
<!-- Node4&#45;&gt;Node5 -->
<g id="edge5" class="edge">
<title>Node4&#45;&gt;Node5</title>
<path fill="none" stroke="#63b8ff" d="M398.5,-109.79C398.5,-81.77 398.5,-38.01 398.5,-19.38"/>
<polygon fill="#63b8ff" stroke="#63b8ff" points="395,-109.72 398.5,-119.72 402,-109.72 395,-109.72"/>
</g>
<!-- Node6&#45;&gt;Node3 -->
<g id="edge7" class="edge">
<title>Node6&#45;&gt;Node3</title>
<path fill="none" stroke="#63b8ff" d="M119.12,-116.69C149.75,-104.67 188.47,-89.47 212.61,-79.99"/>
<polygon fill="#63b8ff" stroke="#63b8ff" points="118.11,-113.72 110.08,-120.64 120.67,-120.24 118.11,-113.72"/>
</g>
<!-- Node6&#45;&gt;Node5 -->
<g id="edge8" class="edge">
<title>Node6&#45;&gt;Node5</title>
<path fill="none" stroke="#63b8ff" d="M91.76,-112.67C108.94,-94.24 135.77,-68.94 164.5,-55 214.72,-30.63 277.05,-19.58 324.75,-14.59"/>
<polygon fill="#63b8ff" stroke="#63b8ff" points="89.7,-109.83 85.57,-119.58 94.89,-114.53 89.7,-109.83"/>
</g>
<!-- Node7&#45;&gt;Node8 -->
<g id="edge10" class="edge">
<title>Node7&#45;&gt;Node8</title>
<path fill="none" stroke="#63b8ff" d="M562.07,-114.52C548.42,-105.03 532.53,-93.98 520.18,-85.39"/>
<polygon fill="#63b8ff" stroke="#63b8ff" points="559.87,-117.96 570.08,-120.8 563.87,-112.21 559.87,-117.96"/>
</g>
<!-- Node8&#45;&gt;Node5 -->
<g id="edge11" class="edge">
<title>Node8&#45;&gt;Node5</title>
<path fill="none" stroke="#63b8ff" d="M465.19,-49.13C447.72,-39.01 427.36,-27.21 413.77,-19.35"/>
<polygon fill="#63b8ff" stroke="#63b8ff" points="463.13,-52.56 473.53,-54.54 466.63,-46.5 463.13,-52.56"/>
</g>
</g>
</svg>
