<?xml version="1.0" encoding="UTF-8" standalone="no"?>
<!DOCTYPE svg PUBLIC "-//W3C//DTD SVG 1.1//EN"
 "http://www.w3.org/Graphics/SVG/1.1/DTD/svg11.dtd">
<!-- Generated by graphviz version 8.0.1 (20230327.1645)
 -->
<!-- Title: include/NNFSCore/Activation/Activation.hpp Pages: 1 -->
<svg width="681pt" height="225pt"
 viewBox="0.00 0.00 681.00 225.00" xmlns="http://www.w3.org/2000/svg" xmlns:xlink="http://www.w3.org/1999/xlink">
<g id="graph0" class="graph" transform="scale(1 1) rotate(0) translate(4 221)">
<title>include/NNFSCore/Activation/Activation.hpp</title>
<!-- Node1 -->
<g id="node1" class="node">
<title>Node1</title>
<g id="a_node1"><a xlink:title=" ">
<polygon fill="#999999" stroke="#666666" points="471,-217 326,-217 326,-187 471,-187 471,-217"/>
<text text-anchor="start" x="334" y="-205" font-family="Helvetica,sans-Serif" font-size="10.00">include/NNFSCore/Activation</text>
<text text-anchor="middle" x="398.5" y="-194" font-family="Helvetica,sans-Serif" font-size="10.00">/Activation.hpp</text>
</a>
</g>
</g>
<!-- Node2 -->
<g id="node2" class="node">
<title>Node2</title>
<g id="a_node2"><a xlink:href="_linear_8hpp.html" target="_top" xlink:title=" ">
<polygon fill="white" stroke="#666666" points="145,-151 0,-151 0,-121 145,-121 145,-151"/>
<text text-anchor="start" x="8" y="-139" font-family="Helvetica,sans-Serif" font-size="10.00">include/NNFSCore/Activation</text>
<text text-anchor="middle" x="72.5" y="-128" font-family="Helvetica,sans-Serif" font-size="10.00">/Linear.hpp</text>
</a>
</g>
</g>
<!-- Node1&#45;&gt;Node2 -->
<g id="edge1" class="edge">
<title>Node1&#45;&gt;Node2</title>
<path fill="none" stroke="#63b8ff" d="M315.12,-184.63C262.67,-174.33 195.63,-161.17 145.31,-151.29"/>
<polygon fill="#63b8ff" stroke="#63b8ff" points="314.26,-188.22 324.74,-186.72 315.61,-181.36 314.26,-188.22"/>
</g>
<!-- Node4 -->
<g id="node4" class="node">
<title>Node4</title>
<g id="a_node4"><a xlink:href="_re_l_u_8hpp.html" target="_top" xlink:title=" ">
<polygon fill="white" stroke="#666666" points="308,-151 163,-151 163,-121 308,-121 308,-151"/>
<text text-anchor="start" x="171" y="-139" font-family="Helvetica,sans-Serif" font-size="10.00">include/NNFSCore/Activation</text>
<text text-anchor="middle" x="235.5" y="-128" font-family="Helvetica,sans-Serif" font-size="10.00">/ReLU.hpp</text>
</a>
</g>
</g>
<!-- Node1&#45;&gt;Node4 -->
<g id="edge3" class="edge">
<title>Node1&#45;&gt;Node4</title>
<path fill="none" stroke="#63b8ff" d="M351.82,-182.67C326.55,-172.75 295.78,-160.67 272.24,-151.43"/>
<polygon fill="#63b8ff" stroke="#63b8ff" points="350.33,-186.24 360.92,-186.64 352.89,-179.72 350.33,-186.24"/>
</g>
<!-- Node5 -->
<g id="node5" class="node">
<title>Node5</title>
<g id="a_node5"><a xlink:href="_sigmoid_8hpp.html" target="_top" xlink:title=" ">
<polygon fill="white" stroke="#666666" points="471,-151 326,-151 326,-121 471,-121 471,-151"/>
<text text-anchor="start" x="334" y="-139" font-family="Helvetica,sans-Serif" font-size="10.00">include/NNFSCore/Activation</text>
<text text-anchor="middle" x="398.5" y="-128" font-family="Helvetica,sans-Serif" font-size="10.00">/Sigmoid.hpp</text>
</a>
</g>
</g>
<!-- Node1&#45;&gt;Node5 -->
<g id="edge5" class="edge">
<title>Node1&#45;&gt;Node5</title>
<path fill="none" stroke="#63b8ff" d="M398.5,-175.97C398.5,-167.55 398.5,-158.45 398.5,-151.16"/>
<polygon fill="#63b8ff" stroke="#63b8ff" points="395,-175.8 398.5,-185.8 402,-175.8 395,-175.8"/>
</g>
<!-- Node6 -->
<g id="node6" class="node">
<title>Node6</title>
<g id="a_node6"><a xlink:href="_model_8hpp.html" target="_top" xlink:title=" ">
<polygon fill="white" stroke="#666666" points="617.5,-151 489.5,-151 489.5,-121 617.5,-121 617.5,-151"/>
<text text-anchor="start" x="497.5" y="-139" font-family="Helvetica,sans-Serif" font-size="10.00">include/NNFSCore/Model</text>
<text text-anchor="middle" x="553.5" y="-128" font-family="Helvetica,sans-Serif" font-size="10.00">/Model.hpp</text>
</a>
</g>
</g>
<!-- Node1&#45;&gt;Node6 -->
<g id="edge7" class="edge">
<title>Node1&#45;&gt;Node6</title>
<path fill="none" stroke="#63b8ff" d="M443.21,-182.54C467.18,-172.64 496.27,-160.63 518.56,-151.43"/>
<polygon fill="#63b8ff" stroke="#63b8ff" points="442.19,-179.59 434.29,-186.64 444.86,-186.06 442.19,-179.59"/>
</g>
<!-- Node7 -->
<g id="node7" class="node">
<title>Node7</title>
<g id="a_node7"><a xlink:href="_neural_network_8hpp.html" target="_top" xlink:title=" ">
<polygon fill="white" stroke="#666666" points="663.5,-85 535.5,-85 535.5,-55 663.5,-55 663.5,-85"/>
<text text-anchor="start" x="543.5" y="-73" font-family="Helvetica,sans-Serif" font-size="10.00">include/NNFSCore/Model</text>
<text text-anchor="middle" x="599.5" y="-62" font-family="Helvetica,sans-Serif" font-size="10.00">/NeuralNetwork.hpp</text>
</a>
</g>
</g>
<!-- Node1&#45;&gt;Node7 -->
<g id="edge10" class="edge">
<title>Node1&#45;&gt;Node7</title>
<path fill="none" stroke="#63b8ff" d="M481.82,-193.58C539.23,-186.55 608.33,-173.59 626.5,-151 642.12,-131.58 625.09,-102.68 611.88,-85.45"/>
<polygon fill="#63b8ff" stroke="#63b8ff" points="481.78,-190.18 472.26,-194.83 482.6,-197.14 481.78,-190.18"/>
</g>
<!-- Node3 -->
<g id="node3" class="node">
<title>Node3</title>
<g id="a_node3"><a xlink:href="test__activation_8cpp.html" target="_top" xlink:title=" ">
<polygon fill="white" stroke="#666666" points="297,-79.5 174,-79.5 174,-60.5 297,-60.5 297,-79.5"/>
<text text-anchor="middle" x="235.5" y="-67.5" font-family="Helvetica,sans-Serif" font-size="10.00">tests/test_activation.cpp</text>
</a>
</g>
</g>
<!-- Node2&#45;&gt;Node3 -->
<g id="edge2" class="edge">
<title>Node2&#45;&gt;Node3</title>
<path fill="none" stroke="#63b8ff" d="M119.12,-116.69C149.75,-104.67 188.47,-89.47 212.61,-79.99"/>
<polygon fill="#63b8ff" stroke="#63b8ff" points="118.11,-113.72 110.08,-120.64 120.67,-120.24 118.11,-113.72"/>
</g>
<!-- Node4&#45;&gt;Node3 -->
<g id="edge4" class="edge">
<title>Node4&#45;&gt;Node3</title>
<path fill="none" stroke="#63b8ff" d="M235.5,-109.93C235.5,-99.31 235.5,-87.61 235.5,-79.84"/>
<polygon fill="#63b8ff" stroke="#63b8ff" points="232,-109.8 235.5,-119.8 239,-109.8 232,-109.8"/>
</g>
<!-- Node5&#45;&gt;Node3 -->
<g id="edge6" class="edge">
<title>Node5&#45;&gt;Node3</title>
<path fill="none" stroke="#63b8ff" d="M351.88,-116.69C321.25,-104.67 282.53,-89.47 258.39,-79.99"/>
<polygon fill="#63b8ff" stroke="#63b8ff" points="350.33,-120.24 360.92,-120.64 352.89,-113.72 350.33,-120.24"/>
</g>
<!-- Node6&#45;&gt;Node7 -->
<g id="edge8" class="edge">
<title>Node6&#45;&gt;Node7</title>
<path fill="none" stroke="#63b8ff" d="M570.06,-111.96C576.5,-103 583.67,-93.03 589.32,-85.16"/>
<polygon fill="#63b8ff" stroke="#63b8ff" points="566.7,-109.63 563.71,-119.8 572.39,-113.72 566.7,-109.63"/>
</g>
<!-- Node8 -->
<g id="node8" class="node">
<title>Node8</title>
<g id="a_node8"><a xlink:href="test__neural__network_8cpp.html" target="_top" xlink:title=" ">
<polygon fill="white" stroke="#666666" points="673,-19 526,-19 526,0 673,0 673,-19"/>
<text text-anchor="middle" x="599.5" y="-7" font-family="Helvetica,sans-Serif" font-size="10.00">tests/test_neural_network.cpp</text>
</a>
</g>
</g>
<!-- Node7&#45;&gt;Node8 -->
<g id="edge9" class="edge">
<title>Node7&#45;&gt;Node8</title>
<path fill="none" stroke="#63b8ff" d="M599.5,-43.59C599.5,-34.85 599.5,-25.65 599.5,-19.18"/>
<polygon fill="#63b8ff" stroke="#63b8ff" points="596,-43.54 599.5,-53.54 603,-43.54 596,-43.54"/>
</g>
</g>
</svg>
