<?xml version="1.0" encoding="UTF-8" standalone="no"?>
<!DOCTYPE svg PUBLIC "-//W3C//DTD SVG 1.1//EN"
 "http://www.w3.org/Graphics/SVG/1.1/DTD/svg11.dtd">
<!-- Generated by graphviz version 8.0.5 (20230430.1635)
 -->
<!-- Title: include/NNFS/Activation/Activation.hpp Pages: 1 -->
<svg width="563pt" height="238pt"
 viewBox="0.00 0.00 563.00 238.00" xmlns="http://www.w3.org/2000/svg" xmlns:xlink="http://www.w3.org/1999/xlink">
<g id="graph0" class="graph" transform="scale(1 1) rotate(0) translate(4 234)">
<title>include/NNFS/Activation/Activation.hpp</title>
<!-- Node1 -->
<g id="node1" class="node">
<title>Node1</title>
<g id="a_node1"><a xlink:title=" ">
<polygon fill="#999999" stroke="#666666" points="304,-230 180,-230 180,-199.5 304,-199.5 304,-230"/>
<text text-anchor="start" x="188" y="-216.5" font-family="Helvetica,sans-Serif" font-size="10.00">include/NNFS/Activation</text>
<text text-anchor="middle" x="242" y="-205.25" font-family="Helvetica,sans-Serif" font-size="10.00">/Activation.hpp</text>
</a>
</g>
</g>
<!-- Node2 -->
<g id="node2" class="node">
<title>Node2</title>
<g id="a_node2"><a xlink:href="_re_l_u_8hpp.html" target="_top" xlink:title=" ">
<polygon fill="white" stroke="#666666" points="124,-97 0,-97 0,-66.5 124,-66.5 124,-97"/>
<text text-anchor="start" x="8" y="-83.5" font-family="Helvetica,sans-Serif" font-size="10.00">include/NNFS/Activation</text>
<text text-anchor="middle" x="62" y="-72.25" font-family="Helvetica,sans-Serif" font-size="10.00">/ReLU.hpp</text>
</a>
</g>
</g>
<!-- Node1&#45;&gt;Node2 -->
<g id="edge1" class="edge">
<title>Node1&#45;&gt;Node2</title>
<path fill="none" stroke="#63b8ff" d="M193.66,-194.84C175.38,-186.57 154.92,-175.91 138,-163.5 111.61,-144.14 86.76,-114.88 73.03,-97.41"/>
<polygon fill="#63b8ff" stroke="#63b8ff" points="191.99,-198.36 202.55,-199.18 194.8,-191.95 191.99,-198.36"/>
</g>
<!-- Node3 -->
<g id="node3" class="node">
<title>Node3</title>
<g id="a_node3"><a xlink:href="_neural_network_8hpp.html" target="_top" xlink:title=" ">
<polygon fill="white" stroke="#666666" points="340.38,-30.5 233.62,-30.5 233.62,0 340.38,0 340.38,-30.5"/>
<text text-anchor="start" x="241.62" y="-17" font-family="Helvetica,sans-Serif" font-size="10.00">include/NNFS/Model</text>
<text text-anchor="middle" x="287" y="-5.75" font-family="Helvetica,sans-Serif" font-size="10.00">/NeuralNetwork.hpp</text>
</a>
</g>
</g>
<!-- Node1&#45;&gt;Node3 -->
<g id="edge11" class="edge">
<title>Node1&#45;&gt;Node3</title>
<path fill="none" stroke="#63b8ff" d="M217.63,-191.96C187.55,-162.35 143.55,-108.31 171,-66.5 184.97,-45.22 210.1,-32.91 233.4,-25.8"/>
<polygon fill="#63b8ff" stroke="#63b8ff" points="214.65,-193.91 224.3,-198.28 219.48,-188.84 214.65,-193.91"/>
</g>
<!-- Node4 -->
<g id="node4" class="node">
<title>Node4</title>
<g id="a_node4"><a xlink:href="_sigmoid_8hpp.html" target="_top" xlink:title=" ">
<polygon fill="white" stroke="#666666" points="304,-97 180,-97 180,-66.5 304,-66.5 304,-97"/>
<text text-anchor="start" x="188" y="-83.5" font-family="Helvetica,sans-Serif" font-size="10.00">include/NNFS/Activation</text>
<text text-anchor="middle" x="242" y="-72.25" font-family="Helvetica,sans-Serif" font-size="10.00">/Sigmoid.hpp</text>
</a>
</g>
</g>
<!-- Node1&#45;&gt;Node4 -->
<g id="edge3" class="edge">
<title>Node1&#45;&gt;Node4</title>
<path fill="none" stroke="#63b8ff" d="M242,-188.29C242,-161.21 242,-119.31 242,-97.33"/>
<polygon fill="#63b8ff" stroke="#63b8ff" points="238.5,-188.23 242,-198.23 245.5,-188.23 238.5,-188.23"/>
</g>
<!-- Node5 -->
<g id="node5" class="node">
<title>Node5</title>
<g id="a_node5"><a xlink:href="_softmax_8hpp.html" target="_top" xlink:title=" ">
<polygon fill="white" stroke="#666666" points="394,-163.5 270,-163.5 270,-133 394,-133 394,-163.5"/>
<text text-anchor="start" x="278" y="-150" font-family="Helvetica,sans-Serif" font-size="10.00">include/NNFS/Activation</text>
<text text-anchor="middle" x="332" y="-138.75" font-family="Helvetica,sans-Serif" font-size="10.00">/Softmax.hpp</text>
</a>
</g>
</g>
<!-- Node1&#45;&gt;Node5 -->
<g id="edge5" class="edge">
<title>Node1&#45;&gt;Node5</title>
<path fill="none" stroke="#63b8ff" d="M271.18,-192.84C284.4,-183.37 299.71,-172.39 311.66,-163.83"/>
<polygon fill="#63b8ff" stroke="#63b8ff" points="269.51,-190.44 263.42,-199.11 273.59,-196.13 269.51,-190.44"/>
</g>
<!-- Node7 -->
<g id="node7" class="node">
<title>Node7</title>
<g id="a_node7"><a xlink:href="_tanh_8hpp.html" target="_top" xlink:title=" ">
<polygon fill="white" stroke="#666666" points="555,-163.5 431,-163.5 431,-133 555,-133 555,-163.5"/>
<text text-anchor="start" x="439" y="-150" font-family="Helvetica,sans-Serif" font-size="10.00">include/NNFS/Activation</text>
<text text-anchor="middle" x="493" y="-138.75" font-family="Helvetica,sans-Serif" font-size="10.00">/Tanh.hpp</text>
</a>
</g>
</g>
<!-- Node1&#45;&gt;Node7 -->
<g id="edge9" class="edge">
<title>Node1&#45;&gt;Node7</title>
<path fill="none" stroke="#63b8ff" d="M309.86,-196.31C349.33,-186.17 398.52,-173.53 435.98,-163.9"/>
<polygon fill="#63b8ff" stroke="#63b8ff" points="309.08,-193.15 300.27,-199.03 310.83,-199.93 309.08,-193.15"/>
</g>
<!-- Node2&#45;&gt;Node3 -->
<g id="edge2" class="edge">
<title>Node2&#45;&gt;Node3</title>
<path fill="none" stroke="#63b8ff" d="M123.51,-63.12C158.78,-53.01 202.52,-40.47 235.88,-30.9"/>
<polygon fill="#63b8ff" stroke="#63b8ff" points="122.99,-59.91 114.34,-66.03 124.91,-66.64 122.99,-59.91"/>
</g>
<!-- Node4&#45;&gt;Node3 -->
<g id="edge4" class="edge">
<title>Node4&#45;&gt;Node3</title>
<path fill="none" stroke="#63b8ff" d="M258.33,-57.35C264.51,-48.48 271.37,-38.65 276.83,-30.83"/>
<polygon fill="#63b8ff" stroke="#63b8ff" points="255.06,-54.91 252.21,-65.11 260.8,-58.92 255.06,-54.91"/>
</g>
<!-- Node5&#45;&gt;Node3 -->
<g id="edge8" class="edge">
<title>Node5&#45;&gt;Node3</title>
<path fill="none" stroke="#63b8ff" d="M327.7,-121.89C324.56,-105.74 319.67,-84.54 313,-66.5 308.37,-53.97 301.32,-40.57 295.73,-30.76"/>
<polygon fill="#63b8ff" stroke="#63b8ff" points="324.43,-122.44 329.68,-131.64 331.31,-121.17 324.43,-122.44"/>
</g>
<!-- Node6 -->
<g id="node6" class="node">
<title>Node6</title>
<g id="a_node6"><a xlink:href="_c_c_e___softmax_8hpp.html" target="_top" xlink:title=" ">
<polygon fill="white" stroke="#666666" points="484.38,-97 359.62,-97 359.62,-66.5 484.38,-66.5 484.38,-97"/>
<text text-anchor="start" x="367.62" y="-83.5" font-family="Helvetica,sans-Serif" font-size="10.00">include/NNFS/Loss/CCE</text>
<text text-anchor="middle" x="422" y="-72.25" font-family="Helvetica,sans-Serif" font-size="10.00">_Softmax.hpp</text>
</a>
</g>
</g>
<!-- Node5&#45;&gt;Node6 -->
<g id="edge6" class="edge">
<title>Node5&#45;&gt;Node6</title>
<path fill="none" stroke="#63b8ff" d="M361.18,-126.34C374.4,-116.87 389.71,-105.89 401.66,-97.33"/>
<polygon fill="#63b8ff" stroke="#63b8ff" points="359.51,-123.94 353.42,-132.61 363.59,-129.63 359.51,-123.94"/>
</g>
<!-- Node6&#45;&gt;Node3 -->
<g id="edge7" class="edge">
<title>Node6&#45;&gt;Node3</title>
<path fill="none" stroke="#63b8ff" d="M381.64,-61.47C361.07,-51.64 336.48,-39.89 317.51,-30.83"/>
<polygon fill="#63b8ff" stroke="#63b8ff" points="379.83,-64.96 390.37,-66.11 382.85,-58.64 379.83,-64.96"/>
</g>
<!-- Node7&#45;&gt;Node3 -->
<g id="edge10" class="edge">
<title>Node7&#45;&gt;Node3</title>
<path fill="none" stroke="#63b8ff" d="M500.45,-122.15C503.98,-104.73 505.15,-81.97 493,-66.5 474.38,-42.8 395.3,-28.86 340.72,-21.89"/>
<polygon fill="#63b8ff" stroke="#63b8ff" points="496.85,-121.15 497.9,-131.69 503.65,-122.79 496.85,-121.15"/>
</g>
</g>
</svg>
