<?xml version="1.0" encoding="UTF-8" standalone="no"?>
<!DOCTYPE svg PUBLIC "-//W3C//DTD SVG 1.1//EN"
 "http://www.w3.org/Graphics/SVG/1.1/DTD/svg11.dtd">
<!-- Generated by graphviz version 8.0.5 (20230430.1635)
 -->
<!-- Title: include/NNFSCore/Activation/Activation.hpp Pages: 1 -->
<svg width="645pt" height="238pt"
 viewBox="0.00 0.00 645.46 238.00" xmlns="http://www.w3.org/2000/svg" xmlns:xlink="http://www.w3.org/1999/xlink">
<g id="graph0" class="graph" transform="scale(1 1) rotate(0) translate(4 234)">
<title>include/NNFSCore/Activation/Activation.hpp</title>
<!-- Node1 -->
<g id="node1" class="node">
<title>Node1</title>
<g id="a_node1"><a xlink:title=" ">
<polygon fill="#999999" stroke="#666666" points="257.34,-230 113.09,-230 113.09,-199.5 257.34,-199.5 257.34,-230"/>
<text text-anchor="start" x="121.09" y="-216.5" font-family="Helvetica,sans-Serif" font-size="10.00">include/NNFSCore/Activation</text>
<text text-anchor="middle" x="185.21" y="-205.25" font-family="Helvetica,sans-Serif" font-size="10.00">/Activation.hpp</text>
</a>
</g>
</g>
<!-- Node2 -->
<g id="node2" class="node">
<title>Node2</title>
<g id="a_node2"><a xlink:href="_re_l_u_8hpp.html" target="_top" xlink:title=" ">
<polygon fill="white" stroke="#666666" points="357.34,-163.5 213.09,-163.5 213.09,-133 357.34,-133 357.34,-163.5"/>
<text text-anchor="start" x="221.09" y="-150" font-family="Helvetica,sans-Serif" font-size="10.00">include/NNFSCore/Activation</text>
<text text-anchor="middle" x="285.21" y="-138.75" font-family="Helvetica,sans-Serif" font-size="10.00">/ReLU.hpp</text>
</a>
</g>
</g>
<!-- Node1&#45;&gt;Node2 -->
<g id="edge1" class="edge">
<title>Node1&#45;&gt;Node2</title>
<path fill="none" stroke="#63b8ff" d="M216.78,-193.39C231.66,-183.79 249.07,-172.56 262.61,-163.83"/>
<polygon fill="#63b8ff" stroke="#63b8ff" points="215.41,-190.75 208.9,-199.11 219.2,-196.63 215.41,-190.75"/>
</g>
<!-- Node3 -->
<g id="node3" class="node">
<title>Node3</title>
<g id="a_node3"><a xlink:href="_neural_network_8hpp.html" target="_top" xlink:title=" ">
<polygon fill="white" stroke="#666666" points="290.71,-30.5 163.71,-30.5 163.71,0 290.71,0 290.71,-30.5"/>
<text text-anchor="start" x="171.71" y="-17" font-family="Helvetica,sans-Serif" font-size="10.00">include/NNFSCore/Model</text>
<text text-anchor="middle" x="227.21" y="-5.75" font-family="Helvetica,sans-Serif" font-size="10.00">/NeuralNetwork.hpp</text>
</a>
</g>
</g>
<!-- Node1&#45;&gt;Node3 -->
<g id="edge15" class="edge">
<title>Node1&#45;&gt;Node3</title>
<path fill="none" stroke="#63b8ff" d="M102.16,-207.2C45.3,-198.61 -16.39,-178.79 4.21,-133 32,-71.23 107.89,-41.46 163.44,-27.58"/>
<polygon fill="#63b8ff" stroke="#63b8ff" points="101.31,-210.75 111.7,-208.67 102.29,-203.82 101.31,-210.75"/>
</g>
<!-- Node5 -->
<g id="node5" class="node">
<title>Node5</title>
<g id="a_node5"><a xlink:href="_sigmoid_8hpp.html" target="_top" xlink:title=" ">
<polygon fill="white" stroke="#666666" points="249.34,-97 105.09,-97 105.09,-66.5 249.34,-66.5 249.34,-97"/>
<text text-anchor="start" x="113.09" y="-83.5" font-family="Helvetica,sans-Serif" font-size="10.00">include/NNFSCore/Activation</text>
<text text-anchor="middle" x="177.21" y="-72.25" font-family="Helvetica,sans-Serif" font-size="10.00">/Sigmoid.hpp</text>
</a>
</g>
</g>
<!-- Node1&#45;&gt;Node5 -->
<g id="edge4" class="edge">
<title>Node1&#45;&gt;Node5</title>
<path fill="none" stroke="#63b8ff" d="M183.66,-188.29C182,-161.21 179.44,-119.31 178.1,-97.33"/>
<polygon fill="#63b8ff" stroke="#63b8ff" points="180.22,-188.46 184.32,-198.23 187.21,-188.04 180.22,-188.46"/>
</g>
<!-- Node6 -->
<g id="node6" class="node">
<title>Node6</title>
<g id="a_node6"><a xlink:href="_softmax_8hpp.html" target="_top" xlink:title=" ">
<polygon fill="white" stroke="#666666" points="527.34,-163.5 383.09,-163.5 383.09,-133 527.34,-133 527.34,-163.5"/>
<text text-anchor="start" x="391.09" y="-150" font-family="Helvetica,sans-Serif" font-size="10.00">include/NNFSCore/Activation</text>
<text text-anchor="middle" x="455.21" y="-138.75" font-family="Helvetica,sans-Serif" font-size="10.00">/Softmax.hpp</text>
</a>
</g>
</g>
<!-- Node1&#45;&gt;Node6 -->
<g id="edge6" class="edge">
<title>Node1&#45;&gt;Node6</title>
<path fill="none" stroke="#63b8ff" d="M257.4,-196.51C299.99,-186.33 353.32,-173.59 393.87,-163.9"/>
<polygon fill="#63b8ff" stroke="#63b8ff" points="256.73,-193.31 247.82,-199.03 258.35,-200.11 256.73,-193.31"/>
</g>
<!-- Node9 -->
<g id="node9" class="node">
<title>Node9</title>
<g id="a_node9"><a xlink:href="_tanh_8hpp.html" target="_top" xlink:title=" ">
<polygon fill="white" stroke="#666666" points="157.34,-163.5 13.09,-163.5 13.09,-133 157.34,-133 157.34,-163.5"/>
<text text-anchor="start" x="21.09" y="-150" font-family="Helvetica,sans-Serif" font-size="10.00">include/NNFSCore/Activation</text>
<text text-anchor="middle" x="85.21" y="-138.75" font-family="Helvetica,sans-Serif" font-size="10.00">/Tanh.hpp</text>
</a>
</g>
</g>
<!-- Node1&#45;&gt;Node9 -->
<g id="edge13" class="edge">
<title>Node1&#45;&gt;Node9</title>
<path fill="none" stroke="#63b8ff" d="M153.64,-193.39C138.76,-183.79 121.35,-172.56 107.81,-163.83"/>
<polygon fill="#63b8ff" stroke="#63b8ff" points="151.22,-196.63 161.52,-199.11 155.01,-190.75 151.22,-196.63"/>
</g>
<!-- Node2&#45;&gt;Node3 -->
<g id="edge2" class="edge">
<title>Node2&#45;&gt;Node3</title>
<path fill="none" stroke="#63b8ff" d="M278.47,-122.25C273.7,-106 266.66,-84.56 258.21,-66.5 252.3,-53.87 243.92,-40.48 237.36,-30.7"/>
<polygon fill="#63b8ff" stroke="#63b8ff" points="275.3,-122.9 281.4,-131.57 282.04,-120.99 275.3,-122.9"/>
</g>
<!-- Node4 -->
<g id="node4" class="node">
<title>Node4</title>
<g id="a_node4"><a xlink:href="test__activation_8cpp.html" target="_top" xlink:title=" ">
<polygon fill="white" stroke="#666666" points="427.46,-91.38 304.96,-91.38 304.96,-72.12 427.46,-72.12 427.46,-91.38"/>
<text text-anchor="middle" x="366.21" y="-77.88" font-family="Helvetica,sans-Serif" font-size="10.00">tests/test_activation.cpp</text>
</a>
</g>
</g>
<!-- Node2&#45;&gt;Node4 -->
<g id="edge3" class="edge">
<title>Node2&#45;&gt;Node4</title>
<path fill="none" stroke="#63b8ff" d="M311.86,-126.03C326.57,-114.32 344.04,-100.4 355.13,-91.57"/>
<polygon fill="#63b8ff" stroke="#63b8ff" points="310.23,-123.65 304.59,-132.61 314.59,-129.12 310.23,-123.65"/>
</g>
<!-- Node5&#45;&gt;Node3 -->
<g id="edge5" class="edge">
<title>Node5&#45;&gt;Node3</title>
<path fill="none" stroke="#63b8ff" d="M195.13,-57.63C202.06,-48.69 209.78,-38.74 215.91,-30.83"/>
<polygon fill="#63b8ff" stroke="#63b8ff" points="191.92,-55.07 188.56,-65.11 197.45,-59.35 191.92,-55.07"/>
</g>
<!-- Node6&#45;&gt;Node3 -->
<g id="edge10" class="edge">
<title>Node6&#45;&gt;Node3</title>
<path fill="none" stroke="#63b8ff" d="M455.83,-121.75C454.85,-103.96 450.54,-80.9 436.21,-66.5 416.01,-46.2 344.89,-32.18 291.18,-24.2"/>
<polygon fill="#63b8ff" stroke="#63b8ff" points="452.34,-121.62 456.06,-131.54 459.34,-121.47 452.34,-121.62"/>
</g>
<!-- Node6&#45;&gt;Node4 -->
<g id="edge11" class="edge">
<title>Node6&#45;&gt;Node4</title>
<path fill="none" stroke="#63b8ff" d="M426.43,-126.4C410.28,-114.69 390.96,-100.69 378.64,-91.76"/>
<polygon fill="#63b8ff" stroke="#63b8ff" points="423.86,-129.58 434.01,-132.61 427.97,-123.91 423.86,-129.58"/>
</g>
<!-- Node7 -->
<g id="node7" class="node">
<title>Node7</title>
<g id="a_node7"><a xlink:href="_c_c_e___softmax_8hpp.html" target="_top" xlink:title=" ">
<polygon fill="white" stroke="#666666" points="605.46,-97 482.96,-97 482.96,-66.5 605.46,-66.5 605.46,-97"/>
<text text-anchor="start" x="490.96" y="-83.5" font-family="Helvetica,sans-Serif" font-size="10.00">include/NNFSCore/Loss</text>
<text text-anchor="middle" x="544.21" y="-72.25" font-family="Helvetica,sans-Serif" font-size="10.00">/CCE_Softmax.hpp</text>
</a>
</g>
</g>
<!-- Node6&#45;&gt;Node7 -->
<g id="edge7" class="edge">
<title>Node6&#45;&gt;Node7</title>
<path fill="none" stroke="#63b8ff" d="M484.06,-126.34C497.14,-116.87 512.28,-105.89 524.09,-97.33"/>
<polygon fill="#63b8ff" stroke="#63b8ff" points="482.45,-123.91 476.41,-132.61 486.56,-129.58 482.45,-123.91"/>
</g>
<!-- Node8 -->
<g id="node8" class="node">
<title>Node8</title>
<g id="a_node8"><a xlink:href="test__loss_8cpp.html" target="_top" xlink:title=" ">
<polygon fill="white" stroke="#666666" points="637.46,-24.88 538.96,-24.88 538.96,-5.63 637.46,-5.63 637.46,-24.88"/>
<text text-anchor="middle" x="588.21" y="-11.38" font-family="Helvetica,sans-Serif" font-size="10.00">tests/test_loss.cpp</text>
</a>
</g>
</g>
<!-- Node6&#45;&gt;Node8 -->
<g id="edge12" class="edge">
<title>Node6&#45;&gt;Node8</title>
<path fill="none" stroke="#63b8ff" d="M538.19,-140.78C566.98,-134.07 596.46,-121.23 614.21,-97 630.66,-74.55 608.65,-41.23 596,-25.33"/>
<polygon fill="#63b8ff" stroke="#63b8ff" points="537.71,-137.51 528.64,-142.98 539.14,-144.37 537.71,-137.51"/>
</g>
<!-- Node7&#45;&gt;Node3 -->
<g id="edge8" class="edge">
<title>Node7&#45;&gt;Node3</title>
<path fill="none" stroke="#63b8ff" d="M472.08,-66.07C417.54,-54.98 343.36,-39.88 290.98,-29.23"/>
<polygon fill="#63b8ff" stroke="#63b8ff" points="471.22,-69.67 481.71,-68.24 472.61,-62.81 471.22,-69.67"/>
</g>
<!-- Node7&#45;&gt;Node8 -->
<g id="edge9" class="edge">
<title>Node7&#45;&gt;Node8</title>
<path fill="none" stroke="#63b8ff" d="M560.27,-57.2C567.9,-46.02 576.56,-33.32 582.19,-25.07"/>
<polygon fill="#63b8ff" stroke="#63b8ff" points="556.94,-54.88 554.19,-65.11 562.72,-58.83 556.94,-54.88"/>
</g>
<!-- Node9&#45;&gt;Node3 -->
<g id="edge14" class="edge">
<title>Node9&#45;&gt;Node3</title>
<path fill="none" stroke="#63b8ff" d="M82.37,-122.2C81.77,-104.81 83.89,-82.06 96.21,-66.5 112.7,-45.69 138.89,-33.49 163.54,-26.34"/>
<polygon fill="#63b8ff" stroke="#63b8ff" points="78.91,-121.98 83.07,-131.73 85.9,-121.51 78.91,-121.98"/>
</g>
</g>
</svg>
