<?xml version="1.0" encoding="UTF-8" standalone="no"?>
<!DOCTYPE svg PUBLIC "-//W3C//DTD SVG 1.1//EN"
 "http://www.w3.org/Graphics/SVG/1.1/DTD/svg11.dtd">
<!-- Generated by graphviz version 8.0.5 (20230430.1635)
 -->
<!-- Title: include/NNFSCore/Activation/Activation.hpp Pages: 1 -->
<svg width="638pt" height="238pt"
 viewBox="0.00 0.00 638.25 238.00" xmlns="http://www.w3.org/2000/svg" xmlns:xlink="http://www.w3.org/1999/xlink">
<g id="graph0" class="graph" transform="scale(1 1) rotate(0) translate(4 234)">
<title>include/NNFSCore/Activation/Activation.hpp</title>
<!-- Node1 -->
<g id="node1" class="node">
<title>Node1</title>
<g id="a_node1"><a xlink:title=" ">
<polygon fill="#999999" stroke="#666666" points="387.25,-230 243,-230 243,-199.5 387.25,-199.5 387.25,-230"/>
<text text-anchor="start" x="251" y="-216.5" font-family="Helvetica,sans-Serif" font-size="10.00">include/NNFSCore/Activation</text>
<text text-anchor="middle" x="315.12" y="-205.25" font-family="Helvetica,sans-Serif" font-size="10.00">/Activation.hpp</text>
</a>
</g>
</g>
<!-- Node2 -->
<g id="node2" class="node">
<title>Node2</title>
<g id="a_node2"><a xlink:href="_re_l_u_8hpp.html" target="_top" xlink:title=" ">
<polygon fill="white" stroke="#666666" points="144.25,-163.5 0,-163.5 0,-133 144.25,-133 144.25,-163.5"/>
<text text-anchor="start" x="8" y="-150" font-family="Helvetica,sans-Serif" font-size="10.00">include/NNFSCore/Activation</text>
<text text-anchor="middle" x="72.12" y="-138.75" font-family="Helvetica,sans-Serif" font-size="10.00">/ReLU.hpp</text>
</a>
</g>
</g>
<!-- Node1&#45;&gt;Node2 -->
<g id="edge1" class="edge">
<title>Node1&#45;&gt;Node2</title>
<path fill="none" stroke="#63b8ff" d="M249.18,-196.25C211.01,-186.11 163.52,-173.51 127.33,-163.9"/>
<polygon fill="#63b8ff" stroke="#63b8ff" points="248.12,-199.85 258.68,-199.03 249.91,-193.08 248.12,-199.85"/>
</g>
<!-- Node4 -->
<g id="node4" class="node">
<title>Node4</title>
<g id="a_node4"><a xlink:href="_sigmoid_8hpp.html" target="_top" xlink:title=" ">
<polygon fill="white" stroke="#666666" points="306.25,-163.5 162,-163.5 162,-133 306.25,-133 306.25,-163.5"/>
<text text-anchor="start" x="170" y="-150" font-family="Helvetica,sans-Serif" font-size="10.00">include/NNFSCore/Activation</text>
<text text-anchor="middle" x="234.12" y="-138.75" font-family="Helvetica,sans-Serif" font-size="10.00">/Sigmoid.hpp</text>
</a>
</g>
</g>
<!-- Node1&#45;&gt;Node4 -->
<g id="edge3" class="edge">
<title>Node1&#45;&gt;Node4</title>
<path fill="none" stroke="#63b8ff" d="M288.18,-192.29C276.44,-182.94 262.98,-172.23 252.43,-163.83"/>
<polygon fill="#63b8ff" stroke="#63b8ff" points="285.74,-195.62 295.74,-199.11 290.1,-190.15 285.74,-195.62"/>
</g>
<!-- Node5 -->
<g id="node5" class="node">
<title>Node5</title>
<g id="a_node5"><a xlink:href="_softmax_8hpp.html" target="_top" xlink:title=" ">
<polygon fill="white" stroke="#666666" points="468.25,-163.5 324,-163.5 324,-133 468.25,-133 468.25,-163.5"/>
<text text-anchor="start" x="332" y="-150" font-family="Helvetica,sans-Serif" font-size="10.00">include/NNFSCore/Activation</text>
<text text-anchor="middle" x="396.12" y="-138.75" font-family="Helvetica,sans-Serif" font-size="10.00">/Softmax.hpp</text>
</a>
</g>
</g>
<!-- Node1&#45;&gt;Node5 -->
<g id="edge4" class="edge">
<title>Node1&#45;&gt;Node5</title>
<path fill="none" stroke="#63b8ff" d="M342.07,-192.29C353.81,-182.94 367.27,-172.23 377.82,-163.83"/>
<polygon fill="#63b8ff" stroke="#63b8ff" points="340.15,-190.15 334.51,-199.11 344.51,-195.62 340.15,-190.15"/>
</g>
<!-- Node9 -->
<g id="node9" class="node">
<title>Node9</title>
<g id="a_node9"><a xlink:href="_tanh_8hpp.html" target="_top" xlink:title=" ">
<polygon fill="white" stroke="#666666" points="630.25,-163.5 486,-163.5 486,-133 630.25,-133 630.25,-163.5"/>
<text text-anchor="start" x="494" y="-150" font-family="Helvetica,sans-Serif" font-size="10.00">include/NNFSCore/Activation</text>
<text text-anchor="middle" x="558.12" y="-138.75" font-family="Helvetica,sans-Serif" font-size="10.00">/Tanh.hpp</text>
</a>
</g>
</g>
<!-- Node1&#45;&gt;Node9 -->
<g id="edge10" class="edge">
<title>Node1&#45;&gt;Node9</title>
<path fill="none" stroke="#63b8ff" d="M381.07,-196.25C419.24,-186.11 466.73,-173.51 502.92,-163.9"/>
<polygon fill="#63b8ff" stroke="#63b8ff" points="380.34,-193.08 371.57,-199.03 382.13,-199.85 380.34,-193.08"/>
</g>
<!-- Node3 -->
<g id="node3" class="node">
<title>Node3</title>
<g id="a_node3"><a xlink:href="test__activation_8cpp.html" target="_top" xlink:title=" ">
<polygon fill="white" stroke="#666666" points="224.38,-91.38 101.88,-91.38 101.88,-72.12 224.38,-72.12 224.38,-91.38"/>
<text text-anchor="middle" x="163.12" y="-77.88" font-family="Helvetica,sans-Serif" font-size="10.00">tests/test_activation.cpp</text>
</a>
</g>
</g>
<!-- Node2&#45;&gt;Node3 -->
<g id="edge2" class="edge">
<title>Node2&#45;&gt;Node3</title>
<path fill="none" stroke="#63b8ff" d="M101.55,-126.4C118.06,-114.69 137.81,-100.69 150.41,-91.76"/>
<polygon fill="#63b8ff" stroke="#63b8ff" points="99.91,-123.98 93.77,-132.61 103.96,-129.69 99.91,-123.98"/>
</g>
<!-- Node5&#45;&gt;Node3 -->
<g id="edge8" class="edge">
<title>Node5&#45;&gt;Node3</title>
<path fill="none" stroke="#63b8ff" d="M332.6,-129.66C288.4,-117.43 231.28,-101.62 195.93,-91.83"/>
<polygon fill="#63b8ff" stroke="#63b8ff" points="331.39,-133.24 341.96,-132.53 333.26,-126.49 331.39,-133.24"/>
</g>
<!-- Node6 -->
<g id="node6" class="node">
<title>Node6</title>
<g id="a_node6"><a xlink:href="_c_c_e___softmax_8hpp.html" target="_top" xlink:title=" ">
<polygon fill="white" stroke="#666666" points="412.38,-97 289.88,-97 289.88,-66.5 412.38,-66.5 412.38,-97"/>
<text text-anchor="start" x="297.88" y="-83.5" font-family="Helvetica,sans-Serif" font-size="10.00">include/NNFSCore/Loss</text>
<text text-anchor="middle" x="351.12" y="-72.25" font-family="Helvetica,sans-Serif" font-size="10.00">/CCE_Softmax.hpp</text>
</a>
</g>
</g>
<!-- Node5&#45;&gt;Node6 -->
<g id="edge5" class="edge">
<title>Node5&#45;&gt;Node6</title>
<path fill="none" stroke="#63b8ff" d="M379.8,-123.85C373.61,-114.98 366.75,-105.15 361.3,-97.33"/>
<polygon fill="#63b8ff" stroke="#63b8ff" points="377.32,-125.42 385.91,-131.61 383.06,-121.41 377.32,-125.42"/>
</g>
<!-- Node8 -->
<g id="node8" class="node">
<title>Node8</title>
<g id="a_node8"><a xlink:href="test__loss_8cpp.html" target="_top" xlink:title=" ">
<polygon fill="white" stroke="#666666" points="489.38,-24.88 390.88,-24.88 390.88,-5.63 489.38,-5.63 489.38,-24.88"/>
<text text-anchor="middle" x="440.12" y="-11.38" font-family="Helvetica,sans-Serif" font-size="10.00">tests/test_loss.cpp</text>
</a>
</g>
</g>
<!-- Node5&#45;&gt;Node8 -->
<g id="edge9" class="edge">
<title>Node5&#45;&gt;Node8</title>
<path fill="none" stroke="#63b8ff" d="M409.54,-123.11C413.67,-114.99 417.96,-105.76 421.12,-97 430.32,-71.53 436.26,-39.92 438.76,-24.92"/>
<polygon fill="#63b8ff" stroke="#63b8ff" points="406.06,-121.22 404.49,-131.69 412.25,-124.48 406.06,-121.22"/>
</g>
<!-- Node7 -->
<g id="node7" class="node">
<title>Node7</title>
<g id="a_node7"><a xlink:href="_neural_network_8hpp.html" target="_top" xlink:title=" ">
<polygon fill="white" stroke="#666666" points="372.62,-30.5 245.62,-30.5 245.62,0 372.62,0 372.62,-30.5"/>
<text text-anchor="start" x="253.62" y="-17" font-family="Helvetica,sans-Serif" font-size="10.00">include/NNFSCore/Model</text>
<text text-anchor="middle" x="309.12" y="-5.75" font-family="Helvetica,sans-Serif" font-size="10.00">/NeuralNetwork.hpp</text>
</a>
</g>
</g>
<!-- Node6&#45;&gt;Node7 -->
<g id="edge6" class="edge">
<title>Node6&#45;&gt;Node7</title>
<path fill="none" stroke="#63b8ff" d="M335.71,-57.07C329.98,-48.28 323.66,-38.57 318.62,-30.83"/>
<polygon fill="#63b8ff" stroke="#63b8ff" points="333.2,-58.64 341.59,-65.11 339.07,-54.82 333.2,-58.64"/>
</g>
<!-- Node6&#45;&gt;Node8 -->
<g id="edge7" class="edge">
<title>Node6&#45;&gt;Node8</title>
<path fill="none" stroke="#63b8ff" d="M379.9,-59.9C396.05,-48.19 415.37,-34.19 427.69,-25.26"/>
<polygon fill="#63b8ff" stroke="#63b8ff" points="378.36,-57.41 372.32,-66.11 382.47,-63.08 378.36,-57.41"/>
</g>
</g>
</svg>
