<?xml version="1.0" encoding="UTF-8" standalone="no"?>
<!DOCTYPE svg PUBLIC "-//W3C//DTD SVG 1.1//EN"
 "http://www.w3.org/Graphics/SVG/1.1/DTD/svg11.dtd">
<!-- Generated by graphviz version 8.0.5 (20230430.1635)
 -->
<!-- Title: include/NNFS/Optimizer/Adam.hpp Pages: 1 -->
<svg width="340pt" height="315pt"
 viewBox="0.00 0.00 340.02 314.75" xmlns="http://www.w3.org/2000/svg" xmlns:xlink="http://www.w3.org/1999/xlink">
<g id="graph0" class="graph" transform="scale(1 1) rotate(0) translate(4 310.75)">
<title>include/NNFS/Optimizer/Adam.hpp</title>
<!-- Node1 -->
<g id="node1" class="node">
<title>Node1</title>
<g id="a_node1"><a xlink:title=" ">
<polygon fill="#999999" stroke="#666666" points="228.77,-306.75 107.02,-306.75 107.02,-276.25 228.77,-276.25 228.77,-306.75"/>
<text text-anchor="start" x="115.02" y="-293.25" font-family="Helvetica,sans-Serif" font-size="10.00">include/NNFS/Optimizer</text>
<text text-anchor="middle" x="167.89" y="-282" font-family="Helvetica,sans-Serif" font-size="10.00">/Adam.hpp</text>
</a>
</g>
</g>
<!-- Node2 -->
<g id="node2" class="node">
<title>Node2</title>
<g id="a_node2"><a xlink:href="_optimizer_8hpp.html" target="_top" xlink:title=" ">
<polygon fill="white" stroke="#666666" points="205.52,-240.25 130.27,-240.25 130.27,-221 205.52,-221 205.52,-240.25"/>
<text text-anchor="middle" x="167.89" y="-226.75" font-family="Helvetica,sans-Serif" font-size="10.00">Optimizer.hpp</text>
</a>
</g>
</g>
<!-- Node1&#45;&gt;Node2 -->
<g id="edge1" class="edge">
<title>Node1&#45;&gt;Node2</title>
<path fill="none" stroke="#63b8ff" d="M167.89,-275.95C167.89,-268.62 167.89,-259.62 167.89,-251.66"/>
<polygon fill="#63b8ff" stroke="#63b8ff" points="171.39,-251.7 167.89,-241.7 164.39,-251.7 171.39,-251.7"/>
</g>
<!-- Node3 -->
<g id="node3" class="node">
<title>Node3</title>
<g id="a_node3"><a xlink:title=" ">
<polygon fill="#e0e0e0" stroke="#999999" points="140.27,-74.5 69.52,-74.5 69.52,-55.25 140.27,-55.25 140.27,-74.5"/>
<text text-anchor="middle" x="104.89" y="-61" font-family="Helvetica,sans-Serif" font-size="10.00">Eigen/Dense</text>
</a>
</g>
</g>
<!-- Node2&#45;&gt;Node3 -->
<g id="edge2" class="edge">
<title>Node2&#45;&gt;Node3</title>
<path fill="none" stroke="#63b8ff" d="M168.27,-220.69C168.77,-200.08 167.89,-148.06 148.89,-110.5 143.3,-99.43 133.96,-89.37 125.32,-81.62"/>
<polygon fill="#63b8ff" stroke="#63b8ff" points="127.99,-78.44 118.08,-74.68 123.48,-83.8 127.99,-78.44"/>
</g>
<!-- Node4 -->
<g id="node4" class="node">
<title>Node4</title>
<g id="a_node4"><a xlink:href="clue_8hpp.html" target="_top" xlink:title=" ">
<polygon fill="white" stroke="#666666" points="253.64,-74.5 158.14,-74.5 158.14,-55.25 253.64,-55.25 253.64,-74.5"/>
<text text-anchor="middle" x="205.89" y="-61" font-family="Helvetica,sans-Serif" font-size="10.00">../Utilities/clue.hpp</text>
</a>
</g>
</g>
<!-- Node2&#45;&gt;Node4 -->
<g id="edge3" class="edge">
<title>Node2&#45;&gt;Node4</title>
<path fill="none" stroke="#63b8ff" d="M170.96,-220.81C174,-211.87 178.66,-197.58 181.89,-185 190.79,-150.37 198.42,-109.39 202.57,-85.64"/>
<polygon fill="#63b8ff" stroke="#63b8ff" points="206.17,-86.36 204.41,-75.91 199.27,-85.18 206.17,-86.36"/>
</g>
<!-- Node10 -->
<g id="node10" class="node">
<title>Node10</title>
<g id="a_node10"><a xlink:href="_dense_8hpp.html" target="_top" xlink:title=" ">
<polygon fill="white" stroke="#666666" points="114.02,-185 17.77,-185 17.77,-165.75 114.02,-165.75 114.02,-185"/>
<text text-anchor="middle" x="65.89" y="-171.5" font-family="Helvetica,sans-Serif" font-size="10.00">../Layer/Dense.hpp</text>
</a>
</g>
</g>
<!-- Node2&#45;&gt;Node10 -->
<g id="edge9" class="edge">
<title>Node2&#45;&gt;Node10</title>
<path fill="none" stroke="#63b8ff" d="M150.59,-220.59C134.77,-212.33 111.1,-199.98 92.81,-190.43"/>
<polygon fill="#63b8ff" stroke="#63b8ff" points="94.77,-186.98 84.28,-185.45 91.53,-193.18 94.77,-186.98"/>
</g>
<!-- Node5 -->
<g id="node5" class="node">
<title>Node5</title>
<g id="a_node5"><a xlink:title=" ">
<polygon fill="#e0e0e0" stroke="#999999" points="195.77,-19.25 146.02,-19.25 146.02,0 195.77,0 195.77,-19.25"/>
<text text-anchor="middle" x="170.89" y="-5.75" font-family="Helvetica,sans-Serif" font-size="10.00">iomanip</text>
</a>
</g>
</g>
<!-- Node4&#45;&gt;Node5 -->
<g id="edge4" class="edge">
<title>Node4&#45;&gt;Node5</title>
<path fill="none" stroke="#63b8ff" d="M200.12,-55.08C195.43,-47.96 188.68,-37.68 182.84,-28.8"/>
<polygon fill="#63b8ff" stroke="#63b8ff" points="185.22,-27.04 176.8,-20.61 179.37,-30.89 185.22,-27.04"/>
</g>
<!-- Node6 -->
<g id="node6" class="node">
<title>Node6</title>
<g id="a_node6"><a xlink:title=" ">
<polygon fill="#e0e0e0" stroke="#999999" points="265.52,-19.25 214.27,-19.25 214.27,0 265.52,0 265.52,-19.25"/>
<text text-anchor="middle" x="239.89" y="-5.75" font-family="Helvetica,sans-Serif" font-size="10.00">sstream</text>
</a>
</g>
</g>
<!-- Node4&#45;&gt;Node6 -->
<g id="edge5" class="edge">
<title>Node4&#45;&gt;Node6</title>
<path fill="none" stroke="#63b8ff" d="M211.51,-55.08C216.06,-47.96 222.62,-37.68 228.29,-28.8"/>
<polygon fill="#63b8ff" stroke="#63b8ff" points="231.73,-30.92 234.16,-20.61 225.83,-27.15 231.73,-30.92"/>
</g>
<!-- Node7 -->
<g id="node7" class="node">
<title>Node7</title>
<g id="a_node7"><a xlink:title=" ">
<polygon fill="#e0e0e0" stroke="#999999" points="332.02,-19.25 283.77,-19.25 283.77,0 332.02,0 332.02,-19.25"/>
<text text-anchor="middle" x="307.89" y="-5.75" font-family="Helvetica,sans-Serif" font-size="10.00">cassert</text>
</a>
</g>
</g>
<!-- Node4&#45;&gt;Node7 -->
<g id="edge6" class="edge">
<title>Node4&#45;&gt;Node7</title>
<path fill="none" stroke="#63b8ff" d="M223.2,-54.84C239.02,-46.58 262.68,-34.23 280.98,-24.68"/>
<polygon fill="#63b8ff" stroke="#63b8ff" points="282.26,-27.43 289.51,-19.7 279.02,-21.23 282.26,-27.43"/>
</g>
<!-- Node8 -->
<g id="node8" class="node">
<title>Node8</title>
<g id="a_node8"><a xlink:title=" ">
<polygon fill="#e0e0e0" stroke="#999999" points="59.64,-19.25 6.14,-19.25 6.14,0 59.64,0 59.64,-19.25"/>
<text text-anchor="middle" x="32.89" y="-5.75" font-family="Helvetica,sans-Serif" font-size="10.00">iostream</text>
</a>
</g>
</g>
<!-- Node4&#45;&gt;Node8 -->
<g id="edge7" class="edge">
<title>Node4&#45;&gt;Node8</title>
<path fill="none" stroke="#63b8ff" d="M176.55,-54.84C147.27,-45.83 102.19,-31.95 70.35,-22.15"/>
<polygon fill="#63b8ff" stroke="#63b8ff" points="71.69,-18.6 61.1,-19 69.63,-25.29 71.69,-18.6"/>
</g>
<!-- Node9 -->
<g id="node9" class="node">
<title>Node9</title>
<g id="a_node9"><a xlink:title=" ">
<polygon fill="#e0e0e0" stroke="#999999" points="127.89,-19.25 87.89,-19.25 87.89,0 127.89,0 127.89,-19.25"/>
<text text-anchor="middle" x="107.89" y="-5.75" font-family="Helvetica,sans-Serif" font-size="10.00">ctime</text>
</a>
</g>
</g>
<!-- Node4&#45;&gt;Node9 -->
<g id="edge8" class="edge">
<title>Node4&#45;&gt;Node9</title>
<path fill="none" stroke="#63b8ff" d="M189.27,-54.84C174.21,-46.66 151.75,-34.46 134.24,-24.94"/>
<polygon fill="#63b8ff" stroke="#63b8ff" points="136.06,-21.4 125.6,-19.7 132.72,-27.55 136.06,-21.4"/>
</g>
<!-- Node10&#45;&gt;Node8 -->
<g id="edge10" class="edge">
<title>Node10&#45;&gt;Node8</title>
<path fill="none" stroke="#63b8ff" d="M45.76,-165.27C32.04,-157.85 14.96,-145.96 6.89,-129.75 -9.61,-96.57 8.62,-53.05 21.8,-28.86"/>
<polygon fill="#63b8ff" stroke="#63b8ff" points="25.24,-30.9 27.19,-20.48 19.17,-27.41 25.24,-30.9"/>
</g>
<!-- Node11 -->
<g id="node11" class="node">
<title>Node11</title>
<g id="a_node11"><a xlink:title=" ">
<polygon fill="#e0e0e0" stroke="#999999" points="64.02,-129.75 15.77,-129.75 15.77,-110.5 64.02,-110.5 64.02,-129.75"/>
<text text-anchor="middle" x="39.89" y="-116.25" font-family="Helvetica,sans-Serif" font-size="10.00">random</text>
</a>
</g>
</g>
<!-- Node10&#45;&gt;Node11 -->
<g id="edge11" class="edge">
<title>Node10&#45;&gt;Node11</title>
<path fill="none" stroke="#63b8ff" d="M61.6,-165.58C58.2,-158.61 53.32,-148.62 49.05,-139.87"/>
<polygon fill="#63b8ff" stroke="#63b8ff" points="51.81,-138.56 44.28,-131.11 45.52,-141.63 51.81,-138.56"/>
</g>
<!-- Node12 -->
<g id="node12" class="node">
<title>Node12</title>
<g id="a_node12"><a xlink:href="_layer_8hpp.html" target="_top" xlink:title=" ">
<polygon fill="white" stroke="#666666" points="139.89,-129.75 81.89,-129.75 81.89,-110.5 139.89,-110.5 139.89,-129.75"/>
<text text-anchor="middle" x="110.89" y="-116.25" font-family="Helvetica,sans-Serif" font-size="10.00">Layer.hpp</text>
</a>
</g>
</g>
<!-- Node10&#45;&gt;Node12 -->
<g id="edge12" class="edge">
<title>Node10&#45;&gt;Node12</title>
<path fill="none" stroke="#63b8ff" d="M73.33,-165.58C79.54,-158.23 88.6,-147.51 96.26,-138.44"/>
<polygon fill="#63b8ff" stroke="#63b8ff" points="99.52,-141.01 103.3,-131.11 94.17,-136.49 99.52,-141.01"/>
</g>
<!-- Node12&#45;&gt;Node3 -->
<g id="edge13" class="edge">
<title>Node12&#45;&gt;Node3</title>
<path fill="none" stroke="#63b8ff" d="M109.9,-110.33C109.15,-103.67 108.09,-94.24 107.14,-85.78"/>
<polygon fill="#63b8ff" stroke="#63b8ff" points="110.5,-85.4 105.91,-75.86 103.55,-86.19 110.5,-85.4"/>
</g>
<!-- Node12&#45;&gt;Node4 -->
<g id="edge14" class="edge">
<title>Node12&#45;&gt;Node4</title>
<path fill="none" stroke="#63b8ff" d="M127.01,-110.09C141.61,-101.91 163.38,-89.71 180.35,-80.19"/>
<polygon fill="#63b8ff" stroke="#63b8ff" points="181.69,-82.9 188.7,-74.95 178.27,-76.79 181.69,-82.9"/>
</g>
</g>
</svg>
