<?xml version="1.0" encoding="UTF-8" standalone="no"?>
<!DOCTYPE svg PUBLIC "-//W3C//DTD SVG 1.1//EN"
 "http://www.w3.org/Graphics/SVG/1.1/DTD/svg11.dtd">
<!-- Generated by graphviz version 8.0.2 (20230410.1723)
 -->
<!-- Title: include/NNFSCore/Loss/BinaryCrossEntropy.hpp Pages: 1 -->
<svg width="131pt" height="148pt"
 viewBox="0.00 0.00 131.00 148.00" xmlns="http://www.w3.org/2000/svg" xmlns:xlink="http://www.w3.org/1999/xlink">
<g id="graph0" class="graph" transform="scale(1 1) rotate(0) translate(4 144)">
<title>include/NNFSCore/Loss/BinaryCrossEntropy.hpp</title>
<!-- Node1 -->
<g id="node1" class="node">
<title>Node1</title>
<g id="a_node1"><a xlink:title=" ">
<polygon fill="#999999" stroke="#666666" points="123,-140 0,-140 0,-110 123,-110 123,-140"/>
<text text-anchor="start" x="8" y="-128" font-family="Helvetica,sans-Serif" font-size="10.00">include/NNFSCore/Loss</text>
<text text-anchor="middle" x="61.5" y="-117" font-family="Helvetica,sans-Serif" font-size="10.00">/BinaryCrossEntropy.hpp</text>
</a>
</g>
</g>
<!-- Node2 -->
<g id="node2" class="node">
<title>Node2</title>
<g id="a_node2"><a xlink:href="_loss_8hpp.html" target="_top" xlink:title=" ">
<polygon fill="white" stroke="#666666" points="89.5,-74 33.5,-74 33.5,-55 89.5,-55 89.5,-74"/>
<text text-anchor="middle" x="61.5" y="-62" font-family="Helvetica,sans-Serif" font-size="10.00">Loss.hpp</text>
</a>
</g>
</g>
<!-- Node1&#45;&gt;Node2 -->
<g id="edge1" class="edge">
<title>Node1&#45;&gt;Node2</title>
<path fill="none" stroke="#63b8ff" d="M61.5,-109.54C61.5,-102.17 61.5,-93.1 61.5,-85.11"/>
<polygon fill="#63b8ff" stroke="#63b8ff" points="65,-85.18 61.5,-75.18 58,-85.18 65,-85.18"/>
</g>
<!-- Node3 -->
<g id="node3" class="node">
<title>Node3</title>
<g id="a_node3"><a xlink:title=" ">
<polygon fill="#e0e0e0" stroke="#999999" points="93.5,-19 29.5,-19 29.5,0 93.5,0 93.5,-19"/>
<text text-anchor="middle" x="61.5" y="-7" font-family="Helvetica,sans-Serif" font-size="10.00">Eigen/Core</text>
</a>
</g>
</g>
<!-- Node2&#45;&gt;Node3 -->
<g id="edge2" class="edge">
<title>Node2&#45;&gt;Node3</title>
<path fill="none" stroke="#63b8ff" d="M61.5,-54.75C61.5,-48.11 61.5,-38.73 61.5,-30.31"/>
<polygon fill="#63b8ff" stroke="#63b8ff" points="65,-30.44 61.5,-20.44 58,-30.44 65,-30.44"/>
</g>
</g>
</svg>
