<?xml version="1.0" encoding="UTF-8" standalone="no"?>
<!DOCTYPE svg PUBLIC "-//W3C//DTD SVG 1.1//EN"
 "http://www.w3.org/Graphics/SVG/1.1/DTD/svg11.dtd">
<!-- Generated by graphviz version 8.0.5 (20230430.1635)
 -->
<!-- Title: include/NNFS/Loss/CCE.hpp Pages: 1 -->
<svg width="151pt" height="160pt"
 viewBox="0.00 0.00 150.75 160.25" xmlns="http://www.w3.org/2000/svg" xmlns:xlink="http://www.w3.org/1999/xlink">
<g id="graph0" class="graph" transform="scale(1 1) rotate(0) translate(4 156.25)">
<title>include/NNFS/Loss/CCE.hpp</title>
<!-- Node1 -->
<g id="node1" class="node">
<title>Node1</title>
<g id="a_node1"><a xlink:title=" ">
<polygon fill="#999999" stroke="#666666" points="142.75,-152.25 0,-152.25 0,-133 142.75,-133 142.75,-152.25"/>
<text text-anchor="middle" x="71.38" y="-138.75" font-family="Helvetica,sans-Serif" font-size="10.00">include/NNFS/Loss/CCE.hpp</text>
</a>
</g>
</g>
<!-- Node2 -->
<g id="node2" class="node">
<title>Node2</title>
<g id="a_node2"><a xlink:href="_c_c_e___softmax_8hpp.html" target="_top" xlink:title=" ">
<polygon fill="white" stroke="#666666" points="133.75,-97 9,-97 9,-66.5 133.75,-66.5 133.75,-97"/>
<text text-anchor="start" x="17" y="-83.5" font-family="Helvetica,sans-Serif" font-size="10.00">include/NNFS/Loss/CCE</text>
<text text-anchor="middle" x="71.38" y="-72.25" font-family="Helvetica,sans-Serif" font-size="10.00">_Softmax.hpp</text>
</a>
</g>
</g>
<!-- Node1&#45;&gt;Node2 -->
<g id="edge1" class="edge">
<title>Node1&#45;&gt;Node2</title>
<path fill="none" stroke="#63b8ff" d="M71.38,-121.7C71.38,-113.7 71.38,-104.65 71.38,-97.28"/>
<polygon fill="#63b8ff" stroke="#63b8ff" points="67.88,-121.68 71.38,-131.68 74.88,-121.68 67.88,-121.68"/>
</g>
<!-- Node3 -->
<g id="node3" class="node">
<title>Node3</title>
<g id="a_node3"><a xlink:href="_neural_network_8hpp.html" target="_top" xlink:title=" ">
<polygon fill="white" stroke="#666666" points="124.75,-30.5 18,-30.5 18,0 124.75,0 124.75,-30.5"/>
<text text-anchor="start" x="26" y="-17" font-family="Helvetica,sans-Serif" font-size="10.00">include/NNFS/Model</text>
<text text-anchor="middle" x="71.38" y="-5.75" font-family="Helvetica,sans-Serif" font-size="10.00">/NeuralNetwork.hpp</text>
</a>
</g>
</g>
<!-- Node2&#45;&gt;Node3 -->
<g id="edge2" class="edge">
<title>Node2&#45;&gt;Node3</title>
<path fill="none" stroke="#63b8ff" d="M71.38,-55.38C71.38,-47.05 71.38,-38.08 71.38,-30.83"/>
<polygon fill="#63b8ff" stroke="#63b8ff" points="67.88,-55.11 71.38,-65.11 74.88,-55.11 67.88,-55.11"/>
</g>
</g>
</svg>
