<?xml version="1.0" encoding="UTF-8" standalone="no"?>
<!DOCTYPE svg PUBLIC "-//W3C//DTD SVG 1.1//EN"
 "http://www.w3.org/Graphics/SVG/1.1/DTD/svg11.dtd">
<!-- Generated by graphviz version 8.0.5 (20230430.1635)
 -->
<!-- Title: include/NNFSCore/Loss/CCE.hpp Pages: 1 -->
<svg width="252pt" height="172pt"
 viewBox="0.00 0.00 251.75 171.50" xmlns="http://www.w3.org/2000/svg" xmlns:xlink="http://www.w3.org/1999/xlink">
<g id="graph0" class="graph" transform="scale(1 1) rotate(0) translate(4 167.5)">
<title>include/NNFSCore/Loss/CCE.hpp</title>
<!-- Node1 -->
<g id="node1" class="node">
<title>Node1</title>
<g id="a_node1"><a xlink:title=" ">
<polygon fill="#999999" stroke="#666666" points="210.75,-163.5 88.25,-163.5 88.25,-133 210.75,-133 210.75,-163.5"/>
<text text-anchor="start" x="96.25" y="-150" font-family="Helvetica,sans-Serif" font-size="10.00">include/NNFSCore/Loss</text>
<text text-anchor="middle" x="149.5" y="-138.75" font-family="Helvetica,sans-Serif" font-size="10.00">/CCE.hpp</text>
</a>
</g>
</g>
<!-- Node2 -->
<g id="node2" class="node">
<title>Node2</title>
<g id="a_node2"><a xlink:href="_c_c_e___softmax_8hpp.html" target="_top" xlink:title=" ">
<polygon fill="white" stroke="#666666" points="166.75,-97 44.25,-97 44.25,-66.5 166.75,-66.5 166.75,-97"/>
<text text-anchor="start" x="52.25" y="-83.5" font-family="Helvetica,sans-Serif" font-size="10.00">include/NNFSCore/Loss</text>
<text text-anchor="middle" x="105.5" y="-72.25" font-family="Helvetica,sans-Serif" font-size="10.00">/CCE_Softmax.hpp</text>
</a>
</g>
</g>
<!-- Node1&#45;&gt;Node2 -->
<g id="edge1" class="edge">
<title>Node1&#45;&gt;Node2</title>
<path fill="none" stroke="#63b8ff" d="M133.35,-123.57C127.35,-114.78 120.73,-105.07 115.44,-97.33"/>
<polygon fill="#63b8ff" stroke="#63b8ff" points="130.99,-125.33 139.52,-131.61 136.77,-121.38 130.99,-125.33"/>
</g>
<!-- Node4 -->
<g id="node4" class="node">
<title>Node4</title>
<g id="a_node4"><a xlink:href="test__loss_8cpp.html" target="_top" xlink:title=" ">
<polygon fill="white" stroke="#666666" points="243.75,-24.88 145.25,-24.88 145.25,-5.63 243.75,-5.63 243.75,-24.88"/>
<text text-anchor="middle" x="194.5" y="-11.38" font-family="Helvetica,sans-Serif" font-size="10.00">tests/test_loss.cpp</text>
</a>
</g>
</g>
<!-- Node1&#45;&gt;Node4 -->
<g id="edge4" class="edge">
<title>Node1&#45;&gt;Node4</title>
<path fill="none" stroke="#63b8ff" d="M163.49,-123.17C167.79,-115.05 172.24,-105.81 175.5,-97 184.89,-71.61 190.74,-39.96 193.18,-24.94"/>
<polygon fill="#63b8ff" stroke="#63b8ff" points="159.98,-121.29 158.23,-131.74 166.11,-124.66 159.98,-121.29"/>
</g>
<!-- Node3 -->
<g id="node3" class="node">
<title>Node3</title>
<g id="a_node3"><a xlink:href="_neural_network_8hpp.html" target="_top" xlink:title=" ">
<polygon fill="white" stroke="#666666" points="127,-30.5 0,-30.5 0,0 127,0 127,-30.5"/>
<text text-anchor="start" x="8" y="-17" font-family="Helvetica,sans-Serif" font-size="10.00">include/NNFSCore/Model</text>
<text text-anchor="middle" x="63.5" y="-5.75" font-family="Helvetica,sans-Serif" font-size="10.00">/NeuralNetwork.hpp</text>
</a>
</g>
</g>
<!-- Node2&#45;&gt;Node3 -->
<g id="edge2" class="edge">
<title>Node2&#45;&gt;Node3</title>
<path fill="none" stroke="#63b8ff" d="M90.08,-57.07C84.36,-48.28 78.03,-38.57 72.99,-30.83"/>
<polygon fill="#63b8ff" stroke="#63b8ff" points="87.58,-58.64 95.97,-65.11 93.45,-54.82 87.58,-58.64"/>
</g>
<!-- Node2&#45;&gt;Node4 -->
<g id="edge3" class="edge">
<title>Node2&#45;&gt;Node4</title>
<path fill="none" stroke="#63b8ff" d="M134.28,-59.9C150.43,-48.19 169.75,-34.19 182.07,-25.26"/>
<polygon fill="#63b8ff" stroke="#63b8ff" points="132.74,-57.41 126.7,-66.11 136.85,-63.08 132.74,-57.41"/>
</g>
</g>
</svg>
