<?xml version="1.0" encoding="UTF-8" standalone="no"?>
<!DOCTYPE svg PUBLIC "-//W3C//DTD SVG 1.1//EN"
 "http://www.w3.org/Graphics/SVG/1.1/DTD/svg11.dtd">
<!-- Generated by graphviz version 8.0.5 (20230430.1635)
 -->
<!-- Title: include/NNFSCore/Loss/CCE_Softmax.hpp Pages: 1 -->
<svg width="348pt" height="370pt"
 viewBox="0.00 0.00 347.75 370.00" xmlns="http://www.w3.org/2000/svg" xmlns:xlink="http://www.w3.org/1999/xlink">
<g id="graph0" class="graph" transform="scale(1 1) rotate(0) translate(4 366)">
<title>include/NNFSCore/Loss/CCE_Softmax.hpp</title>
<!-- Node1 -->
<g id="node1" class="node">
<title>Node1</title>
<g id="a_node1"><a xlink:title=" ">
<polygon fill="#999999" stroke="#666666" points="280,-362 157.5,-362 157.5,-331.5 280,-331.5 280,-362"/>
<text text-anchor="start" x="165.5" y="-348.5" font-family="Helvetica,sans-Serif" font-size="10.00">include/NNFSCore/Loss</text>
<text text-anchor="middle" x="218.75" y="-337.25" font-family="Helvetica,sans-Serif" font-size="10.00">/CCE_Softmax.hpp</text>
</a>
</g>
</g>
<!-- Node2 -->
<g id="node2" class="node">
<title>Node2</title>
<g id="a_node2"><a xlink:href="_c_c_e_8hpp.html" target="_top" xlink:title=" ">
<polygon fill="white" stroke="#666666" points="192.5,-295.5 139,-295.5 139,-276.25 192.5,-276.25 192.5,-295.5"/>
<text text-anchor="middle" x="165.75" y="-282" font-family="Helvetica,sans-Serif" font-size="10.00">CCE.hpp</text>
</a>
</g>
</g>
<!-- Node1&#45;&gt;Node2 -->
<g id="edge1" class="edge">
<title>Node1&#45;&gt;Node2</title>
<path fill="none" stroke="#63b8ff" d="M205.65,-331.2C198.2,-322.92 188.83,-312.52 181.05,-303.87"/>
<polygon fill="#63b8ff" stroke="#63b8ff" points="184.21,-302.04 174.92,-296.95 179.01,-306.73 184.21,-302.04"/>
</g>
<!-- Node15 -->
<g id="node15" class="node">
<title>Node15</title>
<g id="a_node15"><a xlink:href="_softmax_8hpp.html" target="_top" xlink:title=" ">
<polygon fill="white" stroke="#666666" points="339.75,-295.5 215.75,-295.5 215.75,-276.25 339.75,-276.25 339.75,-295.5"/>
<text text-anchor="middle" x="277.75" y="-282" font-family="Helvetica,sans-Serif" font-size="10.00">../Activation/Softmax.hpp</text>
</a>
</g>
</g>
<!-- Node1&#45;&gt;Node15 -->
<g id="edge16" class="edge">
<title>Node1&#45;&gt;Node15</title>
<path fill="none" stroke="#63b8ff" d="M233.33,-331.2C241.71,-322.84 252.27,-312.3 260.99,-303.6"/>
<polygon fill="#63b8ff" stroke="#63b8ff" points="263.05,-306.49 267.65,-296.95 258.1,-301.54 263.05,-306.49"/>
</g>
<!-- Node3 -->
<g id="node3" class="node">
<title>Node3</title>
<g id="a_node3"><a xlink:href="_loss_8hpp.html" target="_top" xlink:title=" ">
<polygon fill="white" stroke="#666666" points="184.62,-240.25 128.88,-240.25 128.88,-221 184.62,-221 184.62,-240.25"/>
<text text-anchor="middle" x="156.75" y="-226.75" font-family="Helvetica,sans-Serif" font-size="10.00">Loss.hpp</text>
</a>
</g>
</g>
<!-- Node2&#45;&gt;Node3 -->
<g id="edge2" class="edge">
<title>Node2&#45;&gt;Node3</title>
<path fill="none" stroke="#63b8ff" d="M164.26,-276.08C163.12,-269.34 161.51,-259.77 160.07,-251.24"/>
<polygon fill="#63b8ff" stroke="#63b8ff" points="163.39,-250.89 158.27,-241.61 156.48,-252.05 163.39,-250.89"/>
</g>
<!-- Node4 -->
<g id="node4" class="node">
<title>Node4</title>
<g id="a_node4"><a xlink:title=" ">
<polygon fill="#e0e0e0" stroke="#999999" points="253.12,-185 182.38,-185 182.38,-165.75 253.12,-165.75 253.12,-185"/>
<text text-anchor="middle" x="217.75" y="-171.5" font-family="Helvetica,sans-Serif" font-size="10.00">Eigen/Dense</text>
</a>
</g>
</g>
<!-- Node3&#45;&gt;Node4 -->
<g id="edge3" class="edge">
<title>Node3&#45;&gt;Node4</title>
<path fill="none" stroke="#63b8ff" d="M167.1,-220.59C175.91,-212.9 188.8,-201.65 199.36,-192.43"/>
<polygon fill="#63b8ff" stroke="#63b8ff" points="201.32,-194.49 206.56,-185.27 196.72,-189.21 201.32,-194.49"/>
</g>
<!-- Node5 -->
<g id="node5" class="node">
<title>Node5</title>
<g id="a_node5"><a xlink:href="clue_8hpp.html" target="_top" xlink:title=" ">
<polygon fill="white" stroke="#666666" points="202.5,-74.5 107,-74.5 107,-55.25 202.5,-55.25 202.5,-74.5"/>
<text text-anchor="middle" x="154.75" y="-61" font-family="Helvetica,sans-Serif" font-size="10.00">../Utilities/clue.hpp</text>
</a>
</g>
</g>
<!-- Node3&#45;&gt;Node5 -->
<g id="edge4" class="edge">
<title>Node3&#45;&gt;Node5</title>
<path fill="none" stroke="#63b8ff" d="M156.64,-220.82C156.33,-195.39 155.43,-121.35 154.99,-85.62"/>
<polygon fill="#63b8ff" stroke="#63b8ff" points="158.48,-85.68 154.86,-75.72 151.48,-85.76 158.48,-85.68"/>
</g>
<!-- Node11 -->
<g id="node11" class="node">
<title>Node11</title>
<g id="a_node11"><a xlink:href="_dense_8hpp.html" target="_top" xlink:title=" ">
<polygon fill="white" stroke="#666666" points="126.88,-185 30.62,-185 30.62,-165.75 126.88,-165.75 126.88,-185"/>
<text text-anchor="middle" x="78.75" y="-171.5" font-family="Helvetica,sans-Serif" font-size="10.00">../Layer/Dense.hpp</text>
</a>
</g>
</g>
<!-- Node3&#45;&gt;Node11 -->
<g id="edge10" class="edge">
<title>Node3&#45;&gt;Node11</title>
<path fill="none" stroke="#63b8ff" d="M143.52,-220.59C131.86,-212.64 114.65,-200.89 100.9,-191.5"/>
<polygon fill="#63b8ff" stroke="#63b8ff" points="103.28,-188.2 93.05,-185.45 99.33,-193.98 103.28,-188.2"/>
</g>
<!-- Node6 -->
<g id="node6" class="node">
<title>Node6</title>
<g id="a_node6"><a xlink:title=" ">
<polygon fill="#e0e0e0" stroke="#999999" points="179.62,-19.25 129.88,-19.25 129.88,0 179.62,0 179.62,-19.25"/>
<text text-anchor="middle" x="154.75" y="-5.75" font-family="Helvetica,sans-Serif" font-size="10.00">iomanip</text>
</a>
</g>
</g>
<!-- Node5&#45;&gt;Node6 -->
<g id="edge5" class="edge">
<title>Node5&#45;&gt;Node6</title>
<path fill="none" stroke="#63b8ff" d="M154.75,-55.08C154.75,-48.42 154.75,-38.99 154.75,-30.53"/>
<polygon fill="#63b8ff" stroke="#63b8ff" points="158.25,-30.61 154.75,-20.61 151.25,-30.61 158.25,-30.61"/>
</g>
<!-- Node7 -->
<g id="node7" class="node">
<title>Node7</title>
<g id="a_node7"><a xlink:title=" ">
<polygon fill="#e0e0e0" stroke="#999999" points="249.38,-19.25 198.12,-19.25 198.12,0 249.38,0 249.38,-19.25"/>
<text text-anchor="middle" x="223.75" y="-5.75" font-family="Helvetica,sans-Serif" font-size="10.00">sstream</text>
</a>
</g>
</g>
<!-- Node5&#45;&gt;Node7 -->
<g id="edge6" class="edge">
<title>Node5&#45;&gt;Node7</title>
<path fill="none" stroke="#63b8ff" d="M166.45,-54.84C176.63,-46.99 191.58,-35.45 203.67,-26.12"/>
<polygon fill="#63b8ff" stroke="#63b8ff" points="205.44,-28.41 211.22,-19.52 201.16,-22.86 205.44,-28.41"/>
</g>
<!-- Node8 -->
<g id="node8" class="node">
<title>Node8</title>
<g id="a_node8"><a xlink:title=" ">
<polygon fill="#e0e0e0" stroke="#999999" points="315.88,-19.25 267.62,-19.25 267.62,0 315.88,0 315.88,-19.25"/>
<text text-anchor="middle" x="291.75" y="-5.75" font-family="Helvetica,sans-Serif" font-size="10.00">cassert</text>
</a>
</g>
</g>
<!-- Node5&#45;&gt;Node8 -->
<g id="edge7" class="edge">
<title>Node5&#45;&gt;Node8</title>
<path fill="none" stroke="#63b8ff" d="M177.99,-54.84C200.03,-46.27 233.4,-33.31 258.3,-23.63"/>
<polygon fill="#63b8ff" stroke="#63b8ff" points="259.34,-26.59 267.4,-19.7 256.81,-20.06 259.34,-26.59"/>
</g>
<!-- Node9 -->
<g id="node9" class="node">
<title>Node9</title>
<g id="a_node9"><a xlink:title=" ">
<polygon fill="#e0e0e0" stroke="#999999" points="53.5,-19.25 0,-19.25 0,0 53.5,0 53.5,-19.25"/>
<text text-anchor="middle" x="26.75" y="-5.75" font-family="Helvetica,sans-Serif" font-size="10.00">iostream</text>
</a>
</g>
</g>
<!-- Node5&#45;&gt;Node9 -->
<g id="edge8" class="edge">
<title>Node5&#45;&gt;Node9</title>
<path fill="none" stroke="#63b8ff" d="M133.04,-54.84C112.63,-46.35 81.83,-33.54 58.63,-23.89"/>
<polygon fill="#63b8ff" stroke="#63b8ff" points="60.15,-20.31 49.57,-19.7 57.46,-26.78 60.15,-20.31"/>
</g>
<!-- Node10 -->
<g id="node10" class="node">
<title>Node10</title>
<g id="a_node10"><a xlink:title=" ">
<polygon fill="#e0e0e0" stroke="#999999" points="111.75,-19.25 71.75,-19.25 71.75,0 111.75,0 111.75,-19.25"/>
<text text-anchor="middle" x="91.75" y="-5.75" font-family="Helvetica,sans-Serif" font-size="10.00">ctime</text>
</a>
</g>
</g>
<!-- Node5&#45;&gt;Node10 -->
<g id="edge9" class="edge">
<title>Node5&#45;&gt;Node10</title>
<path fill="none" stroke="#63b8ff" d="M144.06,-54.84C134.87,-47.07 121.39,-35.67 110.41,-26.4"/>
<polygon fill="#63b8ff" stroke="#63b8ff" points="113.18,-23.31 103.28,-19.52 108.66,-28.65 113.18,-23.31"/>
</g>
<!-- Node11&#45;&gt;Node9 -->
<g id="edge11" class="edge">
<title>Node11&#45;&gt;Node9</title>
<path fill="none" stroke="#63b8ff" d="M69.94,-165.28C62.27,-156.8 51.49,-143.43 45.75,-129.75 31.94,-96.86 28.1,-55.01 27.07,-30.68"/>
<polygon fill="#63b8ff" stroke="#63b8ff" points="30.54,-30.58 26.75,-20.69 23.54,-30.79 30.54,-30.58"/>
</g>
<!-- Node12 -->
<g id="node12" class="node">
<title>Node12</title>
<g id="a_node12"><a xlink:title=" ">
<polygon fill="#e0e0e0" stroke="#999999" points="102.88,-129.75 54.62,-129.75 54.62,-110.5 102.88,-110.5 102.88,-129.75"/>
<text text-anchor="middle" x="78.75" y="-116.25" font-family="Helvetica,sans-Serif" font-size="10.00">random</text>
</a>
</g>
</g>
<!-- Node11&#45;&gt;Node12 -->
<g id="edge12" class="edge">
<title>Node11&#45;&gt;Node12</title>
<path fill="none" stroke="#63b8ff" d="M78.75,-165.58C78.75,-158.92 78.75,-149.49 78.75,-141.03"/>
<polygon fill="#63b8ff" stroke="#63b8ff" points="82.25,-141.11 78.75,-131.11 75.25,-141.11 82.25,-141.11"/>
</g>
<!-- Node13 -->
<g id="node13" class="node">
<title>Node13</title>
<g id="a_node13"><a xlink:href="_layer_8hpp.html" target="_top" xlink:title=" ">
<polygon fill="white" stroke="#666666" points="260.75,-129.75 202.75,-129.75 202.75,-110.5 260.75,-110.5 260.75,-129.75"/>
<text text-anchor="middle" x="231.75" y="-116.25" font-family="Helvetica,sans-Serif" font-size="10.00">Layer.hpp</text>
</a>
</g>
</g>
<!-- Node11&#45;&gt;Node13 -->
<g id="edge13" class="edge">
<title>Node11&#45;&gt;Node13</title>
<path fill="none" stroke="#63b8ff" d="M104.7,-165.34C129.65,-156.66 167.58,-143.46 195.5,-133.74"/>
<polygon fill="#63b8ff" stroke="#63b8ff" points="196.37,-136.8 204.67,-130.2 194.07,-130.18 196.37,-136.8"/>
</g>
<!-- Node13&#45;&gt;Node5 -->
<g id="edge15" class="edge">
<title>Node13&#45;&gt;Node5</title>
<path fill="none" stroke="#63b8ff" d="M218.69,-110.09C207.18,-102.14 190.19,-90.39 176.62,-81"/>
<polygon fill="#63b8ff" stroke="#63b8ff" points="179.09,-77.76 168.88,-74.95 175.11,-83.52 179.09,-77.76"/>
</g>
<!-- Node14 -->
<g id="node14" class="node">
<title>Node14</title>
<g id="a_node14"><a xlink:title=" ">
<polygon fill="#e0e0e0" stroke="#999999" points="283.38,-74.5 220.12,-74.5 220.12,-55.25 283.38,-55.25 283.38,-74.5"/>
<text text-anchor="middle" x="251.75" y="-61" font-family="Helvetica,sans-Serif" font-size="10.00">Eigen/Core</text>
</a>
</g>
</g>
<!-- Node13&#45;&gt;Node14 -->
<g id="edge14" class="edge">
<title>Node13&#45;&gt;Node14</title>
<path fill="none" stroke="#63b8ff" d="M235.05,-110.33C237.64,-103.44 241.34,-93.59 244.6,-84.91"/>
<polygon fill="#63b8ff" stroke="#63b8ff" points="248.14,-86.45 248.38,-75.86 241.58,-83.99 248.14,-86.45"/>
</g>
<!-- Node16 -->
<g id="node16" class="node">
<title>Node16</title>
<g id="a_node16"><a xlink:href="_activation_8hpp.html" target="_top" xlink:title=" ">
<polygon fill="white" stroke="#666666" points="317.5,-240.25 240,-240.25 240,-221 317.5,-221 317.5,-240.25"/>
<text text-anchor="middle" x="278.75" y="-226.75" font-family="Helvetica,sans-Serif" font-size="10.00">Activation.hpp</text>
</a>
</g>
</g>
<!-- Node15&#45;&gt;Node16 -->
<g id="edge17" class="edge">
<title>Node15&#45;&gt;Node16</title>
<path fill="none" stroke="#63b8ff" d="M277.92,-276.08C278.04,-269.42 278.22,-259.99 278.38,-251.53"/>
<polygon fill="#63b8ff" stroke="#63b8ff" points="281.89,-251.67 278.58,-241.61 274.89,-251.54 281.89,-251.67"/>
</g>
<!-- Node16&#45;&gt;Node13 -->
<g id="edge18" class="edge">
<title>Node16&#45;&gt;Node13</title>
<path fill="none" stroke="#63b8ff" d="M277.33,-220.63C275.11,-207.97 270.19,-184.35 261.75,-165.75 257.47,-156.32 251.27,-146.69 245.61,-138.79"/>
<polygon fill="#63b8ff" stroke="#63b8ff" points="247.95,-137.07 239.15,-131.16 242.34,-141.27 247.95,-137.07"/>
</g>
</g>
</svg>
