<?xml version="1.0" encoding="UTF-8" standalone="no"?>
<!DOCTYPE svg PUBLIC "-//W3C//DTD SVG 1.1//EN"
 "http://www.w3.org/Graphics/SVG/1.1/DTD/svg11.dtd">
<!-- Generated by graphviz version 8.0.2 (20230410.1723)
 -->
<!-- Title: include/NNFSCore/Callback/CSVLogger.hpp Pages: 1 -->
<svg width="286pt" height="148pt"
 viewBox="0.00 0.00 286.00 148.00" xmlns="http://www.w3.org/2000/svg" xmlns:xlink="http://www.w3.org/1999/xlink">
<g id="graph0" class="graph" transform="scale(1 1) rotate(0) translate(4 144)">
<title>include/NNFSCore/Callback/CSVLogger.hpp</title>
<!-- Node1 -->
<g id="node1" class="node">
<title>Node1</title>
<g id="a_node1"><a xlink:title=" ">
<polygon fill="#999999" stroke="#666666" points="192.5,-140 53.5,-140 53.5,-110 192.5,-110 192.5,-140"/>
<text text-anchor="start" x="61.5" y="-128" font-family="Helvetica,sans-Serif" font-size="10.00">include/NNFSCore/Callback</text>
<text text-anchor="middle" x="123" y="-117" font-family="Helvetica,sans-Serif" font-size="10.00">/CSVLogger.hpp</text>
</a>
</g>
</g>
<!-- Node2 -->
<g id="node2" class="node">
<title>Node2</title>
<g id="a_node2"><a xlink:title=" ">
<polygon fill="#e0e0e0" stroke="#999999" points="50,-74 0,-74 0,-55 50,-55 50,-74"/>
<text text-anchor="middle" x="25" y="-62" font-family="Helvetica,sans-Serif" font-size="10.00">fstream</text>
</a>
</g>
</g>
<!-- Node1&#45;&gt;Node2 -->
<g id="edge1" class="edge">
<title>Node1&#45;&gt;Node2</title>
<path fill="none" stroke="#63b8ff" d="M98.78,-109.54C83.62,-100.49 64.17,-88.88 49.04,-79.85"/>
<polygon fill="#63b8ff" stroke="#63b8ff" points="51.2,-76.47 40.82,-74.35 47.61,-82.48 51.2,-76.47"/>
</g>
<!-- Node3 -->
<g id="node3" class="node">
<title>Node3</title>
<g id="a_node3"><a xlink:title=" ">
<polygon fill="#e0e0e0" stroke="#999999" points="109.5,-74 68.5,-74 68.5,-55 109.5,-55 109.5,-74"/>
<text text-anchor="middle" x="89" y="-62" font-family="Helvetica,sans-Serif" font-size="10.00">string</text>
</a>
</g>
</g>
<!-- Node1&#45;&gt;Node3 -->
<g id="edge2" class="edge">
<title>Node1&#45;&gt;Node3</title>
<path fill="none" stroke="#63b8ff" d="M114.6,-109.54C110.01,-101.65 104.29,-91.81 99.42,-83.44"/>
<polygon fill="#63b8ff" stroke="#63b8ff" points="102.09,-82.06 94.04,-75.18 96.04,-85.58 102.09,-82.06"/>
</g>
<!-- Node4 -->
<g id="node4" class="node">
<title>Node4</title>
<g id="a_node4"><a xlink:title=" ">
<polygon fill="#e0e0e0" stroke="#999999" points="188,-74 128,-74 128,-55 188,-55 188,-74"/>
<text text-anchor="middle" x="158" y="-62" font-family="Helvetica,sans-Serif" font-size="10.00">filesystem</text>
</a>
</g>
</g>
<!-- Node1&#45;&gt;Node4 -->
<g id="edge3" class="edge">
<title>Node1&#45;&gt;Node4</title>
<path fill="none" stroke="#63b8ff" d="M131.65,-109.54C136.37,-101.65 142.26,-91.81 147.27,-83.44"/>
<polygon fill="#63b8ff" stroke="#63b8ff" points="150.68,-85.55 152.81,-75.18 144.67,-81.96 150.68,-85.55"/>
</g>
<!-- Node5 -->
<g id="node5" class="node">
<title>Node5</title>
<g id="a_node5"><a xlink:href="_callback_8hpp.html" target="_top" xlink:title=" ">
<polygon fill="white" stroke="#666666" points="278,-74 206,-74 206,-55 278,-55 278,-74"/>
<text text-anchor="middle" x="242" y="-62" font-family="Helvetica,sans-Serif" font-size="10.00">Callback.hpp</text>
</a>
</g>
</g>
<!-- Node1&#45;&gt;Node5 -->
<g id="edge4" class="edge">
<title>Node1&#45;&gt;Node5</title>
<path fill="none" stroke="#63b8ff" d="M152.42,-109.54C171.35,-100.23 195.79,-88.22 214.36,-79.09"/>
<polygon fill="#63b8ff" stroke="#63b8ff" points="215.58,-81.9 223.01,-74.35 212.49,-75.62 215.58,-81.9"/>
</g>
<!-- Node6 -->
<g id="node6" class="node">
<title>Node6</title>
<g id="a_node6"><a xlink:title=" ">
<polygon fill="#e0e0e0" stroke="#999999" points="277.5,-19 206.5,-19 206.5,0 277.5,0 277.5,-19"/>
<text text-anchor="middle" x="242" y="-7" font-family="Helvetica,sans-Serif" font-size="10.00">Eigen/Dense</text>
</a>
</g>
</g>
<!-- Node5&#45;&gt;Node6 -->
<g id="edge5" class="edge">
<title>Node5&#45;&gt;Node6</title>
<path fill="none" stroke="#63b8ff" d="M242,-54.75C242,-48.11 242,-38.73 242,-30.31"/>
<polygon fill="#63b8ff" stroke="#63b8ff" points="245.5,-30.44 242,-20.44 238.5,-30.44 245.5,-30.44"/>
</g>
</g>
</svg>
