<?xml version="1.0" encoding="UTF-8" standalone="no"?>
<!DOCTYPE svg PUBLIC "-//W3C//DTD SVG 1.1//EN"
 "http://www.w3.org/Graphics/SVG/1.1/DTD/svg11.dtd">
<!-- Generated by graphviz version 8.0.2 (20230410.1723)
 -->
<!-- Title: include/NNFSCore/Callback/Callback.hpp Pages: 1 -->
<svg width="360pt" height="225pt"
 viewBox="0.00 0.00 359.50 225.00" xmlns="http://www.w3.org/2000/svg" xmlns:xlink="http://www.w3.org/1999/xlink">
<g id="graph0" class="graph" transform="scale(1 1) rotate(0) translate(4 221)">
<title>include/NNFSCore/Callback/Callback.hpp</title>
<!-- Node1 -->
<g id="node1" class="node">
<title>Node1</title>
<g id="a_node1"><a xlink:title=" ">
<polygon fill="#999999" stroke="#666666" points="205,-217 66,-217 66,-187 205,-187 205,-217"/>
<text text-anchor="start" x="74" y="-205" font-family="Helvetica,sans-Serif" font-size="10.00">include/NNFSCore/Callback</text>
<text text-anchor="middle" x="135.5" y="-194" font-family="Helvetica,sans-Serif" font-size="10.00">/Callback.hpp</text>
</a>
</g>
</g>
<!-- Node2 -->
<g id="node2" class="node">
<title>Node2</title>
<g id="a_node2"><a xlink:href="_c_s_v_logger_8hpp.html" target="_top" xlink:title=" ">
<polygon fill="white" stroke="#666666" points="205,-151 66,-151 66,-121 205,-121 205,-151"/>
<text text-anchor="start" x="74" y="-139" font-family="Helvetica,sans-Serif" font-size="10.00">include/NNFSCore/Callback</text>
<text text-anchor="middle" x="135.5" y="-128" font-family="Helvetica,sans-Serif" font-size="10.00">/CSVLogger.hpp</text>
</a>
</g>
</g>
<!-- Node1&#45;&gt;Node2 -->
<g id="edge1" class="edge">
<title>Node1&#45;&gt;Node2</title>
<path fill="none" stroke="#63b8ff" d="M135.5,-175.97C135.5,-167.55 135.5,-158.45 135.5,-151.16"/>
<polygon fill="#63b8ff" stroke="#63b8ff" points="132,-175.8 135.5,-185.8 139,-175.8 132,-175.8"/>
</g>
<!-- Node3 -->
<g id="node3" class="node">
<title>Node3</title>
<g id="a_node3"><a xlink:href="test__callback_8cpp.html" target="_top" xlink:title=" ">
<polygon fill="white" stroke="#666666" points="117,-79.5 0,-79.5 0,-60.5 117,-60.5 117,-79.5"/>
<text text-anchor="middle" x="58.5" y="-67.5" font-family="Helvetica,sans-Serif" font-size="10.00">tests/test_callback.cpp</text>
</a>
</g>
</g>
<!-- Node1&#45;&gt;Node3 -->
<g id="edge7" class="edge">
<title>Node1&#45;&gt;Node3</title>
<path fill="none" stroke="#63b8ff" d="M87.83,-181.35C75.41,-173.79 63.55,-163.8 56.5,-151 43.77,-127.88 51.04,-95.01 55.63,-79.6"/>
<polygon fill="#63b8ff" stroke="#63b8ff" points="85.93,-184.85 96.37,-186.67 89.34,-178.74 85.93,-184.85"/>
</g>
<!-- Node5 -->
<g id="node5" class="node">
<title>Node5</title>
<g id="a_node5"><a xlink:href="_model_8hpp.html" target="_top" xlink:title=" ">
<polygon fill="white" stroke="#666666" points="351.5,-151 223.5,-151 223.5,-121 351.5,-121 351.5,-151"/>
<text text-anchor="start" x="231.5" y="-139" font-family="Helvetica,sans-Serif" font-size="10.00">include/NNFSCore/Model</text>
<text text-anchor="middle" x="287.5" y="-128" font-family="Helvetica,sans-Serif" font-size="10.00">/Model.hpp</text>
</a>
</g>
</g>
<!-- Node1&#45;&gt;Node5 -->
<g id="edge4" class="edge">
<title>Node1&#45;&gt;Node5</title>
<path fill="none" stroke="#63b8ff" d="M179.66,-182.41C203.1,-172.54 231.48,-160.59 253.24,-151.43"/>
<polygon fill="#63b8ff" stroke="#63b8ff" points="178.47,-179.53 170.61,-186.64 181.19,-185.98 178.47,-179.53"/>
</g>
<!-- Node2&#45;&gt;Node3 -->
<g id="edge2" class="edge">
<title>Node2&#45;&gt;Node3</title>
<path fill="none" stroke="#63b8ff" d="M110.15,-113.93C96.22,-102.35 79.68,-88.61 69.14,-79.84"/>
<polygon fill="#63b8ff" stroke="#63b8ff" points="107.48,-117.1 117.41,-120.8 111.96,-111.71 107.48,-117.1"/>
</g>
<!-- Node4 -->
<g id="node4" class="node">
<title>Node4</title>
<g id="a_node4"><a xlink:href="test__neural__network_8cpp.html" target="_top" xlink:title=" ">
<polygon fill="white" stroke="#666666" points="270,-19 123,-19 123,0 270,0 270,-19"/>
<text text-anchor="middle" x="196.5" y="-7" font-family="Helvetica,sans-Serif" font-size="10.00">tests/test_neural_network.cpp</text>
</a>
</g>
</g>
<!-- Node2&#45;&gt;Node4 -->
<g id="edge3" class="edge">
<title>Node2&#45;&gt;Node4</title>
<path fill="none" stroke="#63b8ff" d="M147.3,-110.91C161,-82.95 182.9,-38.26 192.15,-19.38"/>
<polygon fill="#63b8ff" stroke="#63b8ff" points="143.75,-109.2 142.5,-119.72 150.04,-112.28 143.75,-109.2"/>
</g>
<!-- Node6 -->
<g id="node6" class="node">
<title>Node6</title>
<g id="a_node6"><a xlink:href="_neural_network_8hpp.html" target="_top" xlink:title=" ">
<polygon fill="white" stroke="#666666" points="336.5,-85 208.5,-85 208.5,-55 336.5,-55 336.5,-85"/>
<text text-anchor="start" x="216.5" y="-73" font-family="Helvetica,sans-Serif" font-size="10.00">include/NNFSCore/Model</text>
<text text-anchor="middle" x="272.5" y="-62" font-family="Helvetica,sans-Serif" font-size="10.00">/NeuralNetwork.hpp</text>
</a>
</g>
</g>
<!-- Node5&#45;&gt;Node6 -->
<g id="edge5" class="edge">
<title>Node5&#45;&gt;Node6</title>
<path fill="none" stroke="#63b8ff" d="M281.7,-110.25C279.71,-101.75 277.55,-92.53 275.82,-85.16"/>
<polygon fill="#63b8ff" stroke="#63b8ff" points="278.48,-110.86 284.17,-119.8 285.3,-109.26 278.48,-110.86"/>
</g>
<!-- Node6&#45;&gt;Node4 -->
<g id="edge6" class="edge">
<title>Node6&#45;&gt;Node4</title>
<path fill="none" stroke="#63b8ff" d="M245.16,-47.95C232.27,-38.03 217.6,-26.74 207.77,-19.18"/>
<polygon fill="#63b8ff" stroke="#63b8ff" points="242.65,-51.21 252.71,-54.54 246.92,-45.67 242.65,-51.21"/>
</g>
</g>
</svg>
