<?xml version="1.0" encoding="UTF-8" standalone="no"?>
<!DOCTYPE svg PUBLIC "-//W3C//DTD SVG 1.1//EN"
 "http://www.w3.org/Graphics/SVG/1.1/DTD/svg11.dtd">
<!-- Generated by graphviz version 8.0.1 (20230327.1645)
 -->
<!-- Title: include/NNFSCore/Callback/Callback.hpp Pages: 1 -->
<svg width="196pt" height="159pt"
 viewBox="0.00 0.00 196.00 159.00" xmlns="http://www.w3.org/2000/svg" xmlns:xlink="http://www.w3.org/1999/xlink">
<g id="graph0" class="graph" transform="scale(1 1) rotate(0) translate(4 155)">
<title>include/NNFSCore/Callback/Callback.hpp</title>
<!-- Node1 -->
<g id="node1" class="node">
<title>Node1</title>
<g id="a_node1"><a xlink:title=" ">
<polygon fill="#999999" stroke="#666666" points="188,-151 49,-151 49,-121 188,-121 188,-151"/>
<text text-anchor="start" x="57" y="-139" font-family="Helvetica,sans-Serif" font-size="10.00">include/NNFSCore/Callback</text>
<text text-anchor="middle" x="118.5" y="-128" font-family="Helvetica,sans-Serif" font-size="10.00">/Callback.hpp</text>
</a>
</g>
</g>
<!-- Node2 -->
<g id="node2" class="node">
<title>Node2</title>
<g id="a_node2"><a xlink:href="_c_s_v_logger_8hpp.html" target="_top" xlink:title=" ">
<polygon fill="white" stroke="#666666" points="139,-85 0,-85 0,-55 139,-55 139,-85"/>
<text text-anchor="start" x="8" y="-73" font-family="Helvetica,sans-Serif" font-size="10.00">include/NNFSCore/Callback</text>
<text text-anchor="middle" x="69.5" y="-62" font-family="Helvetica,sans-Serif" font-size="10.00">/CSVLogger.hpp</text>
</a>
</g>
</g>
<!-- Node1&#45;&gt;Node2 -->
<g id="edge1" class="edge">
<title>Node1&#45;&gt;Node2</title>
<path fill="none" stroke="#63b8ff" d="M101.08,-112.24C94.16,-103.21 86.43,-93.11 80.34,-85.16"/>
<polygon fill="#63b8ff" stroke="#63b8ff" points="98.77,-113.98 107.63,-119.8 104.33,-109.73 98.77,-113.98"/>
</g>
<!-- Node3 -->
<g id="node3" class="node">
<title>Node3</title>
<g id="a_node3"><a xlink:href="test__callback_8cpp.html" target="_top" xlink:title=" ">
<polygon fill="white" stroke="#666666" points="177,-19 60,-19 60,0 177,0 177,-19"/>
<text text-anchor="middle" x="118.5" y="-7" font-family="Helvetica,sans-Serif" font-size="10.00">tests/test_callback.cpp</text>
</a>
</g>
</g>
<!-- Node1&#45;&gt;Node3 -->
<g id="edge3" class="edge">
<title>Node1&#45;&gt;Node3</title>
<path fill="none" stroke="#63b8ff" d="M136.08,-111.61C141.11,-103.59 145.93,-94.29 148.5,-85 152.06,-72.15 152.4,-67.75 148.5,-55 144.25,-41.1 134.04,-27.62 126.71,-19.2"/>
<polygon fill="#63b8ff" stroke="#63b8ff" points="132.67,-109.42 129.98,-119.66 138.47,-113.33 132.67,-109.42"/>
</g>
<!-- Node2&#45;&gt;Node3 -->
<g id="edge2" class="edge">
<title>Node2&#45;&gt;Node3</title>
<path fill="none" stroke="#63b8ff" d="M88.58,-46.22C96.52,-36.74 105.26,-26.31 111.23,-19.18"/>
<polygon fill="#63b8ff" stroke="#63b8ff" points="85.35,-43.63 81.61,-53.54 90.72,-48.12 85.35,-43.63"/>
</g>
</g>
</svg>
