<?xml version="1.0" encoding="UTF-8" standalone="no"?>
<!DOCTYPE svg PUBLIC "-//W3C//DTD SVG 1.1//EN"
 "http://www.w3.org/Graphics/SVG/1.1/DTD/svg11.dtd">
<!-- Generated by graphviz version 8.0.1 (20230327.1645)
 -->
<!-- Title: include/NNFSCore/Callback/Callback.hpp Pages: 1 -->
<svg width="341pt" height="225pt"
 viewBox="0.00 0.00 341.00 225.00" xmlns="http://www.w3.org/2000/svg" xmlns:xlink="http://www.w3.org/1999/xlink">
<g id="graph0" class="graph" transform="scale(1 1) rotate(0) translate(4 221)">
<title>include/NNFSCore/Callback/Callback.hpp</title>
<!-- Node1 -->
<g id="node1" class="node">
<title>Node1</title>
<g id="a_node1"><a xlink:title=" ">
<polygon fill="#999999" stroke="#666666" points="237,-217 98,-217 98,-187 237,-187 237,-217"/>
<text text-anchor="start" x="106" y="-205" font-family="Helvetica,sans-Serif" font-size="10.00">include/NNFSCore/Callback</text>
<text text-anchor="middle" x="167.5" y="-194" font-family="Helvetica,sans-Serif" font-size="10.00">/Callback.hpp</text>
</a>
</g>
</g>
<!-- Node2 -->
<g id="node2" class="node">
<title>Node2</title>
<g id="a_node2"><a xlink:href="_c_s_v_logger_8hpp.html" target="_top" xlink:title=" ">
<polygon fill="white" stroke="#666666" points="139,-151 0,-151 0,-121 139,-121 139,-151"/>
<text text-anchor="start" x="8" y="-139" font-family="Helvetica,sans-Serif" font-size="10.00">include/NNFSCore/Callback</text>
<text text-anchor="middle" x="69.5" y="-128" font-family="Helvetica,sans-Serif" font-size="10.00">/CSVLogger.hpp</text>
</a>
</g>
</g>
<!-- Node1&#45;&gt;Node2 -->
<g id="edge1" class="edge">
<title>Node1&#45;&gt;Node2</title>
<path fill="none" stroke="#63b8ff" d="M136.56,-180.8C121.94,-171.24 104.81,-160.06 91.53,-151.39"/>
<polygon fill="#63b8ff" stroke="#63b8ff" points="134.46,-184.26 144.75,-186.8 138.29,-178.4 134.46,-184.26"/>
</g>
<!-- Node3 -->
<g id="node3" class="node">
<title>Node3</title>
<g id="a_node3"><a xlink:href="test__callback_8cpp.html" target="_top" xlink:title=" ">
<polygon fill="white" stroke="#666666" points="153,-79.5 36,-79.5 36,-60.5 153,-60.5 153,-79.5"/>
<text text-anchor="middle" x="94.5" y="-67.5" font-family="Helvetica,sans-Serif" font-size="10.00">tests/test_callback.cpp</text>
</a>
</g>
</g>
<!-- Node1&#45;&gt;Node3 -->
<g id="edge6" class="edge">
<title>Node1&#45;&gt;Node3</title>
<path fill="none" stroke="#63b8ff" d="M164.99,-176.3C162.46,-159.75 157.43,-137.96 147.5,-121 137.4,-103.75 119.58,-88.75 107.41,-79.79"/>
<polygon fill="#63b8ff" stroke="#63b8ff" points="161.6,-176.34 166.38,-185.8 168.54,-175.42 161.6,-176.34"/>
</g>
<!-- Node4 -->
<g id="node4" class="node">
<title>Node4</title>
<g id="a_node4"><a xlink:href="_model_8hpp.html" target="_top" xlink:title=" ">
<polygon fill="white" stroke="#666666" points="323.5,-151 195.5,-151 195.5,-121 323.5,-121 323.5,-151"/>
<text text-anchor="start" x="203.5" y="-139" font-family="Helvetica,sans-Serif" font-size="10.00">include/NNFSCore/Model</text>
<text text-anchor="middle" x="259.5" y="-128" font-family="Helvetica,sans-Serif" font-size="10.00">/Model.hpp</text>
</a>
</g>
</g>
<!-- Node1&#45;&gt;Node4 -->
<g id="edge3" class="edge">
<title>Node1&#45;&gt;Node4</title>
<path fill="none" stroke="#63b8ff" d="M196.93,-180.52C210.58,-171.03 226.47,-159.98 238.82,-151.39"/>
<polygon fill="#63b8ff" stroke="#63b8ff" points="195.13,-178.21 188.92,-186.8 199.13,-183.96 195.13,-178.21"/>
</g>
<!-- Node2&#45;&gt;Node3 -->
<g id="edge2" class="edge">
<title>Node2&#45;&gt;Node3</title>
<path fill="none" stroke="#63b8ff" d="M79.03,-110.6C83.25,-99.8 87.95,-87.78 91.05,-79.84"/>
<polygon fill="#63b8ff" stroke="#63b8ff" points="75.43,-109.21 75.05,-119.8 81.95,-111.76 75.43,-109.21"/>
</g>
<!-- Node5 -->
<g id="node5" class="node">
<title>Node5</title>
<g id="a_node5"><a xlink:href="_neural_network_8hpp.html" target="_top" xlink:title=" ">
<polygon fill="white" stroke="#666666" points="323.5,-85 195.5,-85 195.5,-55 323.5,-55 323.5,-85"/>
<text text-anchor="start" x="203.5" y="-73" font-family="Helvetica,sans-Serif" font-size="10.00">include/NNFSCore/Model</text>
<text text-anchor="middle" x="259.5" y="-62" font-family="Helvetica,sans-Serif" font-size="10.00">/NeuralNetwork.hpp</text>
</a>
</g>
</g>
<!-- Node4&#45;&gt;Node5 -->
<g id="edge4" class="edge">
<title>Node4&#45;&gt;Node5</title>
<path fill="none" stroke="#63b8ff" d="M259.5,-109.97C259.5,-101.55 259.5,-92.45 259.5,-85.16"/>
<polygon fill="#63b8ff" stroke="#63b8ff" points="256,-109.8 259.5,-119.8 263,-109.8 256,-109.8"/>
</g>
<!-- Node6 -->
<g id="node6" class="node">
<title>Node6</title>
<g id="a_node6"><a xlink:href="test__neural__network_8cpp.html" target="_top" xlink:title=" ">
<polygon fill="white" stroke="#666666" points="333,-19 186,-19 186,0 333,0 333,-19"/>
<text text-anchor="middle" x="259.5" y="-7" font-family="Helvetica,sans-Serif" font-size="10.00">tests/test_neural_network.cpp</text>
</a>
</g>
</g>
<!-- Node5&#45;&gt;Node6 -->
<g id="edge5" class="edge">
<title>Node5&#45;&gt;Node6</title>
<path fill="none" stroke="#63b8ff" d="M259.5,-43.59C259.5,-34.85 259.5,-25.65 259.5,-19.18"/>
<polygon fill="#63b8ff" stroke="#63b8ff" points="256,-43.54 259.5,-53.54 263,-43.54 256,-43.54"/>
</g>
</g>
</svg>
