<?xml version="1.0" encoding="UTF-8" standalone="no"?>
<!DOCTYPE svg PUBLIC "-//W3C//DTD SVG 1.1//EN"
 "http://www.w3.org/Graphics/SVG/1.1/DTD/svg11.dtd">
<!-- Generated by graphviz version 8.0.5 (20230430.1635)
 -->
<!-- Title: include/NNFSCore/Layer/Dense.hpp Pages: 1 -->
<svg width="1062pt" height="305pt"
 viewBox="0.00 0.00 1062.25 304.50" xmlns="http://www.w3.org/2000/svg" xmlns:xlink="http://www.w3.org/1999/xlink">
<g id="graph0" class="graph" transform="scale(1 1) rotate(0) translate(4 300.5)">
<title>include/NNFSCore/Layer/Dense.hpp</title>
<!-- Node1 -->
<g id="node1" class="node">
<title>Node1</title>
<g id="a_node1"><a xlink:title=" ">
<polygon fill="#999999" stroke="#666666" points="496.62,-296.5 371.88,-296.5 371.88,-266 496.62,-266 496.62,-296.5"/>
<text text-anchor="start" x="379.88" y="-283" font-family="Helvetica,sans-Serif" font-size="10.00">include/NNFSCore/Layer</text>
<text text-anchor="middle" x="434.25" y="-271.75" font-family="Helvetica,sans-Serif" font-size="10.00">/Dense.hpp</text>
</a>
</g>
</g>
<!-- Node2 -->
<g id="node2" class="node">
<title>Node2</title>
<g id="a_node2"><a xlink:href="_loss_8hpp.html" target="_top" xlink:title=" ">
<polygon fill="white" stroke="#666666" points="276.5,-230 154,-230 154,-199.5 276.5,-199.5 276.5,-230"/>
<text text-anchor="start" x="162" y="-216.5" font-family="Helvetica,sans-Serif" font-size="10.00">include/NNFSCore/Loss</text>
<text text-anchor="middle" x="215.25" y="-205.25" font-family="Helvetica,sans-Serif" font-size="10.00">/Loss.hpp</text>
</a>
</g>
</g>
<!-- Node1&#45;&gt;Node2 -->
<g id="edge1" class="edge">
<title>Node1&#45;&gt;Node2</title>
<path fill="none" stroke="#63b8ff" d="M373.93,-262.49C339.69,-252.4 297.34,-239.93 265,-230.4"/>
<polygon fill="#63b8ff" stroke="#63b8ff" points="372.7,-266.07 383.28,-265.53 374.68,-259.35 372.7,-266.07"/>
</g>
<!-- Node5 -->
<g id="node5" class="node">
<title>Node5</title>
<g id="a_node5"><a xlink:href="_neural_network_8hpp.html" target="_top" xlink:title=" ">
<polygon fill="white" stroke="#666666" points="337.75,-30.5 210.75,-30.5 210.75,0 337.75,0 337.75,-30.5"/>
<text text-anchor="start" x="218.75" y="-17" font-family="Helvetica,sans-Serif" font-size="10.00">include/NNFSCore/Model</text>
<text text-anchor="middle" x="274.25" y="-5.75" font-family="Helvetica,sans-Serif" font-size="10.00">/NeuralNetwork.hpp</text>
</a>
</g>
</g>
<!-- Node1&#45;&gt;Node5 -->
<g id="edge10" class="edge">
<title>Node1&#45;&gt;Node5</title>
<path fill="none" stroke="#63b8ff" d="M428.98,-254.98C419.07,-212.33 394.28,-124.99 347.25,-66.5 335.39,-51.75 318.08,-39.58 303.28,-30.9"/>
<polygon fill="#63b8ff" stroke="#63b8ff" points="425.74,-255.54 431.34,-264.53 432.57,-254.01 425.74,-255.54"/>
</g>
<!-- Node8 -->
<g id="node8" class="node">
<title>Node8</title>
<g id="a_node8"><a xlink:href="_optimizer_8hpp.html" target="_top" xlink:title=" ">
<polygon fill="white" stroke="#666666" points="574.25,-230 432.25,-230 432.25,-199.5 574.25,-199.5 574.25,-230"/>
<text text-anchor="start" x="440.25" y="-216.5" font-family="Helvetica,sans-Serif" font-size="10.00">include/NNFSCore/Optimizer</text>
<text text-anchor="middle" x="503.25" y="-205.25" font-family="Helvetica,sans-Serif" font-size="10.00">/Optimizer.hpp</text>
</a>
</g>
</g>
<!-- Node1&#45;&gt;Node8 -->
<g id="edge11" class="edge">
<title>Node1&#45;&gt;Node8</title>
<path fill="none" stroke="#63b8ff" d="M457.79,-258.24C467.65,-249.03 478.84,-238.56 487.65,-230.33"/>
<polygon fill="#63b8ff" stroke="#63b8ff" points="455.82,-255.23 450.91,-264.61 460.6,-260.34 455.82,-255.23"/>
</g>
<!-- Node13 -->
<g id="node13" class="node">
<title>Node13</title>
<g id="a_node13"><a xlink:href="test__dense_8cpp.html" target="_top" xlink:title=" ">
<polygon fill="white" stroke="#666666" points="698.62,-224.38 591.88,-224.38 591.88,-205.12 698.62,-205.12 698.62,-224.38"/>
<text text-anchor="middle" x="645.25" y="-210.88" font-family="Helvetica,sans-Serif" font-size="10.00">tests/test_dense.cpp</text>
</a>
</g>
</g>
<!-- Node1&#45;&gt;Node13 -->
<g id="edge17" class="edge">
<title>Node1&#45;&gt;Node13</title>
<path fill="none" stroke="#63b8ff" d="M492.79,-262.35C532.68,-250.16 583.8,-234.53 615.54,-224.83"/>
<polygon fill="#63b8ff" stroke="#63b8ff" points="491.93,-259.26 483.39,-265.53 493.98,-265.96 491.93,-259.26"/>
</g>
<!-- Node3 -->
<g id="node3" class="node">
<title>Node3</title>
<g id="a_node3"><a xlink:href="_c_c_e_8hpp.html" target="_top" xlink:title=" ">
<polygon fill="white" stroke="#666666" points="154.5,-163.5 32,-163.5 32,-133 154.5,-133 154.5,-163.5"/>
<text text-anchor="start" x="40" y="-150" font-family="Helvetica,sans-Serif" font-size="10.00">include/NNFSCore/Loss</text>
<text text-anchor="middle" x="93.25" y="-138.75" font-family="Helvetica,sans-Serif" font-size="10.00">/CCE.hpp</text>
</a>
</g>
</g>
<!-- Node2&#45;&gt;Node3 -->
<g id="edge2" class="edge">
<title>Node2&#45;&gt;Node3</title>
<path fill="none" stroke="#63b8ff" d="M178.01,-194.06C159.58,-184.32 137.73,-172.76 120.82,-163.83"/>
<polygon fill="#63b8ff" stroke="#63b8ff" points="176.09,-197.53 186.57,-199.11 179.36,-191.35 176.09,-197.53"/>
</g>
<!-- Node2&#45;&gt;Node5 -->
<g id="edge9" class="edge">
<title>Node2&#45;&gt;Node5</title>
<path fill="none" stroke="#63b8ff" d="M205.06,-189.16C194.07,-158.56 180.71,-105.57 201.25,-66.5 209.48,-50.84 225.05,-39.11 239.7,-30.94"/>
<polygon fill="#63b8ff" stroke="#63b8ff" points="202.11,-190.25 208.93,-198.36 208.65,-187.77 202.11,-190.25"/>
</g>
<!-- Node7 -->
<g id="node7" class="node">
<title>Node7</title>
<g id="a_node7"><a xlink:href="_model_8hpp.html" target="_top" xlink:title=" ">
<polygon fill="white" stroke="#666666" points="337.75,-97 210.75,-97 210.75,-66.5 337.75,-66.5 337.75,-97"/>
<text text-anchor="start" x="218.75" y="-83.5" font-family="Helvetica,sans-Serif" font-size="10.00">include/NNFSCore/Model</text>
<text text-anchor="middle" x="274.25" y="-72.25" font-family="Helvetica,sans-Serif" font-size="10.00">/Model.hpp</text>
</a>
</g>
</g>
<!-- Node2&#45;&gt;Node7 -->
<g id="edge7" class="edge">
<title>Node2&#45;&gt;Node7</title>
<path fill="none" stroke="#63b8ff" d="M226.23,-189.38C238.4,-162.34 257.65,-119.6 267.68,-97.33"/>
<polygon fill="#63b8ff" stroke="#63b8ff" points="222.7,-187.67 221.79,-198.23 229.09,-190.55 222.7,-187.67"/>
</g>
<!-- Node4 -->
<g id="node4" class="node">
<title>Node4</title>
<g id="a_node4"><a xlink:href="_c_c_e___softmax_8hpp.html" target="_top" xlink:title=" ">
<polygon fill="white" stroke="#666666" points="154.5,-97 32,-97 32,-66.5 154.5,-66.5 154.5,-97"/>
<text text-anchor="start" x="40" y="-83.5" font-family="Helvetica,sans-Serif" font-size="10.00">include/NNFSCore/Loss</text>
<text text-anchor="middle" x="93.25" y="-72.25" font-family="Helvetica,sans-Serif" font-size="10.00">/CCE_Softmax.hpp</text>
</a>
</g>
</g>
<!-- Node3&#45;&gt;Node4 -->
<g id="edge3" class="edge">
<title>Node3&#45;&gt;Node4</title>
<path fill="none" stroke="#63b8ff" d="M93.25,-121.88C93.25,-113.55 93.25,-104.58 93.25,-97.33"/>
<polygon fill="#63b8ff" stroke="#63b8ff" points="89.75,-121.61 93.25,-131.61 96.75,-121.61 89.75,-121.61"/>
</g>
<!-- Node6 -->
<g id="node6" class="node">
<title>Node6</title>
<g id="a_node6"><a xlink:href="test__loss_8cpp.html" target="_top" xlink:title=" ">
<polygon fill="white" stroke="#666666" points="98.5,-24.88 0,-24.88 0,-5.63 98.5,-5.63 98.5,-24.88"/>
<text text-anchor="middle" x="49.25" y="-11.38" font-family="Helvetica,sans-Serif" font-size="10.00">tests/test_loss.cpp</text>
</a>
</g>
</g>
<!-- Node3&#45;&gt;Node6 -->
<g id="edge6" class="edge">
<title>Node3&#45;&gt;Node6</title>
<path fill="none" stroke="#63b8ff" d="M51.73,-126.96C40.42,-119.25 29.56,-109.29 23.25,-97 10.61,-72.37 30.56,-40.36 42.05,-25.1"/>
<polygon fill="#63b8ff" stroke="#63b8ff" points="49.49,-130.31 59.82,-132.67 53.21,-124.39 49.49,-130.31"/>
</g>
<!-- Node4&#45;&gt;Node5 -->
<g id="edge4" class="edge">
<title>Node4&#45;&gt;Node5</title>
<path fill="none" stroke="#63b8ff" d="M144.34,-62.54C172.39,-52.55 206.71,-40.32 233.03,-30.94"/>
<polygon fill="#63b8ff" stroke="#63b8ff" points="143.57,-59.46 135.32,-66.11 145.92,-66.05 143.57,-59.46"/>
</g>
<!-- Node4&#45;&gt;Node6 -->
<g id="edge5" class="edge">
<title>Node4&#45;&gt;Node6</title>
<path fill="none" stroke="#63b8ff" d="M77.19,-57.2C69.56,-46.02 60.9,-33.32 55.27,-25.07"/>
<polygon fill="#63b8ff" stroke="#63b8ff" points="74.74,-58.83 83.27,-65.11 80.52,-54.88 74.74,-58.83"/>
</g>
<!-- Node7&#45;&gt;Node5 -->
<g id="edge8" class="edge">
<title>Node7&#45;&gt;Node5</title>
<path fill="none" stroke="#63b8ff" d="M274.25,-55.38C274.25,-47.05 274.25,-38.08 274.25,-30.83"/>
<polygon fill="#63b8ff" stroke="#63b8ff" points="270.75,-55.11 274.25,-65.11 277.75,-55.11 270.75,-55.11"/>
</g>
<!-- Node8&#45;&gt;Node5 -->
<g id="edge12" class="edge">
<title>Node8&#45;&gt;Node5</title>
<path fill="none" stroke="#63b8ff" d="M461.6,-193.92C448.05,-185.93 433.8,-175.69 423.25,-163.5 392.38,-127.85 413.17,-100.27 380.25,-66.5 364.61,-50.46 342.84,-38.93 323.1,-30.99"/>
<polygon fill="#63b8ff" stroke="#63b8ff" points="459.38,-197.24 469.81,-199.08 462.8,-191.14 459.38,-197.24"/>
</g>
<!-- Node9 -->
<g id="node9" class="node">
<title>Node9</title>
<g id="a_node9"><a xlink:href="_adagrad_8hpp.html" target="_top" xlink:title=" ">
<polygon fill="white" stroke="#666666" points="574.25,-163.5 432.25,-163.5 432.25,-133 574.25,-133 574.25,-163.5"/>
<text text-anchor="start" x="440.25" y="-150" font-family="Helvetica,sans-Serif" font-size="10.00">include/NNFSCore/Optimizer</text>
<text text-anchor="middle" x="503.25" y="-138.75" font-family="Helvetica,sans-Serif" font-size="10.00">/Adagrad.hpp</text>
</a>
</g>
</g>
<!-- Node8&#45;&gt;Node9 -->
<g id="edge13" class="edge">
<title>Node8&#45;&gt;Node9</title>
<path fill="none" stroke="#63b8ff" d="M503.25,-188.38C503.25,-180.05 503.25,-171.08 503.25,-163.83"/>
<polygon fill="#63b8ff" stroke="#63b8ff" points="499.75,-188.11 503.25,-198.11 506.75,-188.11 499.75,-188.11"/>
</g>
<!-- Node10 -->
<g id="node10" class="node">
<title>Node10</title>
<g id="a_node10"><a xlink:href="_adam_8hpp.html" target="_top" xlink:title=" ">
<polygon fill="white" stroke="#666666" points="734.25,-163.5 592.25,-163.5 592.25,-133 734.25,-133 734.25,-163.5"/>
<text text-anchor="start" x="600.25" y="-150" font-family="Helvetica,sans-Serif" font-size="10.00">include/NNFSCore/Optimizer</text>
<text text-anchor="middle" x="663.25" y="-138.75" font-family="Helvetica,sans-Serif" font-size="10.00">/Adam.hpp</text>
</a>
</g>
</g>
<!-- Node8&#45;&gt;Node10 -->
<g id="edge14" class="edge">
<title>Node8&#45;&gt;Node10</title>
<path fill="none" stroke="#63b8ff" d="M549.73,-195.01C574.27,-185.12 603.95,-173.15 626.81,-163.94"/>
<polygon fill="#63b8ff" stroke="#63b8ff" points="548.52,-192.13 540.56,-199.11 551.14,-198.62 548.52,-192.13"/>
</g>
<!-- Node11 -->
<g id="node11" class="node">
<title>Node11</title>
<g id="a_node11"><a xlink:href="_r_m_s_prop_8hpp.html" target="_top" xlink:title=" ">
<polygon fill="white" stroke="#666666" points="894.25,-163.5 752.25,-163.5 752.25,-133 894.25,-133 894.25,-163.5"/>
<text text-anchor="start" x="760.25" y="-150" font-family="Helvetica,sans-Serif" font-size="10.00">include/NNFSCore/Optimizer</text>
<text text-anchor="middle" x="823.25" y="-138.75" font-family="Helvetica,sans-Serif" font-size="10.00">/RMSProp.hpp</text>
</a>
</g>
</g>
<!-- Node8&#45;&gt;Node11 -->
<g id="edge15" class="edge">
<title>Node8&#45;&gt;Node11</title>
<path fill="none" stroke="#63b8ff" d="M585.42,-197.19C636.86,-186.82 702.49,-173.59 751.78,-163.66"/>
<polygon fill="#63b8ff" stroke="#63b8ff" points="584.78,-193.95 575.67,-199.36 586.16,-200.81 584.78,-193.95"/>
</g>
<!-- Node12 -->
<g id="node12" class="node">
<title>Node12</title>
<g id="a_node12"><a xlink:href="_s_g_d_8hpp.html" target="_top" xlink:title=" ">
<polygon fill="white" stroke="#666666" points="1054.25,-163.5 912.25,-163.5 912.25,-133 1054.25,-133 1054.25,-163.5"/>
<text text-anchor="start" x="920.25" y="-150" font-family="Helvetica,sans-Serif" font-size="10.00">include/NNFSCore/Optimizer</text>
<text text-anchor="middle" x="983.25" y="-138.75" font-family="Helvetica,sans-Serif" font-size="10.00">/SGD.hpp</text>
</a>
</g>
</g>
<!-- Node8&#45;&gt;Node12 -->
<g id="edge16" class="edge">
<title>Node8&#45;&gt;Node12</title>
<path fill="none" stroke="#63b8ff" d="M585.54,-199.23C726.74,-179.18 765.07,-183.56 903.25,-163.5 906.04,-163.09 908.89,-162.67 911.76,-162.22"/>
<polygon fill="#63b8ff" stroke="#63b8ff" points="585.14,-195.89 575.74,-200.78 586.14,-202.82 585.14,-195.89"/>
</g>
</g>
</svg>
