<?xml version="1.0" encoding="UTF-8" standalone="no"?>
<!DOCTYPE svg PUBLIC "-//W3C//DTD SVG 1.1//EN"
 "http://www.w3.org/Graphics/SVG/1.1/DTD/svg11.dtd">
<!-- Generated by graphviz version 8.0.5 (20230430.1635)
 -->
<!-- Title: include/NNFSCore/Layer/Dense.hpp Pages: 1 -->
<svg width="330pt" height="204pt"
 viewBox="0.00 0.00 329.75 204.25" xmlns="http://www.w3.org/2000/svg" xmlns:xlink="http://www.w3.org/1999/xlink">
<g id="graph0" class="graph" transform="scale(1 1) rotate(0) translate(4 200.25)">
<title>include/NNFSCore/Layer/Dense.hpp</title>
<!-- Node1 -->
<g id="node1" class="node">
<title>Node1</title>
<g id="a_node1"><a xlink:title=" ">
<polygon fill="#999999" stroke="#666666" points="129.12,-196.25 4.38,-196.25 4.38,-165.75 129.12,-165.75 129.12,-196.25"/>
<text text-anchor="start" x="12.38" y="-182.75" font-family="Helvetica,sans-Serif" font-size="10.00">include/NNFSCore/Layer</text>
<text text-anchor="middle" x="66.75" y="-171.5" font-family="Helvetica,sans-Serif" font-size="10.00">/Dense.hpp</text>
</a>
</g>
</g>
<!-- Node2 -->
<g id="node2" class="node">
<title>Node2</title>
<g id="a_node2"><a xlink:title=" ">
<polygon fill="#e0e0e0" stroke="#999999" points="53.5,-19.25 0,-19.25 0,0 53.5,0 53.5,-19.25"/>
<text text-anchor="middle" x="26.75" y="-5.75" font-family="Helvetica,sans-Serif" font-size="10.00">iostream</text>
</a>
</g>
</g>
<!-- Node1&#45;&gt;Node2 -->
<g id="edge1" class="edge">
<title>Node1&#45;&gt;Node2</title>
<path fill="none" stroke="#63b8ff" d="M54.07,-165.26C46.72,-155.78 38.08,-142.83 33.75,-129.75 22.65,-96.26 23.22,-54.6 24.85,-30.47"/>
<polygon fill="#63b8ff" stroke="#63b8ff" points="28.41,-30.84 25.74,-20.59 21.44,-30.27 28.41,-30.84"/>
</g>
<!-- Node3 -->
<g id="node3" class="node">
<title>Node3</title>
<g id="a_node3"><a xlink:title=" ">
<polygon fill="#e0e0e0" stroke="#999999" points="90.88,-129.75 42.62,-129.75 42.62,-110.5 90.88,-110.5 90.88,-129.75"/>
<text text-anchor="middle" x="66.75" y="-116.25" font-family="Helvetica,sans-Serif" font-size="10.00">random</text>
</a>
</g>
</g>
<!-- Node1&#45;&gt;Node3 -->
<g id="edge2" class="edge">
<title>Node1&#45;&gt;Node3</title>
<path fill="none" stroke="#63b8ff" d="M66.75,-165.45C66.75,-158.12 66.75,-149.12 66.75,-141.16"/>
<polygon fill="#63b8ff" stroke="#63b8ff" points="70.25,-141.2 66.75,-131.2 63.25,-141.2 70.25,-141.2"/>
</g>
<!-- Node4 -->
<g id="node4" class="node">
<title>Node4</title>
<g id="a_node4"><a xlink:href="_layer_8hpp.html" target="_top" xlink:title=" ">
<polygon fill="white" stroke="#666666" points="166.75,-129.75 108.75,-129.75 108.75,-110.5 166.75,-110.5 166.75,-129.75"/>
<text text-anchor="middle" x="137.75" y="-116.25" font-family="Helvetica,sans-Serif" font-size="10.00">Layer.hpp</text>
</a>
</g>
</g>
<!-- Node1&#45;&gt;Node4 -->
<g id="edge3" class="edge">
<title>Node1&#45;&gt;Node4</title>
<path fill="none" stroke="#63b8ff" d="M84.3,-165.45C94.7,-156.83 107.88,-145.9 118.55,-137.05"/>
<polygon fill="#63b8ff" stroke="#63b8ff" points="120.34,-139.28 125.8,-130.2 115.87,-133.89 120.34,-139.28"/>
</g>
<!-- Node5 -->
<g id="node5" class="node">
<title>Node5</title>
<g id="a_node5"><a xlink:title=" ">
<polygon fill="#e0e0e0" stroke="#999999" points="113.12,-74.5 42.38,-74.5 42.38,-55.25 113.12,-55.25 113.12,-74.5"/>
<text text-anchor="middle" x="77.75" y="-61" font-family="Helvetica,sans-Serif" font-size="10.00">Eigen/Dense</text>
</a>
</g>
</g>
<!-- Node4&#45;&gt;Node5 -->
<g id="edge4" class="edge">
<title>Node4&#45;&gt;Node5</title>
<path fill="none" stroke="#63b8ff" d="M127.57,-110.09C118.9,-102.4 106.23,-91.15 95.83,-81.93"/>
<polygon fill="#63b8ff" stroke="#63b8ff" points="98.58,-79.79 88.78,-75.77 93.93,-85.03 98.58,-79.79"/>
</g>
<!-- Node6 -->
<g id="node6" class="node">
<title>Node6</title>
<g id="a_node6"><a xlink:href="clue_8hpp.html" target="_top" xlink:title=" ">
<polygon fill="white" stroke="#666666" points="226.5,-74.5 131,-74.5 131,-55.25 226.5,-55.25 226.5,-74.5"/>
<text text-anchor="middle" x="178.75" y="-61" font-family="Helvetica,sans-Serif" font-size="10.00">../Utilities/clue.hpp</text>
</a>
</g>
</g>
<!-- Node4&#45;&gt;Node6 -->
<g id="edge5" class="edge">
<title>Node4&#45;&gt;Node6</title>
<path fill="none" stroke="#63b8ff" d="M144.52,-110.33C150.12,-103.05 158.26,-92.48 165.2,-83.48"/>
<polygon fill="#63b8ff" stroke="#63b8ff" points="168.51,-85.92 171.83,-75.86 162.96,-81.65 168.51,-85.92"/>
</g>
<!-- Node6&#45;&gt;Node2 -->
<g id="edge9" class="edge">
<title>Node6&#45;&gt;Node2</title>
<path fill="none" stroke="#63b8ff" d="M152.97,-54.84C128.18,-46.16 90.5,-32.96 62.76,-23.24"/>
<polygon fill="#63b8ff" stroke="#63b8ff" points="64.26,-19.71 53.66,-19.7 61.94,-26.31 64.26,-19.71"/>
</g>
<!-- Node7 -->
<g id="node7" class="node">
<title>Node7</title>
<g id="a_node7"><a xlink:title=" ">
<polygon fill="#e0e0e0" stroke="#999999" points="127.62,-19.25 77.88,-19.25 77.88,0 127.62,0 127.62,-19.25"/>
<text text-anchor="middle" x="102.75" y="-5.75" font-family="Helvetica,sans-Serif" font-size="10.00">iomanip</text>
</a>
</g>
</g>
<!-- Node6&#45;&gt;Node7 -->
<g id="edge6" class="edge">
<title>Node6&#45;&gt;Node7</title>
<path fill="none" stroke="#63b8ff" d="M165.86,-54.84C154.5,-46.89 137.73,-35.14 124.34,-25.75"/>
<polygon fill="#63b8ff" stroke="#63b8ff" points="126.9,-22.57 116.71,-19.7 122.89,-28.31 126.9,-22.57"/>
</g>
<!-- Node8 -->
<g id="node8" class="node">
<title>Node8</title>
<g id="a_node8"><a xlink:title=" ">
<polygon fill="#e0e0e0" stroke="#999999" points="197.38,-19.25 146.12,-19.25 146.12,0 197.38,0 197.38,-19.25"/>
<text text-anchor="middle" x="171.75" y="-5.75" font-family="Helvetica,sans-Serif" font-size="10.00">sstream</text>
</a>
</g>
</g>
<!-- Node6&#45;&gt;Node8 -->
<g id="edge7" class="edge">
<title>Node6&#45;&gt;Node8</title>
<path fill="none" stroke="#63b8ff" d="M177.59,-55.08C176.71,-48.34 175.45,-38.77 174.33,-30.24"/>
<polygon fill="#63b8ff" stroke="#63b8ff" points="177.7,-30.07 172.93,-20.61 170.76,-30.98 177.7,-30.07"/>
</g>
<!-- Node9 -->
<g id="node9" class="node">
<title>Node9</title>
<g id="a_node9"><a xlink:title=" ">
<polygon fill="#e0e0e0" stroke="#999999" points="263.88,-19.25 215.62,-19.25 215.62,0 263.88,0 263.88,-19.25"/>
<text text-anchor="middle" x="239.75" y="-5.75" font-family="Helvetica,sans-Serif" font-size="10.00">cassert</text>
</a>
</g>
</g>
<!-- Node6&#45;&gt;Node9 -->
<g id="edge8" class="edge">
<title>Node6&#45;&gt;Node9</title>
<path fill="none" stroke="#63b8ff" d="M189.1,-54.84C197.91,-47.15 210.8,-35.9 221.36,-26.68"/>
<polygon fill="#63b8ff" stroke="#63b8ff" points="223.32,-28.74 228.56,-19.52 218.72,-23.46 223.32,-28.74"/>
</g>
<!-- Node10 -->
<g id="node10" class="node">
<title>Node10</title>
<g id="a_node10"><a xlink:title=" ">
<polygon fill="#e0e0e0" stroke="#999999" points="321.75,-19.25 281.75,-19.25 281.75,0 321.75,0 321.75,-19.25"/>
<text text-anchor="middle" x="301.75" y="-5.75" font-family="Helvetica,sans-Serif" font-size="10.00">ctime</text>
</a>
</g>
</g>
<!-- Node6&#45;&gt;Node10 -->
<g id="edge10" class="edge">
<title>Node6&#45;&gt;Node10</title>
<path fill="none" stroke="#63b8ff" d="M199.62,-54.84C219.38,-46.29 249.27,-33.34 271.62,-23.67"/>
<polygon fill="#63b8ff" stroke="#63b8ff" points="272.81,-26.53 280.6,-19.35 270.03,-20.11 272.81,-26.53"/>
</g>
</g>
</svg>
