<?xml version="1.0" encoding="UTF-8" standalone="no"?>
<!DOCTYPE svg PUBLIC "-//W3C//DTD SVG 1.1//EN"
 "http://www.w3.org/Graphics/SVG/1.1/DTD/svg11.dtd">
<!-- Generated by graphviz version 8.0.5 (20230430.1635)
 -->
<!-- Title: include/NNFSCore/Layer/Dense.hpp Pages: 1 -->
<svg width="328pt" height="204pt"
 viewBox="0.00 0.00 327.75 204.25" xmlns="http://www.w3.org/2000/svg" xmlns:xlink="http://www.w3.org/1999/xlink">
<g id="graph0" class="graph" transform="scale(1 1) rotate(0) translate(4 200.25)">
<title>include/NNFSCore/Layer/Dense.hpp</title>
<!-- Node1 -->
<g id="node1" class="node">
<title>Node1</title>
<g id="a_node1"><a xlink:title=" ">
<polygon fill="#999999" stroke="#666666" points="132.12,-196.25 7.38,-196.25 7.38,-165.75 132.12,-165.75 132.12,-196.25"/>
<text text-anchor="start" x="15.38" y="-182.75" font-family="Helvetica,sans-Serif" font-size="10.00">include/NNFSCore/Layer</text>
<text text-anchor="middle" x="69.75" y="-171.5" font-family="Helvetica,sans-Serif" font-size="10.00">/Dense.hpp</text>
</a>
</g>
</g>
<!-- Node2 -->
<g id="node2" class="node">
<title>Node2</title>
<g id="a_node2"><a xlink:title=" ">
<polygon fill="#e0e0e0" stroke="#999999" points="53.5,-19.25 0,-19.25 0,0 53.5,0 53.5,-19.25"/>
<text text-anchor="middle" x="26.75" y="-5.75" font-family="Helvetica,sans-Serif" font-size="10.00">iostream</text>
</a>
</g>
</g>
<!-- Node1&#45;&gt;Node2 -->
<g id="edge1" class="edge">
<title>Node1&#45;&gt;Node2</title>
<path fill="none" stroke="#63b8ff" d="M57.52,-165.65C50.14,-156.12 41.31,-142.97 36.75,-129.75 25.22,-96.34 24.6,-54.66 25.48,-30.5"/>
<polygon fill="#63b8ff" stroke="#63b8ff" points="29.03,-30.76 26.03,-20.6 22.03,-30.41 29.03,-30.76"/>
</g>
<!-- Node3 -->
<g id="node3" class="node">
<title>Node3</title>
<g id="a_node3"><a xlink:title=" ">
<polygon fill="#e0e0e0" stroke="#999999" points="93.88,-129.75 45.62,-129.75 45.62,-110.5 93.88,-110.5 93.88,-129.75"/>
<text text-anchor="middle" x="69.75" y="-116.25" font-family="Helvetica,sans-Serif" font-size="10.00">random</text>
</a>
</g>
</g>
<!-- Node1&#45;&gt;Node3 -->
<g id="edge2" class="edge">
<title>Node1&#45;&gt;Node3</title>
<path fill="none" stroke="#63b8ff" d="M69.75,-165.45C69.75,-158.12 69.75,-149.12 69.75,-141.16"/>
<polygon fill="#63b8ff" stroke="#63b8ff" points="73.25,-141.2 69.75,-131.2 66.25,-141.2 73.25,-141.2"/>
</g>
<!-- Node4 -->
<g id="node4" class="node">
<title>Node4</title>
<g id="a_node4"><a xlink:href="_layer_8hpp.html" target="_top" xlink:title=" ">
<polygon fill="white" stroke="#666666" points="169.75,-129.75 111.75,-129.75 111.75,-110.5 169.75,-110.5 169.75,-129.75"/>
<text text-anchor="middle" x="140.75" y="-116.25" font-family="Helvetica,sans-Serif" font-size="10.00">Layer.hpp</text>
</a>
</g>
</g>
<!-- Node1&#45;&gt;Node4 -->
<g id="edge3" class="edge">
<title>Node1&#45;&gt;Node4</title>
<path fill="none" stroke="#63b8ff" d="M87.3,-165.45C97.7,-156.83 110.88,-145.9 121.55,-137.05"/>
<polygon fill="#63b8ff" stroke="#63b8ff" points="123.34,-139.28 128.8,-130.2 118.87,-133.89 123.34,-139.28"/>
</g>
<!-- Node5 -->
<g id="node5" class="node">
<title>Node5</title>
<g id="a_node5"><a xlink:title=" ">
<polygon fill="#e0e0e0" stroke="#999999" points="109.38,-74.5 46.12,-74.5 46.12,-55.25 109.38,-55.25 109.38,-74.5"/>
<text text-anchor="middle" x="77.75" y="-61" font-family="Helvetica,sans-Serif" font-size="10.00">Eigen/Core</text>
</a>
</g>
</g>
<!-- Node4&#45;&gt;Node5 -->
<g id="edge4" class="edge">
<title>Node4&#45;&gt;Node5</title>
<path fill="none" stroke="#63b8ff" d="M130.06,-110.09C120.87,-102.32 107.39,-90.92 96.41,-81.65"/>
<polygon fill="#63b8ff" stroke="#63b8ff" points="99.18,-78.56 89.28,-74.77 94.66,-83.9 99.18,-78.56"/>
</g>
<!-- Node6 -->
<g id="node6" class="node">
<title>Node6</title>
<g id="a_node6"><a xlink:href="clue_8hpp.html" target="_top" xlink:title=" ">
<polygon fill="white" stroke="#666666" points="222.5,-74.5 127,-74.5 127,-55.25 222.5,-55.25 222.5,-74.5"/>
<text text-anchor="middle" x="174.75" y="-61" font-family="Helvetica,sans-Serif" font-size="10.00">../Utilities/clue.hpp</text>
</a>
</g>
</g>
<!-- Node4&#45;&gt;Node6 -->
<g id="edge5" class="edge">
<title>Node4&#45;&gt;Node6</title>
<path fill="none" stroke="#63b8ff" d="M146.36,-110.33C150.91,-103.21 157.48,-92.93 163.15,-84.05"/>
<polygon fill="#63b8ff" stroke="#63b8ff" points="166.58,-86.17 169.01,-75.86 160.68,-82.4 166.58,-86.17"/>
</g>
<!-- Node6&#45;&gt;Node2 -->
<g id="edge9" class="edge">
<title>Node6&#45;&gt;Node2</title>
<path fill="none" stroke="#63b8ff" d="M149.64,-54.84C125.62,-46.2 89.15,-33.07 62.17,-23.37"/>
<polygon fill="#63b8ff" stroke="#63b8ff" points="63.57,-19.79 52.98,-19.7 61.2,-26.38 63.57,-19.79"/>
</g>
<!-- Node7 -->
<g id="node7" class="node">
<title>Node7</title>
<g id="a_node7"><a xlink:title=" ">
<polygon fill="#e0e0e0" stroke="#999999" points="125.62,-19.25 75.88,-19.25 75.88,0 125.62,0 125.62,-19.25"/>
<text text-anchor="middle" x="100.75" y="-5.75" font-family="Helvetica,sans-Serif" font-size="10.00">iomanip</text>
</a>
</g>
</g>
<!-- Node6&#45;&gt;Node7 -->
<g id="edge6" class="edge">
<title>Node6&#45;&gt;Node7</title>
<path fill="none" stroke="#63b8ff" d="M162.2,-54.84C151.18,-46.91 134.93,-35.22 121.91,-25.85"/>
<polygon fill="#63b8ff" stroke="#63b8ff" points="124.28,-22.52 114.12,-19.52 120.19,-28.21 124.28,-22.52"/>
</g>
<!-- Node8 -->
<g id="node8" class="node">
<title>Node8</title>
<g id="a_node8"><a xlink:title=" ">
<polygon fill="#e0e0e0" stroke="#999999" points="195.38,-19.25 144.12,-19.25 144.12,0 195.38,0 195.38,-19.25"/>
<text text-anchor="middle" x="169.75" y="-5.75" font-family="Helvetica,sans-Serif" font-size="10.00">sstream</text>
</a>
</g>
</g>
<!-- Node6&#45;&gt;Node8 -->
<g id="edge7" class="edge">
<title>Node6&#45;&gt;Node8</title>
<path fill="none" stroke="#63b8ff" d="M173.92,-55.08C173.3,-48.42 172.41,-38.99 171.62,-30.53"/>
<polygon fill="#63b8ff" stroke="#63b8ff" points="175.01,-30.24 170.59,-20.61 168.04,-30.89 175.01,-30.24"/>
</g>
<!-- Node9 -->
<g id="node9" class="node">
<title>Node9</title>
<g id="a_node9"><a xlink:title=" ">
<polygon fill="#e0e0e0" stroke="#999999" points="261.88,-19.25 213.62,-19.25 213.62,0 261.88,0 261.88,-19.25"/>
<text text-anchor="middle" x="237.75" y="-5.75" font-family="Helvetica,sans-Serif" font-size="10.00">cassert</text>
</a>
</g>
</g>
<!-- Node6&#45;&gt;Node9 -->
<g id="edge8" class="edge">
<title>Node6&#45;&gt;Node9</title>
<path fill="none" stroke="#63b8ff" d="M185.44,-54.84C194.63,-47.07 208.11,-35.67 219.09,-26.4"/>
<polygon fill="#63b8ff" stroke="#63b8ff" points="220.84,-28.65 226.22,-19.52 216.32,-23.31 220.84,-28.65"/>
</g>
<!-- Node10 -->
<g id="node10" class="node">
<title>Node10</title>
<g id="a_node10"><a xlink:title=" ">
<polygon fill="#e0e0e0" stroke="#999999" points="319.75,-19.25 279.75,-19.25 279.75,0 319.75,0 319.75,-19.25"/>
<text text-anchor="middle" x="299.75" y="-5.75" font-family="Helvetica,sans-Serif" font-size="10.00">ctime</text>
</a>
</g>
</g>
<!-- Node6&#45;&gt;Node10 -->
<g id="edge10" class="edge">
<title>Node6&#45;&gt;Node10</title>
<path fill="none" stroke="#63b8ff" d="M195.95,-54.84C216.13,-46.25 246.69,-33.23 269.44,-23.54"/>
<polygon fill="#63b8ff" stroke="#63b8ff" points="270.44,-26.49 278.27,-19.35 267.7,-20.05 270.44,-26.49"/>
</g>
</g>
</svg>
