<?xml version="1.0" encoding="UTF-8" standalone="no"?>
<!DOCTYPE svg PUBLIC "-//W3C//DTD SVG 1.1//EN"
 "http://www.w3.org/Graphics/SVG/1.1/DTD/svg11.dtd">
<!-- Generated by graphviz version 8.0.1 (20230327.1645)
 -->
<!-- Title: include/NNFSCore/Common/Differentiable.hpp Pages: 1 -->
<svg width="479pt" height="225pt"
 viewBox="0.00 0.00 479.00 225.00" xmlns="http://www.w3.org/2000/svg" xmlns:xlink="http://www.w3.org/1999/xlink">
<g id="graph0" class="graph" transform="scale(1 1) rotate(0) translate(4 221)">
<title>include/NNFSCore/Common/Differentiable.hpp</title>
<!-- Node1 -->
<g id="node1" class="node">
<title>Node1</title>
<g id="a_node1"><a xlink:title=" ">
<polygon fill="#999999" stroke="#666666" points="305.5,-217 165.5,-217 165.5,-187 305.5,-187 305.5,-217"/>
<text text-anchor="start" x="173.5" y="-205" font-family="Helvetica,sans-Serif" font-size="10.00">include/NNFSCore/Common</text>
<text text-anchor="middle" x="235.5" y="-194" font-family="Helvetica,sans-Serif" font-size="10.00">/Differentiable.hpp</text>
</a>
</g>
</g>
<!-- Node2 -->
<g id="node2" class="node">
<title>Node2</title>
<g id="a_node2"><a xlink:href="_activation_8hpp.html" target="_top" xlink:title=" ">
<polygon fill="white" stroke="#666666" points="308,-151 163,-151 163,-121 308,-121 308,-151"/>
<text text-anchor="start" x="171" y="-139" font-family="Helvetica,sans-Serif" font-size="10.00">include/NNFSCore/Activation</text>
<text text-anchor="middle" x="235.5" y="-128" font-family="Helvetica,sans-Serif" font-size="10.00">/Activation.hpp</text>
</a>
</g>
</g>
<!-- Node1&#45;&gt;Node2 -->
<g id="edge1" class="edge">
<title>Node1&#45;&gt;Node2</title>
<path fill="none" stroke="#63b8ff" d="M235.5,-175.97C235.5,-167.55 235.5,-158.45 235.5,-151.16"/>
<polygon fill="#63b8ff" stroke="#63b8ff" points="232,-175.8 235.5,-185.8 239,-175.8 232,-175.8"/>
</g>
<!-- Node3 -->
<g id="node3" class="node">
<title>Node3</title>
<g id="a_node3"><a xlink:href="_linear_8hpp.html" target="_top" xlink:title=" ">
<polygon fill="white" stroke="#666666" points="145,-85 0,-85 0,-55 145,-55 145,-85"/>
<text text-anchor="start" x="8" y="-73" font-family="Helvetica,sans-Serif" font-size="10.00">include/NNFSCore/Activation</text>
<text text-anchor="middle" x="72.5" y="-62" font-family="Helvetica,sans-Serif" font-size="10.00">/Linear.hpp</text>
</a>
</g>
</g>
<!-- Node2&#45;&gt;Node3 -->
<g id="edge2" class="edge">
<title>Node2&#45;&gt;Node3</title>
<path fill="none" stroke="#63b8ff" d="M188.82,-116.67C163.55,-106.75 132.78,-94.67 109.24,-85.43"/>
<polygon fill="#63b8ff" stroke="#63b8ff" points="187.33,-120.24 197.92,-120.64 189.89,-113.72 187.33,-120.24"/>
</g>
<!-- Node5 -->
<g id="node5" class="node">
<title>Node5</title>
<g id="a_node5"><a xlink:href="_re_l_u_8hpp.html" target="_top" xlink:title=" ">
<polygon fill="white" stroke="#666666" points="308,-85 163,-85 163,-55 308,-55 308,-85"/>
<text text-anchor="start" x="171" y="-73" font-family="Helvetica,sans-Serif" font-size="10.00">include/NNFSCore/Activation</text>
<text text-anchor="middle" x="235.5" y="-62" font-family="Helvetica,sans-Serif" font-size="10.00">/ReLU.hpp</text>
</a>
</g>
</g>
<!-- Node2&#45;&gt;Node5 -->
<g id="edge4" class="edge">
<title>Node2&#45;&gt;Node5</title>
<path fill="none" stroke="#63b8ff" d="M235.5,-109.97C235.5,-101.55 235.5,-92.45 235.5,-85.16"/>
<polygon fill="#63b8ff" stroke="#63b8ff" points="232,-109.8 235.5,-119.8 239,-109.8 232,-109.8"/>
</g>
<!-- Node6 -->
<g id="node6" class="node">
<title>Node6</title>
<g id="a_node6"><a xlink:href="_sigmoid_8hpp.html" target="_top" xlink:title=" ">
<polygon fill="white" stroke="#666666" points="471,-85 326,-85 326,-55 471,-55 471,-85"/>
<text text-anchor="start" x="334" y="-73" font-family="Helvetica,sans-Serif" font-size="10.00">include/NNFSCore/Activation</text>
<text text-anchor="middle" x="398.5" y="-62" font-family="Helvetica,sans-Serif" font-size="10.00">/Sigmoid.hpp</text>
</a>
</g>
</g>
<!-- Node2&#45;&gt;Node6 -->
<g id="edge6" class="edge">
<title>Node2&#45;&gt;Node6</title>
<path fill="none" stroke="#63b8ff" d="M282.18,-116.67C307.45,-106.75 338.22,-94.67 361.76,-85.43"/>
<polygon fill="#63b8ff" stroke="#63b8ff" points="281.11,-113.72 273.08,-120.64 283.67,-120.24 281.11,-113.72"/>
</g>
<!-- Node4 -->
<g id="node4" class="node">
<title>Node4</title>
<g id="a_node4"><a xlink:href="test__activation_8cpp.html" target="_top" xlink:title=" ">
<polygon fill="white" stroke="#666666" points="297,-19 174,-19 174,0 297,0 297,-19"/>
<text text-anchor="middle" x="235.5" y="-7" font-family="Helvetica,sans-Serif" font-size="10.00">tests/test_activation.cpp</text>
</a>
</g>
</g>
<!-- Node3&#45;&gt;Node4 -->
<g id="edge3" class="edge">
<title>Node3&#45;&gt;Node4</title>
<path fill="none" stroke="#63b8ff" d="M122.84,-50.93C152.08,-40.44 187.61,-27.69 210.85,-19.35"/>
<polygon fill="#63b8ff" stroke="#63b8ff" points="122.02,-47.87 113.79,-54.54 124.39,-54.46 122.02,-47.87"/>
</g>
<!-- Node5&#45;&gt;Node4 -->
<g id="edge5" class="edge">
<title>Node5&#45;&gt;Node4</title>
<path fill="none" stroke="#63b8ff" d="M235.5,-43.59C235.5,-34.85 235.5,-25.65 235.5,-19.18"/>
<polygon fill="#63b8ff" stroke="#63b8ff" points="232,-43.54 235.5,-53.54 239,-43.54 232,-43.54"/>
</g>
<!-- Node6&#45;&gt;Node4 -->
<g id="edge7" class="edge">
<title>Node6&#45;&gt;Node4</title>
<path fill="none" stroke="#63b8ff" d="M348.16,-50.93C318.92,-40.44 283.39,-27.69 260.15,-19.35"/>
<polygon fill="#63b8ff" stroke="#63b8ff" points="346.61,-54.46 357.21,-54.54 348.98,-47.87 346.61,-54.46"/>
</g>
</g>
</svg>
