<?xml version="1.0" encoding="UTF-8" standalone="no"?>
<!DOCTYPE svg PUBLIC "-//W3C//DTD SVG 1.1//EN"
 "http://www.w3.org/Graphics/SVG/1.1/DTD/svg11.dtd">
<!-- Generated by graphviz version 8.0.5 (20230430.1635)
 -->
<!-- Title: include/NNFSCore/Layer/Layer.hpp Pages: 1 -->
<svg width="1576pt" height="371pt"
 viewBox="0.00 0.00 1576.04 371.00" xmlns="http://www.w3.org/2000/svg" xmlns:xlink="http://www.w3.org/1999/xlink">
<g id="graph0" class="graph" transform="scale(1 1) rotate(0) translate(4 367)">
<title>include/NNFSCore/Layer/Layer.hpp</title>
<!-- Node1 -->
<g id="node1" class="node">
<title>Node1</title>
<g id="a_node1"><a xlink:title=" ">
<polygon fill="#999999" stroke="#666666" points="825.42,-363 700.67,-363 700.67,-332.5 825.42,-332.5 825.42,-363"/>
<text text-anchor="start" x="708.67" y="-349.5" font-family="Helvetica,sans-Serif" font-size="10.00">include/NNFSCore/Layer</text>
<text text-anchor="middle" x="763.04" y="-338.25" font-family="Helvetica,sans-Serif" font-size="10.00">/Layer.hpp</text>
</a>
</g>
</g>
<!-- Node2 -->
<g id="node2" class="node">
<title>Node2</title>
<g id="a_node2"><a xlink:href="_activation_8hpp.html" target="_top" xlink:title=" ">
<polygon fill="white" stroke="#666666" points="615.17,-230 470.92,-230 470.92,-199.5 615.17,-199.5 615.17,-230"/>
<text text-anchor="start" x="478.92" y="-216.5" font-family="Helvetica,sans-Serif" font-size="10.00">include/NNFSCore/Activation</text>
<text text-anchor="middle" x="543.04" y="-205.25" font-family="Helvetica,sans-Serif" font-size="10.00">/Activation.hpp</text>
</a>
</g>
</g>
<!-- Node1&#45;&gt;Node2 -->
<g id="edge1" class="edge">
<title>Node1&#45;&gt;Node2</title>
<path fill="none" stroke="#63b8ff" d="M720.14,-327.59C701.36,-318.75 679.26,-307.74 660.04,-296.5 624.25,-275.57 585.05,-247.34 562.32,-230.4"/>
<polygon fill="#63b8ff" stroke="#63b8ff" points="718.37,-331.09 728.92,-332.13 721.32,-324.74 718.37,-331.09"/>
</g>
<!-- Node4 -->
<g id="node4" class="node">
<title>Node4</title>
<g id="a_node4"><a xlink:href="_neural_network_8hpp.html" target="_top" xlink:title=" ">
<polygon fill="white" stroke="#666666" points="801.54,-30.5 674.54,-30.5 674.54,0 801.54,0 801.54,-30.5"/>
<text text-anchor="start" x="682.54" y="-17" font-family="Helvetica,sans-Serif" font-size="10.00">include/NNFSCore/Model</text>
<text text-anchor="middle" x="738.04" y="-5.75" font-family="Helvetica,sans-Serif" font-size="10.00">/NeuralNetwork.hpp</text>
</a>
</g>
</g>
<!-- Node1&#45;&gt;Node4 -->
<g id="edge34" class="edge">
<title>Node1&#45;&gt;Node4</title>
<path fill="none" stroke="#63b8ff" d="M836.79,-342.46C1035.65,-329.92 1568.04,-289.45 1568.04,-215.75 1568.04,-215.75 1568.04,-215.75 1568.04,-147.25 1568.04,-69.75 996.15,-30.65 801.79,-19.6"/>
<polygon fill="#63b8ff" stroke="#63b8ff" points="836.64,-339.03 826.88,-343.14 837.07,-346.01 836.64,-339.03"/>
</g>
<!-- Node11 -->
<g id="node11" class="node">
<title>Node11</title>
<g id="a_node11"><a xlink:href="_dense_8hpp.html" target="_top" xlink:title=" ">
<polygon fill="white" stroke="#666666" points="914.42,-296.5 789.67,-296.5 789.67,-266 914.42,-266 914.42,-296.5"/>
<text text-anchor="start" x="797.67" y="-283" font-family="Helvetica,sans-Serif" font-size="10.00">include/NNFSCore/Layer</text>
<text text-anchor="middle" x="852.04" y="-271.75" font-family="Helvetica,sans-Serif" font-size="10.00">/Dense.hpp</text>
</a>
</g>
</g>
<!-- Node1&#45;&gt;Node11 -->
<g id="edge17" class="edge">
<title>Node1&#45;&gt;Node11</title>
<path fill="none" stroke="#63b8ff" d="M791.89,-325.84C804.97,-316.37 820.11,-305.39 831.93,-296.83"/>
<polygon fill="#63b8ff" stroke="#63b8ff" points="790.28,-323.41 784.24,-332.11 794.39,-329.08 790.28,-323.41"/>
</g>
<!-- Node14 -->
<g id="node14" class="node">
<title>Node14</title>
<g id="a_node14"><a xlink:href="_model_8hpp.html" target="_top" xlink:title=" ">
<polygon fill="white" stroke="#666666" points="785.54,-163.5 658.54,-163.5 658.54,-133 785.54,-133 785.54,-163.5"/>
<text text-anchor="start" x="666.54" y="-150" font-family="Helvetica,sans-Serif" font-size="10.00">include/NNFSCore/Model</text>
<text text-anchor="middle" x="722.04" y="-138.75" font-family="Helvetica,sans-Serif" font-size="10.00">/Model.hpp</text>
</a>
</g>
</g>
<!-- Node1&#45;&gt;Node14 -->
<g id="edge33" class="edge">
<title>Node1&#45;&gt;Node14</title>
<path fill="none" stroke="#63b8ff" d="M743.99,-323.68C726.86,-301.32 702.91,-265.63 693.04,-230 689.43,-216.94 689.54,-212.59 693.04,-199.5 696.54,-186.46 704.32,-173.31 710.94,-163.73"/>
<polygon fill="#63b8ff" stroke="#63b8ff" points="741.7,-325.43 750.63,-331.13 747.21,-321.11 741.7,-325.43"/>
</g>
<!-- Node3 -->
<g id="node3" class="node">
<title>Node3</title>
<g id="a_node3"><a xlink:href="_re_l_u_8hpp.html" target="_top" xlink:title=" ">
<polygon fill="white" stroke="#666666" points="359.17,-163.5 214.92,-163.5 214.92,-133 359.17,-133 359.17,-163.5"/>
<text text-anchor="start" x="222.92" y="-150" font-family="Helvetica,sans-Serif" font-size="10.00">include/NNFSCore/Activation</text>
<text text-anchor="middle" x="287.04" y="-138.75" font-family="Helvetica,sans-Serif" font-size="10.00">/ReLU.hpp</text>
</a>
</g>
</g>
<!-- Node2&#45;&gt;Node3 -->
<g id="edge2" class="edge">
<title>Node2&#45;&gt;Node3</title>
<path fill="none" stroke="#63b8ff" d="M474.08,-196.38C433.79,-186.22 383.49,-173.55 345.2,-163.9"/>
<polygon fill="#63b8ff" stroke="#63b8ff" points="473.08,-199.98 483.63,-199.03 474.79,-193.2 473.08,-199.98"/>
</g>
<!-- Node2&#45;&gt;Node4 -->
<g id="edge16" class="edge">
<title>Node2&#45;&gt;Node4</title>
<path fill="none" stroke="#63b8ff" d="M568.99,-192.24C590.14,-175.19 621.13,-151.28 650.04,-133 679.28,-114.52 697.82,-124.31 719.04,-97 734.06,-77.67 737.51,-48.4 738.14,-30.92"/>
<polygon fill="#63b8ff" stroke="#63b8ff" points="567.12,-190.07 561.57,-199.09 571.53,-195.5 567.12,-190.07"/>
</g>
<!-- Node6 -->
<g id="node6" class="node">
<title>Node6</title>
<g id="a_node6"><a xlink:href="_sigmoid_8hpp.html" target="_top" xlink:title=" ">
<polygon fill="white" stroke="#666666" points="548.17,-97 403.92,-97 403.92,-66.5 548.17,-66.5 548.17,-97"/>
<text text-anchor="start" x="411.92" y="-83.5" font-family="Helvetica,sans-Serif" font-size="10.00">include/NNFSCore/Activation</text>
<text text-anchor="middle" x="476.04" y="-72.25" font-family="Helvetica,sans-Serif" font-size="10.00">/Sigmoid.hpp</text>
</a>
</g>
</g>
<!-- Node2&#45;&gt;Node6 -->
<g id="edge5" class="edge">
<title>Node2&#45;&gt;Node6</title>
<path fill="none" stroke="#63b8ff" d="M533.63,-189.32C527.08,-173.05 517.8,-151.38 508.04,-133 501.45,-120.58 492.83,-107.17 486.2,-97.33"/>
<polygon fill="#63b8ff" stroke="#63b8ff" points="530.58,-190.12 537.52,-198.13 537.09,-187.55 530.58,-190.12"/>
</g>
<!-- Node7 -->
<g id="node7" class="node">
<title>Node7</title>
<g id="a_node7"><a xlink:href="_softmax_8hpp.html" target="_top" xlink:title=" ">
<polygon fill="white" stroke="#666666" points="181.17,-163.5 36.92,-163.5 36.92,-133 181.17,-133 181.17,-163.5"/>
<text text-anchor="start" x="44.92" y="-150" font-family="Helvetica,sans-Serif" font-size="10.00">include/NNFSCore/Activation</text>
<text text-anchor="middle" x="109.04" y="-138.75" font-family="Helvetica,sans-Serif" font-size="10.00">/Softmax.hpp</text>
</a>
</g>
</g>
<!-- Node2&#45;&gt;Node7 -->
<g id="edge7" class="edge">
<title>Node2&#45;&gt;Node7</title>
<path fill="none" stroke="#63b8ff" d="M460.28,-201.45C379.64,-189.46 258.25,-171.42 181.37,-160"/>
<polygon fill="#63b8ff" stroke="#63b8ff" points="459.48,-205.02 469.89,-203.03 460.51,-198.09 459.48,-205.02"/>
</g>
<!-- Node10 -->
<g id="node10" class="node">
<title>Node10</title>
<g id="a_node10"><a xlink:href="_tanh_8hpp.html" target="_top" xlink:title=" ">
<polygon fill="white" stroke="#666666" points="710.17,-97 565.92,-97 565.92,-66.5 710.17,-66.5 710.17,-97"/>
<text text-anchor="start" x="573.92" y="-83.5" font-family="Helvetica,sans-Serif" font-size="10.00">include/NNFSCore/Activation</text>
<text text-anchor="middle" x="638.04" y="-72.25" font-family="Helvetica,sans-Serif" font-size="10.00">/Tanh.hpp</text>
</a>
</g>
</g>
<!-- Node2&#45;&gt;Node10 -->
<g id="edge14" class="edge">
<title>Node2&#45;&gt;Node10</title>
<path fill="none" stroke="#63b8ff" d="M559.94,-190.45C579.5,-163.48 611.1,-119.9 627.47,-97.33"/>
<polygon fill="#63b8ff" stroke="#63b8ff" points="556.61,-188.08 553.57,-198.23 562.28,-192.19 556.61,-188.08"/>
</g>
<!-- Node3&#45;&gt;Node4 -->
<g id="edge3" class="edge">
<title>Node3&#45;&gt;Node4</title>
<path fill="none" stroke="#63b8ff" d="M316.78,-126.43C329.32,-117.52 344.01,-106.9 357.04,-97 374.29,-83.9 375.19,-75.15 395.04,-66.5 486.5,-26.65 603.31,-17.34 674.31,-15.73"/>
<polygon fill="#63b8ff" stroke="#63b8ff" points="315.23,-123.95 309.09,-132.59 319.27,-129.67 315.23,-123.95"/>
</g>
<!-- Node5 -->
<g id="node5" class="node">
<title>Node5</title>
<g id="a_node5"><a xlink:href="test__activation_8cpp.html" target="_top" xlink:title=" ">
<polygon fill="white" stroke="#666666" points="170.29,-91.38 47.79,-91.38 47.79,-72.12 170.29,-72.12 170.29,-91.38"/>
<text text-anchor="middle" x="109.04" y="-77.88" font-family="Helvetica,sans-Serif" font-size="10.00">tests/test_activation.cpp</text>
</a>
</g>
</g>
<!-- Node3&#45;&gt;Node5 -->
<g id="edge4" class="edge">
<title>Node3&#45;&gt;Node5</title>
<path fill="none" stroke="#63b8ff" d="M236.59,-128.97C203.13,-116.84 160.66,-101.46 134.17,-91.85"/>
<polygon fill="#63b8ff" stroke="#63b8ff" points="235.06,-132.5 245.65,-132.61 237.44,-125.92 235.06,-132.5"/>
</g>
<!-- Node6&#45;&gt;Node4 -->
<g id="edge6" class="edge">
<title>Node6&#45;&gt;Node4</title>
<path fill="none" stroke="#63b8ff" d="M546.36,-63.44C587.64,-53.28 639.26,-40.57 678.52,-30.9"/>
<polygon fill="#63b8ff" stroke="#63b8ff" points="545.7,-60.24 536.82,-66.03 547.37,-67.04 545.7,-60.24"/>
</g>
<!-- Node7&#45;&gt;Node4 -->
<g id="edge11" class="edge">
<title>Node7&#45;&gt;Node4</title>
<path fill="none" stroke="#63b8ff" d="M71.88,-126.79C46.44,-110.25 20.41,-86.52 39.04,-66.5 60.53,-43.41 505.89,-24.76 674.29,-18.5"/>
<polygon fill="#63b8ff" stroke="#63b8ff" points="69.8,-130.24 80.14,-132.54 73.49,-124.29 69.8,-130.24"/>
</g>
<!-- Node7&#45;&gt;Node5 -->
<g id="edge12" class="edge">
<title>Node7&#45;&gt;Node5</title>
<path fill="none" stroke="#63b8ff" d="M109.04,-121.68C109.04,-111.01 109.04,-99.33 109.04,-91.57"/>
<polygon fill="#63b8ff" stroke="#63b8ff" points="105.54,-121.61 109.04,-131.61 112.54,-121.61 105.54,-121.61"/>
</g>
<!-- Node8 -->
<g id="node8" class="node">
<title>Node8</title>
<g id="a_node8"><a xlink:href="_c_c_e___softmax_8hpp.html" target="_top" xlink:title=" ">
<polygon fill="white" stroke="#666666" points="348.29,-97 225.79,-97 225.79,-66.5 348.29,-66.5 348.29,-97"/>
<text text-anchor="start" x="233.79" y="-83.5" font-family="Helvetica,sans-Serif" font-size="10.00">include/NNFSCore/Loss</text>
<text text-anchor="middle" x="287.04" y="-72.25" font-family="Helvetica,sans-Serif" font-size="10.00">/CCE_Softmax.hpp</text>
</a>
</g>
</g>
<!-- Node7&#45;&gt;Node8 -->
<g id="edge8" class="edge">
<title>Node7&#45;&gt;Node8</title>
<path fill="none" stroke="#63b8ff" d="M159.65,-128.91C187.17,-118.94 220.73,-106.78 246.5,-97.44"/>
<polygon fill="#63b8ff" stroke="#63b8ff" points="158.64,-125.92 150.43,-132.61 161.03,-132.5 158.64,-125.92"/>
</g>
<!-- Node9 -->
<g id="node9" class="node">
<title>Node9</title>
<g id="a_node9"><a xlink:href="test__loss_8cpp.html" target="_top" xlink:title=" ">
<polygon fill="white" stroke="#666666" points="247.29,-24.88 148.79,-24.88 148.79,-5.63 247.29,-5.63 247.29,-24.88"/>
<text text-anchor="middle" x="198.04" y="-11.38" font-family="Helvetica,sans-Serif" font-size="10.00">tests/test_loss.cpp</text>
</a>
</g>
</g>
<!-- Node7&#45;&gt;Node9 -->
<g id="edge13" class="edge">
<title>Node7&#45;&gt;Node9</title>
<path fill="none" stroke="#63b8ff" d="M53.89,-128.52C19.95,-113.95 -13.61,-91.96 6.04,-66.5 23.36,-44.07 97.7,-29.72 148.63,-22.32"/>
<polygon fill="#63b8ff" stroke="#63b8ff" points="52.32,-132.07 62.9,-132.62 54.97,-125.59 52.32,-132.07"/>
</g>
<!-- Node8&#45;&gt;Node4 -->
<g id="edge9" class="edge">
<title>Node8&#45;&gt;Node4</title>
<path fill="none" stroke="#63b8ff" d="M359.11,-66.98C360.09,-66.82 361.07,-66.66 362.04,-66.5 471.43,-48.81 599.44,-32.67 674.35,-23.68"/>
<polygon fill="#63b8ff" stroke="#63b8ff" points="358.66,-63.68 349.39,-68.81 359.84,-70.58 358.66,-63.68"/>
</g>
<!-- Node8&#45;&gt;Node9 -->
<g id="edge10" class="edge">
<title>Node8&#45;&gt;Node9</title>
<path fill="none" stroke="#63b8ff" d="M258.27,-59.9C242.12,-48.19 222.8,-34.19 210.48,-25.26"/>
<polygon fill="#63b8ff" stroke="#63b8ff" points="255.7,-63.08 265.85,-66.11 259.8,-57.41 255.7,-63.08"/>
</g>
<!-- Node10&#45;&gt;Node4 -->
<g id="edge15" class="edge">
<title>Node10&#45;&gt;Node4</title>
<path fill="none" stroke="#63b8ff" d="M669.62,-60.39C684.49,-50.79 701.91,-39.56 715.44,-30.83"/>
<polygon fill="#63b8ff" stroke="#63b8ff" points="668.24,-57.75 661.74,-66.11 672.04,-63.63 668.24,-57.75"/>
</g>
<!-- Node11&#45;&gt;Node4 -->
<g id="edge25" class="edge">
<title>Node11&#45;&gt;Node4</title>
<path fill="none" stroke="#63b8ff" d="M849.21,-254.77C843.58,-212.75 828.09,-127.51 790.04,-66.5 781.47,-52.76 768.34,-40.11 757.41,-30.93"/>
<polygon fill="#63b8ff" stroke="#63b8ff" points="845.86,-255.17 850.57,-264.65 852.8,-254.3 845.86,-255.17"/>
</g>
<!-- Node12 -->
<g id="node12" class="node">
<title>Node12</title>
<g id="a_node12"><a xlink:href="_loss_8hpp.html" target="_top" xlink:title=" ">
<polygon fill="white" stroke="#666666" points="824.29,-230 701.79,-230 701.79,-199.5 824.29,-199.5 824.29,-230"/>
<text text-anchor="start" x="709.79" y="-216.5" font-family="Helvetica,sans-Serif" font-size="10.00">include/NNFSCore/Loss</text>
<text text-anchor="middle" x="763.04" y="-205.25" font-family="Helvetica,sans-Serif" font-size="10.00">/Loss.hpp</text>
</a>
</g>
</g>
<!-- Node11&#45;&gt;Node12 -->
<g id="edge18" class="edge">
<title>Node11&#45;&gt;Node12</title>
<path fill="none" stroke="#63b8ff" d="M823.19,-259.34C810.12,-249.87 794.98,-238.89 783.16,-230.33"/>
<polygon fill="#63b8ff" stroke="#63b8ff" points="820.7,-262.58 830.85,-265.61 824.8,-256.91 820.7,-262.58"/>
</g>
<!-- Node15 -->
<g id="node15" class="node">
<title>Node15</title>
<g id="a_node15"><a xlink:href="_optimizer_8hpp.html" target="_top" xlink:title=" ">
<polygon fill="white" stroke="#666666" points="1183.04,-230 1041.04,-230 1041.04,-199.5 1183.04,-199.5 1183.04,-230"/>
<text text-anchor="start" x="1049.04" y="-216.5" font-family="Helvetica,sans-Serif" font-size="10.00">include/NNFSCore/Optimizer</text>
<text text-anchor="middle" x="1112.04" y="-205.25" font-family="Helvetica,sans-Serif" font-size="10.00">/Optimizer.hpp</text>
</a>
</g>
</g>
<!-- Node11&#45;&gt;Node15 -->
<g id="edge26" class="edge">
<title>Node11&#45;&gt;Node15</title>
<path fill="none" stroke="#63b8ff" d="M921.82,-262.94C962.79,-252.78 1014.01,-240.07 1052.97,-230.4"/>
<polygon fill="#63b8ff" stroke="#63b8ff" points="921.23,-259.73 912.37,-265.53 922.92,-266.52 921.23,-259.73"/>
</g>
<!-- Node20 -->
<g id="node20" class="node">
<title>Node20</title>
<g id="a_node20"><a xlink:href="test__dense_8cpp.html" target="_top" xlink:title=" ">
<polygon fill="white" stroke="#666666" points="986.42,-224.38 879.67,-224.38 879.67,-205.12 986.42,-205.12 986.42,-224.38"/>
<text text-anchor="middle" x="933.04" y="-210.88" font-family="Helvetica,sans-Serif" font-size="10.00">tests/test_dense.cpp</text>
</a>
</g>
</g>
<!-- Node11&#45;&gt;Node20 -->
<g id="edge32" class="edge">
<title>Node11&#45;&gt;Node20</title>
<path fill="none" stroke="#63b8ff" d="M878.69,-259.03C893.4,-247.32 910.88,-233.4 921.96,-224.57"/>
<polygon fill="#63b8ff" stroke="#63b8ff" points="877.07,-256.65 871.42,-265.61 881.43,-262.12 877.07,-256.65"/>
</g>
<!-- Node12&#45;&gt;Node4 -->
<g id="edge24" class="edge">
<title>Node12&#45;&gt;Node4</title>
<path fill="none" stroke="#63b8ff" d="M781.85,-190.29C787.19,-182.26 792.3,-172.92 795.04,-163.5 798.84,-150.49 797.73,-146.29 795.04,-133 787.05,-93.42 762.37,-52.11 748.24,-30.84"/>
<polygon fill="#63b8ff" stroke="#63b8ff" points="778.57,-187.86 775.61,-198.03 784.27,-191.93 778.57,-187.86"/>
</g>
<!-- Node13 -->
<g id="node13" class="node">
<title>Node13</title>
<g id="a_node13"><a xlink:href="_c_c_e_8hpp.html" target="_top" xlink:title=" ">
<polygon fill="white" stroke="#666666" points="499.29,-163.5 376.79,-163.5 376.79,-133 499.29,-133 499.29,-163.5"/>
<text text-anchor="start" x="384.79" y="-150" font-family="Helvetica,sans-Serif" font-size="10.00">include/NNFSCore/Loss</text>
<text text-anchor="middle" x="438.04" y="-138.75" font-family="Helvetica,sans-Serif" font-size="10.00">/CCE.hpp</text>
</a>
</g>
</g>
<!-- Node12&#45;&gt;Node13 -->
<g id="edge19" class="edge">
<title>Node12&#45;&gt;Node13</title>
<path fill="none" stroke="#63b8ff" d="M691.08,-199.47C633.65,-188.07 554.07,-172.28 499.58,-161.46"/>
<polygon fill="#63b8ff" stroke="#63b8ff" points="690.04,-203.03 700.53,-201.54 691.4,-196.16 690.04,-203.03"/>
</g>
<!-- Node12&#45;&gt;Node14 -->
<g id="edge22" class="edge">
<title>Node12&#45;&gt;Node14</title>
<path fill="none" stroke="#63b8ff" d="M747.99,-190.07C742.4,-181.28 736.23,-171.57 731.31,-163.83"/>
<polygon fill="#63b8ff" stroke="#63b8ff" points="745.42,-191.55 753.74,-198.11 751.33,-187.8 745.42,-191.55"/>
</g>
<!-- Node13&#45;&gt;Node8 -->
<g id="edge20" class="edge">
<title>Node13&#45;&gt;Node8</title>
<path fill="none" stroke="#63b8ff" d="M393.87,-128.38C370.77,-118.51 342.91,-106.61 321.43,-97.44"/>
<polygon fill="#63b8ff" stroke="#63b8ff" points="392.21,-131.9 402.78,-132.61 394.96,-125.47 392.21,-131.9"/>
</g>
<!-- Node13&#45;&gt;Node9 -->
<g id="edge21" class="edge">
<title>Node13&#45;&gt;Node9</title>
<path fill="none" stroke="#63b8ff" d="M365.98,-131.8C302.54,-118.06 219.79,-99.72 217.04,-97 197.42,-77.52 196.54,-41.84 197.33,-25.21"/>
<polygon fill="#63b8ff" stroke="#63b8ff" points="364.87,-135.36 375.38,-134.05 366.35,-128.52 364.87,-135.36"/>
</g>
<!-- Node14&#45;&gt;Node4 -->
<g id="edge23" class="edge">
<title>Node14&#45;&gt;Node4</title>
<path fill="none" stroke="#63b8ff" d="M739.63,-123.73C744.66,-115.68 749.47,-106.33 752.04,-97 758.32,-74.23 750.57,-47.04 744.35,-30.73"/>
<polygon fill="#63b8ff" stroke="#63b8ff" points="736.19,-121.58 733.52,-131.83 742,-125.48 736.19,-121.58"/>
</g>
<!-- Node15&#45;&gt;Node4 -->
<g id="edge27" class="edge">
<title>Node15&#45;&gt;Node4</title>
<path fill="none" stroke="#63b8ff" d="M1029.99,-200.97C982.13,-192.1 927.63,-179.09 909.04,-163.5 872.92,-133.19 900.1,-99.12 866.04,-66.5 848.37,-49.57 824.33,-38.15 801.85,-30.53"/>
<polygon fill="#63b8ff" stroke="#63b8ff" points="1029.25,-204.58 1039.71,-202.91 1030.5,-197.69 1029.25,-204.58"/>
</g>
<!-- Node16 -->
<g id="node16" class="node">
<title>Node16</title>
<g id="a_node16"><a xlink:href="_adagrad_8hpp.html" target="_top" xlink:title=" ">
<polygon fill="white" stroke="#666666" points="1380.04,-163.5 1238.04,-163.5 1238.04,-133 1380.04,-133 1380.04,-163.5"/>
<text text-anchor="start" x="1246.04" y="-150" font-family="Helvetica,sans-Serif" font-size="10.00">include/NNFSCore/Optimizer</text>
<text text-anchor="middle" x="1309.04" y="-138.75" font-family="Helvetica,sans-Serif" font-size="10.00">/Adagrad.hpp</text>
</a>
</g>
</g>
<!-- Node15&#45;&gt;Node16 -->
<g id="edge28" class="edge">
<title>Node15&#45;&gt;Node16</title>
<path fill="none" stroke="#63b8ff" d="M1166.85,-195.81C1197.52,-185.76 1235.28,-173.4 1264.18,-163.94"/>
<polygon fill="#63b8ff" stroke="#63b8ff" points="1166.16,-192.68 1157.75,-199.11 1168.34,-199.33 1166.16,-192.68"/>
</g>
<!-- Node17 -->
<g id="node17" class="node">
<title>Node17</title>
<g id="a_node17"><a xlink:href="_adam_8hpp.html" target="_top" xlink:title=" ">
<polygon fill="white" stroke="#666666" points="1540.04,-163.5 1398.04,-163.5 1398.04,-133 1540.04,-133 1540.04,-163.5"/>
<text text-anchor="start" x="1406.04" y="-150" font-family="Helvetica,sans-Serif" font-size="10.00">include/NNFSCore/Optimizer</text>
<text text-anchor="middle" x="1469.04" y="-138.75" font-family="Helvetica,sans-Serif" font-size="10.00">/Adam.hpp</text>
</a>
</g>
</g>
<!-- Node15&#45;&gt;Node17 -->
<g id="edge29" class="edge">
<title>Node15&#45;&gt;Node17</title>
<path fill="none" stroke="#63b8ff" d="M1193.88,-198.96C1255.44,-187.84 1338.96,-172.75 1397.78,-162.13"/>
<polygon fill="#63b8ff" stroke="#63b8ff" points="1193.65,-195.63 1184.43,-200.85 1194.89,-202.52 1193.65,-195.63"/>
</g>
<!-- Node18 -->
<g id="node18" class="node">
<title>Node18</title>
<g id="a_node18"><a xlink:href="_r_m_s_prop_8hpp.html" target="_top" xlink:title=" ">
<polygon fill="white" stroke="#666666" points="1060.04,-163.5 918.04,-163.5 918.04,-133 1060.04,-133 1060.04,-163.5"/>
<text text-anchor="start" x="926.04" y="-150" font-family="Helvetica,sans-Serif" font-size="10.00">include/NNFSCore/Optimizer</text>
<text text-anchor="middle" x="989.04" y="-138.75" font-family="Helvetica,sans-Serif" font-size="10.00">/RMSProp.hpp</text>
</a>
</g>
</g>
<!-- Node15&#45;&gt;Node18 -->
<g id="edge30" class="edge">
<title>Node15&#45;&gt;Node18</title>
<path fill="none" stroke="#63b8ff" d="M1074.5,-194.06C1055.92,-184.32 1033.89,-172.76 1016.84,-163.83"/>
<polygon fill="#63b8ff" stroke="#63b8ff" points="1072.65,-197.57 1083.13,-199.11 1075.9,-191.37 1072.65,-197.57"/>
</g>
<!-- Node19 -->
<g id="node19" class="node">
<title>Node19</title>
<g id="a_node19"><a xlink:href="_s_g_d_8hpp.html" target="_top" xlink:title=" ">
<polygon fill="white" stroke="#666666" points="1220.04,-163.5 1078.04,-163.5 1078.04,-133 1220.04,-133 1220.04,-163.5"/>
<text text-anchor="start" x="1086.04" y="-150" font-family="Helvetica,sans-Serif" font-size="10.00">include/NNFSCore/Optimizer</text>
<text text-anchor="middle" x="1149.04" y="-138.75" font-family="Helvetica,sans-Serif" font-size="10.00">/SGD.hpp</text>
</a>
</g>
</g>
<!-- Node15&#45;&gt;Node19 -->
<g id="edge31" class="edge">
<title>Node15&#45;&gt;Node19</title>
<path fill="none" stroke="#63b8ff" d="M1125.79,-189.79C1130.79,-181.07 1136.29,-171.49 1140.68,-163.83"/>
<polygon fill="#63b8ff" stroke="#63b8ff" points="1122.38,-187.7 1120.44,-198.11 1128.45,-191.18 1122.38,-187.7"/>
</g>
</g>
</svg>
