<?xml version="1.0" encoding="UTF-8" standalone="no"?>
<!DOCTYPE svg PUBLIC "-//W3C//DTD SVG 1.1//EN"
 "http://www.w3.org/Graphics/SVG/1.1/DTD/svg11.dtd">
<!-- Generated by graphviz version 8.0.2 (20230410.1723)
 -->
<!-- Title: include/NNFSCore/Layer/Layer.hpp Pages: 1 -->
<svg width="294pt" height="225pt"
 viewBox="0.00 0.00 294.02 225.00" xmlns="http://www.w3.org/2000/svg" xmlns:xlink="http://www.w3.org/1999/xlink">
<g id="graph0" class="graph" transform="scale(1 1) rotate(0) translate(4 221)">
<title>include/NNFSCore/Layer/Layer.hpp</title>
<!-- Node1 -->
<g id="node1" class="node">
<title>Node1</title>
<g id="a_node1"><a xlink:title=" ">
<polygon fill="#999999" stroke="#666666" points="271,-217 146,-217 146,-187 271,-187 271,-217"/>
<text text-anchor="start" x="154" y="-205" font-family="Helvetica,sans-Serif" font-size="10.00">include/NNFSCore/Layer</text>
<text text-anchor="middle" x="208.5" y="-194" font-family="Helvetica,sans-Serif" font-size="10.00">/Layer.hpp</text>
</a>
</g>
</g>
<!-- Node2 -->
<g id="node2" class="node">
<title>Node2</title>
<g id="a_node2"><a xlink:href="_dense_8hpp.html" target="_top" xlink:title=" ">
<polygon fill="white" stroke="#666666" points="126,-151 1,-151 1,-121 126,-121 126,-151"/>
<text text-anchor="start" x="9" y="-139" font-family="Helvetica,sans-Serif" font-size="10.00">include/NNFSCore/Layer</text>
<text text-anchor="middle" x="63.5" y="-128" font-family="Helvetica,sans-Serif" font-size="10.00">/Dense.hpp</text>
</a>
</g>
</g>
<!-- Node1&#45;&gt;Node2 -->
<g id="edge1" class="edge">
<title>Node1&#45;&gt;Node2</title>
<path fill="none" stroke="#63b8ff" d="M166.07,-182.27C143.77,-172.43 116.85,-160.55 96.18,-151.43"/>
<polygon fill="#63b8ff" stroke="#63b8ff" points="164.4,-185.8 174.96,-186.64 167.22,-179.4 164.4,-185.8"/>
</g>
<!-- Node5 -->
<g id="node5" class="node">
<title>Node5</title>
<g id="a_node5"><a xlink:href="_model_8hpp.html" target="_top" xlink:title=" ">
<polygon fill="white" stroke="#666666" points="272.5,-151 144.5,-151 144.5,-121 272.5,-121 272.5,-151"/>
<text text-anchor="start" x="152.5" y="-139" font-family="Helvetica,sans-Serif" font-size="10.00">include/NNFSCore/Model</text>
<text text-anchor="middle" x="208.5" y="-128" font-family="Helvetica,sans-Serif" font-size="10.00">/Model.hpp</text>
</a>
</g>
</g>
<!-- Node1&#45;&gt;Node5 -->
<g id="edge4" class="edge">
<title>Node1&#45;&gt;Node5</title>
<path fill="none" stroke="#63b8ff" d="M208.5,-175.97C208.5,-167.55 208.5,-158.45 208.5,-151.16"/>
<polygon fill="#63b8ff" stroke="#63b8ff" points="205,-175.8 208.5,-185.8 212,-175.8 205,-175.8"/>
</g>
<!-- Node6 -->
<g id="node6" class="node">
<title>Node6</title>
<g id="a_node6"><a xlink:href="_neural_network_8hpp.html" target="_top" xlink:title=" ">
<polygon fill="white" stroke="#666666" points="285.5,-85 157.5,-85 157.5,-55 285.5,-55 285.5,-85"/>
<text text-anchor="start" x="165.5" y="-73" font-family="Helvetica,sans-Serif" font-size="10.00">include/NNFSCore/Model</text>
<text text-anchor="middle" x="221.5" y="-62" font-family="Helvetica,sans-Serif" font-size="10.00">/NeuralNetwork.hpp</text>
</a>
</g>
</g>
<!-- Node1&#45;&gt;Node6 -->
<g id="edge7" class="edge">
<title>Node1&#45;&gt;Node6</title>
<path fill="none" stroke="#63b8ff" d="M252.06,-181.01C263.74,-173.37 274.94,-163.44 281.5,-151 287.72,-139.21 287.16,-133.07 281.5,-121 274.48,-106.02 260.53,-93.96 247.84,-85.44"/>
<polygon fill="#63b8ff" stroke="#63b8ff" points="250.44,-178.49 243.66,-186.64 254.04,-184.5 250.44,-178.49"/>
</g>
<!-- Node3 -->
<g id="node3" class="node">
<title>Node3</title>
<g id="a_node3"><a xlink:href="test__layer_8cpp.html" target="_top" xlink:title=" ">
<polygon fill="white" stroke="#666666" points="101,-79.5 0,-79.5 0,-60.5 101,-60.5 101,-79.5"/>
<text text-anchor="middle" x="50.5" y="-67.5" font-family="Helvetica,sans-Serif" font-size="10.00">tests/test_layer.cpp</text>
</a>
</g>
</g>
<!-- Node2&#45;&gt;Node3 -->
<g id="edge2" class="edge">
<title>Node2&#45;&gt;Node3</title>
<path fill="none" stroke="#63b8ff" d="M58.48,-110.27C56.3,-99.55 53.89,-87.7 52.3,-79.84"/>
<polygon fill="#63b8ff" stroke="#63b8ff" points="55.19,-110.69 60.61,-119.8 62.05,-109.3 55.19,-110.69"/>
</g>
<!-- Node4 -->
<g id="node4" class="node">
<title>Node4</title>
<g id="a_node4"><a xlink:href="test__neural__network_8cpp.html" target="_top" xlink:title=" ">
<polygon fill="white" stroke="#666666" points="249,-19 102,-19 102,0 249,0 249,-19"/>
<text text-anchor="middle" x="175.5" y="-7" font-family="Helvetica,sans-Serif" font-size="10.00">tests/test_neural_network.cpp</text>
</a>
</g>
</g>
<!-- Node2&#45;&gt;Node4 -->
<g id="edge3" class="edge">
<title>Node2&#45;&gt;Node4</title>
<path fill="none" stroke="#63b8ff" d="M84.31,-112.56C92.23,-103.97 101.32,-94.06 109.5,-85 130.81,-61.4 155.58,-33.24 167.83,-19.26"/>
<polygon fill="#63b8ff" stroke="#63b8ff" points="82.07,-109.91 77.86,-119.62 87.22,-114.66 82.07,-109.91"/>
</g>
<!-- Node5&#45;&gt;Node6 -->
<g id="edge5" class="edge">
<title>Node5&#45;&gt;Node6</title>
<path fill="none" stroke="#63b8ff" d="M213.53,-110.25C215.25,-101.75 217.13,-92.53 218.62,-85.16"/>
<polygon fill="#63b8ff" stroke="#63b8ff" points="209.95,-109.3 211.39,-119.8 216.81,-110.69 209.95,-109.3"/>
</g>
<!-- Node6&#45;&gt;Node4 -->
<g id="edge6" class="edge">
<title>Node6&#45;&gt;Node4</title>
<path fill="none" stroke="#63b8ff" d="M203.36,-45.93C195.97,-36.53 187.87,-26.23 182.32,-19.18"/>
<polygon fill="#63b8ff" stroke="#63b8ff" points="201.2,-47.84 210.13,-53.54 206.7,-43.52 201.2,-47.84"/>
</g>
</g>
</svg>
