<?xml version="1.0" encoding="UTF-8" standalone="no"?>
<!DOCTYPE svg PUBLIC "-//W3C//DTD SVG 1.1//EN"
 "http://www.w3.org/Graphics/SVG/1.1/DTD/svg11.dtd">
<!-- Generated by graphviz version 8.0.1 (20230327.1645)
 -->
<!-- Title: include/NNFSCore/Layer/Layer.hpp Pages: 1 -->
<svg width="335pt" height="225pt"
 viewBox="0.00 0.00 335.00 225.00" xmlns="http://www.w3.org/2000/svg" xmlns:xlink="http://www.w3.org/1999/xlink">
<g id="graph0" class="graph" transform="scale(1 1) rotate(0) translate(4 221)">
<title>include/NNFSCore/Layer/Layer.hpp</title>
<!-- Node1 -->
<g id="node1" class="node">
<title>Node1</title>
<g id="a_node1"><a xlink:title=" ">
<polygon fill="#999999" stroke="#666666" points="270,-217 145,-217 145,-187 270,-187 270,-217"/>
<text text-anchor="start" x="153" y="-205" font-family="Helvetica,sans-Serif" font-size="10.00">include/NNFSCore/Layer</text>
<text text-anchor="middle" x="207.5" y="-194" font-family="Helvetica,sans-Serif" font-size="10.00">/Layer.hpp</text>
</a>
</g>
</g>
<!-- Node2 -->
<g id="node2" class="node">
<title>Node2</title>
<g id="a_node2"><a xlink:href="_dense_8hpp.html" target="_top" xlink:title=" ">
<polygon fill="white" stroke="#666666" points="125,-151 0,-151 0,-121 125,-121 125,-151"/>
<text text-anchor="start" x="8" y="-139" font-family="Helvetica,sans-Serif" font-size="10.00">include/NNFSCore/Layer</text>
<text text-anchor="middle" x="62.5" y="-128" font-family="Helvetica,sans-Serif" font-size="10.00">/Dense.hpp</text>
</a>
</g>
</g>
<!-- Node1&#45;&gt;Node2 -->
<g id="edge1" class="edge">
<title>Node1&#45;&gt;Node2</title>
<path fill="none" stroke="#63b8ff" d="M165.07,-182.27C142.77,-172.43 115.85,-160.55 95.18,-151.43"/>
<polygon fill="#63b8ff" stroke="#63b8ff" points="163.4,-185.8 173.96,-186.64 166.22,-179.4 163.4,-185.8"/>
</g>
<!-- Node4 -->
<g id="node4" class="node">
<title>Node4</title>
<g id="a_node4"><a xlink:href="_model_8hpp.html" target="_top" xlink:title=" ">
<polygon fill="white" stroke="#666666" points="271.5,-151 143.5,-151 143.5,-121 271.5,-121 271.5,-151"/>
<text text-anchor="start" x="151.5" y="-139" font-family="Helvetica,sans-Serif" font-size="10.00">include/NNFSCore/Model</text>
<text text-anchor="middle" x="207.5" y="-128" font-family="Helvetica,sans-Serif" font-size="10.00">/Model.hpp</text>
</a>
</g>
</g>
<!-- Node1&#45;&gt;Node4 -->
<g id="edge3" class="edge">
<title>Node1&#45;&gt;Node4</title>
<path fill="none" stroke="#63b8ff" d="M207.5,-175.97C207.5,-167.55 207.5,-158.45 207.5,-151.16"/>
<polygon fill="#63b8ff" stroke="#63b8ff" points="204,-175.8 207.5,-185.8 211,-175.8 204,-175.8"/>
</g>
<!-- Node5 -->
<g id="node5" class="node">
<title>Node5</title>
<g id="a_node5"><a xlink:href="_neural_network_8hpp.html" target="_top" xlink:title=" ">
<polygon fill="white" stroke="#666666" points="317.5,-85 189.5,-85 189.5,-55 317.5,-55 317.5,-85"/>
<text text-anchor="start" x="197.5" y="-73" font-family="Helvetica,sans-Serif" font-size="10.00">include/NNFSCore/Model</text>
<text text-anchor="middle" x="253.5" y="-62" font-family="Helvetica,sans-Serif" font-size="10.00">/NeuralNetwork.hpp</text>
</a>
</g>
</g>
<!-- Node1&#45;&gt;Node5 -->
<g id="edge6" class="edge">
<title>Node1&#45;&gt;Node5</title>
<path fill="none" stroke="#63b8ff" d="M251.06,-181.01C262.74,-173.37 273.94,-163.44 280.5,-151 291.92,-129.34 276.95,-101.9 265.16,-85.43"/>
<polygon fill="#63b8ff" stroke="#63b8ff" points="249.44,-178.49 242.66,-186.64 253.04,-184.5 249.44,-178.49"/>
</g>
<!-- Node3 -->
<g id="node3" class="node">
<title>Node3</title>
<g id="a_node3"><a xlink:href="test__layer_8cpp.html" target="_top" xlink:title=" ">
<polygon fill="white" stroke="#666666" points="113,-79.5 12,-79.5 12,-60.5 113,-60.5 113,-79.5"/>
<text text-anchor="middle" x="62.5" y="-67.5" font-family="Helvetica,sans-Serif" font-size="10.00">tests/test_layer.cpp</text>
</a>
</g>
</g>
<!-- Node2&#45;&gt;Node3 -->
<g id="edge2" class="edge">
<title>Node2&#45;&gt;Node3</title>
<path fill="none" stroke="#63b8ff" d="M62.5,-109.93C62.5,-99.31 62.5,-87.61 62.5,-79.84"/>
<polygon fill="#63b8ff" stroke="#63b8ff" points="59,-109.8 62.5,-119.8 66,-109.8 59,-109.8"/>
</g>
<!-- Node4&#45;&gt;Node5 -->
<g id="edge4" class="edge">
<title>Node4&#45;&gt;Node5</title>
<path fill="none" stroke="#63b8ff" d="M224.06,-111.96C230.5,-103 237.67,-93.03 243.32,-85.16"/>
<polygon fill="#63b8ff" stroke="#63b8ff" points="220.7,-109.63 217.71,-119.8 226.39,-113.72 220.7,-109.63"/>
</g>
<!-- Node6 -->
<g id="node6" class="node">
<title>Node6</title>
<g id="a_node6"><a xlink:href="test__neural__network_8cpp.html" target="_top" xlink:title=" ">
<polygon fill="white" stroke="#666666" points="327,-19 180,-19 180,0 327,0 327,-19"/>
<text text-anchor="middle" x="253.5" y="-7" font-family="Helvetica,sans-Serif" font-size="10.00">tests/test_neural_network.cpp</text>
</a>
</g>
</g>
<!-- Node5&#45;&gt;Node6 -->
<g id="edge5" class="edge">
<title>Node5&#45;&gt;Node6</title>
<path fill="none" stroke="#63b8ff" d="M253.5,-43.59C253.5,-34.85 253.5,-25.65 253.5,-19.18"/>
<polygon fill="#63b8ff" stroke="#63b8ff" points="250,-43.54 253.5,-53.54 257,-43.54 250,-43.54"/>
</g>
</g>
</svg>
