<?xml version="1.0" encoding="UTF-8" standalone="no"?>
<!DOCTYPE svg PUBLIC "-//W3C//DTD SVG 1.1//EN"
 "http://www.w3.org/Graphics/SVG/1.1/DTD/svg11.dtd">
<!-- Generated by graphviz version 8.0.5 (20230430.1635)
 -->
<!-- Title: include/NNFS/Layer/Layer.hpp Pages: 1 -->
<svg width="1384pt" height="371pt"
 viewBox="0.00 0.00 1383.88 371.00" xmlns="http://www.w3.org/2000/svg" xmlns:xlink="http://www.w3.org/1999/xlink">
<g id="graph0" class="graph" transform="scale(1 1) rotate(0) translate(4 367)">
<title>include/NNFS/Layer/Layer.hpp</title>
<!-- Node1 -->
<g id="node1" class="node">
<title>Node1</title>
<g id="a_node1"><a xlink:title=" ">
<polygon fill="#999999" stroke="#666666" points="833.42,-363 728.92,-363 728.92,-332.5 833.42,-332.5 833.42,-363"/>
<text text-anchor="start" x="736.92" y="-349.5" font-family="Helvetica,sans-Serif" font-size="10.00">include/NNFS/Layer</text>
<text text-anchor="middle" x="781.17" y="-338.25" font-family="Helvetica,sans-Serif" font-size="10.00">/Layer.hpp</text>
</a>
</g>
</g>
<!-- Node2 -->
<g id="node2" class="node">
<title>Node2</title>
<g id="a_node2"><a xlink:href="_activation_8hpp.html" target="_top" xlink:title=" ">
<polygon fill="white" stroke="#666666" points="327.17,-230 203.17,-230 203.17,-199.5 327.17,-199.5 327.17,-230"/>
<text text-anchor="start" x="211.17" y="-216.5" font-family="Helvetica,sans-Serif" font-size="10.00">include/NNFS/Activation</text>
<text text-anchor="middle" x="265.17" y="-205.25" font-family="Helvetica,sans-Serif" font-size="10.00">/Activation.hpp</text>
</a>
</g>
</g>
<!-- Node1&#45;&gt;Node2 -->
<g id="edge1" class="edge">
<title>Node1&#45;&gt;Node2</title>
<path fill="none" stroke="#63b8ff" d="M718.21,-330.77C617.29,-305.15 420.77,-255.25 323.12,-230.46"/>
<polygon fill="#63b8ff" stroke="#63b8ff" points="717.3,-334.4 727.85,-333.47 719.02,-327.61 717.3,-334.4"/>
</g>
<!-- Node4 -->
<g id="node4" class="node">
<title>Node4</title>
<g id="a_node4"><a xlink:href="_neural_network_8hpp.html" target="_top" xlink:title=" ">
<polygon fill="white" stroke="#666666" points="557.54,-30.5 450.79,-30.5 450.79,0 557.54,0 557.54,-30.5"/>
<text text-anchor="start" x="458.79" y="-17" font-family="Helvetica,sans-Serif" font-size="10.00">include/NNFS/Model</text>
<text text-anchor="middle" x="504.17" y="-5.75" font-family="Helvetica,sans-Serif" font-size="10.00">/NeuralNetwork.hpp</text>
</a>
</g>
</g>
<!-- Node1&#45;&gt;Node4 -->
<g id="edge28" class="edge">
<title>Node1&#45;&gt;Node4</title>
<path fill="none" stroke="#63b8ff" d="M717.59,-342.75C531.69,-330.2 2.17,-288.11 2.17,-215.75 2.17,-215.75 2.17,-215.75 2.17,-147.25 2.17,-110.38 -6.51,-90.86 21.17,-66.5 52.89,-38.58 331.2,-23.57 450.38,-18.37"/>
<polygon fill="#63b8ff" stroke="#63b8ff" points="717.33,-346.3 727.54,-343.48 717.8,-339.32 717.33,-346.3"/>
</g>
<!-- Node9 -->
<g id="node9" class="node">
<title>Node9</title>
<g id="a_node9"><a xlink:href="_dense_8hpp.html" target="_top" xlink:title=" ">
<polygon fill="white" stroke="#666666" points="1035.42,-296.5 930.92,-296.5 930.92,-266 1035.42,-266 1035.42,-296.5"/>
<text text-anchor="start" x="938.92" y="-283" font-family="Helvetica,sans-Serif" font-size="10.00">include/NNFS/Layer</text>
<text text-anchor="middle" x="983.17" y="-271.75" font-family="Helvetica,sans-Serif" font-size="10.00">/Dense.hpp</text>
</a>
</g>
</g>
<!-- Node1&#45;&gt;Node9 -->
<g id="edge13" class="edge">
<title>Node1&#45;&gt;Node9</title>
<path fill="none" stroke="#63b8ff" d="M837.62,-328.72C869.07,-318.68 907.71,-306.34 937.28,-296.9"/>
<polygon fill="#63b8ff" stroke="#63b8ff" points="836.72,-325.66 828.26,-332.03 838.85,-332.33 836.72,-325.66"/>
</g>
<!-- Node12 -->
<g id="node12" class="node">
<title>Node12</title>
<g id="a_node12"><a xlink:href="_model_8hpp.html" target="_top" xlink:title=" ">
<polygon fill="white" stroke="#666666" points="1356.54,-163.5 1249.79,-163.5 1249.79,-133 1356.54,-133 1356.54,-163.5"/>
<text text-anchor="start" x="1257.79" y="-150" font-family="Helvetica,sans-Serif" font-size="10.00">include/NNFS/Model</text>
<text text-anchor="middle" x="1303.17" y="-138.75" font-family="Helvetica,sans-Serif" font-size="10.00">/Model.hpp</text>
</a>
</g>
</g>
<!-- Node1&#45;&gt;Node12 -->
<g id="edge27" class="edge">
<title>Node1&#45;&gt;Node12</title>
<path fill="none" stroke="#63b8ff" d="M844.62,-347.02C942.66,-344.24 1132.34,-325.74 1254.17,-230 1276.35,-212.57 1290.84,-182.11 1297.97,-164"/>
<polygon fill="#63b8ff" stroke="#63b8ff" points="844.62,-343.55 834.71,-347.28 844.79,-350.54 844.62,-343.55"/>
</g>
<!-- Node3 -->
<g id="node3" class="node">
<title>Node3</title>
<g id="a_node3"><a xlink:href="_re_l_u_8hpp.html" target="_top" xlink:title=" ">
<polygon fill="white" stroke="#666666" points="296.17,-97 172.17,-97 172.17,-66.5 296.17,-66.5 296.17,-97"/>
<text text-anchor="start" x="180.17" y="-83.5" font-family="Helvetica,sans-Serif" font-size="10.00">include/NNFS/Activation</text>
<text text-anchor="middle" x="234.17" y="-72.25" font-family="Helvetica,sans-Serif" font-size="10.00">/ReLU.hpp</text>
</a>
</g>
</g>
<!-- Node2&#45;&gt;Node3 -->
<g id="edge2" class="edge">
<title>Node2&#45;&gt;Node3</title>
<path fill="none" stroke="#63b8ff" d="M245.78,-190.36C240.27,-182.34 235.01,-172.99 232.17,-163.5 225.5,-141.2 228.32,-113.87 231.13,-97.4"/>
<polygon fill="#63b8ff" stroke="#63b8ff" points="243.47,-192.13 252.22,-198.09 249.1,-187.97 243.47,-192.13"/>
</g>
<!-- Node2&#45;&gt;Node4 -->
<g id="edge12" class="edge">
<title>Node2&#45;&gt;Node4</title>
<path fill="none" stroke="#63b8ff" d="M270.81,-188.76C276.17,-170.7 286.02,-147.09 303.17,-133 354.13,-91.11 392.74,-134.28 447.17,-97 471.66,-80.22 489.08,-49.24 497.8,-30.92"/>
<polygon fill="#63b8ff" stroke="#63b8ff" points="267.23,-187.59 268.03,-198.16 274,-189.4 267.23,-187.59"/>
</g>
<!-- Node5 -->
<g id="node5" class="node">
<title>Node5</title>
<g id="a_node5"><a xlink:href="_sigmoid_8hpp.html" target="_top" xlink:title=" ">
<polygon fill="white" stroke="#666666" points="438.17,-97 314.17,-97 314.17,-66.5 438.17,-66.5 438.17,-97"/>
<text text-anchor="start" x="322.17" y="-83.5" font-family="Helvetica,sans-Serif" font-size="10.00">include/NNFS/Activation</text>
<text text-anchor="middle" x="376.17" y="-72.25" font-family="Helvetica,sans-Serif" font-size="10.00">/Sigmoid.hpp</text>
</a>
</g>
</g>
<!-- Node2&#45;&gt;Node5 -->
<g id="edge4" class="edge">
<title>Node2&#45;&gt;Node5</title>
<path fill="none" stroke="#63b8ff" d="M260.46,-188.37C258.7,-171.3 259.3,-149.07 270.17,-133 281.47,-116.3 299.88,-105 318.22,-97.43"/>
<polygon fill="#63b8ff" stroke="#63b8ff" points="257.12,-188.8 261.95,-198.23 264.05,-187.84 257.12,-188.8"/>
</g>
<!-- Node6 -->
<g id="node6" class="node">
<title>Node6</title>
<g id="a_node6"><a xlink:href="_softmax_8hpp.html" target="_top" xlink:title=" ">
<polygon fill="white" stroke="#666666" points="436.17,-163.5 312.17,-163.5 312.17,-133 436.17,-133 436.17,-163.5"/>
<text text-anchor="start" x="320.17" y="-150" font-family="Helvetica,sans-Serif" font-size="10.00">include/NNFS/Activation</text>
<text text-anchor="middle" x="374.17" y="-138.75" font-family="Helvetica,sans-Serif" font-size="10.00">/Softmax.hpp</text>
</a>
</g>
</g>
<!-- Node2&#45;&gt;Node6 -->
<g id="edge6" class="edge">
<title>Node2&#45;&gt;Node6</title>
<path fill="none" stroke="#63b8ff" d="M299.12,-193.66C315.44,-184 334.64,-172.64 349.53,-163.83"/>
<polygon fill="#63b8ff" stroke="#63b8ff" points="297.73,-191.01 290.9,-199.11 301.29,-197.03 297.73,-191.01"/>
</g>
<!-- Node8 -->
<g id="node8" class="node">
<title>Node8</title>
<g id="a_node8"><a xlink:href="_tanh_8hpp.html" target="_top" xlink:title=" ">
<polygon fill="white" stroke="#666666" points="154.17,-97 30.17,-97 30.17,-66.5 154.17,-66.5 154.17,-97"/>
<text text-anchor="start" x="38.17" y="-83.5" font-family="Helvetica,sans-Serif" font-size="10.00">include/NNFS/Activation</text>
<text text-anchor="middle" x="92.17" y="-72.25" font-family="Helvetica,sans-Serif" font-size="10.00">/Tanh.hpp</text>
</a>
</g>
</g>
<!-- Node2&#45;&gt;Node8 -->
<g id="edge10" class="edge">
<title>Node2&#45;&gt;Node8</title>
<path fill="none" stroke="#63b8ff" d="M237.6,-192.87C202.33,-166.16 142.14,-120.59 111.43,-97.33"/>
<polygon fill="#63b8ff" stroke="#63b8ff" points="234.91,-195.98 244.99,-199.23 239.13,-190.4 234.91,-195.98"/>
</g>
<!-- Node3&#45;&gt;Node4 -->
<g id="edge3" class="edge">
<title>Node3&#45;&gt;Node4</title>
<path fill="none" stroke="#63b8ff" d="M306.43,-63.49C351.79,-52.65 409.3,-38.91 450.59,-29.05"/>
<polygon fill="#63b8ff" stroke="#63b8ff" points="305.69,-60.31 296.77,-66.03 307.31,-67.11 305.69,-60.31"/>
</g>
<!-- Node5&#45;&gt;Node4 -->
<g id="edge5" class="edge">
<title>Node5&#45;&gt;Node4</title>
<path fill="none" stroke="#63b8ff" d="M414.97,-61.2C434.36,-51.43 457.42,-39.81 475.24,-30.83"/>
<polygon fill="#63b8ff" stroke="#63b8ff" points="413.57,-58.49 406.21,-66.11 416.72,-64.74 413.57,-58.49"/>
</g>
<!-- Node6&#45;&gt;Node4 -->
<g id="edge9" class="edge">
<title>Node6&#45;&gt;Node4</title>
<path fill="none" stroke="#63b8ff" d="M436.26,-128.26C452.42,-120.75 468.54,-110.57 480.17,-97 496.44,-78.01 501.68,-48.36 503.37,-30.76"/>
<polygon fill="#63b8ff" stroke="#63b8ff" points="435.02,-125.41 427.23,-132.59 437.8,-131.84 435.02,-125.41"/>
</g>
<!-- Node7 -->
<g id="node7" class="node">
<title>Node7</title>
<g id="a_node7"><a xlink:href="_c_c_e___softmax_8hpp.html" target="_top" xlink:title=" ">
<polygon fill="white" stroke="#666666" points="1176.54,-97 1051.79,-97 1051.79,-66.5 1176.54,-66.5 1176.54,-97"/>
<text text-anchor="start" x="1059.79" y="-83.5" font-family="Helvetica,sans-Serif" font-size="10.00">include/NNFS/Loss/CCE</text>
<text text-anchor="middle" x="1114.17" y="-72.25" font-family="Helvetica,sans-Serif" font-size="10.00">_Softmax.hpp</text>
</a>
</g>
</g>
<!-- Node6&#45;&gt;Node7 -->
<g id="edge7" class="edge">
<title>Node6&#45;&gt;Node7</title>
<path fill="none" stroke="#63b8ff" d="M447.27,-132.83C675.28,-102.12 934.8,-89.41 1051.64,-84.88"/>
<polygon fill="#63b8ff" stroke="#63b8ff" points="446.87,-129.48 437.43,-134.3 447.81,-136.42 446.87,-129.48"/>
</g>
<!-- Node7&#45;&gt;Node4 -->
<g id="edge8" class="edge">
<title>Node7&#45;&gt;Node4</title>
<path fill="none" stroke="#63b8ff" d="M1041.07,-66.92C1040.09,-66.77 1039.13,-66.63 1038.17,-66.5 863.2,-41.92 654.23,-26.17 557.79,-19.66"/>
<polygon fill="#63b8ff" stroke="#63b8ff" points="1040.2,-70.48 1050.62,-68.55 1041.27,-63.56 1040.2,-70.48"/>
</g>
<!-- Node8&#45;&gt;Node4 -->
<g id="edge11" class="edge">
<title>Node8&#45;&gt;Node4</title>
<path fill="none" stroke="#63b8ff" d="M165.13,-66.21C272.03,-47.83 385.47,-32 450.58,-23.27"/>
<polygon fill="#63b8ff" stroke="#63b8ff" points="164.73,-62.9 155.47,-68.06 165.92,-69.8 164.73,-62.9"/>
</g>
<!-- Node9&#45;&gt;Node4 -->
<g id="edge20" class="edge">
<title>Node9&#45;&gt;Node4</title>
<path fill="none" stroke="#63b8ff" d="M1046.42,-280.08C1170.97,-277.08 1430.51,-256.3 1365.17,-133 1340.52,-86.49 1316.95,-83.61 1267.17,-66.5 1135.74,-21.34 708.91,-16.44 557.8,-16.15"/>
<polygon fill="#63b8ff" stroke="#63b8ff" points="1046.45,-276.59 1036.52,-280.3 1046.59,-283.59 1046.45,-276.59"/>
</g>
<!-- Node10 -->
<g id="node10" class="node">
<title>Node10</title>
<g id="a_node10"><a xlink:href="_loss_8hpp.html" target="_top" xlink:title=" ">
<polygon fill="white" stroke="#666666" points="1244.67,-224.38 1099.67,-224.38 1099.67,-205.12 1244.67,-205.12 1244.67,-224.38"/>
<text text-anchor="middle" x="1172.17" y="-210.88" font-family="Helvetica,sans-Serif" font-size="10.00">include/NNFS/Loss/Loss.hpp</text>
</a>
</g>
</g>
<!-- Node9&#45;&gt;Node10 -->
<g id="edge14" class="edge">
<title>Node9&#45;&gt;Node10</title>
<path fill="none" stroke="#63b8ff" d="M1036.29,-262.12C1071.88,-249.98 1117.24,-234.5 1145.49,-224.85"/>
<polygon fill="#63b8ff" stroke="#63b8ff" points="1035.39,-259.07 1027.06,-265.61 1037.65,-265.7 1035.39,-259.07"/>
</g>
<!-- Node13 -->
<g id="node13" class="node">
<title>Node13</title>
<g id="a_node13"><a xlink:href="_optimizer_8hpp.html" target="_top" xlink:title=" ">
<polygon fill="white" stroke="#666666" points="926.04,-230 804.29,-230 804.29,-199.5 926.04,-199.5 926.04,-230"/>
<text text-anchor="start" x="812.29" y="-216.5" font-family="Helvetica,sans-Serif" font-size="10.00">include/NNFS/Optimizer</text>
<text text-anchor="middle" x="865.17" y="-205.25" font-family="Helvetica,sans-Serif" font-size="10.00">/Optimizer.hpp</text>
</a>
</g>
</g>
<!-- Node9&#45;&gt;Node13 -->
<g id="edge21" class="edge">
<title>Node9&#45;&gt;Node13</title>
<path fill="none" stroke="#63b8ff" d="M946.91,-260.43C929.13,-250.71 908.11,-239.22 891.84,-230.33"/>
<polygon fill="#63b8ff" stroke="#63b8ff" points="944.94,-263.89 955.39,-265.61 948.3,-257.75 944.94,-263.89"/>
</g>
<!-- Node10&#45;&gt;Node4 -->
<g id="edge19" class="edge">
<title>Node10&#45;&gt;Node4</title>
<path fill="none" stroke="#63b8ff" d="M1186.24,-196.35C1192.76,-187.16 1199.81,-175.36 1203.17,-163.5 1215.13,-121.32 1218.98,-94.41 1185.17,-66.5 1137.2,-26.9 710.17,-18.46 557.85,-16.7"/>
<polygon fill="#63b8ff" stroke="#63b8ff" points="1183.04,-193.77 1179.81,-203.86 1188.63,-197.99 1183.04,-193.77"/>
</g>
<!-- Node11 -->
<g id="node11" class="node">
<title>Node11</title>
<g id="a_node11"><a xlink:href="_c_c_e_8hpp.html" target="_top" xlink:title=" ">
<polygon fill="white" stroke="#666666" points="1194.54,-157.88 1051.79,-157.88 1051.79,-138.62 1194.54,-138.62 1194.54,-157.88"/>
<text text-anchor="middle" x="1123.17" y="-144.38" font-family="Helvetica,sans-Serif" font-size="10.00">include/NNFS/Loss/CCE.hpp</text>
</a>
</g>
</g>
<!-- Node10&#45;&gt;Node11 -->
<g id="edge15" class="edge">
<title>Node10&#45;&gt;Node11</title>
<path fill="none" stroke="#63b8ff" d="M1158.86,-196.23C1149.5,-183.91 1137.36,-167.93 1129.92,-158.14"/>
<polygon fill="#63b8ff" stroke="#63b8ff" points="1156.52,-197.94 1165.36,-203.78 1162.09,-193.7 1156.52,-197.94"/>
</g>
<!-- Node10&#45;&gt;Node12 -->
<g id="edge17" class="edge">
<title>Node10&#45;&gt;Node12</title>
<path fill="none" stroke="#63b8ff" d="M1200.26,-199.92C1221.88,-189.27 1251.69,-174.59 1273.67,-163.78"/>
<polygon fill="#63b8ff" stroke="#63b8ff" points="1199.09,-197.09 1191.66,-204.65 1202.18,-203.37 1199.09,-197.09"/>
</g>
<!-- Node11&#45;&gt;Node7 -->
<g id="edge16" class="edge">
<title>Node11&#45;&gt;Node7</title>
<path fill="none" stroke="#63b8ff" d="M1120.42,-127.52C1119.05,-117.7 1117.42,-106.05 1116.17,-97.09"/>
<polygon fill="#63b8ff" stroke="#63b8ff" points="1117.07,-127.86 1121.92,-137.28 1124,-126.89 1117.07,-127.86"/>
</g>
<!-- Node12&#45;&gt;Node4 -->
<g id="edge18" class="edge">
<title>Node12&#45;&gt;Node4</title>
<path fill="none" stroke="#63b8ff" d="M1290.54,-123.28C1279.11,-104.26 1260.36,-78.89 1236.17,-66.5 1176.29,-35.83 716.78,-21.56 557.96,-17.51"/>
<polygon fill="#63b8ff" stroke="#63b8ff" points="1287.99,-124.86 1295.99,-131.8 1294.06,-121.38 1287.99,-124.86"/>
</g>
<!-- Node13&#45;&gt;Node4 -->
<g id="edge22" class="edge">
<title>Node13&#45;&gt;Node4</title>
<path fill="none" stroke="#63b8ff" d="M936.89,-198.98C983.09,-186.13 1030.23,-164.57 1005.17,-133 949.64,-63.05 675.09,-31.14 557.63,-20.52"/>
<polygon fill="#63b8ff" stroke="#63b8ff" points="936.22,-195.8 927.45,-201.75 938.02,-202.57 936.22,-195.8"/>
</g>
<!-- Node14 -->
<g id="node14" class="node">
<title>Node14</title>
<g id="a_node14"><a xlink:href="_adagrad_8hpp.html" target="_top" xlink:title=" ">
<polygon fill="white" stroke="#666666" points="576.04,-163.5 454.29,-163.5 454.29,-133 576.04,-133 576.04,-163.5"/>
<text text-anchor="start" x="462.29" y="-150" font-family="Helvetica,sans-Serif" font-size="10.00">include/NNFS/Optimizer</text>
<text text-anchor="middle" x="515.17" y="-138.75" font-family="Helvetica,sans-Serif" font-size="10.00">/Adagrad.hpp</text>
</a>
</g>
</g>
<!-- Node13&#45;&gt;Node14 -->
<g id="edge23" class="edge">
<title>Node13&#45;&gt;Node14</title>
<path fill="none" stroke="#63b8ff" d="M793.28,-201.32C736.67,-191.42 655.8,-177.03 585.17,-163.5 582.25,-162.94 579.26,-162.36 576.24,-161.77"/>
<polygon fill="#63b8ff" stroke="#63b8ff" points="792.46,-204.91 802.92,-203.18 793.67,-198.01 792.46,-204.91"/>
</g>
<!-- Node15 -->
<g id="node15" class="node">
<title>Node15</title>
<g id="a_node15"><a xlink:href="_adam_8hpp.html" target="_top" xlink:title=" ">
<polygon fill="white" stroke="#666666" points="716.04,-163.5 594.29,-163.5 594.29,-133 716.04,-133 716.04,-163.5"/>
<text text-anchor="start" x="602.29" y="-150" font-family="Helvetica,sans-Serif" font-size="10.00">include/NNFS/Optimizer</text>
<text text-anchor="middle" x="655.17" y="-138.75" font-family="Helvetica,sans-Serif" font-size="10.00">/Adam.hpp</text>
</a>
</g>
</g>
<!-- Node13&#45;&gt;Node15 -->
<g id="edge24" class="edge">
<title>Node13&#45;&gt;Node15</title>
<path fill="none" stroke="#63b8ff" d="M806.91,-195.85C774.14,-185.79 733.75,-173.39 702.88,-163.9"/>
<polygon fill="#63b8ff" stroke="#63b8ff" points="805.67,-199.44 816.25,-199.03 807.72,-192.75 805.67,-199.44"/>
</g>
<!-- Node16 -->
<g id="node16" class="node">
<title>Node16</title>
<g id="a_node16"><a xlink:href="_r_m_s_prop_8hpp.html" target="_top" xlink:title=" ">
<polygon fill="white" stroke="#666666" points="856.04,-163.5 734.29,-163.5 734.29,-133 856.04,-133 856.04,-163.5"/>
<text text-anchor="start" x="742.29" y="-150" font-family="Helvetica,sans-Serif" font-size="10.00">include/NNFS/Optimizer</text>
<text text-anchor="middle" x="795.17" y="-138.75" font-family="Helvetica,sans-Serif" font-size="10.00">/RMSProp.hpp</text>
</a>
</g>
</g>
<!-- Node13&#45;&gt;Node16 -->
<g id="edge25" class="edge">
<title>Node13&#45;&gt;Node16</title>
<path fill="none" stroke="#63b8ff" d="M841.28,-191.74C831.28,-182.53 819.93,-172.06 810.99,-163.83"/>
<polygon fill="#63b8ff" stroke="#63b8ff" points="838.56,-193.91 848.29,-198.11 843.3,-188.76 838.56,-193.91"/>
</g>
<!-- Node17 -->
<g id="node17" class="node">
<title>Node17</title>
<g id="a_node17"><a xlink:href="_s_g_d_8hpp.html" target="_top" xlink:title=" ">
<polygon fill="white" stroke="#666666" points="996.04,-163.5 874.29,-163.5 874.29,-133 996.04,-133 996.04,-163.5"/>
<text text-anchor="start" x="882.29" y="-150" font-family="Helvetica,sans-Serif" font-size="10.00">include/NNFS/Optimizer</text>
<text text-anchor="middle" x="935.17" y="-138.75" font-family="Helvetica,sans-Serif" font-size="10.00">/SGD.hpp</text>
</a>
</g>
</g>
<!-- Node13&#45;&gt;Node17 -->
<g id="edge26" class="edge">
<title>Node13&#45;&gt;Node17</title>
<path fill="none" stroke="#63b8ff" d="M889.05,-191.74C899.06,-182.53 910.41,-172.06 919.35,-163.83"/>
<polygon fill="#63b8ff" stroke="#63b8ff" points="887.04,-188.76 882.05,-198.11 891.78,-193.91 887.04,-188.76"/>
</g>
</g>
</svg>
