<?xml version="1.0" encoding="UTF-8" standalone="no"?>
<!DOCTYPE svg PUBLIC "-//W3C//DTD SVG 1.1//EN"
 "http://www.w3.org/Graphics/SVG/1.1/DTD/svg11.dtd">
<!-- Generated by graphviz version 8.0.5 (20230430.1635)
 -->
<!-- Title: include/NNFSCore/Layer/Layer.hpp Pages: 1 -->
<svg width="1706pt" height="371pt"
 viewBox="0.00 0.00 1706.12 371.00" xmlns="http://www.w3.org/2000/svg" xmlns:xlink="http://www.w3.org/1999/xlink">
<g id="graph0" class="graph" transform="scale(1 1) rotate(0) translate(4 367)">
<title>include/NNFSCore/Layer/Layer.hpp</title>
<!-- Node1 -->
<g id="node1" class="node">
<title>Node1</title>
<g id="a_node1"><a xlink:title=" ">
<polygon fill="#999999" stroke="#666666" points="1099.5,-363 974.75,-363 974.75,-332.5 1099.5,-332.5 1099.5,-363"/>
<text text-anchor="start" x="982.75" y="-349.5" font-family="Helvetica,sans-Serif" font-size="10.00">include/NNFSCore/Layer</text>
<text text-anchor="middle" x="1037.12" y="-338.25" font-family="Helvetica,sans-Serif" font-size="10.00">/Layer.hpp</text>
</a>
</g>
</g>
<!-- Node2 -->
<g id="node2" class="node">
<title>Node2</title>
<g id="a_node2"><a xlink:href="_activation_8hpp.html" target="_top" xlink:title=" ">
<polygon fill="white" stroke="#666666" points="468.25,-230 324,-230 324,-199.5 468.25,-199.5 468.25,-230"/>
<text text-anchor="start" x="332" y="-216.5" font-family="Helvetica,sans-Serif" font-size="10.00">include/NNFSCore/Activation</text>
<text text-anchor="middle" x="396.12" y="-205.25" font-family="Helvetica,sans-Serif" font-size="10.00">/Activation.hpp</text>
</a>
</g>
</g>
<!-- Node1&#45;&gt;Node2 -->
<g id="edge1" class="edge">
<title>Node1&#45;&gt;Node2</title>
<path fill="none" stroke="#63b8ff" d="M964.01,-331.81C840.32,-306.53 591.28,-255.63 468.26,-230.49"/>
<polygon fill="#63b8ff" stroke="#63b8ff" points="963,-335.38 973.5,-333.95 964.4,-328.52 963,-335.38"/>
</g>
<!-- Node8 -->
<g id="node8" class="node">
<title>Node8</title>
<g id="a_node8"><a xlink:href="_neural_network_8hpp.html" target="_top" xlink:title=" ">
<polygon fill="white" stroke="#666666" points="1346.62,-30.5 1219.62,-30.5 1219.62,0 1346.62,0 1346.62,-30.5"/>
<text text-anchor="start" x="1227.62" y="-17" font-family="Helvetica,sans-Serif" font-size="10.00">include/NNFSCore/Model</text>
<text text-anchor="middle" x="1283.12" y="-5.75" font-family="Helvetica,sans-Serif" font-size="10.00">/NeuralNetwork.hpp</text>
</a>
</g>
</g>
<!-- Node1&#45;&gt;Node8 -->
<g id="edge29" class="edge">
<title>Node1&#45;&gt;Node8</title>
<path fill="none" stroke="#63b8ff" d="M1110.91,-347.5C1283.32,-347.26 1698.12,-334.38 1698.12,-215.75 1698.12,-215.75 1698.12,-215.75 1698.12,-147.25 1698.12,-96.42 1662.52,-89.37 1617.12,-66.5 1571.04,-43.29 1430.45,-28.24 1347.09,-21.1"/>
<polygon fill="#63b8ff" stroke="#63b8ff" points="1110.91,-344 1100.91,-347.5 1110.91,-351 1110.91,-344"/>
</g>
<!-- Node11 -->
<g id="node11" class="node">
<title>Node11</title>
<g id="a_node11"><a xlink:href="_dense_8hpp.html" target="_top" xlink:title=" ">
<polygon fill="white" stroke="#666666" points="1175.5,-296.5 1050.75,-296.5 1050.75,-266 1175.5,-266 1175.5,-296.5"/>
<text text-anchor="start" x="1058.75" y="-283" font-family="Helvetica,sans-Serif" font-size="10.00">include/NNFSCore/Layer</text>
<text text-anchor="middle" x="1113.12" y="-271.75" font-family="Helvetica,sans-Serif" font-size="10.00">/Dense.hpp</text>
</a>
</g>
</g>
<!-- Node1&#45;&gt;Node11 -->
<g id="edge12" class="edge">
<title>Node1&#45;&gt;Node11</title>
<path fill="none" stroke="#63b8ff" d="M1062.73,-325.02C1073.67,-315.73 1086.15,-305.15 1095.95,-296.83"/>
<polygon fill="#63b8ff" stroke="#63b8ff" points="1060.73,-322.97 1055.37,-332.11 1065.26,-328.31 1060.73,-322.97"/>
</g>
<!-- Node14 -->
<g id="node14" class="node">
<title>Node14</title>
<g id="a_node14"><a xlink:href="_model_8hpp.html" target="_top" xlink:title=" ">
<polygon fill="white" stroke="#666666" points="915.62,-163.5 788.62,-163.5 788.62,-133 915.62,-133 915.62,-163.5"/>
<text text-anchor="start" x="796.62" y="-150" font-family="Helvetica,sans-Serif" font-size="10.00">include/NNFSCore/Model</text>
<text text-anchor="middle" x="852.12" y="-138.75" font-family="Helvetica,sans-Serif" font-size="10.00">/Model.hpp</text>
</a>
</g>
</g>
<!-- Node1&#45;&gt;Node14 -->
<g id="edge28" class="edge">
<title>Node1&#45;&gt;Node14</title>
<path fill="none" stroke="#63b8ff" d="M994.8,-327.28C957.27,-307.86 903.8,-274.52 873.12,-230 859.24,-209.84 854.53,-181.11 852.94,-163.9"/>
<polygon fill="#63b8ff" stroke="#63b8ff" points="992.95,-330.77 1003.45,-332.15 996.1,-324.52 992.95,-330.77"/>
</g>
<!-- Node3 -->
<g id="node3" class="node">
<title>Node3</title>
<g id="a_node3"><a xlink:href="_re_l_u_8hpp.html" target="_top" xlink:title=" ">
<polygon fill="white" stroke="#666666" points="468.25,-163.5 324,-163.5 324,-133 468.25,-133 468.25,-163.5"/>
<text text-anchor="start" x="332" y="-150" font-family="Helvetica,sans-Serif" font-size="10.00">include/NNFSCore/Activation</text>
<text text-anchor="middle" x="396.12" y="-138.75" font-family="Helvetica,sans-Serif" font-size="10.00">/ReLU.hpp</text>
</a>
</g>
</g>
<!-- Node2&#45;&gt;Node3 -->
<g id="edge2" class="edge">
<title>Node2&#45;&gt;Node3</title>
<path fill="none" stroke="#63b8ff" d="M396.12,-188.38C396.12,-180.05 396.12,-171.08 396.12,-163.83"/>
<polygon fill="#63b8ff" stroke="#63b8ff" points="392.63,-188.11 396.12,-198.11 399.63,-188.11 392.63,-188.11"/>
</g>
<!-- Node5 -->
<g id="node5" class="node">
<title>Node5</title>
<g id="a_node5"><a xlink:href="_sigmoid_8hpp.html" target="_top" xlink:title=" ">
<polygon fill="white" stroke="#666666" points="144.25,-163.5 0,-163.5 0,-133 144.25,-133 144.25,-163.5"/>
<text text-anchor="start" x="8" y="-150" font-family="Helvetica,sans-Serif" font-size="10.00">include/NNFSCore/Activation</text>
<text text-anchor="middle" x="72.12" y="-138.75" font-family="Helvetica,sans-Serif" font-size="10.00">/Sigmoid.hpp</text>
</a>
</g>
</g>
<!-- Node2&#45;&gt;Node5 -->
<g id="edge4" class="edge">
<title>Node2&#45;&gt;Node5</title>
<path fill="none" stroke="#63b8ff" d="M313.26,-197.25C261.12,-186.87 194.49,-173.61 144.49,-163.66"/>
<polygon fill="#63b8ff" stroke="#63b8ff" points="312.33,-200.84 322.82,-199.36 313.69,-193.97 312.33,-200.84"/>
</g>
<!-- Node6 -->
<g id="node6" class="node">
<title>Node6</title>
<g id="a_node6"><a xlink:href="_softmax_8hpp.html" target="_top" xlink:title=" ">
<polygon fill="white" stroke="#666666" points="630.25,-163.5 486,-163.5 486,-133 630.25,-133 630.25,-163.5"/>
<text text-anchor="start" x="494" y="-150" font-family="Helvetica,sans-Serif" font-size="10.00">include/NNFSCore/Activation</text>
<text text-anchor="middle" x="558.12" y="-138.75" font-family="Helvetica,sans-Serif" font-size="10.00">/Softmax.hpp</text>
</a>
</g>
</g>
<!-- Node2&#45;&gt;Node6 -->
<g id="edge5" class="edge">
<title>Node2&#45;&gt;Node6</title>
<path fill="none" stroke="#63b8ff" d="M442.85,-195.15C467.76,-185.23 497.98,-173.2 521.23,-163.94"/>
<polygon fill="#63b8ff" stroke="#63b8ff" points="441.88,-192.16 433.89,-199.11 444.47,-198.67 441.88,-192.16"/>
</g>
<!-- Node10 -->
<g id="node10" class="node">
<title>Node10</title>
<g id="a_node10"><a xlink:href="_tanh_8hpp.html" target="_top" xlink:title=" ">
<polygon fill="white" stroke="#666666" points="306.25,-163.5 162,-163.5 162,-133 306.25,-133 306.25,-163.5"/>
<text text-anchor="start" x="170" y="-150" font-family="Helvetica,sans-Serif" font-size="10.00">include/NNFSCore/Activation</text>
<text text-anchor="middle" x="234.12" y="-138.75" font-family="Helvetica,sans-Serif" font-size="10.00">/Tanh.hpp</text>
</a>
</g>
</g>
<!-- Node2&#45;&gt;Node10 -->
<g id="edge11" class="edge">
<title>Node2&#45;&gt;Node10</title>
<path fill="none" stroke="#63b8ff" d="M349.4,-195.15C324.49,-185.23 294.27,-173.2 271.02,-163.94"/>
<polygon fill="#63b8ff" stroke="#63b8ff" points="347.78,-198.67 358.36,-199.11 350.37,-192.16 347.78,-198.67"/>
</g>
<!-- Node4 -->
<g id="node4" class="node">
<title>Node4</title>
<g id="a_node4"><a xlink:href="test__activation_8cpp.html" target="_top" xlink:title=" ">
<polygon fill="white" stroke="#666666" points="494.38,-91.38 371.88,-91.38 371.88,-72.12 494.38,-72.12 494.38,-91.38"/>
<text text-anchor="middle" x="433.12" y="-77.88" font-family="Helvetica,sans-Serif" font-size="10.00">tests/test_activation.cpp</text>
</a>
</g>
</g>
<!-- Node3&#45;&gt;Node4 -->
<g id="edge3" class="edge">
<title>Node3&#45;&gt;Node4</title>
<path fill="none" stroke="#63b8ff" d="M409.82,-123.37C416.19,-112.27 423.38,-99.74 428.06,-91.57"/>
<polygon fill="#63b8ff" stroke="#63b8ff" points="406.46,-121.2 404.52,-131.61 412.53,-124.68 406.46,-121.2"/>
</g>
<!-- Node6&#45;&gt;Node4 -->
<g id="edge9" class="edge">
<title>Node6&#45;&gt;Node4</title>
<path fill="none" stroke="#63b8ff" d="M520.21,-127.69C497.05,-115.74 468.53,-101.02 450.59,-91.76"/>
<polygon fill="#63b8ff" stroke="#63b8ff" points="518.27,-131.14 528.76,-132.61 521.48,-124.92 518.27,-131.14"/>
</g>
<!-- Node7 -->
<g id="node7" class="node">
<title>Node7</title>
<g id="a_node7"><a xlink:href="_c_c_e___softmax_8hpp.html" target="_top" xlink:title=" ">
<polygon fill="white" stroke="#666666" points="708.38,-97 585.88,-97 585.88,-66.5 708.38,-66.5 708.38,-97"/>
<text text-anchor="start" x="593.88" y="-83.5" font-family="Helvetica,sans-Serif" font-size="10.00">include/NNFSCore/Loss</text>
<text text-anchor="middle" x="647.12" y="-72.25" font-family="Helvetica,sans-Serif" font-size="10.00">/CCE_Softmax.hpp</text>
</a>
</g>
</g>
<!-- Node6&#45;&gt;Node7 -->
<g id="edge6" class="edge">
<title>Node6&#45;&gt;Node7</title>
<path fill="none" stroke="#63b8ff" d="M586.98,-126.34C600.05,-116.87 615.19,-105.89 627.01,-97.33"/>
<polygon fill="#63b8ff" stroke="#63b8ff" points="585.36,-123.91 579.32,-132.61 589.47,-129.58 585.36,-123.91"/>
</g>
<!-- Node9 -->
<g id="node9" class="node">
<title>Node9</title>
<g id="a_node9"><a xlink:href="test__loss_8cpp.html" target="_top" xlink:title=" ">
<polygon fill="white" stroke="#666666" points="696.38,-24.88 597.88,-24.88 597.88,-5.63 696.38,-5.63 696.38,-24.88"/>
<text text-anchor="middle" x="647.12" y="-11.38" font-family="Helvetica,sans-Serif" font-size="10.00">tests/test_loss.cpp</text>
</a>
</g>
</g>
<!-- Node6&#45;&gt;Node9 -->
<g id="edge10" class="edge">
<title>Node6&#45;&gt;Node9</title>
<path fill="none" stroke="#63b8ff" d="M559.5,-121.87C561.46,-104.97 566.13,-82.94 577.12,-66.5 589.6,-47.85 611.49,-33.8 627.48,-25.37"/>
<polygon fill="#63b8ff" stroke="#63b8ff" points="555.94,-121.34 558.53,-131.62 562.91,-121.98 555.94,-121.34"/>
</g>
<!-- Node7&#45;&gt;Node8 -->
<g id="edge7" class="edge">
<title>Node7&#45;&gt;Node8</title>
<path fill="none" stroke="#63b8ff" d="M719.29,-73.43C844.49,-60.73 1099.95,-34.83 1219.17,-22.74"/>
<polygon fill="#63b8ff" stroke="#63b8ff" points="719.28,-70.02 709.69,-74.51 719.99,-76.98 719.28,-70.02"/>
</g>
<!-- Node7&#45;&gt;Node9 -->
<g id="edge8" class="edge">
<title>Node7&#45;&gt;Node9</title>
<path fill="none" stroke="#63b8ff" d="M647.12,-55.18C647.12,-44.51 647.12,-32.83 647.12,-25.07"/>
<polygon fill="#63b8ff" stroke="#63b8ff" points="643.63,-55.11 647.12,-65.11 650.63,-55.11 643.63,-55.11"/>
</g>
<!-- Node11&#45;&gt;Node8 -->
<g id="edge20" class="edge">
<title>Node11&#45;&gt;Node8</title>
<path fill="none" stroke="#63b8ff" d="M1186.56,-274.66C1314.87,-263.18 1571.28,-232.04 1624.12,-163.5 1647,-133.83 1598.94,-71.59 1592.12,-66.5 1554.36,-38.28 1425.85,-25.23 1346.95,-19.75"/>
<polygon fill="#63b8ff" stroke="#63b8ff" points="1186.33,-271.25 1176.68,-275.61 1186.95,-278.23 1186.33,-271.25"/>
</g>
<!-- Node12 -->
<g id="node12" class="node">
<title>Node12</title>
<g id="a_node12"><a xlink:href="_loss_8hpp.html" target="_top" xlink:title=" ">
<polygon fill="white" stroke="#666666" points="1004.38,-230 881.88,-230 881.88,-199.5 1004.38,-199.5 1004.38,-230"/>
<text text-anchor="start" x="889.88" y="-216.5" font-family="Helvetica,sans-Serif" font-size="10.00">include/NNFSCore/Loss</text>
<text text-anchor="middle" x="943.12" y="-205.25" font-family="Helvetica,sans-Serif" font-size="10.00">/Loss.hpp</text>
</a>
</g>
</g>
<!-- Node11&#45;&gt;Node12 -->
<g id="edge13" class="edge">
<title>Node11&#45;&gt;Node12</title>
<path fill="none" stroke="#63b8ff" d="M1064.44,-261.78C1038.23,-251.83 1006.34,-239.74 981.84,-230.44"/>
<polygon fill="#63b8ff" stroke="#63b8ff" points="1062.96,-265.34 1073.55,-265.61 1065.44,-258.79 1062.96,-265.34"/>
</g>
<!-- Node15 -->
<g id="node15" class="node">
<title>Node15</title>
<g id="a_node15"><a xlink:href="_optimizer_8hpp.html" target="_top" xlink:title=" ">
<polygon fill="white" stroke="#666666" points="1362.12,-230 1220.12,-230 1220.12,-199.5 1362.12,-199.5 1362.12,-230"/>
<text text-anchor="start" x="1228.12" y="-216.5" font-family="Helvetica,sans-Serif" font-size="10.00">include/NNFSCore/Optimizer</text>
<text text-anchor="middle" x="1291.12" y="-205.25" font-family="Helvetica,sans-Serif" font-size="10.00">/Optimizer.hpp</text>
</a>
</g>
</g>
<!-- Node11&#45;&gt;Node15 -->
<g id="edge21" class="edge">
<title>Node11&#45;&gt;Node15</title>
<path fill="none" stroke="#63b8ff" d="M1163.74,-261.91C1191.25,-251.94 1224.82,-239.78 1250.59,-230.44"/>
<polygon fill="#63b8ff" stroke="#63b8ff" points="1162.73,-258.92 1154.52,-265.61 1165.11,-265.5 1162.73,-258.92"/>
</g>
<!-- Node20 -->
<g id="node20" class="node">
<title>Node20</title>
<g id="a_node20"><a xlink:href="test__dense_8cpp.html" target="_top" xlink:title=" ">
<polygon fill="white" stroke="#666666" points="1166.5,-224.38 1059.75,-224.38 1059.75,-205.12 1166.5,-205.12 1166.5,-224.38"/>
<text text-anchor="middle" x="1113.12" y="-210.88" font-family="Helvetica,sans-Serif" font-size="10.00">tests/test_dense.cpp</text>
</a>
</g>
</g>
<!-- Node11&#45;&gt;Node20 -->
<g id="edge27" class="edge">
<title>Node11&#45;&gt;Node20</title>
<path fill="none" stroke="#63b8ff" d="M1113.12,-254.68C1113.12,-244.01 1113.12,-232.33 1113.12,-224.57"/>
<polygon fill="#63b8ff" stroke="#63b8ff" points="1109.63,-254.61 1113.12,-264.61 1116.63,-254.61 1109.63,-254.61"/>
</g>
<!-- Node12&#45;&gt;Node8 -->
<g id="edge19" class="edge">
<title>Node12&#45;&gt;Node8</title>
<path fill="none" stroke="#63b8ff" d="M943.39,-188.4C944.88,-170.87 949.59,-148.07 963.12,-133 1029.52,-59.09 1146.58,-31.91 1219.22,-21.95"/>
<polygon fill="#63b8ff" stroke="#63b8ff" points="939.86,-187.86 942.82,-198.03 946.85,-188.23 939.86,-187.86"/>
</g>
<!-- Node13 -->
<g id="node13" class="node">
<title>Node13</title>
<g id="a_node13"><a xlink:href="_c_c_e_8hpp.html" target="_top" xlink:title=" ">
<polygon fill="white" stroke="#666666" points="770.38,-163.5 647.88,-163.5 647.88,-133 770.38,-133 770.38,-163.5"/>
<text text-anchor="start" x="655.88" y="-150" font-family="Helvetica,sans-Serif" font-size="10.00">include/NNFSCore/Loss</text>
<text text-anchor="middle" x="709.12" y="-138.75" font-family="Helvetica,sans-Serif" font-size="10.00">/CCE.hpp</text>
</a>
</g>
</g>
<!-- Node12&#45;&gt;Node13 -->
<g id="edge14" class="edge">
<title>Node12&#45;&gt;Node13</title>
<path fill="none" stroke="#63b8ff" d="M879.15,-196.12C842.47,-186.01 796.98,-173.47 762.29,-163.9"/>
<polygon fill="#63b8ff" stroke="#63b8ff" points="878.16,-199.75 888.73,-199.03 880.02,-193 878.16,-199.75"/>
</g>
<!-- Node12&#45;&gt;Node14 -->
<g id="edge17" class="edge">
<title>Node12&#45;&gt;Node14</title>
<path fill="none" stroke="#63b8ff" d="M913.63,-192.84C900.26,-183.37 884.78,-172.39 872.69,-163.83"/>
<polygon fill="#63b8ff" stroke="#63b8ff" points="911.29,-196.19 921.48,-199.11 915.34,-190.48 911.29,-196.19"/>
</g>
<!-- Node13&#45;&gt;Node7 -->
<g id="edge15" class="edge">
<title>Node13&#45;&gt;Node7</title>
<path fill="none" stroke="#63b8ff" d="M687.44,-124.69C678.71,-115.61 668.9,-105.4 661.14,-97.33"/>
<polygon fill="#63b8ff" stroke="#63b8ff" points="684.6,-126.83 694.06,-131.61 689.65,-121.98 684.6,-126.83"/>
</g>
<!-- Node13&#45;&gt;Node9 -->
<g id="edge16" class="edge">
<title>Node13&#45;&gt;Node9</title>
<path fill="none" stroke="#63b8ff" d="M718.33,-122.55C722.99,-105.85 725.99,-83.77 717.12,-66.5 707.15,-47.07 685.79,-33.46 669.27,-25.35"/>
<polygon fill="#63b8ff" stroke="#63b8ff" points="714.82,-121.06 715.14,-131.65 721.49,-123.17 714.82,-121.06"/>
</g>
<!-- Node14&#45;&gt;Node8 -->
<g id="edge18" class="edge">
<title>Node14&#45;&gt;Node8</title>
<path fill="none" stroke="#63b8ff" d="M867.86,-123.91C881.87,-105.13 904.14,-79.77 930.12,-66.5 979.33,-41.38 1131.54,-26.86 1219.19,-20.37"/>
<polygon fill="#63b8ff" stroke="#63b8ff" points="864.48,-121.61 861.49,-131.77 870.17,-125.7 864.48,-121.61"/>
</g>
<!-- Node15&#45;&gt;Node8 -->
<g id="edge22" class="edge">
<title>Node15&#45;&gt;Node8</title>
<path fill="none" stroke="#63b8ff" d="M1373.35,-212.15C1455.66,-208.59 1574.14,-197.53 1603.12,-163.5 1679.36,-74 1460.63,-35.88 1346.96,-22.45"/>
<polygon fill="#63b8ff" stroke="#63b8ff" points="1373.35,-208.68 1363.5,-212.58 1373.63,-215.68 1373.35,-208.68"/>
</g>
<!-- Node16 -->
<g id="node16" class="node">
<title>Node16</title>
<g id="a_node16"><a xlink:href="_adagrad_8hpp.html" target="_top" xlink:title=" ">
<polygon fill="white" stroke="#666666" points="1114.12,-163.5 972.12,-163.5 972.12,-133 1114.12,-133 1114.12,-163.5"/>
<text text-anchor="start" x="980.12" y="-150" font-family="Helvetica,sans-Serif" font-size="10.00">include/NNFSCore/Optimizer</text>
<text text-anchor="middle" x="1043.12" y="-138.75" font-family="Helvetica,sans-Serif" font-size="10.00">/Adagrad.hpp</text>
</a>
</g>
</g>
<!-- Node15&#45;&gt;Node16 -->
<g id="edge23" class="edge">
<title>Node15&#45;&gt;Node16</title>
<path fill="none" stroke="#63b8ff" d="M1224.32,-196.38C1185.28,-186.22 1136.56,-173.55 1099.47,-163.9"/>
<polygon fill="#63b8ff" stroke="#63b8ff" points="1222.98,-199.9 1233.54,-199.03 1224.74,-193.13 1222.98,-199.9"/>
</g>
<!-- Node17 -->
<g id="node17" class="node">
<title>Node17</title>
<g id="a_node17"><a xlink:href="_adam_8hpp.html" target="_top" xlink:title=" ">
<polygon fill="white" stroke="#666666" points="1274.12,-163.5 1132.12,-163.5 1132.12,-133 1274.12,-133 1274.12,-163.5"/>
<text text-anchor="start" x="1140.12" y="-150" font-family="Helvetica,sans-Serif" font-size="10.00">include/NNFSCore/Optimizer</text>
<text text-anchor="middle" x="1203.12" y="-138.75" font-family="Helvetica,sans-Serif" font-size="10.00">/Adam.hpp</text>
</a>
</g>
</g>
<!-- Node15&#45;&gt;Node17 -->
<g id="edge24" class="edge">
<title>Node15&#45;&gt;Node17</title>
<path fill="none" stroke="#63b8ff" d="M1262.6,-192.84C1249.67,-183.37 1234.7,-172.39 1223.01,-163.83"/>
<polygon fill="#63b8ff" stroke="#63b8ff" points="1260.02,-196.03 1270.16,-199.11 1264.16,-190.38 1260.02,-196.03"/>
</g>
<!-- Node18 -->
<g id="node18" class="node">
<title>Node18</title>
<g id="a_node18"><a xlink:href="_r_m_s_prop_8hpp.html" target="_top" xlink:title=" ">
<polygon fill="white" stroke="#666666" points="1434.12,-163.5 1292.12,-163.5 1292.12,-133 1434.12,-133 1434.12,-163.5"/>
<text text-anchor="start" x="1300.12" y="-150" font-family="Helvetica,sans-Serif" font-size="10.00">include/NNFSCore/Optimizer</text>
<text text-anchor="middle" x="1363.12" y="-138.75" font-family="Helvetica,sans-Serif" font-size="10.00">/RMSProp.hpp</text>
</a>
</g>
</g>
<!-- Node15&#45;&gt;Node18 -->
<g id="edge25" class="edge">
<title>Node15&#45;&gt;Node18</title>
<path fill="none" stroke="#63b8ff" d="M1315.38,-192.02C1325.75,-182.73 1337.57,-172.15 1346.85,-163.83"/>
<polygon fill="#63b8ff" stroke="#63b8ff" points="1313.58,-188.83 1308.46,-198.11 1318.25,-194.05 1313.58,-188.83"/>
</g>
<!-- Node19 -->
<g id="node19" class="node">
<title>Node19</title>
<g id="a_node19"><a xlink:href="_s_g_d_8hpp.html" target="_top" xlink:title=" ">
<polygon fill="white" stroke="#666666" points="1594.12,-163.5 1452.12,-163.5 1452.12,-133 1594.12,-133 1594.12,-163.5"/>
<text text-anchor="start" x="1460.12" y="-150" font-family="Helvetica,sans-Serif" font-size="10.00">include/NNFSCore/Optimizer</text>
<text text-anchor="middle" x="1523.12" y="-138.75" font-family="Helvetica,sans-Serif" font-size="10.00">/SGD.hpp</text>
</a>
</g>
</g>
<!-- Node15&#45;&gt;Node19 -->
<g id="edge26" class="edge">
<title>Node15&#45;&gt;Node19</title>
<path fill="none" stroke="#63b8ff" d="M1354.55,-196.12C1390.92,-186.01 1436.02,-173.47 1470.42,-163.9"/>
<polygon fill="#63b8ff" stroke="#63b8ff" points="1353.76,-192.98 1345.06,-199.03 1355.63,-199.73 1353.76,-192.98"/>
</g>
</g>
</svg>
