<?xml version="1.0" encoding="UTF-8" standalone="no"?>
<!DOCTYPE svg PUBLIC "-//W3C//DTD SVG 1.1//EN"
 "http://www.w3.org/Graphics/SVG/1.1/DTD/svg11.dtd">
<!-- Generated by graphviz version 8.0.1 (20230327.1645)
 -->
<!-- Title: include/NNFSCore/Activation/Linear.hpp Pages: 1 -->
<svg width="153pt" height="203pt"
 viewBox="0.00 0.00 153.00 203.00" xmlns="http://www.w3.org/2000/svg" xmlns:xlink="http://www.w3.org/1999/xlink">
<g id="graph0" class="graph" transform="scale(1 1) rotate(0) translate(4 199)">
<title>include/NNFSCore/Activation/Linear.hpp</title>
<!-- Node1 -->
<g id="node1" class="node">
<title>Node1</title>
<g id="a_node1"><a xlink:title=" ">
<polygon fill="#999999" stroke="#666666" points="145,-195 0,-195 0,-165 145,-165 145,-195"/>
<text text-anchor="start" x="8" y="-183" font-family="Helvetica,sans-Serif" font-size="10.00">include/NNFSCore/Activation</text>
<text text-anchor="middle" x="72.5" y="-172" font-family="Helvetica,sans-Serif" font-size="10.00">/Linear.hpp</text>
</a>
</g>
</g>
<!-- Node2 -->
<g id="node2" class="node">
<title>Node2</title>
<g id="a_node2"><a xlink:href="_activation_8hpp.html" target="_top" xlink:title=" ">
<polygon fill="white" stroke="#666666" points="111.5,-129 33.5,-129 33.5,-110 111.5,-110 111.5,-129"/>
<text text-anchor="middle" x="72.5" y="-117" font-family="Helvetica,sans-Serif" font-size="10.00">Activation.hpp</text>
</a>
</g>
</g>
<!-- Node1&#45;&gt;Node2 -->
<g id="edge1" class="edge">
<title>Node1&#45;&gt;Node2</title>
<path fill="none" stroke="#63b8ff" d="M72.5,-164.54C72.5,-157.17 72.5,-148.1 72.5,-140.11"/>
<polygon fill="#63b8ff" stroke="#63b8ff" points="76,-140.18 72.5,-130.18 69,-140.18 76,-140.18"/>
</g>
<!-- Node3 -->
<g id="node3" class="node">
<title>Node3</title>
<g id="a_node3"><a xlink:href="_differentiable_8hpp.html" target="_top" xlink:title=" ">
<polygon fill="white" stroke="#666666" points="142.5,-74 2.5,-74 2.5,-55 142.5,-55 142.5,-74"/>
<text text-anchor="middle" x="72.5" y="-62" font-family="Helvetica,sans-Serif" font-size="10.00">../Common/Differentiable.hpp</text>
</a>
</g>
</g>
<!-- Node2&#45;&gt;Node3 -->
<g id="edge2" class="edge">
<title>Node2&#45;&gt;Node3</title>
<path fill="none" stroke="#63b8ff" d="M72.5,-109.75C72.5,-103.11 72.5,-93.73 72.5,-85.31"/>
<polygon fill="#63b8ff" stroke="#63b8ff" points="76,-85.44 72.5,-75.44 69,-85.44 76,-85.44"/>
</g>
<!-- Node4 -->
<g id="node4" class="node">
<title>Node4</title>
<g id="a_node4"><a xlink:title=" ">
<polygon fill="#e0e0e0" stroke="#999999" points="104.5,-19 40.5,-19 40.5,0 104.5,0 104.5,-19"/>
<text text-anchor="middle" x="72.5" y="-7" font-family="Helvetica,sans-Serif" font-size="10.00">Eigen/Core</text>
</a>
</g>
</g>
<!-- Node3&#45;&gt;Node4 -->
<g id="edge3" class="edge">
<title>Node3&#45;&gt;Node4</title>
<path fill="none" stroke="#63b8ff" d="M72.5,-54.75C72.5,-48.11 72.5,-38.73 72.5,-30.31"/>
<polygon fill="#63b8ff" stroke="#63b8ff" points="76,-30.44 72.5,-20.44 69,-30.44 76,-30.44"/>
</g>
</g>
</svg>
