<?xml version="1.0" encoding="UTF-8" standalone="no"?>
<!DOCTYPE svg PUBLIC "-//W3C//DTD SVG 1.1//EN"
 "http://www.w3.org/Graphics/SVG/1.1/DTD/svg11.dtd">
<!-- Generated by graphviz version 8.0.5 (20230430.1635)
 -->
<!-- Title: include/NNFSCore/Loss/Loss.hpp Pages: 1 -->
<svg width="367pt" height="238pt"
 viewBox="0.00 0.00 366.75 238.00" xmlns="http://www.w3.org/2000/svg" xmlns:xlink="http://www.w3.org/1999/xlink">
<g id="graph0" class="graph" transform="scale(1 1) rotate(0) translate(4 234)">
<title>include/NNFSCore/Loss/Loss.hpp</title>
<!-- Node1 -->
<g id="node1" class="node">
<title>Node1</title>
<g id="a_node1"><a xlink:title=" ">
<polygon fill="#999999" stroke="#666666" points="264.5,-230 142,-230 142,-199.5 264.5,-199.5 264.5,-230"/>
<text text-anchor="start" x="150" y="-216.5" font-family="Helvetica,sans-Serif" font-size="10.00">include/NNFSCore/Loss</text>
<text text-anchor="middle" x="203.25" y="-205.25" font-family="Helvetica,sans-Serif" font-size="10.00">/Loss.hpp</text>
</a>
</g>
</g>
<!-- Node2 -->
<g id="node2" class="node">
<title>Node2</title>
<g id="a_node2"><a xlink:href="_c_c_e_8hpp.html" target="_top" xlink:title=" ">
<polygon fill="white" stroke="#666666" points="175.5,-163.5 53,-163.5 53,-133 175.5,-133 175.5,-163.5"/>
<text text-anchor="start" x="61" y="-150" font-family="Helvetica,sans-Serif" font-size="10.00">include/NNFSCore/Loss</text>
<text text-anchor="middle" x="114.25" y="-138.75" font-family="Helvetica,sans-Serif" font-size="10.00">/CCE.hpp</text>
</a>
</g>
</g>
<!-- Node1&#45;&gt;Node2 -->
<g id="edge1" class="edge">
<title>Node1&#45;&gt;Node2</title>
<path fill="none" stroke="#63b8ff" d="M174.4,-192.84C161.32,-183.37 146.19,-172.39 134.37,-163.83"/>
<polygon fill="#63b8ff" stroke="#63b8ff" points="171.9,-196.08 182.05,-199.11 176.01,-190.41 171.9,-196.08"/>
</g>
<!-- Node4 -->
<g id="node4" class="node">
<title>Node4</title>
<g id="a_node4"><a xlink:href="_neural_network_8hpp.html" target="_top" xlink:title=" ">
<polygon fill="white" stroke="#666666" points="266.75,-30.5 139.75,-30.5 139.75,0 266.75,0 266.75,-30.5"/>
<text text-anchor="start" x="147.75" y="-17" font-family="Helvetica,sans-Serif" font-size="10.00">include/NNFSCore/Model</text>
<text text-anchor="middle" x="203.25" y="-5.75" font-family="Helvetica,sans-Serif" font-size="10.00">/NeuralNetwork.hpp</text>
</a>
</g>
</g>
<!-- Node1&#45;&gt;Node4 -->
<g id="edge8" class="edge">
<title>Node1&#45;&gt;Node4</title>
<path fill="none" stroke="#63b8ff" d="M203.25,-188.31C203.25,-146.39 203.25,-64.13 203.25,-30.79"/>
<polygon fill="#63b8ff" stroke="#63b8ff" points="199.75,-188.23 203.25,-198.23 206.75,-188.23 199.75,-188.23"/>
</g>
<!-- Node6 -->
<g id="node6" class="node">
<title>Node6</title>
<g id="a_node6"><a xlink:href="_model_8hpp.html" target="_top" xlink:title=" ">
<polygon fill="white" stroke="#666666" points="358.75,-97 231.75,-97 231.75,-66.5 358.75,-66.5 358.75,-97"/>
<text text-anchor="start" x="239.75" y="-83.5" font-family="Helvetica,sans-Serif" font-size="10.00">include/NNFSCore/Model</text>
<text text-anchor="middle" x="295.25" y="-72.25" font-family="Helvetica,sans-Serif" font-size="10.00">/Model.hpp</text>
</a>
</g>
</g>
<!-- Node1&#45;&gt;Node6 -->
<g id="edge6" class="edge">
<title>Node1&#45;&gt;Node6</title>
<path fill="none" stroke="#63b8ff" d="M219.62,-190.45C238.55,-163.48 269.16,-119.9 285.01,-97.33"/>
<polygon fill="#63b8ff" stroke="#63b8ff" points="216.33,-188.04 213.45,-198.23 222.06,-192.06 216.33,-188.04"/>
</g>
<!-- Node3 -->
<g id="node3" class="node">
<title>Node3</title>
<g id="a_node3"><a xlink:href="_c_c_e___softmax_8hpp.html" target="_top" xlink:title=" ">
<polygon fill="white" stroke="#666666" points="175.5,-97 53,-97 53,-66.5 175.5,-66.5 175.5,-97"/>
<text text-anchor="start" x="61" y="-83.5" font-family="Helvetica,sans-Serif" font-size="10.00">include/NNFSCore/Loss</text>
<text text-anchor="middle" x="114.25" y="-72.25" font-family="Helvetica,sans-Serif" font-size="10.00">/CCE_Softmax.hpp</text>
</a>
</g>
</g>
<!-- Node2&#45;&gt;Node3 -->
<g id="edge2" class="edge">
<title>Node2&#45;&gt;Node3</title>
<path fill="none" stroke="#63b8ff" d="M114.25,-121.88C114.25,-113.55 114.25,-104.58 114.25,-97.33"/>
<polygon fill="#63b8ff" stroke="#63b8ff" points="110.75,-121.61 114.25,-131.61 117.75,-121.61 110.75,-121.61"/>
</g>
<!-- Node5 -->
<g id="node5" class="node">
<title>Node5</title>
<g id="a_node5"><a xlink:href="test__loss_8cpp.html" target="_top" xlink:title=" ">
<polygon fill="white" stroke="#666666" points="98.5,-24.88 0,-24.88 0,-5.63 98.5,-5.63 98.5,-24.88"/>
<text text-anchor="middle" x="49.25" y="-11.38" font-family="Helvetica,sans-Serif" font-size="10.00">tests/test_loss.cpp</text>
</a>
</g>
</g>
<!-- Node2&#45;&gt;Node5 -->
<g id="edge5" class="edge">
<title>Node2&#45;&gt;Node5</title>
<path fill="none" stroke="#63b8ff" d="M72.73,-126.96C61.42,-119.25 50.56,-109.29 44.25,-97 32.19,-73.51 40.54,-40.97 45.83,-25.34"/>
<polygon fill="#63b8ff" stroke="#63b8ff" points="70.49,-130.31 80.82,-132.67 74.21,-124.39 70.49,-130.31"/>
</g>
<!-- Node3&#45;&gt;Node4 -->
<g id="edge3" class="edge">
<title>Node3&#45;&gt;Node4</title>
<path fill="none" stroke="#63b8ff" d="M143.1,-59.84C156.18,-50.37 171.31,-39.39 183.13,-30.83"/>
<polygon fill="#63b8ff" stroke="#63b8ff" points="141.49,-57.41 135.45,-66.11 145.6,-63.08 141.49,-57.41"/>
</g>
<!-- Node3&#45;&gt;Node5 -->
<g id="edge4" class="edge">
<title>Node3&#45;&gt;Node5</title>
<path fill="none" stroke="#63b8ff" d="M91.87,-58.54C80.28,-47.04 66.79,-33.65 58.14,-25.07"/>
<polygon fill="#63b8ff" stroke="#63b8ff" points="88.94,-60.55 98.5,-65.11 93.87,-55.59 88.94,-60.55"/>
</g>
<!-- Node6&#45;&gt;Node4 -->
<g id="edge7" class="edge">
<title>Node6&#45;&gt;Node4</title>
<path fill="none" stroke="#63b8ff" d="M265.43,-59.84C251.91,-50.37 236.26,-39.39 224.04,-30.83"/>
<polygon fill="#63b8ff" stroke="#63b8ff" points="263.18,-63.24 273.37,-66.11 267.19,-57.51 263.18,-63.24"/>
</g>
</g>
</svg>
