<?xml version="1.0" encoding="UTF-8" standalone="no"?>
<!DOCTYPE svg PUBLIC "-//W3C//DTD SVG 1.1//EN"
 "http://www.w3.org/Graphics/SVG/1.1/DTD/svg11.dtd">
<!-- Generated by graphviz version 8.0.2 (20230410.1723)
 -->
<!-- Title: include/NNFSCore/Loss/Loss.hpp Pages: 1 -->
<svg width="292pt" height="225pt"
 viewBox="0.00 0.00 292.02 225.00" xmlns="http://www.w3.org/2000/svg" xmlns:xlink="http://www.w3.org/1999/xlink">
<g id="graph0" class="graph" transform="scale(1 1) rotate(0) translate(4 221)">
<title>include/NNFSCore/Loss/Loss.hpp</title>
<!-- Node1 -->
<g id="node1" class="node">
<title>Node1</title>
<g id="a_node1"><a xlink:title=" ">
<polygon fill="#999999" stroke="#666666" points="268,-217 145,-217 145,-187 268,-187 268,-217"/>
<text text-anchor="start" x="153" y="-205" font-family="Helvetica,sans-Serif" font-size="10.00">include/NNFSCore/Loss</text>
<text text-anchor="middle" x="206.5" y="-194" font-family="Helvetica,sans-Serif" font-size="10.00">/Loss.hpp</text>
</a>
</g>
</g>
<!-- Node2 -->
<g id="node2" class="node">
<title>Node2</title>
<g id="a_node2"><a xlink:href="_binary_cross_entropy_8hpp.html" target="_top" xlink:title=" ">
<polygon fill="white" stroke="#666666" points="124,-151 1,-151 1,-121 124,-121 124,-151"/>
<text text-anchor="start" x="9" y="-139" font-family="Helvetica,sans-Serif" font-size="10.00">include/NNFSCore/Loss</text>
<text text-anchor="middle" x="62.5" y="-128" font-family="Helvetica,sans-Serif" font-size="10.00">/BinaryCrossEntropy.hpp</text>
</a>
</g>
</g>
<!-- Node1&#45;&gt;Node2 -->
<g id="edge1" class="edge">
<title>Node1&#45;&gt;Node2</title>
<path fill="none" stroke="#63b8ff" d="M164.33,-182.26C142.1,-172.38 115.25,-160.45 94.71,-151.31"/>
<polygon fill="#63b8ff" stroke="#63b8ff" points="162.62,-185.77 173.18,-186.64 165.47,-179.38 162.62,-185.77"/>
</g>
<!-- Node5 -->
<g id="node5" class="node">
<title>Node5</title>
<g id="a_node5"><a xlink:href="_model_8hpp.html" target="_top" xlink:title=" ">
<polygon fill="white" stroke="#666666" points="270.5,-151 142.5,-151 142.5,-121 270.5,-121 270.5,-151"/>
<text text-anchor="start" x="150.5" y="-139" font-family="Helvetica,sans-Serif" font-size="10.00">include/NNFSCore/Model</text>
<text text-anchor="middle" x="206.5" y="-128" font-family="Helvetica,sans-Serif" font-size="10.00">/Model.hpp</text>
</a>
</g>
</g>
<!-- Node1&#45;&gt;Node5 -->
<g id="edge4" class="edge">
<title>Node1&#45;&gt;Node5</title>
<path fill="none" stroke="#63b8ff" d="M206.5,-175.97C206.5,-167.55 206.5,-158.45 206.5,-151.16"/>
<polygon fill="#63b8ff" stroke="#63b8ff" points="203,-175.8 206.5,-185.8 210,-175.8 203,-175.8"/>
</g>
<!-- Node6 -->
<g id="node6" class="node">
<title>Node6</title>
<g id="a_node6"><a xlink:href="_neural_network_8hpp.html" target="_top" xlink:title=" ">
<polygon fill="white" stroke="#666666" points="283.5,-85 155.5,-85 155.5,-55 283.5,-55 283.5,-85"/>
<text text-anchor="start" x="163.5" y="-73" font-family="Helvetica,sans-Serif" font-size="10.00">include/NNFSCore/Model</text>
<text text-anchor="middle" x="219.5" y="-62" font-family="Helvetica,sans-Serif" font-size="10.00">/NeuralNetwork.hpp</text>
</a>
</g>
</g>
<!-- Node1&#45;&gt;Node6 -->
<g id="edge7" class="edge">
<title>Node1&#45;&gt;Node6</title>
<path fill="none" stroke="#63b8ff" d="M250.06,-181.01C261.74,-173.37 272.94,-163.44 279.5,-151 285.72,-139.21 285.16,-133.07 279.5,-121 272.48,-106.02 258.53,-93.96 245.84,-85.44"/>
<polygon fill="#63b8ff" stroke="#63b8ff" points="248.44,-178.49 241.66,-186.64 252.04,-184.5 248.44,-178.49"/>
</g>
<!-- Node3 -->
<g id="node3" class="node">
<title>Node3</title>
<g id="a_node3"><a xlink:href="test__loss_8cpp.html" target="_top" xlink:title=" ">
<polygon fill="white" stroke="#666666" points="99,-79.5 0,-79.5 0,-60.5 99,-60.5 99,-79.5"/>
<text text-anchor="middle" x="49.5" y="-67.5" font-family="Helvetica,sans-Serif" font-size="10.00">tests/test_loss.cpp</text>
</a>
</g>
</g>
<!-- Node2&#45;&gt;Node3 -->
<g id="edge2" class="edge">
<title>Node2&#45;&gt;Node3</title>
<path fill="none" stroke="#63b8ff" d="M57.48,-110.27C55.3,-99.55 52.89,-87.7 51.3,-79.84"/>
<polygon fill="#63b8ff" stroke="#63b8ff" points="54.19,-110.69 59.61,-119.8 61.05,-109.3 54.19,-110.69"/>
</g>
<!-- Node4 -->
<g id="node4" class="node">
<title>Node4</title>
<g id="a_node4"><a xlink:href="test__neural__network_8cpp.html" target="_top" xlink:title=" ">
<polygon fill="white" stroke="#666666" points="247,-19 100,-19 100,0 247,0 247,-19"/>
<text text-anchor="middle" x="173.5" y="-7" font-family="Helvetica,sans-Serif" font-size="10.00">tests/test_neural_network.cpp</text>
</a>
</g>
</g>
<!-- Node2&#45;&gt;Node4 -->
<g id="edge3" class="edge">
<title>Node2&#45;&gt;Node4</title>
<path fill="none" stroke="#63b8ff" d="M82.81,-112.51C90.55,-103.91 99.45,-94.02 107.5,-85 128.68,-61.28 153.51,-33.17 165.8,-19.24"/>
<polygon fill="#63b8ff" stroke="#63b8ff" points="80.62,-109.82 76.53,-119.59 85.82,-114.5 80.62,-109.82"/>
</g>
<!-- Node5&#45;&gt;Node6 -->
<g id="edge5" class="edge">
<title>Node5&#45;&gt;Node6</title>
<path fill="none" stroke="#63b8ff" d="M211.53,-110.25C213.25,-101.75 215.13,-92.53 216.62,-85.16"/>
<polygon fill="#63b8ff" stroke="#63b8ff" points="207.95,-109.3 209.39,-119.8 214.81,-110.69 207.95,-109.3"/>
</g>
<!-- Node6&#45;&gt;Node4 -->
<g id="edge6" class="edge">
<title>Node6&#45;&gt;Node4</title>
<path fill="none" stroke="#63b8ff" d="M201.36,-45.93C193.97,-36.53 185.87,-26.23 180.32,-19.18"/>
<polygon fill="#63b8ff" stroke="#63b8ff" points="199.2,-47.84 208.13,-53.54 204.7,-43.52 199.2,-47.84"/>
</g>
</g>
</svg>
