<?xml version="1.0" encoding="UTF-8" standalone="no"?>
<!DOCTYPE svg PUBLIC "-//W3C//DTD SVG 1.1//EN"
 "http://www.w3.org/Graphics/SVG/1.1/DTD/svg11.dtd">
<!-- Generated by graphviz version 8.0.1 (20230327.1645)
 -->
<!-- Title: include/NNFSCore/Loss/Loss.hpp Pages: 1 -->
<svg width="333pt" height="225pt"
 viewBox="0.00 0.00 333.00 225.00" xmlns="http://www.w3.org/2000/svg" xmlns:xlink="http://www.w3.org/1999/xlink">
<g id="graph0" class="graph" transform="scale(1 1) rotate(0) translate(4 221)">
<title>include/NNFSCore/Loss/Loss.hpp</title>
<!-- Node1 -->
<g id="node1" class="node">
<title>Node1</title>
<g id="a_node1"><a xlink:title=" ">
<polygon fill="#999999" stroke="#666666" points="267,-217 144,-217 144,-187 267,-187 267,-217"/>
<text text-anchor="start" x="152" y="-205" font-family="Helvetica,sans-Serif" font-size="10.00">include/NNFSCore/Loss</text>
<text text-anchor="middle" x="205.5" y="-194" font-family="Helvetica,sans-Serif" font-size="10.00">/Loss.hpp</text>
</a>
</g>
</g>
<!-- Node2 -->
<g id="node2" class="node">
<title>Node2</title>
<g id="a_node2"><a xlink:href="_binary_cross_entropy_8hpp.html" target="_top" xlink:title=" ">
<polygon fill="white" stroke="#666666" points="123,-151 0,-151 0,-121 123,-121 123,-151"/>
<text text-anchor="start" x="8" y="-139" font-family="Helvetica,sans-Serif" font-size="10.00">include/NNFSCore/Loss</text>
<text text-anchor="middle" x="61.5" y="-128" font-family="Helvetica,sans-Serif" font-size="10.00">/BinaryCrossEntropy.hpp</text>
</a>
</g>
</g>
<!-- Node1&#45;&gt;Node2 -->
<g id="edge1" class="edge">
<title>Node1&#45;&gt;Node2</title>
<path fill="none" stroke="#63b8ff" d="M163.33,-182.26C141.1,-172.38 114.25,-160.45 93.71,-151.31"/>
<polygon fill="#63b8ff" stroke="#63b8ff" points="161.62,-185.77 172.18,-186.64 164.47,-179.38 161.62,-185.77"/>
</g>
<!-- Node4 -->
<g id="node4" class="node">
<title>Node4</title>
<g id="a_node4"><a xlink:href="_model_8hpp.html" target="_top" xlink:title=" ">
<polygon fill="white" stroke="#666666" points="269.5,-151 141.5,-151 141.5,-121 269.5,-121 269.5,-151"/>
<text text-anchor="start" x="149.5" y="-139" font-family="Helvetica,sans-Serif" font-size="10.00">include/NNFSCore/Model</text>
<text text-anchor="middle" x="205.5" y="-128" font-family="Helvetica,sans-Serif" font-size="10.00">/Model.hpp</text>
</a>
</g>
</g>
<!-- Node1&#45;&gt;Node4 -->
<g id="edge3" class="edge">
<title>Node1&#45;&gt;Node4</title>
<path fill="none" stroke="#63b8ff" d="M205.5,-175.97C205.5,-167.55 205.5,-158.45 205.5,-151.16"/>
<polygon fill="#63b8ff" stroke="#63b8ff" points="202,-175.8 205.5,-185.8 209,-175.8 202,-175.8"/>
</g>
<!-- Node5 -->
<g id="node5" class="node">
<title>Node5</title>
<g id="a_node5"><a xlink:href="_neural_network_8hpp.html" target="_top" xlink:title=" ">
<polygon fill="white" stroke="#666666" points="315.5,-85 187.5,-85 187.5,-55 315.5,-55 315.5,-85"/>
<text text-anchor="start" x="195.5" y="-73" font-family="Helvetica,sans-Serif" font-size="10.00">include/NNFSCore/Model</text>
<text text-anchor="middle" x="251.5" y="-62" font-family="Helvetica,sans-Serif" font-size="10.00">/NeuralNetwork.hpp</text>
</a>
</g>
</g>
<!-- Node1&#45;&gt;Node5 -->
<g id="edge6" class="edge">
<title>Node1&#45;&gt;Node5</title>
<path fill="none" stroke="#63b8ff" d="M249.06,-181.01C260.74,-173.37 271.94,-163.44 278.5,-151 289.92,-129.34 274.95,-101.9 263.16,-85.43"/>
<polygon fill="#63b8ff" stroke="#63b8ff" points="247.44,-178.49 240.66,-186.64 251.04,-184.5 247.44,-178.49"/>
</g>
<!-- Node3 -->
<g id="node3" class="node">
<title>Node3</title>
<g id="a_node3"><a xlink:href="test__loss_8cpp.html" target="_top" xlink:title=" ">
<polygon fill="white" stroke="#666666" points="111,-79.5 12,-79.5 12,-60.5 111,-60.5 111,-79.5"/>
<text text-anchor="middle" x="61.5" y="-67.5" font-family="Helvetica,sans-Serif" font-size="10.00">tests/test_loss.cpp</text>
</a>
</g>
</g>
<!-- Node2&#45;&gt;Node3 -->
<g id="edge2" class="edge">
<title>Node2&#45;&gt;Node3</title>
<path fill="none" stroke="#63b8ff" d="M61.5,-109.93C61.5,-99.31 61.5,-87.61 61.5,-79.84"/>
<polygon fill="#63b8ff" stroke="#63b8ff" points="58,-109.8 61.5,-119.8 65,-109.8 58,-109.8"/>
</g>
<!-- Node4&#45;&gt;Node5 -->
<g id="edge4" class="edge">
<title>Node4&#45;&gt;Node5</title>
<path fill="none" stroke="#63b8ff" d="M222.06,-111.96C228.5,-103 235.67,-93.03 241.32,-85.16"/>
<polygon fill="#63b8ff" stroke="#63b8ff" points="218.7,-109.63 215.71,-119.8 224.39,-113.72 218.7,-109.63"/>
</g>
<!-- Node6 -->
<g id="node6" class="node">
<title>Node6</title>
<g id="a_node6"><a xlink:href="test__neural__network_8cpp.html" target="_top" xlink:title=" ">
<polygon fill="white" stroke="#666666" points="325,-19 178,-19 178,0 325,0 325,-19"/>
<text text-anchor="middle" x="251.5" y="-7" font-family="Helvetica,sans-Serif" font-size="10.00">tests/test_neural_network.cpp</text>
</a>
</g>
</g>
<!-- Node5&#45;&gt;Node6 -->
<g id="edge5" class="edge">
<title>Node5&#45;&gt;Node6</title>
<path fill="none" stroke="#63b8ff" d="M251.5,-43.59C251.5,-34.85 251.5,-25.65 251.5,-19.18"/>
<polygon fill="#63b8ff" stroke="#63b8ff" points="248,-43.54 251.5,-53.54 255,-43.54 248,-43.54"/>
</g>
</g>
</svg>
