<?xml version="1.0" encoding="UTF-8" standalone="no"?>
<!DOCTYPE svg PUBLIC "-//W3C//DTD SVG 1.1//EN"
 "http://www.w3.org/Graphics/SVG/1.1/DTD/svg11.dtd">
<!-- Generated by graphviz version 8.0.5 (20230430.1635)
 -->
<!-- Title: include/NNFSCore/Metrics/Metrics.hpp Pages: 1 -->
<svg width="266pt" height="105pt"
 viewBox="0.00 0.00 265.88 105.00" xmlns="http://www.w3.org/2000/svg" xmlns:xlink="http://www.w3.org/1999/xlink">
<g id="graph0" class="graph" transform="scale(1 1) rotate(0) translate(4 101)">
<title>include/NNFSCore/Metrics/Metrics.hpp</title>
<!-- Node1 -->
<g id="node1" class="node">
<title>Node1</title>
<g id="a_node1"><a xlink:title=" ">
<polygon fill="#999999" stroke="#666666" points="199,-97 66,-97 66,-66.5 199,-66.5 199,-97"/>
<text text-anchor="start" x="74" y="-83.5" font-family="Helvetica,sans-Serif" font-size="10.00">include/NNFSCore/Metrics</text>
<text text-anchor="middle" x="132.5" y="-72.25" font-family="Helvetica,sans-Serif" font-size="10.00">/Metrics.hpp</text>
</a>
</g>
</g>
<!-- Node2 -->
<g id="node2" class="node">
<title>Node2</title>
<g id="a_node2"><a xlink:href="_neural_network_8hpp.html" target="_top" xlink:title=" ">
<polygon fill="white" stroke="#666666" points="127,-30.5 0,-30.5 0,0 127,0 127,-30.5"/>
<text text-anchor="start" x="8" y="-17" font-family="Helvetica,sans-Serif" font-size="10.00">include/NNFSCore/Model</text>
<text text-anchor="middle" x="63.5" y="-5.75" font-family="Helvetica,sans-Serif" font-size="10.00">/NeuralNetwork.hpp</text>
</a>
</g>
</g>
<!-- Node1&#45;&gt;Node2 -->
<g id="edge1" class="edge">
<title>Node1&#45;&gt;Node2</title>
<path fill="none" stroke="#63b8ff" d="M108.96,-58.74C99.1,-49.53 87.91,-39.06 79.1,-30.83"/>
<polygon fill="#63b8ff" stroke="#63b8ff" points="106.15,-60.84 115.84,-65.11 110.93,-55.73 106.15,-60.84"/>
</g>
<!-- Node3 -->
<g id="node3" class="node">
<title>Node3</title>
<g id="a_node3"><a xlink:href="test__metrics_8cpp.html" target="_top" xlink:title=" ">
<polygon fill="white" stroke="#666666" points="257.88,-24.88 145.12,-24.88 145.12,-5.63 257.88,-5.63 257.88,-24.88"/>
<text text-anchor="middle" x="201.5" y="-11.38" font-family="Helvetica,sans-Serif" font-size="10.00">tests/test_metrics.cpp</text>
</a>
</g>
</g>
<!-- Node1&#45;&gt;Node3 -->
<g id="edge2" class="edge">
<title>Node1&#45;&gt;Node3</title>
<path fill="none" stroke="#63b8ff" d="M155.91,-58.87C168.28,-47.3 182.79,-33.74 192.06,-25.07"/>
<polygon fill="#63b8ff" stroke="#63b8ff" points="154.07,-55.73 149.16,-65.11 158.85,-60.84 154.07,-55.73"/>
</g>
</g>
</svg>
