<?xml version="1.0" encoding="UTF-8" standalone="no"?>
<!DOCTYPE svg PUBLIC "-//W3C//DTD SVG 1.1//EN"
 "http://www.w3.org/Graphics/SVG/1.1/DTD/svg11.dtd">
<!-- Generated by graphviz version 8.0.5 (20230430.1635)
 -->
<!-- Title: include/NNFSCore/Model/Model.hpp Pages: 1 -->
<svg width="408pt" height="315pt"
 viewBox="0.00 0.00 407.50 314.75" xmlns="http://www.w3.org/2000/svg" xmlns:xlink="http://www.w3.org/1999/xlink">
<g id="graph0" class="graph" transform="scale(1 1) rotate(0) translate(4 310.75)">
<title>include/NNFSCore/Model/Model.hpp</title>
<!-- Node1 -->
<g id="node1" class="node">
<title>Node1</title>
<g id="a_node1"><a xlink:title=" ">
<polygon fill="#999999" stroke="#666666" points="170.88,-306.75 43.87,-306.75 43.87,-276.25 170.88,-276.25 170.88,-306.75"/>
<text text-anchor="start" x="51.88" y="-293.25" font-family="Helvetica,sans-Serif" font-size="10.00">include/NNFSCore/Model</text>
<text text-anchor="middle" x="107.38" y="-282" font-family="Helvetica,sans-Serif" font-size="10.00">/Model.hpp</text>
</a>
</g>
</g>
<!-- Node2 -->
<g id="node2" class="node">
<title>Node2</title>
<g id="a_node2"><a xlink:title=" ">
<polygon fill="#e0e0e0" stroke="#999999" points="70.75,-185 0,-185 0,-165.75 70.75,-165.75 70.75,-185"/>
<text text-anchor="middle" x="35.38" y="-171.5" font-family="Helvetica,sans-Serif" font-size="10.00">Eigen/Dense</text>
</a>
</g>
</g>
<!-- Node1&#45;&gt;Node2 -->
<g id="edge1" class="edge">
<title>Node1&#45;&gt;Node2</title>
<path fill="none" stroke="#63b8ff" d="M87.5,-275.96C76.32,-266.84 62.93,-254.19 54.38,-240.25 46.03,-226.66 41.17,-209.19 38.45,-195.96"/>
<polygon fill="#63b8ff" stroke="#63b8ff" points="41.74,-195.45 36.52,-186.23 34.85,-196.69 41.74,-195.45"/>
</g>
<!-- Node3 -->
<g id="node3" class="node">
<title>Node3</title>
<g id="a_node3"><a xlink:href="_layer_8hpp.html" target="_top" xlink:title=" ">
<polygon fill="white" stroke="#666666" points="322.62,-129.75 230.12,-129.75 230.12,-110.5 322.62,-110.5 322.62,-129.75"/>
<text text-anchor="middle" x="276.38" y="-116.25" font-family="Helvetica,sans-Serif" font-size="10.00">../Layer/Layer.hpp</text>
</a>
</g>
</g>
<!-- Node1&#45;&gt;Node3 -->
<g id="edge2" class="edge">
<title>Node1&#45;&gt;Node3</title>
<path fill="none" stroke="#63b8ff" d="M130.29,-275.8C158.19,-257.12 205.65,-222.71 238.38,-185 250.39,-171.16 260.77,-153.01 267.63,-139.6"/>
<polygon fill="#63b8ff" stroke="#63b8ff" points="271.06,-141.55 272.34,-131.03 264.78,-138.46 271.06,-141.55"/>
</g>
<!-- Node11 -->
<g id="node11" class="node">
<title>Node11</title>
<g id="a_node11"><a xlink:href="_loss_8hpp.html" target="_top" xlink:title=" ">
<polygon fill="white" stroke="#666666" points="151.38,-240.25 63.38,-240.25 63.38,-221 151.38,-221 151.38,-240.25"/>
<text text-anchor="middle" x="107.38" y="-226.75" font-family="Helvetica,sans-Serif" font-size="10.00">../Loss/Loss.hpp</text>
</a>
</g>
</g>
<!-- Node1&#45;&gt;Node11 -->
<g id="edge10" class="edge">
<title>Node1&#45;&gt;Node11</title>
<path fill="none" stroke="#63b8ff" d="M107.38,-275.95C107.38,-268.62 107.38,-259.62 107.38,-251.66"/>
<polygon fill="#63b8ff" stroke="#63b8ff" points="110.88,-251.7 107.38,-241.7 103.88,-251.7 110.88,-251.7"/>
</g>
<!-- Node4 -->
<g id="node4" class="node">
<title>Node4</title>
<g id="a_node4"><a xlink:title=" ">
<polygon fill="#e0e0e0" stroke="#999999" points="354,-74.5 290.75,-74.5 290.75,-55.25 354,-55.25 354,-74.5"/>
<text text-anchor="middle" x="322.38" y="-61" font-family="Helvetica,sans-Serif" font-size="10.00">Eigen/Core</text>
</a>
</g>
</g>
<!-- Node3&#45;&gt;Node4 -->
<g id="edge3" class="edge">
<title>Node3&#45;&gt;Node4</title>
<path fill="none" stroke="#63b8ff" d="M283.97,-110.33C290.39,-102.9 299.78,-92.04 307.66,-82.91"/>
<polygon fill="#63b8ff" stroke="#63b8ff" points="310.73,-85.71 314.61,-75.86 305.43,-81.14 310.73,-85.71"/>
</g>
<!-- Node5 -->
<g id="node5" class="node">
<title>Node5</title>
<g id="a_node5"><a xlink:href="clue_8hpp.html" target="_top" xlink:title=" ">
<polygon fill="white" stroke="#666666" points="273.12,-74.5 177.62,-74.5 177.62,-55.25 273.12,-55.25 273.12,-74.5"/>
<text text-anchor="middle" x="225.38" y="-61" font-family="Helvetica,sans-Serif" font-size="10.00">../Utilities/clue.hpp</text>
</a>
</g>
</g>
<!-- Node3&#45;&gt;Node5 -->
<g id="edge4" class="edge">
<title>Node3&#45;&gt;Node5</title>
<path fill="none" stroke="#63b8ff" d="M267.95,-110.33C260.76,-102.82 250.22,-91.81 241.42,-82.63"/>
<polygon fill="#63b8ff" stroke="#63b8ff" points="244.42,-80.66 234.98,-75.86 239.37,-85.5 244.42,-80.66"/>
</g>
<!-- Node6 -->
<g id="node6" class="node">
<title>Node6</title>
<g id="a_node6"><a xlink:title=" ">
<polygon fill="#e0e0e0" stroke="#999999" points="263.25,-19.25 213.5,-19.25 213.5,0 263.25,0 263.25,-19.25"/>
<text text-anchor="middle" x="238.38" y="-5.75" font-family="Helvetica,sans-Serif" font-size="10.00">iomanip</text>
</a>
</g>
</g>
<!-- Node5&#45;&gt;Node6 -->
<g id="edge5" class="edge">
<title>Node5&#45;&gt;Node6</title>
<path fill="none" stroke="#63b8ff" d="M227.52,-55.08C229.17,-48.34 231.5,-38.77 233.59,-30.24"/>
<polygon fill="#63b8ff" stroke="#63b8ff" points="237.21,-31.15 236.18,-20.61 230.41,-29.49 237.21,-31.15"/>
</g>
<!-- Node7 -->
<g id="node7" class="node">
<title>Node7</title>
<g id="a_node7"><a xlink:title=" ">
<polygon fill="#e0e0e0" stroke="#999999" points="333,-19.25 281.75,-19.25 281.75,0 333,0 333,-19.25"/>
<text text-anchor="middle" x="307.38" y="-5.75" font-family="Helvetica,sans-Serif" font-size="10.00">sstream</text>
</a>
</g>
</g>
<!-- Node5&#45;&gt;Node7 -->
<g id="edge6" class="edge">
<title>Node5&#45;&gt;Node7</title>
<path fill="none" stroke="#63b8ff" d="M239.29,-54.84C251.65,-46.81 269.98,-34.91 284.5,-25.48"/>
<polygon fill="#63b8ff" stroke="#63b8ff" points="285.92,-28.08 292.4,-19.7 282.1,-22.21 285.92,-28.08"/>
</g>
<!-- Node8 -->
<g id="node8" class="node">
<title>Node8</title>
<g id="a_node8"><a xlink:title=" ">
<polygon fill="#e0e0e0" stroke="#999999" points="399.5,-19.25 351.25,-19.25 351.25,0 399.5,0 399.5,-19.25"/>
<text text-anchor="middle" x="375.38" y="-5.75" font-family="Helvetica,sans-Serif" font-size="10.00">cassert</text>
</a>
</g>
</g>
<!-- Node5&#45;&gt;Node8 -->
<g id="edge7" class="edge">
<title>Node5&#45;&gt;Node8</title>
<path fill="none" stroke="#63b8ff" d="M250.82,-54.84C275.47,-46.09 313.03,-32.76 340.47,-23.02"/>
<polygon fill="#63b8ff" stroke="#63b8ff" points="341.55,-25.99 349.8,-19.35 339.21,-19.4 341.55,-25.99"/>
</g>
<!-- Node9 -->
<g id="node9" class="node">
<title>Node9</title>
<g id="a_node9"><a xlink:title=" ">
<polygon fill="#e0e0e0" stroke="#999999" points="137.12,-19.25 83.62,-19.25 83.62,0 137.12,0 137.12,-19.25"/>
<text text-anchor="middle" x="110.38" y="-5.75" font-family="Helvetica,sans-Serif" font-size="10.00">iostream</text>
</a>
</g>
</g>
<!-- Node5&#45;&gt;Node9 -->
<g id="edge8" class="edge">
<title>Node5&#45;&gt;Node9</title>
<path fill="none" stroke="#63b8ff" d="M205.87,-54.84C187.78,-46.47 160.6,-33.88 139.86,-24.28"/>
<polygon fill="#63b8ff" stroke="#63b8ff" points="141.52,-20.73 130.98,-19.7 138.58,-27.08 141.52,-20.73"/>
</g>
<!-- Node10 -->
<g id="node10" class="node">
<title>Node10</title>
<g id="a_node10"><a xlink:title=" ">
<polygon fill="#e0e0e0" stroke="#999999" points="195.38,-19.25 155.38,-19.25 155.38,0 195.38,0 195.38,-19.25"/>
<text text-anchor="middle" x="175.38" y="-5.75" font-family="Helvetica,sans-Serif" font-size="10.00">ctime</text>
</a>
</g>
</g>
<!-- Node5&#45;&gt;Node10 -->
<g id="edge9" class="edge">
<title>Node5&#45;&gt;Node10</title>
<path fill="none" stroke="#63b8ff" d="M217.12,-55.08C210.07,-47.57 199.73,-36.56 191.11,-27.38"/>
<polygon fill="#63b8ff" stroke="#63b8ff" points="194.21,-25.5 184.81,-20.61 189.1,-30.3 194.21,-25.5"/>
</g>
<!-- Node11&#45;&gt;Node2 -->
<g id="edge11" class="edge">
<title>Node11&#45;&gt;Node2</title>
<path fill="none" stroke="#63b8ff" d="M95.16,-220.59C84.44,-212.66 68.63,-200.97 55.96,-191.6"/>
<polygon fill="#63b8ff" stroke="#63b8ff" points="58.53,-188.41 48.41,-185.27 54.37,-194.04 58.53,-188.41"/>
</g>
<!-- Node11&#45;&gt;Node5 -->
<g id="edge12" class="edge">
<title>Node11&#45;&gt;Node5</title>
<path fill="none" stroke="#63b8ff" d="M108.7,-220.65C112.32,-199.03 124.28,-143.39 155.38,-110.5 167.09,-98.11 182.92,-87.64 196.57,-79.97"/>
<polygon fill="#63b8ff" stroke="#63b8ff" points="197.87,-82.7 205.03,-74.88 194.56,-76.53 197.87,-82.7"/>
</g>
<!-- Node12 -->
<g id="node12" class="node">
<title>Node12</title>
<g id="a_node12"><a xlink:href="_dense_8hpp.html" target="_top" xlink:title=" ">
<polygon fill="white" stroke="#666666" points="229.5,-185 133.25,-185 133.25,-165.75 229.5,-165.75 229.5,-185"/>
<text text-anchor="middle" x="181.38" y="-171.5" font-family="Helvetica,sans-Serif" font-size="10.00">../Layer/Dense.hpp</text>
</a>
</g>
</g>
<!-- Node11&#45;&gt;Node12 -->
<g id="edge13" class="edge">
<title>Node11&#45;&gt;Node12</title>
<path fill="none" stroke="#63b8ff" d="M119.93,-220.59C130.94,-212.66 147.19,-200.97 160.22,-191.6"/>
<polygon fill="#63b8ff" stroke="#63b8ff" points="161.93,-193.96 168.01,-185.27 157.85,-188.27 161.93,-193.96"/>
</g>
<!-- Node12&#45;&gt;Node3 -->
<g id="edge16" class="edge">
<title>Node12&#45;&gt;Node3</title>
<path fill="none" stroke="#63b8ff" d="M197.49,-165.34C212.09,-157.16 233.86,-144.96 250.83,-135.44"/>
<polygon fill="#63b8ff" stroke="#63b8ff" points="252.17,-138.15 259.18,-130.2 248.75,-132.04 252.17,-138.15"/>
</g>
<!-- Node12&#45;&gt;Node9 -->
<g id="edge14" class="edge">
<title>Node12&#45;&gt;Node9</title>
<path fill="none" stroke="#63b8ff" d="M175.54,-165.39C169.94,-156.54 161.47,-142.54 155.38,-129.75 139.04,-95.44 124.36,-53.51 116.47,-29.65"/>
<polygon fill="#63b8ff" stroke="#63b8ff" points="119.59,-28.93 113.16,-20.5 112.93,-31.09 119.59,-28.93"/>
</g>
<!-- Node13 -->
<g id="node13" class="node">
<title>Node13</title>
<g id="a_node13"><a xlink:title=" ">
<polygon fill="#e0e0e0" stroke="#999999" points="212.5,-129.75 164.25,-129.75 164.25,-110.5 212.5,-110.5 212.5,-129.75"/>
<text text-anchor="middle" x="188.38" y="-116.25" font-family="Helvetica,sans-Serif" font-size="10.00">random</text>
</a>
</g>
</g>
<!-- Node12&#45;&gt;Node13 -->
<g id="edge15" class="edge">
<title>Node12&#45;&gt;Node13</title>
<path fill="none" stroke="#63b8ff" d="M182.53,-165.58C183.42,-158.84 184.67,-149.27 185.8,-140.74"/>
<polygon fill="#63b8ff" stroke="#63b8ff" points="189.36,-141.48 187.19,-131.11 182.42,-140.57 189.36,-141.48"/>
</g>
</g>
</svg>
