<?xml version="1.0" encoding="UTF-8" standalone="no"?>
<!DOCTYPE svg PUBLIC "-//W3C//DTD SVG 1.1//EN"
 "http://www.w3.org/Graphics/SVG/1.1/DTD/svg11.dtd">
<!-- Generated by graphviz version 8.0.1 (20230327.1645)
 -->
<!-- Title: include/NNFSCore/Model/Model.hpp Pages: 1 -->
<svg width="533pt" height="203pt"
 viewBox="0.00 0.00 532.50 203.00" xmlns="http://www.w3.org/2000/svg" xmlns:xlink="http://www.w3.org/1999/xlink">
<g id="graph0" class="graph" transform="scale(1 1) rotate(0) translate(4 199)">
<title>include/NNFSCore/Model/Model.hpp</title>
<!-- Node1 -->
<g id="node1" class="node">
<title>Node1</title>
<g id="a_node1"><a xlink:title=" ">
<polygon fill="#999999" stroke="#666666" points="287,-195 159,-195 159,-165 287,-165 287,-195"/>
<text text-anchor="start" x="167" y="-183" font-family="Helvetica,sans-Serif" font-size="10.00">include/NNFSCore/Model</text>
<text text-anchor="middle" x="223" y="-172" font-family="Helvetica,sans-Serif" font-size="10.00">/Model.hpp</text>
</a>
</g>
</g>
<!-- Node2 -->
<g id="node2" class="node">
<title>Node2</title>
<g id="a_node2"><a xlink:title=" ">
<polygon fill="#e0e0e0" stroke="#999999" points="181.5,-74 110.5,-74 110.5,-55 181.5,-55 181.5,-74"/>
<text text-anchor="middle" x="146" y="-62" font-family="Helvetica,sans-Serif" font-size="10.00">Eigen/Dense</text>
</a>
</g>
</g>
<!-- Node1&#45;&gt;Node2 -->
<g id="edge1" class="edge">
<title>Node1&#45;&gt;Node2</title>
<path fill="none" stroke="#63b8ff" d="M202.14,-164.67C190.37,-155.64 176.22,-143.06 167,-129 158.22,-115.62 152.81,-98.24 149.68,-85.05"/>
<polygon fill="#63b8ff" stroke="#63b8ff" points="152.91,-84.41 147.42,-75.35 146.06,-85.85 152.91,-84.41"/>
</g>
<!-- Node3 -->
<g id="node3" class="node">
<title>Node3</title>
<g id="a_node3"><a xlink:href="_activation_8hpp.html" target="_top" xlink:title=" ">
<polygon fill="white" stroke="#666666" points="420,-129 288,-129 288,-110 420,-110 420,-129"/>
<text text-anchor="middle" x="354" y="-117" font-family="Helvetica,sans-Serif" font-size="10.00">../Activation/Activation.hpp</text>
</a>
</g>
</g>
<!-- Node1&#45;&gt;Node3 -->
<g id="edge2" class="edge">
<title>Node1&#45;&gt;Node3</title>
<path fill="none" stroke="#63b8ff" d="M255.38,-164.54C276.51,-155.1 303.88,-142.88 324.43,-133.71"/>
<polygon fill="#63b8ff" stroke="#63b8ff" points="325.49,-136.62 333.19,-129.35 322.63,-130.23 325.49,-136.62"/>
</g>
<!-- Node6 -->
<g id="node6" class="node">
<title>Node6</title>
<g id="a_node6"><a xlink:href="_callback_8hpp.html" target="_top" xlink:title=" ">
<polygon fill="white" stroke="#666666" points="120,-129 0,-129 0,-110 120,-110 120,-129"/>
<text text-anchor="middle" x="60" y="-117" font-family="Helvetica,sans-Serif" font-size="10.00">../Callback/Callback.hpp</text>
</a>
</g>
</g>
<!-- Node1&#45;&gt;Node6 -->
<g id="edge5" class="edge">
<title>Node1&#45;&gt;Node6</title>
<path fill="none" stroke="#63b8ff" d="M182.71,-164.54C155.7,-154.84 120.49,-142.21 94.72,-132.96"/>
<polygon fill="#63b8ff" stroke="#63b8ff" points="96.24,-129.43 85.65,-129.35 93.88,-136.02 96.24,-129.43"/>
</g>
<!-- Node7 -->
<g id="node7" class="node">
<title>Node7</title>
<g id="a_node7"><a xlink:href="_layer_8hpp.html" target="_top" xlink:title=" ">
<polygon fill="white" stroke="#666666" points="269.5,-129 176.5,-129 176.5,-110 269.5,-110 269.5,-129"/>
<text text-anchor="middle" x="223" y="-117" font-family="Helvetica,sans-Serif" font-size="10.00">../Layer/Layer.hpp</text>
</a>
</g>
</g>
<!-- Node1&#45;&gt;Node7 -->
<g id="edge7" class="edge">
<title>Node1&#45;&gt;Node7</title>
<path fill="none" stroke="#63b8ff" d="M223,-164.54C223,-157.17 223,-148.1 223,-140.11"/>
<polygon fill="#63b8ff" stroke="#63b8ff" points="226.5,-140.18 223,-130.18 219.5,-140.18 226.5,-140.18"/>
</g>
<!-- Node9 -->
<g id="node9" class="node">
<title>Node9</title>
<g id="a_node9"><a xlink:href="_loss_8hpp.html" target="_top" xlink:title=" ">
<polygon fill="white" stroke="#666666" points="524.5,-74 435.5,-74 435.5,-55 524.5,-55 524.5,-74"/>
<text text-anchor="middle" x="480" y="-62" font-family="Helvetica,sans-Serif" font-size="10.00">../Loss/Loss.hpp</text>
</a>
</g>
</g>
<!-- Node1&#45;&gt;Node9 -->
<g id="edge10" class="edge">
<title>Node1&#45;&gt;Node9</title>
<path fill="none" stroke="#63b8ff" d="M287.1,-174.22C330.03,-168.55 386.29,-156.14 429,-129 446.67,-117.77 460.96,-98.29 469.87,-83.86"/>
<polygon fill="#63b8ff" stroke="#63b8ff" points="473.35,-85.83 475.38,-75.43 467.31,-82.3 473.35,-85.83"/>
</g>
<!-- Node4 -->
<g id="node4" class="node">
<title>Node4</title>
<g id="a_node4"><a xlink:href="_differentiable_8hpp.html" target="_top" xlink:title=" ">
<polygon fill="white" stroke="#666666" points="417,-74 277,-74 277,-55 417,-55 417,-74"/>
<text text-anchor="middle" x="347" y="-62" font-family="Helvetica,sans-Serif" font-size="10.00">../Common/Differentiable.hpp</text>
</a>
</g>
</g>
<!-- Node3&#45;&gt;Node4 -->
<g id="edge3" class="edge">
<title>Node3&#45;&gt;Node4</title>
<path fill="none" stroke="#63b8ff" d="M352.84,-109.75C351.97,-103.11 350.73,-93.73 349.62,-85.31"/>
<polygon fill="#63b8ff" stroke="#63b8ff" points="352.96,-84.9 348.18,-75.44 346.02,-85.81 352.96,-84.9"/>
</g>
<!-- Node5 -->
<g id="node5" class="node">
<title>Node5</title>
<g id="a_node5"><a xlink:title=" ">
<polygon fill="#e0e0e0" stroke="#999999" points="445,-19 381,-19 381,0 445,0 445,-19"/>
<text text-anchor="middle" x="413" y="-7" font-family="Helvetica,sans-Serif" font-size="10.00">Eigen/Core</text>
</a>
</g>
</g>
<!-- Node4&#45;&gt;Node5 -->
<g id="edge4" class="edge">
<title>Node4&#45;&gt;Node5</title>
<path fill="none" stroke="#63b8ff" d="M358.2,-54.51C367.83,-46.77 381.95,-35.43 393.45,-26.2"/>
<polygon fill="#63b8ff" stroke="#63b8ff" points="395.36,-28.35 400.97,-19.36 390.98,-22.89 395.36,-28.35"/>
</g>
<!-- Node6&#45;&gt;Node2 -->
<g id="edge6" class="edge">
<title>Node6&#45;&gt;Node2</title>
<path fill="none" stroke="#63b8ff" d="M74.59,-109.51C87.64,-101.47 107.01,-89.53 122.29,-80.11"/>
<polygon fill="#63b8ff" stroke="#63b8ff" points="123.95,-82.58 130.63,-74.36 120.28,-76.62 123.95,-82.58"/>
</g>
<!-- Node7&#45;&gt;Node2 -->
<g id="edge8" class="edge">
<title>Node7&#45;&gt;Node2</title>
<path fill="none" stroke="#63b8ff" d="M209.94,-109.51C198.36,-101.54 181.24,-89.75 167.62,-80.38"/>
<polygon fill="#63b8ff" stroke="#63b8ff" points="170.09,-77.14 159.87,-74.36 166.12,-82.91 170.09,-77.14"/>
</g>
<!-- Node8 -->
<g id="node8" class="node">
<title>Node8</title>
<g id="a_node8"><a xlink:title=" ">
<polygon fill="#e0e0e0" stroke="#999999" points="250.5,-74 199.5,-74 199.5,-55 250.5,-55 250.5,-74"/>
<text text-anchor="middle" x="225" y="-62" font-family="Helvetica,sans-Serif" font-size="10.00">memory</text>
</a>
</g>
</g>
<!-- Node7&#45;&gt;Node8 -->
<g id="edge9" class="edge">
<title>Node7&#45;&gt;Node8</title>
<path fill="none" stroke="#63b8ff" d="M223.33,-109.75C223.58,-103.11 223.93,-93.73 224.25,-85.31"/>
<polygon fill="#63b8ff" stroke="#63b8ff" points="227.78,-85.57 224.66,-75.44 220.79,-85.3 227.78,-85.57"/>
</g>
<!-- Node9&#45;&gt;Node5 -->
<g id="edge11" class="edge">
<title>Node9&#45;&gt;Node5</title>
<path fill="none" stroke="#63b8ff" d="M468.63,-54.51C458.76,-46.7 444.23,-35.21 432.5,-25.93"/>
<polygon fill="#63b8ff" stroke="#63b8ff" points="435.21,-22.82 425.2,-19.36 430.87,-28.31 435.21,-22.82"/>
</g>
</g>
</svg>
