<?xml version="1.0" encoding="UTF-8" standalone="no"?>
<!DOCTYPE svg PUBLIC "-//W3C//DTD SVG 1.1//EN"
 "http://www.w3.org/Graphics/SVG/1.1/DTD/svg11.dtd">
<!-- Generated by graphviz version 8.0.5 (20230430.1635)
 -->
<!-- Title: include/NNFSCore/Model/NeuralNetwork.hpp Pages: 1 -->
<svg width="796pt" height="425pt"
 viewBox="0.00 0.00 796.29 425.25" xmlns="http://www.w3.org/2000/svg" xmlns:xlink="http://www.w3.org/1999/xlink">
<g id="graph0" class="graph" transform="scale(1 1) rotate(0) translate(4 421.25)">
<title>include/NNFSCore/Model/NeuralNetwork.hpp</title>
<!-- Node1 -->
<g id="node1" class="node">
<title>Node1</title>
<g id="a_node1"><a xlink:title=" ">
<polygon fill="#999999" stroke="#666666" points="374.29,-417.25 247.29,-417.25 247.29,-386.75 374.29,-386.75 374.29,-417.25"/>
<text text-anchor="start" x="255.29" y="-403.75" font-family="Helvetica,sans-Serif" font-size="10.00">include/NNFSCore/Model</text>
<text text-anchor="middle" x="310.79" y="-392.5" font-family="Helvetica,sans-Serif" font-size="10.00">/NeuralNetwork.hpp</text>
</a>
</g>
</g>
<!-- Node2 -->
<g id="node2" class="node">
<title>Node2</title>
<g id="a_node2"><a xlink:title=" ">
<polygon fill="#e0e0e0" stroke="#999999" points="414.54,-19.25 361.04,-19.25 361.04,0 414.54,0 414.54,-19.25"/>
<text text-anchor="middle" x="387.79" y="-5.75" font-family="Helvetica,sans-Serif" font-size="10.00">iostream</text>
</a>
</g>
</g>
<!-- Node1&#45;&gt;Node2 -->
<g id="edge1" class="edge">
<title>Node1&#45;&gt;Node2</title>
<path fill="none" stroke="#63b8ff" d="M247.01,-397.71C171.73,-392.54 52.6,-379.9 19.79,-350.75 -2.36,-331.08 0.79,-316.49 0.79,-286.88 0.79,-286.88 0.79,-286.88 0.79,-119.12 0.79,-47.14 252.18,-20.71 349.73,-13.16"/>
<polygon fill="#63b8ff" stroke="#63b8ff" points="349.86,-16.59 359.57,-12.35 349.34,-9.61 349.86,-16.59"/>
</g>
<!-- Node3 -->
<g id="node3" class="node">
<title>Node3</title>
<g id="a_node3"><a xlink:title=" ">
<polygon fill="#e0e0e0" stroke="#999999" points="66.29,-350.75 29.29,-350.75 29.29,-331.5 66.29,-331.5 66.29,-350.75"/>
<text text-anchor="middle" x="47.79" y="-337.25" font-family="Helvetica,sans-Serif" font-size="10.00">tuple</text>
</a>
</g>
</g>
<!-- Node1&#45;&gt;Node3 -->
<g id="edge2" class="edge">
<title>Node1&#45;&gt;Node3</title>
<path fill="none" stroke="#63b8ff" d="M247.02,-389.21C201.82,-380.44 139.57,-367.54 77.04,-351.17"/>
<polygon fill="#63b8ff" stroke="#63b8ff" points="78.16,-347.58 67.6,-348.4 76.37,-354.34 78.16,-347.58"/>
</g>
<!-- Node4 -->
<g id="node4" class="node">
<title>Node4</title>
<g id="a_node4"><a xlink:title=" ">
<polygon fill="#e0e0e0" stroke="#999999" points="127.29,-350.75 84.29,-350.75 84.29,-331.5 127.29,-331.5 127.29,-350.75"/>
<text text-anchor="middle" x="105.79" y="-337.25" font-family="Helvetica,sans-Serif" font-size="10.00">vector</text>
</a>
</g>
</g>
<!-- Node1&#45;&gt;Node4 -->
<g id="edge3" class="edge">
<title>Node1&#45;&gt;Node4</title>
<path fill="none" stroke="#63b8ff" d="M259.48,-386.27C227.05,-376.96 183.98,-364.6 138.18,-351.44"/>
<polygon fill="#63b8ff" stroke="#63b8ff" points="139.32,-347.84 128.74,-348.44 137.39,-354.56 139.32,-347.84"/>
</g>
<!-- Node5 -->
<g id="node5" class="node">
<title>Node5</title>
<g id="a_node5"><a xlink:title=" ">
<polygon fill="#e0e0e0" stroke="#999999" points="190.41,-350.75 145.16,-350.75 145.16,-331.5 190.41,-331.5 190.41,-350.75"/>
<text text-anchor="middle" x="167.79" y="-337.25" font-family="Helvetica,sans-Serif" font-size="10.00">chrono</text>
</a>
</g>
</g>
<!-- Node1&#45;&gt;Node5 -->
<g id="edge4" class="edge">
<title>Node1&#45;&gt;Node5</title>
<path fill="none" stroke="#63b8ff" d="M275.07,-386.3C251.93,-376.77 222.06,-364.47 199.71,-355.27"/>
<polygon fill="#63b8ff" stroke="#63b8ff" points="201.3,-351.72 190.72,-351.15 198.63,-358.2 201.3,-351.72"/>
</g>
<!-- Node6 -->
<g id="node6" class="node">
<title>Node6</title>
<g id="a_node6"><a xlink:href="_model_8hpp.html" target="_top" xlink:title=" ">
<polygon fill="white" stroke="#666666" points="528.91,-295.5 468.66,-295.5 468.66,-276.25 528.91,-276.25 528.91,-295.5"/>
<text text-anchor="middle" x="498.79" y="-282" font-family="Helvetica,sans-Serif" font-size="10.00">Model.hpp</text>
</a>
</g>
</g>
<!-- Node1&#45;&gt;Node6 -->
<g id="edge5" class="edge">
<title>Node1&#45;&gt;Node6</title>
<path fill="none" stroke="#63b8ff" d="M374.55,-388.06C401.24,-380.39 431.42,-368.58 454.79,-350.75 470.48,-338.77 482.63,-319.56 490.15,-305.33"/>
<polygon fill="#63b8ff" stroke="#63b8ff" points="493.66,-307.14 494.98,-296.62 487.39,-304.02 493.66,-307.14"/>
</g>
<!-- Node8 -->
<g id="node8" class="node">
<title>Node8</title>
<g id="a_node8"><a xlink:href="_layer_8hpp.html" target="_top" xlink:title=" ">
<polygon fill="white" stroke="#666666" points="372.04,-129.75 279.54,-129.75 279.54,-110.5 372.04,-110.5 372.04,-129.75"/>
<text text-anchor="middle" x="325.79" y="-116.25" font-family="Helvetica,sans-Serif" font-size="10.00">../Layer/Layer.hpp</text>
</a>
</g>
</g>
<!-- Node1&#45;&gt;Node8 -->
<g id="edge22" class="edge">
<title>Node1&#45;&gt;Node8</title>
<path fill="none" stroke="#63b8ff" d="M285.86,-386.32C248.69,-363.82 181.81,-320.76 169.79,-295.5 166.11,-287.77 167.68,-284.54 169.79,-276.25 183.54,-222.09 189.06,-204.02 229.79,-165.75 244.97,-151.48 265.54,-141.1 283.74,-133.96"/>
<polygon fill="#63b8ff" stroke="#63b8ff" points="284.67,-136.97 292.84,-130.22 282.25,-130.41 284.67,-136.97"/>
</g>
<!-- Node15 -->
<g id="node15" class="node">
<title>Node15</title>
<g id="a_node15"><a xlink:href="_loss_8hpp.html" target="_top" xlink:title=" ">
<polygon fill="white" stroke="#666666" points="477.79,-240.25 389.79,-240.25 389.79,-221 477.79,-221 477.79,-240.25"/>
<text text-anchor="middle" x="433.79" y="-226.75" font-family="Helvetica,sans-Serif" font-size="10.00">../Loss/Loss.hpp</text>
</a>
</g>
</g>
<!-- Node1&#45;&gt;Node15 -->
<g id="edge24" class="edge">
<title>Node1&#45;&gt;Node15</title>
<path fill="none" stroke="#63b8ff" d="M366.89,-386.26C385.51,-378.63 404.59,-367.31 416.79,-350.75 438.4,-321.41 438.45,-276.74 436.29,-251.25"/>
<polygon fill="#63b8ff" stroke="#63b8ff" points="439.68,-251.01 435.14,-241.44 432.72,-251.75 439.68,-251.01"/>
</g>
<!-- Node16 -->
<g id="node16" class="node">
<title>Node16</title>
<g id="a_node16"><a xlink:href="_dense_8hpp.html" target="_top" xlink:title=" ">
<polygon fill="white" stroke="#666666" points="481.91,-185 385.66,-185 385.66,-165.75 481.91,-165.75 481.91,-185"/>
<text text-anchor="middle" x="433.79" y="-171.5" font-family="Helvetica,sans-Serif" font-size="10.00">../Layer/Dense.hpp</text>
</a>
</g>
</g>
<!-- Node1&#45;&gt;Node16 -->
<g id="edge23" class="edge">
<title>Node1&#45;&gt;Node16</title>
<path fill="none" stroke="#63b8ff" d="M344.37,-386.35C358.9,-378.13 374.47,-366.35 382.79,-350.75 405.89,-307.41 382.83,-289.33 380.79,-240.25 380.43,-231.7 377.18,-228.76 380.79,-221 386.48,-208.77 397.35,-198.69 407.78,-191.23"/>
<polygon fill="#63b8ff" stroke="#63b8ff" points="409.26,-193.78 415.68,-185.35 405.41,-187.94 409.26,-193.78"/>
</g>
<!-- Node18 -->
<g id="node18" class="node">
<title>Node18</title>
<g id="a_node18"><a xlink:href="_c_c_e___softmax_8hpp.html" target="_top" xlink:title=" ">
<polygon fill="white" stroke="#666666" points="374.29,-350.75 247.29,-350.75 247.29,-331.5 374.29,-331.5 374.29,-350.75"/>
<text text-anchor="middle" x="310.79" y="-337.25" font-family="Helvetica,sans-Serif" font-size="10.00">../Loss/CCE_Softmax.hpp</text>
</a>
</g>
</g>
<!-- Node1&#45;&gt;Node18 -->
<g id="edge25" class="edge">
<title>Node1&#45;&gt;Node18</title>
<path fill="none" stroke="#63b8ff" d="M310.79,-386.45C310.79,-379.12 310.79,-370.12 310.79,-362.16"/>
<polygon fill="#63b8ff" stroke="#63b8ff" points="314.29,-362.2 310.79,-352.2 307.29,-362.2 314.29,-362.2"/>
</g>
<!-- Node22 -->
<g id="node22" class="node">
<title>Node22</title>
<g id="a_node22"><a xlink:href="_metrics_8hpp.html" target="_top" xlink:title=" ">
<polygon fill="white" stroke="#666666" points="788.29,-240.25 679.29,-240.25 679.29,-221 788.29,-221 788.29,-240.25"/>
<text text-anchor="middle" x="733.79" y="-226.75" font-family="Helvetica,sans-Serif" font-size="10.00">../Metrics/Metrics.hpp</text>
</a>
</g>
</g>
<!-- Node1&#45;&gt;Node22 -->
<g id="edge31" class="edge">
<title>Node1&#45;&gt;Node22</title>
<path fill="none" stroke="#63b8ff" d="M374.72,-388.41C413.36,-379.85 463.2,-367.11 505.79,-350.75 583.8,-320.77 669.6,-270.96 710.11,-246.34"/>
<polygon fill="#63b8ff" stroke="#63b8ff" points="711.7,-248.86 718.4,-240.65 708.04,-242.89 711.7,-248.86"/>
</g>
<!-- Node23 -->
<g id="node23" class="node">
<title>Node23</title>
<g id="a_node23"><a xlink:href="_optimizer_8hpp.html" target="_top" xlink:title=" ">
<polygon fill="white" stroke="#666666" points="661.29,-240.25 534.29,-240.25 534.29,-221 661.29,-221 661.29,-240.25"/>
<text text-anchor="middle" x="597.79" y="-226.75" font-family="Helvetica,sans-Serif" font-size="10.00">../Optimizer/Optimizer.hpp</text>
</a>
</g>
</g>
<!-- Node1&#45;&gt;Node23 -->
<g id="edge34" class="edge">
<title>Node1&#45;&gt;Node23</title>
<path fill="none" stroke="#63b8ff" d="M374.58,-388.96C406.91,-381.12 445.96,-368.9 477.79,-350.75 524.12,-324.33 565.13,-275.41 585.03,-249.23"/>
<polygon fill="#63b8ff" stroke="#63b8ff" points="588.22,-251.81 591.38,-241.7 582.6,-247.63 588.22,-251.81"/>
</g>
<!-- Node7 -->
<g id="node7" class="node">
<title>Node7</title>
<g id="a_node7"><a xlink:title=" ">
<polygon fill="#e0e0e0" stroke="#999999" points="608.16,-185 537.41,-185 537.41,-165.75 608.16,-165.75 608.16,-185"/>
<text text-anchor="middle" x="572.79" y="-171.5" font-family="Helvetica,sans-Serif" font-size="10.00">Eigen/Dense</text>
</a>
</g>
</g>
<!-- Node6&#45;&gt;Node7 -->
<g id="edge6" class="edge">
<title>Node6&#45;&gt;Node7</title>
<path fill="none" stroke="#63b8ff" d="M501.06,-276.02C504.66,-263.11 512.54,-238.74 524.79,-221 532.23,-210.21 542.69,-200.1 551.95,-192.24"/>
<polygon fill="#63b8ff" stroke="#63b8ff" points="553.77,-194.46 559.32,-185.44 549.35,-189.03 553.77,-194.46"/>
</g>
<!-- Node6&#45;&gt;Node8 -->
<g id="edge7" class="edge">
<title>Node6&#45;&gt;Node8</title>
<path fill="none" stroke="#63b8ff" d="M468.25,-280C442.18,-274.42 405.15,-262.94 380.79,-240.25 351.3,-212.78 336.3,-166.39 329.85,-140.35"/>
<polygon fill="#63b8ff" stroke="#63b8ff" points="333.11,-139.92 327.46,-130.95 326.29,-141.48 333.11,-139.92"/>
</g>
<!-- Node6&#45;&gt;Node15 -->
<g id="edge15" class="edge">
<title>Node6&#45;&gt;Node15</title>
<path fill="none" stroke="#63b8ff" d="M487.76,-275.84C478.27,-268.07 464.36,-256.67 453.04,-247.4"/>
<polygon fill="#63b8ff" stroke="#63b8ff" points="455.6,-244.15 445.65,-240.52 451.17,-249.57 455.6,-244.15"/>
</g>
<!-- Node9 -->
<g id="node9" class="node">
<title>Node9</title>
<g id="a_node9"><a xlink:title=" ">
<polygon fill="#e0e0e0" stroke="#999999" points="357.41,-74.5 294.16,-74.5 294.16,-55.25 357.41,-55.25 357.41,-74.5"/>
<text text-anchor="middle" x="325.79" y="-61" font-family="Helvetica,sans-Serif" font-size="10.00">Eigen/Core</text>
</a>
</g>
</g>
<!-- Node8&#45;&gt;Node9 -->
<g id="edge8" class="edge">
<title>Node8&#45;&gt;Node9</title>
<path fill="none" stroke="#63b8ff" d="M325.79,-110.33C325.79,-103.67 325.79,-94.24 325.79,-85.78"/>
<polygon fill="#63b8ff" stroke="#63b8ff" points="329.29,-85.86 325.79,-75.86 322.29,-85.86 329.29,-85.86"/>
</g>
<!-- Node10 -->
<g id="node10" class="node">
<title>Node10</title>
<g id="a_node10"><a xlink:href="clue_8hpp.html" target="_top" xlink:title=" ">
<polygon fill="white" stroke="#666666" points="563.54,-74.5 468.04,-74.5 468.04,-55.25 563.54,-55.25 563.54,-74.5"/>
<text text-anchor="middle" x="515.79" y="-61" font-family="Helvetica,sans-Serif" font-size="10.00">../Utilities/clue.hpp</text>
</a>
</g>
</g>
<!-- Node8&#45;&gt;Node10 -->
<g id="edge9" class="edge">
<title>Node8&#45;&gt;Node10</title>
<path fill="none" stroke="#63b8ff" d="M358.02,-110.09C389.68,-101.22 438.18,-87.62 473.05,-77.85"/>
<polygon fill="#63b8ff" stroke="#63b8ff" points="473.71,-81.02 482.4,-74.95 471.82,-74.28 473.71,-81.02"/>
</g>
<!-- Node10&#45;&gt;Node2 -->
<g id="edge13" class="edge">
<title>Node10&#45;&gt;Node2</title>
<path fill="none" stroke="#63b8ff" d="M494.07,-54.84C473.66,-46.35 442.86,-33.54 419.66,-23.89"/>
<polygon fill="#63b8ff" stroke="#63b8ff" points="421.18,-20.31 410.61,-19.7 418.49,-26.78 421.18,-20.31"/>
</g>
<!-- Node11 -->
<g id="node11" class="node">
<title>Node11</title>
<g id="a_node11"><a xlink:title=" ">
<polygon fill="#e0e0e0" stroke="#999999" points="540.66,-19.25 490.91,-19.25 490.91,0 540.66,0 540.66,-19.25"/>
<text text-anchor="middle" x="515.79" y="-5.75" font-family="Helvetica,sans-Serif" font-size="10.00">iomanip</text>
</a>
</g>
</g>
<!-- Node10&#45;&gt;Node11 -->
<g id="edge10" class="edge">
<title>Node10&#45;&gt;Node11</title>
<path fill="none" stroke="#63b8ff" d="M515.79,-55.08C515.79,-48.42 515.79,-38.99 515.79,-30.53"/>
<polygon fill="#63b8ff" stroke="#63b8ff" points="519.29,-30.61 515.79,-20.61 512.29,-30.61 519.29,-30.61"/>
</g>
<!-- Node12 -->
<g id="node12" class="node">
<title>Node12</title>
<g id="a_node12"><a xlink:title=" ">
<polygon fill="#e0e0e0" stroke="#999999" points="610.41,-19.25 559.16,-19.25 559.16,0 610.41,0 610.41,-19.25"/>
<text text-anchor="middle" x="584.79" y="-5.75" font-family="Helvetica,sans-Serif" font-size="10.00">sstream</text>
</a>
</g>
</g>
<!-- Node10&#45;&gt;Node12 -->
<g id="edge11" class="edge">
<title>Node10&#45;&gt;Node12</title>
<path fill="none" stroke="#63b8ff" d="M527.49,-54.84C537.66,-46.99 552.62,-35.45 564.7,-26.12"/>
<polygon fill="#63b8ff" stroke="#63b8ff" points="566.48,-28.41 572.25,-19.52 562.2,-22.86 566.48,-28.41"/>
</g>
<!-- Node13 -->
<g id="node13" class="node">
<title>Node13</title>
<g id="a_node13"><a xlink:title=" ">
<polygon fill="#e0e0e0" stroke="#999999" points="676.91,-19.25 628.66,-19.25 628.66,0 676.91,0 676.91,-19.25"/>
<text text-anchor="middle" x="652.79" y="-5.75" font-family="Helvetica,sans-Serif" font-size="10.00">cassert</text>
</a>
</g>
</g>
<!-- Node10&#45;&gt;Node13 -->
<g id="edge12" class="edge">
<title>Node10&#45;&gt;Node13</title>
<path fill="none" stroke="#63b8ff" d="M539.03,-54.84C561.07,-46.27 594.43,-33.31 619.33,-23.63"/>
<polygon fill="#63b8ff" stroke="#63b8ff" points="620.38,-26.59 628.43,-19.7 617.84,-20.06 620.38,-26.59"/>
</g>
<!-- Node14 -->
<g id="node14" class="node">
<title>Node14</title>
<g id="a_node14"><a xlink:title=" ">
<polygon fill="#e0e0e0" stroke="#999999" points="472.79,-19.25 432.79,-19.25 432.79,0 472.79,0 472.79,-19.25"/>
<text text-anchor="middle" x="452.79" y="-5.75" font-family="Helvetica,sans-Serif" font-size="10.00">ctime</text>
</a>
</g>
</g>
<!-- Node10&#45;&gt;Node14 -->
<g id="edge14" class="edge">
<title>Node10&#45;&gt;Node14</title>
<path fill="none" stroke="#63b8ff" d="M505.1,-54.84C495.9,-47.07 482.42,-35.67 471.45,-26.4"/>
<polygon fill="#63b8ff" stroke="#63b8ff" points="474.21,-23.31 464.32,-19.52 469.69,-28.65 474.21,-23.31"/>
</g>
<!-- Node15&#45;&gt;Node7 -->
<g id="edge16" class="edge">
<title>Node15&#45;&gt;Node7</title>
<path fill="none" stroke="#63b8ff" d="M457.37,-220.59C479.73,-212.02 513.58,-199.06 538.85,-189.38"/>
<polygon fill="#63b8ff" stroke="#63b8ff" points="540,-192.3 548.09,-185.45 537.5,-185.76 540,-192.3"/>
</g>
<!-- Node15&#45;&gt;Node10 -->
<g id="edge17" class="edge">
<title>Node15&#45;&gt;Node10</title>
<path fill="none" stroke="#63b8ff" d="M450.94,-220.62C463.91,-212.9 481.09,-200.58 490.79,-185 510.08,-154 514.72,-110.57 515.69,-85.62"/>
<polygon fill="#63b8ff" stroke="#63b8ff" points="519.21,-85.78 515.93,-75.7 512.21,-85.63 519.21,-85.78"/>
</g>
<!-- Node15&#45;&gt;Node16 -->
<g id="edge18" class="edge">
<title>Node15&#45;&gt;Node16</title>
<path fill="none" stroke="#63b8ff" d="M433.79,-220.83C433.79,-214.17 433.79,-204.74 433.79,-196.28"/>
<polygon fill="#63b8ff" stroke="#63b8ff" points="437.29,-196.36 433.79,-186.36 430.29,-196.36 437.29,-196.36"/>
</g>
<!-- Node16&#45;&gt;Node2 -->
<g id="edge19" class="edge">
<title>Node16&#45;&gt;Node2</title>
<path fill="none" stroke="#63b8ff" d="M430.61,-165.54C427.44,-156.58 422.52,-142.28 418.79,-129.75 408.4,-94.88 398.12,-53.71 392.4,-30.04"/>
<polygon fill="#63b8ff" stroke="#63b8ff" points="395.64,-29.56 389.91,-20.65 388.83,-31.19 395.64,-29.56"/>
</g>
<!-- Node16&#45;&gt;Node8 -->
<g id="edge21" class="edge">
<title>Node16&#45;&gt;Node8</title>
<path fill="none" stroke="#63b8ff" d="M415.47,-165.34C398.63,-157.04 373.42,-144.61 354.02,-135.04"/>
<polygon fill="#63b8ff" stroke="#63b8ff" points="355.71,-131.49 345.2,-130.2 352.62,-137.76 355.71,-131.49"/>
</g>
<!-- Node17 -->
<g id="node17" class="node">
<title>Node17</title>
<g id="a_node17"><a xlink:title=" ">
<polygon fill="#e0e0e0" stroke="#999999" points="475.91,-129.75 427.66,-129.75 427.66,-110.5 475.91,-110.5 475.91,-129.75"/>
<text text-anchor="middle" x="451.79" y="-116.25" font-family="Helvetica,sans-Serif" font-size="10.00">random</text>
</a>
</g>
</g>
<!-- Node16&#45;&gt;Node17 -->
<g id="edge20" class="edge">
<title>Node16&#45;&gt;Node17</title>
<path fill="none" stroke="#63b8ff" d="M436.76,-165.58C439.06,-158.76 442.34,-149.06 445.25,-140.45"/>
<polygon fill="#63b8ff" stroke="#63b8ff" points="448.86,-141.7 448.75,-131.11 442.23,-139.46 448.86,-141.7"/>
</g>
<!-- Node19 -->
<g id="node19" class="node">
<title>Node19</title>
<g id="a_node19"><a xlink:href="_c_c_e_8hpp.html" target="_top" xlink:title=" ">
<polygon fill="white" stroke="#666666" points="374.54,-295.5 321.04,-295.5 321.04,-276.25 374.54,-276.25 374.54,-295.5"/>
<text text-anchor="middle" x="347.79" y="-282" font-family="Helvetica,sans-Serif" font-size="10.00">CCE.hpp</text>
</a>
</g>
</g>
<!-- Node18&#45;&gt;Node19 -->
<g id="edge26" class="edge">
<title>Node18&#45;&gt;Node19</title>
<path fill="none" stroke="#63b8ff" d="M316.9,-331.33C321.9,-324.13 329.14,-313.71 335.36,-304.76"/>
<polygon fill="#63b8ff" stroke="#63b8ff" points="338.71,-307.07 341.54,-296.86 332.96,-303.07 338.71,-307.07"/>
</g>
<!-- Node20 -->
<g id="node20" class="node">
<title>Node20</title>
<g id="a_node20"><a xlink:href="_softmax_8hpp.html" target="_top" xlink:title=" ">
<polygon fill="white" stroke="#666666" points="302.79,-295.5 178.79,-295.5 178.79,-276.25 302.79,-276.25 302.79,-295.5"/>
<text text-anchor="middle" x="240.79" y="-282" font-family="Helvetica,sans-Serif" font-size="10.00">../Activation/Softmax.hpp</text>
</a>
</g>
</g>
<!-- Node18&#45;&gt;Node20 -->
<g id="edge28" class="edge">
<title>Node18&#45;&gt;Node20</title>
<path fill="none" stroke="#63b8ff" d="M298.91,-331.09C288.59,-323.24 273.42,-311.7 261.16,-302.37"/>
<polygon fill="#63b8ff" stroke="#63b8ff" points="263.56,-299.04 253.48,-295.77 259.32,-304.61 263.56,-299.04"/>
</g>
<!-- Node19&#45;&gt;Node15 -->
<g id="edge27" class="edge">
<title>Node19&#45;&gt;Node15</title>
<path fill="none" stroke="#63b8ff" d="M362.37,-275.84C375.35,-267.81 394.56,-255.91 409.8,-246.48"/>
<polygon fill="#63b8ff" stroke="#63b8ff" points="411.47,-248.94 418.13,-240.7 407.78,-242.99 411.47,-248.94"/>
</g>
<!-- Node21 -->
<g id="node21" class="node">
<title>Node21</title>
<g id="a_node21"><a xlink:href="_activation_8hpp.html" target="_top" xlink:title=" ">
<polygon fill="white" stroke="#666666" points="316.54,-185 239.04,-185 239.04,-165.75 316.54,-165.75 316.54,-185"/>
<text text-anchor="middle" x="277.79" y="-171.5" font-family="Helvetica,sans-Serif" font-size="10.00">Activation.hpp</text>
</a>
</g>
</g>
<!-- Node20&#45;&gt;Node21 -->
<g id="edge29" class="edge">
<title>Node20&#45;&gt;Node21</title>
<path fill="none" stroke="#63b8ff" d="M243.81,-276C249.78,-258.51 263.16,-219.27 271.23,-195.59"/>
<polygon fill="#63b8ff" stroke="#63b8ff" points="274.8,-196.97 274.72,-186.38 268.18,-194.71 274.8,-196.97"/>
</g>
<!-- Node21&#45;&gt;Node8 -->
<g id="edge30" class="edge">
<title>Node21&#45;&gt;Node8</title>
<path fill="none" stroke="#63b8ff" d="M285.71,-165.58C292.41,-158.15 302.2,-147.29 310.43,-138.16"/>
<polygon fill="#63b8ff" stroke="#63b8ff" points="312.59,-140.88 316.69,-131.11 307.39,-136.19 312.59,-140.88"/>
</g>
<!-- Node22&#45;&gt;Node7 -->
<g id="edge32" class="edge">
<title>Node22&#45;&gt;Node7</title>
<path fill="none" stroke="#63b8ff" d="M706.47,-220.59C680.11,-211.87 639.96,-198.59 610.54,-188.86"/>
<polygon fill="#63b8ff" stroke="#63b8ff" points="611.82,-185.27 601.23,-185.45 609.63,-191.92 611.82,-185.27"/>
</g>
<!-- Node22&#45;&gt;Node10 -->
<g id="edge33" class="edge">
<title>Node22&#45;&gt;Node10</title>
<path fill="none" stroke="#63b8ff" d="M725.22,-220.78C704.7,-199.89 650.61,-146.58 598.79,-110.5 581.88,-98.73 561.54,-87.75 545.22,-79.62"/>
<polygon fill="#63b8ff" stroke="#63b8ff" points="547.17,-76.19 536.65,-74.95 544.1,-82.48 547.17,-76.19"/>
</g>
<!-- Node23&#45;&gt;Node7 -->
<g id="edge35" class="edge">
<title>Node23&#45;&gt;Node7</title>
<path fill="none" stroke="#63b8ff" d="M593.66,-220.83C590.38,-213.86 585.69,-203.87 581.59,-195.12"/>
<polygon fill="#63b8ff" stroke="#63b8ff" points="584.42,-193.92 577,-186.36 578.09,-196.9 584.42,-193.92"/>
</g>
<!-- Node23&#45;&gt;Node10 -->
<g id="edge36" class="edge">
<title>Node23&#45;&gt;Node10</title>
<path fill="none" stroke="#63b8ff" d="M604.21,-220.74C612.43,-208.21 624.72,-184.75 616.79,-165.75 601.27,-128.58 564.44,-98.19 539.81,-81.05"/>
<polygon fill="#63b8ff" stroke="#63b8ff" points="541.98,-77.62 531.73,-74.95 538.07,-83.43 541.98,-77.62"/>
</g>
<!-- Node23&#45;&gt;Node16 -->
<g id="edge37" class="edge">
<title>Node23&#45;&gt;Node16</title>
<path fill="none" stroke="#63b8ff" d="M569.97,-220.59C542.99,-211.83 501.85,-198.48 471.85,-188.73"/>
<polygon fill="#63b8ff" stroke="#63b8ff" points="473.33,-185.21 462.74,-185.45 471.17,-191.87 473.33,-185.21"/>
</g>
</g>
</svg>
