<?xml version="1.0" encoding="UTF-8" standalone="no"?>
<!DOCTYPE svg PUBLIC "-//W3C//DTD SVG 1.1//EN"
 "http://www.w3.org/Graphics/SVG/1.1/DTD/svg11.dtd">
<!-- Generated by graphviz version 8.0.5 (20230430.1635)
 -->
<!-- Title: include/NNFS/Model/NeuralNetwork.hpp Pages: 1 -->
<svg width="1156pt" height="425pt"
 viewBox="0.00 0.00 1155.62 425.25" xmlns="http://www.w3.org/2000/svg" xmlns:xlink="http://www.w3.org/1999/xlink">
<g id="graph0" class="graph" transform="scale(1 1) rotate(0) translate(4 421.25)">
<title>include/NNFS/Model/NeuralNetwork.hpp</title>
<!-- Node1 -->
<g id="Node000001" class="node">
<title>Node1</title>
<g id="a_Node000001"><a xlink:title=" ">
<polygon fill="#999999" stroke="#666666" points="747.38,-417.25 640.62,-417.25 640.62,-386.75 747.38,-386.75 747.38,-417.25"/>
<text text-anchor="start" x="648.62" y="-403.75" font-family="Helvetica,sans-Serif" font-size="10.00">include/NNFS/Model</text>
<text text-anchor="middle" x="694" y="-392.5" font-family="Helvetica,sans-Serif" font-size="10.00">/NeuralNetwork.hpp</text>
</a>
</g>
</g>
<!-- Node2 -->
<g id="Node000002" class="node">
<title>Node2</title>
<g id="a_Node000002"><a xlink:title=" ">
<polygon fill="#e0e0e0" stroke="#999999" points="313.75,-19.25 260.25,-19.25 260.25,0 313.75,0 313.75,-19.25"/>
<text text-anchor="middle" x="287" y="-5.75" font-family="Helvetica,sans-Serif" font-size="10.00">iostream</text>
</a>
</g>
</g>
<!-- Node1&#45;&gt;Node2 -->
<g id="edge1_Node000001_Node000002" class="edge">
<title>Node1&#45;&gt;Node2</title>
<g id="a_edge1_Node000001_Node000002"><a xlink:title=" ">
<path fill="none" stroke="#63b8ff" d="M640.41,-397.83C477.62,-387.51 0,-351.7 0,-286.88 0,-286.88 0,-286.88 0,-119.12 0,-77.01 32.47,-74.37 70,-55.25 127.97,-25.71 204.08,-15.73 249.05,-12.35"/>
<polygon fill="#63b8ff" stroke="#63b8ff" points="249.03,-15.79 258.78,-11.63 248.56,-8.81 249.03,-15.79"/>
</a>
</g>
</g>
<!-- Node3 -->
<g id="Node000003" class="node">
<title>Node3</title>
<g id="a_Node000003"><a xlink:title=" ">
<polygon fill="#e0e0e0" stroke="#999999" points="968.5,-350.75 919.5,-350.75 919.5,-331.5 968.5,-331.5 968.5,-350.75"/>
<text text-anchor="middle" x="944" y="-337.25" font-family="Helvetica,sans-Serif" font-size="10.00">fstream</text>
</a>
</g>
</g>
<!-- Node1&#45;&gt;Node3 -->
<g id="edge2_Node000001_Node000003" class="edge">
<title>Node1&#45;&gt;Node3</title>
<g id="a_edge2_Node000001_Node000003"><a xlink:title=" ">
<path fill="none" stroke="#63b8ff" d="M747.63,-388.37C796.36,-376.89 866.85,-360.29 908.79,-350.42"/>
<polygon fill="#63b8ff" stroke="#63b8ff" points="909.38,-353.64 918.31,-347.94 907.78,-346.82 909.38,-353.64"/>
</a>
</g>
</g>
<!-- Node4 -->
<g id="Node000004" class="node">
<title>Node4</title>
<g id="a_Node000004"><a xlink:title=" ">
<polygon fill="#e0e0e0" stroke="#999999" points="1023.5,-350.75 986.5,-350.75 986.5,-331.5 1023.5,-331.5 1023.5,-350.75"/>
<text text-anchor="middle" x="1005" y="-337.25" font-family="Helvetica,sans-Serif" font-size="10.00">tuple</text>
</a>
</g>
</g>
<!-- Node1&#45;&gt;Node4 -->
<g id="edge3_Node000001_Node000004" class="edge">
<title>Node1&#45;&gt;Node4</title>
<g id="a_edge3_Node000001_Node000004"><a xlink:title=" ">
<path fill="none" stroke="#63b8ff" d="M747.84,-393.67C802.99,-385.68 891.34,-371.51 975.68,-351.07"/>
<polygon fill="#63b8ff" stroke="#63b8ff" points="976.33,-354.27 985.21,-348.48 974.66,-347.47 976.33,-354.27"/>
</a>
</g>
</g>
<!-- Node5 -->
<g id="Node000005" class="node">
<title>Node5</title>
<g id="a_Node000005"><a xlink:title=" ">
<polygon fill="#e0e0e0" stroke="#999999" points="1084.5,-350.75 1041.5,-350.75 1041.5,-331.5 1084.5,-331.5 1084.5,-350.75"/>
<text text-anchor="middle" x="1063" y="-337.25" font-family="Helvetica,sans-Serif" font-size="10.00">vector</text>
</a>
</g>
</g>
<!-- Node1&#45;&gt;Node5 -->
<g id="edge4_Node000001_Node000005" class="edge">
<title>Node1&#45;&gt;Node5</title>
<g id="a_edge4_Node000001_Node000005"><a xlink:title=" ">
<path fill="none" stroke="#63b8ff" d="M747.83,-395.26C812.86,-387.83 925.71,-373.35 1030.67,-351.03"/>
<polygon fill="#63b8ff" stroke="#63b8ff" points="1031.09,-354.31 1040.13,-348.78 1029.62,-347.46 1031.09,-354.31"/>
</a>
</g>
</g>
<!-- Node6 -->
<g id="Node000006" class="node">
<title>Node6</title>
<g id="a_Node000006"><a xlink:title=" ">
<polygon fill="#e0e0e0" stroke="#999999" points="1147.62,-350.75 1102.38,-350.75 1102.38,-331.5 1147.62,-331.5 1147.62,-350.75"/>
<text text-anchor="middle" x="1125" y="-337.25" font-family="Helvetica,sans-Serif" font-size="10.00">chrono</text>
</a>
</g>
</g>
<!-- Node1&#45;&gt;Node6 -->
<g id="edge5_Node000001_Node000006" class="edge">
<title>Node1&#45;&gt;Node6</title>
<g id="a_edge5_Node000001_Node000006"><a xlink:title=" ">
<path fill="none" stroke="#63b8ff" d="M747.78,-396.76C822.85,-390.3 963.39,-376.18 1091.31,-351.05"/>
<polygon fill="#63b8ff" stroke="#63b8ff" points="1091.95,-354.3 1101.07,-348.91 1090.58,-347.43 1091.95,-354.3"/>
</a>
</g>
</g>
<!-- Node7 -->
<g id="Node000007" class="node">
<title>Node7</title>
<g id="a_Node000007"><a xlink:href="_model_8hpp.html" target="_top" xlink:title=" ">
<polygon fill="white" stroke="#666666" points="331.12,-295.5 270.88,-295.5 270.88,-276.25 331.12,-276.25 331.12,-295.5"/>
<text text-anchor="middle" x="301" y="-282" font-family="Helvetica,sans-Serif" font-size="10.00">Model.hpp</text>
</a>
</g>
</g>
<!-- Node1&#45;&gt;Node7 -->
<g id="edge6_Node000001_Node000007" class="edge">
<title>Node1&#45;&gt;Node7</title>
<g id="a_edge6_Node000001_Node000007"><a xlink:title=" ">
<path fill="none" stroke="#63b8ff" d="M640.15,-398.48C554.82,-393.62 393.25,-380.68 345,-350.75 327.87,-340.12 315.73,-320.09 308.6,-305.28"/>
<polygon fill="#63b8ff" stroke="#63b8ff" points="311.57,-304.33 304.3,-296.63 305.18,-307.19 311.57,-304.33"/>
</a>
</g>
</g>
<!-- Node9 -->
<g id="Node000009" class="node">
<title>Node9</title>
<g id="a_Node000009"><a xlink:href="_layer_8hpp.html" target="_top" xlink:title=" ">
<polygon fill="white" stroke="#666666" points="504.25,-129.75 411.75,-129.75 411.75,-110.5 504.25,-110.5 504.25,-129.75"/>
<text text-anchor="middle" x="458" y="-116.25" font-family="Helvetica,sans-Serif" font-size="10.00">../Layer/Layer.hpp</text>
</a>
</g>
</g>
<!-- Node1&#45;&gt;Node9 -->
<g id="edge23_Node000001_Node000009" class="edge">
<title>Node1&#45;&gt;Node9</title>
<g id="a_edge23_Node000001_Node000009"><a xlink:title=" ">
<path fill="none" stroke="#63b8ff" d="M747.64,-387.23C781.87,-377.98 826.96,-364.93 866,-350.75 886.06,-343.46 889.72,-338.16 910,-331.5 981.07,-308.14 1114.93,-335.3 1069,-276.25 1000.55,-188.25 654.08,-142.07 515.45,-126.88"/>
<polygon fill="#63b8ff" stroke="#63b8ff" points="515.97,-123.31 505.65,-125.71 515.22,-130.27 515.97,-123.31"/>
</a>
</g>
</g>
<!-- Node15 -->
<g id="Node000015" class="node">
<title>Node15</title>
<g id="a_Node000015"><a xlink:href="_loss_8hpp.html" target="_top" xlink:title=" ">
<polygon fill="white" stroke="#666666" points="444,-240.25 356,-240.25 356,-221 444,-221 444,-240.25"/>
<text text-anchor="middle" x="400" y="-226.75" font-family="Helvetica,sans-Serif" font-size="10.00">../Loss/Loss.hpp</text>
</a>
</g>
</g>
<!-- Node1&#45;&gt;Node15 -->
<g id="edge35_Node000001_Node000015" class="edge">
<title>Node1&#45;&gt;Node15</title>
<g id="a_edge35_Node000001_Node000015"><a xlink:title=" ">
<path fill="none" stroke="#63b8ff" d="M640.32,-396.13C590.56,-390.15 515.34,-377.32 455,-350.75 416.45,-333.77 397.23,-332.97 378,-295.5 370.4,-280.7 377.98,-262.69 386.25,-249.57"/>
<polygon fill="#63b8ff" stroke="#63b8ff" points="389.63,-251.84 392.46,-241.63 383.88,-247.84 389.63,-251.84"/>
</a>
</g>
</g>
<!-- Node16 -->
<g id="Node000016" class="node">
<title>Node16</title>
<g id="a_Node000016"><a xlink:href="_dense_8hpp.html" target="_top" xlink:title=" ">
<polygon fill="white" stroke="#666666" points="404.12,-185 307.88,-185 307.88,-165.75 404.12,-165.75 404.12,-185"/>
<text text-anchor="middle" x="356" y="-171.5" font-family="Helvetica,sans-Serif" font-size="10.00">../Layer/Dense.hpp</text>
</a>
</g>
</g>
<!-- Node1&#45;&gt;Node16 -->
<g id="edge24_Node000001_Node000016" class="edge">
<title>Node1&#45;&gt;Node16</title>
<g id="a_edge24_Node000001_Node000016"><a xlink:title=" ">
<path fill="none" stroke="#63b8ff" d="M640.2,-394.15C586.64,-386.26 509.4,-371.64 488,-350.75 445.26,-309.03 491.55,-266.62 453,-221 440.4,-206.09 421.75,-195.89 404.16,-189.06"/>
<polygon fill="#63b8ff" stroke="#63b8ff" points="405.57,-185.49 394.97,-185.41 403.21,-192.08 405.57,-185.49"/>
</a>
</g>
</g>
<!-- Node18 -->
<g id="Node000018" class="node">
<title>Node18</title>
<g id="a_Node000018"><a xlink:href="_activation_8hpp.html" target="_top" xlink:title=" ">
<polygon fill="white" stroke="#666666" points="801.75,-240.25 670.25,-240.25 670.25,-221 801.75,-221 801.75,-240.25"/>
<text text-anchor="middle" x="736" y="-226.75" font-family="Helvetica,sans-Serif" font-size="10.00">../Activation/Activation.hpp</text>
</a>
</g>
</g>
<!-- Node1&#45;&gt;Node18 -->
<g id="edge25_Node000001_Node000018" class="edge">
<title>Node1&#45;&gt;Node18</title>
<g id="a_edge25_Node000001_Node000018"><a xlink:title=" ">
<path fill="none" stroke="#63b8ff" d="M706.4,-386.51C722,-367.24 747.96,-331.4 758,-295.5 762.39,-279.81 755.54,-262.35 748.36,-249.65"/>
<polygon fill="#63b8ff" stroke="#63b8ff" points="750.99,-248.26 742.73,-241.62 745.04,-251.95 750.99,-248.26"/>
</a>
</g>
</g>
<!-- Node19 -->
<g id="Node000019" class="node">
<title>Node19</title>
<g id="a_Node000019"><a xlink:href="_re_l_u_8hpp.html" target="_top" xlink:title=" ">
<polygon fill="white" stroke="#666666" points="918.75,-295.5 805.25,-295.5 805.25,-276.25 918.75,-276.25 918.75,-295.5"/>
<text text-anchor="middle" x="862" y="-282" font-family="Helvetica,sans-Serif" font-size="10.00">../Activation/ReLU.hpp</text>
</a>
</g>
</g>
<!-- Node1&#45;&gt;Node19 -->
<g id="edge27_Node000001_Node000019" class="edge">
<title>Node1&#45;&gt;Node19</title>
<g id="a_edge27_Node000001_Node000019"><a xlink:title=" ">
<path fill="none" stroke="#63b8ff" d="M727.08,-386.45C746.41,-377.32 770.88,-364.67 791,-350.75 811.32,-336.69 832.05,-317.34 845.82,-303.64"/>
<polygon fill="#63b8ff" stroke="#63b8ff" points="847.9,-306.51 852.43,-296.93 842.92,-301.59 847.9,-306.51"/>
</a>
</g>
</g>
<!-- Node20 -->
<g id="Node000020" class="node">
<title>Node20</title>
<g id="a_Node000020"><a xlink:href="_sigmoid_8hpp.html" target="_top" xlink:title=" ">
<polygon fill="white" stroke="#666666" points="1059.62,-295.5 936.38,-295.5 936.38,-276.25 1059.62,-276.25 1059.62,-295.5"/>
<text text-anchor="middle" x="998" y="-282" font-family="Helvetica,sans-Serif" font-size="10.00">../Activation/Sigmoid.hpp</text>
</a>
</g>
</g>
<!-- Node1&#45;&gt;Node20 -->
<g id="edge29_Node000001_Node000020" class="edge">
<title>Node1&#45;&gt;Node20</title>
<g id="a_edge29_Node000001_Node000020"><a xlink:title=" ">
<path fill="none" stroke="#63b8ff" d="M732.16,-386.38C769.16,-372.25 826.87,-350.26 877,-331.5 906.04,-320.63 939.08,-308.46 963.28,-299.58"/>
<polygon fill="#63b8ff" stroke="#63b8ff" points="964.23,-302.59 972.41,-295.87 961.82,-296.02 964.23,-302.59"/>
</a>
</g>
</g>
<!-- Node21 -->
<g id="Node000021" class="node">
<title>Node21</title>
<g id="a_Node000021"><a xlink:href="_tanh_8hpp.html" target="_top" xlink:title=" ">
<polygon fill="white" stroke="#666666" points="748.88,-295.5 639.12,-295.5 639.12,-276.25 748.88,-276.25 748.88,-295.5"/>
<text text-anchor="middle" x="694" y="-282" font-family="Helvetica,sans-Serif" font-size="10.00">../Activation/Tanh.hpp</text>
</a>
</g>
</g>
<!-- Node1&#45;&gt;Node21 -->
<g id="edge31_Node000001_Node000021" class="edge">
<title>Node1&#45;&gt;Node21</title>
<g id="a_edge31_Node000001_Node000021"><a xlink:title=" ">
<path fill="none" stroke="#63b8ff" d="M694,-386.55C694,-366.31 694,-329.47 694,-306.69"/>
<polygon fill="#63b8ff" stroke="#63b8ff" points="697.5,-306.95 694,-296.95 690.5,-306.95 697.5,-306.95"/>
</a>
</g>
</g>
<!-- Node22 -->
<g id="Node000022" class="node">
<title>Node22</title>
<g id="a_Node000022"><a xlink:href="_softmax_8hpp.html" target="_top" xlink:title=" ">
<polygon fill="white" stroke="#666666" points="621,-295.5 497,-295.5 497,-276.25 621,-276.25 621,-295.5"/>
<text text-anchor="middle" x="559" y="-282" font-family="Helvetica,sans-Serif" font-size="10.00">../Activation/Softmax.hpp</text>
</a>
</g>
</g>
<!-- Node1&#45;&gt;Node22 -->
<g id="edge33_Node000001_Node000022" class="edge">
<title>Node1&#45;&gt;Node22</title>
<g id="a_edge33_Node000001_Node000022"><a xlink:title=" ">
<path fill="none" stroke="#63b8ff" d="M683.44,-386.52C672.08,-371.59 652.95,-348.19 633,-331.5 618.88,-319.69 601.3,-308.95 586.82,-300.97"/>
<polygon fill="#63b8ff" stroke="#63b8ff" points="588.83,-297.54 578.36,-295.9 585.53,-303.71 588.83,-297.54"/>
</a>
</g>
</g>
<!-- Node23 -->
<g id="Node000023" class="node">
<title>Node23</title>
<g id="a_Node000023"><a xlink:href="_c_c_e___softmax_8hpp.html" target="_top" xlink:title=" ">
<polygon fill="white" stroke="#666666" points="624.5,-350.75 497.5,-350.75 497.5,-331.5 624.5,-331.5 624.5,-350.75"/>
<text text-anchor="middle" x="561" y="-337.25" font-family="Helvetica,sans-Serif" font-size="10.00">../Loss/CCE_Softmax.hpp</text>
</a>
</g>
</g>
<!-- Node1&#45;&gt;Node23 -->
<g id="edge36_Node000001_Node000023" class="edge">
<title>Node1&#45;&gt;Node23</title>
<g id="a_edge36_Node000001_Node000023"><a xlink:title=" ">
<path fill="none" stroke="#63b8ff" d="M660.78,-386.3C639.46,-376.85 611.98,-364.69 591.26,-355.52"/>
<polygon fill="#63b8ff" stroke="#63b8ff" points="592.96,-352 582.4,-351.15 590.12,-358.4 592.96,-352"/>
</a>
</g>
</g>
<!-- Node25 -->
<g id="Node000025" class="node">
<title>Node25</title>
<g id="a_Node000025"><a xlink:href="_metrics_8hpp.html" target="_top" xlink:title=" ">
<polygon fill="white" stroke="#666666" points="251.5,-129.75 142.5,-129.75 142.5,-110.5 251.5,-110.5 251.5,-129.75"/>
<text text-anchor="middle" x="197" y="-116.25" font-family="Helvetica,sans-Serif" font-size="10.00">../Metrics/Metrics.hpp</text>
</a>
</g>
</g>
<!-- Node1&#45;&gt;Node25 -->
<g id="edge40_Node000001_Node000025" class="edge">
<title>Node1&#45;&gt;Node25</title>
<g id="a_edge40_Node000001_Node000025"><a xlink:title=" ">
<path fill="none" stroke="#63b8ff" d="M640.35,-398.3C544.89,-392.84 349.75,-378.59 288,-350.75 220.4,-320.28 193.47,-307.85 163,-240.25 147.53,-205.94 169.1,-162.87 184.3,-139.05"/>
<polygon fill="#63b8ff" stroke="#63b8ff" points="187.63,-141.36 190.29,-131.1 181.82,-137.46 187.63,-141.36"/>
</a>
</g>
</g>
<!-- Node26 -->
<g id="Node000026" class="node">
<title>Node26</title>
<g id="a_Node000026"><a xlink:href="_optimizer_8hpp.html" target="_top" xlink:title=" ">
<polygon fill="white" stroke="#666666" points="299.5,-240.25 172.5,-240.25 172.5,-221 299.5,-221 299.5,-240.25"/>
<text text-anchor="middle" x="236" y="-226.75" font-family="Helvetica,sans-Serif" font-size="10.00">../Optimizer/Optimizer.hpp</text>
</a>
</g>
</g>
<!-- Node1&#45;&gt;Node26 -->
<g id="edge43_Node000001_Node000026" class="edge">
<title>Node1&#45;&gt;Node26</title>
<g id="a_edge43_Node000001_Node000026"><a xlink:title=" ">
<path fill="none" stroke="#63b8ff" d="M640.23,-397.71C551.15,-391.61 377.3,-376.73 322,-350.75 289.19,-335.33 282.66,-325.28 262,-295.5 252.5,-281.81 245.64,-264.11 241.36,-250.82"/>
<polygon fill="#63b8ff" stroke="#63b8ff" points="244.49,-250.06 238.27,-241.49 237.78,-252.07 244.49,-250.06"/>
</a>
</g>
</g>
<!-- Node8 -->
<g id="Node000008" class="node">
<title>Node8</title>
<g id="a_Node000008"><a xlink:title=" ">
<polygon fill="#e0e0e0" stroke="#999999" points="149.38,-74.5 78.62,-74.5 78.62,-55.25 149.38,-55.25 149.38,-74.5"/>
<text text-anchor="middle" x="114" y="-61" font-family="Helvetica,sans-Serif" font-size="10.00">Eigen/Dense</text>
</a>
</g>
</g>
<!-- Node7&#45;&gt;Node8 -->
<g id="edge7_Node000007_Node000008" class="edge">
<title>Node7&#45;&gt;Node8</title>
<g id="a_edge7_Node000007_Node000008"><a xlink:title=" ">
<path fill="none" stroke="#63b8ff" d="M270.56,-281.81C220.56,-274.87 123.06,-252.85 88,-185 72.8,-155.58 78.1,-142.4 87,-110.5 89.67,-100.93 95.01,-91.37 100.24,-83.57"/>
<polygon fill="#63b8ff" stroke="#63b8ff" points="103.58,-85.91 106.6,-75.75 97.91,-81.82 103.58,-85.91"/>
</a>
</g>
</g>
<!-- Node7&#45;&gt;Node9 -->
<g id="edge8_Node000007_Node000009" class="edge">
<title>Node7&#45;&gt;Node9</title>
<g id="a_edge8_Node000007_Node000009"><a xlink:title=" ">
<path fill="none" stroke="#63b8ff" d="M305.63,-276.07C312.97,-262.8 328.35,-237.46 347,-221 372.05,-198.89 388.06,-207.24 413,-185 427.68,-171.91 440.17,-153.15 448.24,-139.35"/>
<polygon fill="#63b8ff" stroke="#63b8ff" points="451.68,-141.37 453.51,-130.93 445.57,-137.95 451.68,-141.37"/>
</a>
</g>
</g>
<!-- Node7&#45;&gt;Node15 -->
<g id="edge16_Node000007_Node000015" class="edge">
<title>Node7&#45;&gt;Node15</title>
<g id="a_edge16_Node000007_Node000015"><a xlink:title=" ">
<path fill="none" stroke="#63b8ff" d="M317.79,-275.84C333.15,-267.58 356.12,-255.23 373.88,-245.68"/>
<polygon fill="#63b8ff" stroke="#63b8ff" points="374.97,-248.52 382.12,-240.7 371.66,-242.36 374.97,-248.52"/>
</a>
</g>
</g>
<!-- Node9&#45;&gt;Node8 -->
<g id="edge9_Node000009_Node000008" class="edge">
<title>Node9&#45;&gt;Node8</title>
<g id="a_edge9_Node000009_Node000008"><a xlink:title=" ">
<path fill="none" stroke="#63b8ff" d="M411.49,-111.82C408.62,-111.38 405.77,-110.93 403,-110.5 317.41,-97.18 217.53,-81.79 160.43,-73.01"/>
<polygon fill="#63b8ff" stroke="#63b8ff" points="161.01,-69.4 150.6,-71.34 159.95,-76.32 161.01,-69.4"/>
</a>
</g>
</g>
<!-- Node10 -->
<g id="Node000010" class="node">
<title>Node10</title>
<g id="a_Node000010"><a xlink:href="clue_8hpp.html" target="_top" xlink:title=" ">
<polygon fill="white" stroke="#666666" points="472.75,-74.5 377.25,-74.5 377.25,-55.25 472.75,-55.25 472.75,-74.5"/>
<text text-anchor="middle" x="425" y="-61" font-family="Helvetica,sans-Serif" font-size="10.00">../Utilities/clue.hpp</text>
</a>
</g>
</g>
<!-- Node9&#45;&gt;Node10 -->
<g id="edge10_Node000009_Node000010" class="edge">
<title>Node9&#45;&gt;Node10</title>
<g id="a_edge10_Node000009_Node000010"><a xlink:title=" ">
<path fill="none" stroke="#63b8ff" d="M452.55,-110.33C448.13,-103.21 441.76,-92.93 436.26,-84.05"/>
<polygon fill="#63b8ff" stroke="#63b8ff" points="438.81,-82.52 430.57,-75.86 432.86,-86.2 438.81,-82.52"/>
</a>
</g>
</g>
<!-- Node10&#45;&gt;Node2 -->
<g id="edge14_Node000010_Node000002" class="edge">
<title>Node10&#45;&gt;Node2</title>
<g id="a_edge14_Node000010_Node000002"><a xlink:title=" ">
<path fill="none" stroke="#63b8ff" d="M401.59,-54.84C379.39,-46.27 345.78,-33.31 320.7,-23.63"/>
<polygon fill="#63b8ff" stroke="#63b8ff" points="322.11,-20.04 311.52,-19.7 319.59,-26.57 322.11,-20.04"/>
</a>
</g>
</g>
<!-- Node11 -->
<g id="Node000011" class="node">
<title>Node11</title>
<g id="a_Node000011"><a xlink:title=" ">
<polygon fill="#e0e0e0" stroke="#999999" points="574.88,-19.25 525.12,-19.25 525.12,0 574.88,0 574.88,-19.25"/>
<text text-anchor="middle" x="550" y="-5.75" font-family="Helvetica,sans-Serif" font-size="10.00">iomanip</text>
</a>
</g>
</g>
<!-- Node10&#45;&gt;Node11 -->
<g id="edge11_Node000010_Node000011" class="edge">
<title>Node10&#45;&gt;Node11</title>
<g id="a_edge11_Node000010_Node000011"><a xlink:title=" ">
<path fill="none" stroke="#63b8ff" d="M446.2,-54.84C466.14,-46.35 496.21,-33.54 518.87,-23.89"/>
<polygon fill="#63b8ff" stroke="#63b8ff" points="519.86,-26.84 527.69,-19.7 517.12,-20.4 519.86,-26.84"/>
</a>
</g>
</g>
<!-- Node12 -->
<g id="Node000012" class="node">
<title>Node12</title>
<g id="a_Node000012"><a xlink:title=" ">
<polygon fill="#e0e0e0" stroke="#999999" points="382.62,-19.25 331.38,-19.25 331.38,0 382.62,0 382.62,-19.25"/>
<text text-anchor="middle" x="357" y="-5.75" font-family="Helvetica,sans-Serif" font-size="10.00">sstream</text>
</a>
</g>
</g>
<!-- Node10&#45;&gt;Node12 -->
<g id="edge12_Node000010_Node000012" class="edge">
<title>Node10&#45;&gt;Node12</title>
<g id="a_edge12_Node000010_Node000012"><a xlink:title=" ">
<path fill="none" stroke="#63b8ff" d="M413.46,-54.84C403.44,-46.99 388.7,-35.45 376.79,-26.12"/>
<polygon fill="#63b8ff" stroke="#63b8ff" points="379.4,-22.93 369.36,-19.52 375.08,-28.45 379.4,-22.93"/>
</a>
</g>
</g>
<!-- Node13 -->
<g id="Node000013" class="node">
<title>Node13</title>
<g id="a_Node000013"><a xlink:title=" ">
<polygon fill="#e0e0e0" stroke="#999999" points="449.12,-19.25 400.88,-19.25 400.88,0 449.12,0 449.12,-19.25"/>
<text text-anchor="middle" x="425" y="-5.75" font-family="Helvetica,sans-Serif" font-size="10.00">cassert</text>
</a>
</g>
</g>
<!-- Node10&#45;&gt;Node13 -->
<g id="edge13_Node000010_Node000013" class="edge">
<title>Node10&#45;&gt;Node13</title>
<g id="a_edge13_Node000010_Node000013"><a xlink:title=" ">
<path fill="none" stroke="#63b8ff" d="M425,-55.08C425,-48.42 425,-38.99 425,-30.53"/>
<polygon fill="#63b8ff" stroke="#63b8ff" points="428.5,-30.61 425,-20.61 421.5,-30.61 428.5,-30.61"/>
</a>
</g>
</g>
<!-- Node14 -->
<g id="Node000014" class="node">
<title>Node14</title>
<g id="a_Node000014"><a xlink:title=" ">
<polygon fill="#e0e0e0" stroke="#999999" points="507,-19.25 467,-19.25 467,0 507,0 507,-19.25"/>
<text text-anchor="middle" x="487" y="-5.75" font-family="Helvetica,sans-Serif" font-size="10.00">ctime</text>
</a>
</g>
</g>
<!-- Node10&#45;&gt;Node14 -->
<g id="edge15_Node000010_Node000014" class="edge">
<title>Node10&#45;&gt;Node14</title>
<g id="a_edge15_Node000010_Node000014"><a xlink:title=" ">
<path fill="none" stroke="#63b8ff" d="M435.52,-54.84C444.48,-47.15 457.57,-35.9 468.31,-26.68"/>
<polygon fill="#63b8ff" stroke="#63b8ff" points="470.33,-28.7 475.64,-19.52 465.77,-23.39 470.33,-28.7"/>
</a>
</g>
</g>
<!-- Node15&#45;&gt;Node8 -->
<g id="edge17_Node000015_Node000008" class="edge">
<title>Node15&#45;&gt;Node8</title>
<g id="a_edge17_Node000015_Node000008"><a xlink:title=" ">
<path fill="none" stroke="#63b8ff" d="M355.74,-225.15C296.64,-216.82 192.52,-193.52 133,-129.75 121.89,-117.84 117.25,-99.72 115.33,-85.81"/>
<polygon fill="#63b8ff" stroke="#63b8ff" points="118.72,-85.55 114.24,-75.94 111.75,-86.24 118.72,-85.55"/>
</a>
</g>
</g>
<!-- Node15&#45;&gt;Node10 -->
<g id="edge18_Node000015_Node000010" class="edge">
<title>Node15&#45;&gt;Node10</title>
<g id="a_edge18_Node000015_Node000010"><a xlink:title=" ">
<path fill="none" stroke="#63b8ff" d="M417.52,-220.55C444.03,-205.7 493.31,-173.43 513,-129.75 523.83,-105.71 496.66,-88.89 469.72,-78.57"/>
<polygon fill="#63b8ff" stroke="#63b8ff" points="471.08,-74.98 460.49,-74.93 468.73,-81.58 471.08,-74.98"/>
</a>
</g>
</g>
<!-- Node15&#45;&gt;Node16 -->
<g id="edge19_Node000015_Node000016" class="edge">
<title>Node15&#45;&gt;Node16</title>
<g id="a_edge19_Node000015_Node000016"><a xlink:title=" ">
<path fill="none" stroke="#63b8ff" d="M392.73,-220.83C386.66,-213.48 377.8,-202.76 370.31,-193.69"/>
<polygon fill="#63b8ff" stroke="#63b8ff" points="372.49,-191.84 363.42,-186.36 367.1,-196.3 372.49,-191.84"/>
</a>
</g>
</g>
<!-- Node16&#45;&gt;Node2 -->
<g id="edge20_Node000016_Node000002" class="edge">
<title>Node16&#45;&gt;Node2</title>
<g id="a_edge20_Node000016_Node000002"><a xlink:title=" ">
<path fill="none" stroke="#63b8ff" d="M352.2,-165.49C348.36,-156.49 342.25,-142.16 337,-129.75 322.06,-94.42 304.77,-53.13 294.93,-29.61"/>
<polygon fill="#63b8ff" stroke="#63b8ff" points="297.83,-28.47 290.75,-20.6 291.38,-31.17 297.83,-28.47"/>
</a>
</g>
</g>
<!-- Node16&#45;&gt;Node9 -->
<g id="edge22_Node000016_Node000009" class="edge">
<title>Node16&#45;&gt;Node9</title>
<g id="a_edge22_Node000016_Node000009"><a xlink:title=" ">
<path fill="none" stroke="#63b8ff" d="M373.3,-165.34C389.13,-157.08 412.79,-144.73 431.08,-135.18"/>
<polygon fill="#63b8ff" stroke="#63b8ff" points="432.37,-137.93 439.61,-130.2 429.13,-131.73 432.37,-137.93"/>
</a>
</g>
</g>
<!-- Node17 -->
<g id="Node000017" class="node">
<title>Node17</title>
<g id="a_Node000017"><a xlink:title=" ">
<polygon fill="#e0e0e0" stroke="#999999" points="394.12,-129.75 345.88,-129.75 345.88,-110.5 394.12,-110.5 394.12,-129.75"/>
<text text-anchor="middle" x="370" y="-116.25" font-family="Helvetica,sans-Serif" font-size="10.00">random</text>
</a>
</g>
</g>
<!-- Node16&#45;&gt;Node17 -->
<g id="edge21_Node000016_Node000017" class="edge">
<title>Node16&#45;&gt;Node17</title>
<g id="a_edge21_Node000016_Node000017"><a xlink:title=" ">
<path fill="none" stroke="#63b8ff" d="M358.31,-165.58C360.08,-158.84 362.6,-149.27 364.84,-140.74"/>
<polygon fill="#63b8ff" stroke="#63b8ff" points="368.48,-141.67 367.64,-131.11 361.71,-139.89 368.48,-141.67"/>
</a>
</g>
</g>
<!-- Node18&#45;&gt;Node9 -->
<g id="edge26_Node000018_Node000009" class="edge">
<title>Node18&#45;&gt;Node9</title>
<g id="a_edge26_Node000018_Node000009"><a xlink:title=" ">
<path fill="none" stroke="#63b8ff" d="M712.78,-220.56C663.51,-201.33 548.39,-156.4 491.31,-134.12"/>
<polygon fill="#63b8ff" stroke="#63b8ff" points="492.94,-130.61 482.35,-130.24 490.4,-137.14 492.94,-130.61"/>
</a>
</g>
</g>
<!-- Node19&#45;&gt;Node18 -->
<g id="edge28_Node000019_Node000018" class="edge">
<title>Node19&#45;&gt;Node18</title>
<g id="a_edge28_Node000019_Node000018"><a xlink:title=" ">
<path fill="none" stroke="#63b8ff" d="M840.63,-275.84C820.53,-267.35 790.22,-254.54 767.38,-244.89"/>
<polygon fill="#63b8ff" stroke="#63b8ff" points="769.05,-241.37 758.48,-240.7 766.33,-247.82 769.05,-241.37"/>
</a>
</g>
</g>
<!-- Node20&#45;&gt;Node18 -->
<g id="edge30_Node000020_Node000018" class="edge">
<title>Node20&#45;&gt;Node18</title>
<g id="a_edge30_Node000020_Node000018"><a xlink:title=" ">
<path fill="none" stroke="#63b8ff" d="M953.26,-275.78C908.42,-266.67 839.31,-252.62 791.11,-242.83"/>
<polygon fill="#63b8ff" stroke="#63b8ff" points="792.05,-239.24 781.56,-240.68 790.66,-246.1 792.05,-239.24"/>
</a>
</g>
</g>
<!-- Node21&#45;&gt;Node18 -->
<g id="edge32_Node000021_Node000018" class="edge">
<title>Node21&#45;&gt;Node18</title>
<g id="a_edge32_Node000021_Node000018"><a xlink:title=" ">
<path fill="none" stroke="#63b8ff" d="M700.94,-276.08C706.68,-268.8 715.01,-258.23 722.12,-249.23"/>
<polygon fill="#63b8ff" stroke="#63b8ff" points="725.47,-251.63 728.91,-241.61 719.97,-247.29 725.47,-251.63"/>
</a>
</g>
</g>
<!-- Node22&#45;&gt;Node18 -->
<g id="edge34_Node000022_Node000018" class="edge">
<title>Node22&#45;&gt;Node18</title>
<g id="a_edge34_Node000022_Node000018"><a xlink:title=" ">
<path fill="none" stroke="#63b8ff" d="M589.03,-275.84C618.27,-267.04 662.93,-253.61 695.34,-243.86"/>
<polygon fill="#63b8ff" stroke="#63b8ff" points="696.26,-246.94 704.83,-240.7 694.24,-240.23 696.26,-246.94"/>
</a>
</g>
</g>
<!-- Node23&#45;&gt;Node22 -->
<g id="edge39_Node000023_Node000022" class="edge">
<title>Node23&#45;&gt;Node22</title>
<g id="a_edge39_Node000023_Node000022"><a xlink:title=" ">
<path fill="none" stroke="#63b8ff" d="M560.67,-331.33C560.42,-324.67 560.07,-315.24 559.75,-306.78"/>
<polygon fill="#63b8ff" stroke="#63b8ff" points="563.21,-306.72 559.34,-296.86 556.22,-306.98 563.21,-306.72"/>
</a>
</g>
</g>
<!-- Node24 -->
<g id="Node000024" class="node">
<title>Node24</title>
<g id="a_Node000024"><a xlink:href="_c_c_e_8hpp.html" target="_top" xlink:title=" ">
<polygon fill="white" stroke="#666666" points="440.75,-295.5 387.25,-295.5 387.25,-276.25 440.75,-276.25 440.75,-295.5"/>
<text text-anchor="middle" x="414" y="-282" font-family="Helvetica,sans-Serif" font-size="10.00">CCE.hpp</text>
</a>
</g>
</g>
<!-- Node23&#45;&gt;Node24 -->
<g id="edge37_Node000023_Node000024" class="edge">
<title>Node23&#45;&gt;Node24</title>
<g id="a_edge37_Node000023_Node000024"><a xlink:title=" ">
<path fill="none" stroke="#63b8ff" d="M536.06,-331.09C512.2,-322.45 475.97,-309.32 449.18,-299.62"/>
<polygon fill="#63b8ff" stroke="#63b8ff" points="450.65,-296.07 440.06,-295.95 448.27,-302.65 450.65,-296.07"/>
</a>
</g>
</g>
<!-- Node24&#45;&gt;Node15 -->
<g id="edge38_Node000024_Node000015" class="edge">
<title>Node24&#45;&gt;Node15</title>
<g id="a_edge38_Node000024_Node000015"><a xlink:title=" ">
<path fill="none" stroke="#63b8ff" d="M411.69,-276.08C409.92,-269.34 407.4,-259.77 405.16,-251.24"/>
<polygon fill="#63b8ff" stroke="#63b8ff" points="408.29,-250.39 402.36,-241.61 401.52,-252.17 408.29,-250.39"/>
</a>
</g>
</g>
<!-- Node25&#45;&gt;Node8 -->
<g id="edge41_Node000025_Node000008" class="edge">
<title>Node25&#45;&gt;Node8</title>
<g id="a_edge41_Node000025_Node000008"><a xlink:title=" ">
<path fill="none" stroke="#63b8ff" d="M182.92,-110.09C170.4,-102.06 151.85,-90.16 137.15,-80.73"/>
<polygon fill="#63b8ff" stroke="#63b8ff" points="139.46,-77.41 129.15,-74.95 135.68,-83.3 139.46,-77.41"/>
</a>
</g>
</g>
<!-- Node25&#45;&gt;Node10 -->
<g id="edge42_Node000025_Node000010" class="edge">
<title>Node25&#45;&gt;Node10</title>
<g id="a_edge42_Node000025_Node000010"><a xlink:title=" ">
<path fill="none" stroke="#63b8ff" d="M235.94,-110.03C274.55,-101.01 333.84,-87.17 375.71,-77.39"/>
<polygon fill="#63b8ff" stroke="#63b8ff" points="376.28,-80.61 385.23,-74.93 374.69,-73.8 376.28,-80.61"/>
</a>
</g>
</g>
<!-- Node26&#45;&gt;Node8 -->
<g id="edge44_Node000026_Node000008" class="edge">
<title>Node26&#45;&gt;Node8</title>
<g id="a_edge44_Node000026_Node000008"><a xlink:title=" ">
<path fill="none" stroke="#63b8ff" d="M189.92,-220.53C154.85,-212.57 110.82,-199.94 100,-185 78.51,-155.33 93.17,-110.16 104.45,-84.83"/>
<polygon fill="#63b8ff" stroke="#63b8ff" points="107.99,-86.53 109.1,-75.99 101.66,-83.53 107.99,-86.53"/>
</a>
</g>
</g>
<!-- Node26&#45;&gt;Node10 -->
<g id="edge45_Node000026_Node000010" class="edge">
<title>Node26&#45;&gt;Node10</title>
<g id="a_edge45_Node000026_Node000010"><a xlink:title=" ">
<path fill="none" stroke="#63b8ff" d="M241.64,-220.81C255.61,-199.53 293.8,-144.61 337,-110.5 353.41,-97.54 374.17,-86.8 391.41,-79.1"/>
<polygon fill="#63b8ff" stroke="#63b8ff" points="392.29,-82.1 400.09,-74.93 389.52,-75.67 392.29,-82.1"/>
</a>
</g>
</g>
<!-- Node26&#45;&gt;Node16 -->
<g id="edge46_Node000026_Node000016" class="edge">
<title>Node26&#45;&gt;Node16</title>
<g id="a_edge46_Node000026_Node000016"><a xlink:title=" ">
<path fill="none" stroke="#63b8ff" d="M256.36,-220.59C275.32,-212.18 303.85,-199.52 325.52,-189.9"/>
<polygon fill="#63b8ff" stroke="#63b8ff" points="326.82,-192.71 334.54,-185.45 323.98,-186.31 326.82,-192.71"/>
</a>
</g>
</g>
</g>
</svg>
