<?xml version="1.0" encoding="UTF-8" standalone="no"?>
<!DOCTYPE svg PUBLIC "-//W3C//DTD SVG 1.1//EN"
 "http://www.w3.org/Graphics/SVG/1.1/DTD/svg11.dtd">
<!-- Generated by graphviz version 8.0.2 (20230410.1723)
 -->
<!-- Title: include/NNFSCore/Model/NeuralNetwork.hpp Pages: 1 -->
<svg width="814pt" height="258pt"
 viewBox="0.00 0.00 813.50 258.00" xmlns="http://www.w3.org/2000/svg" xmlns:xlink="http://www.w3.org/1999/xlink">
<g id="graph0" class="graph" transform="scale(1 1) rotate(0) translate(4 254)">
<title>include/NNFSCore/Model/NeuralNetwork.hpp</title>
<!-- Node1 -->
<g id="node1" class="node">
<title>Node1</title>
<g id="a_node1"><a xlink:title=" ">
<polygon fill="#999999" stroke="#666666" points="438,-250 310,-250 310,-220 438,-220 438,-250"/>
<text text-anchor="start" x="318" y="-238" font-family="Helvetica,sans-Serif" font-size="10.00">include/NNFSCore/Model</text>
<text text-anchor="middle" x="374" y="-227" font-family="Helvetica,sans-Serif" font-size="10.00">/NeuralNetwork.hpp</text>
</a>
</g>
</g>
<!-- Node2 -->
<g id="node2" class="node">
<title>Node2</title>
<g id="a_node2"><a xlink:title=" ">
<polygon fill="#e0e0e0" stroke="#999999" points="54,-129 0,-129 0,-110 54,-110 54,-129"/>
<text text-anchor="middle" x="27" y="-117" font-family="Helvetica,sans-Serif" font-size="10.00">iostream</text>
</a>
</g>
</g>
<!-- Node1&#45;&gt;Node2 -->
<g id="edge1" class="edge">
<title>Node1&#45;&gt;Node2</title>
<path fill="none" stroke="#63b8ff" d="M309.54,-232.9C250.56,-229.55 162.32,-218.5 94,-184 71.97,-172.87 52.19,-152.15 39.93,-137.4"/>
<polygon fill="#63b8ff" stroke="#63b8ff" points="42.3,-135.76 33.32,-130.13 36.83,-140.13 42.3,-135.76"/>
</g>
<!-- Node3 -->
<g id="node3" class="node">
<title>Node3</title>
<g id="a_node3"><a xlink:title=" ">
<polygon fill="#e0e0e0" stroke="#999999" points="309,-184 271,-184 271,-165 309,-165 309,-184"/>
<text text-anchor="middle" x="290" y="-172" font-family="Helvetica,sans-Serif" font-size="10.00">tuple</text>
</a>
</g>
</g>
<!-- Node1&#45;&gt;Node3 -->
<g id="edge2" class="edge">
<title>Node1&#45;&gt;Node3</title>
<path fill="none" stroke="#63b8ff" d="M353.24,-219.54C340.41,-210.61 324.01,-199.18 311.12,-190.21"/>
<polygon fill="#63b8ff" stroke="#63b8ff" points="313.66,-187.02 303.46,-184.18 309.66,-192.76 313.66,-187.02"/>
</g>
<!-- Node4 -->
<g id="node4" class="node">
<title>Node4</title>
<g id="a_node4"><a xlink:title=" ">
<polygon fill="#e0e0e0" stroke="#999999" points="371,-184 327,-184 327,-165 371,-165 371,-184"/>
<text text-anchor="middle" x="349" y="-172" font-family="Helvetica,sans-Serif" font-size="10.00">vector</text>
</a>
</g>
</g>
<!-- Node1&#45;&gt;Node4 -->
<g id="edge3" class="edge">
<title>Node1&#45;&gt;Node4</title>
<path fill="none" stroke="#63b8ff" d="M367.82,-219.54C364.56,-211.91 360.52,-202.46 357.02,-194.27"/>
<polygon fill="#63b8ff" stroke="#63b8ff" points="359.86,-193 352.71,-185.18 353.42,-195.75 359.86,-193"/>
</g>
<!-- Node5 -->
<g id="node5" class="node">
<title>Node5</title>
<g id="a_node5"><a xlink:href="_model_8hpp.html" target="_top" xlink:title=" ">
<polygon fill="white" stroke="#666666" points="503.5,-184 442.5,-184 442.5,-165 503.5,-165 503.5,-184"/>
<text text-anchor="middle" x="473" y="-172" font-family="Helvetica,sans-Serif" font-size="10.00">Model.hpp</text>
</a>
</g>
</g>
<!-- Node1&#45;&gt;Node5 -->
<g id="edge4" class="edge">
<title>Node1&#45;&gt;Node5</title>
<path fill="none" stroke="#63b8ff" d="M398.47,-219.54C413.78,-210.49 433.43,-198.88 448.71,-189.85"/>
<polygon fill="#63b8ff" stroke="#63b8ff" points="450.2,-192.45 457.03,-184.35 446.64,-186.42 450.2,-192.45"/>
</g>
<!-- Node7 -->
<g id="node7" class="node">
<title>Node7</title>
<g id="a_node7"><a xlink:href="_activation_8hpp.html" target="_top" xlink:title=" ">
<polygon fill="white" stroke="#666666" points="698,-129 566,-129 566,-110 698,-110 698,-129"/>
<text text-anchor="middle" x="632" y="-117" font-family="Helvetica,sans-Serif" font-size="10.00">../Activation/Activation.hpp</text>
</a>
</g>
</g>
<!-- Node1&#45;&gt;Node7 -->
<g id="edge17" class="edge">
<title>Node1&#45;&gt;Node7</title>
<path fill="none" stroke="#63b8ff" d="M418.75,-219.55C446.06,-210.3 481.48,-197.53 512,-184 545.94,-168.96 583.54,-148.39 607.45,-134.79"/>
<polygon fill="#63b8ff" stroke="#63b8ff" points="608.87,-137.43 615.81,-129.42 605.39,-131.36 608.87,-137.43"/>
</g>
<!-- Node11 -->
<g id="node11" class="node">
<title>Node11</title>
<g id="a_node11"><a xlink:href="_layer_8hpp.html" target="_top" xlink:title=" ">
<polygon fill="white" stroke="#666666" points="371.5,-129 278.5,-129 278.5,-110 371.5,-110 371.5,-129"/>
<text text-anchor="middle" x="325" y="-117" font-family="Helvetica,sans-Serif" font-size="10.00">../Layer/Layer.hpp</text>
</a>
</g>
</g>
<!-- Node1&#45;&gt;Node11 -->
<g id="edge16" class="edge">
<title>Node1&#45;&gt;Node11</title>
<path fill="none" stroke="#63b8ff" d="M379.31,-219.76C383.82,-205.26 388.34,-182.47 380,-165 374.11,-152.65 362.93,-142.63 352.19,-135.24"/>
<polygon fill="#63b8ff" stroke="#63b8ff" points="354.32,-131.82 344,-129.43 350.58,-137.73 354.32,-131.82"/>
</g>
<!-- Node13 -->
<g id="node13" class="node">
<title>Node13</title>
<g id="a_node13"><a xlink:href="_loss_8hpp.html" target="_top" xlink:title=" ">
<polygon fill="white" stroke="#666666" points="805.5,-129 716.5,-129 716.5,-110 805.5,-110 805.5,-129"/>
<text text-anchor="middle" x="761" y="-117" font-family="Helvetica,sans-Serif" font-size="10.00">../Loss/Loss.hpp</text>
</a>
</g>
</g>
<!-- Node1&#45;&gt;Node13 -->
<g id="edge18" class="edge">
<title>Node1&#45;&gt;Node13</title>
<path fill="none" stroke="#63b8ff" d="M423.39,-219.58C457.55,-209.6 504.04,-196.01 545,-184 606.03,-166.11 676.74,-145.31 720.17,-132.52"/>
<polygon fill="#63b8ff" stroke="#63b8ff" points="720.99,-135.63 729.6,-129.45 719.02,-128.92 720.99,-135.63"/>
</g>
<!-- Node14 -->
<g id="node14" class="node">
<title>Node14</title>
<g id="a_node14"><a xlink:href="_progress_bar_8hpp.html" target="_top" xlink:title=" ">
<polygon fill="white" stroke="#666666" points="222.5,-184 103.5,-184 103.5,-165 222.5,-165 222.5,-184"/>
<text text-anchor="middle" x="163" y="-172" font-family="Helvetica,sans-Serif" font-size="10.00">../Utils/ProgressBar.hpp</text>
</a>
</g>
</g>
<!-- Node1&#45;&gt;Node14 -->
<g id="edge19" class="edge">
<title>Node1&#45;&gt;Node14</title>
<path fill="none" stroke="#63b8ff" d="M321.84,-219.54C286.05,-209.62 239.15,-196.61 205.61,-187.31"/>
<polygon fill="#63b8ff" stroke="#63b8ff" points="206.79,-183.73 196.22,-184.43 204.92,-190.48 206.79,-183.73"/>
</g>
<!-- Node6 -->
<g id="node6" class="node">
<title>Node6</title>
<g id="a_node6"><a xlink:title=" ">
<polygon fill="#e0e0e0" stroke="#999999" points="437.5,-74 366.5,-74 366.5,-55 437.5,-55 437.5,-74"/>
<text text-anchor="middle" x="402" y="-62" font-family="Helvetica,sans-Serif" font-size="10.00">Eigen/Dense</text>
</a>
</g>
</g>
<!-- Node5&#45;&gt;Node6 -->
<g id="edge5" class="edge">
<title>Node5&#45;&gt;Node6</title>
<path fill="none" stroke="#63b8ff" d="M457.96,-164.81C445.7,-156.97 428.86,-144.33 419,-129 410.49,-115.77 406.22,-98.38 404.08,-85.15"/>
<polygon fill="#63b8ff" stroke="#63b8ff" points="407.44,-84.86 402.67,-75.4 400.5,-85.77 407.44,-84.86"/>
</g>
<!-- Node5&#45;&gt;Node7 -->
<g id="edge6" class="edge">
<title>Node5&#45;&gt;Node7</title>
<path fill="none" stroke="#63b8ff" d="M499.97,-164.51C526.09,-155.8 565.9,-142.53 594.98,-132.84"/>
<polygon fill="#63b8ff" stroke="#63b8ff" points="595.78,-135.93 604.16,-129.45 593.57,-129.29 595.78,-135.93"/>
</g>
<!-- Node10 -->
<g id="node10" class="node">
<title>Node10</title>
<g id="a_node10"><a xlink:href="_callback_8hpp.html" target="_top" xlink:title=" ">
<polygon fill="white" stroke="#666666" points="548,-129 428,-129 428,-110 548,-110 548,-129"/>
<text text-anchor="middle" x="488" y="-117" font-family="Helvetica,sans-Serif" font-size="10.00">../Callback/Callback.hpp</text>
</a>
</g>
</g>
<!-- Node5&#45;&gt;Node10 -->
<g id="edge9" class="edge">
<title>Node5&#45;&gt;Node10</title>
<path fill="none" stroke="#63b8ff" d="M475.48,-164.75C477.38,-158.04 480.07,-148.52 482.47,-140.02"/>
<polygon fill="#63b8ff" stroke="#63b8ff" points="486.11,-141.02 485.47,-130.44 479.38,-139.11 486.11,-141.02"/>
</g>
<!-- Node5&#45;&gt;Node11 -->
<g id="edge11" class="edge">
<title>Node5&#45;&gt;Node11</title>
<path fill="none" stroke="#63b8ff" d="M447.89,-164.51C423.72,-155.85 386.95,-142.69 359.93,-133.01"/>
<polygon fill="#63b8ff" stroke="#63b8ff" points="361.33,-129.43 350.74,-129.36 358.97,-136.02 361.33,-129.43"/>
</g>
<!-- Node5&#45;&gt;Node13 -->
<g id="edge14" class="edge">
<title>Node5&#45;&gt;Node13</title>
<path fill="none" stroke="#63b8ff" d="M503.82,-167.83C551.84,-158.99 645.21,-141.81 705.26,-130.76"/>
<polygon fill="#63b8ff" stroke="#63b8ff" points="705.86,-134.02 715.06,-128.77 704.6,-127.14 705.86,-134.02"/>
</g>
<!-- Node8 -->
<g id="node8" class="node">
<title>Node8</title>
<g id="a_node8"><a xlink:href="_differentiable_8hpp.html" target="_top" xlink:title=" ">
<polygon fill="white" stroke="#666666" points="710,-74 570,-74 570,-55 710,-55 710,-74"/>
<text text-anchor="middle" x="640" y="-62" font-family="Helvetica,sans-Serif" font-size="10.00">../Common/Differentiable.hpp</text>
</a>
</g>
</g>
<!-- Node7&#45;&gt;Node8 -->
<g id="edge7" class="edge">
<title>Node7&#45;&gt;Node8</title>
<path fill="none" stroke="#63b8ff" d="M633.32,-109.75C634.32,-103.11 635.74,-93.73 637.01,-85.31"/>
<polygon fill="#63b8ff" stroke="#63b8ff" points="640.62,-85.85 638.65,-75.44 633.7,-84.81 640.62,-85.85"/>
</g>
<!-- Node9 -->
<g id="node9" class="node">
<title>Node9</title>
<g id="a_node9"><a xlink:title=" ">
<polygon fill="#e0e0e0" stroke="#999999" points="721,-19 657,-19 657,0 721,0 721,-19"/>
<text text-anchor="middle" x="689" y="-7" font-family="Helvetica,sans-Serif" font-size="10.00">Eigen/Core</text>
</a>
</g>
</g>
<!-- Node8&#45;&gt;Node9 -->
<g id="edge8" class="edge">
<title>Node8&#45;&gt;Node9</title>
<path fill="none" stroke="#63b8ff" d="M648.09,-54.75C654.93,-47.35 664.93,-36.54 673.32,-27.45"/>
<polygon fill="#63b8ff" stroke="#63b8ff" points="675.51,-30.16 679.73,-20.44 670.37,-25.41 675.51,-30.16"/>
</g>
<!-- Node10&#45;&gt;Node6 -->
<g id="edge10" class="edge">
<title>Node10&#45;&gt;Node6</title>
<path fill="none" stroke="#63b8ff" d="M473.41,-109.51C460.36,-101.47 440.99,-89.53 425.71,-80.11"/>
<polygon fill="#63b8ff" stroke="#63b8ff" points="427.72,-76.62 417.37,-74.36 424.05,-82.58 427.72,-76.62"/>
</g>
<!-- Node11&#45;&gt;Node6 -->
<g id="edge12" class="edge">
<title>Node11&#45;&gt;Node6</title>
<path fill="none" stroke="#63b8ff" d="M338.06,-109.51C349.64,-101.54 366.76,-89.75 380.38,-80.38"/>
<polygon fill="#63b8ff" stroke="#63b8ff" points="381.88,-82.91 388.13,-74.36 377.91,-77.14 381.88,-82.91"/>
</g>
<!-- Node12 -->
<g id="node12" class="node">
<title>Node12</title>
<g id="a_node12"><a xlink:title=" ">
<polygon fill="#e0e0e0" stroke="#999999" points="348.5,-74 297.5,-74 297.5,-55 348.5,-55 348.5,-74"/>
<text text-anchor="middle" x="323" y="-62" font-family="Helvetica,sans-Serif" font-size="10.00">memory</text>
</a>
</g>
</g>
<!-- Node11&#45;&gt;Node12 -->
<g id="edge13" class="edge">
<title>Node11&#45;&gt;Node12</title>
<path fill="none" stroke="#63b8ff" d="M324.67,-109.75C324.42,-103.11 324.07,-93.73 323.75,-85.31"/>
<polygon fill="#63b8ff" stroke="#63b8ff" points="327.21,-85.3 323.34,-75.44 320.22,-85.57 327.21,-85.3"/>
</g>
<!-- Node13&#45;&gt;Node9 -->
<g id="edge15" class="edge">
<title>Node13&#45;&gt;Node9</title>
<path fill="none" stroke="#63b8ff" d="M755.32,-109.86C747.27,-97.62 732.07,-74.57 719,-55 713.11,-46.19 706.54,-36.42 701.04,-28.29"/>
<polygon fill="#63b8ff" stroke="#63b8ff" points="703.5,-26.67 695,-20.35 697.7,-30.59 703.5,-26.67"/>
</g>
<!-- Node14&#45;&gt;Node2 -->
<g id="edge20" class="edge">
<title>Node14&#45;&gt;Node2</title>
<path fill="none" stroke="#63b8ff" d="M139.93,-164.51C117.91,-155.93 84.53,-142.92 59.76,-133.27"/>
<polygon fill="#63b8ff" stroke="#63b8ff" points="61.32,-129.73 50.73,-129.36 58.78,-136.25 61.32,-129.73"/>
</g>
<!-- Node15 -->
<g id="node15" class="node">
<title>Node15</title>
<g id="a_node15"><a xlink:title=" ">
<polygon fill="#e0e0e0" stroke="#999999" points="124,-129 72,-129 72,-110 124,-110 124,-129"/>
<text text-anchor="middle" x="98" y="-117" font-family="Helvetica,sans-Serif" font-size="10.00">ostream</text>
</a>
</g>
</g>
<!-- Node14&#45;&gt;Node15 -->
<g id="edge21" class="edge">
<title>Node14&#45;&gt;Node15</title>
<path fill="none" stroke="#63b8ff" d="M151.97,-164.51C142.49,-156.77 128.58,-145.43 117.25,-136.2"/>
<polygon fill="#63b8ff" stroke="#63b8ff" points="119.83,-132.96 109.86,-129.36 115.4,-138.39 119.83,-132.96"/>
</g>
<!-- Node16 -->
<g id="node16" class="node">
<title>Node16</title>
<g id="a_node16"><a xlink:title=" ">
<polygon fill="#e0e0e0" stroke="#999999" points="183.5,-129 142.5,-129 142.5,-110 183.5,-110 183.5,-129"/>
<text text-anchor="middle" x="163" y="-117" font-family="Helvetica,sans-Serif" font-size="10.00">string</text>
</a>
</g>
</g>
<!-- Node14&#45;&gt;Node16 -->
<g id="edge22" class="edge">
<title>Node14&#45;&gt;Node16</title>
<path fill="none" stroke="#63b8ff" d="M163,-164.75C163,-158.11 163,-148.73 163,-140.31"/>
<polygon fill="#63b8ff" stroke="#63b8ff" points="166.5,-140.44 163,-130.44 159.5,-140.44 166.5,-140.44"/>
</g>
<!-- Node17 -->
<g id="node17" class="node">
<title>Node17</title>
<g id="a_node17"><a xlink:title=" ">
<polygon fill="#e0e0e0" stroke="#999999" points="260.5,-129 201.5,-129 201.5,-110 260.5,-110 260.5,-129"/>
<text text-anchor="middle" x="231" y="-117" font-family="Helvetica,sans-Serif" font-size="10.00">stdexcept</text>
</a>
</g>
</g>
<!-- Node14&#45;&gt;Node17 -->
<g id="edge23" class="edge">
<title>Node14&#45;&gt;Node17</title>
<path fill="none" stroke="#63b8ff" d="M174.54,-164.51C184.56,-156.7 199.3,-145.21 211.21,-135.93"/>
<polygon fill="#63b8ff" stroke="#63b8ff" points="212.9,-138.27 218.64,-129.36 208.6,-132.74 212.9,-138.27"/>
</g>
</g>
</svg>
