<?xml version="1.0" encoding="UTF-8" standalone="no"?>
<!DOCTYPE svg PUBLIC "-//W3C//DTD SVG 1.1//EN"
 "http://www.w3.org/Graphics/SVG/1.1/DTD/svg11.dtd">
<!-- Generated by graphviz version 8.0.2 (20230410.1723)
 -->
<!-- Title: include/NNFSCore/Model/NeuralNetwork.hpp Pages: 1 -->
<svg width="563pt" height="258pt"
 viewBox="0.00 0.00 562.50 258.00" xmlns="http://www.w3.org/2000/svg" xmlns:xlink="http://www.w3.org/1999/xlink">
<g id="graph0" class="graph" transform="scale(1 1) rotate(0) translate(4 254)">
<title>include/NNFSCore/Model/NeuralNetwork.hpp</title>
<!-- Node1 -->
<g id="node1" class="node">
<title>Node1</title>
<g id="a_node1"><a xlink:title=" ">
<polygon fill="#999999" stroke="#666666" points="264,-250 136,-250 136,-220 264,-220 264,-250"/>
<text text-anchor="start" x="144" y="-238" font-family="Helvetica,sans-Serif" font-size="10.00">include/NNFSCore/Model</text>
<text text-anchor="middle" x="200" y="-227" font-family="Helvetica,sans-Serif" font-size="10.00">/NeuralNetwork.hpp</text>
</a>
</g>
</g>
<!-- Node2 -->
<g id="node2" class="node">
<title>Node2</title>
<g id="a_node2"><a xlink:title=" ">
<polygon fill="#e0e0e0" stroke="#999999" points="54,-184 0,-184 0,-165 54,-165 54,-184"/>
<text text-anchor="middle" x="27" y="-172" font-family="Helvetica,sans-Serif" font-size="10.00">iostream</text>
</a>
</g>
</g>
<!-- Node1&#45;&gt;Node2 -->
<g id="edge1" class="edge">
<title>Node1&#45;&gt;Node2</title>
<path fill="none" stroke="#63b8ff" d="M157.24,-219.54C128.53,-209.83 91.1,-197.17 63.73,-187.92"/>
<polygon fill="#63b8ff" stroke="#63b8ff" points="65.01,-184.32 54.41,-184.43 62.77,-190.95 65.01,-184.32"/>
</g>
<!-- Node3 -->
<g id="node3" class="node">
<title>Node3</title>
<g id="a_node3"><a xlink:title=" ">
<polygon fill="#e0e0e0" stroke="#999999" points="110,-184 72,-184 72,-165 110,-165 110,-184"/>
<text text-anchor="middle" x="91" y="-172" font-family="Helvetica,sans-Serif" font-size="10.00">tuple</text>
</a>
</g>
</g>
<!-- Node1&#45;&gt;Node3 -->
<g id="edge2" class="edge">
<title>Node1&#45;&gt;Node3</title>
<path fill="none" stroke="#63b8ff" d="M173.06,-219.54C155.88,-210.32 133.74,-198.44 116.79,-189.34"/>
<polygon fill="#63b8ff" stroke="#63b8ff" points="118.95,-185.99 108.48,-184.35 115.64,-192.16 118.95,-185.99"/>
</g>
<!-- Node4 -->
<g id="node4" class="node">
<title>Node4</title>
<g id="a_node4"><a xlink:title=" ">
<polygon fill="#e0e0e0" stroke="#999999" points="172,-184 128,-184 128,-165 172,-165 172,-184"/>
<text text-anchor="middle" x="150" y="-172" font-family="Helvetica,sans-Serif" font-size="10.00">vector</text>
</a>
</g>
</g>
<!-- Node1&#45;&gt;Node4 -->
<g id="edge3" class="edge">
<title>Node1&#45;&gt;Node4</title>
<path fill="none" stroke="#63b8ff" d="M187.64,-219.54C180.6,-211.3 171.75,-200.94 164.39,-192.34"/>
<polygon fill="#63b8ff" stroke="#63b8ff" points="166.57,-190.5 157.41,-185.18 161.25,-195.05 166.57,-190.5"/>
</g>
<!-- Node5 -->
<g id="node5" class="node">
<title>Node5</title>
<g id="a_node5"><a xlink:href="_model_8hpp.html" target="_top" xlink:title=" ">
<polygon fill="white" stroke="#666666" points="289.5,-184 228.5,-184 228.5,-165 289.5,-165 289.5,-184"/>
<text text-anchor="middle" x="259" y="-172" font-family="Helvetica,sans-Serif" font-size="10.00">Model.hpp</text>
</a>
</g>
</g>
<!-- Node1&#45;&gt;Node5 -->
<g id="edge4" class="edge">
<title>Node1&#45;&gt;Node5</title>
<path fill="none" stroke="#63b8ff" d="M214.58,-219.54C223.07,-211.13 233.78,-200.51 242.56,-191.8"/>
<polygon fill="#63b8ff" stroke="#63b8ff" points="244.61,-194.7 249.25,-185.18 239.69,-189.73 244.61,-194.7"/>
</g>
<!-- Node7 -->
<g id="node7" class="node">
<title>Node7</title>
<g id="a_node7"><a xlink:href="_activation_8hpp.html" target="_top" xlink:title=" ">
<polygon fill="white" stroke="#666666" points="447,-129 315,-129 315,-110 447,-110 447,-129"/>
<text text-anchor="middle" x="381" y="-117" font-family="Helvetica,sans-Serif" font-size="10.00">../Activation/Activation.hpp</text>
</a>
</g>
</g>
<!-- Node1&#45;&gt;Node7 -->
<g id="edge17" class="edge">
<title>Node1&#45;&gt;Node7</title>
<path fill="none" stroke="#63b8ff" d="M231.69,-219.63C251.28,-210.32 276.67,-197.44 298,-184 321.31,-169.31 346.18,-149.7 362.55,-136.18"/>
<polygon fill="#63b8ff" stroke="#63b8ff" points="364.27,-138.46 369.7,-129.36 359.78,-133.09 364.27,-138.46"/>
</g>
<!-- Node11 -->
<g id="node11" class="node">
<title>Node11</title>
<g id="a_node11"><a xlink:href="_layer_8hpp.html" target="_top" xlink:title=" ">
<polygon fill="white" stroke="#666666" points="120.5,-129 27.5,-129 27.5,-110 120.5,-110 120.5,-129"/>
<text text-anchor="middle" x="74" y="-117" font-family="Helvetica,sans-Serif" font-size="10.00">../Layer/Layer.hpp</text>
</a>
</g>
</g>
<!-- Node1&#45;&gt;Node11 -->
<g id="edge16" class="edge">
<title>Node1&#45;&gt;Node11</title>
<path fill="none" stroke="#63b8ff" d="M199.62,-219.59C198.48,-204.3 194.48,-180.28 181,-165 167.47,-149.66 147.81,-139.48 129.02,-132.79"/>
<polygon fill="#63b8ff" stroke="#63b8ff" points="130.31,-129.2 119.72,-129.42 128.14,-135.86 130.31,-129.2"/>
</g>
<!-- Node13 -->
<g id="node13" class="node">
<title>Node13</title>
<g id="a_node13"><a xlink:href="_loss_8hpp.html" target="_top" xlink:title=" ">
<polygon fill="white" stroke="#666666" points="554.5,-129 465.5,-129 465.5,-110 554.5,-110 554.5,-129"/>
<text text-anchor="middle" x="510" y="-117" font-family="Helvetica,sans-Serif" font-size="10.00">../Loss/Loss.hpp</text>
</a>
</g>
</g>
<!-- Node1&#45;&gt;Node13 -->
<g id="edge18" class="edge">
<title>Node1&#45;&gt;Node13</title>
<path fill="none" stroke="#63b8ff" d="M239.58,-219.51C300.89,-197.06 417.79,-154.26 475.71,-133.05"/>
<polygon fill="#63b8ff" stroke="#63b8ff" points="476.63,-136.08 484.81,-129.36 474.22,-129.51 476.63,-136.08"/>
</g>
<!-- Node6 -->
<g id="node6" class="node">
<title>Node6</title>
<g id="a_node6"><a xlink:title=" ">
<polygon fill="#e0e0e0" stroke="#999999" points="186.5,-74 115.5,-74 115.5,-55 186.5,-55 186.5,-74"/>
<text text-anchor="middle" x="151" y="-62" font-family="Helvetica,sans-Serif" font-size="10.00">Eigen/Dense</text>
</a>
</g>
</g>
<!-- Node5&#45;&gt;Node6 -->
<g id="edge5" class="edge">
<title>Node5&#45;&gt;Node6</title>
<path fill="none" stroke="#63b8ff" d="M228.22,-165.65C208.3,-159.04 183.31,-147.6 168,-129 157.79,-116.6 153.67,-98.64 152.03,-84.98"/>
<polygon fill="#63b8ff" stroke="#63b8ff" points="155.46,-85 151.13,-75.33 148.48,-85.59 155.46,-85"/>
</g>
<!-- Node5&#45;&gt;Node7 -->
<g id="edge6" class="edge">
<title>Node5&#45;&gt;Node7</title>
<path fill="none" stroke="#63b8ff" d="M279.7,-164.51C299.18,-156.04 328.59,-143.27 350.72,-133.66"/>
<polygon fill="#63b8ff" stroke="#63b8ff" points="351.83,-136.55 359.61,-129.36 349.04,-130.13 351.83,-136.55"/>
</g>
<!-- Node10 -->
<g id="node10" class="node">
<title>Node10</title>
<g id="a_node10"><a xlink:href="_callback_8hpp.html" target="_top" xlink:title=" ">
<polygon fill="white" stroke="#666666" points="297,-129 177,-129 177,-110 297,-110 297,-129"/>
<text text-anchor="middle" x="237" y="-117" font-family="Helvetica,sans-Serif" font-size="10.00">../Callback/Callback.hpp</text>
</a>
</g>
</g>
<!-- Node5&#45;&gt;Node10 -->
<g id="edge9" class="edge">
<title>Node5&#45;&gt;Node10</title>
<path fill="none" stroke="#63b8ff" d="M255.37,-164.75C252.52,-157.88 248.45,-148.08 244.86,-139.45"/>
<polygon fill="#63b8ff" stroke="#63b8ff" points="247.78,-138.34 240.71,-130.44 241.31,-141.02 247.78,-138.34"/>
</g>
<!-- Node5&#45;&gt;Node11 -->
<g id="edge11" class="edge">
<title>Node5&#45;&gt;Node11</title>
<path fill="none" stroke="#63b8ff" d="M228.04,-164.63C197.31,-155.83 150.02,-142.28 115.94,-132.51"/>
<polygon fill="#63b8ff" stroke="#63b8ff" points="116.95,-128.88 106.38,-129.49 115.02,-135.61 116.95,-128.88"/>
</g>
<!-- Node5&#45;&gt;Node13 -->
<g id="edge14" class="edge">
<title>Node5&#45;&gt;Node13</title>
<path fill="none" stroke="#63b8ff" d="M289.78,-167C331.45,-158.2 406.44,-142.37 457.21,-131.65"/>
<polygon fill="#63b8ff" stroke="#63b8ff" points="457.59,-134.93 466.65,-129.44 456.14,-128.08 457.59,-134.93"/>
</g>
<!-- Node8 -->
<g id="node8" class="node">
<title>Node8</title>
<g id="a_node8"><a xlink:href="_differentiable_8hpp.html" target="_top" xlink:title=" ">
<polygon fill="white" stroke="#666666" points="459,-74 319,-74 319,-55 459,-55 459,-74"/>
<text text-anchor="middle" x="389" y="-62" font-family="Helvetica,sans-Serif" font-size="10.00">../Common/Differentiable.hpp</text>
</a>
</g>
</g>
<!-- Node7&#45;&gt;Node8 -->
<g id="edge7" class="edge">
<title>Node7&#45;&gt;Node8</title>
<path fill="none" stroke="#63b8ff" d="M382.32,-109.75C383.32,-103.11 384.74,-93.73 386.01,-85.31"/>
<polygon fill="#63b8ff" stroke="#63b8ff" points="389.62,-85.85 387.65,-75.44 382.7,-84.81 389.62,-85.85"/>
</g>
<!-- Node9 -->
<g id="node9" class="node">
<title>Node9</title>
<g id="a_node9"><a xlink:title=" ">
<polygon fill="#e0e0e0" stroke="#999999" points="470,-19 406,-19 406,0 470,0 470,-19"/>
<text text-anchor="middle" x="438" y="-7" font-family="Helvetica,sans-Serif" font-size="10.00">Eigen/Core</text>
</a>
</g>
</g>
<!-- Node8&#45;&gt;Node9 -->
<g id="edge8" class="edge">
<title>Node8&#45;&gt;Node9</title>
<path fill="none" stroke="#63b8ff" d="M397.09,-54.75C403.93,-47.35 413.93,-36.54 422.32,-27.45"/>
<polygon fill="#63b8ff" stroke="#63b8ff" points="424.51,-30.16 428.73,-20.44 419.37,-25.41 424.51,-30.16"/>
</g>
<!-- Node10&#45;&gt;Node6 -->
<g id="edge10" class="edge">
<title>Node10&#45;&gt;Node6</title>
<path fill="none" stroke="#63b8ff" d="M222.41,-109.51C209.36,-101.47 189.99,-89.53 174.71,-80.11"/>
<polygon fill="#63b8ff" stroke="#63b8ff" points="176.72,-76.62 166.37,-74.36 173.05,-82.58 176.72,-76.62"/>
</g>
<!-- Node11&#45;&gt;Node6 -->
<g id="edge12" class="edge">
<title>Node11&#45;&gt;Node6</title>
<path fill="none" stroke="#63b8ff" d="M87.06,-109.51C98.64,-101.54 115.76,-89.75 129.38,-80.38"/>
<polygon fill="#63b8ff" stroke="#63b8ff" points="130.88,-82.91 137.13,-74.36 126.91,-77.14 130.88,-82.91"/>
</g>
<!-- Node12 -->
<g id="node12" class="node">
<title>Node12</title>
<g id="a_node12"><a xlink:title=" ">
<polygon fill="#e0e0e0" stroke="#999999" points="97.5,-74 46.5,-74 46.5,-55 97.5,-55 97.5,-74"/>
<text text-anchor="middle" x="72" y="-62" font-family="Helvetica,sans-Serif" font-size="10.00">memory</text>
</a>
</g>
</g>
<!-- Node11&#45;&gt;Node12 -->
<g id="edge13" class="edge">
<title>Node11&#45;&gt;Node12</title>
<path fill="none" stroke="#63b8ff" d="M73.67,-109.75C73.42,-103.11 73.07,-93.73 72.75,-85.31"/>
<polygon fill="#63b8ff" stroke="#63b8ff" points="76.21,-85.3 72.34,-75.44 69.22,-85.57 76.21,-85.3"/>
</g>
<!-- Node13&#45;&gt;Node9 -->
<g id="edge15" class="edge">
<title>Node13&#45;&gt;Node9</title>
<path fill="none" stroke="#63b8ff" d="M504.32,-109.86C496.27,-97.62 481.07,-74.57 468,-55 462.11,-46.19 455.54,-36.42 450.04,-28.29"/>
<polygon fill="#63b8ff" stroke="#63b8ff" points="452.5,-26.67 444,-20.35 446.7,-30.59 452.5,-26.67"/>
</g>
</g>
</svg>
