<?xml version="1.0" encoding="UTF-8" standalone="no"?>
<!DOCTYPE svg PUBLIC "-//W3C//DTD SVG 1.1//EN"
 "http://www.w3.org/Graphics/SVG/1.1/DTD/svg11.dtd">
<!-- Generated by graphviz version 8.0.5 (20230430.1635)
 -->
<!-- Title: include/NNFSCore/Optimizer/Optimizer.hpp Pages: 1 -->
<svg width="776pt" height="105pt"
 viewBox="0.00 0.00 775.50 105.00" xmlns="http://www.w3.org/2000/svg" xmlns:xlink="http://www.w3.org/1999/xlink">
<g id="graph0" class="graph" transform="scale(1 1) rotate(0) translate(4 101)">
<title>include/NNFSCore/Optimizer/Optimizer.hpp</title>
<!-- Node1 -->
<g id="node1" class="node">
<title>Node1</title>
<g id="a_node1"><a xlink:title=" ">
<polygon fill="#999999" stroke="#666666" points="447.5,-97 305.5,-97 305.5,-66.5 447.5,-66.5 447.5,-97"/>
<text text-anchor="start" x="313.5" y="-83.5" font-family="Helvetica,sans-Serif" font-size="10.00">include/NNFSCore/Optimizer</text>
<text text-anchor="middle" x="376.5" y="-72.25" font-family="Helvetica,sans-Serif" font-size="10.00">/Optimizer.hpp</text>
</a>
</g>
</g>
<!-- Node2 -->
<g id="node2" class="node">
<title>Node2</title>
<g id="a_node2"><a xlink:href="_neural_network_8hpp.html" target="_top" xlink:title=" ">
<polygon fill="white" stroke="#666666" points="127,-30.5 0,-30.5 0,0 127,0 127,-30.5"/>
<text text-anchor="start" x="8" y="-17" font-family="Helvetica,sans-Serif" font-size="10.00">include/NNFSCore/Model</text>
<text text-anchor="middle" x="63.5" y="-5.75" font-family="Helvetica,sans-Serif" font-size="10.00">/NeuralNetwork.hpp</text>
</a>
</g>
</g>
<!-- Node1&#45;&gt;Node2 -->
<g id="edge1" class="edge">
<title>Node1&#45;&gt;Node2</title>
<path fill="none" stroke="#63b8ff" d="M294.51,-63.85C242.32,-53.1 175.71,-39.37 127.43,-29.43"/>
<polygon fill="#63b8ff" stroke="#63b8ff" points="293.58,-67.44 304.08,-66.03 295,-60.59 293.58,-67.44"/>
</g>
<!-- Node3 -->
<g id="node3" class="node">
<title>Node3</title>
<g id="a_node3"><a xlink:href="_adagrad_8hpp.html" target="_top" xlink:title=" ">
<polygon fill="white" stroke="#666666" points="287.5,-30.5 145.5,-30.5 145.5,0 287.5,0 287.5,-30.5"/>
<text text-anchor="start" x="153.5" y="-17" font-family="Helvetica,sans-Serif" font-size="10.00">include/NNFSCore/Optimizer</text>
<text text-anchor="middle" x="216.5" y="-5.75" font-family="Helvetica,sans-Serif" font-size="10.00">/Adagrad.hpp</text>
</a>
</g>
</g>
<!-- Node1&#45;&gt;Node3 -->
<g id="edge2" class="edge">
<title>Node1&#45;&gt;Node3</title>
<path fill="none" stroke="#63b8ff" d="M330.02,-62.01C305.48,-52.12 275.8,-40.15 252.94,-30.94"/>
<polygon fill="#63b8ff" stroke="#63b8ff" points="328.61,-65.62 339.19,-66.11 331.23,-59.13 328.61,-65.62"/>
</g>
<!-- Node4 -->
<g id="node4" class="node">
<title>Node4</title>
<g id="a_node4"><a xlink:href="_adam_8hpp.html" target="_top" xlink:title=" ">
<polygon fill="white" stroke="#666666" points="447.5,-30.5 305.5,-30.5 305.5,0 447.5,0 447.5,-30.5"/>
<text text-anchor="start" x="313.5" y="-17" font-family="Helvetica,sans-Serif" font-size="10.00">include/NNFSCore/Optimizer</text>
<text text-anchor="middle" x="376.5" y="-5.75" font-family="Helvetica,sans-Serif" font-size="10.00">/Adam.hpp</text>
</a>
</g>
</g>
<!-- Node1&#45;&gt;Node4 -->
<g id="edge3" class="edge">
<title>Node1&#45;&gt;Node4</title>
<path fill="none" stroke="#63b8ff" d="M376.5,-55.38C376.5,-47.05 376.5,-38.08 376.5,-30.83"/>
<polygon fill="#63b8ff" stroke="#63b8ff" points="373,-55.11 376.5,-65.11 380,-55.11 373,-55.11"/>
</g>
<!-- Node5 -->
<g id="node5" class="node">
<title>Node5</title>
<g id="a_node5"><a xlink:href="_r_m_s_prop_8hpp.html" target="_top" xlink:title=" ">
<polygon fill="white" stroke="#666666" points="607.5,-30.5 465.5,-30.5 465.5,0 607.5,0 607.5,-30.5"/>
<text text-anchor="start" x="473.5" y="-17" font-family="Helvetica,sans-Serif" font-size="10.00">include/NNFSCore/Optimizer</text>
<text text-anchor="middle" x="536.5" y="-5.75" font-family="Helvetica,sans-Serif" font-size="10.00">/RMSProp.hpp</text>
</a>
</g>
</g>
<!-- Node1&#45;&gt;Node5 -->
<g id="edge4" class="edge">
<title>Node1&#45;&gt;Node5</title>
<path fill="none" stroke="#63b8ff" d="M422.98,-62.01C447.52,-52.12 477.2,-40.15 500.06,-30.94"/>
<polygon fill="#63b8ff" stroke="#63b8ff" points="421.77,-59.13 413.81,-66.11 424.39,-65.62 421.77,-59.13"/>
</g>
<!-- Node6 -->
<g id="node6" class="node">
<title>Node6</title>
<g id="a_node6"><a xlink:href="_s_g_d_8hpp.html" target="_top" xlink:title=" ">
<polygon fill="white" stroke="#666666" points="767.5,-30.5 625.5,-30.5 625.5,0 767.5,0 767.5,-30.5"/>
<text text-anchor="start" x="633.5" y="-17" font-family="Helvetica,sans-Serif" font-size="10.00">include/NNFSCore/Optimizer</text>
<text text-anchor="middle" x="696.5" y="-5.75" font-family="Helvetica,sans-Serif" font-size="10.00">/SGD.hpp</text>
</a>
</g>
</g>
<!-- Node1&#45;&gt;Node6 -->
<g id="edge5" class="edge">
<title>Node1&#45;&gt;Node6</title>
<path fill="none" stroke="#63b8ff" d="M458.67,-64.19C510.11,-53.82 575.74,-40.59 625.03,-30.66"/>
<polygon fill="#63b8ff" stroke="#63b8ff" points="458.03,-60.95 448.92,-66.36 459.41,-67.81 458.03,-60.95"/>
</g>
</g>
</svg>
