<?xml version="1.0" encoding="UTF-8" standalone="no"?>
<!DOCTYPE svg PUBLIC "-//W3C//DTD SVG 1.1//EN"
 "http://www.w3.org/Graphics/SVG/1.1/DTD/svg11.dtd">
<!-- Generated by graphviz version 8.0.5 (20230430.1635)
 -->
<!-- Title: include/NNFSCore/Optimizer/Optimizer.hpp Pages: 1 -->
<svg width="335pt" height="260pt"
 viewBox="0.00 0.00 335.38 259.50" xmlns="http://www.w3.org/2000/svg" xmlns:xlink="http://www.w3.org/1999/xlink">
<g id="graph0" class="graph" transform="scale(1 1) rotate(0) translate(4 255.5)">
<title>include/NNFSCore/Optimizer/Optimizer.hpp</title>
<!-- Node1 -->
<g id="node1" class="node">
<title>Node1</title>
<g id="a_node1"><a xlink:title=" ">
<polygon fill="#999999" stroke="#666666" points="196.62,-251.5 54.62,-251.5 54.62,-221 196.62,-221 196.62,-251.5"/>
<text text-anchor="start" x="62.62" y="-238" font-family="Helvetica,sans-Serif" font-size="10.00">include/NNFSCore/Optimizer</text>
<text text-anchor="middle" x="125.62" y="-226.75" font-family="Helvetica,sans-Serif" font-size="10.00">/Optimizer.hpp</text>
</a>
</g>
</g>
<!-- Node2 -->
<g id="node2" class="node">
<title>Node2</title>
<g id="a_node2"><a xlink:title=" ">
<polygon fill="#e0e0e0" stroke="#999999" points="98,-185 27.25,-185 27.25,-165.75 98,-165.75 98,-185"/>
<text text-anchor="middle" x="62.62" y="-171.5" font-family="Helvetica,sans-Serif" font-size="10.00">Eigen/Dense</text>
</a>
</g>
</g>
<!-- Node1&#45;&gt;Node2 -->
<g id="edge1" class="edge">
<title>Node1&#45;&gt;Node2</title>
<path fill="none" stroke="#63b8ff" d="M110.05,-220.7C101.01,-212.25 89.6,-201.58 80.23,-192.83"/>
<polygon fill="#63b8ff" stroke="#63b8ff" points="83.03,-190.72 73.34,-186.45 78.25,-195.84 83.03,-190.72"/>
</g>
<!-- Node3 -->
<g id="node3" class="node">
<title>Node3</title>
<g id="a_node3"><a xlink:href="clue_8hpp.html" target="_top" xlink:title=" ">
<polygon fill="white" stroke="#666666" points="197.38,-74.5 101.88,-74.5 101.88,-55.25 197.38,-55.25 197.38,-74.5"/>
<text text-anchor="middle" x="149.62" y="-61" font-family="Helvetica,sans-Serif" font-size="10.00">../Utilities/clue.hpp</text>
</a>
</g>
</g>
<!-- Node1&#45;&gt;Node3 -->
<g id="edge2" class="edge">
<title>Node1&#45;&gt;Node3</title>
<path fill="none" stroke="#63b8ff" d="M127.71,-220.52C132.04,-189.99 141.98,-119.83 146.84,-85.51"/>
<polygon fill="#63b8ff" stroke="#63b8ff" points="150.4,-86.38 148.33,-75.99 143.47,-85.4 150.4,-86.38"/>
</g>
<!-- Node9 -->
<g id="node9" class="node">
<title>Node9</title>
<g id="a_node9"><a xlink:href="_dense_8hpp.html" target="_top" xlink:title=" ">
<polygon fill="white" stroke="#666666" points="273.75,-185 177.5,-185 177.5,-165.75 273.75,-165.75 273.75,-185"/>
<text text-anchor="middle" x="225.62" y="-171.5" font-family="Helvetica,sans-Serif" font-size="10.00">../Layer/Dense.hpp</text>
</a>
</g>
</g>
<!-- Node1&#45;&gt;Node9 -->
<g id="edge8" class="edge">
<title>Node1&#45;&gt;Node9</title>
<path fill="none" stroke="#63b8ff" d="M150.6,-220.55C165.98,-211.49 185.61,-199.94 200.93,-190.91"/>
<polygon fill="#63b8ff" stroke="#63b8ff" points="202.45,-193.49 209.29,-185.4 198.9,-187.46 202.45,-193.49"/>
</g>
<!-- Node4 -->
<g id="node4" class="node">
<title>Node4</title>
<g id="a_node4"><a xlink:title=" ">
<polygon fill="#e0e0e0" stroke="#999999" points="243.5,-19.25 193.75,-19.25 193.75,0 243.5,0 243.5,-19.25"/>
<text text-anchor="middle" x="218.62" y="-5.75" font-family="Helvetica,sans-Serif" font-size="10.00">iomanip</text>
</a>
</g>
</g>
<!-- Node3&#45;&gt;Node4 -->
<g id="edge3" class="edge">
<title>Node3&#45;&gt;Node4</title>
<path fill="none" stroke="#63b8ff" d="M161.33,-54.84C171.5,-46.99 186.46,-35.45 198.54,-26.12"/>
<polygon fill="#63b8ff" stroke="#63b8ff" points="200.31,-28.41 206.09,-19.52 196.04,-22.86 200.31,-28.41"/>
</g>
<!-- Node5 -->
<g id="node5" class="node">
<title>Node5</title>
<g id="a_node5"><a xlink:title=" ">
<polygon fill="#e0e0e0" stroke="#999999" points="51.25,-19.25 0,-19.25 0,0 51.25,0 51.25,-19.25"/>
<text text-anchor="middle" x="25.62" y="-5.75" font-family="Helvetica,sans-Serif" font-size="10.00">sstream</text>
</a>
</g>
</g>
<!-- Node3&#45;&gt;Node5 -->
<g id="edge4" class="edge">
<title>Node3&#45;&gt;Node5</title>
<path fill="none" stroke="#63b8ff" d="M128.59,-54.84C108.91,-46.39 79.25,-33.65 56.81,-24.02"/>
<polygon fill="#63b8ff" stroke="#63b8ff" points="58.33,-20.43 47.76,-19.7 55.57,-26.86 58.33,-20.43"/>
</g>
<!-- Node6 -->
<g id="node6" class="node">
<title>Node6</title>
<g id="a_node6"><a xlink:title=" ">
<polygon fill="#e0e0e0" stroke="#999999" points="117.75,-19.25 69.5,-19.25 69.5,0 117.75,0 117.75,-19.25"/>
<text text-anchor="middle" x="93.62" y="-5.75" font-family="Helvetica,sans-Serif" font-size="10.00">cassert</text>
</a>
</g>
</g>
<!-- Node3&#45;&gt;Node6 -->
<g id="edge5" class="edge">
<title>Node3&#45;&gt;Node6</title>
<path fill="none" stroke="#63b8ff" d="M140.13,-54.84C132.11,-47.22 120.44,-36.12 110.8,-26.95"/>
<polygon fill="#63b8ff" stroke="#63b8ff" points="113.64,-24.88 103.98,-20.52 108.82,-29.95 113.64,-24.88"/>
</g>
<!-- Node7 -->
<g id="node7" class="node">
<title>Node7</title>
<g id="a_node7"><a xlink:title=" ">
<polygon fill="#e0e0e0" stroke="#999999" points="327.38,-19.25 273.88,-19.25 273.88,0 327.38,0 327.38,-19.25"/>
<text text-anchor="middle" x="300.62" y="-5.75" font-family="Helvetica,sans-Serif" font-size="10.00">iostream</text>
</a>
</g>
</g>
<!-- Node3&#45;&gt;Node7 -->
<g id="edge6" class="edge">
<title>Node3&#45;&gt;Node7</title>
<path fill="none" stroke="#63b8ff" d="M175.24,-54.84C199.86,-46.16 237.29,-32.96 264.85,-23.24"/>
<polygon fill="#63b8ff" stroke="#63b8ff" points="265.62,-26.33 273.88,-19.7 263.29,-19.73 265.62,-26.33"/>
</g>
<!-- Node8 -->
<g id="node8" class="node">
<title>Node8</title>
<g id="a_node8"><a xlink:title=" ">
<polygon fill="#e0e0e0" stroke="#999999" points="175.62,-19.25 135.62,-19.25 135.62,0 175.62,0 175.62,-19.25"/>
<text text-anchor="middle" x="155.62" y="-5.75" font-family="Helvetica,sans-Serif" font-size="10.00">ctime</text>
</a>
</g>
</g>
<!-- Node3&#45;&gt;Node8 -->
<g id="edge7" class="edge">
<title>Node3&#45;&gt;Node8</title>
<path fill="none" stroke="#63b8ff" d="M150.62,-55.08C151.37,-48.42 152.43,-38.99 153.38,-30.53"/>
<polygon fill="#63b8ff" stroke="#63b8ff" points="156.97,-30.94 154.61,-20.61 150.01,-30.15 156.97,-30.94"/>
</g>
<!-- Node9&#45;&gt;Node7 -->
<g id="edge9" class="edge">
<title>Node9&#45;&gt;Node7</title>
<path fill="none" stroke="#63b8ff" d="M245.56,-165.28C259.49,-157.81 277.24,-145.84 286.62,-129.75 304.76,-98.67 304.79,-55.27 302.9,-30.34"/>
<polygon fill="#63b8ff" stroke="#63b8ff" points="306.29,-30.06 301.85,-20.44 299.32,-30.73 306.29,-30.06"/>
</g>
<!-- Node10 -->
<g id="node10" class="node">
<title>Node10</title>
<g id="a_node10"><a xlink:title=" ">
<polygon fill="#e0e0e0" stroke="#999999" points="201.75,-129.75 153.5,-129.75 153.5,-110.5 201.75,-110.5 201.75,-129.75"/>
<text text-anchor="middle" x="177.62" y="-116.25" font-family="Helvetica,sans-Serif" font-size="10.00">random</text>
</a>
</g>
</g>
<!-- Node9&#45;&gt;Node10 -->
<g id="edge10" class="edge">
<title>Node9&#45;&gt;Node10</title>
<path fill="none" stroke="#63b8ff" d="M217.7,-165.58C211,-158.15 201.21,-147.29 192.98,-138.16"/>
<polygon fill="#63b8ff" stroke="#63b8ff" points="196.02,-136.19 186.72,-131.11 190.82,-140.88 196.02,-136.19"/>
</g>
<!-- Node11 -->
<g id="node11" class="node">
<title>Node11</title>
<g id="a_node11"><a xlink:href="_layer_8hpp.html" target="_top" xlink:title=" ">
<polygon fill="white" stroke="#666666" points="277.62,-129.75 219.62,-129.75 219.62,-110.5 277.62,-110.5 277.62,-129.75"/>
<text text-anchor="middle" x="248.62" y="-116.25" font-family="Helvetica,sans-Serif" font-size="10.00">Layer.hpp</text>
</a>
</g>
</g>
<!-- Node9&#45;&gt;Node11 -->
<g id="edge11" class="edge">
<title>Node9&#45;&gt;Node11</title>
<path fill="none" stroke="#63b8ff" d="M229.42,-165.58C232.4,-158.69 236.66,-148.84 240.4,-140.16"/>
<polygon fill="#63b8ff" stroke="#63b8ff" points="243.99,-141.68 244.74,-131.11 237.57,-138.9 243.99,-141.68"/>
</g>
<!-- Node11&#45;&gt;Node3 -->
<g id="edge13" class="edge">
<title>Node11&#45;&gt;Node3</title>
<path fill="none" stroke="#63b8ff" d="M231.83,-110.09C216.47,-101.83 193.51,-89.48 175.75,-79.93"/>
<polygon fill="#63b8ff" stroke="#63b8ff" points="177.97,-76.61 167.5,-74.95 174.65,-82.77 177.97,-76.61"/>
</g>
<!-- Node12 -->
<g id="node12" class="node">
<title>Node12</title>
<g id="a_node12"><a xlink:title=" ">
<polygon fill="#e0e0e0" stroke="#999999" points="278.25,-74.5 215,-74.5 215,-55.25 278.25,-55.25 278.25,-74.5"/>
<text text-anchor="middle" x="246.62" y="-61" font-family="Helvetica,sans-Serif" font-size="10.00">Eigen/Core</text>
</a>
</g>
</g>
<!-- Node11&#45;&gt;Node12 -->
<g id="edge12" class="edge">
<title>Node11&#45;&gt;Node12</title>
<path fill="none" stroke="#63b8ff" d="M248.29,-110.33C248.04,-103.67 247.69,-94.24 247.37,-85.78"/>
<polygon fill="#63b8ff" stroke="#63b8ff" points="250.84,-85.72 246.96,-75.86 243.84,-85.98 250.84,-85.72"/>
</g>
</g>
</svg>
