<?xml version="1.0" encoding="UTF-8" standalone="no"?>
<!DOCTYPE svg PUBLIC "-//W3C//DTD SVG 1.1//EN"
 "http://www.w3.org/Graphics/SVG/1.1/DTD/svg11.dtd">
<!-- Generated by graphviz version 8.0.2 (20230410.1723)
 -->
<!-- Title: include/NNFSCore/Utils/ProgressBar.hpp Pages: 1 -->
<svg width="269pt" height="93pt"
 viewBox="0.00 0.00 268.50 93.00" xmlns="http://www.w3.org/2000/svg" xmlns:xlink="http://www.w3.org/1999/xlink">
<g id="graph0" class="graph" transform="scale(1 1) rotate(0) translate(4 89)">
<title>include/NNFSCore/Utils/ProgressBar.hpp</title>
<!-- Node1 -->
<g id="node1" class="node">
<title>Node1</title>
<g id="a_node1"><a xlink:title=" ">
<polygon fill="#999999" stroke="#666666" points="191,-85 69,-85 69,-55 191,-55 191,-85"/>
<text text-anchor="start" x="77" y="-73" font-family="Helvetica,sans-Serif" font-size="10.00">include/NNFSCore/Utils</text>
<text text-anchor="middle" x="130" y="-62" font-family="Helvetica,sans-Serif" font-size="10.00">/ProgressBar.hpp</text>
</a>
</g>
</g>
<!-- Node2 -->
<g id="node2" class="node">
<title>Node2</title>
<g id="a_node2"><a xlink:title=" ">
<polygon fill="#e0e0e0" stroke="#999999" points="54,-19 0,-19 0,0 54,0 54,-19"/>
<text text-anchor="middle" x="27" y="-7" font-family="Helvetica,sans-Serif" font-size="10.00">iostream</text>
</a>
</g>
</g>
<!-- Node1&#45;&gt;Node2 -->
<g id="edge1" class="edge">
<title>Node1&#45;&gt;Node2</title>
<path fill="none" stroke="#63b8ff" d="M104.54,-54.54C88.46,-45.4 67.78,-33.66 51.82,-24.6"/>
<polygon fill="#63b8ff" stroke="#63b8ff" points="54,-21.24 43.58,-19.35 50.54,-27.33 54,-21.24"/>
</g>
<!-- Node3 -->
<g id="node3" class="node">
<title>Node3</title>
<g id="a_node3"><a xlink:title=" ">
<polygon fill="#e0e0e0" stroke="#999999" points="124,-19 72,-19 72,0 124,0 124,-19"/>
<text text-anchor="middle" x="98" y="-7" font-family="Helvetica,sans-Serif" font-size="10.00">ostream</text>
</a>
</g>
</g>
<!-- Node1&#45;&gt;Node3 -->
<g id="edge2" class="edge">
<title>Node1&#45;&gt;Node3</title>
<path fill="none" stroke="#63b8ff" d="M122.09,-54.54C117.82,-46.74 112.51,-37.03 107.96,-28.71"/>
<polygon fill="#63b8ff" stroke="#63b8ff" points="110.62,-27.27 102.75,-20.18 104.47,-30.63 110.62,-27.27"/>
</g>
<!-- Node4 -->
<g id="node4" class="node">
<title>Node4</title>
<g id="a_node4"><a xlink:title=" ">
<polygon fill="#e0e0e0" stroke="#999999" points="183.5,-19 142.5,-19 142.5,0 183.5,0 183.5,-19"/>
<text text-anchor="middle" x="163" y="-7" font-family="Helvetica,sans-Serif" font-size="10.00">string</text>
</a>
</g>
</g>
<!-- Node1&#45;&gt;Node4 -->
<g id="edge3" class="edge">
<title>Node1&#45;&gt;Node4</title>
<path fill="none" stroke="#63b8ff" d="M138.16,-54.54C142.56,-46.74 148.04,-37.03 152.73,-28.71"/>
<polygon fill="#63b8ff" stroke="#63b8ff" points="156.24,-30.6 158.11,-20.18 150.14,-27.17 156.24,-30.6"/>
</g>
<!-- Node5 -->
<g id="node5" class="node">
<title>Node5</title>
<g id="a_node5"><a xlink:title=" ">
<polygon fill="#e0e0e0" stroke="#999999" points="260.5,-19 201.5,-19 201.5,0 260.5,0 260.5,-19"/>
<text text-anchor="middle" x="231" y="-7" font-family="Helvetica,sans-Serif" font-size="10.00">stdexcept</text>
</a>
</g>
</g>
<!-- Node1&#45;&gt;Node5 -->
<g id="edge4" class="edge">
<title>Node1&#45;&gt;Node5</title>
<path fill="none" stroke="#63b8ff" d="M154.97,-54.54C170.59,-45.49 190.63,-33.88 206.22,-24.85"/>
<polygon fill="#63b8ff" stroke="#63b8ff" points="207.83,-27.39 214.73,-19.35 204.32,-21.33 207.83,-27.39"/>
</g>
</g>
</svg>
