<?xml version="1.0" encoding="UTF-8" standalone="no"?>
<!DOCTYPE svg PUBLIC "-//W3C//DTD SVG 1.1//EN"
 "http://www.w3.org/Graphics/SVG/1.1/DTD/svg11.dtd">
<!-- Generated by graphviz version 8.0.5 (20230430.1635)
 -->
<!-- Title: include/NNFS/Optimizer/RMSProp.hpp Pages: 1 -->
<svg width="324pt" height="315pt"
 viewBox="0.00 0.00 323.88 314.75" xmlns="http://www.w3.org/2000/svg" xmlns:xlink="http://www.w3.org/1999/xlink">
<g id="graph0" class="graph" transform="scale(1 1) rotate(0) translate(4 310.75)">
<title>include/NNFS/Optimizer/RMSProp.hpp</title>
<!-- Node1 -->
<g id="Node000001" class="node">
<title>Node1</title>
<g id="a_Node000001"><a xlink:title=" ">
<polygon fill="#999999" stroke="#666666" points="246.62,-306.75 124.88,-306.75 124.88,-276.25 246.62,-276.25 246.62,-306.75"/>
<text text-anchor="start" x="132.88" y="-293.25" font-family="Helvetica,sans-Serif" font-size="10.00">include/NNFS/Optimizer</text>
<text text-anchor="middle" x="185.75" y="-282" font-family="Helvetica,sans-Serif" font-size="10.00">/RMSProp.hpp</text>
</a>
</g>
</g>
<!-- Node2 -->
<g id="Node000002" class="node">
<title>Node2</title>
<g id="a_Node000002"><a xlink:title=" ">
<polygon fill="#e0e0e0" stroke="#999999" points="278.12,-74.5 207.38,-74.5 207.38,-55.25 278.12,-55.25 278.12,-74.5"/>
<text text-anchor="middle" x="242.75" y="-61" font-family="Helvetica,sans-Serif" font-size="10.00">Eigen/Dense</text>
</a>
</g>
</g>
<!-- Node1&#45;&gt;Node2 -->
<g id="edge1_Node000001_Node000002" class="edge">
<title>Node1&#45;&gt;Node2</title>
<g id="a_edge1_Node000001_Node000002"><a xlink:title=" ">
<path fill="none" stroke="#63b8ff" d="M190.66,-276.04C200.01,-248.07 220.51,-184.52 232.75,-129.75 236.05,-114.97 238.65,-98.03 240.37,-85.31"/>
<polygon fill="#63b8ff" stroke="#63b8ff" points="243.94,-85.98 241.74,-75.62 237,-85.09 243.94,-85.98"/>
</a>
</g>
</g>
<!-- Node3 -->
<g id="Node000003" class="node">
<title>Node3</title>
<g id="a_Node000003"><a xlink:href="_optimizer_8hpp.html" target="_top" xlink:title=" ">
<polygon fill="white" stroke="#666666" points="190.38,-240.25 115.12,-240.25 115.12,-221 190.38,-221 190.38,-240.25"/>
<text text-anchor="middle" x="152.75" y="-226.75" font-family="Helvetica,sans-Serif" font-size="10.00">Optimizer.hpp</text>
</a>
</g>
</g>
<!-- Node1&#45;&gt;Node3 -->
<g id="edge2_Node000001_Node000003" class="edge">
<title>Node1&#45;&gt;Node3</title>
<g id="a_edge2_Node000001_Node000003"><a xlink:title=" ">
<path fill="none" stroke="#63b8ff" d="M177.59,-275.95C173.24,-268.19 167.85,-258.56 163.2,-250.26"/>
<polygon fill="#63b8ff" stroke="#63b8ff" points="165.78,-248.71 157.84,-241.7 159.67,-252.14 165.78,-248.71"/>
</a>
</g>
</g>
<!-- Node3&#45;&gt;Node2 -->
<g id="edge3_Node000003_Node000002" class="edge">
<title>Node3&#45;&gt;Node2</title>
<g id="a_edge3_Node000003_Node000002"><a xlink:title=" ">
<path fill="none" stroke="#63b8ff" d="M159.83,-220.7C166.65,-211.9 177.03,-197.93 184.75,-185 205.11,-150.9 224.39,-108.61 234.78,-84.69"/>
<polygon fill="#63b8ff" stroke="#63b8ff" points="238.3,-86.38 239.02,-75.81 231.86,-83.62 238.3,-86.38"/>
</a>
</g>
</g>
<!-- Node4 -->
<g id="Node000004" class="node">
<title>Node4</title>
<g id="a_Node000004"><a xlink:href="clue_8hpp.html" target="_top" xlink:title=" ">
<polygon fill="white" stroke="#666666" points="189.5,-74.5 94,-74.5 94,-55.25 189.5,-55.25 189.5,-74.5"/>
<text text-anchor="middle" x="141.75" y="-61" font-family="Helvetica,sans-Serif" font-size="10.00">../Utilities/clue.hpp</text>
</a>
</g>
</g>
<!-- Node3&#45;&gt;Node4 -->
<g id="edge4_Node000003_Node000004" class="edge">
<title>Node3&#45;&gt;Node4</title>
<g id="a_edge4_Node000003_Node000004"><a xlink:title=" ">
<path fill="none" stroke="#63b8ff" d="M119.82,-220.62C102.01,-213.89 81.51,-202.74 70.75,-185 53.58,-156.69 53.64,-139.43 69.75,-110.5 77.46,-96.64 91.45,-86.54 105.06,-79.49"/>
<polygon fill="#63b8ff" stroke="#63b8ff" points="106.26,-82.32 113.81,-74.89 103.27,-76 106.26,-82.32"/>
</a>
</g>
</g>
<!-- Node10 -->
<g id="Node000010" class="node">
<title>Node10</title>
<g id="a_Node000010"><a xlink:href="_dense_8hpp.html" target="_top" xlink:title=" ">
<polygon fill="white" stroke="#666666" points="175.88,-185 79.62,-185 79.62,-165.75 175.88,-165.75 175.88,-185"/>
<text text-anchor="middle" x="127.75" y="-171.5" font-family="Helvetica,sans-Serif" font-size="10.00">../Layer/Dense.hpp</text>
</a>
</g>
</g>
<!-- Node3&#45;&gt;Node10 -->
<g id="edge10_Node000003_Node000010" class="edge">
<title>Node3&#45;&gt;Node10</title>
<g id="a_edge10_Node000003_Node000010"><a xlink:title=" ">
<path fill="none" stroke="#63b8ff" d="M148.62,-220.83C145.35,-213.86 140.66,-203.87 136.55,-195.12"/>
<polygon fill="#63b8ff" stroke="#63b8ff" points="139.39,-193.92 131.97,-186.36 133.05,-196.9 139.39,-193.92"/>
</a>
</g>
</g>
<!-- Node5 -->
<g id="Node000005" class="node">
<title>Node5</title>
<g id="a_Node000005"><a xlink:title=" ">
<polygon fill="#e0e0e0" stroke="#999999" points="179.62,-19.25 129.88,-19.25 129.88,0 179.62,0 179.62,-19.25"/>
<text text-anchor="middle" x="154.75" y="-5.75" font-family="Helvetica,sans-Serif" font-size="10.00">iomanip</text>
</a>
</g>
</g>
<!-- Node4&#45;&gt;Node5 -->
<g id="edge5_Node000004_Node000005" class="edge">
<title>Node4&#45;&gt;Node5</title>
<g id="a_edge5_Node000004_Node000005"><a xlink:title=" ">
<path fill="none" stroke="#63b8ff" d="M143.9,-55.08C145.54,-48.34 147.88,-38.77 149.96,-30.24"/>
<polygon fill="#63b8ff" stroke="#63b8ff" points="153.59,-31.15 152.56,-20.61 146.78,-29.49 153.59,-31.15"/>
</a>
</g>
</g>
<!-- Node6 -->
<g id="Node000006" class="node">
<title>Node6</title>
<g id="a_Node000006"><a xlink:title=" ">
<polygon fill="#e0e0e0" stroke="#999999" points="249.38,-19.25 198.12,-19.25 198.12,0 249.38,0 249.38,-19.25"/>
<text text-anchor="middle" x="223.75" y="-5.75" font-family="Helvetica,sans-Serif" font-size="10.00">sstream</text>
</a>
</g>
</g>
<!-- Node4&#45;&gt;Node6 -->
<g id="edge6_Node000004_Node000006" class="edge">
<title>Node4&#45;&gt;Node6</title>
<g id="a_edge6_Node000004_Node000006"><a xlink:title=" ">
<path fill="none" stroke="#63b8ff" d="M155.66,-54.84C168.03,-46.81 186.35,-34.91 200.88,-25.48"/>
<polygon fill="#63b8ff" stroke="#63b8ff" points="202.29,-28.08 208.77,-19.7 198.48,-22.21 202.29,-28.08"/>
</a>
</g>
</g>
<!-- Node7 -->
<g id="Node000007" class="node">
<title>Node7</title>
<g id="a_Node000007"><a xlink:title=" ">
<polygon fill="#e0e0e0" stroke="#999999" points="315.88,-19.25 267.62,-19.25 267.62,0 315.88,0 315.88,-19.25"/>
<text text-anchor="middle" x="291.75" y="-5.75" font-family="Helvetica,sans-Serif" font-size="10.00">cassert</text>
</a>
</g>
</g>
<!-- Node4&#45;&gt;Node7 -->
<g id="edge7_Node000004_Node000007" class="edge">
<title>Node4&#45;&gt;Node7</title>
<g id="a_edge7_Node000004_Node000007"><a xlink:title=" ">
<path fill="none" stroke="#63b8ff" d="M167.2,-54.84C191.84,-46.09 229.41,-32.76 256.84,-23.02"/>
<polygon fill="#63b8ff" stroke="#63b8ff" points="257.92,-25.99 266.18,-19.35 255.58,-19.4 257.92,-25.99"/>
</a>
</g>
</g>
<!-- Node8 -->
<g id="Node000008" class="node">
<title>Node8</title>
<g id="a_Node000008"><a xlink:title=" ">
<polygon fill="#e0e0e0" stroke="#999999" points="53.5,-19.25 0,-19.25 0,0 53.5,0 53.5,-19.25"/>
<text text-anchor="middle" x="26.75" y="-5.75" font-family="Helvetica,sans-Serif" font-size="10.00">iostream</text>
</a>
</g>
</g>
<!-- Node4&#45;&gt;Node8 -->
<g id="edge8_Node000004_Node000008" class="edge">
<title>Node4&#45;&gt;Node8</title>
<g id="a_edge8_Node000004_Node000008"><a xlink:title=" ">
<path fill="none" stroke="#63b8ff" d="M122.24,-54.84C104.15,-46.47 76.98,-33.88 56.24,-24.28"/>
<polygon fill="#63b8ff" stroke="#63b8ff" points="57.9,-20.73 47.35,-19.7 54.96,-27.08 57.9,-20.73"/>
</a>
</g>
</g>
<!-- Node9 -->
<g id="Node000009" class="node">
<title>Node9</title>
<g id="a_Node000009"><a xlink:title=" ">
<polygon fill="#e0e0e0" stroke="#999999" points="111.75,-19.25 71.75,-19.25 71.75,0 111.75,0 111.75,-19.25"/>
<text text-anchor="middle" x="91.75" y="-5.75" font-family="Helvetica,sans-Serif" font-size="10.00">ctime</text>
</a>
</g>
</g>
<!-- Node4&#45;&gt;Node9 -->
<g id="edge9_Node000004_Node000009" class="edge">
<title>Node4&#45;&gt;Node9</title>
<g id="a_edge9_Node000004_Node000009"><a xlink:title=" ">
<path fill="none" stroke="#63b8ff" d="M133.49,-55.08C126.44,-47.57 116.1,-36.56 107.48,-27.38"/>
<polygon fill="#63b8ff" stroke="#63b8ff" points="110.58,-25.5 101.19,-20.61 105.48,-30.3 110.58,-25.5"/>
</a>
</g>
</g>
<!-- Node10&#45;&gt;Node8 -->
<g id="edge11_Node000010_Node000008" class="edge">
<title>Node10&#45;&gt;Node8</title>
<g id="a_edge11_Node000010_Node000008"><a xlink:title=" ">
<path fill="none" stroke="#63b8ff" d="M111.41,-165.36C98.49,-157.48 80.84,-144.94 69.75,-129.75 47.24,-98.92 35.49,-55.13 30.25,-30.13"/>
<polygon fill="#63b8ff" stroke="#63b8ff" points="33.53,-29.65 28.19,-20.5 26.66,-30.99 33.53,-29.65"/>
</a>
</g>
</g>
<!-- Node11 -->
<g id="Node000011" class="node">
<title>Node11</title>
<g id="a_Node000011"><a xlink:title=" ">
<polygon fill="#e0e0e0" stroke="#999999" points="126.88,-129.75 78.62,-129.75 78.62,-110.5 126.88,-110.5 126.88,-129.75"/>
<text text-anchor="middle" x="102.75" y="-116.25" font-family="Helvetica,sans-Serif" font-size="10.00">random</text>
</a>
</g>
</g>
<!-- Node10&#45;&gt;Node11 -->
<g id="edge12_Node000010_Node000011" class="edge">
<title>Node10&#45;&gt;Node11</title>
<g id="a_edge12_Node000010_Node000011"><a xlink:title=" ">
<path fill="none" stroke="#63b8ff" d="M123.62,-165.58C120.35,-158.61 115.66,-148.62 111.55,-139.87"/>
<polygon fill="#63b8ff" stroke="#63b8ff" points="114.39,-138.67 106.97,-131.11 108.05,-141.65 114.39,-138.67"/>
</a>
</g>
</g>
<!-- Node12 -->
<g id="Node000012" class="node">
<title>Node12</title>
<g id="a_Node000012"><a xlink:href="_layer_8hpp.html" target="_top" xlink:title=" ">
<polygon fill="white" stroke="#666666" points="202.75,-129.75 144.75,-129.75 144.75,-110.5 202.75,-110.5 202.75,-129.75"/>
<text text-anchor="middle" x="173.75" y="-116.25" font-family="Helvetica,sans-Serif" font-size="10.00">Layer.hpp</text>
</a>
</g>
</g>
<!-- Node10&#45;&gt;Node12 -->
<g id="edge13_Node000010_Node000012" class="edge">
<title>Node10&#45;&gt;Node12</title>
<g id="a_edge13_Node000010_Node000012"><a xlink:title=" ">
<path fill="none" stroke="#63b8ff" d="M135.35,-165.58C141.77,-158.15 151.15,-147.29 159.03,-138.16"/>
<polygon fill="#63b8ff" stroke="#63b8ff" points="162.1,-140.96 165.99,-131.11 156.8,-136.39 162.1,-140.96"/>
</a>
</g>
</g>
<!-- Node12&#45;&gt;Node2 -->
<g id="edge14_Node000012_Node000002" class="edge">
<title>Node12&#45;&gt;Node2</title>
<g id="a_edge14_Node000012_Node000002"><a xlink:title=" ">
<path fill="none" stroke="#63b8ff" d="M185.45,-110.09C195.63,-102.24 210.58,-90.7 222.67,-81.37"/>
<polygon fill="#63b8ff" stroke="#63b8ff" points="224.44,-83.66 230.22,-74.77 220.16,-78.11 224.44,-83.66"/>
</a>
</g>
</g>
<!-- Node12&#45;&gt;Node4 -->
<g id="edge15_Node000012_Node000004" class="edge">
<title>Node12&#45;&gt;Node4</title>
<g id="a_edge15_Node000012_Node000004"><a xlink:title=" ">
<path fill="none" stroke="#63b8ff" d="M168.47,-110.33C164.18,-103.21 158.01,-92.93 152.67,-84.05"/>
<polygon fill="#63b8ff" stroke="#63b8ff" points="155.3,-82.63 147.15,-75.86 149.3,-86.23 155.3,-82.63"/>
</a>
</g>
</g>
</g>
</svg>
