<?xml version="1.0" encoding="UTF-8" standalone="no"?>
<!DOCTYPE svg PUBLIC "-//W3C//DTD SVG 1.1//EN"
 "http://www.w3.org/Graphics/SVG/1.1/DTD/svg11.dtd">
<!-- Generated by graphviz version 8.0.5 (20230430.1635)
 -->
<!-- Title: include/NNFSCore/Activation/ReLU.hpp Pages: 1 -->
<svg width="276pt" height="105pt"
 viewBox="0.00 0.00 275.75 105.00" xmlns="http://www.w3.org/2000/svg" xmlns:xlink="http://www.w3.org/1999/xlink">
<g id="graph0" class="graph" transform="scale(1 1) rotate(0) translate(4 101)">
<title>include/NNFSCore/Activation/ReLU.hpp</title>
<!-- Node1 -->
<g id="node1" class="node">
<title>Node1</title>
<g id="a_node1"><a xlink:title=" ">
<polygon fill="#999999" stroke="#666666" points="206.62,-97 62.38,-97 62.38,-66.5 206.62,-66.5 206.62,-97"/>
<text text-anchor="start" x="70.38" y="-83.5" font-family="Helvetica,sans-Serif" font-size="10.00">include/NNFSCore/Activation</text>
<text text-anchor="middle" x="134.5" y="-72.25" font-family="Helvetica,sans-Serif" font-size="10.00">/ReLU.hpp</text>
</a>
</g>
</g>
<!-- Node2 -->
<g id="node2" class="node">
<title>Node2</title>
<g id="a_node2"><a xlink:href="_neural_network_8hpp.html" target="_top" xlink:title=" ">
<polygon fill="white" stroke="#666666" points="127,-30.5 0,-30.5 0,0 127,0 127,-30.5"/>
<text text-anchor="start" x="8" y="-17" font-family="Helvetica,sans-Serif" font-size="10.00">include/NNFSCore/Model</text>
<text text-anchor="middle" x="63.5" y="-5.75" font-family="Helvetica,sans-Serif" font-size="10.00">/NeuralNetwork.hpp</text>
</a>
</g>
</g>
<!-- Node1&#45;&gt;Node2 -->
<g id="edge1" class="edge">
<title>Node1&#45;&gt;Node2</title>
<path fill="none" stroke="#63b8ff" d="M110.27,-58.74C100.13,-49.53 88.61,-39.06 79.55,-30.83"/>
<polygon fill="#63b8ff" stroke="#63b8ff" points="107.63,-60.98 117.39,-65.11 112.34,-55.8 107.63,-60.98"/>
</g>
<!-- Node3 -->
<g id="node3" class="node">
<title>Node3</title>
<g id="a_node3"><a xlink:href="test__activation_8cpp.html" target="_top" xlink:title=" ">
<polygon fill="white" stroke="#666666" points="267.75,-24.88 145.25,-24.88 145.25,-5.63 267.75,-5.63 267.75,-24.88"/>
<text text-anchor="middle" x="206.5" y="-11.38" font-family="Helvetica,sans-Serif" font-size="10.00">tests/test_activation.cpp</text>
</a>
</g>
</g>
<!-- Node1&#45;&gt;Node3 -->
<g id="edge2" class="edge">
<title>Node1&#45;&gt;Node3</title>
<path fill="none" stroke="#63b8ff" d="M158.92,-58.87C171.84,-47.3 186.98,-33.74 196.65,-25.07"/>
<polygon fill="#63b8ff" stroke="#63b8ff" points="156.95,-55.83 151.84,-65.11 161.62,-61.05 156.95,-55.83"/>
</g>
</g>
</svg>
