<?xml version="1.0" encoding="UTF-8" standalone="no"?>
<!DOCTYPE svg PUBLIC "-//W3C//DTD SVG 1.1//EN"
 "http://www.w3.org/Graphics/SVG/1.1/DTD/svg11.dtd">
<!-- Generated by graphviz version 8.0.5 (20230430.1635)
 -->
<!-- Title: include/NNFSCore/Optimizer/SGD.hpp Pages: 1 -->
<svg width="369pt" height="315pt"
 viewBox="0.00 0.00 369.25 314.75" xmlns="http://www.w3.org/2000/svg" xmlns:xlink="http://www.w3.org/1999/xlink">
<g id="graph0" class="graph" transform="scale(1 1) rotate(0) translate(4 310.75)">
<title>include/NNFSCore/Optimizer/SGD.hpp</title>
<!-- Node1 -->
<g id="node1" class="node">
<title>Node1</title>
<g id="a_node1"><a xlink:title=" ">
<polygon fill="#999999" stroke="#666666" points="157.38,-306.75 15.38,-306.75 15.38,-276.25 157.38,-276.25 157.38,-306.75"/>
<text text-anchor="start" x="23.38" y="-293.25" font-family="Helvetica,sans-Serif" font-size="10.00">include/NNFSCore/Optimizer</text>
<text text-anchor="middle" x="86.38" y="-282" font-family="Helvetica,sans-Serif" font-size="10.00">/SGD.hpp</text>
</a>
</g>
</g>
<!-- Node2 -->
<g id="node2" class="node">
<title>Node2</title>
<g id="a_node2"><a xlink:title=" ">
<polygon fill="#e0e0e0" stroke="#999999" points="70.75,-185 0,-185 0,-165.75 70.75,-165.75 70.75,-185"/>
<text text-anchor="middle" x="35.38" y="-171.5" font-family="Helvetica,sans-Serif" font-size="10.00">Eigen/Dense</text>
</a>
</g>
</g>
<!-- Node1&#45;&gt;Node2 -->
<g id="edge1" class="edge">
<title>Node1&#45;&gt;Node2</title>
<path fill="none" stroke="#63b8ff" d="M79.92,-276.05C70.75,-255.53 53.95,-217.95 43.81,-195.25"/>
<polygon fill="#63b8ff" stroke="#63b8ff" points="46.7,-194.15 39.43,-186.45 40.31,-197.01 46.7,-194.15"/>
</g>
<!-- Node3 -->
<g id="node3" class="node">
<title>Node3</title>
<g id="a_node3"><a xlink:href="_optimizer_8hpp.html" target="_top" xlink:title=" ">
<polygon fill="white" stroke="#666666" points="166,-240.25 90.75,-240.25 90.75,-221 166,-221 166,-240.25"/>
<text text-anchor="middle" x="128.38" y="-226.75" font-family="Helvetica,sans-Serif" font-size="10.00">Optimizer.hpp</text>
</a>
</g>
</g>
<!-- Node1&#45;&gt;Node3 -->
<g id="edge2" class="edge">
<title>Node1&#45;&gt;Node3</title>
<path fill="none" stroke="#63b8ff" d="M96.76,-275.95C102.48,-267.93 109.62,-257.92 115.67,-249.44"/>
<polygon fill="#63b8ff" stroke="#63b8ff" points="118.94,-251.87 121.9,-241.7 113.24,-247.81 118.94,-251.87"/>
</g>
<!-- Node3&#45;&gt;Node2 -->
<g id="edge3" class="edge">
<title>Node3&#45;&gt;Node2</title>
<path fill="none" stroke="#63b8ff" d="M112.6,-220.59C98.3,-212.41 76.99,-200.21 60.38,-190.69"/>
<polygon fill="#63b8ff" stroke="#63b8ff" points="62.65,-187.38 52.23,-185.45 59.17,-193.46 62.65,-187.38"/>
</g>
<!-- Node4 -->
<g id="node4" class="node">
<title>Node4</title>
<g id="a_node4"><a xlink:href="clue_8hpp.html" target="_top" xlink:title=" ">
<polygon fill="white" stroke="#666666" points="275.12,-74.5 179.62,-74.5 179.62,-55.25 275.12,-55.25 275.12,-74.5"/>
<text text-anchor="middle" x="227.38" y="-61" font-family="Helvetica,sans-Serif" font-size="10.00">../Utilities/clue.hpp</text>
</a>
</g>
</g>
<!-- Node3&#45;&gt;Node4 -->
<g id="edge4" class="edge">
<title>Node3&#45;&gt;Node4</title>
<path fill="none" stroke="#63b8ff" d="M146.89,-220.64C161.35,-212.87 181.15,-200.45 194.38,-185 212.02,-164.38 213.02,-155.87 220.38,-129.75 224.45,-115.27 226.18,-98.31 226.9,-85.51"/>
<polygon fill="#63b8ff" stroke="#63b8ff" points="230.42,-85.86 227.32,-75.73 223.43,-85.58 230.42,-85.86"/>
</g>
<!-- Node10 -->
<g id="node10" class="node">
<title>Node10</title>
<g id="a_node10"><a xlink:href="_dense_8hpp.html" target="_top" xlink:title=" ">
<polygon fill="white" stroke="#666666" points="185.5,-185 89.25,-185 89.25,-165.75 185.5,-165.75 185.5,-185"/>
<text text-anchor="middle" x="137.38" y="-171.5" font-family="Helvetica,sans-Serif" font-size="10.00">../Layer/Dense.hpp</text>
</a>
</g>
</g>
<!-- Node3&#45;&gt;Node10 -->
<g id="edge10" class="edge">
<title>Node3&#45;&gt;Node10</title>
<path fill="none" stroke="#63b8ff" d="M129.86,-220.83C131,-214.09 132.62,-204.52 134.06,-195.99"/>
<polygon fill="#63b8ff" stroke="#63b8ff" points="137.64,-196.8 135.86,-186.36 130.74,-195.64 137.64,-196.8"/>
</g>
<!-- Node5 -->
<g id="node5" class="node">
<title>Node5</title>
<g id="a_node5"><a xlink:title=" ">
<polygon fill="#e0e0e0" stroke="#999999" points="361.25,-19.25 311.5,-19.25 311.5,0 361.25,0 361.25,-19.25"/>
<text text-anchor="middle" x="336.38" y="-5.75" font-family="Helvetica,sans-Serif" font-size="10.00">iomanip</text>
</a>
</g>
</g>
<!-- Node4&#45;&gt;Node5 -->
<g id="edge5" class="edge">
<title>Node4&#45;&gt;Node5</title>
<path fill="none" stroke="#63b8ff" d="M245.87,-54.84C262.93,-46.5 288.53,-34 308.15,-24.41"/>
<polygon fill="#63b8ff" stroke="#63b8ff" points="309.35,-27.24 316.79,-19.7 306.27,-20.95 309.35,-27.24"/>
</g>
<!-- Node6 -->
<g id="node6" class="node">
<title>Node6</title>
<g id="a_node6"><a xlink:title=" ">
<polygon fill="#e0e0e0" stroke="#999999" points="169,-19.25 117.75,-19.25 117.75,0 169,0 169,-19.25"/>
<text text-anchor="middle" x="143.38" y="-5.75" font-family="Helvetica,sans-Serif" font-size="10.00">sstream</text>
</a>
</g>
</g>
<!-- Node4&#45;&gt;Node6 -->
<g id="edge6" class="edge">
<title>Node4&#45;&gt;Node6</title>
<path fill="none" stroke="#63b8ff" d="M213.13,-54.84C200.45,-46.81 181.68,-34.91 166.81,-25.48"/>
<polygon fill="#63b8ff" stroke="#63b8ff" points="169.01,-22.1 158.69,-19.7 165.27,-28.01 169.01,-22.1"/>
</g>
<!-- Node7 -->
<g id="node7" class="node">
<title>Node7</title>
<g id="a_node7"><a xlink:title=" ">
<polygon fill="#e0e0e0" stroke="#999999" points="235.5,-19.25 187.25,-19.25 187.25,0 235.5,0 235.5,-19.25"/>
<text text-anchor="middle" x="211.38" y="-5.75" font-family="Helvetica,sans-Serif" font-size="10.00">cassert</text>
</a>
</g>
</g>
<!-- Node4&#45;&gt;Node7 -->
<g id="edge7" class="edge">
<title>Node4&#45;&gt;Node7</title>
<path fill="none" stroke="#63b8ff" d="M224.73,-55.08C222.68,-48.26 219.77,-38.56 217.18,-29.95"/>
<polygon fill="#63b8ff" stroke="#63b8ff" points="220.3,-29.18 214.07,-20.61 213.6,-31.19 220.3,-29.18"/>
</g>
<!-- Node8 -->
<g id="node8" class="node">
<title>Node8</title>
<g id="a_node8"><a xlink:title=" ">
<polygon fill="#e0e0e0" stroke="#999999" points="95.12,-19.25 41.62,-19.25 41.62,0 95.12,0 95.12,-19.25"/>
<text text-anchor="middle" x="68.38" y="-5.75" font-family="Helvetica,sans-Serif" font-size="10.00">iostream</text>
</a>
</g>
</g>
<!-- Node4&#45;&gt;Node8 -->
<g id="edge8" class="edge">
<title>Node4&#45;&gt;Node8</title>
<path fill="none" stroke="#63b8ff" d="M200.4,-54.84C174.36,-46.12 134.71,-32.84 105.66,-23.11"/>
<polygon fill="#63b8ff" stroke="#63b8ff" points="107.07,-19.56 96.48,-19.7 104.85,-26.2 107.07,-19.56"/>
</g>
<!-- Node9 -->
<g id="node9" class="node">
<title>Node9</title>
<g id="a_node9"><a xlink:title=" ">
<polygon fill="#e0e0e0" stroke="#999999" points="293.38,-19.25 253.38,-19.25 253.38,0 293.38,0 293.38,-19.25"/>
<text text-anchor="middle" x="273.38" y="-5.75" font-family="Helvetica,sans-Serif" font-size="10.00">ctime</text>
</a>
</g>
</g>
<!-- Node4&#45;&gt;Node9 -->
<g id="edge9" class="edge">
<title>Node4&#45;&gt;Node9</title>
<path fill="none" stroke="#63b8ff" d="M234.97,-55.08C241.39,-47.65 250.78,-36.79 258.66,-27.66"/>
<polygon fill="#63b8ff" stroke="#63b8ff" points="261.73,-30.46 265.61,-20.61 256.43,-25.89 261.73,-30.46"/>
</g>
<!-- Node10&#45;&gt;Node8 -->
<g id="edge11" class="edge">
<title>Node10&#45;&gt;Node8</title>
<path fill="none" stroke="#63b8ff" d="M118.22,-165.37C104.61,-157.88 87.24,-145.84 78.38,-129.75 61.08,-98.35 62.57,-55.09 65.37,-30.27"/>
<polygon fill="#63b8ff" stroke="#63b8ff" points="68.93,-31.07 66.77,-20.7 61.99,-30.15 68.93,-31.07"/>
</g>
<!-- Node11 -->
<g id="node11" class="node">
<title>Node11</title>
<g id="a_node11"><a xlink:title=" ">
<polygon fill="#e0e0e0" stroke="#999999" points="135.5,-129.75 87.25,-129.75 87.25,-110.5 135.5,-110.5 135.5,-129.75"/>
<text text-anchor="middle" x="111.38" y="-116.25" font-family="Helvetica,sans-Serif" font-size="10.00">random</text>
</a>
</g>
</g>
<!-- Node10&#45;&gt;Node11 -->
<g id="edge12" class="edge">
<title>Node10&#45;&gt;Node11</title>
<path fill="none" stroke="#63b8ff" d="M133.08,-165.58C129.68,-158.61 124.8,-148.62 120.53,-139.87"/>
<polygon fill="#63b8ff" stroke="#63b8ff" points="123.29,-138.56 115.76,-131.11 117,-141.63 123.29,-138.56"/>
</g>
<!-- Node12 -->
<g id="node12" class="node">
<title>Node12</title>
<g id="a_node12"><a xlink:href="_layer_8hpp.html" target="_top" xlink:title=" ">
<polygon fill="white" stroke="#666666" points="211.38,-129.75 153.38,-129.75 153.38,-110.5 211.38,-110.5 211.38,-129.75"/>
<text text-anchor="middle" x="182.38" y="-116.25" font-family="Helvetica,sans-Serif" font-size="10.00">Layer.hpp</text>
</a>
</g>
</g>
<!-- Node10&#45;&gt;Node12 -->
<g id="edge13" class="edge">
<title>Node10&#45;&gt;Node12</title>
<path fill="none" stroke="#63b8ff" d="M144.81,-165.58C151.02,-158.23 160.08,-147.51 167.74,-138.44"/>
<polygon fill="#63b8ff" stroke="#63b8ff" points="171,-141.01 174.78,-131.11 165.65,-136.49 171,-141.01"/>
</g>
<!-- Node12&#45;&gt;Node4 -->
<g id="edge15" class="edge">
<title>Node12&#45;&gt;Node4</title>
<path fill="none" stroke="#63b8ff" d="M189.81,-110.33C196.02,-102.98 205.08,-92.26 212.74,-83.19"/>
<polygon fill="#63b8ff" stroke="#63b8ff" points="216,-85.76 219.78,-75.86 210.65,-81.24 216,-85.76"/>
</g>
<!-- Node13 -->
<g id="node13" class="node">
<title>Node13</title>
<g id="a_node13"><a xlink:title=" ">
<polygon fill="#e0e0e0" stroke="#999999" points="162,-74.5 98.75,-74.5 98.75,-55.25 162,-55.25 162,-74.5"/>
<text text-anchor="middle" x="130.38" y="-61" font-family="Helvetica,sans-Serif" font-size="10.00">Eigen/Core</text>
</a>
</g>
</g>
<!-- Node12&#45;&gt;Node13 -->
<g id="edge14" class="edge">
<title>Node12&#45;&gt;Node13</title>
<path fill="none" stroke="#63b8ff" d="M173.79,-110.33C166.46,-102.82 155.7,-91.81 146.73,-82.63"/>
<polygon fill="#63b8ff" stroke="#63b8ff" points="149.64,-80.57 140.15,-75.86 144.63,-85.46 149.64,-80.57"/>
</g>
</g>
</svg>
