<?xml version="1.0" encoding="UTF-8" standalone="no"?>
<!DOCTYPE svg PUBLIC "-//W3C//DTD SVG 1.1//EN"
 "http://www.w3.org/Graphics/SVG/1.1/DTD/svg11.dtd">
<!-- Generated by graphviz version 8.0.5 (20230430.1635)
 -->
<!-- Title: include/NNFS/Activation/Sigmoid.hpp Pages: 1 -->
<svg width="324pt" height="260pt"
 viewBox="0.00 0.00 323.88 259.50" xmlns="http://www.w3.org/2000/svg" xmlns:xlink="http://www.w3.org/1999/xlink">
<g id="graph0" class="graph" transform="scale(1 1) rotate(0) translate(4 255.5)">
<title>include/NNFS/Activation/Sigmoid.hpp</title>
<!-- Node1 -->
<g id="node1" class="node">
<title>Node1</title>
<g id="a_node1"><a xlink:title=" ">
<polygon fill="#999999" stroke="#666666" points="172.88,-251.5 48.88,-251.5 48.88,-221 172.88,-221 172.88,-251.5"/>
<text text-anchor="start" x="56.88" y="-238" font-family="Helvetica,sans-Serif" font-size="10.00">include/NNFS/Activation</text>
<text text-anchor="middle" x="110.88" y="-226.75" font-family="Helvetica,sans-Serif" font-size="10.00">/Sigmoid.hpp</text>
</a>
</g>
</g>
<!-- Node2 -->
<g id="node2" class="node">
<title>Node2</title>
<g id="a_node2"><a xlink:href="_activation_8hpp.html" target="_top" xlink:title=" ">
<polygon fill="white" stroke="#666666" points="149.62,-185 72.12,-185 72.12,-165.75 149.62,-165.75 149.62,-185"/>
<text text-anchor="middle" x="110.88" y="-171.5" font-family="Helvetica,sans-Serif" font-size="10.00">Activation.hpp</text>
</a>
</g>
</g>
<!-- Node1&#45;&gt;Node2 -->
<g id="edge1" class="edge">
<title>Node1&#45;&gt;Node2</title>
<path fill="none" stroke="#63b8ff" d="M110.88,-220.7C110.88,-213.37 110.88,-204.37 110.88,-196.41"/>
<polygon fill="#63b8ff" stroke="#63b8ff" points="114.38,-196.45 110.88,-186.45 107.38,-196.45 114.38,-196.45"/>
</g>
<!-- Node3 -->
<g id="node3" class="node">
<title>Node3</title>
<g id="a_node3"><a xlink:href="_layer_8hpp.html" target="_top" xlink:title=" ">
<polygon fill="white" stroke="#666666" points="157.12,-129.75 64.62,-129.75 64.62,-110.5 157.12,-110.5 157.12,-129.75"/>
<text text-anchor="middle" x="110.88" y="-116.25" font-family="Helvetica,sans-Serif" font-size="10.00">../Layer/Layer.hpp</text>
</a>
</g>
</g>
<!-- Node2&#45;&gt;Node3 -->
<g id="edge2" class="edge">
<title>Node2&#45;&gt;Node3</title>
<path fill="none" stroke="#63b8ff" d="M110.88,-165.58C110.88,-158.92 110.88,-149.49 110.88,-141.03"/>
<polygon fill="#63b8ff" stroke="#63b8ff" points="114.38,-141.11 110.88,-131.11 107.38,-141.11 114.38,-141.11"/>
</g>
<!-- Node4 -->
<g id="node4" class="node">
<title>Node4</title>
<g id="a_node4"><a xlink:title=" ">
<polygon fill="#e0e0e0" stroke="#999999" points="96.25,-74.5 25.5,-74.5 25.5,-55.25 96.25,-55.25 96.25,-74.5"/>
<text text-anchor="middle" x="60.88" y="-61" font-family="Helvetica,sans-Serif" font-size="10.00">Eigen/Dense</text>
</a>
</g>
</g>
<!-- Node3&#45;&gt;Node4 -->
<g id="edge3" class="edge">
<title>Node3&#45;&gt;Node4</title>
<path fill="none" stroke="#63b8ff" d="M102.62,-110.33C95.57,-102.82 85.23,-91.81 76.61,-82.63"/>
<polygon fill="#63b8ff" stroke="#63b8ff" points="79.71,-80.75 70.31,-75.86 74.6,-85.55 79.71,-80.75"/>
</g>
<!-- Node5 -->
<g id="node5" class="node">
<title>Node5</title>
<g id="a_node5"><a xlink:href="clue_8hpp.html" target="_top" xlink:title=" ">
<polygon fill="white" stroke="#666666" points="209.62,-74.5 114.12,-74.5 114.12,-55.25 209.62,-55.25 209.62,-74.5"/>
<text text-anchor="middle" x="161.88" y="-61" font-family="Helvetica,sans-Serif" font-size="10.00">../Utilities/clue.hpp</text>
</a>
</g>
</g>
<!-- Node3&#45;&gt;Node5 -->
<g id="edge4" class="edge">
<title>Node3&#45;&gt;Node5</title>
<path fill="none" stroke="#63b8ff" d="M119.3,-110.33C126.49,-102.82 137.03,-91.81 145.83,-82.63"/>
<polygon fill="#63b8ff" stroke="#63b8ff" points="147.88,-85.5 152.27,-75.86 142.83,-80.66 147.88,-85.5"/>
</g>
<!-- Node6 -->
<g id="node6" class="node">
<title>Node6</title>
<g id="a_node6"><a xlink:title=" ">
<polygon fill="#e0e0e0" stroke="#999999" points="49.75,-19.25 0,-19.25 0,0 49.75,0 49.75,-19.25"/>
<text text-anchor="middle" x="24.88" y="-5.75" font-family="Helvetica,sans-Serif" font-size="10.00">iomanip</text>
</a>
</g>
</g>
<!-- Node5&#45;&gt;Node6 -->
<g id="edge5" class="edge">
<title>Node5&#45;&gt;Node6</title>
<path fill="none" stroke="#63b8ff" d="M138.63,-54.84C116.59,-46.27 83.23,-33.31 58.33,-23.63"/>
<polygon fill="#63b8ff" stroke="#63b8ff" points="59.82,-20.06 49.23,-19.7 57.28,-26.59 59.82,-20.06"/>
</g>
<!-- Node7 -->
<g id="node7" class="node">
<title>Node7</title>
<g id="a_node7"><a xlink:title=" ">
<polygon fill="#e0e0e0" stroke="#999999" points="119.5,-19.25 68.25,-19.25 68.25,0 119.5,0 119.5,-19.25"/>
<text text-anchor="middle" x="93.88" y="-5.75" font-family="Helvetica,sans-Serif" font-size="10.00">sstream</text>
</a>
</g>
</g>
<!-- Node5&#45;&gt;Node7 -->
<g id="edge6" class="edge">
<title>Node5&#45;&gt;Node7</title>
<path fill="none" stroke="#63b8ff" d="M150.34,-54.84C140.31,-46.99 125.57,-35.45 113.67,-26.12"/>
<polygon fill="#63b8ff" stroke="#63b8ff" points="116.27,-22.93 106.24,-19.52 111.96,-28.45 116.27,-22.93"/>
</g>
<!-- Node8 -->
<g id="node8" class="node">
<title>Node8</title>
<g id="a_node8"><a xlink:title=" ">
<polygon fill="#e0e0e0" stroke="#999999" points="186,-19.25 137.75,-19.25 137.75,0 186,0 186,-19.25"/>
<text text-anchor="middle" x="161.88" y="-5.75" font-family="Helvetica,sans-Serif" font-size="10.00">cassert</text>
</a>
</g>
</g>
<!-- Node5&#45;&gt;Node8 -->
<g id="edge7" class="edge">
<title>Node5&#45;&gt;Node8</title>
<path fill="none" stroke="#63b8ff" d="M161.88,-55.08C161.88,-48.42 161.88,-38.99 161.88,-30.53"/>
<polygon fill="#63b8ff" stroke="#63b8ff" points="165.38,-30.61 161.88,-20.61 158.38,-30.61 165.38,-30.61"/>
</g>
<!-- Node9 -->
<g id="node9" class="node">
<title>Node9</title>
<g id="a_node9"><a xlink:title=" ">
<polygon fill="#e0e0e0" stroke="#999999" points="257.62,-19.25 204.12,-19.25 204.12,0 257.62,0 257.62,-19.25"/>
<text text-anchor="middle" x="230.88" y="-5.75" font-family="Helvetica,sans-Serif" font-size="10.00">iostream</text>
</a>
</g>
</g>
<!-- Node5&#45;&gt;Node9 -->
<g id="edge8" class="edge">
<title>Node5&#45;&gt;Node9</title>
<path fill="none" stroke="#63b8ff" d="M173.58,-54.84C183.75,-46.99 198.71,-35.45 210.79,-26.12"/>
<polygon fill="#63b8ff" stroke="#63b8ff" points="212.56,-28.41 218.34,-19.52 208.29,-22.86 212.56,-28.41"/>
</g>
<!-- Node10 -->
<g id="node10" class="node">
<title>Node10</title>
<g id="a_node10"><a xlink:title=" ">
<polygon fill="#e0e0e0" stroke="#999999" points="315.88,-19.25 275.88,-19.25 275.88,0 315.88,0 315.88,-19.25"/>
<text text-anchor="middle" x="295.88" y="-5.75" font-family="Helvetica,sans-Serif" font-size="10.00">ctime</text>
</a>
</g>
</g>
<!-- Node5&#45;&gt;Node10 -->
<g id="edge9" class="edge">
<title>Node5&#45;&gt;Node10</title>
<path fill="none" stroke="#63b8ff" d="M184.61,-54.84C206.85,-46 240.88,-32.48 265.45,-22.72"/>
<polygon fill="#63b8ff" stroke="#63b8ff" points="266.67,-25.6 274.67,-18.66 264.08,-19.1 266.67,-25.6"/>
</g>
</g>
</svg>
