<?xml version="1.0" encoding="UTF-8" standalone="no"?>
<!DOCTYPE svg PUBLIC "-//W3C//DTD SVG 1.1//EN"
 "http://www.w3.org/Graphics/SVG/1.1/DTD/svg11.dtd">
<!-- Generated by graphviz version 8.0.5 (20230430.1635)
 -->
<!-- Title: include/NNFSCore/Activation/Softmax.hpp Pages: 1 -->
<svg width="377pt" height="172pt"
 viewBox="0.00 0.00 376.75 171.50" xmlns="http://www.w3.org/2000/svg" xmlns:xlink="http://www.w3.org/1999/xlink">
<g id="graph0" class="graph" transform="scale(1 1) rotate(0) translate(4 167.5)">
<title>include/NNFSCore/Activation/Softmax.hpp</title>
<!-- Node1 -->
<g id="node1" class="node">
<title>Node1</title>
<g id="a_node1"><a xlink:title=" ">
<polygon fill="#999999" stroke="#666666" points="245.62,-163.5 101.38,-163.5 101.38,-133 245.62,-133 245.62,-163.5"/>
<text text-anchor="start" x="109.38" y="-150" font-family="Helvetica,sans-Serif" font-size="10.00">include/NNFSCore/Activation</text>
<text text-anchor="middle" x="173.5" y="-138.75" font-family="Helvetica,sans-Serif" font-size="10.00">/Softmax.hpp</text>
</a>
</g>
</g>
<!-- Node2 -->
<g id="node2" class="node">
<title>Node2</title>
<g id="a_node2"><a xlink:href="_c_c_e___softmax_8hpp.html" target="_top" xlink:title=" ">
<polygon fill="white" stroke="#666666" points="190.75,-97 68.25,-97 68.25,-66.5 190.75,-66.5 190.75,-97"/>
<text text-anchor="start" x="76.25" y="-83.5" font-family="Helvetica,sans-Serif" font-size="10.00">include/NNFSCore/Loss</text>
<text text-anchor="middle" x="129.5" y="-72.25" font-family="Helvetica,sans-Serif" font-size="10.00">/CCE_Softmax.hpp</text>
</a>
</g>
</g>
<!-- Node1&#45;&gt;Node2 -->
<g id="edge1" class="edge">
<title>Node1&#45;&gt;Node2</title>
<path fill="none" stroke="#63b8ff" d="M157.35,-123.57C151.35,-114.78 144.73,-105.07 139.44,-97.33"/>
<polygon fill="#63b8ff" stroke="#63b8ff" points="154.99,-125.33 163.52,-131.61 160.77,-121.38 154.99,-125.33"/>
</g>
<!-- Node3 -->
<g id="node3" class="node">
<title>Node3</title>
<g id="a_node3"><a xlink:href="_neural_network_8hpp.html" target="_top" xlink:title=" ">
<polygon fill="white" stroke="#666666" points="127,-30.5 0,-30.5 0,0 127,0 127,-30.5"/>
<text text-anchor="start" x="8" y="-17" font-family="Helvetica,sans-Serif" font-size="10.00">include/NNFSCore/Model</text>
<text text-anchor="middle" x="63.5" y="-5.75" font-family="Helvetica,sans-Serif" font-size="10.00">/NeuralNetwork.hpp</text>
</a>
</g>
</g>
<!-- Node1&#45;&gt;Node3 -->
<g id="edge4" class="edge">
<title>Node1&#45;&gt;Node3</title>
<path fill="none" stroke="#63b8ff" d="M97.16,-128.16C82.28,-120.87 68.51,-110.82 59.5,-97 46.47,-77.01 52.51,-47.96 58.04,-30.7"/>
<polygon fill="#63b8ff" stroke="#63b8ff" points="95.51,-131.7 106.07,-132.57 98.35,-125.31 95.51,-131.7"/>
</g>
<!-- Node4 -->
<g id="node4" class="node">
<title>Node4</title>
<g id="a_node4"><a xlink:href="test__loss_8cpp.html" target="_top" xlink:title=" ">
<polygon fill="white" stroke="#666666" points="255.75,-24.88 157.25,-24.88 157.25,-5.63 255.75,-5.63 255.75,-24.88"/>
<text text-anchor="middle" x="206.5" y="-11.38" font-family="Helvetica,sans-Serif" font-size="10.00">tests/test_loss.cpp</text>
</a>
</g>
</g>
<!-- Node1&#45;&gt;Node4 -->
<g id="edge6" class="edge">
<title>Node1&#45;&gt;Node4</title>
<path fill="none" stroke="#63b8ff" d="M188.44,-123.06C192.72,-115.04 196.92,-105.89 199.5,-97 206.86,-71.59 207.19,-39.95 206.84,-24.94"/>
<polygon fill="#63b8ff" stroke="#63b8ff" points="184.98,-121.08 183.09,-131.5 191.07,-124.53 184.98,-121.08"/>
</g>
<!-- Node5 -->
<g id="node5" class="node">
<title>Node5</title>
<g id="a_node5"><a xlink:href="test__activation_8cpp.html" target="_top" xlink:title=" ">
<polygon fill="white" stroke="#666666" points="368.75,-91.38 246.25,-91.38 246.25,-72.12 368.75,-72.12 368.75,-91.38"/>
<text text-anchor="middle" x="307.5" y="-77.88" font-family="Helvetica,sans-Serif" font-size="10.00">tests/test_activation.cpp</text>
</a>
</g>
</g>
<!-- Node1&#45;&gt;Node5 -->
<g id="edge5" class="edge">
<title>Node1&#45;&gt;Node5</title>
<path fill="none" stroke="#63b8ff" d="M213.81,-127.85C238.7,-115.87 269.46,-101.06 288.78,-91.76"/>
<polygon fill="#63b8ff" stroke="#63b8ff" points="212.4,-125.12 204.91,-132.61 215.44,-131.43 212.4,-125.12"/>
</g>
<!-- Node2&#45;&gt;Node3 -->
<g id="edge2" class="edge">
<title>Node2&#45;&gt;Node3</title>
<path fill="none" stroke="#63b8ff" d="M106.7,-58.46C97.34,-49.32 86.76,-38.98 78.42,-30.83"/>
<polygon fill="#63b8ff" stroke="#63b8ff" points="103.93,-60.63 113.52,-65.11 108.82,-55.62 103.93,-60.63"/>
</g>
<!-- Node2&#45;&gt;Node4 -->
<g id="edge3" class="edge">
<title>Node2&#45;&gt;Node4</title>
<path fill="none" stroke="#63b8ff" d="M155.23,-59.2C169.12,-47.56 185.53,-33.82 195.97,-25.07"/>
<polygon fill="#63b8ff" stroke="#63b8ff" points="153.39,-57.01 147.97,-66.11 157.89,-62.38 153.39,-57.01"/>
</g>
</g>
</svg>
