<?xml version="1.0" encoding="UTF-8" standalone="no"?>
<!DOCTYPE svg PUBLIC "-//W3C//DTD SVG 1.1//EN"
 "http://www.w3.org/Graphics/SVG/1.1/DTD/svg11.dtd">
<!-- Generated by graphviz version 8.0.5 (20230430.1635)
 -->
<!-- Title: tools/paint/canvas.cpp Pages: 1 -->
<svg width="576pt" height="193pt"
 viewBox="0.00 0.00 575.62 193.00" xmlns="http://www.w3.org/2000/svg" xmlns:xlink="http://www.w3.org/1999/xlink">
<g id="graph0" class="graph" transform="scale(1 1) rotate(0) translate(4 189)">
<title>tools/paint/canvas.cpp</title>
<!-- Node1 -->
<g id="Node000001" class="node">
<title>Node1</title>
<g id="a_Node000001"><a xlink:title=" ">
<polygon fill="#999999" stroke="#666666" points="352.75,-185 239.25,-185 239.25,-165.75 352.75,-165.75 352.75,-185"/>
<text text-anchor="middle" x="296" y="-171.5" font-family="Helvetica,sans-Serif" font-size="10.00">tools/paint/canvas.cpp</text>
</a>
</g>
</g>
<!-- Node2 -->
<g id="Node000002" class="node">
<title>Node2</title>
<g id="a_Node000002"><a xlink:href="canvas_8h.html" target="_top" xlink:title=" ">
<polygon fill="white" stroke="#666666" points="237.5,-74.5 182.5,-74.5 182.5,-55.25 237.5,-55.25 237.5,-74.5"/>
<text text-anchor="middle" x="210" y="-61" font-family="Helvetica,sans-Serif" font-size="10.00">canvas.h</text>
</a>
</g>
</g>
<!-- Node1&#45;&gt;Node2 -->
<g id="edge1_Node000001_Node000002" class="edge">
<title>Node1&#45;&gt;Node2</title>
<g id="a_edge1_Node000001_Node000002"><a xlink:title=" ">
<path fill="none" stroke="#63b8ff" d="M288.96,-165.5C274.73,-147.53 242.29,-106.61 223.72,-83.19"/>
<polygon fill="#63b8ff" stroke="#63b8ff" points="226.09,-81.54 217.13,-75.88 220.6,-85.89 226.09,-81.54"/>
</a>
</g>
</g>
<!-- Node9 -->
<g id="Node000009" class="node">
<title>Node9</title>
<g id="a_Node000009"><a xlink:href="paint_8h.html" target="_top" xlink:title=" ">
<polygon fill="white" stroke="#666666" points="404.25,-129.75 359.75,-129.75 359.75,-110.5 404.25,-110.5 404.25,-129.75"/>
<text text-anchor="middle" x="382" y="-116.25" font-family="Helvetica,sans-Serif" font-size="10.00">paint.h</text>
</a>
</g>
</g>
<!-- Node1&#45;&gt;Node9 -->
<g id="edge8_Node000001_Node000009" class="edge">
<title>Node1&#45;&gt;Node9</title>
<g id="a_edge8_Node000001_Node000009"><a xlink:title=" ">
<path fill="none" stroke="#63b8ff" d="M310.59,-165.34C323.56,-157.31 342.78,-145.41 358.01,-135.98"/>
<polygon fill="#63b8ff" stroke="#63b8ff" points="359.68,-138.44 366.34,-130.2 356,-132.49 359.68,-138.44"/>
</a>
</g>
</g>
<!-- Node3 -->
<g id="Node000003" class="node">
<title>Node3</title>
<g id="a_Node000003"><a xlink:title=" ">
<polygon fill="#e0e0e0" stroke="#999999" points="421.75,-19.25 368.25,-19.25 368.25,0 421.75,0 421.75,-19.25"/>
<text text-anchor="middle" x="395" y="-5.75" font-family="Helvetica,sans-Serif" font-size="10.00">QWidget</text>
</a>
</g>
</g>
<!-- Node2&#45;&gt;Node3 -->
<g id="edge2_Node000002_Node000003" class="edge">
<title>Node2&#45;&gt;Node3</title>
<g id="a_edge2_Node000002_Node000003"><a xlink:title=" ">
<path fill="none" stroke="#63b8ff" d="M237.7,-55.9C269.58,-46.73 322.1,-31.61 357.59,-21.39"/>
<polygon fill="#63b8ff" stroke="#63b8ff" points="358.38,-24.52 367.02,-18.39 356.44,-17.79 358.38,-24.52"/>
</a>
</g>
</g>
<!-- Node4 -->
<g id="Node000004" class="node">
<title>Node4</title>
<g id="a_Node000004"><a xlink:title=" ">
<polygon fill="#e0e0e0" stroke="#999999" points="499.75,-19.25 452.25,-19.25 452.25,0 499.75,0 499.75,-19.25"/>
<text text-anchor="middle" x="476" y="-5.75" font-family="Helvetica,sans-Serif" font-size="10.00">QLabel</text>
</a>
</g>
</g>
<!-- Node2&#45;&gt;Node4 -->
<g id="edge3_Node000002_Node000004" class="edge">
<title>Node2&#45;&gt;Node4</title>
<g id="a_edge3_Node000002_Node000004"><a xlink:title=" ">
<path fill="none" stroke="#63b8ff" d="M237.86,-57.27C240.94,-56.57 244.03,-55.88 247,-55.25 265.74,-51.24 381.98,-28.76 441.28,-17.32"/>
<polygon fill="#63b8ff" stroke="#63b8ff" points="441.84,-20.58 451,-15.25 440.51,-13.71 441.84,-20.58"/>
</a>
</g>
</g>
<!-- Node5 -->
<g id="Node000005" class="node">
<title>Node5</title>
<g id="a_Node000005"><a xlink:title=" ">
<polygon fill="#e0e0e0" stroke="#999999" points="76,-19.25 0,-19.25 0,0 76,0 76,-19.25"/>
<text text-anchor="middle" x="38" y="-5.75" font-family="Helvetica,sans-Serif" font-size="10.00">QVBoxLayout</text>
</a>
</g>
</g>
<!-- Node2&#45;&gt;Node5 -->
<g id="edge4_Node000002_Node000005" class="edge">
<title>Node2&#45;&gt;Node5</title>
<g id="a_edge4_Node000002_Node000005"><a xlink:title=" ">
<path fill="none" stroke="#63b8ff" d="M182.37,-55.32C154.04,-46.55 109.72,-32.83 77.66,-22.9"/>
<polygon fill="#63b8ff" stroke="#63b8ff" points="78.88,-19.31 68.29,-19.69 76.81,-25.99 78.88,-19.31"/>
</a>
</g>
</g>
<!-- Node6 -->
<g id="Node000006" class="node">
<title>Node6</title>
<g id="a_Node000006"><a xlink:title=" ">
<polygon fill="#e0e0e0" stroke="#999999" points="171.75,-19.25 94.25,-19.25 94.25,0 171.75,0 171.75,-19.25"/>
<text text-anchor="middle" x="133" y="-5.75" font-family="Helvetica,sans-Serif" font-size="10.00">QMouseEvent</text>
</a>
</g>
</g>
<!-- Node2&#45;&gt;Node6 -->
<g id="edge5_Node000002_Node000006" class="edge">
<title>Node2&#45;&gt;Node6</title>
<g id="a_edge5_Node000002_Node000006"><a xlink:title=" ">
<path fill="none" stroke="#63b8ff" d="M196.94,-54.84C185.43,-46.89 168.44,-35.14 154.87,-25.75"/>
<polygon fill="#63b8ff" stroke="#63b8ff" points="157.34,-22.51 147.13,-19.7 153.36,-28.27 157.34,-22.51"/>
</a>
</g>
</g>
<!-- Node7 -->
<g id="Node000007" class="node">
<title>Node7</title>
<g id="a_Node000007"><a xlink:title=" ">
<polygon fill="#e0e0e0" stroke="#999999" points="244.12,-19.25 189.88,-19.25 189.88,0 244.12,0 244.12,-19.25"/>
<text text-anchor="middle" x="217" y="-5.75" font-family="Helvetica,sans-Serif" font-size="10.00">QPainter</text>
</a>
</g>
</g>
<!-- Node2&#45;&gt;Node7 -->
<g id="edge6_Node000002_Node000007" class="edge">
<title>Node2&#45;&gt;Node7</title>
<g id="a_edge6_Node000002_Node000007"><a xlink:title=" ">
<path fill="none" stroke="#63b8ff" d="M211.16,-55.08C212.04,-48.34 213.3,-38.77 214.42,-30.24"/>
<polygon fill="#63b8ff" stroke="#63b8ff" points="217.99,-30.98 215.82,-20.61 211.05,-30.07 217.99,-30.98"/>
</a>
</g>
</g>
<!-- Node8 -->
<g id="Node000008" class="node">
<title>Node8</title>
<g id="a_Node000008"><a xlink:title=" ">
<polygon fill="#e0e0e0" stroke="#999999" points="325.62,-19.25 262.38,-19.25 262.38,0 325.62,0 325.62,-19.25"/>
<text text-anchor="middle" x="294" y="-5.75" font-family="Helvetica,sans-Serif" font-size="10.00">Eigen/Core</text>
</a>
</g>
</g>
<!-- Node2&#45;&gt;Node8 -->
<g id="edge7_Node000002_Node000008" class="edge">
<title>Node2&#45;&gt;Node8</title>
<g id="a_edge7_Node000002_Node000008"><a xlink:title=" ">
<path fill="none" stroke="#63b8ff" d="M224.25,-54.84C236.92,-46.81 255.69,-34.91 270.57,-25.48"/>
<polygon fill="#63b8ff" stroke="#63b8ff" points="272.11,-28.01 278.68,-19.7 268.36,-22.1 272.11,-28.01"/>
</a>
</g>
</g>
<!-- Node9&#45;&gt;Node2 -->
<g id="edge10_Node000009_Node000002" class="edge">
<title>Node9&#45;&gt;Node2</title>
<g id="a_edge10_Node000009_Node000002"><a xlink:title=" ">
<path fill="none" stroke="#63b8ff" d="M359.51,-112.16C331.21,-103.4 282.16,-88.22 247.99,-77.64"/>
<polygon fill="#63b8ff" stroke="#63b8ff" points="249.49,-74.13 238.91,-74.51 247.42,-80.82 249.49,-74.13"/>
</a>
</g>
</g>
<!-- Node9&#45;&gt;Node3 -->
<g id="edge11_Node000009_Node000003" class="edge">
<title>Node9&#45;&gt;Node3</title>
<g id="a_edge11_Node000009_Node000003"><a xlink:title=" ">
<path fill="none" stroke="#63b8ff" d="M394.91,-110.21C405.24,-102.21 418.96,-89.47 425,-74.5 431.49,-58.41 421.62,-40.57 411.5,-27.85"/>
<polygon fill="#63b8ff" stroke="#63b8ff" points="413.52,-25.84 404.32,-20.58 408.24,-30.43 413.52,-25.84"/>
</a>
</g>
</g>
<!-- Node9&#45;&gt;Node4 -->
<g id="edge12_Node000009_Node000004" class="edge">
<title>Node9&#45;&gt;Node4</title>
<g id="a_edge12_Node000009_Node000004"><a xlink:title=" ">
<path fill="none" stroke="#63b8ff" d="M396.93,-110.08C409.51,-101.92 427.44,-89 440,-74.5 451.72,-60.97 461.43,-43.03 467.8,-29.61"/>
<polygon fill="#63b8ff" stroke="#63b8ff" points="471.4,-31.15 472.33,-20.59 465.02,-28.26 471.4,-31.15"/>
</a>
</g>
</g>
<!-- Node10 -->
<g id="Node000010" class="node">
<title>Node10</title>
<g id="a_Node000010"><a xlink:title=" ">
<polygon fill="#e0e0e0" stroke="#999999" points="567.62,-74.5 510.38,-74.5 510.38,-55.25 567.62,-55.25 567.62,-74.5"/>
<text text-anchor="middle" x="539" y="-61" font-family="Helvetica,sans-Serif" font-size="10.00">ui_paint.h</text>
</a>
</g>
</g>
<!-- Node9&#45;&gt;Node10 -->
<g id="edge9_Node000009_Node000010" class="edge">
<title>Node9&#45;&gt;Node10</title>
<g id="a_edge9_Node000009_Node000010"><a xlink:title=" ">
<path fill="none" stroke="#63b8ff" d="M404.49,-111.5C429.98,-102.85 471.89,-88.64 502.17,-78.37"/>
<polygon fill="#63b8ff" stroke="#63b8ff" points="503,-81.44 511.34,-74.92 500.75,-74.81 503,-81.44"/>
</a>
</g>
</g>
<!-- Node11 -->
<g id="Node000011" class="node">
<title>Node11</title>
<g id="a_Node000011"><a xlink:title=" ">
<polygon fill="#e0e0e0" stroke="#999999" points="330.25,-74.5 255.75,-74.5 255.75,-55.25 330.25,-55.25 330.25,-74.5"/>
<text text-anchor="middle" x="293" y="-61" font-family="Helvetica,sans-Serif" font-size="10.00">QPushButton</text>
</a>
</g>
</g>
<!-- Node9&#45;&gt;Node11 -->
<g id="edge13_Node000009_Node000011" class="edge">
<title>Node9&#45;&gt;Node11</title>
<g id="a_edge13_Node000009_Node000011"><a xlink:title=" ">
<path fill="none" stroke="#63b8ff" d="M366.9,-110.09C353.35,-101.98 333.21,-89.93 317.38,-80.46"/>
<polygon fill="#63b8ff" stroke="#63b8ff" points="319.55,-77.08 309.17,-74.95 315.96,-83.09 319.55,-77.08"/>
</a>
</g>
</g>
<!-- Node12 -->
<g id="Node000012" class="node">
<title>Node12</title>
<g id="a_Node000012"><a xlink:title=" ">
<polygon fill="#e0e0e0" stroke="#999999" points="415.5,-74.5 348.5,-74.5 348.5,-55.25 415.5,-55.25 415.5,-74.5"/>
<text text-anchor="middle" x="382" y="-61" font-family="Helvetica,sans-Serif" font-size="10.00">NNFS/Core</text>
</a>
</g>
</g>
<!-- Node9&#45;&gt;Node12 -->
<g id="edge14_Node000009_Node000012" class="edge">
<title>Node9&#45;&gt;Node12</title>
<g id="a_edge14_Node000009_Node000012"><a xlink:title=" ">
<path fill="none" stroke="#63b8ff" d="M382,-110.33C382,-103.67 382,-94.24 382,-85.78"/>
<polygon fill="#63b8ff" stroke="#63b8ff" points="385.5,-85.86 382,-75.86 378.5,-85.86 385.5,-85.86"/>
</a>
</g>
</g>
</g>
</svg>
