<?xml version="1.0" encoding="UTF-8" standalone="no"?>
<!DOCTYPE svg PUBLIC "-//W3C//DTD SVG 1.1//EN"
 "http://www.w3.org/Graphics/SVG/1.1/DTD/svg11.dtd">
<!-- Generated by graphviz version 8.0.5 (20230430.1635)
 -->
<!-- Title: tools/paint/canvas.h Pages: 1 -->
<svg width="516pt" height="138pt"
 viewBox="0.00 0.00 516.38 137.75" xmlns="http://www.w3.org/2000/svg" xmlns:xlink="http://www.w3.org/1999/xlink">
<g id="graph0" class="graph" transform="scale(1 1) rotate(0) translate(4 133.75)">
<title>tools/paint/canvas.h</title>
<!-- Node1 -->
<g id="Node000001" class="node">
<title>Node1</title>
<g id="a_Node000001"><a xlink:title=" ">
<polygon fill="#999999" stroke="#666666" points="234.25,-129.75 131.25,-129.75 131.25,-110.5 234.25,-110.5 234.25,-129.75"/>
<text text-anchor="middle" x="182.75" y="-116.25" font-family="Helvetica,sans-Serif" font-size="10.00">tools/paint/canvas.h</text>
</a>
</g>
</g>
<!-- Node2 -->
<g id="Node000002" class="node">
<title>Node2</title>
<g id="a_Node000002"><a xlink:href="canvas_8cpp.html" target="_top" xlink:title=" ">
<polygon fill="white" stroke="#666666" points="113.5,-19.25 0,-19.25 0,0 113.5,0 113.5,-19.25"/>
<text text-anchor="middle" x="56.75" y="-5.75" font-family="Helvetica,sans-Serif" font-size="10.00">tools/paint/canvas.cpp</text>
</a>
</g>
</g>
<!-- Node1&#45;&gt;Node2 -->
<g id="edge1_Node000001_Node000002" class="edge">
<title>Node1&#45;&gt;Node2</title>
<g id="a_edge1_Node000001_Node000002"><a xlink:title=" ">
<path fill="none" stroke="#63b8ff" d="M162.74,-103.3C152.22,-94.87 139.17,-84.26 127.75,-74.5 105.31,-55.33 79.75,-31.94 66.26,-19.46"/>
<polygon fill="#63b8ff" stroke="#63b8ff" points="160.23,-106.57 170.23,-110.06 164.59,-101.09 160.23,-106.57"/>
</a>
</g>
</g>
<!-- Node3 -->
<g id="Node000003" class="node">
<title>Node3</title>
<g id="a_Node000003"><a xlink:href="paint_8h.html" target="_top" xlink:title=" ">
<polygon fill="white" stroke="#666666" points="229,-74.5 136.5,-74.5 136.5,-55.25 229,-55.25 229,-74.5"/>
<text text-anchor="middle" x="182.75" y="-61" font-family="Helvetica,sans-Serif" font-size="10.00">tools/paint/paint.h</text>
</a>
</g>
</g>
<!-- Node1&#45;&gt;Node3 -->
<g id="edge2_Node000001_Node000003" class="edge">
<title>Node1&#45;&gt;Node3</title>
<g id="a_edge2_Node000001_Node000003"><a xlink:title=" ">
<path fill="none" stroke="#63b8ff" d="M182.75,-99.46C182.75,-91.02 182.75,-81.58 182.75,-74.86"/>
<polygon fill="#63b8ff" stroke="#63b8ff" points="179.25,-99.33 182.75,-109.33 186.25,-99.33 179.25,-99.33"/>
</a>
</g>
</g>
<!-- Node6 -->
<g id="Node000006" class="node">
<title>Node6</title>
<g id="a_Node000006"><a xlink:href="test__canvas_8h.html" target="_top" xlink:title=" ">
<polygon fill="white" stroke="#666666" points="437.12,-74.5 312.38,-74.5 312.38,-55.25 437.12,-55.25 437.12,-74.5"/>
<text text-anchor="middle" x="374.75" y="-61" font-family="Helvetica,sans-Serif" font-size="10.00">tools/paint/test_canvas.h</text>
</a>
</g>
</g>
<!-- Node1&#45;&gt;Node6 -->
<g id="edge6_Node000001_Node000006" class="edge">
<title>Node1&#45;&gt;Node6</title>
<g id="a_edge6_Node000001_Node000006"><a xlink:title=" ">
<path fill="none" stroke="#63b8ff" d="M225.76,-107.2C260.95,-97.44 309.97,-83.84 342.02,-74.95"/>
<polygon fill="#63b8ff" stroke="#63b8ff" points="225.02,-104.05 216.32,-110.09 226.89,-110.79 225.02,-104.05"/>
</a>
</g>
</g>
<!-- Node3&#45;&gt;Node2 -->
<g id="edge3_Node000003_Node000002" class="edge">
<title>Node3&#45;&gt;Node2</title>
<g id="a_edge3_Node000003_Node000002"><a xlink:title=" ">
<path fill="none" stroke="#63b8ff" d="M151.49,-50.66C128.68,-41.02 98.36,-28.21 78.23,-19.7"/>
<polygon fill="#63b8ff" stroke="#63b8ff" points="149.8,-54.17 160.38,-54.84 152.53,-47.73 149.8,-54.17"/>
</a>
</g>
</g>
<!-- Node4 -->
<g id="Node000004" class="node">
<title>Node4</title>
<g id="a_Node000004"><a xlink:href="main_8cpp.html" target="_top" xlink:title=" ">
<polygon fill="white" stroke="#666666" points="234.25,-19.25 131.25,-19.25 131.25,0 234.25,0 234.25,-19.25"/>
<text text-anchor="middle" x="182.75" y="-5.75" font-family="Helvetica,sans-Serif" font-size="10.00">tools/paint/main.cpp</text>
</a>
</g>
</g>
<!-- Node3&#45;&gt;Node4 -->
<g id="edge4_Node000003_Node000004" class="edge">
<title>Node3&#45;&gt;Node4</title>
<g id="a_edge4_Node000003_Node000004"><a xlink:title=" ">
<path fill="none" stroke="#63b8ff" d="M182.75,-44.21C182.75,-35.77 182.75,-26.33 182.75,-19.61"/>
<polygon fill="#63b8ff" stroke="#63b8ff" points="179.25,-44.08 182.75,-54.08 186.25,-44.08 179.25,-44.08"/>
</a>
</g>
</g>
<!-- Node5 -->
<g id="Node000005" class="node">
<title>Node5</title>
<g id="a_Node000005"><a xlink:href="paint_8cpp.html" target="_top" xlink:title=" ">
<polygon fill="white" stroke="#666666" points="355.25,-19.25 252.25,-19.25 252.25,0 355.25,0 355.25,-19.25"/>
<text text-anchor="middle" x="303.75" y="-5.75" font-family="Helvetica,sans-Serif" font-size="10.00">tools/paint/paint.cpp</text>
</a>
</g>
</g>
<!-- Node3&#45;&gt;Node5 -->
<g id="edge5_Node000003_Node000005" class="edge">
<title>Node3&#45;&gt;Node5</title>
<g id="a_edge5_Node000003_Node000005"><a xlink:title=" ">
<path fill="none" stroke="#63b8ff" d="M213.07,-50.53C234.94,-40.91 263.88,-28.17 283.12,-19.7"/>
<polygon fill="#63b8ff" stroke="#63b8ff" points="212.02,-47.61 204.28,-54.84 214.84,-54.02 212.02,-47.61"/>
</a>
</g>
</g>
<!-- Node7 -->
<g id="Node000007" class="node">
<title>Node7</title>
<g id="a_Node000007"><a xlink:href="test__canvas_8cpp.html" target="_top" xlink:title=" ">
<polygon fill="white" stroke="#666666" points="508.38,-19.25 373.12,-19.25 373.12,0 508.38,0 508.38,-19.25"/>
<text text-anchor="middle" x="440.75" y="-5.75" font-family="Helvetica,sans-Serif" font-size="10.00">tools/paint/test_canvas.cpp</text>
</a>
</g>
</g>
<!-- Node6&#45;&gt;Node7 -->
<g id="edge7_Node000006_Node000007" class="edge">
<title>Node6&#45;&gt;Node7</title>
<g id="a_edge7_Node000006_Node000007"><a xlink:title=" ">
<path fill="none" stroke="#63b8ff" d="M394.5,-47.94C406.02,-38.64 420.14,-27.26 429.72,-19.52"/>
<polygon fill="#63b8ff" stroke="#63b8ff" points="392.53,-45.84 386.95,-54.84 396.93,-51.29 392.53,-45.84"/>
</a>
</g>
</g>
</g>
</svg>
