<?xml version="1.0" encoding="UTF-8" standalone="no"?>
<!DOCTYPE svg PUBLIC "-//W3C//DTD SVG 1.1//EN"
 "http://www.w3.org/Graphics/SVG/1.1/DTD/svg11.dtd">
<!-- Generated by graphviz version 8.0.5 (20230430.1635)
 -->
<!-- Title: tools/paint/canvas.h Pages: 1 -->
<svg width="471pt" height="83pt"
 viewBox="0.00 0.00 471.38 82.50" xmlns="http://www.w3.org/2000/svg" xmlns:xlink="http://www.w3.org/1999/xlink">
<g id="graph0" class="graph" transform="scale(1 1) rotate(0) translate(4 78.5)">
<title>tools/paint/canvas.h</title>
<!-- Node1 -->
<g id="Node000001" class="node">
<title>Node1</title>
<g id="a_Node000001"><a xlink:title=" ">
<polygon fill="#999999" stroke="#666666" points="274.25,-74.5 171.25,-74.5 171.25,-55.25 274.25,-55.25 274.25,-74.5"/>
<text text-anchor="middle" x="222.75" y="-61" font-family="Helvetica,sans-Serif" font-size="10.00">tools/paint/canvas.h</text>
</a>
</g>
</g>
<!-- Node2 -->
<g id="Node000002" class="node">
<title>Node2</title>
<g id="a_Node000002"><a xlink:title=" ">
<polygon fill="#e0e0e0" stroke="#999999" points="53.5,-19.25 0,-19.25 0,0 53.5,0 53.5,-19.25"/>
<text text-anchor="middle" x="26.75" y="-5.75" font-family="Helvetica,sans-Serif" font-size="10.00">QWidget</text>
</a>
</g>
</g>
<!-- Node1&#45;&gt;Node2 -->
<g id="edge1_Node000001_Node000002" class="edge">
<title>Node1&#45;&gt;Node2</title>
<g id="a_edge1_Node000001_Node000002"><a xlink:title=" ">
<path fill="none" stroke="#63b8ff" d="M189.5,-54.84C154.71,-45.39 100.21,-30.58 63.99,-20.74"/>
<polygon fill="#63b8ff" stroke="#63b8ff" points="65.41,-17.23 54.84,-17.98 63.57,-23.98 65.41,-17.23"/>
</a>
</g>
</g>
<!-- Node3 -->
<g id="Node000003" class="node">
<title>Node3</title>
<g id="a_Node000003"><a xlink:title=" ">
<polygon fill="#e0e0e0" stroke="#999999" points="119.5,-19.25 72,-19.25 72,0 119.5,0 119.5,-19.25"/>
<text text-anchor="middle" x="95.75" y="-5.75" font-family="Helvetica,sans-Serif" font-size="10.00">QLabel</text>
</a>
</g>
</g>
<!-- Node1&#45;&gt;Node3 -->
<g id="edge2_Node000001_Node000003" class="edge">
<title>Node1&#45;&gt;Node3</title>
<g id="a_edge2_Node000001_Node000003"><a xlink:title=" ">
<path fill="none" stroke="#63b8ff" d="M201.21,-54.84C180.95,-46.35 150.4,-33.54 127.38,-23.89"/>
<polygon fill="#63b8ff" stroke="#63b8ff" points="128.98,-20.34 118.4,-19.7 126.27,-26.8 128.98,-20.34"/>
</a>
</g>
</g>
<!-- Node4 -->
<g id="Node000004" class="node">
<title>Node4</title>
<g id="a_Node000004"><a xlink:title=" ">
<polygon fill="#e0e0e0" stroke="#999999" points="213.75,-19.25 137.75,-19.25 137.75,0 213.75,0 213.75,-19.25"/>
<text text-anchor="middle" x="175.75" y="-5.75" font-family="Helvetica,sans-Serif" font-size="10.00">QVBoxLayout</text>
</a>
</g>
</g>
<!-- Node1&#45;&gt;Node4 -->
<g id="edge3_Node000001_Node000004" class="edge">
<title>Node1&#45;&gt;Node4</title>
<g id="a_edge3_Node000001_Node000004"><a xlink:title=" ">
<path fill="none" stroke="#63b8ff" d="M214.99,-55.08C208.43,-47.65 198.84,-36.79 190.79,-27.66"/>
<polygon fill="#63b8ff" stroke="#63b8ff" points="193.92,-25.79 184.68,-20.61 188.67,-30.42 193.92,-25.79"/>
</a>
</g>
</g>
<!-- Node5 -->
<g id="Node000005" class="node">
<title>Node5</title>
<g id="a_Node000005"><a xlink:title=" ">
<polygon fill="#e0e0e0" stroke="#999999" points="309.5,-19.25 232,-19.25 232,0 309.5,0 309.5,-19.25"/>
<text text-anchor="middle" x="270.75" y="-5.75" font-family="Helvetica,sans-Serif" font-size="10.00">QMouseEvent</text>
</a>
</g>
</g>
<!-- Node1&#45;&gt;Node5 -->
<g id="edge4_Node000001_Node000005" class="edge">
<title>Node1&#45;&gt;Node5</title>
<g id="a_edge4_Node000001_Node000005"><a xlink:title=" ">
<path fill="none" stroke="#63b8ff" d="M230.68,-55.08C237.38,-47.65 247.17,-36.79 255.39,-27.66"/>
<polygon fill="#63b8ff" stroke="#63b8ff" points="257.56,-30.38 261.65,-20.61 252.36,-25.69 257.56,-30.38"/>
</a>
</g>
</g>
<!-- Node6 -->
<g id="Node000006" class="node">
<title>Node6</title>
<g id="a_Node000006"><a xlink:title=" ">
<polygon fill="#e0e0e0" stroke="#999999" points="381.88,-19.25 327.62,-19.25 327.62,0 381.88,0 381.88,-19.25"/>
<text text-anchor="middle" x="354.75" y="-5.75" font-family="Helvetica,sans-Serif" font-size="10.00">QPainter</text>
</a>
</g>
</g>
<!-- Node1&#45;&gt;Node6 -->
<g id="edge5_Node000001_Node000006" class="edge">
<title>Node1&#45;&gt;Node6</title>
<g id="a_edge5_Node000001_Node000006"><a xlink:title=" ">
<path fill="none" stroke="#63b8ff" d="M245.14,-54.84C266.29,-46.31 298.24,-33.42 322.2,-23.76"/>
<polygon fill="#63b8ff" stroke="#63b8ff" points="323.28,-26.69 331.25,-19.7 320.66,-20.2 323.28,-26.69"/>
</a>
</g>
</g>
<!-- Node7 -->
<g id="Node000007" class="node">
<title>Node7</title>
<g id="a_Node000007"><a xlink:title=" ">
<polygon fill="#e0e0e0" stroke="#999999" points="463.38,-19.25 400.12,-19.25 400.12,0 463.38,0 463.38,-19.25"/>
<text text-anchor="middle" x="431.75" y="-5.75" font-family="Helvetica,sans-Serif" font-size="10.00">Eigen/Core</text>
</a>
</g>
</g>
<!-- Node1&#45;&gt;Node7 -->
<g id="edge6_Node000001_Node000007" class="edge">
<title>Node1&#45;&gt;Node7</title>
<g id="a_edge6_Node000001_Node000007"><a xlink:title=" ">
<path fill="none" stroke="#63b8ff" d="M258.2,-54.84C294.5,-45.59 350.93,-31.22 389.52,-21.39"/>
<polygon fill="#63b8ff" stroke="#63b8ff" points="390.07,-24.6 398.9,-18.74 388.34,-17.82 390.07,-24.6"/>
</a>
</g>
</g>
</g>
</svg>
