<?xml version="1.0" encoding="UTF-8" standalone="no"?>
<!DOCTYPE svg PUBLIC "-//W3C//DTD SVG 1.1//EN"
 "http://www.w3.org/Graphics/SVG/1.1/DTD/svg11.dtd">
<!-- Generated by graphviz version 8.0.5 (20230430.1635)
 -->
<!-- Title: NNFS::Softmax Pages: 1 -->
<svg width="100pt" height="138pt"
 viewBox="0.00 0.00 99.75 137.75" xmlns="http://www.w3.org/2000/svg" xmlns:xlink="http://www.w3.org/1999/xlink">
<g id="graph0" class="graph" transform="scale(1 1) rotate(0) translate(4 133.75)">
<title>NNFS::Softmax</title>
<!-- Node1 -->
<g id="node1" class="node">
<title>Node1</title>
<g id="a_node1"><a xlink:title="Softmax activation function.">
<polygon fill="#999999" stroke="#666666" points="88,-19.25 3.75,-19.25 3.75,0 88,0 88,-19.25"/>
<text text-anchor="middle" x="45.88" y="-5.75" font-family="Helvetica,sans-Serif" font-size="10.00">NNFS::Softmax</text>
</a>
</g>
</g>
<!-- Node2 -->
<g id="node2" class="node">
<title>Node2</title>
<g id="a_node2"><a xlink:href="class_n_n_f_s_1_1_activation.html" target="_top" xlink:title="Base class for all activation functions.">
<polygon fill="white" stroke="#666666" points="91.75,-74.5 0,-74.5 0,-55.25 91.75,-55.25 91.75,-74.5"/>
<text text-anchor="middle" x="45.88" y="-61" font-family="Helvetica,sans-Serif" font-size="10.00">NNFS::Activation</text>
</a>
</g>
</g>
<!-- Node2&#45;&gt;Node1 -->
<g id="edge1" class="edge">
<title>Node2&#45;&gt;Node1</title>
<path fill="none" stroke="#63b8ff" d="M45.88,-44.21C45.88,-35.77 45.88,-26.33 45.88,-19.61"/>
<polygon fill="#63b8ff" stroke="#63b8ff" points="42.38,-44.08 45.88,-54.08 49.38,-44.08 42.38,-44.08"/>
</g>
<!-- Node3 -->
<g id="node3" class="node">
<title>Node3</title>
<g id="a_node3"><a xlink:href="class_n_n_f_s_1_1_layer.html" target="_top" xlink:title="Base class for all layers.">
<polygon fill="white" stroke="#666666" points="82,-129.75 9.75,-129.75 9.75,-110.5 82,-110.5 82,-129.75"/>
<text text-anchor="middle" x="45.88" y="-116.25" font-family="Helvetica,sans-Serif" font-size="10.00">NNFS::Layer</text>
</a>
</g>
</g>
<!-- Node3&#45;&gt;Node2 -->
<g id="edge2" class="edge">
<title>Node3&#45;&gt;Node2</title>
<path fill="none" stroke="#63b8ff" d="M45.88,-99.46C45.88,-91.02 45.88,-81.58 45.88,-74.86"/>
<polygon fill="#63b8ff" stroke="#63b8ff" points="42.38,-99.33 45.88,-109.33 49.38,-99.33 42.38,-99.33"/>
</g>
</g>
</svg>
