<?xml version="1.0" encoding="UTF-8" standalone="no"?>
<!DOCTYPE svg PUBLIC "-//W3C//DTD SVG 1.1//EN"
 "http://www.w3.org/Graphics/SVG/1.1/DTD/svg11.dtd">
<!-- Generated by graphviz version 8.0.5 (20230430.1635)
 -->
<!-- Title: NNFS::Layer Pages: 1 -->
<svg width="374pt" height="138pt"
 viewBox="0.00 0.00 373.88 137.75" xmlns="http://www.w3.org/2000/svg" xmlns:xlink="http://www.w3.org/1999/xlink">
<g id="graph0" class="graph" transform="scale(1 1) rotate(0) translate(4 133.75)">
<title>NNFS::Layer</title>
<!-- Node1 -->
<g id="Node000001" class="node">
<title>Node1</title>
<g id="a_Node000001"><a xlink:title="Base class for all layers.">
<polygon fill="#999999" stroke="#666666" points="272,-129.75 199.75,-129.75 199.75,-110.5 272,-110.5 272,-129.75"/>
<text text-anchor="middle" x="235.88" y="-116.25" font-family="Helvetica,sans-Serif" font-size="10.00">NNFS::Layer</text>
</a>
</g>
</g>
<!-- Node2 -->
<g id="Node000002" class="node">
<title>Node2</title>
<g id="a_Node000002"><a xlink:href="class_n_n_f_s_1_1_activation.html" target="_top" xlink:title="Base class for all activation functions.">
<polygon fill="white" stroke="#666666" points="230.75,-74.5 139,-74.5 139,-55.25 230.75,-55.25 230.75,-74.5"/>
<text text-anchor="middle" x="184.88" y="-61" font-family="Helvetica,sans-Serif" font-size="10.00">NNFS::Activation</text>
</a>
</g>
</g>
<!-- Node1&#45;&gt;Node2 -->
<g id="edge1_Node000001_Node000002" class="edge">
<title>Node1&#45;&gt;Node2</title>
<g id="a_edge1_Node000001_Node000002"><a xlink:title=" ">
<path fill="none" stroke="#63b8ff" d="M220.05,-102.6C211.29,-93.45 200.73,-82.43 193.48,-74.86"/>
<polygon fill="#63b8ff" stroke="#63b8ff" points="217.01,-104.53 226.45,-109.33 222.06,-99.69 217.01,-104.53"/>
</a>
</g>
</g>
<!-- Node7 -->
<g id="Node000007" class="node">
<title>Node7</title>
<g id="a_Node000007"><a xlink:href="class_n_n_f_s_1_1_dense.html" target="_top" xlink:title="Dense layer.">
<polygon fill="white" stroke="#666666" points="324.88,-74.5 248.88,-74.5 248.88,-55.25 324.88,-55.25 324.88,-74.5"/>
<text text-anchor="middle" x="286.88" y="-61" font-family="Helvetica,sans-Serif" font-size="10.00">NNFS::Dense</text>
</a>
</g>
</g>
<!-- Node1&#45;&gt;Node7 -->
<g id="edge6_Node000001_Node000007" class="edge">
<title>Node1&#45;&gt;Node7</title>
<g id="a_edge6_Node000001_Node000007"><a xlink:title=" ">
<path fill="none" stroke="#63b8ff" d="M251.7,-102.6C260.46,-93.45 271.02,-82.43 278.27,-74.86"/>
<polygon fill="#63b8ff" stroke="#63b8ff" points="249.69,-99.69 245.3,-109.33 254.74,-104.53 249.69,-99.69"/>
</a>
</g>
</g>
<!-- Node3 -->
<g id="Node000003" class="node">
<title>Node3</title>
<g id="a_Node000003"><a xlink:href="class_n_n_f_s_1_1_re_l_u.html" target="_top" xlink:title="ReLU activation function.">
<polygon fill="white" stroke="#666666" points="73.75,-19.25 0,-19.25 0,0 73.75,0 73.75,-19.25"/>
<text text-anchor="middle" x="36.88" y="-5.75" font-family="Helvetica,sans-Serif" font-size="10.00">NNFS::ReLU</text>
</a>
</g>
</g>
<!-- Node2&#45;&gt;Node3 -->
<g id="edge2_Node000002_Node000003" class="edge">
<title>Node2&#45;&gt;Node3</title>
<g id="a_edge2_Node000002_Node000003"><a xlink:title=" ">
<path fill="none" stroke="#63b8ff" d="M149.59,-51.18C122.65,-41.49 86.17,-28.36 62.1,-19.7"/>
<polygon fill="#63b8ff" stroke="#63b8ff" points="148.17,-54.75 158.77,-54.84 150.54,-48.16 148.17,-54.75"/>
</a>
</g>
</g>
<!-- Node4 -->
<g id="Node000004" class="node">
<title>Node4</title>
<g id="a_Node000004"><a xlink:href="class_n_n_f_s_1_1_sigmoid.html" target="_top" xlink:title="Sigmoid activation function.">
<polygon fill="white" stroke="#666666" points="175.62,-19.25 92.12,-19.25 92.12,0 175.62,0 175.62,-19.25"/>
<text text-anchor="middle" x="133.88" y="-5.75" font-family="Helvetica,sans-Serif" font-size="10.00">NNFS::Sigmoid</text>
</a>
</g>
</g>
<!-- Node2&#45;&gt;Node4 -->
<g id="edge3_Node000002_Node000004" class="edge">
<title>Node2&#45;&gt;Node4</title>
<g id="a_edge3_Node000002_Node000004"><a xlink:title=" ">
<path fill="none" stroke="#63b8ff" d="M169.05,-47.35C160.29,-38.2 149.73,-27.18 142.48,-19.61"/>
<polygon fill="#63b8ff" stroke="#63b8ff" points="166.01,-49.28 175.45,-54.08 171.06,-44.44 166.01,-49.28"/>
</a>
</g>
</g>
<!-- Node5 -->
<g id="Node000005" class="node">
<title>Node5</title>
<g id="a_Node000005"><a xlink:href="class_n_n_f_s_1_1_softmax.html" target="_top" xlink:title="Softmax activation function.">
<polygon fill="white" stroke="#666666" points="278,-19.25 193.75,-19.25 193.75,0 278,0 278,-19.25"/>
<text text-anchor="middle" x="235.88" y="-5.75" font-family="Helvetica,sans-Serif" font-size="10.00">NNFS::Softmax</text>
</a>
</g>
</g>
<!-- Node2&#45;&gt;Node5 -->
<g id="edge4_Node000002_Node000005" class="edge">
<title>Node2&#45;&gt;Node5</title>
<g id="a_edge4_Node000002_Node000005"><a xlink:title=" ">
<path fill="none" stroke="#63b8ff" d="M200.7,-47.35C209.46,-38.2 220.02,-27.18 227.27,-19.61"/>
<polygon fill="#63b8ff" stroke="#63b8ff" points="198.69,-44.44 194.3,-54.08 203.74,-49.28 198.69,-44.44"/>
</a>
</g>
</g>
<!-- Node6 -->
<g id="Node000006" class="node">
<title>Node6</title>
<g id="a_Node000006"><a xlink:href="class_n_n_f_s_1_1_tanh.html" target="_top" xlink:title=" ">
<polygon fill="white" stroke="#666666" points="365.88,-19.25 295.88,-19.25 295.88,0 365.88,0 365.88,-19.25"/>
<text text-anchor="middle" x="330.88" y="-5.75" font-family="Helvetica,sans-Serif" font-size="10.00">NNFS::Tanh</text>
</a>
</g>
</g>
<!-- Node2&#45;&gt;Node6 -->
<g id="edge5_Node000002_Node000006" class="edge">
<title>Node2&#45;&gt;Node6</title>
<g id="a_edge5_Node000002_Node000006"><a xlink:title=" ">
<path fill="none" stroke="#63b8ff" d="M219.68,-51.18C246.26,-41.49 282.24,-28.36 305.99,-19.7"/>
<polygon fill="#63b8ff" stroke="#63b8ff" points="218.84,-48.13 210.64,-54.84 221.24,-54.7 218.84,-48.13"/>
</a>
</g>
</g>
</g>
</svg>
