<?xml version="1.0" encoding="UTF-8" standalone="no"?>
<!DOCTYPE svg PUBLIC "-//W3C//DTD SVG 1.1//EN"
 "http://www.w3.org/Graphics/SVG/1.1/DTD/svg11.dtd">
<!-- Generated by graphviz version 8.0.2 (20230410.1723)
 -->
<!-- Title: NNFSCore::Differentiable Pages: 1 -->
<svg width="340pt" height="137pt"
 viewBox="0.00 0.00 340.00 137.00" xmlns="http://www.w3.org/2000/svg" xmlns:xlink="http://www.w3.org/1999/xlink">
<g id="graph0" class="graph" transform="scale(1 1) rotate(0) translate(4 133)">
<title>NNFSCore::Differentiable</title>
<!-- Node1 -->
<g id="node1" class="node">
<title>Node1</title>
<g id="a_node1"><a xlink:title="Abstract base class for functions with gradients.">
<polygon fill="#999999" stroke="#666666" points="224.5,-129 99.5,-129 99.5,-110 224.5,-110 224.5,-129"/>
<text text-anchor="middle" x="162" y="-117" font-family="Helvetica,sans-Serif" font-size="10.00">NNFSCore::Differentiable</text>
</a>
</g>
</g>
<!-- Node2 -->
<g id="node2" class="node">
<title>Node2</title>
<g id="a_node2"><a xlink:href="class_n_n_f_s_core_1_1_activation.html" target="_top" xlink:title="Abstract base class for activation functions.">
<polygon fill="white" stroke="#666666" points="218.5,-74 105.5,-74 105.5,-55 218.5,-55 218.5,-74"/>
<text text-anchor="middle" x="162" y="-62" font-family="Helvetica,sans-Serif" font-size="10.00">NNFSCore::Activation</text>
</a>
</g>
</g>
<!-- Node1&#45;&gt;Node2 -->
<g id="edge1" class="edge">
<title>Node1&#45;&gt;Node2</title>
<path fill="none" stroke="#63b8ff" d="M162,-98.93C162,-90.53 162,-81.13 162,-74.44"/>
<polygon fill="#63b8ff" stroke="#63b8ff" points="158.5,-98.75 162,-108.75 165.5,-98.75 158.5,-98.75"/>
</g>
<!-- Node3 -->
<g id="node3" class="node">
<title>Node3</title>
<g id="a_node3"><a xlink:href="class_n_n_f_s_core_1_1_linear.html" target="_top" xlink:title="Linear activation function.">
<polygon fill="white" stroke="#666666" points="96,-19 0,-19 0,0 96,0 96,-19"/>
<text text-anchor="middle" x="48" y="-7" font-family="Helvetica,sans-Serif" font-size="10.00">NNFSCore::Linear</text>
</a>
</g>
</g>
<!-- Node2&#45;&gt;Node3 -->
<g id="edge2" class="edge">
<title>Node2&#45;&gt;Node3</title>
<path fill="none" stroke="#63b8ff" d="M132.81,-49.93C112.14,-40.32 85,-27.7 67.05,-19.36"/>
<polygon fill="#63b8ff" stroke="#63b8ff" points="131.12,-53.47 141.66,-54.51 134.07,-47.12 131.12,-53.47"/>
</g>
<!-- Node4 -->
<g id="node4" class="node">
<title>Node4</title>
<g id="a_node4"><a xlink:href="class_n_n_f_s_core_1_1_re_l_u.html" target="_top" xlink:title="Rectified Linear&#45;Unit activation function.">
<polygon fill="white" stroke="#666666" points="209.5,-19 114.5,-19 114.5,0 209.5,0 209.5,-19"/>
<text text-anchor="middle" x="162" y="-7" font-family="Helvetica,sans-Serif" font-size="10.00">NNFSCore::ReLU</text>
</a>
</g>
</g>
<!-- Node2&#45;&gt;Node4 -->
<g id="edge3" class="edge">
<title>Node2&#45;&gt;Node4</title>
<path fill="none" stroke="#63b8ff" d="M162,-43.93C162,-35.53 162,-26.13 162,-19.44"/>
<polygon fill="#63b8ff" stroke="#63b8ff" points="158.5,-43.75 162,-53.75 165.5,-43.75 158.5,-43.75"/>
</g>
<!-- Node5 -->
<g id="node5" class="node">
<title>Node5</title>
<g id="a_node5"><a xlink:href="class_n_n_f_s_core_1_1_sigmoid.html" target="_top" xlink:title="Sigmoid activation function.">
<polygon fill="white" stroke="#666666" points="332,-19 228,-19 228,0 332,0 332,-19"/>
<text text-anchor="middle" x="280" y="-7" font-family="Helvetica,sans-Serif" font-size="10.00">NNFSCore::Sigmoid</text>
</a>
</g>
</g>
<!-- Node2&#45;&gt;Node5 -->
<g id="edge4" class="edge">
<title>Node2&#45;&gt;Node5</title>
<path fill="none" stroke="#63b8ff" d="M191.92,-50.06C213.35,-40.43 241.62,-27.74 260.28,-19.36"/>
<polygon fill="#63b8ff" stroke="#63b8ff" points="190.71,-47.22 183.02,-54.51 193.57,-53.6 190.71,-47.22"/>
</g>
</g>
</svg>
