<?xml version="1.0" encoding="UTF-8" standalone="no"?>
<!DOCTYPE svg PUBLIC "-//W3C//DTD SVG 1.1//EN"
 "http://www.w3.org/Graphics/SVG/1.1/DTD/svg11.dtd">
<!-- Generated by graphviz version 8.0.5 (20230430.1635)
 -->
<!-- Title: NNFSCore::Optimizer Pages: 1 -->
<svg width="460pt" height="83pt"
 viewBox="0.00 0.00 460.00 82.50" xmlns="http://www.w3.org/2000/svg" xmlns:xlink="http://www.w3.org/1999/xlink">
<g id="graph0" class="graph" transform="scale(1 1) rotate(0) translate(4 78.5)">
<title>NNFSCore::Optimizer</title>
<!-- Node1 -->
<g id="node1" class="node">
<title>Node1</title>
<g id="a_node1"><a xlink:title=" ">
<polygon fill="#999999" stroke="#666666" points="284.12,-74.5 174.38,-74.5 174.38,-55.25 284.12,-55.25 284.12,-74.5"/>
<text text-anchor="middle" x="229.25" y="-61" font-family="Helvetica,sans-Serif" font-size="10.00">NNFSCore::Optimizer</text>
</a>
</g>
</g>
<!-- Node2 -->
<g id="node2" class="node">
<title>Node2</title>
<g id="a_node2"><a xlink:href="class_n_n_f_s_core_1_1_adagrad.html" target="_top" xlink:title=" ">
<polygon fill="white" stroke="#666666" points="104.5,-19.25 0,-19.25 0,0 104.5,0 104.5,-19.25"/>
<text text-anchor="middle" x="52.25" y="-5.75" font-family="Helvetica,sans-Serif" font-size="10.00">NNFSCore::Adagrad</text>
</a>
</g>
</g>
<!-- Node1&#45;&gt;Node2 -->
<g id="edge1" class="edge">
<title>Node1&#45;&gt;Node2</title>
<path fill="none" stroke="#63b8ff" d="M188.76,-51.69C156.38,-41.95 111.72,-28.52 82.42,-19.7"/>
<polygon fill="#63b8ff" stroke="#63b8ff" points="187.64,-55.31 198.22,-54.84 189.66,-48.61 187.64,-55.31"/>
</g>
<!-- Node3 -->
<g id="node3" class="node">
<title>Node3</title>
<g id="a_node3"><a xlink:href="class_n_n_f_s_core_1_1_adam.html" target="_top" xlink:title=" ">
<polygon fill="white" stroke="#666666" points="216.25,-19.25 122.25,-19.25 122.25,0 216.25,0 216.25,-19.25"/>
<text text-anchor="middle" x="169.25" y="-5.75" font-family="Helvetica,sans-Serif" font-size="10.00">NNFSCore::Adam</text>
</a>
</g>
</g>
<!-- Node1&#45;&gt;Node3 -->
<g id="edge2" class="edge">
<title>Node1&#45;&gt;Node3</title>
<path fill="none" stroke="#63b8ff" d="M210.98,-47.66C200.56,-38.42 187.9,-27.18 179.28,-19.52"/>
<polygon fill="#63b8ff" stroke="#63b8ff" points="208.27,-49.82 218.07,-53.84 212.92,-44.59 208.27,-49.82"/>
</g>
<!-- Node4 -->
<g id="node4" class="node">
<title>Node4</title>
<g id="a_node4"><a xlink:href="class_n_n_f_s_core_1_1_r_m_s_prop.html" target="_top" xlink:title=" ">
<polygon fill="white" stroke="#666666" points="344.5,-19.25 234,-19.25 234,0 344.5,0 344.5,-19.25"/>
<text text-anchor="middle" x="289.25" y="-5.75" font-family="Helvetica,sans-Serif" font-size="10.00">NNFSCore::RMSProp</text>
</a>
</g>
</g>
<!-- Node1&#45;&gt;Node4 -->
<g id="edge3" class="edge">
<title>Node1&#45;&gt;Node4</title>
<path fill="none" stroke="#63b8ff" d="M247.52,-47.66C257.94,-38.42 270.6,-27.18 279.22,-19.52"/>
<polygon fill="#63b8ff" stroke="#63b8ff" points="245.58,-44.59 240.43,-53.84 250.23,-49.82 245.58,-44.59"/>
</g>
<!-- Node5 -->
<g id="node5" class="node">
<title>Node5</title>
<g id="a_node5"><a xlink:href="class_n_n_f_s_core_1_1_s_g_d.html" target="_top" xlink:title=" ">
<polygon fill="white" stroke="#666666" points="452,-19.25 362.5,-19.25 362.5,0 452,0 452,-19.25"/>
<text text-anchor="middle" x="407.25" y="-5.75" font-family="Helvetica,sans-Serif" font-size="10.00">NNFSCore::SGD</text>
</a>
</g>
</g>
<!-- Node1&#45;&gt;Node5 -->
<g id="edge4" class="edge">
<title>Node1&#45;&gt;Node5</title>
<path fill="none" stroke="#63b8ff" d="M269.97,-51.69C302.53,-41.95 347.45,-28.52 376.91,-19.7"/>
<polygon fill="#63b8ff" stroke="#63b8ff" points="269.02,-48.62 260.45,-54.84 271.03,-55.33 269.02,-48.62"/>
</g>
</g>
</svg>
