<?xml version="1.0" encoding="UTF-8" standalone="no"?>
<!DOCTYPE svg PUBLIC "-//W3C//DTD SVG 1.1//EN"
 "http://www.w3.org/Graphics/SVG/1.1/DTD/svg11.dtd">
<!-- Generated by graphviz version 8.0.5 (20230430.1635)
 -->
<!-- Title: NNFS::Optimizer Pages: 1 -->
<svg width="380pt" height="83pt"
 viewBox="0.00 0.00 379.75 82.50" xmlns="http://www.w3.org/2000/svg" xmlns:xlink="http://www.w3.org/1999/xlink">
<g id="graph0" class="graph" transform="scale(1 1) rotate(0) translate(4 78.5)">
<title>NNFS::Optimizer</title>
<!-- Node1 -->
<g id="node1" class="node">
<title>Node1</title>
<g id="a_node1"><a xlink:title="Base class for all optimizers.">
<polygon fill="#999999" stroke="#666666" points="233.88,-74.5 144.38,-74.5 144.38,-55.25 233.88,-55.25 233.88,-74.5"/>
<text text-anchor="middle" x="189.12" y="-61" font-family="Helvetica,sans-Serif" font-size="10.00">NNFS::Optimizer</text>
</a>
</g>
</g>
<!-- Node2 -->
<g id="node2" class="node">
<title>Node2</title>
<g id="a_node2"><a xlink:href="class_n_n_f_s_1_1_adagrad.html" target="_top" xlink:title="Adagrad optimizer (Adaptive Gradient)">
<polygon fill="white" stroke="#666666" points="84.25,-19.25 0,-19.25 0,0 84.25,0 84.25,-19.25"/>
<text text-anchor="middle" x="42.12" y="-5.75" font-family="Helvetica,sans-Serif" font-size="10.00">NNFS::Adagrad</text>
</a>
</g>
</g>
<!-- Node1&#45;&gt;Node2 -->
<g id="edge1" class="edge">
<title>Node1&#45;&gt;Node2</title>
<path fill="none" stroke="#8b1a1a" d="M154.08,-51.18C127.32,-41.49 91.09,-28.36 67.18,-19.7"/>
<polygon fill="#8b1a1a" stroke="#8b1a1a" points="152.59,-54.73 163.19,-54.84 154.98,-48.15 152.59,-54.73"/>
</g>
<!-- Node3 -->
<g id="node3" class="node">
<title>Node3</title>
<g id="a_node3"><a xlink:href="class_n_n_f_s_1_1_adam.html" target="_top" xlink:title="Adam optimizer &#45; Adaptive Moment Estimation, one of the most popular and efficient gradient&#45;based opt...">
<polygon fill="white" stroke="#666666" points="176,-19.25 102.25,-19.25 102.25,0 176,0 176,-19.25"/>
<text text-anchor="middle" x="139.12" y="-5.75" font-family="Helvetica,sans-Serif" font-size="10.00">NNFS::Adam</text>
</a>
</g>
</g>
<!-- Node1&#45;&gt;Node3 -->
<g id="edge2" class="edge">
<title>Node1&#45;&gt;Node3</title>
<path fill="none" stroke="#8b1a1a" d="M173.35,-47.07C164.81,-37.98 154.59,-27.1 147.56,-19.61"/>
<polygon fill="#8b1a1a" stroke="#8b1a1a" points="170.47,-49.19 179.87,-54.08 175.57,-44.4 170.47,-49.19"/>
</g>
<!-- Node4 -->
<g id="node4" class="node">
<title>Node4</title>
<g id="a_node4"><a xlink:href="class_n_n_f_s_1_1_r_m_s_prop.html" target="_top" xlink:title="Root Mean Square Propagation optimizer.">
<polygon fill="white" stroke="#666666" points="284.25,-19.25 194,-19.25 194,0 284.25,0 284.25,-19.25"/>
<text text-anchor="middle" x="239.12" y="-5.75" font-family="Helvetica,sans-Serif" font-size="10.00">NNFS::RMSProp</text>
</a>
</g>
</g>
<!-- Node1&#45;&gt;Node4 -->
<g id="edge3" class="edge">
<title>Node1&#45;&gt;Node4</title>
<path fill="none" stroke="#8b1a1a" d="M204.9,-47.07C213.44,-37.98 223.66,-27.1 230.69,-19.61"/>
<polygon fill="#8b1a1a" stroke="#8b1a1a" points="202.68,-44.4 198.38,-54.08 207.78,-49.19 202.68,-44.4"/>
</g>
<!-- Node5 -->
<g id="node5" class="node">
<title>Node5</title>
<g id="a_node5"><a xlink:href="class_n_n_f_s_1_1_s_g_d.html" target="_top" xlink:title="Stochastic Gradient Descent optimizer.">
<polygon fill="white" stroke="#666666" points="371.75,-19.25 302.5,-19.25 302.5,0 371.75,0 371.75,-19.25"/>
<text text-anchor="middle" x="337.12" y="-5.75" font-family="Helvetica,sans-Serif" font-size="10.00">NNFS::SGD</text>
</a>
</g>
</g>
<!-- Node1&#45;&gt;Node5 -->
<g id="edge4" class="edge">
<title>Node1&#45;&gt;Node5</title>
<path fill="none" stroke="#63b8ff" d="M224.41,-51.18C251.35,-41.49 287.83,-28.36 311.9,-19.7"/>
<polygon fill="#63b8ff" stroke="#63b8ff" points="223.46,-48.16 215.23,-54.84 225.83,-54.75 223.46,-48.16"/>
</g>
</g>
</svg>
