<?xml version="1.0" encoding="UTF-8" standalone="no"?>
<!DOCTYPE svg PUBLIC "-//W3C//DTD SVG 1.1//EN"
 "http://www.w3.org/Graphics/SVG/1.1/DTD/svg11.dtd">
<!-- Generated by graphviz version 8.0.5 (20230430.1635)
 -->
<!-- Title: NNFSCore::Layer Pages: 1 -->
<svg width="454pt" height="138pt"
 viewBox="0.00 0.00 454.12 137.75" xmlns="http://www.w3.org/2000/svg" xmlns:xlink="http://www.w3.org/1999/xlink">
<g id="graph0" class="graph" transform="scale(1 1) rotate(0) translate(4 133.75)">
<title>NNFSCore::Layer</title>
<!-- Node1 -->
<g id="node1" class="node">
<title>Node1</title>
<g id="a_node1"><a xlink:title="Base class for all layers.">
<polygon fill="#999999" stroke="#666666" points="332.25,-129.75 239.75,-129.75 239.75,-110.5 332.25,-110.5 332.25,-129.75"/>
<text text-anchor="middle" x="286" y="-116.25" font-family="Helvetica,sans-Serif" font-size="10.00">NNFSCore::Layer</text>
</a>
</g>
</g>
<!-- Node2 -->
<g id="node2" class="node">
<title>Node2</title>
<g id="a_node2"><a xlink:href="class_n_n_f_s_core_1_1_activation.html" target="_top" xlink:title="Base class for all activation functions.">
<polygon fill="white" stroke="#666666" points="281,-74.5 169,-74.5 169,-55.25 281,-55.25 281,-74.5"/>
<text text-anchor="middle" x="225" y="-61" font-family="Helvetica,sans-Serif" font-size="10.00">NNFSCore::Activation</text>
</a>
</g>
</g>
<!-- Node1&#45;&gt;Node2 -->
<g id="edge1" class="edge">
<title>Node1&#45;&gt;Node2</title>
<path fill="none" stroke="#63b8ff" d="M267.43,-102.91C256.84,-93.67 243.96,-82.43 235.19,-74.77"/>
<polygon fill="#63b8ff" stroke="#63b8ff" points="264.82,-106.15 274.65,-110.09 269.42,-100.88 264.82,-106.15"/>
</g>
<!-- Node7 -->
<g id="node7" class="node">
<title>Node7</title>
<g id="a_node7"><a xlink:href="class_n_n_f_s_core_1_1_dense.html" target="_top" xlink:title="Dense layer.">
<polygon fill="white" stroke="#666666" points="395.12,-74.5 298.88,-74.5 298.88,-55.25 395.12,-55.25 395.12,-74.5"/>
<text text-anchor="middle" x="347" y="-61" font-family="Helvetica,sans-Serif" font-size="10.00">NNFSCore::Dense</text>
</a>
</g>
</g>
<!-- Node1&#45;&gt;Node7 -->
<g id="edge6" class="edge">
<title>Node1&#45;&gt;Node7</title>
<path fill="none" stroke="#63b8ff" d="M304.57,-102.91C315.16,-93.67 328.04,-82.43 336.81,-74.77"/>
<polygon fill="#63b8ff" stroke="#63b8ff" points="302.58,-100.88 297.35,-110.09 307.18,-106.15 302.58,-100.88"/>
</g>
<!-- Node3 -->
<g id="node3" class="node">
<title>Node3</title>
<g id="a_node3"><a xlink:href="class_n_n_f_s_core_1_1_re_l_u.html" target="_top" xlink:title="ReLU activation function.">
<polygon fill="white" stroke="#666666" points="94,-19.25 0,-19.25 0,0 94,0 94,-19.25"/>
<text text-anchor="middle" x="47" y="-5.75" font-family="Helvetica,sans-Serif" font-size="10.00">NNFSCore::ReLU</text>
</a>
</g>
</g>
<!-- Node2&#45;&gt;Node3 -->
<g id="edge2" class="edge">
<title>Node2&#45;&gt;Node3</title>
<path fill="none" stroke="#63b8ff" d="M184.28,-51.69C151.72,-41.95 106.8,-28.52 77.34,-19.7"/>
<polygon fill="#63b8ff" stroke="#63b8ff" points="183.22,-55.33 193.8,-54.84 185.23,-48.62 183.22,-55.33"/>
</g>
<!-- Node4 -->
<g id="node4" class="node">
<title>Node4</title>
<g id="a_node4"><a xlink:href="class_n_n_f_s_core_1_1_sigmoid.html" target="_top" xlink:title="Sigmoid activation function.">
<polygon fill="white" stroke="#666666" points="215.88,-19.25 112.12,-19.25 112.12,0 215.88,0 215.88,-19.25"/>
<text text-anchor="middle" x="164" y="-5.75" font-family="Helvetica,sans-Serif" font-size="10.00">NNFSCore::Sigmoid</text>
</a>
</g>
</g>
<!-- Node2&#45;&gt;Node4 -->
<g id="edge3" class="edge">
<title>Node2&#45;&gt;Node4</title>
<path fill="none" stroke="#63b8ff" d="M206.43,-47.66C195.84,-38.42 182.96,-27.18 174.19,-19.52"/>
<polygon fill="#63b8ff" stroke="#63b8ff" points="203.82,-50.9 213.65,-54.84 208.42,-45.63 203.82,-50.9"/>
</g>
<!-- Node5 -->
<g id="node5" class="node">
<title>Node5</title>
<g id="a_node5"><a xlink:href="class_n_n_f_s_core_1_1_softmax.html" target="_top" xlink:title="Softmax activation function.">
<polygon fill="white" stroke="#666666" points="338.25,-19.25 233.75,-19.25 233.75,0 338.25,0 338.25,-19.25"/>
<text text-anchor="middle" x="286" y="-5.75" font-family="Helvetica,sans-Serif" font-size="10.00">NNFSCore::Softmax</text>
</a>
</g>
</g>
<!-- Node2&#45;&gt;Node5 -->
<g id="edge4" class="edge">
<title>Node2&#45;&gt;Node5</title>
<path fill="none" stroke="#63b8ff" d="M243.57,-47.66C254.16,-38.42 267.04,-27.18 275.81,-19.52"/>
<polygon fill="#63b8ff" stroke="#63b8ff" points="241.58,-45.63 236.35,-54.84 246.18,-50.9 241.58,-45.63"/>
</g>
<!-- Node6 -->
<g id="node6" class="node">
<title>Node6</title>
<g id="a_node6"><a xlink:href="class_n_n_f_s_core_1_1_tanh.html" target="_top" xlink:title=" ">
<polygon fill="white" stroke="#666666" points="446.12,-19.25 355.88,-19.25 355.88,0 446.12,0 446.12,-19.25"/>
<text text-anchor="middle" x="401" y="-5.75" font-family="Helvetica,sans-Serif" font-size="10.00">NNFSCore::Tanh</text>
</a>
</g>
</g>
<!-- Node2&#45;&gt;Node6 -->
<g id="edge5" class="edge">
<title>Node2&#45;&gt;Node6</title>
<path fill="none" stroke="#63b8ff" d="M265.26,-51.69C297.46,-41.95 341.87,-28.52 371,-19.7"/>
<polygon fill="#63b8ff" stroke="#63b8ff" points="264.41,-48.6 255.86,-54.84 266.44,-55.3 264.41,-48.6"/>
</g>
</g>
</svg>
