<?xml version="1.0" encoding="UTF-8" standalone="no"?>
<!DOCTYPE svg PUBLIC "-//W3C//DTD SVG 1.1//EN"
 "http://www.w3.org/Graphics/SVG/1.1/DTD/svg11.dtd">
<!-- Generated by graphviz version 8.0.5 (20230430.1635)
 -->
<!-- Title: NNFSCore::Loss Pages: 1 -->
<svg width="238pt" height="83pt"
 viewBox="0.00 0.00 238.00 82.50" xmlns="http://www.w3.org/2000/svg" xmlns:xlink="http://www.w3.org/1999/xlink">
<g id="graph0" class="graph" transform="scale(1 1) rotate(0) translate(4 78.5)">
<title>NNFSCore::Loss</title>
<!-- Node1 -->
<g id="node1" class="node">
<title>Node1</title>
<g id="a_node1"><a xlink:title="Base class for all loss functions.">
<polygon fill="#999999" stroke="#666666" points="151.12,-74.5 60.88,-74.5 60.88,-55.25 151.12,-55.25 151.12,-74.5"/>
<text text-anchor="middle" x="106" y="-61" font-family="Helvetica,sans-Serif" font-size="10.00">NNFSCore::Loss</text>
</a>
</g>
</g>
<!-- Node2 -->
<g id="node2" class="node">
<title>Node2</title>
<g id="a_node2"><a xlink:href="class_n_n_f_s_core_1_1_c_c_e.html" target="_top" xlink:title="Cross&#45;entropy loss function.">
<polygon fill="white" stroke="#666666" points="88,-19.25 0,-19.25 0,0 88,0 88,-19.25"/>
<text text-anchor="middle" x="44" y="-5.75" font-family="Helvetica,sans-Serif" font-size="10.00">NNFSCore::CCE</text>
</a>
</g>
</g>
<!-- Node1&#45;&gt;Node2 -->
<g id="edge1" class="edge">
<title>Node1&#45;&gt;Node2</title>
<path fill="none" stroke="#63b8ff" d="M87.45,-47.94C76.62,-38.64 63.36,-27.26 54.36,-19.52"/>
<polygon fill="#63b8ff" stroke="#63b8ff" points="84.62,-50.98 94.48,-54.84 89.18,-45.67 84.62,-50.98"/>
</g>
<!-- Node3 -->
<g id="node3" class="node">
<title>Node3</title>
<g id="a_node3"><a xlink:href="class_n_n_f_s_core_1_1_c_c_e_softmax.html" target="_top" xlink:title="Cross&#45;entropy loss function with softmax activation.">
<polygon fill="white" stroke="#666666" points="230,-19.25 106,-19.25 106,0 230,0 230,-19.25"/>
<text text-anchor="middle" x="168" y="-5.75" font-family="Helvetica,sans-Serif" font-size="10.00">NNFSCore::CCESoftmax</text>
</a>
</g>
</g>
<!-- Node1&#45;&gt;Node3 -->
<g id="edge2" class="edge">
<title>Node1&#45;&gt;Node3</title>
<path fill="none" stroke="#63b8ff" d="M124.55,-47.94C135.38,-38.64 148.64,-27.26 157.64,-19.52"/>
<polygon fill="#63b8ff" stroke="#63b8ff" points="122.82,-45.67 117.52,-54.84 127.38,-50.98 122.82,-45.67"/>
</g>
</g>
</svg>
