<?xml version="1.0" encoding="UTF-8" standalone="no"?>
<!DOCTYPE svg PUBLIC "-//W3C//DTD SVG 1.1//EN"
 "http://www.w3.org/Graphics/SVG/1.1/DTD/svg11.dtd">
<!-- Generated by graphviz version 8.0.1 (20230327.1645)
 -->
<!-- Title: NNFSCore::Activation Pages: 1 -->
<svg width="464pt" height="137pt"
 viewBox="0.00 0.00 463.50 137.00" xmlns="http://www.w3.org/2000/svg" xmlns:xlink="http://www.w3.org/1999/xlink">
<g id="graph0" class="graph" transform="scale(1 1) rotate(0) translate(4 133)">
<title>NNFSCore::Activation</title>
<!-- Node1 -->
<g id="node1" class="node">
<title>Node1</title>
<g id="a_node1"><a xlink:title="Abstract base class for activation functions.">
<polygon fill="#999999" stroke="#666666" points="277.5,-74 164.5,-74 164.5,-55 277.5,-55 277.5,-74"/>
<text text-anchor="middle" x="221" y="-62" font-family="Helvetica,sans-Serif" font-size="10.00">NNFSCore::Activation</text>
</a>
</g>
</g>
<!-- Node3 -->
<g id="node3" class="node">
<title>Node3</title>
<g id="a_node3"><a xlink:href="class_n_n_f_s_core_1_1_linear.html" target="_top" xlink:title="Linear activation function.">
<polygon fill="white" stroke="#666666" points="96,-19 0,-19 0,0 96,0 96,-19"/>
<text text-anchor="middle" x="48" y="-7" font-family="Helvetica,sans-Serif" font-size="10.00">NNFSCore::Linear</text>
</a>
</g>
</g>
<!-- Node1&#45;&gt;Node3 -->
<g id="edge2" class="edge">
<title>Node1&#45;&gt;Node3</title>
<path fill="none" stroke="#63b8ff" d="M181.39,-51.36C149.64,-41.64 105.82,-28.21 77.2,-19.45"/>
<polygon fill="#63b8ff" stroke="#63b8ff" points="180.07,-54.93 190.65,-54.51 182.12,-48.23 180.07,-54.93"/>
</g>
<!-- Node4 -->
<g id="node4" class="node">
<title>Node4</title>
<g id="a_node4"><a xlink:href="class_n_n_f_s_core_1_1_re_l_u.html" target="_top" xlink:title="Rectified Linear Unit (ReLU) activation function.">
<polygon fill="white" stroke="#666666" points="209.5,-19 114.5,-19 114.5,0 209.5,0 209.5,-19"/>
<text text-anchor="middle" x="162" y="-7" font-family="Helvetica,sans-Serif" font-size="10.00">NNFSCore::ReLU</text>
</a>
</g>
</g>
<!-- Node1&#45;&gt;Node4 -->
<g id="edge3" class="edge">
<title>Node1&#45;&gt;Node4</title>
<path fill="none" stroke="#63b8ff" d="M203.04,-47.37C192.79,-38.16 180.34,-26.98 171.86,-19.36"/>
<polygon fill="#63b8ff" stroke="#63b8ff" points="200.21,-49.43 209.99,-53.51 204.89,-44.22 200.21,-49.43"/>
</g>
<!-- Node5 -->
<g id="node5" class="node">
<title>Node5</title>
<g id="a_node5"><a xlink:href="class_n_n_f_s_core_1_1_sigmoid.html" target="_top" xlink:title="Sigmoid activation function.">
<polygon fill="white" stroke="#666666" points="332,-19 228,-19 228,0 332,0 332,-19"/>
<text text-anchor="middle" x="280" y="-7" font-family="Helvetica,sans-Serif" font-size="10.00">NNFSCore::Sigmoid</text>
</a>
</g>
</g>
<!-- Node1&#45;&gt;Node5 -->
<g id="edge4" class="edge">
<title>Node1&#45;&gt;Node5</title>
<path fill="none" stroke="#63b8ff" d="M238.96,-47.37C249.21,-38.16 261.66,-26.98 270.14,-19.36"/>
<polygon fill="#63b8ff" stroke="#63b8ff" points="237.11,-44.22 232.01,-53.51 241.79,-49.43 237.11,-44.22"/>
</g>
<!-- Node6 -->
<g id="node6" class="node">
<title>Node6</title>
<g id="a_node6"><a xlink:href="class_n_n_f_s_core_1_1_softmax.html" target="_top" xlink:title="Softmax activation function.">
<polygon fill="white" stroke="#666666" points="455.5,-19 350.5,-19 350.5,0 455.5,0 455.5,-19"/>
<text text-anchor="middle" x="403" y="-7" font-family="Helvetica,sans-Serif" font-size="10.00">NNFSCore::Softmax</text>
</a>
</g>
</g>
<!-- Node1&#45;&gt;Node6 -->
<g id="edge5" class="edge">
<title>Node1&#45;&gt;Node6</title>
<path fill="none" stroke="#63b8ff" d="M262.24,-51.49C295.67,-41.76 342.04,-28.25 372.28,-19.45"/>
<polygon fill="#63b8ff" stroke="#63b8ff" points="261.5,-48.35 252.87,-54.51 263.45,-55.07 261.5,-48.35"/>
</g>
<!-- Node2 -->
<g id="node2" class="node">
<title>Node2</title>
<g id="a_node2"><a xlink:href="class_n_n_f_s_core_1_1_differentiable.html" target="_top" xlink:title="Abstract base class for functions with gradients.">
<polygon fill="white" stroke="#666666" points="283.5,-129 158.5,-129 158.5,-110 283.5,-110 283.5,-129"/>
<text text-anchor="middle" x="221" y="-117" font-family="Helvetica,sans-Serif" font-size="10.00">NNFSCore::Differentiable</text>
</a>
</g>
</g>
<!-- Node2&#45;&gt;Node1 -->
<g id="edge1" class="edge">
<title>Node2&#45;&gt;Node1</title>
<path fill="none" stroke="#63b8ff" d="M221,-98.93C221,-90.53 221,-81.13 221,-74.44"/>
<polygon fill="#63b8ff" stroke="#63b8ff" points="217.5,-98.75 221,-108.75 224.5,-98.75 217.5,-98.75"/>
</g>
</g>
</svg>
