<?xml version="1.0" encoding="UTF-8" standalone="no"?>
<!DOCTYPE svg PUBLIC "-//W3C//DTD SVG 1.1//EN"
 "http://www.w3.org/Graphics/SVG/1.1/DTD/svg11.dtd">
<!-- Generated by graphviz version 8.0.5 (20230430.1635)
 -->
<!-- Title: NNFS::Activation Pages: 1 -->
<svg width="374pt" height="138pt"
 viewBox="0.00 0.00 373.88 137.75" xmlns="http://www.w3.org/2000/svg" xmlns:xlink="http://www.w3.org/1999/xlink">
<g id="graph0" class="graph" transform="scale(1 1) rotate(0) translate(4 133.75)">
<title>NNFS::Activation</title>
<!-- Node1 -->
<g id="node1" class="node">
<title>Node1</title>
<g id="a_node1"><a xlink:title="Base class for all activation functions.">
<polygon fill="#999999" stroke="#666666" points="230.75,-74.5 139,-74.5 139,-55.25 230.75,-55.25 230.75,-74.5"/>
<text text-anchor="middle" x="184.88" y="-61" font-family="Helvetica,sans-Serif" font-size="10.00">NNFS::Activation</text>
</a>
</g>
</g>
<!-- Node3 -->
<g id="node3" class="node">
<title>Node3</title>
<g id="a_node3"><a xlink:href="class_n_n_f_s_1_1_re_l_u.html" target="_top" xlink:title="ReLU activation function.">
<polygon fill="white" stroke="#666666" points="73.75,-19.25 0,-19.25 0,0 73.75,0 73.75,-19.25"/>
<text text-anchor="middle" x="36.88" y="-5.75" font-family="Helvetica,sans-Serif" font-size="10.00">NNFS::ReLU</text>
</a>
</g>
</g>
<!-- Node1&#45;&gt;Node3 -->
<g id="edge2" class="edge">
<title>Node1&#45;&gt;Node3</title>
<path fill="none" stroke="#63b8ff" d="M149.59,-51.18C122.65,-41.49 86.17,-28.36 62.1,-19.7"/>
<polygon fill="#63b8ff" stroke="#63b8ff" points="148.17,-54.75 158.77,-54.84 150.54,-48.16 148.17,-54.75"/>
</g>
<!-- Node4 -->
<g id="node4" class="node">
<title>Node4</title>
<g id="a_node4"><a xlink:href="class_n_n_f_s_1_1_sigmoid.html" target="_top" xlink:title="Sigmoid activation function.">
<polygon fill="white" stroke="#666666" points="175.62,-19.25 92.12,-19.25 92.12,0 175.62,0 175.62,-19.25"/>
<text text-anchor="middle" x="133.88" y="-5.75" font-family="Helvetica,sans-Serif" font-size="10.00">NNFS::Sigmoid</text>
</a>
</g>
</g>
<!-- Node1&#45;&gt;Node4 -->
<g id="edge3" class="edge">
<title>Node1&#45;&gt;Node4</title>
<path fill="none" stroke="#63b8ff" d="M169.05,-47.35C160.29,-38.2 149.73,-27.18 142.48,-19.61"/>
<polygon fill="#63b8ff" stroke="#63b8ff" points="166.01,-49.28 175.45,-54.08 171.06,-44.44 166.01,-49.28"/>
</g>
<!-- Node5 -->
<g id="node5" class="node">
<title>Node5</title>
<g id="a_node5"><a xlink:href="class_n_n_f_s_1_1_softmax.html" target="_top" xlink:title="Softmax activation function.">
<polygon fill="white" stroke="#666666" points="278,-19.25 193.75,-19.25 193.75,0 278,0 278,-19.25"/>
<text text-anchor="middle" x="235.88" y="-5.75" font-family="Helvetica,sans-Serif" font-size="10.00">NNFS::Softmax</text>
</a>
</g>
</g>
<!-- Node1&#45;&gt;Node5 -->
<g id="edge4" class="edge">
<title>Node1&#45;&gt;Node5</title>
<path fill="none" stroke="#63b8ff" d="M200.7,-47.35C209.46,-38.2 220.02,-27.18 227.27,-19.61"/>
<polygon fill="#63b8ff" stroke="#63b8ff" points="198.69,-44.44 194.3,-54.08 203.74,-49.28 198.69,-44.44"/>
</g>
<!-- Node6 -->
<g id="node6" class="node">
<title>Node6</title>
<g id="a_node6"><a xlink:href="class_n_n_f_s_1_1_tanh.html" target="_top" xlink:title=" ">
<polygon fill="white" stroke="#666666" points="365.88,-19.25 295.88,-19.25 295.88,0 365.88,0 365.88,-19.25"/>
<text text-anchor="middle" x="330.88" y="-5.75" font-family="Helvetica,sans-Serif" font-size="10.00">NNFS::Tanh</text>
</a>
</g>
</g>
<!-- Node1&#45;&gt;Node6 -->
<g id="edge5" class="edge">
<title>Node1&#45;&gt;Node6</title>
<path fill="none" stroke="#63b8ff" d="M219.68,-51.18C246.26,-41.49 282.24,-28.36 305.99,-19.7"/>
<polygon fill="#63b8ff" stroke="#63b8ff" points="218.84,-48.13 210.64,-54.84 221.24,-54.7 218.84,-48.13"/>
</g>
<!-- Node2 -->
<g id="node2" class="node">
<title>Node2</title>
<g id="a_node2"><a xlink:href="class_n_n_f_s_1_1_layer.html" target="_top" xlink:title="Base class for all layers.">
<polygon fill="white" stroke="#666666" points="221,-129.75 148.75,-129.75 148.75,-110.5 221,-110.5 221,-129.75"/>
<text text-anchor="middle" x="184.88" y="-116.25" font-family="Helvetica,sans-Serif" font-size="10.00">NNFS::Layer</text>
</a>
</g>
</g>
<!-- Node2&#45;&gt;Node1 -->
<g id="edge1" class="edge">
<title>Node2&#45;&gt;Node1</title>
<path fill="none" stroke="#63b8ff" d="M184.88,-99.46C184.88,-91.02 184.88,-81.58 184.88,-74.86"/>
<polygon fill="#63b8ff" stroke="#63b8ff" points="181.38,-99.33 184.88,-109.33 188.38,-99.33 181.38,-99.33"/>
</g>
</g>
</svg>
