<?xml version="1.0" encoding="UTF-8" standalone="no"?>
<!DOCTYPE svg PUBLIC "-//W3C//DTD SVG 1.1//EN"
 "http://www.w3.org/Graphics/SVG/1.1/DTD/svg11.dtd">
<!-- Generated by graphviz version 8.0.2 (20230410.1723)
 -->
<!-- Title: NNFSCore::ReLU Pages: 1 -->
<svg width="133pt" height="137pt"
 viewBox="0.00 0.00 133.00 137.00" xmlns="http://www.w3.org/2000/svg" xmlns:xlink="http://www.w3.org/1999/xlink">
<g id="graph0" class="graph" transform="scale(1 1) rotate(0) translate(4 133)">
<title>NNFSCore::ReLU</title>
<!-- Node1 -->
<g id="node1" class="node">
<title>Node1</title>
<g id="a_node1"><a xlink:title="Rectified Linear&#45;Unit activation function.">
<polygon fill="#999999" stroke="#666666" points="110,-19 15,-19 15,0 110,0 110,-19"/>
<text text-anchor="middle" x="62.5" y="-7" font-family="Helvetica,sans-Serif" font-size="10.00">NNFSCore::ReLU</text>
</a>
</g>
</g>
<!-- Node2 -->
<g id="node2" class="node">
<title>Node2</title>
<g id="a_node2"><a xlink:href="class_n_n_f_s_core_1_1_activation.html" target="_top" xlink:title="Abstract base class for activation functions.">
<polygon fill="white" stroke="#666666" points="119,-74 6,-74 6,-55 119,-55 119,-74"/>
<text text-anchor="middle" x="62.5" y="-62" font-family="Helvetica,sans-Serif" font-size="10.00">NNFSCore::Activation</text>
</a>
</g>
</g>
<!-- Node2&#45;&gt;Node1 -->
<g id="edge1" class="edge">
<title>Node2&#45;&gt;Node1</title>
<path fill="none" stroke="#63b8ff" d="M62.5,-43.93C62.5,-35.53 62.5,-26.13 62.5,-19.44"/>
<polygon fill="#63b8ff" stroke="#63b8ff" points="59,-43.75 62.5,-53.75 66,-43.75 59,-43.75"/>
</g>
<!-- Node3 -->
<g id="node3" class="node">
<title>Node3</title>
<g id="a_node3"><a xlink:href="class_n_n_f_s_core_1_1_differentiable.html" target="_top" xlink:title="Abstract base class for functions with gradients.">
<polygon fill="white" stroke="#666666" points="125,-129 0,-129 0,-110 125,-110 125,-129"/>
<text text-anchor="middle" x="62.5" y="-117" font-family="Helvetica,sans-Serif" font-size="10.00">NNFSCore::Differentiable</text>
</a>
</g>
</g>
<!-- Node3&#45;&gt;Node2 -->
<g id="edge2" class="edge">
<title>Node3&#45;&gt;Node2</title>
<path fill="none" stroke="#63b8ff" d="M62.5,-98.93C62.5,-90.53 62.5,-81.13 62.5,-74.44"/>
<polygon fill="#63b8ff" stroke="#63b8ff" points="59,-98.75 62.5,-108.75 66,-98.75 59,-98.75"/>
</g>
</g>
</svg>
