<?xml version="1.0" encoding="UTF-8" standalone="no"?>
<!DOCTYPE svg PUBLIC "-//W3C//DTD SVG 1.1//EN"
 "http://www.w3.org/Graphics/SVG/1.1/DTD/svg11.dtd">
<!-- Generated by graphviz version 8.0.5 (20230430.1635)
 -->
<!-- Title: NNFSCore::Tanh Pages: 1 -->
<svg width="120pt" height="138pt"
 viewBox="0.00 0.00 120.00 137.75" xmlns="http://www.w3.org/2000/svg" xmlns:xlink="http://www.w3.org/1999/xlink">
<g id="graph0" class="graph" transform="scale(1 1) rotate(0) translate(4 133.75)">
<title>NNFSCore::Tanh</title>
<!-- Node1 -->
<g id="node1" class="node">
<title>Node1</title>
<g id="a_node1"><a xlink:title=" ">
<polygon fill="#999999" stroke="#666666" points="101.12,-19.25 10.88,-19.25 10.88,0 101.12,0 101.12,-19.25"/>
<text text-anchor="middle" x="56" y="-5.75" font-family="Helvetica,sans-Serif" font-size="10.00">NNFSCore::Tanh</text>
</a>
</g>
</g>
<!-- Node2 -->
<g id="node2" class="node">
<title>Node2</title>
<g id="a_node2"><a xlink:href="class_n_n_f_s_core_1_1_activation.html" target="_top" xlink:title="Base class for all activation functions.">
<polygon fill="white" stroke="#666666" points="112,-74.5 0,-74.5 0,-55.25 112,-55.25 112,-74.5"/>
<text text-anchor="middle" x="56" y="-61" font-family="Helvetica,sans-Serif" font-size="10.00">NNFSCore::Activation</text>
</a>
</g>
</g>
<!-- Node2&#45;&gt;Node1 -->
<g id="edge1" class="edge">
<title>Node2&#45;&gt;Node1</title>
<path fill="none" stroke="#63b8ff" d="M56,-44.21C56,-35.77 56,-26.33 56,-19.61"/>
<polygon fill="#63b8ff" stroke="#63b8ff" points="52.5,-44.08 56,-54.08 59.5,-44.08 52.5,-44.08"/>
</g>
<!-- Node3 -->
<g id="node3" class="node">
<title>Node3</title>
<g id="a_node3"><a xlink:href="class_n_n_f_s_core_1_1_layer.html" target="_top" xlink:title="Base class for all layers.">
<polygon fill="white" stroke="#666666" points="102.25,-129.75 9.75,-129.75 9.75,-110.5 102.25,-110.5 102.25,-129.75"/>
<text text-anchor="middle" x="56" y="-116.25" font-family="Helvetica,sans-Serif" font-size="10.00">NNFSCore::Layer</text>
</a>
</g>
</g>
<!-- Node3&#45;&gt;Node2 -->
<g id="edge2" class="edge">
<title>Node3&#45;&gt;Node2</title>
<path fill="none" stroke="#63b8ff" d="M56,-99.46C56,-91.02 56,-81.58 56,-74.86"/>
<polygon fill="#63b8ff" stroke="#63b8ff" points="52.5,-99.33 56,-109.33 59.5,-99.33 52.5,-99.33"/>
</g>
</g>
</svg>
