<?xml version="1.0" encoding="UTF-8" standalone="no"?>
<!DOCTYPE svg PUBLIC "-//W3C//DTD SVG 1.1//EN"
 "http://www.w3.org/Graphics/SVG/1.1/DTD/svg11.dtd">
<!-- Generated by graphviz version 8.0.5 (20230430.1635)
 -->
<!-- Title: include/NNFS/Utilities/clue.hpp Pages: 1 -->
<svg width="324pt" height="94pt"
 viewBox="0.00 0.00 323.88 93.75" xmlns="http://www.w3.org/2000/svg" xmlns:xlink="http://www.w3.org/1999/xlink">
<g id="graph0" class="graph" transform="scale(1 1) rotate(0) translate(4 89.75)">
<title>include/NNFS/Utilities/clue.hpp</title>
<!-- Node1 -->
<g id="Node000001" class="node">
<title>Node1</title>
<g id="a_Node000001"><a xlink:title=" ">
<polygon fill="#999999" stroke="#666666" points="218.62,-85.75 105.12,-85.75 105.12,-55.25 218.62,-55.25 218.62,-85.75"/>
<text text-anchor="start" x="113.12" y="-72.25" font-family="Helvetica,sans-Serif" font-size="10.00">include/NNFS/Utilities</text>
<text text-anchor="middle" x="161.88" y="-61" font-family="Helvetica,sans-Serif" font-size="10.00">/clue.hpp</text>
</a>
</g>
</g>
<!-- Node2 -->
<g id="Node000002" class="node">
<title>Node2</title>
<g id="a_Node000002"><a xlink:title=" ">
<polygon fill="#e0e0e0" stroke="#999999" points="49.75,-19.25 0,-19.25 0,0 49.75,0 49.75,-19.25"/>
<text text-anchor="middle" x="24.88" y="-5.75" font-family="Helvetica,sans-Serif" font-size="10.00">iomanip</text>
</a>
</g>
</g>
<!-- Node1&#45;&gt;Node2 -->
<g id="edge1_Node000001_Node000002" class="edge">
<title>Node1&#45;&gt;Node2</title>
<g id="a_edge1_Node000001_Node000002"><a xlink:title=" ">
<path fill="none" stroke="#63b8ff" d="M127.66,-54.8C105.59,-45.31 77.13,-33.08 55.75,-23.89"/>
<polygon fill="#63b8ff" stroke="#63b8ff" points="57.45,-20.39 46.89,-19.65 54.69,-26.82 57.45,-20.39"/>
</a>
</g>
</g>
<!-- Node3 -->
<g id="Node000003" class="node">
<title>Node3</title>
<g id="a_Node000003"><a xlink:title=" ">
<polygon fill="#e0e0e0" stroke="#999999" points="119.5,-19.25 68.25,-19.25 68.25,0 119.5,0 119.5,-19.25"/>
<text text-anchor="middle" x="93.88" y="-5.75" font-family="Helvetica,sans-Serif" font-size="10.00">sstream</text>
</a>
</g>
</g>
<!-- Node1&#45;&gt;Node3 -->
<g id="edge2_Node000001_Node000003" class="edge">
<title>Node1&#45;&gt;Node3</title>
<g id="a_edge2_Node000001_Node000003"><a xlink:title=" ">
<path fill="none" stroke="#63b8ff" d="M145.07,-54.95C135.21,-46.41 122.74,-35.62 112.57,-26.81"/>
<polygon fill="#63b8ff" stroke="#63b8ff" points="115.21,-23.6 105.36,-19.7 110.63,-28.89 115.21,-23.6"/>
</a>
</g>
</g>
<!-- Node4 -->
<g id="Node000004" class="node">
<title>Node4</title>
<g id="a_Node000004"><a xlink:title=" ">
<polygon fill="#e0e0e0" stroke="#999999" points="186,-19.25 137.75,-19.25 137.75,0 186,0 186,-19.25"/>
<text text-anchor="middle" x="161.88" y="-5.75" font-family="Helvetica,sans-Serif" font-size="10.00">cassert</text>
</a>
</g>
</g>
<!-- Node1&#45;&gt;Node4 -->
<g id="edge3_Node000001_Node000004" class="edge">
<title>Node1&#45;&gt;Node4</title>
<g id="a_edge3_Node000001_Node000004"><a xlink:title=" ">
<path fill="none" stroke="#63b8ff" d="M161.88,-54.95C161.88,-47.62 161.88,-38.62 161.88,-30.66"/>
<polygon fill="#63b8ff" stroke="#63b8ff" points="165.38,-30.7 161.88,-20.7 158.38,-30.7 165.38,-30.7"/>
</a>
</g>
</g>
<!-- Node5 -->
<g id="Node000005" class="node">
<title>Node5</title>
<g id="a_Node000005"><a xlink:title=" ">
<polygon fill="#e0e0e0" stroke="#999999" points="257.62,-19.25 204.12,-19.25 204.12,0 257.62,0 257.62,-19.25"/>
<text text-anchor="middle" x="230.88" y="-5.75" font-family="Helvetica,sans-Serif" font-size="10.00">iostream</text>
</a>
</g>
</g>
<!-- Node1&#45;&gt;Node5 -->
<g id="edge4_Node000001_Node000005" class="edge">
<title>Node1&#45;&gt;Node5</title>
<g id="a_edge4_Node000001_Node000005"><a xlink:title=" ">
<path fill="none" stroke="#63b8ff" d="M178.93,-54.95C188.93,-46.41 201.59,-35.62 211.9,-26.81"/>
<polygon fill="#63b8ff" stroke="#63b8ff" points="213.9,-28.85 219.24,-19.7 209.36,-23.53 213.9,-28.85"/>
</a>
</g>
</g>
<!-- Node6 -->
<g id="Node000006" class="node">
<title>Node6</title>
<g id="a_Node000006"><a xlink:title=" ">
<polygon fill="#e0e0e0" stroke="#999999" points="315.88,-19.25 275.88,-19.25 275.88,0 315.88,0 315.88,-19.25"/>
<text text-anchor="middle" x="295.88" y="-5.75" font-family="Helvetica,sans-Serif" font-size="10.00">ctime</text>
</a>
</g>
</g>
<!-- Node1&#45;&gt;Node6 -->
<g id="edge5_Node000001_Node000006" class="edge">
<title>Node1&#45;&gt;Node6</title>
<g id="a_edge5_Node000001_Node000006"><a xlink:title=" ">
<path fill="none" stroke="#63b8ff" d="M195.34,-54.8C216.96,-45.3 244.86,-33.04 265.78,-23.85"/>
<polygon fill="#63b8ff" stroke="#63b8ff" points="266.97,-26.71 274.72,-19.48 264.15,-20.3 266.97,-26.71"/>
</a>
</g>
</g>
</g>
</svg>
