<?xml version="1.0" encoding="UTF-8" standalone="no"?>
<!DOCTYPE svg PUBLIC "-//W3C//DTD SVG 1.1//EN"
 "http://www.w3.org/Graphics/SVG/1.1/DTD/svg11.dtd">
<!-- Generated by graphviz version 8.0.5 (20230430.1635)
 -->
<!-- Title: include/NNFSCore/Utilities/clue.hpp Pages: 1 -->
<svg width="1869pt" height="438pt"
 viewBox="0.00 0.00 1868.62 437.50" xmlns="http://www.w3.org/2000/svg" xmlns:xlink="http://www.w3.org/1999/xlink">
<g id="graph0" class="graph" transform="scale(1 1) rotate(0) translate(4 433.5)">
<title>include/NNFSCore/Utilities/clue.hpp</title>
<!-- Node1 -->
<g id="node1" class="node">
<title>Node1</title>
<g id="a_node1"><a xlink:title=" ">
<polygon fill="#999999" stroke="#666666" points="1371.12,-429.5 1237.38,-429.5 1237.38,-399 1371.12,-399 1371.12,-429.5"/>
<text text-anchor="start" x="1245.38" y="-416" font-family="Helvetica,sans-Serif" font-size="10.00">include/NNFSCore/Utilities</text>
<text text-anchor="middle" x="1304.25" y="-404.75" font-family="Helvetica,sans-Serif" font-size="10.00">/clue.hpp</text>
</a>
</g>
</g>
<!-- Node2 -->
<g id="node2" class="node">
<title>Node2</title>
<g id="a_node2"><a xlink:href="_layer_8hpp.html" target="_top" xlink:title=" ">
<polygon fill="white" stroke="#666666" points="1049.62,-363 924.88,-363 924.88,-332.5 1049.62,-332.5 1049.62,-363"/>
<text text-anchor="start" x="932.88" y="-349.5" font-family="Helvetica,sans-Serif" font-size="10.00">include/NNFSCore/Layer</text>
<text text-anchor="middle" x="987.25" y="-338.25" font-family="Helvetica,sans-Serif" font-size="10.00">/Layer.hpp</text>
</a>
</g>
</g>
<!-- Node1&#45;&gt;Node2 -->
<g id="edge1" class="edge">
<title>Node1&#45;&gt;Node2</title>
<path fill="none" stroke="#63b8ff" d="M1226.41,-397.41C1172.15,-386.37 1100.7,-371.83 1050.07,-361.53"/>
<polygon fill="#63b8ff" stroke="#63b8ff" points="1225.53,-401.01 1236.02,-399.57 1226.92,-394.15 1225.53,-401.01"/>
</g>
<!-- Node13 -->
<g id="node13" class="node">
<title>Node13</title>
<g id="a_node13"><a xlink:href="_loss_8hpp.html" target="_top" xlink:title=" ">
<polygon fill="white" stroke="#666666" points="792.5,-230 670,-230 670,-199.5 792.5,-199.5 792.5,-230"/>
<text text-anchor="start" x="678" y="-216.5" font-family="Helvetica,sans-Serif" font-size="10.00">include/NNFSCore/Loss</text>
<text text-anchor="middle" x="731.25" y="-205.25" font-family="Helvetica,sans-Serif" font-size="10.00">/Loss.hpp</text>
</a>
</g>
</g>
<!-- Node1&#45;&gt;Node13 -->
<g id="edge36" class="edge">
<title>Node1&#45;&gt;Node13</title>
<path fill="none" stroke="#63b8ff" d="M1226.07,-407.79C1129.37,-400.23 970.86,-384.97 916.25,-363 840.85,-332.66 771.41,-261.17 743.82,-230.33"/>
<polygon fill="#63b8ff" stroke="#63b8ff" points="1225.72,-411.35 1235.96,-408.63 1226.26,-404.37 1225.72,-411.35"/>
</g>
<!-- Node16 -->
<g id="node16" class="node">
<title>Node16</title>
<g id="a_node16"><a xlink:href="_optimizer_8hpp.html" target="_top" xlink:title=" ">
<polygon fill="white" stroke="#666666" points="1334.25,-230 1192.25,-230 1192.25,-199.5 1334.25,-199.5 1334.25,-230"/>
<text text-anchor="start" x="1200.25" y="-216.5" font-family="Helvetica,sans-Serif" font-size="10.00">include/NNFSCore/Optimizer</text>
<text text-anchor="middle" x="1263.25" y="-205.25" font-family="Helvetica,sans-Serif" font-size="10.00">/Optimizer.hpp</text>
</a>
</g>
</g>
<!-- Node1&#45;&gt;Node16 -->
<g id="edge40" class="edge">
<title>Node1&#45;&gt;Node16</title>
<path fill="none" stroke="#63b8ff" d="M1299.03,-388.08C1290.34,-346.25 1273.2,-263.7 1266.27,-230.29"/>
<polygon fill="#63b8ff" stroke="#63b8ff" points="1295.78,-388.65 1301.24,-397.73 1302.63,-387.22 1295.78,-388.65"/>
</g>
<!-- Node22 -->
<g id="node22" class="node">
<title>Node22</title>
<g id="a_node22"><a xlink:href="_metrics_8hpp.html" target="_top" xlink:title=" ">
<polygon fill="white" stroke="#666666" points="1810.75,-363 1677.75,-363 1677.75,-332.5 1810.75,-332.5 1810.75,-363"/>
<text text-anchor="start" x="1685.75" y="-349.5" font-family="Helvetica,sans-Serif" font-size="10.00">include/NNFSCore/Metrics</text>
<text text-anchor="middle" x="1744.25" y="-338.25" font-family="Helvetica,sans-Serif" font-size="10.00">/Metrics.hpp</text>
</a>
</g>
</g>
<!-- Node1&#45;&gt;Node22 -->
<g id="edge37" class="edge">
<title>Node1&#45;&gt;Node22</title>
<path fill="none" stroke="#63b8ff" d="M1382.41,-403.11C1455.21,-393.48 1566.72,-378.24 1663.25,-363 1667.9,-362.27 1672.7,-361.48 1677.54,-360.68"/>
<polygon fill="#63b8ff" stroke="#63b8ff" points="1381.97,-399.77 1372.51,-404.55 1382.88,-406.71 1381.97,-399.77"/>
</g>
<!-- Node3 -->
<g id="node3" class="node">
<title>Node3</title>
<g id="a_node3"><a xlink:href="_activation_8hpp.html" target="_top" xlink:title=" ">
<polygon fill="white" stroke="#666666" points="603.38,-230 459.12,-230 459.12,-199.5 603.38,-199.5 603.38,-230"/>
<text text-anchor="start" x="467.12" y="-216.5" font-family="Helvetica,sans-Serif" font-size="10.00">include/NNFSCore/Activation</text>
<text text-anchor="middle" x="531.25" y="-205.25" font-family="Helvetica,sans-Serif" font-size="10.00">/Activation.hpp</text>
</a>
</g>
</g>
<!-- Node2&#45;&gt;Node3 -->
<g id="edge2" class="edge">
<title>Node2&#45;&gt;Node3</title>
<path fill="none" stroke="#63b8ff" d="M925.86,-329.11C835.07,-303.03 666.66,-254.65 582.25,-230.4"/>
<polygon fill="#63b8ff" stroke="#63b8ff" points="924.69,-332.71 935.27,-332.1 926.62,-325.98 924.69,-332.71"/>
</g>
<!-- Node5 -->
<g id="node5" class="node">
<title>Node5</title>
<g id="a_node5"><a xlink:href="_neural_network_8hpp.html" target="_top" xlink:title=" ">
<polygon fill="white" stroke="#666666" points="795.75,-30.5 668.75,-30.5 668.75,0 795.75,0 795.75,-30.5"/>
<text text-anchor="start" x="676.75" y="-17" font-family="Helvetica,sans-Serif" font-size="10.00">include/NNFSCore/Model</text>
<text text-anchor="middle" x="732.25" y="-5.75" font-family="Helvetica,sans-Serif" font-size="10.00">/NeuralNetwork.hpp</text>
</a>
</g>
</g>
<!-- Node2&#45;&gt;Node5 -->
<g id="edge35" class="edge">
<title>Node2&#45;&gt;Node5</title>
<path fill="none" stroke="#63b8ff" d="M1060.74,-347.3C1268.54,-346.53 1834.47,-327.03 1663.25,-133 1605.72,-67.81 996.61,-30.15 795.95,-19.44"/>
<polygon fill="#63b8ff" stroke="#63b8ff" points="1060.93,-343.8 1050.94,-347.33 1060.95,-350.8 1060.93,-343.8"/>
</g>
<!-- Node12 -->
<g id="node12" class="node">
<title>Node12</title>
<g id="a_node12"><a xlink:href="_dense_8hpp.html" target="_top" xlink:title=" ">
<polygon fill="white" stroke="#666666" points="959.62,-296.5 834.88,-296.5 834.88,-266 959.62,-266 959.62,-296.5"/>
<text text-anchor="start" x="842.88" y="-283" font-family="Helvetica,sans-Serif" font-size="10.00">include/NNFSCore/Layer</text>
<text text-anchor="middle" x="897.25" y="-271.75" font-family="Helvetica,sans-Serif" font-size="10.00">/Dense.hpp</text>
</a>
</g>
</g>
<!-- Node2&#45;&gt;Node12 -->
<g id="edge18" class="edge">
<title>Node2&#45;&gt;Node12</title>
<path fill="none" stroke="#63b8ff" d="M958.07,-325.84C944.85,-316.37 929.54,-305.39 917.59,-296.83"/>
<polygon fill="#63b8ff" stroke="#63b8ff" points="955.66,-329.13 965.83,-332.11 959.74,-323.44 955.66,-329.13"/>
</g>
<!-- Node15 -->
<g id="node15" class="node">
<title>Node15</title>
<g id="a_node15"><a xlink:href="_model_8hpp.html" target="_top" xlink:title=" ">
<polygon fill="white" stroke="#666666" points="975.75,-163.5 848.75,-163.5 848.75,-133 975.75,-133 975.75,-163.5"/>
<text text-anchor="start" x="856.75" y="-150" font-family="Helvetica,sans-Serif" font-size="10.00">include/NNFSCore/Model</text>
<text text-anchor="middle" x="912.25" y="-138.75" font-family="Helvetica,sans-Serif" font-size="10.00">/Model.hpp</text>
</a>
</g>
</g>
<!-- Node2&#45;&gt;Node15 -->
<g id="edge34" class="edge">
<title>Node2&#45;&gt;Node15</title>
<path fill="none" stroke="#63b8ff" d="M987.79,-321.03C987.4,-290.41 983.41,-238.5 963.25,-199.5 956,-185.48 943.39,-173 932.53,-163.99"/>
<polygon fill="#63b8ff" stroke="#63b8ff" points="984.29,-321.02 987.78,-331.03 991.29,-321.03 984.29,-321.02"/>
</g>
<!-- Node4 -->
<g id="node4" class="node">
<title>Node4</title>
<g id="a_node4"><a xlink:href="_re_l_u_8hpp.html" target="_top" xlink:title=" ">
<polygon fill="white" stroke="#666666" points="454.38,-163.5 310.12,-163.5 310.12,-133 454.38,-133 454.38,-163.5"/>
<text text-anchor="start" x="318.12" y="-150" font-family="Helvetica,sans-Serif" font-size="10.00">include/NNFSCore/Activation</text>
<text text-anchor="middle" x="382.25" y="-138.75" font-family="Helvetica,sans-Serif" font-size="10.00">/ReLU.hpp</text>
</a>
</g>
</g>
<!-- Node3&#45;&gt;Node4 -->
<g id="edge3" class="edge">
<title>Node3&#45;&gt;Node4</title>
<path fill="none" stroke="#63b8ff" d="M487.36,-194.75C464.62,-184.91 437.28,-173.07 416.18,-163.94"/>
<polygon fill="#63b8ff" stroke="#63b8ff" points="485.87,-198.35 496.44,-199.11 488.65,-191.93 485.87,-198.35"/>
</g>
<!-- Node3&#45;&gt;Node5 -->
<g id="edge17" class="edge">
<title>Node3&#45;&gt;Node5</title>
<path fill="none" stroke="#63b8ff" d="M537,-188.64C545.66,-156.23 565.01,-100.03 601.25,-66.5 619.93,-49.21 645.19,-37.66 668.54,-30.05"/>
<polygon fill="#63b8ff" stroke="#63b8ff" points="533.43,-187.49 534.38,-198.04 540.22,-189.2 533.43,-187.49"/>
</g>
<!-- Node7 -->
<g id="node7" class="node">
<title>Node7</title>
<g id="a_node7"><a xlink:href="_sigmoid_8hpp.html" target="_top" xlink:title=" ">
<polygon fill="white" stroke="#666666" points="554.38,-97 410.12,-97 410.12,-66.5 554.38,-66.5 554.38,-97"/>
<text text-anchor="start" x="418.12" y="-83.5" font-family="Helvetica,sans-Serif" font-size="10.00">include/NNFSCore/Activation</text>
<text text-anchor="middle" x="482.25" y="-72.25" font-family="Helvetica,sans-Serif" font-size="10.00">/Sigmoid.hpp</text>
</a>
</g>
</g>
<!-- Node3&#45;&gt;Node7 -->
<g id="edge6" class="edge">
<title>Node3&#45;&gt;Node7</title>
<path fill="none" stroke="#63b8ff" d="M522,-189.02C511.88,-161.96 496,-119.51 487.71,-97.33"/>
<polygon fill="#63b8ff" stroke="#63b8ff" points="519.04,-190.09 525.82,-198.23 525.59,-187.64 519.04,-190.09"/>
</g>
<!-- Node8 -->
<g id="node8" class="node">
<title>Node8</title>
<g id="a_node8"><a xlink:href="_softmax_8hpp.html" target="_top" xlink:title=" ">
<polygon fill="white" stroke="#666666" points="284.38,-163.5 140.12,-163.5 140.12,-133 284.38,-133 284.38,-163.5"/>
<text text-anchor="start" x="148.12" y="-150" font-family="Helvetica,sans-Serif" font-size="10.00">include/NNFSCore/Activation</text>
<text text-anchor="middle" x="212.25" y="-138.75" font-family="Helvetica,sans-Serif" font-size="10.00">/Softmax.hpp</text>
</a>
</g>
</g>
<!-- Node3&#45;&gt;Node8 -->
<g id="edge8" class="edge">
<title>Node3&#45;&gt;Node8</title>
<path fill="none" stroke="#63b8ff" d="M448.26,-196.97C397.53,-186.71 333.28,-173.72 284.63,-163.88"/>
<polygon fill="#63b8ff" stroke="#63b8ff" points="447.37,-200.56 457.86,-199.11 448.76,-193.7 447.37,-200.56"/>
</g>
<!-- Node11 -->
<g id="node11" class="node">
<title>Node11</title>
<g id="a_node11"><a xlink:href="_tanh_8hpp.html" target="_top" xlink:title=" ">
<polygon fill="white" stroke="#666666" points="754.38,-97 610.12,-97 610.12,-66.5 754.38,-66.5 754.38,-97"/>
<text text-anchor="start" x="618.12" y="-83.5" font-family="Helvetica,sans-Serif" font-size="10.00">include/NNFSCore/Activation</text>
<text text-anchor="middle" x="682.25" y="-72.25" font-family="Helvetica,sans-Serif" font-size="10.00">/Tanh.hpp</text>
</a>
</g>
</g>
<!-- Node3&#45;&gt;Node11 -->
<g id="edge15" class="edge">
<title>Node3&#45;&gt;Node11</title>
<path fill="none" stroke="#63b8ff" d="M560.03,-192.44C571.49,-183.71 584.69,-173.36 596.25,-163.5 622.12,-141.44 650.6,-114.04 667.43,-97.49"/>
<polygon fill="#63b8ff" stroke="#63b8ff" points="558.14,-190.24 552.27,-199.06 562.36,-195.83 558.14,-190.24"/>
</g>
<!-- Node4&#45;&gt;Node5 -->
<g id="edge4" class="edge">
<title>Node4&#45;&gt;Node5</title>
<path fill="none" stroke="#63b8ff" d="M381.26,-121.69C382.02,-103.67 386.23,-80.36 401.25,-66.5 439.11,-31.57 583.22,-20.92 668.3,-17.67"/>
<polygon fill="#63b8ff" stroke="#63b8ff" points="377.75,-121.59 381.17,-131.62 384.75,-121.64 377.75,-121.59"/>
</g>
<!-- Node6 -->
<g id="node6" class="node">
<title>Node6</title>
<g id="a_node6"><a xlink:href="test__activation_8cpp.html" target="_top" xlink:title=" ">
<polygon fill="white" stroke="#666666" points="354.5,-91.38 232,-91.38 232,-72.12 354.5,-72.12 354.5,-91.38"/>
<text text-anchor="middle" x="293.25" y="-77.88" font-family="Helvetica,sans-Serif" font-size="10.00">tests/test_activation.cpp</text>
</a>
</g>
</g>
<!-- Node4&#45;&gt;Node6 -->
<g id="edge5" class="edge">
<title>Node4&#45;&gt;Node6</title>
<path fill="none" stroke="#63b8ff" d="M353.47,-126.4C337.32,-114.69 318,-100.69 305.68,-91.76"/>
<polygon fill="#63b8ff" stroke="#63b8ff" points="350.9,-129.58 361.05,-132.61 355.01,-123.91 350.9,-129.58"/>
</g>
<!-- Node7&#45;&gt;Node5 -->
<g id="edge7" class="edge">
<title>Node7&#45;&gt;Node5</title>
<path fill="none" stroke="#63b8ff" d="M549.84,-63.31C589.16,-53.17 638.15,-40.53 675.45,-30.9"/>
<polygon fill="#63b8ff" stroke="#63b8ff" points="549.1,-60.15 540.29,-66.03 550.85,-66.92 549.1,-60.15"/>
</g>
<!-- Node8&#45;&gt;Node5 -->
<g id="edge12" class="edge">
<title>Node8&#45;&gt;Node5</title>
<path fill="none" stroke="#63b8ff" d="M208.24,-121.73C206.98,-103.73 208.79,-80.43 223.25,-66.5 254.74,-36.15 539.18,-22.76 668.62,-18.19"/>
<polygon fill="#63b8ff" stroke="#63b8ff" points="204.87,-122.08 209.41,-131.65 211.83,-121.33 204.87,-122.08"/>
</g>
<!-- Node8&#45;&gt;Node6 -->
<g id="edge13" class="edge">
<title>Node8&#45;&gt;Node6</title>
<path fill="none" stroke="#63b8ff" d="M238.9,-126.03C253.61,-114.32 271.08,-100.4 282.17,-91.57"/>
<polygon fill="#63b8ff" stroke="#63b8ff" points="237.27,-123.65 231.63,-132.61 241.63,-129.12 237.27,-123.65"/>
</g>
<!-- Node9 -->
<g id="node9" class="node">
<title>Node9</title>
<g id="a_node9"><a xlink:href="_c_c_e___softmax_8hpp.html" target="_top" xlink:title=" ">
<polygon fill="white" stroke="#666666" points="138.5,-97 16,-97 16,-66.5 138.5,-66.5 138.5,-97"/>
<text text-anchor="start" x="24" y="-83.5" font-family="Helvetica,sans-Serif" font-size="10.00">include/NNFSCore/Loss</text>
<text text-anchor="middle" x="77.25" y="-72.25" font-family="Helvetica,sans-Serif" font-size="10.00">/CCE_Softmax.hpp</text>
</a>
</g>
</g>
<!-- Node8&#45;&gt;Node9 -->
<g id="edge9" class="edge">
<title>Node8&#45;&gt;Node9</title>
<path fill="none" stroke="#63b8ff" d="M171.89,-127.97C151.32,-118.14 126.73,-106.39 107.76,-97.33"/>
<polygon fill="#63b8ff" stroke="#63b8ff" points="170.08,-131.46 180.62,-132.61 173.1,-125.14 170.08,-131.46"/>
</g>
<!-- Node10 -->
<g id="node10" class="node">
<title>Node10</title>
<g id="a_node10"><a xlink:href="test__loss_8cpp.html" target="_top" xlink:title=" ">
<polygon fill="white" stroke="#666666" points="126.5,-24.88 28,-24.88 28,-5.63 126.5,-5.63 126.5,-24.88"/>
<text text-anchor="middle" x="77.25" y="-11.38" font-family="Helvetica,sans-Serif" font-size="10.00">tests/test_loss.cpp</text>
</a>
</g>
</g>
<!-- Node8&#45;&gt;Node10 -->
<g id="edge14" class="edge">
<title>Node8&#45;&gt;Node10</title>
<path fill="none" stroke="#63b8ff" d="M196.04,-123.83C183.72,-106.91 165.78,-84.03 147.25,-66.5 129.86,-50.05 106.87,-34.53 92.06,-25.21"/>
<polygon fill="#63b8ff" stroke="#63b8ff" points="193.61,-125.45 202.27,-131.55 199.3,-121.38 193.61,-125.45"/>
</g>
<!-- Node9&#45;&gt;Node5 -->
<g id="edge10" class="edge">
<title>Node9&#45;&gt;Node5</title>
<path fill="none" stroke="#63b8ff" d="M149.5,-71.28C163.03,-69.61 177.07,-67.94 190.25,-66.5 362.87,-47.62 566.92,-29.95 668.35,-21.49"/>
<polygon fill="#63b8ff" stroke="#63b8ff" points="149.28,-67.9 139.79,-72.62 150.14,-74.85 149.28,-67.9"/>
</g>
<!-- Node9&#45;&gt;Node10 -->
<g id="edge11" class="edge">
<title>Node9&#45;&gt;Node10</title>
<path fill="none" stroke="#63b8ff" d="M77.25,-55.18C77.25,-44.51 77.25,-32.83 77.25,-25.07"/>
<polygon fill="#63b8ff" stroke="#63b8ff" points="73.75,-55.11 77.25,-65.11 80.75,-55.11 73.75,-55.11"/>
</g>
<!-- Node11&#45;&gt;Node5 -->
<g id="edge16" class="edge">
<title>Node11&#45;&gt;Node5</title>
<path fill="none" stroke="#63b8ff" d="M700.17,-57.63C707.1,-48.69 714.82,-38.74 720.95,-30.83"/>
<polygon fill="#63b8ff" stroke="#63b8ff" points="696.96,-55.07 693.6,-65.11 702.49,-59.35 696.96,-55.07"/>
</g>
<!-- Node12&#45;&gt;Node5 -->
<g id="edge26" class="edge">
<title>Node12&#45;&gt;Node5</title>
<path fill="none" stroke="#63b8ff" d="M867.02,-258.98C857.12,-250.83 846.74,-240.85 839.25,-230 795.27,-166.3 819.83,-132.41 779.25,-66.5 770.98,-53.07 758.75,-40.13 748.83,-30.75"/>
<polygon fill="#63b8ff" stroke="#63b8ff" points="864.49,-262.23 874.52,-265.65 868.81,-256.72 864.49,-262.23"/>
</g>
<!-- Node12&#45;&gt;Node13 -->
<g id="edge19" class="edge">
<title>Node12&#45;&gt;Node13</title>
<path fill="none" stroke="#63b8ff" d="M849.37,-261.65C823.84,-251.73 792.88,-239.7 769.06,-230.44"/>
<polygon fill="#63b8ff" stroke="#63b8ff" points="847.99,-265.25 858.58,-265.61 850.53,-258.73 847.99,-265.25"/>
</g>
<!-- Node12&#45;&gt;Node16 -->
<g id="edge27" class="edge">
<title>Node12&#45;&gt;Node16</title>
<path fill="none" stroke="#63b8ff" d="M970.23,-267.39C1034.65,-256.04 1128,-239.59 1191.92,-228.32"/>
<polygon fill="#63b8ff" stroke="#63b8ff" points="969.99,-264.05 960.75,-269.24 971.21,-270.95 969.99,-264.05"/>
</g>
<!-- Node21 -->
<g id="node21" class="node">
<title>Node21</title>
<g id="a_node21"><a xlink:href="test__dense_8cpp.html" target="_top" xlink:title=" ">
<polygon fill="white" stroke="#666666" points="954.62,-224.38 847.88,-224.38 847.88,-205.12 954.62,-205.12 954.62,-224.38"/>
<text text-anchor="middle" x="901.25" y="-210.88" font-family="Helvetica,sans-Serif" font-size="10.00">tests/test_dense.cpp</text>
</a>
</g>
</g>
<!-- Node12&#45;&gt;Node21 -->
<g id="edge33" class="edge">
<title>Node12&#45;&gt;Node21</title>
<path fill="none" stroke="#63b8ff" d="M898.84,-254.68C899.5,-244.01 900.22,-232.33 900.7,-224.57"/>
<polygon fill="#63b8ff" stroke="#63b8ff" points="895.28,-254.42 898.16,-264.61 902.27,-254.85 895.28,-254.42"/>
</g>
<!-- Node13&#45;&gt;Node5 -->
<g id="edge25" class="edge">
<title>Node13&#45;&gt;Node5</title>
<path fill="none" stroke="#63b8ff" d="M743.74,-189.6C757.27,-160.25 775.39,-109.31 763.25,-66.5 759.5,-53.29 751.18,-40.14 744.11,-30.61"/>
<polygon fill="#63b8ff" stroke="#63b8ff" points="740.21,-187.86 739.03,-198.39 746.52,-190.9 740.21,-187.86"/>
</g>
<!-- Node14 -->
<g id="node14" class="node">
<title>Node14</title>
<g id="a_node14"><a xlink:href="_c_c_e_8hpp.html" target="_top" xlink:title=" ">
<polygon fill="white" stroke="#666666" points="122.5,-163.5 0,-163.5 0,-133 122.5,-133 122.5,-163.5"/>
<text text-anchor="start" x="8" y="-150" font-family="Helvetica,sans-Serif" font-size="10.00">include/NNFSCore/Loss</text>
<text text-anchor="middle" x="61.25" y="-138.75" font-family="Helvetica,sans-Serif" font-size="10.00">/CCE.hpp</text>
</a>
</g>
</g>
<!-- Node13&#45;&gt;Node14 -->
<g id="edge20" class="edge">
<title>Node13&#45;&gt;Node14</title>
<path fill="none" stroke="#63b8ff" d="M659.02,-204.58C643.6,-202.77 627.39,-200.97 612.25,-199.5 398.88,-178.75 343.59,-192.94 131.25,-163.5 128.42,-163.11 125.54,-162.67 122.63,-162.2"/>
<polygon fill="#63b8ff" stroke="#63b8ff" points="658.2,-208.12 668.54,-205.83 659.03,-201.17 658.2,-208.12"/>
</g>
<!-- Node13&#45;&gt;Node15 -->
<g id="edge23" class="edge">
<title>Node13&#45;&gt;Node15</title>
<path fill="none" stroke="#63b8ff" d="M782.34,-195.54C810.39,-185.55 844.71,-173.32 871.03,-163.94"/>
<polygon fill="#63b8ff" stroke="#63b8ff" points="781.57,-192.46 773.32,-199.11 783.92,-199.05 781.57,-192.46"/>
</g>
<!-- Node14&#45;&gt;Node9 -->
<g id="edge21" class="edge">
<title>Node14&#45;&gt;Node9</title>
<path fill="none" stroke="#63b8ff" d="M67.47,-122.16C69.56,-113.75 71.82,-104.66 73.63,-97.33"/>
<polygon fill="#63b8ff" stroke="#63b8ff" points="63.89,-121.07 64.88,-131.61 70.69,-122.75 63.89,-121.07"/>
</g>
<!-- Node14&#45;&gt;Node10 -->
<g id="edge22" class="edge">
<title>Node14&#45;&gt;Node10</title>
<path fill="none" stroke="#63b8ff" d="M29.79,-125.84C20.78,-117.94 12.1,-108.15 7.25,-97 1.84,-84.57 1.06,-78.56 7.25,-66.5 17.22,-47.07 38.59,-33.46 55.11,-25.35"/>
<polygon fill="#63b8ff" stroke="#63b8ff" points="27.08,-128.96 37.04,-132.56 31.49,-123.53 27.08,-128.96"/>
</g>
<!-- Node15&#45;&gt;Node5 -->
<g id="edge24" class="edge">
<title>Node15&#45;&gt;Node5</title>
<path fill="none" stroke="#63b8ff" d="M894.19,-124.66C879.41,-107.21 857.26,-83.28 834.25,-66.5 814.31,-51.96 789.53,-39.64 769.38,-30.83"/>
<polygon fill="#63b8ff" stroke="#63b8ff" points="891.74,-126.19 900.82,-131.65 897.12,-121.72 891.74,-126.19"/>
</g>
<!-- Node16&#45;&gt;Node5 -->
<g id="edge28" class="edge">
<title>Node16&#45;&gt;Node5</title>
<path fill="none" stroke="#63b8ff" d="M1181.16,-205.97C1133.38,-199.18 1072.96,-186.6 1023.25,-163.5 1003.3,-154.23 1002.55,-145.21 984.25,-133 934.18,-99.59 920.82,-91.92 866.25,-66.5 837.08,-52.91 803.14,-40.21 776.71,-30.98"/>
<polygon fill="#63b8ff" stroke="#63b8ff" points="1180.39,-209.53 1190.77,-207.41 1181.34,-202.6 1180.39,-209.53"/>
</g>
<!-- Node17 -->
<g id="node17" class="node">
<title>Node17</title>
<g id="a_node17"><a xlink:href="_adagrad_8hpp.html" target="_top" xlink:title=" ">
<polygon fill="white" stroke="#666666" points="1174.25,-163.5 1032.25,-163.5 1032.25,-133 1174.25,-133 1174.25,-163.5"/>
<text text-anchor="start" x="1040.25" y="-150" font-family="Helvetica,sans-Serif" font-size="10.00">include/NNFSCore/Optimizer</text>
<text text-anchor="middle" x="1103.25" y="-138.75" font-family="Helvetica,sans-Serif" font-size="10.00">/Adagrad.hpp</text>
</a>
</g>
</g>
<!-- Node16&#45;&gt;Node17 -->
<g id="edge29" class="edge">
<title>Node16&#45;&gt;Node17</title>
<path fill="none" stroke="#63b8ff" d="M1216.77,-195.01C1192.23,-185.12 1162.55,-173.15 1139.69,-163.94"/>
<polygon fill="#63b8ff" stroke="#63b8ff" points="1215.36,-198.62 1225.94,-199.11 1217.98,-192.13 1215.36,-198.62"/>
</g>
<!-- Node18 -->
<g id="node18" class="node">
<title>Node18</title>
<g id="a_node18"><a xlink:href="_adam_8hpp.html" target="_top" xlink:title=" ">
<polygon fill="white" stroke="#666666" points="1334.25,-163.5 1192.25,-163.5 1192.25,-133 1334.25,-133 1334.25,-163.5"/>
<text text-anchor="start" x="1200.25" y="-150" font-family="Helvetica,sans-Serif" font-size="10.00">include/NNFSCore/Optimizer</text>
<text text-anchor="middle" x="1263.25" y="-138.75" font-family="Helvetica,sans-Serif" font-size="10.00">/Adam.hpp</text>
</a>
</g>
</g>
<!-- Node16&#45;&gt;Node18 -->
<g id="edge30" class="edge">
<title>Node16&#45;&gt;Node18</title>
<path fill="none" stroke="#63b8ff" d="M1263.25,-188.38C1263.25,-180.05 1263.25,-171.08 1263.25,-163.83"/>
<polygon fill="#63b8ff" stroke="#63b8ff" points="1259.75,-188.11 1263.25,-198.11 1266.75,-188.11 1259.75,-188.11"/>
</g>
<!-- Node19 -->
<g id="node19" class="node">
<title>Node19</title>
<g id="a_node19"><a xlink:href="_r_m_s_prop_8hpp.html" target="_top" xlink:title=" ">
<polygon fill="white" stroke="#666666" points="1494.25,-163.5 1352.25,-163.5 1352.25,-133 1494.25,-133 1494.25,-163.5"/>
<text text-anchor="start" x="1360.25" y="-150" font-family="Helvetica,sans-Serif" font-size="10.00">include/NNFSCore/Optimizer</text>
<text text-anchor="middle" x="1423.25" y="-138.75" font-family="Helvetica,sans-Serif" font-size="10.00">/RMSProp.hpp</text>
</a>
</g>
</g>
<!-- Node16&#45;&gt;Node19 -->
<g id="edge31" class="edge">
<title>Node16&#45;&gt;Node19</title>
<path fill="none" stroke="#63b8ff" d="M1309.73,-195.01C1334.27,-185.12 1363.95,-173.15 1386.81,-163.94"/>
<polygon fill="#63b8ff" stroke="#63b8ff" points="1308.52,-192.13 1300.56,-199.11 1311.14,-198.62 1308.52,-192.13"/>
</g>
<!-- Node20 -->
<g id="node20" class="node">
<title>Node20</title>
<g id="a_node20"><a xlink:href="_s_g_d_8hpp.html" target="_top" xlink:title=" ">
<polygon fill="white" stroke="#666666" points="1654.25,-163.5 1512.25,-163.5 1512.25,-133 1654.25,-133 1654.25,-163.5"/>
<text text-anchor="start" x="1520.25" y="-150" font-family="Helvetica,sans-Serif" font-size="10.00">include/NNFSCore/Optimizer</text>
<text text-anchor="middle" x="1583.25" y="-138.75" font-family="Helvetica,sans-Serif" font-size="10.00">/SGD.hpp</text>
</a>
</g>
</g>
<!-- Node16&#45;&gt;Node20 -->
<g id="edge32" class="edge">
<title>Node16&#45;&gt;Node20</title>
<path fill="none" stroke="#63b8ff" d="M1345.42,-197.19C1396.86,-186.82 1462.49,-173.59 1511.78,-163.66"/>
<polygon fill="#63b8ff" stroke="#63b8ff" points="1344.78,-193.95 1335.67,-199.36 1346.16,-200.81 1344.78,-193.95"/>
</g>
<!-- Node22&#45;&gt;Node5 -->
<g id="edge38" class="edge">
<title>Node22&#45;&gt;Node5</title>
<path fill="none" stroke="#63b8ff" d="M1736.92,-321.9C1729.86,-295.73 1720.25,-253.21 1720.25,-215.75 1720.25,-215.75 1720.25,-215.75 1720.25,-147.25 1720.25,-124.09 1954.41,-158.75 1491.25,-66.5 1358.82,-40.12 953.63,-23.82 795.96,-18.33"/>
<polygon fill="#63b8ff" stroke="#63b8ff" points="1733.79,-322.68 1739.85,-331.37 1740.53,-320.8 1733.79,-322.68"/>
</g>
<!-- Node23 -->
<g id="node23" class="node">
<title>Node23</title>
<g id="a_node23"><a xlink:href="test__metrics_8cpp.html" target="_top" xlink:title=" ">
<polygon fill="white" stroke="#666666" points="1860.62,-290.88 1747.88,-290.88 1747.88,-271.62 1860.62,-271.62 1860.62,-290.88"/>
<text text-anchor="middle" x="1804.25" y="-277.38" font-family="Helvetica,sans-Serif" font-size="10.00">tests/test_metrics.cpp</text>
</a>
</g>
</g>
<!-- Node22&#45;&gt;Node23 -->
<g id="edge39" class="edge">
<title>Node22&#45;&gt;Node23</title>
<path fill="none" stroke="#63b8ff" d="M1765.22,-324.21C1775.85,-312.78 1788.14,-299.57 1796.04,-291.07"/>
<polygon fill="#63b8ff" stroke="#63b8ff" points="1763.11,-321.41 1758.86,-331.11 1768.24,-326.18 1763.11,-321.41"/>
</g>
</g>
</svg>
