<?xml version="1.0" encoding="UTF-8" standalone="no"?>
<!DOCTYPE svg PUBLIC "-//W3C//DTD SVG 1.1//EN"
 "http://www.w3.org/Graphics/SVG/1.1/DTD/svg11.dtd">
<!-- Generated by graphviz version 8.0.5 (20230430.1635)
 -->
<!-- Title: include/NNFSCore/Utilities/clue.hpp Pages: 1 -->
<svg width="1864pt" height="438pt"
 viewBox="0.00 0.00 1864.12 437.50" xmlns="http://www.w3.org/2000/svg" xmlns:xlink="http://www.w3.org/1999/xlink">
<g id="graph0" class="graph" transform="scale(1 1) rotate(0) translate(4 433.5)">
<title>include/NNFSCore/Utilities/clue.hpp</title>
<!-- Node1 -->
<g id="node1" class="node">
<title>Node1</title>
<g id="a_node1"><a xlink:title=" ">
<polygon fill="#999999" stroke="#666666" points="1130,-429.5 996.25,-429.5 996.25,-399 1130,-399 1130,-429.5"/>
<text text-anchor="start" x="1004.25" y="-416" font-family="Helvetica,sans-Serif" font-size="10.00">include/NNFSCore/Utilities</text>
<text text-anchor="middle" x="1063.12" y="-404.75" font-family="Helvetica,sans-Serif" font-size="10.00">/clue.hpp</text>
</a>
</g>
</g>
<!-- Node2 -->
<g id="node2" class="node">
<title>Node2</title>
<g id="a_node2"><a xlink:href="_layer_8hpp.html" target="_top" xlink:title=" ">
<polygon fill="white" stroke="#666666" points="889.5,-363 764.75,-363 764.75,-332.5 889.5,-332.5 889.5,-363"/>
<text text-anchor="start" x="772.75" y="-349.5" font-family="Helvetica,sans-Serif" font-size="10.00">include/NNFSCore/Layer</text>
<text text-anchor="middle" x="827.12" y="-338.25" font-family="Helvetica,sans-Serif" font-size="10.00">/Layer.hpp</text>
</a>
</g>
</g>
<!-- Node1&#45;&gt;Node2 -->
<g id="edge1" class="edge">
<title>Node1&#45;&gt;Node2</title>
<path fill="none" stroke="#63b8ff" d="M999.08,-395.75C962.01,-385.61 915.88,-373.01 880.74,-363.4"/>
<polygon fill="#63b8ff" stroke="#63b8ff" points="997.71,-399.27 1008.28,-398.53 999.55,-392.52 997.71,-399.27"/>
</g>
<!-- Node13 -->
<g id="node13" class="node">
<title>Node13</title>
<g id="a_node13"><a xlink:href="_loss_8hpp.html" target="_top" xlink:title=" ">
<polygon fill="white" stroke="#666666" points="977.38,-230 854.88,-230 854.88,-199.5 977.38,-199.5 977.38,-230"/>
<text text-anchor="start" x="862.88" y="-216.5" font-family="Helvetica,sans-Serif" font-size="10.00">include/NNFSCore/Loss</text>
<text text-anchor="middle" x="916.12" y="-205.25" font-family="Helvetica,sans-Serif" font-size="10.00">/Loss.hpp</text>
</a>
</g>
</g>
<!-- Node1&#45;&gt;Node13 -->
<g id="edge31" class="edge">
<title>Node1&#45;&gt;Node13</title>
<path fill="none" stroke="#63b8ff" d="M1045.77,-389.93C1015.1,-348.73 952.19,-264.2 926.95,-230.29"/>
<polygon fill="#63b8ff" stroke="#63b8ff" points="1043.54,-391.8 1052.32,-397.73 1049.15,-387.62 1043.54,-391.8"/>
</g>
<!-- Node16 -->
<g id="node16" class="node">
<title>Node16</title>
<g id="a_node16"><a xlink:href="_optimizer_8hpp.html" target="_top" xlink:title=" ">
<polygon fill="white" stroke="#666666" points="1407.12,-230 1265.12,-230 1265.12,-199.5 1407.12,-199.5 1407.12,-230"/>
<text text-anchor="start" x="1273.12" y="-216.5" font-family="Helvetica,sans-Serif" font-size="10.00">include/NNFSCore/Optimizer</text>
<text text-anchor="middle" x="1336.12" y="-205.25" font-family="Helvetica,sans-Serif" font-size="10.00">/Optimizer.hpp</text>
</a>
</g>
</g>
<!-- Node1&#45;&gt;Node16 -->
<g id="edge35" class="edge">
<title>Node1&#45;&gt;Node16</title>
<path fill="none" stroke="#63b8ff" d="M1141.06,-400C1174.21,-392.28 1212.44,-380.51 1244.12,-363 1282.54,-341.77 1294.88,-334.33 1317.12,-296.5 1329.39,-275.64 1333.74,-247.38 1335.28,-230.42"/>
<polygon fill="#63b8ff" stroke="#63b8ff" points="1140.49,-396.76 1131.5,-402.36 1142.02,-403.59 1140.49,-396.76"/>
</g>
<!-- Node22 -->
<g id="node22" class="node">
<title>Node22</title>
<g id="a_node22"><a xlink:href="_metrics_8hpp.html" target="_top" xlink:title=" ">
<polygon fill="white" stroke="#666666" points="1234.62,-363 1101.62,-363 1101.62,-332.5 1234.62,-332.5 1234.62,-363"/>
<text text-anchor="start" x="1109.62" y="-349.5" font-family="Helvetica,sans-Serif" font-size="10.00">include/NNFSCore/Metrics</text>
<text text-anchor="middle" x="1168.12" y="-338.25" font-family="Helvetica,sans-Serif" font-size="10.00">/Metrics.hpp</text>
</a>
</g>
</g>
<!-- Node1&#45;&gt;Node22 -->
<g id="edge32" class="edge">
<title>Node1&#45;&gt;Node22</title>
<path fill="none" stroke="#63b8ff" d="M1096.28,-392.89C1111.9,-383.29 1130.18,-372.06 1144.39,-363.33"/>
<polygon fill="#63b8ff" stroke="#63b8ff" points="1094.64,-390.4 1087.95,-398.61 1098.3,-396.36 1094.64,-390.4"/>
</g>
<!-- Node3 -->
<g id="node3" class="node">
<title>Node3</title>
<g id="a_node3"><a xlink:href="_activation_8hpp.html" target="_top" xlink:title=" ">
<polygon fill="white" stroke="#666666" points="468.25,-230 324,-230 324,-199.5 468.25,-199.5 468.25,-230"/>
<text text-anchor="start" x="332" y="-216.5" font-family="Helvetica,sans-Serif" font-size="10.00">include/NNFSCore/Activation</text>
<text text-anchor="middle" x="396.12" y="-205.25" font-family="Helvetica,sans-Serif" font-size="10.00">/Activation.hpp</text>
</a>
</g>
</g>
<!-- Node2&#45;&gt;Node3 -->
<g id="edge2" class="edge">
<title>Node2&#45;&gt;Node3</title>
<path fill="none" stroke="#63b8ff" d="M768.58,-328.95C682.64,-302.83 523.95,-254.6 444.33,-230.4"/>
<polygon fill="#63b8ff" stroke="#63b8ff" points="767.35,-332.54 777.94,-332.1 769.39,-325.85 767.35,-332.54"/>
</g>
<!-- Node9 -->
<g id="node9" class="node">
<title>Node9</title>
<g id="a_node9"><a xlink:href="_neural_network_8hpp.html" target="_top" xlink:title=" ">
<polygon fill="white" stroke="#666666" points="1062.62,-30.5 935.62,-30.5 935.62,0 1062.62,0 1062.62,-30.5"/>
<text text-anchor="start" x="943.62" y="-17" font-family="Helvetica,sans-Serif" font-size="10.00">include/NNFSCore/Model</text>
<text text-anchor="middle" x="999.12" y="-5.75" font-family="Helvetica,sans-Serif" font-size="10.00">/NeuralNetwork.hpp</text>
</a>
</g>
</g>
<!-- Node2&#45;&gt;Node9 -->
<g id="edge30" class="edge">
<title>Node2&#45;&gt;Node9</title>
<path fill="none" stroke="#63b8ff" d="M820.77,-321.57C811.58,-279.35 799.27,-193.01 834.12,-133 863.3,-82.78 923.71,-48.7 962.78,-30.88"/>
<polygon fill="#63b8ff" stroke="#63b8ff" points="817.57,-322.29 823.23,-331.25 824.39,-320.72 817.57,-322.29"/>
</g>
<!-- Node12 -->
<g id="node12" class="node">
<title>Node12</title>
<g id="a_node12"><a xlink:href="_dense_8hpp.html" target="_top" xlink:title=" ">
<polygon fill="white" stroke="#666666" points="1111.5,-296.5 986.75,-296.5 986.75,-266 1111.5,-266 1111.5,-296.5"/>
<text text-anchor="start" x="994.75" y="-283" font-family="Helvetica,sans-Serif" font-size="10.00">include/NNFSCore/Layer</text>
<text text-anchor="middle" x="1049.12" y="-271.75" font-family="Helvetica,sans-Serif" font-size="10.00">/Dense.hpp</text>
</a>
</g>
</g>
<!-- Node2&#45;&gt;Node12 -->
<g id="edge13" class="edge">
<title>Node2&#45;&gt;Node12</title>
<path fill="none" stroke="#63b8ff" d="M888.27,-328.99C922.98,-318.9 965.91,-306.43 998.69,-296.9"/>
<polygon fill="#63b8ff" stroke="#63b8ff" points="887.4,-325.88 878.78,-332.03 889.36,-332.6 887.4,-325.88"/>
</g>
<!-- Node15 -->
<g id="node15" class="node">
<title>Node15</title>
<g id="a_node15"><a xlink:href="_model_8hpp.html" target="_top" xlink:title=" ">
<polygon fill="white" stroke="#666666" points="970.62,-163.5 843.62,-163.5 843.62,-133 970.62,-133 970.62,-163.5"/>
<text text-anchor="start" x="851.62" y="-150" font-family="Helvetica,sans-Serif" font-size="10.00">include/NNFSCore/Model</text>
<text text-anchor="middle" x="907.12" y="-138.75" font-family="Helvetica,sans-Serif" font-size="10.00">/Model.hpp</text>
</a>
</g>
</g>
<!-- Node2&#45;&gt;Node15 -->
<g id="edge29" class="edge">
<title>Node2&#45;&gt;Node15</title>
<path fill="none" stroke="#63b8ff" d="M824.97,-321.66C823.48,-290.9 824.78,-238.11 846.12,-199.5 854.29,-184.73 868.69,-172.55 881.45,-163.89"/>
<polygon fill="#63b8ff" stroke="#63b8ff" points="821.52,-321.54 825.64,-331.3 828.5,-321.1 821.52,-321.54"/>
</g>
<!-- Node4 -->
<g id="node4" class="node">
<title>Node4</title>
<g id="a_node4"><a xlink:href="_re_l_u_8hpp.html" target="_top" xlink:title=" ">
<polygon fill="white" stroke="#666666" points="144.25,-163.5 0,-163.5 0,-133 144.25,-133 144.25,-163.5"/>
<text text-anchor="start" x="8" y="-150" font-family="Helvetica,sans-Serif" font-size="10.00">include/NNFSCore/Activation</text>
<text text-anchor="middle" x="72.12" y="-138.75" font-family="Helvetica,sans-Serif" font-size="10.00">/ReLU.hpp</text>
</a>
</g>
</g>
<!-- Node3&#45;&gt;Node4 -->
<g id="edge3" class="edge">
<title>Node3&#45;&gt;Node4</title>
<path fill="none" stroke="#63b8ff" d="M313.26,-197.25C261.12,-186.87 194.49,-173.61 144.49,-163.66"/>
<polygon fill="#63b8ff" stroke="#63b8ff" points="312.33,-200.84 322.82,-199.36 313.69,-193.97 312.33,-200.84"/>
</g>
<!-- Node6 -->
<g id="node6" class="node">
<title>Node6</title>
<g id="a_node6"><a xlink:href="_sigmoid_8hpp.html" target="_top" xlink:title=" ">
<polygon fill="white" stroke="#666666" points="630.25,-163.5 486,-163.5 486,-133 630.25,-133 630.25,-163.5"/>
<text text-anchor="start" x="494" y="-150" font-family="Helvetica,sans-Serif" font-size="10.00">include/NNFSCore/Activation</text>
<text text-anchor="middle" x="558.12" y="-138.75" font-family="Helvetica,sans-Serif" font-size="10.00">/Sigmoid.hpp</text>
</a>
</g>
</g>
<!-- Node3&#45;&gt;Node6 -->
<g id="edge5" class="edge">
<title>Node3&#45;&gt;Node6</title>
<path fill="none" stroke="#63b8ff" d="M442.85,-195.15C467.76,-185.23 497.98,-173.2 521.23,-163.94"/>
<polygon fill="#63b8ff" stroke="#63b8ff" points="441.88,-192.16 433.89,-199.11 444.47,-198.67 441.88,-192.16"/>
</g>
<!-- Node7 -->
<g id="node7" class="node">
<title>Node7</title>
<g id="a_node7"><a xlink:href="_softmax_8hpp.html" target="_top" xlink:title=" ">
<polygon fill="white" stroke="#666666" points="468.25,-163.5 324,-163.5 324,-133 468.25,-133 468.25,-163.5"/>
<text text-anchor="start" x="332" y="-150" font-family="Helvetica,sans-Serif" font-size="10.00">include/NNFSCore/Activation</text>
<text text-anchor="middle" x="396.12" y="-138.75" font-family="Helvetica,sans-Serif" font-size="10.00">/Softmax.hpp</text>
</a>
</g>
</g>
<!-- Node3&#45;&gt;Node7 -->
<g id="edge6" class="edge">
<title>Node3&#45;&gt;Node7</title>
<path fill="none" stroke="#63b8ff" d="M396.12,-188.38C396.12,-180.05 396.12,-171.08 396.12,-163.83"/>
<polygon fill="#63b8ff" stroke="#63b8ff" points="392.63,-188.11 396.12,-198.11 399.63,-188.11 392.63,-188.11"/>
</g>
<!-- Node11 -->
<g id="node11" class="node">
<title>Node11</title>
<g id="a_node11"><a xlink:href="_tanh_8hpp.html" target="_top" xlink:title=" ">
<polygon fill="white" stroke="#666666" points="306.25,-163.5 162,-163.5 162,-133 306.25,-133 306.25,-163.5"/>
<text text-anchor="start" x="170" y="-150" font-family="Helvetica,sans-Serif" font-size="10.00">include/NNFSCore/Activation</text>
<text text-anchor="middle" x="234.12" y="-138.75" font-family="Helvetica,sans-Serif" font-size="10.00">/Tanh.hpp</text>
</a>
</g>
</g>
<!-- Node3&#45;&gt;Node11 -->
<g id="edge12" class="edge">
<title>Node3&#45;&gt;Node11</title>
<path fill="none" stroke="#63b8ff" d="M349.4,-195.15C324.49,-185.23 294.27,-173.2 271.02,-163.94"/>
<polygon fill="#63b8ff" stroke="#63b8ff" points="347.78,-198.67 358.36,-199.11 350.37,-192.16 347.78,-198.67"/>
</g>
<!-- Node5 -->
<g id="node5" class="node">
<title>Node5</title>
<g id="a_node5"><a xlink:href="test__activation_8cpp.html" target="_top" xlink:title=" ">
<polygon fill="white" stroke="#666666" points="344.38,-91.38 221.88,-91.38 221.88,-72.12 344.38,-72.12 344.38,-91.38"/>
<text text-anchor="middle" x="283.12" y="-77.88" font-family="Helvetica,sans-Serif" font-size="10.00">tests/test_activation.cpp</text>
</a>
</g>
</g>
<!-- Node4&#45;&gt;Node5 -->
<g id="edge4" class="edge">
<title>Node4&#45;&gt;Node5</title>
<path fill="none" stroke="#63b8ff" d="M130.67,-129.35C170.55,-117.16 221.68,-101.53 253.42,-91.83"/>
<polygon fill="#63b8ff" stroke="#63b8ff" points="129.81,-126.26 121.27,-132.53 131.85,-132.96 129.81,-126.26"/>
</g>
<!-- Node7&#45;&gt;Node5 -->
<g id="edge10" class="edge">
<title>Node7&#45;&gt;Node5</title>
<path fill="none" stroke="#63b8ff" d="M361.01,-127.2C340.22,-115.34 314.92,-100.9 298.91,-91.76"/>
<polygon fill="#63b8ff" stroke="#63b8ff" points="359.06,-130.7 369.48,-132.61 362.53,-124.62 359.06,-130.7"/>
</g>
<!-- Node8 -->
<g id="node8" class="node">
<title>Node8</title>
<g id="a_node8"><a xlink:href="_c_c_e___softmax_8hpp.html" target="_top" xlink:title=" ">
<polygon fill="white" stroke="#666666" points="770.38,-97 647.88,-97 647.88,-66.5 770.38,-66.5 770.38,-97"/>
<text text-anchor="start" x="655.88" y="-83.5" font-family="Helvetica,sans-Serif" font-size="10.00">include/NNFSCore/Loss</text>
<text text-anchor="middle" x="709.12" y="-72.25" font-family="Helvetica,sans-Serif" font-size="10.00">/CCE_Softmax.hpp</text>
</a>
</g>
</g>
<!-- Node7&#45;&gt;Node8 -->
<g id="edge7" class="edge">
<title>Node7&#45;&gt;Node8</title>
<path fill="none" stroke="#63b8ff" d="M478.28,-130.32C531.29,-119.4 599.13,-105.42 647.52,-95.44"/>
<polygon fill="#63b8ff" stroke="#63b8ff" points="477.63,-127.09 468.54,-132.53 479.04,-133.94 477.63,-127.09"/>
</g>
<!-- Node10 -->
<g id="node10" class="node">
<title>Node10</title>
<g id="a_node10"><a xlink:href="test__loss_8cpp.html" target="_top" xlink:title=" ">
<polygon fill="white" stroke="#666666" points="669.38,-24.88 570.88,-24.88 570.88,-5.63 669.38,-5.63 669.38,-24.88"/>
<text text-anchor="middle" x="620.12" y="-11.38" font-family="Helvetica,sans-Serif" font-size="10.00">tests/test_loss.cpp</text>
</a>
</g>
</g>
<!-- Node7&#45;&gt;Node10 -->
<g id="edge11" class="edge">
<title>Node7&#45;&gt;Node10</title>
<path fill="none" stroke="#63b8ff" d="M430.25,-127.29C479.55,-98.46 568.7,-46.32 604.56,-25.35"/>
<polygon fill="#63b8ff" stroke="#63b8ff" points="428.82,-124.66 421.95,-132.73 432.35,-130.7 428.82,-124.66"/>
</g>
<!-- Node8&#45;&gt;Node9 -->
<g id="edge8" class="edge">
<title>Node8&#45;&gt;Node9</title>
<path fill="none" stroke="#63b8ff" d="M781.1,-64.74C828.37,-54.23 889.65,-40.6 935.2,-30.47"/>
<polygon fill="#63b8ff" stroke="#63b8ff" points="780.63,-61.48 771.63,-67.07 782.15,-68.32 780.63,-61.48"/>
</g>
<!-- Node8&#45;&gt;Node10 -->
<g id="edge9" class="edge">
<title>Node8&#45;&gt;Node10</title>
<path fill="none" stroke="#63b8ff" d="M680.35,-59.9C664.2,-48.19 644.88,-34.19 632.56,-25.26"/>
<polygon fill="#63b8ff" stroke="#63b8ff" points="677.78,-63.08 687.93,-66.11 681.89,-57.41 677.78,-63.08"/>
</g>
<!-- Node12&#45;&gt;Node9 -->
<g id="edge21" class="edge">
<title>Node12&#45;&gt;Node9</title>
<path fill="none" stroke="#63b8ff" d="M1085.59,-259.37C1095.76,-251.57 1105.55,-241.7 1111.12,-230 1116.96,-217.76 1114.8,-212.55 1111.12,-199.5 1091.43,-129.51 1036.76,-59.82 1011.82,-30.58"/>
<polygon fill="#63b8ff" stroke="#63b8ff" points="1083.79,-257.06 1077.65,-265.69 1087.83,-262.78 1083.79,-257.06"/>
</g>
<!-- Node12&#45;&gt;Node13 -->
<g id="edge14" class="edge">
<title>Node12&#45;&gt;Node13</title>
<path fill="none" stroke="#63b8ff" d="M1009.08,-260.83C988.88,-251.03 964.78,-239.35 946.19,-230.33"/>
<polygon fill="#63b8ff" stroke="#63b8ff" points="1007.42,-264.4 1017.95,-265.61 1010.47,-258.1 1007.42,-264.4"/>
</g>
<!-- Node12&#45;&gt;Node16 -->
<g id="edge22" class="edge">
<title>Node12&#45;&gt;Node16</title>
<path fill="none" stroke="#63b8ff" d="M1122.2,-263.83C1167.95,-253.54 1226.4,-240.41 1270.64,-230.47"/>
<polygon fill="#63b8ff" stroke="#63b8ff" points="1121.74,-260.57 1112.75,-266.17 1123.28,-267.4 1121.74,-260.57"/>
</g>
<!-- Node21 -->
<g id="node21" class="node">
<title>Node21</title>
<g id="a_node21"><a xlink:href="test__dense_8cpp.html" target="_top" xlink:title=" ">
<polygon fill="white" stroke="#666666" points="1102.5,-224.38 995.75,-224.38 995.75,-205.12 1102.5,-205.12 1102.5,-224.38"/>
<text text-anchor="middle" x="1049.12" y="-210.88" font-family="Helvetica,sans-Serif" font-size="10.00">tests/test_dense.cpp</text>
</a>
</g>
</g>
<!-- Node12&#45;&gt;Node21 -->
<g id="edge28" class="edge">
<title>Node12&#45;&gt;Node21</title>
<path fill="none" stroke="#63b8ff" d="M1049.12,-254.68C1049.12,-244.01 1049.12,-232.33 1049.12,-224.57"/>
<polygon fill="#63b8ff" stroke="#63b8ff" points="1045.63,-254.61 1049.12,-264.61 1052.63,-254.61 1045.63,-254.61"/>
</g>
<!-- Node13&#45;&gt;Node9 -->
<g id="edge20" class="edge">
<title>Node13&#45;&gt;Node9</title>
<path fill="none" stroke="#63b8ff" d="M951.65,-192.92C962.13,-185.02 972.54,-175.1 979.12,-163.5 1003.7,-120.2 1002.59,-58.49 1000.55,-30.75"/>
<polygon fill="#63b8ff" stroke="#63b8ff" points="950.08,-190.45 943.91,-199.06 954.11,-196.17 950.08,-190.45"/>
</g>
<!-- Node14 -->
<g id="node14" class="node">
<title>Node14</title>
<g id="a_node14"><a xlink:href="_c_c_e_8hpp.html" target="_top" xlink:title=" ">
<polygon fill="white" stroke="#666666" points="770.38,-163.5 647.88,-163.5 647.88,-133 770.38,-133 770.38,-163.5"/>
<text text-anchor="start" x="655.88" y="-150" font-family="Helvetica,sans-Serif" font-size="10.00">include/NNFSCore/Loss</text>
<text text-anchor="middle" x="709.12" y="-138.75" font-family="Helvetica,sans-Serif" font-size="10.00">/CCE.hpp</text>
</a>
</g>
</g>
<!-- Node13&#45;&gt;Node14 -->
<g id="edge15" class="edge">
<title>Node13&#45;&gt;Node14</title>
<path fill="none" stroke="#63b8ff" d="M858.69,-195.85C826.4,-185.79 786.58,-173.39 756.15,-163.9"/>
<polygon fill="#63b8ff" stroke="#63b8ff" points="857.31,-199.4 867.89,-199.03 859.39,-192.72 857.31,-199.4"/>
</g>
<!-- Node13&#45;&gt;Node15 -->
<g id="edge18" class="edge">
<title>Node13&#45;&gt;Node15</title>
<path fill="none" stroke="#63b8ff" d="M912.58,-188.38C911.42,-180.05 910.17,-171.08 909.16,-163.83"/>
<polygon fill="#63b8ff" stroke="#63b8ff" points="909.23,-188.69 914.08,-198.11 916.17,-187.73 909.23,-188.69"/>
</g>
<!-- Node14&#45;&gt;Node8 -->
<g id="edge16" class="edge">
<title>Node14&#45;&gt;Node8</title>
<path fill="none" stroke="#63b8ff" d="M709.12,-121.88C709.12,-113.55 709.12,-104.58 709.12,-97.33"/>
<polygon fill="#63b8ff" stroke="#63b8ff" points="705.63,-121.61 709.12,-131.61 712.63,-121.61 705.63,-121.61"/>
</g>
<!-- Node14&#45;&gt;Node10 -->
<g id="edge17" class="edge">
<title>Node14&#45;&gt;Node10</title>
<path fill="none" stroke="#63b8ff" d="M670.44,-126.76C658.82,-118.88 647.07,-108.87 639.12,-97 623.99,-74.38 620.85,-41.14 620.24,-25.3"/>
<polygon fill="#63b8ff" stroke="#63b8ff" points="668.34,-130.2 678.65,-132.62 672.09,-124.3 668.34,-130.2"/>
</g>
<!-- Node15&#45;&gt;Node9 -->
<g id="edge19" class="edge">
<title>Node15&#45;&gt;Node9</title>
<path fill="none" stroke="#63b8ff" d="M923.49,-123.95C942.43,-96.98 973.03,-53.4 988.88,-30.83"/>
<polygon fill="#63b8ff" stroke="#63b8ff" points="920.21,-121.54 917.32,-131.73 925.93,-125.56 920.21,-121.54"/>
</g>
<!-- Node16&#45;&gt;Node9 -->
<g id="edge23" class="edge">
<title>Node16&#45;&gt;Node9</title>
<path fill="none" stroke="#63b8ff" d="M1273.71,-194.88C1256.34,-187.3 1238.58,-177.06 1225.12,-163.5 1191.91,-130.02 1217.86,-97.27 1182.12,-66.5 1149.04,-38.02 1101.18,-25.56 1062.7,-20.17"/>
<polygon fill="#63b8ff" stroke="#63b8ff" points="1272.28,-198.49 1282.86,-199.05 1274.93,-192.01 1272.28,-198.49"/>
</g>
<!-- Node17 -->
<g id="node17" class="node">
<title>Node17</title>
<g id="a_node17"><a xlink:href="_adagrad_8hpp.html" target="_top" xlink:title=" ">
<polygon fill="white" stroke="#666666" points="1536.12,-163.5 1394.12,-163.5 1394.12,-133 1536.12,-133 1536.12,-163.5"/>
<text text-anchor="start" x="1402.12" y="-150" font-family="Helvetica,sans-Serif" font-size="10.00">include/NNFSCore/Optimizer</text>
<text text-anchor="middle" x="1465.12" y="-138.75" font-family="Helvetica,sans-Serif" font-size="10.00">/Adagrad.hpp</text>
</a>
</g>
</g>
<!-- Node16&#45;&gt;Node17 -->
<g id="edge24" class="edge">
<title>Node16&#45;&gt;Node17</title>
<path fill="none" stroke="#63b8ff" d="M1375.23,-194.2C1394.77,-184.43 1418.01,-172.81 1435.97,-163.83"/>
<polygon fill="#63b8ff" stroke="#63b8ff" points="1373.78,-191.51 1366.4,-199.11 1376.91,-197.77 1373.78,-191.51"/>
</g>
<!-- Node18 -->
<g id="node18" class="node">
<title>Node18</title>
<g id="a_node18"><a xlink:href="_adam_8hpp.html" target="_top" xlink:title=" ">
<polygon fill="white" stroke="#666666" points="1696.12,-163.5 1554.12,-163.5 1554.12,-133 1696.12,-133 1696.12,-163.5"/>
<text text-anchor="start" x="1562.12" y="-150" font-family="Helvetica,sans-Serif" font-size="10.00">include/NNFSCore/Optimizer</text>
<text text-anchor="middle" x="1625.12" y="-138.75" font-family="Helvetica,sans-Serif" font-size="10.00">/Adam.hpp</text>
</a>
</g>
</g>
<!-- Node16&#45;&gt;Node18 -->
<g id="edge25" class="edge">
<title>Node16&#45;&gt;Node18</title>
<path fill="none" stroke="#63b8ff" d="M1412.53,-196.7C1458.26,-186.49 1515.79,-173.65 1559.47,-163.9"/>
<polygon fill="#63b8ff" stroke="#63b8ff" points="1412.06,-193.44 1403.07,-199.03 1413.59,-200.27 1412.06,-193.44"/>
</g>
<!-- Node19 -->
<g id="node19" class="node">
<title>Node19</title>
<g id="a_node19"><a xlink:href="_r_m_s_prop_8hpp.html" target="_top" xlink:title=" ">
<polygon fill="white" stroke="#666666" points="1856.12,-163.5 1714.12,-163.5 1714.12,-133 1856.12,-133 1856.12,-163.5"/>
<text text-anchor="start" x="1722.12" y="-150" font-family="Helvetica,sans-Serif" font-size="10.00">include/NNFSCore/Optimizer</text>
<text text-anchor="middle" x="1785.12" y="-138.75" font-family="Helvetica,sans-Serif" font-size="10.00">/RMSProp.hpp</text>
</a>
</g>
</g>
<!-- Node16&#45;&gt;Node19 -->
<g id="edge26" class="edge">
<title>Node16&#45;&gt;Node19</title>
<path fill="none" stroke="#63b8ff" d="M1418.09,-203.56C1492.96,-194.03 1606.66,-178.97 1705.12,-163.5 1708.05,-163.04 1711.04,-162.56 1714.05,-162.07"/>
<polygon fill="#63b8ff" stroke="#63b8ff" points="1417.81,-200.2 1408.34,-204.93 1418.7,-207.14 1417.81,-200.2"/>
</g>
<!-- Node20 -->
<g id="node20" class="node">
<title>Node20</title>
<g id="a_node20"><a xlink:href="_s_g_d_8hpp.html" target="_top" xlink:title=" ">
<polygon fill="white" stroke="#666666" points="1376.12,-163.5 1234.12,-163.5 1234.12,-133 1376.12,-133 1376.12,-163.5"/>
<text text-anchor="start" x="1242.12" y="-150" font-family="Helvetica,sans-Serif" font-size="10.00">include/NNFSCore/Optimizer</text>
<text text-anchor="middle" x="1305.12" y="-138.75" font-family="Helvetica,sans-Serif" font-size="10.00">/SGD.hpp</text>
</a>
</g>
</g>
<!-- Node16&#45;&gt;Node20 -->
<g id="edge27" class="edge">
<title>Node16&#45;&gt;Node20</title>
<path fill="none" stroke="#63b8ff" d="M1324.34,-189.23C1320.22,-180.66 1315.73,-171.32 1312.13,-163.83"/>
<polygon fill="#63b8ff" stroke="#63b8ff" points="1321.6,-190.62 1329.09,-198.11 1327.91,-187.58 1321.6,-190.62"/>
</g>
<!-- Node22&#45;&gt;Node9 -->
<g id="edge33" class="edge">
<title>Node22&#45;&gt;Node9</title>
<path fill="none" stroke="#63b8ff" d="M1168.12,-321.29C1168.12,-294.9 1168.12,-252.43 1168.12,-215.75 1168.12,-215.75 1168.12,-215.75 1168.12,-147.25 1168.12,-86 1097.92,-49.28 1048.01,-30.92"/>
<polygon fill="#63b8ff" stroke="#63b8ff" points="1164.63,-321.21 1168.12,-331.21 1171.63,-321.21 1164.63,-321.21"/>
</g>
<!-- Node23 -->
<g id="node23" class="node">
<title>Node23</title>
<g id="a_node23"><a xlink:href="test__metrics_8cpp.html" target="_top" xlink:title=" ">
<polygon fill="white" stroke="#666666" points="1308.5,-290.88 1195.75,-290.88 1195.75,-271.62 1308.5,-271.62 1308.5,-290.88"/>
<text text-anchor="middle" x="1252.12" y="-277.38" font-family="Helvetica,sans-Serif" font-size="10.00">tests/test_metrics.cpp</text>
</a>
</g>
</g>
<!-- Node22&#45;&gt;Node23 -->
<g id="edge34" class="edge">
<title>Node22&#45;&gt;Node23</title>
<path fill="none" stroke="#63b8ff" d="M1195.76,-325.53C1211.01,-313.82 1229.14,-299.9 1240.64,-291.07"/>
<polygon fill="#63b8ff" stroke="#63b8ff" points="1193.99,-323.25 1188.19,-332.11 1198.25,-328.8 1193.99,-323.25"/>
</g>
</g>
</svg>
