<?xml version="1.0" encoding="UTF-8" standalone="no"?>
<!DOCTYPE svg PUBLIC "-//W3C//DTD SVG 1.1//EN"
 "http://www.w3.org/Graphics/SVG/1.1/DTD/svg11.dtd">
<!-- Generated by graphviz version 8.0.2 (20230410.1723)
 -->
<!-- Title: include/NNFSCore Pages: 1 -->
<svg width="360pt" height="204pt"
 viewBox="0.00 0.00 360.00 204.00" xmlns="http://www.w3.org/2000/svg" xmlns:xlink="http://www.w3.org/1999/xlink">
<g id="graph0" class="graph" transform="scale(1 1) rotate(0) translate(4 200)">
<title>include/NNFSCore</title>
<g id="clust1" class="cluster">
<title>clusterdir_d44c64559bbebec7f509842c48db8b23</title>
<g id="a_clust1"><a xlink:href="dir_d44c64559bbebec7f509842c48db8b23.html" target="_top" xlink:title="include">
<polygon fill="#daedff" stroke="#404040" stroke-dasharray="5,2" points="8,-8 8,-188 344,-188 344,-8 8,-8"/>
<text text-anchor="middle" x="176" y="-176" font-family="Helvetica,sans-Serif" font-size="10.00">include</text>
</a>
</g>
</g>
<g id="clust2" class="cluster">
<title>clusterdir_b83ee6e98edabda9ce26bff501159cde</title>
<g id="a_clust2"><a xlink:href="dir_b83ee6e98edabda9ce26bff501159cde.html" target="_top">
<polygon fill="#daedff" stroke="#404040" stroke-width="2" points="16,-16 16,-161 336,-161 336,-16 16,-16"/>
</a>
</g>
</g>
<!-- dir_b83ee6e98edabda9ce26bff501159cde -->
<g id="node1" class="node">
<title>dir_b83ee6e98edabda9ce26bff501159cde</title>
<text text-anchor="middle" x="281" y="-141" font-family="Helvetica,sans-Serif" font-size="10.00">NNFSCore</text>
</g>
<!-- dir_201cb20a8b2f7377cbbd09d4dd7052b4 -->
<g id="node2" class="node">
<title>dir_201cb20a8b2f7377cbbd09d4dd7052b4</title>
<g id="a_node2"><a xlink:href="dir_201cb20a8b2f7377cbbd09d4dd7052b4.html" target="_top" xlink:title="Activation">
<polygon fill="#4ea9ff" stroke="#404040" points="84,-98 24,-98 24,-79 84,-79 84,-98"/>
<text text-anchor="middle" x="54" y="-86" font-family="Helvetica,sans-Serif" font-size="10.00">Activation</text>
</a>
</g>
</g>
<!-- dir_74c82c2a03cdaa1e4aed5eb39bb1a636 -->
<g id="node4" class="node">
<title>dir_74c82c2a03cdaa1e4aed5eb39bb1a636</title>
<g id="a_node4"><a xlink:href="dir_74c82c2a03cdaa1e4aed5eb39bb1a636.html" target="_top" xlink:title="Common">
<polygon fill="#4ea9ff" stroke="#404040" points="82,-43 26,-43 26,-24 82,-24 82,-43"/>
<text text-anchor="middle" x="54" y="-31" font-family="Helvetica,sans-Serif" font-size="10.00">Common</text>
</a>
</g>
</g>
<!-- dir_201cb20a8b2f7377cbbd09d4dd7052b4&#45;&gt;dir_74c82c2a03cdaa1e4aed5eb39bb1a636 -->
<g id="edge1" class="edge">
<title>dir_201cb20a8b2f7377cbbd09d4dd7052b4&#45;&gt;dir_74c82c2a03cdaa1e4aed5eb39bb1a636</title>
<path fill="none" stroke="#63b8ff" d="M54,-78.75C54,-72.11 54,-62.73 54,-54.31"/>
<polygon fill="#63b8ff" stroke="#63b8ff" points="57.5,-54.44 54,-44.44 50.5,-54.44 57.5,-54.44"/>
<g id="a_edge1&#45;headlabel"><a xlink:href="dir_000000_000002.html" target="_top" xlink:title="1">
<text text-anchor="middle" x="60.34" y="-54.54" font-family="Helvetica,sans-Serif" font-size="10.00" fill="#63b8ff">1</text>
</a>
</g>
</g>
<!-- dir_679677e8dfef9bc7f4ca0f5616a35919 -->
<g id="node3" class="node">
<title>dir_679677e8dfef9bc7f4ca0f5616a35919</title>
<g id="a_node3"><a xlink:href="dir_679677e8dfef9bc7f4ca0f5616a35919.html" target="_top" xlink:title="Callback">
<polygon fill="#4ea9ff" stroke="#404040" points="156,-98 102,-98 102,-79 156,-79 156,-98"/>
<text text-anchor="middle" x="129" y="-86" font-family="Helvetica,sans-Serif" font-size="10.00">Callback</text>
</a>
</g>
</g>
<!-- dir_0122ab7167139957223f7cfcb3da127b -->
<g id="node5" class="node">
<title>dir_0122ab7167139957223f7cfcb3da127b</title>
<g id="a_node5"><a xlink:href="dir_0122ab7167139957223f7cfcb3da127b.html" target="_top" xlink:title="Layer">
<polygon fill="#4ea9ff" stroke="#404040" points="215.5,-98 174.5,-98 174.5,-79 215.5,-79 215.5,-98"/>
<text text-anchor="middle" x="195" y="-86" font-family="Helvetica,sans-Serif" font-size="10.00">Layer</text>
</a>
</g>
</g>
<!-- dir_3f817c6e3071a82219b2b11cb2fded89 -->
<g id="node6" class="node">
<title>dir_3f817c6e3071a82219b2b11cb2fded89</title>
<g id="a_node6"><a xlink:href="dir_3f817c6e3071a82219b2b11cb2fded89.html" target="_top" xlink:title="Loss">
<polygon fill="#4ea9ff" stroke="#404040" points="272,-98 234,-98 234,-79 272,-79 272,-98"/>
<text text-anchor="middle" x="253" y="-86" font-family="Helvetica,sans-Serif" font-size="10.00">Loss</text>
</a>
</g>
</g>
<!-- dir_d8c8d72af92371d312f55c54616af8a3 -->
<g id="node7" class="node">
<title>dir_d8c8d72af92371d312f55c54616af8a3</title>
<g id="a_node7"><a xlink:href="dir_d8c8d72af92371d312f55c54616af8a3.html" target="_top" xlink:title="Model">
<polygon fill="#4ea9ff" stroke="#404040" points="216.5,-153 173.5,-153 173.5,-134 216.5,-134 216.5,-153"/>
<text text-anchor="middle" x="195" y="-141" font-family="Helvetica,sans-Serif" font-size="10.00">Model</text>
</a>
</g>
</g>
<!-- dir_d8c8d72af92371d312f55c54616af8a3&#45;&gt;dir_201cb20a8b2f7377cbbd09d4dd7052b4 -->
<g id="edge3" class="edge">
<title>dir_d8c8d72af92371d312f55c54616af8a3&#45;&gt;dir_201cb20a8b2f7377cbbd09d4dd7052b4</title>
<path fill="none" stroke="#63b8ff" d="M173.28,-134.33C150.5,-125.77 114.4,-112.2 87.87,-102.23"/>
<polygon fill="#63b8ff" stroke="#63b8ff" points="89.46,-98.71 78.87,-98.47 87,-105.27 89.46,-98.71"/>
<g id="a_edge3&#45;headlabel"><a xlink:href="dir_000006_000000.html" target="_top" xlink:title="2">
<text text-anchor="middle" x="92.83" y="-94.82" font-family="Helvetica,sans-Serif" font-size="10.00" fill="#63b8ff">2</text>
</a>
</g>
</g>
<!-- dir_d8c8d72af92371d312f55c54616af8a3&#45;&gt;dir_679677e8dfef9bc7f4ca0f5616a35919 -->
<g id="edge5" class="edge">
<title>dir_d8c8d72af92371d312f55c54616af8a3&#45;&gt;dir_679677e8dfef9bc7f4ca0f5616a35919</title>
<path fill="none" stroke="#63b8ff" d="M183.8,-133.51C174.17,-125.77 160.05,-114.43 148.55,-105.2"/>
<polygon fill="#63b8ff" stroke="#63b8ff" points="151.02,-101.89 141.03,-98.36 146.64,-107.35 151.02,-101.89"/>
<g id="a_edge5&#45;headlabel"><a xlink:href="dir_000006_000001.html" target="_top" xlink:title="1">
<text text-anchor="middle" x="154.6" y="-99.43" font-family="Helvetica,sans-Serif" font-size="10.00" fill="#63b8ff">1</text>
</a>
</g>
</g>
<!-- dir_d8c8d72af92371d312f55c54616af8a3&#45;&gt;dir_0122ab7167139957223f7cfcb3da127b -->
<g id="edge2" class="edge">
<title>dir_d8c8d72af92371d312f55c54616af8a3&#45;&gt;dir_0122ab7167139957223f7cfcb3da127b</title>
<path fill="none" stroke="#63b8ff" d="M195,-133.75C195,-127.11 195,-117.73 195,-109.31"/>
<polygon fill="#63b8ff" stroke="#63b8ff" points="198.5,-109.44 195,-99.44 191.5,-109.44 198.5,-109.44"/>
<g id="a_edge2&#45;headlabel"><a xlink:href="dir_000006_000004.html" target="_top" xlink:title="2">
<text text-anchor="middle" x="201.34" y="-109.54" font-family="Helvetica,sans-Serif" font-size="10.00" fill="#63b8ff">2</text>
</a>
</g>
</g>
<!-- dir_d8c8d72af92371d312f55c54616af8a3&#45;&gt;dir_3f817c6e3071a82219b2b11cb2fded89 -->
<g id="edge4" class="edge">
<title>dir_d8c8d72af92371d312f55c54616af8a3&#45;&gt;dir_3f817c6e3071a82219b2b11cb2fded89</title>
<path fill="none" stroke="#63b8ff" d="M204.84,-133.51C213.14,-125.93 225.23,-114.88 235.22,-105.75"/>
<polygon fill="#63b8ff" stroke="#63b8ff" points="237.29,-108.69 242.31,-99.36 232.56,-103.52 237.29,-108.69"/>
<g id="a_edge4&#45;headlabel"><a xlink:href="dir_000006_000005.html" target="_top" xlink:title="2">
<text text-anchor="middle" x="237.55" y="-109.71" font-family="Helvetica,sans-Serif" font-size="10.00" fill="#63b8ff">2</text>
</a>
</g>
</g>
<!-- dir_f1335659ee664ff8766a532faaea479e -->
<g id="node8" class="node">
<title>dir_f1335659ee664ff8766a532faaea479e</title>
<g id="a_node8"><a xlink:href="dir_f1335659ee664ff8766a532faaea479e.html" target="_top" xlink:title="Utils">
<polygon fill="#4ea9ff" stroke="#404040" points="327.5,-98 290.5,-98 290.5,-79 327.5,-79 327.5,-98"/>
<text text-anchor="middle" x="309" y="-86" font-family="Helvetica,sans-Serif" font-size="10.00">Utils</text>
</a>
</g>
</g>
<!-- dir_d8c8d72af92371d312f55c54616af8a3&#45;&gt;dir_f1335659ee664ff8766a532faaea479e -->
<g id="edge6" class="edge">
<title>dir_d8c8d72af92371d312f55c54616af8a3&#45;&gt;dir_f1335659ee664ff8766a532faaea479e</title>
<path fill="none" stroke="#63b8ff" d="M214.34,-133.51C232.49,-125.07 259.86,-112.34 280.51,-102.74"/>
<polygon fill="#63b8ff" stroke="#63b8ff" points="281.73,-105.57 289.32,-98.18 278.78,-99.22 281.73,-105.57"/>
<g id="a_edge6&#45;headlabel"><a xlink:href="dir_000006_000009.html" target="_top" xlink:title="1">
<text text-anchor="middle" x="280.67" y="-107.16" font-family="Helvetica,sans-Serif" font-size="10.00" fill="#63b8ff">1</text>
</a>
</g>
</g>
</g>
</svg>
