<?xml version="1.0" encoding="UTF-8" standalone="no"?>
<!DOCTYPE svg PUBLIC "-//W3C//DTD SVG 1.1//EN"
 "http://www.w3.org/Graphics/SVG/1.1/DTD/svg11.dtd">
<!-- Generated by graphviz version 8.0.1 (20230327.1645)
 -->
<!-- Title: include/NNFSCore Pages: 1 -->
<svg width="304pt" height="204pt"
 viewBox="0.00 0.00 304.00 204.00" xmlns="http://www.w3.org/2000/svg" xmlns:xlink="http://www.w3.org/1999/xlink">
<g id="graph0" class="graph" transform="scale(1 1) rotate(0) translate(4 200)">
<title>include/NNFSCore</title>
<g id="clust1" class="cluster">
<title>clusterdir_d44c64559bbebec7f509842c48db8b23</title>
<g id="a_clust1"><a xlink:href="dir_d44c64559bbebec7f509842c48db8b23.html" target="_top" xlink:title="include">
<polygon fill="#daedff" stroke="#404040" stroke-dasharray="5,2" points="8,-8 8,-188 288,-188 288,-8 8,-8"/>
<text text-anchor="middle" x="148" y="-176" font-family="Helvetica,sans-Serif" font-size="10.00">include</text>
</a>
</g>
</g>
<g id="clust2" class="cluster">
<title>clusterdir_b83ee6e98edabda9ce26bff501159cde</title>
<g id="a_clust2"><a xlink:href="dir_b83ee6e98edabda9ce26bff501159cde.html" target="_top">
<polygon fill="#daedff" stroke="#404040" stroke-width="2" points="16,-16 16,-161 280,-161 280,-16 16,-16"/>
</a>
</g>
</g>
<!-- dir_b83ee6e98edabda9ce26bff501159cde -->
<g id="node1" class="node">
<title>dir_b83ee6e98edabda9ce26bff501159cde</title>
<text text-anchor="middle" x="229" y="-141" font-family="Helvetica,sans-Serif" font-size="10.00">NNFSCore</text>
</g>
<!-- dir_201cb20a8b2f7377cbbd09d4dd7052b4 -->
<g id="node2" class="node">
<title>dir_201cb20a8b2f7377cbbd09d4dd7052b4</title>
<g id="a_node2"><a xlink:href="dir_201cb20a8b2f7377cbbd09d4dd7052b4.html" target="_top" xlink:title="Activation">
<polygon fill="#4ea9ff" stroke="#404040" points="84,-98 24,-98 24,-79 84,-79 84,-98"/>
<text text-anchor="middle" x="54" y="-86" font-family="Helvetica,sans-Serif" font-size="10.00">Activation</text>
</a>
</g>
</g>
<!-- dir_74c82c2a03cdaa1e4aed5eb39bb1a636 -->
<g id="node4" class="node">
<title>dir_74c82c2a03cdaa1e4aed5eb39bb1a636</title>
<g id="a_node4"><a xlink:href="dir_74c82c2a03cdaa1e4aed5eb39bb1a636.html" target="_top" xlink:title="Common">
<polygon fill="#4ea9ff" stroke="#404040" points="82,-43 26,-43 26,-24 82,-24 82,-43"/>
<text text-anchor="middle" x="54" y="-31" font-family="Helvetica,sans-Serif" font-size="10.00">Common</text>
</a>
</g>
</g>
<!-- dir_201cb20a8b2f7377cbbd09d4dd7052b4&#45;&gt;dir_74c82c2a03cdaa1e4aed5eb39bb1a636 -->
<g id="edge1" class="edge">
<title>dir_201cb20a8b2f7377cbbd09d4dd7052b4&#45;&gt;dir_74c82c2a03cdaa1e4aed5eb39bb1a636</title>
<path fill="none" stroke="#63b8ff" d="M54,-78.75C54,-72.11 54,-62.73 54,-54.31"/>
<polygon fill="#63b8ff" stroke="#63b8ff" points="57.5,-54.44 54,-44.44 50.5,-54.44 57.5,-54.44"/>
<g id="a_edge1&#45;headlabel"><a xlink:href="dir_000000_000002.html" target="_top" xlink:title="1">
<text text-anchor="middle" x="60.34" y="-54.54" font-family="Helvetica,sans-Serif" font-size="10.00" fill="#63b8ff">1</text>
</a>
</g>
</g>
<!-- dir_679677e8dfef9bc7f4ca0f5616a35919 -->
<g id="node3" class="node">
<title>dir_679677e8dfef9bc7f4ca0f5616a35919</title>
<g id="a_node3"><a xlink:href="dir_679677e8dfef9bc7f4ca0f5616a35919.html" target="_top" xlink:title="Callback">
<polygon fill="#4ea9ff" stroke="#404040" points="156,-98 102,-98 102,-79 156,-79 156,-98"/>
<text text-anchor="middle" x="129" y="-86" font-family="Helvetica,sans-Serif" font-size="10.00">Callback</text>
</a>
</g>
</g>
<!-- dir_0122ab7167139957223f7cfcb3da127b -->
<g id="node5" class="node">
<title>dir_0122ab7167139957223f7cfcb3da127b</title>
<g id="a_node5"><a xlink:href="dir_0122ab7167139957223f7cfcb3da127b.html" target="_top" xlink:title="Layer">
<polygon fill="#4ea9ff" stroke="#404040" points="215.5,-98 174.5,-98 174.5,-79 215.5,-79 215.5,-98"/>
<text text-anchor="middle" x="195" y="-86" font-family="Helvetica,sans-Serif" font-size="10.00">Layer</text>
</a>
</g>
</g>
<!-- dir_3f817c6e3071a82219b2b11cb2fded89 -->
<g id="node6" class="node">
<title>dir_3f817c6e3071a82219b2b11cb2fded89</title>
<g id="a_node6"><a xlink:href="dir_3f817c6e3071a82219b2b11cb2fded89.html" target="_top" xlink:title="Loss">
<polygon fill="#4ea9ff" stroke="#404040" points="272,-98 234,-98 234,-79 272,-79 272,-98"/>
<text text-anchor="middle" x="253" y="-86" font-family="Helvetica,sans-Serif" font-size="10.00">Loss</text>
</a>
</g>
</g>
<!-- dir_d8c8d72af92371d312f55c54616af8a3 -->
<g id="node7" class="node">
<title>dir_d8c8d72af92371d312f55c54616af8a3</title>
<g id="a_node7"><a xlink:href="dir_d8c8d72af92371d312f55c54616af8a3.html" target="_top" xlink:title="Model">
<polygon fill="#4ea9ff" stroke="#404040" points="159.5,-153 116.5,-153 116.5,-134 159.5,-134 159.5,-153"/>
<text text-anchor="middle" x="138" y="-141" font-family="Helvetica,sans-Serif" font-size="10.00">Model</text>
</a>
</g>
</g>
<!-- dir_d8c8d72af92371d312f55c54616af8a3&#45;&gt;dir_201cb20a8b2f7377cbbd09d4dd7052b4 -->
<g id="edge3" class="edge">
<title>dir_d8c8d72af92371d312f55c54616af8a3&#45;&gt;dir_201cb20a8b2f7377cbbd09d4dd7052b4</title>
<path fill="none" stroke="#63b8ff" d="M123.75,-133.51C111,-125.47 92.08,-113.53 77.16,-104.11"/>
<polygon fill="#63b8ff" stroke="#63b8ff" points="79.36,-100.73 69.04,-98.36 75.63,-106.65 79.36,-100.73"/>
<g id="a_edge3&#45;headlabel"><a xlink:href="dir_000006_000000.html" target="_top" xlink:title="2">
<text text-anchor="middle" x="82.92" y="-97.75" font-family="Helvetica,sans-Serif" font-size="10.00" fill="#63b8ff">2</text>
</a>
</g>
</g>
<!-- dir_d8c8d72af92371d312f55c54616af8a3&#45;&gt;dir_679677e8dfef9bc7f4ca0f5616a35919 -->
<g id="edge5" class="edge">
<title>dir_d8c8d72af92371d312f55c54616af8a3&#45;&gt;dir_679677e8dfef9bc7f4ca0f5616a35919</title>
<path fill="none" stroke="#63b8ff" d="M136.51,-133.75C135.37,-127.04 133.76,-117.52 132.32,-109.02"/>
<polygon fill="#63b8ff" stroke="#63b8ff" points="135.64,-108.71 130.52,-99.44 128.74,-109.89 135.64,-108.71"/>
<g id="a_edge5&#45;headlabel"><a xlink:href="dir_000006_000001.html" target="_top" xlink:title="1">
<text text-anchor="middle" x="139.04" y="-108.28" font-family="Helvetica,sans-Serif" font-size="10.00" fill="#63b8ff">1</text>
</a>
</g>
</g>
<!-- dir_d8c8d72af92371d312f55c54616af8a3&#45;&gt;dir_0122ab7167139957223f7cfcb3da127b -->
<g id="edge2" class="edge">
<title>dir_d8c8d72af92371d312f55c54616af8a3&#45;&gt;dir_0122ab7167139957223f7cfcb3da127b</title>
<path fill="none" stroke="#63b8ff" d="M147.67,-133.51C155.83,-125.93 167.71,-114.88 177.52,-105.75"/>
<polygon fill="#63b8ff" stroke="#63b8ff" points="179.53,-108.73 184.47,-99.36 174.77,-103.6 179.53,-108.73"/>
<g id="a_edge2&#45;headlabel"><a xlink:href="dir_000006_000004.html" target="_top" xlink:title="2">
<text text-anchor="middle" x="179.83" y="-109.76" font-family="Helvetica,sans-Serif" font-size="10.00" fill="#63b8ff">2</text>
</a>
</g>
</g>
<!-- dir_d8c8d72af92371d312f55c54616af8a3&#45;&gt;dir_3f817c6e3071a82219b2b11cb2fded89 -->
<g id="edge4" class="edge">
<title>dir_d8c8d72af92371d312f55c54616af8a3&#45;&gt;dir_3f817c6e3071a82219b2b11cb2fded89</title>
<path fill="none" stroke="#63b8ff" d="M157.51,-133.51C175.71,-125.12 203.1,-112.5 223.89,-102.92"/>
<polygon fill="#63b8ff" stroke="#63b8ff" points="225.16,-105.72 232.78,-98.36 222.23,-99.36 225.16,-105.72"/>
<g id="a_edge4&#45;headlabel"><a xlink:href="dir_000006_000005.html" target="_top" xlink:title="2">
<text text-anchor="middle" x="224.09" y="-107.31" font-family="Helvetica,sans-Serif" font-size="10.00" fill="#63b8ff">2</text>
</a>
</g>
</g>
</g>
</svg>
