<?xml version="1.0" encoding="UTF-8" standalone="no"?>
<!DOCTYPE svg PUBLIC "-//W3C//DTD SVG 1.1//EN"
 "http://www.w3.org/Graphics/SVG/1.1/DTD/svg11.dtd">
<!-- Generated by graphviz version 8.0.1 (20230327.1645)
 -->
<!-- Title: include/NNFSCore/Model Pages: 1 -->
<svg width="288pt" height="133pt"
 viewBox="0.00 0.00 288.00 133.00" xmlns="http://www.w3.org/2000/svg" xmlns:xlink="http://www.w3.org/1999/xlink">
<g id="graph0" class="graph" transform="scale(1 1) rotate(0) translate(4 129)">
<title>include/NNFSCore/Model</title>
<g id="clust1" class="cluster">
<title>clusterdir_b83ee6e98edabda9ce26bff501159cde</title>
<g id="a_clust1"><a xlink:href="dir_b83ee6e98edabda9ce26bff501159cde.html" target="_top" xlink:title="NNFSCore">
<polygon fill="#daedff" stroke="#7f7f7f" stroke-dasharray="5,2" points="8,-8 8,-117 272,-117 272,-8 8,-8"/>
<text text-anchor="middle" x="140" y="-105" font-family="Helvetica,sans-Serif" font-size="10.00">NNFSCore</text>
</a>
</g>
</g>
<!-- dir_0122ab7167139957223f7cfcb3da127b -->
<g id="node1" class="node">
<title>dir_0122ab7167139957223f7cfcb3da127b</title>
<g id="a_node1"><a xlink:href="dir_0122ab7167139957223f7cfcb3da127b.html" target="_top" xlink:title="Layer">
<polygon fill="#4ea9ff" stroke="#404040" points="57.5,-35 16.5,-35 16.5,-16 57.5,-16 57.5,-35"/>
<text text-anchor="middle" x="37" y="-23" font-family="Helvetica,sans-Serif" font-size="10.00">Layer</text>
</a>
</g>
</g>
<!-- dir_201cb20a8b2f7377cbbd09d4dd7052b4 -->
<g id="node2" class="node">
<title>dir_201cb20a8b2f7377cbbd09d4dd7052b4</title>
<g id="a_node2"><a xlink:href="dir_201cb20a8b2f7377cbbd09d4dd7052b4.html" target="_top" xlink:title="Activation">
<polygon fill="#4ea9ff" stroke="#404040" points="136,-35 76,-35 76,-16 136,-16 136,-35"/>
<text text-anchor="middle" x="106" y="-23" font-family="Helvetica,sans-Serif" font-size="10.00">Activation</text>
</a>
</g>
</g>
<!-- dir_3f817c6e3071a82219b2b11cb2fded89 -->
<g id="node3" class="node">
<title>dir_3f817c6e3071a82219b2b11cb2fded89</title>
<g id="a_node3"><a xlink:href="dir_3f817c6e3071a82219b2b11cb2fded89.html" target="_top" xlink:title="Loss">
<polygon fill="#4ea9ff" stroke="#404040" points="192,-35 154,-35 154,-16 192,-16 192,-35"/>
<text text-anchor="middle" x="173" y="-23" font-family="Helvetica,sans-Serif" font-size="10.00">Loss</text>
</a>
</g>
</g>
<!-- dir_679677e8dfef9bc7f4ca0f5616a35919 -->
<g id="node4" class="node">
<title>dir_679677e8dfef9bc7f4ca0f5616a35919</title>
<g id="a_node4"><a xlink:href="dir_679677e8dfef9bc7f4ca0f5616a35919.html" target="_top" xlink:title="Callback">
<polygon fill="#4ea9ff" stroke="#404040" points="264,-35 210,-35 210,-16 264,-16 264,-35"/>
<text text-anchor="middle" x="237" y="-23" font-family="Helvetica,sans-Serif" font-size="10.00">Callback</text>
</a>
</g>
</g>
<!-- dir_d8c8d72af92371d312f55c54616af8a3 -->
<g id="node5" class="node">
<title>dir_d8c8d72af92371d312f55c54616af8a3</title>
<g id="a_node5"><a xlink:href="dir_d8c8d72af92371d312f55c54616af8a3.html" target="_top" xlink:title="Model">
<polygon fill="#daedff" stroke="#404040" stroke-width="2" points="160.5,-90 117.5,-90 117.5,-71 160.5,-71 160.5,-90"/>
<text text-anchor="middle" x="139" y="-78" font-family="Helvetica,sans-Serif" font-size="10.00">Model</text>
</a>
</g>
</g>
<!-- dir_d8c8d72af92371d312f55c54616af8a3&#45;&gt;dir_0122ab7167139957223f7cfcb3da127b -->
<g id="edge1" class="edge">
<title>dir_d8c8d72af92371d312f55c54616af8a3&#45;&gt;dir_0122ab7167139957223f7cfcb3da127b</title>
<path fill="none" stroke="#63b8ff" d="M121.7,-70.51C105.78,-62.24 81.92,-49.84 63.58,-40.31"/>
<polygon fill="#63b8ff" stroke="#63b8ff" points="65.53,-36.86 55.05,-35.36 62.31,-43.07 65.53,-36.86"/>
<g id="a_edge1&#45;headlabel"><a xlink:href="dir_000006_000004.html" target="_top" xlink:title="2">
<text text-anchor="middle" x="69.03" y="-33.5" font-family="Helvetica,sans-Serif" font-size="10.00" fill="#63b8ff">2</text>
</a>
</g>
</g>
<!-- dir_d8c8d72af92371d312f55c54616af8a3&#45;&gt;dir_201cb20a8b2f7377cbbd09d4dd7052b4 -->
<g id="edge2" class="edge">
<title>dir_d8c8d72af92371d312f55c54616af8a3&#45;&gt;dir_201cb20a8b2f7377cbbd09d4dd7052b4</title>
<path fill="none" stroke="#63b8ff" d="M133.55,-70.75C129.13,-63.66 122.76,-53.42 117.26,-44.59"/>
<polygon fill="#63b8ff" stroke="#63b8ff" points="119.82,-43.08 111.57,-36.44 113.88,-46.78 119.82,-43.08"/>
<g id="a_edge2&#45;headlabel"><a xlink:href="dir_000006_000000.html" target="_top" xlink:title="2">
<text text-anchor="middle" x="124.13" y="-41.13" font-family="Helvetica,sans-Serif" font-size="10.00" fill="#63b8ff">2</text>
</a>
</g>
</g>
<!-- dir_d8c8d72af92371d312f55c54616af8a3&#45;&gt;dir_3f817c6e3071a82219b2b11cb2fded89 -->
<g id="edge3" class="edge">
<title>dir_d8c8d72af92371d312f55c54616af8a3&#45;&gt;dir_3f817c6e3071a82219b2b11cb2fded89</title>
<path fill="none" stroke="#63b8ff" d="M144.61,-70.75C149.16,-63.66 155.73,-53.42 161.4,-44.59"/>
<polygon fill="#63b8ff" stroke="#63b8ff" points="164.81,-46.75 167.26,-36.44 158.92,-42.97 164.81,-46.75"/>
<g id="a_edge3&#45;headlabel"><a xlink:href="dir_000006_000005.html" target="_top" xlink:title="2">
<text text-anchor="middle" x="165.26" y="-47.81" font-family="Helvetica,sans-Serif" font-size="10.00" fill="#63b8ff">2</text>
</a>
</g>
</g>
<!-- dir_d8c8d72af92371d312f55c54616af8a3&#45;&gt;dir_679677e8dfef9bc7f4ca0f5616a35919 -->
<g id="edge4" class="edge">
<title>dir_d8c8d72af92371d312f55c54616af8a3&#45;&gt;dir_679677e8dfef9bc7f4ca0f5616a35919</title>
<path fill="none" stroke="#63b8ff" d="M155.62,-70.51C170.78,-62.31 193.42,-50.07 210.97,-40.58"/>
<polygon fill="#63b8ff" stroke="#63b8ff" points="212.49,-43.19 219.62,-35.36 209.16,-37.04 212.49,-43.19"/>
<g id="a_edge4&#45;headlabel"><a xlink:href="dir_000006_000001.html" target="_top" xlink:title="1">
<text text-anchor="middle" x="211.68" y="-44.9" font-family="Helvetica,sans-Serif" font-size="10.00" fill="#63b8ff">1</text>
</a>
</g>
</g>
</g>
</svg>
