<?xml version="1.0" encoding="UTF-8" standalone="no"?>
<!DOCTYPE svg PUBLIC "-//W3C//DTD SVG 1.1//EN"
 "http://www.w3.org/Graphics/SVG/1.1/DTD/svg11.dtd">
<!-- Generated by graphviz version 8.0.5 (20230430.1635)
 -->
<!-- Title: include/NNFSCore/Model Pages: 1 -->
<svg width="278pt" height="134pt"
 viewBox="0.00 0.00 278.00 133.75" xmlns="http://www.w3.org/2000/svg" xmlns:xlink="http://www.w3.org/1999/xlink">
<g id="graph0" class="graph" transform="scale(1 1) rotate(0) translate(4 129.75)">
<title>include/NNFSCore/Model</title>
<g id="clust1" class="cluster">
<title>clusterdir_b83ee6e98edabda9ce26bff501159cde</title>
<g id="a_clust1"><a xlink:href="dir_b83ee6e98edabda9ce26bff501159cde.html" target="_top" xlink:title="NNFSCore">
<polygon fill="#daedff" stroke="#7f7f7f" stroke-dasharray="5,2" points="8,-8 8,-117.75 262,-117.75 262,-8 8,-8"/>
<text text-anchor="middle" x="135" y="-104.25" font-family="Helvetica,sans-Serif" font-size="10.00">NNFSCore</text>
</a>
</g>
</g>
<!-- dir_0122ab7167139957223f7cfcb3da127b -->
<g id="node1" class="node">
<title>dir_0122ab7167139957223f7cfcb3da127b</title>
<g id="a_node1"><a xlink:href="dir_0122ab7167139957223f7cfcb3da127b.html" target="_top" xlink:title="Layer">
<polygon fill="#4ea9ff" stroke="#404040" points="56,-35.25 16,-35.25 16,-16 56,-16 56,-35.25"/>
<text text-anchor="middle" x="36" y="-21.75" font-family="Helvetica,sans-Serif" font-size="10.00">Layer</text>
</a>
</g>
</g>
<!-- dir_181a440b4f40bf377717c504ededbb7a -->
<g id="node2" class="node">
<title>dir_181a440b4f40bf377717c504ededbb7a</title>
<g id="a_node2"><a xlink:href="dir_181a440b4f40bf377717c504ededbb7a.html" target="_top" xlink:title="Metrics">
<polygon fill="#4ea9ff" stroke="#404040" points="122.12,-35.25 73.88,-35.25 73.88,-16 122.12,-16 122.12,-35.25"/>
<text text-anchor="middle" x="98" y="-21.75" font-family="Helvetica,sans-Serif" font-size="10.00">Metrics</text>
</a>
</g>
</g>
<!-- dir_3f817c6e3071a82219b2b11cb2fded89 -->
<g id="node3" class="node">
<title>dir_3f817c6e3071a82219b2b11cb2fded89</title>
<g id="a_node3"><a xlink:href="dir_3f817c6e3071a82219b2b11cb2fded89.html" target="_top" xlink:title="Loss">
<polygon fill="#4ea9ff" stroke="#404040" points="177.88,-35.25 140.12,-35.25 140.12,-16 177.88,-16 177.88,-35.25"/>
<text text-anchor="middle" x="159" y="-21.75" font-family="Helvetica,sans-Serif" font-size="10.00">Loss</text>
</a>
</g>
</g>
<!-- dir_6158402e19ce394dc9fd746184496139 -->
<g id="node4" class="node">
<title>dir_6158402e19ce394dc9fd746184496139</title>
<g id="a_node4"><a xlink:href="dir_6158402e19ce394dc9fd746184496139.html" target="_top" xlink:title="Optimizer">
<polygon fill="#4ea9ff" stroke="#404040" points="253.62,-35.25 196.38,-35.25 196.38,-16 253.62,-16 253.62,-35.25"/>
<text text-anchor="middle" x="225" y="-21.75" font-family="Helvetica,sans-Serif" font-size="10.00">Optimizer</text>
</a>
</g>
</g>
<!-- dir_d8c8d72af92371d312f55c54616af8a3 -->
<g id="node5" class="node">
<title>dir_d8c8d72af92371d312f55c54616af8a3</title>
<g id="a_node5"><a xlink:href="dir_d8c8d72af92371d312f55c54616af8a3.html" target="_top" xlink:title="Model">
<polygon fill="#daedff" stroke="#404040" stroke-width="2" points="149.12,-90.5 106.88,-90.5 106.88,-71.25 149.12,-71.25 149.12,-90.5"/>
<text text-anchor="middle" x="128" y="-77" font-family="Helvetica,sans-Serif" font-size="10.00">Model</text>
</a>
</g>
</g>
<!-- dir_d8c8d72af92371d312f55c54616af8a3&#45;&gt;dir_0122ab7167139957223f7cfcb3da127b -->
<g id="edge1" class="edge">
<title>dir_d8c8d72af92371d312f55c54616af8a3&#45;&gt;dir_0122ab7167139957223f7cfcb3da127b</title>
<path fill="none" stroke="#63b8ff" d="M112.39,-70.84C98.38,-62.73 77.57,-50.68 61.2,-41.21"/>
<polygon fill="#63b8ff" stroke="#63b8ff" points="63.09,-37.68 52.68,-35.7 59.58,-43.74 63.09,-37.68"/>
<g id="a_edge1&#45;headlabel"><a xlink:href="dir_000005_000002.html" target="_top" xlink:title="3">
<text text-anchor="middle" x="66.62" y="-33.15" font-family="Helvetica,sans-Serif" font-size="10.00" fill="#63b8ff">3</text>
</a>
</g>
</g>
<!-- dir_d8c8d72af92371d312f55c54616af8a3&#45;&gt;dir_181a440b4f40bf377717c504ededbb7a -->
<g id="edge2" class="edge">
<title>dir_d8c8d72af92371d312f55c54616af8a3&#45;&gt;dir_181a440b4f40bf377717c504ededbb7a</title>
<path fill="none" stroke="#63b8ff" d="M123.05,-71.08C119.07,-64.03 113.36,-53.9 108.4,-45.08"/>
<polygon fill="#63b8ff" stroke="#63b8ff" points="111.02,-43.6 103.06,-36.61 104.92,-47.04 111.02,-43.6"/>
<g id="a_edge2&#45;headlabel"><a xlink:href="dir_000005_000004.html" target="_top" xlink:title="1">
<text text-anchor="middle" x="115.26" y="-40.47" font-family="Helvetica,sans-Serif" font-size="10.00" fill="#63b8ff">1</text>
</a>
</g>
</g>
<!-- dir_d8c8d72af92371d312f55c54616af8a3&#45;&gt;dir_3f817c6e3071a82219b2b11cb2fded89 -->
<g id="edge3" class="edge">
<title>dir_d8c8d72af92371d312f55c54616af8a3&#45;&gt;dir_3f817c6e3071a82219b2b11cb2fded89</title>
<path fill="none" stroke="#63b8ff" d="M133.12,-71.08C137.22,-64.03 143.12,-53.9 148.25,-45.08"/>
<polygon fill="#63b8ff" stroke="#63b8ff" points="151.76,-47.01 153.77,-36.61 145.71,-43.49 151.76,-47.01"/>
<g id="a_edge3&#45;headlabel"><a xlink:href="dir_000005_000003.html" target="_top" xlink:title="3">
<text text-anchor="middle" x="152.41" y="-46.67" font-family="Helvetica,sans-Serif" font-size="10.00" fill="#63b8ff">3</text>
</a>
</g>
</g>
<!-- dir_d8c8d72af92371d312f55c54616af8a3&#45;&gt;dir_6158402e19ce394dc9fd746184496139 -->
<g id="edge4" class="edge">
<title>dir_d8c8d72af92371d312f55c54616af8a3&#45;&gt;dir_6158402e19ce394dc9fd746184496139</title>
<path fill="none" stroke="#63b8ff" d="M144.45,-70.84C159.37,-62.66 181.59,-50.46 198.92,-40.94"/>
<polygon fill="#63b8ff" stroke="#63b8ff" points="200.38,-43.58 207.46,-35.7 197.01,-37.45 200.38,-43.58"/>
<g id="a_edge4&#45;headlabel"><a xlink:href="dir_000005_000007.html" target="_top" xlink:title="1">
<text text-anchor="middle" x="199.6" y="-43.93" font-family="Helvetica,sans-Serif" font-size="10.00" fill="#63b8ff">1</text>
</a>
</g>
</g>
</g>
</svg>
