<?xml version="1.0" encoding="UTF-8" standalone="no"?>
<!DOCTYPE svg PUBLIC "-//W3C//DTD SVG 1.1//EN"
 "http://www.w3.org/Graphics/SVG/1.1/DTD/svg11.dtd">
<!-- Generated by graphviz version 8.0.5 (20230430.1635)
 -->
<!-- Title: include/NNFSCore/Model Pages: 1 -->
<svg width="356pt" height="134pt"
 viewBox="0.00 0.00 356.00 133.75" xmlns="http://www.w3.org/2000/svg" xmlns:xlink="http://www.w3.org/1999/xlink">
<g id="graph0" class="graph" transform="scale(1 1) rotate(0) translate(4 129.75)">
<title>include/NNFSCore/Model</title>
<g id="clust1" class="cluster">
<title>clusterdir_b83ee6e98edabda9ce26bff501159cde</title>
<g id="a_clust1"><a xlink:href="dir_b83ee6e98edabda9ce26bff501159cde.html" target="_top" xlink:title="NNFSCore">
<polygon fill="#daedff" stroke="#7f7f7f" stroke-dasharray="5,2" points="8,-8 8,-117.75 340,-117.75 340,-8 8,-8"/>
<text text-anchor="middle" x="174" y="-104.25" font-family="Helvetica,sans-Serif" font-size="10.00">NNFSCore</text>
</a>
</g>
</g>
<!-- dir_0122ab7167139957223f7cfcb3da127b -->
<g id="node1" class="node">
<title>dir_0122ab7167139957223f7cfcb3da127b</title>
<g id="a_node1"><a xlink:href="dir_0122ab7167139957223f7cfcb3da127b.html" target="_top" xlink:title="Layer">
<polygon fill="#4ea9ff" stroke="#404040" points="56,-35.25 16,-35.25 16,-16 56,-16 56,-35.25"/>
<text text-anchor="middle" x="36" y="-21.75" font-family="Helvetica,sans-Serif" font-size="10.00">Layer</text>
</a>
</g>
</g>
<!-- dir_181a440b4f40bf377717c504ededbb7a -->
<g id="node2" class="node">
<title>dir_181a440b4f40bf377717c504ededbb7a</title>
<g id="a_node2"><a xlink:href="dir_181a440b4f40bf377717c504ededbb7a.html" target="_top" xlink:title="Metrics">
<polygon fill="#4ea9ff" stroke="#404040" points="122.12,-35.25 73.88,-35.25 73.88,-16 122.12,-16 122.12,-35.25"/>
<text text-anchor="middle" x="98" y="-21.75" font-family="Helvetica,sans-Serif" font-size="10.00">Metrics</text>
</a>
</g>
</g>
<!-- dir_201cb20a8b2f7377cbbd09d4dd7052b4 -->
<g id="node3" class="node">
<title>dir_201cb20a8b2f7377cbbd09d4dd7052b4</title>
<g id="a_node3"><a xlink:href="dir_201cb20a8b2f7377cbbd09d4dd7052b4.html" target="_top" xlink:title="Activation">
<polygon fill="#4ea9ff" stroke="#404040" points="199.75,-35.25 140.25,-35.25 140.25,-16 199.75,-16 199.75,-35.25"/>
<text text-anchor="middle" x="170" y="-21.75" font-family="Helvetica,sans-Serif" font-size="10.00">Activation</text>
</a>
</g>
</g>
<!-- dir_3f817c6e3071a82219b2b11cb2fded89 -->
<g id="node4" class="node">
<title>dir_3f817c6e3071a82219b2b11cb2fded89</title>
<g id="a_node4"><a xlink:href="dir_3f817c6e3071a82219b2b11cb2fded89.html" target="_top" xlink:title="Loss">
<polygon fill="#4ea9ff" stroke="#404040" points="255.88,-35.25 218.12,-35.25 218.12,-16 255.88,-16 255.88,-35.25"/>
<text text-anchor="middle" x="237" y="-21.75" font-family="Helvetica,sans-Serif" font-size="10.00">Loss</text>
</a>
</g>
</g>
<!-- dir_6158402e19ce394dc9fd746184496139 -->
<g id="node5" class="node">
<title>dir_6158402e19ce394dc9fd746184496139</title>
<g id="a_node5"><a xlink:href="dir_6158402e19ce394dc9fd746184496139.html" target="_top" xlink:title="Optimizer">
<polygon fill="#4ea9ff" stroke="#404040" points="331.62,-35.25 274.38,-35.25 274.38,-16 331.62,-16 331.62,-35.25"/>
<text text-anchor="middle" x="303" y="-21.75" font-family="Helvetica,sans-Serif" font-size="10.00">Optimizer</text>
</a>
</g>
</g>
<!-- dir_d8c8d72af92371d312f55c54616af8a3 -->
<g id="node6" class="node">
<title>dir_d8c8d72af92371d312f55c54616af8a3</title>
<g id="a_node6"><a xlink:href="dir_d8c8d72af92371d312f55c54616af8a3.html" target="_top" xlink:title="Model">
<polygon fill="#daedff" stroke="#404040" stroke-width="2" points="191.12,-90.5 148.88,-90.5 148.88,-71.25 191.12,-71.25 191.12,-90.5"/>
<text text-anchor="middle" x="170" y="-77" font-family="Helvetica,sans-Serif" font-size="10.00">Model</text>
</a>
</g>
</g>
<!-- dir_d8c8d72af92371d312f55c54616af8a3&#45;&gt;dir_0122ab7167139957223f7cfcb3da127b -->
<g id="edge1" class="edge">
<title>dir_d8c8d72af92371d312f55c54616af8a3&#45;&gt;dir_0122ab7167139957223f7cfcb3da127b</title>
<path fill="none" stroke="#63b8ff" d="M148.47,-71.32C126.2,-62.47 91.24,-48.58 66.21,-38.63"/>
<polygon fill="#63b8ff" stroke="#63b8ff" points="67.75,-35.08 57.16,-34.64 65.16,-41.58 67.75,-35.08"/>
<g id="a_edge1&#45;headlabel"><a xlink:href="dir_000005_000002.html" target="_top" xlink:title="3">
<text text-anchor="middle" x="71.14" y="-29.89" font-family="Helvetica,sans-Serif" font-size="10.00" fill="#63b8ff">3</text>
</a>
</g>
</g>
<!-- dir_d8c8d72af92371d312f55c54616af8a3&#45;&gt;dir_181a440b4f40bf377717c504ededbb7a -->
<g id="edge2" class="edge">
<title>dir_d8c8d72af92371d312f55c54616af8a3&#45;&gt;dir_181a440b4f40bf377717c504ededbb7a</title>
<path fill="none" stroke="#63b8ff" d="M157.79,-70.84C147.07,-62.91 131.26,-51.22 118.59,-41.85"/>
<polygon fill="#63b8ff" stroke="#63b8ff" points="121.15,-38.66 111.03,-35.52 116.99,-44.29 121.15,-38.66"/>
<g id="a_edge2&#45;headlabel"><a xlink:href="dir_000005_000004.html" target="_top" xlink:title="1">
<text text-anchor="middle" x="124.73" y="-34.64" font-family="Helvetica,sans-Serif" font-size="10.00" fill="#63b8ff">1</text>
</a>
</g>
</g>
<!-- dir_d8c8d72af92371d312f55c54616af8a3&#45;&gt;dir_201cb20a8b2f7377cbbd09d4dd7052b4 -->
<g id="edge3" class="edge">
<title>dir_d8c8d72af92371d312f55c54616af8a3&#45;&gt;dir_201cb20a8b2f7377cbbd09d4dd7052b4</title>
<path fill="none" stroke="#63b8ff" d="M170,-71.08C170,-64.42 170,-54.99 170,-46.53"/>
<polygon fill="#63b8ff" stroke="#63b8ff" points="173.5,-46.61 170,-36.61 166.5,-46.61 173.5,-46.61"/>
<g id="a_edge3&#45;headlabel"><a xlink:href="dir_000005_000000.html" target="_top" xlink:title="5">
<text text-anchor="middle" x="176.34" y="-45.33" font-family="Helvetica,sans-Serif" font-size="10.00" fill="#63b8ff">5</text>
</a>
</g>
</g>
<!-- dir_d8c8d72af92371d312f55c54616af8a3&#45;&gt;dir_3f817c6e3071a82219b2b11cb2fded89 -->
<g id="edge4" class="edge">
<title>dir_d8c8d72af92371d312f55c54616af8a3&#45;&gt;dir_3f817c6e3071a82219b2b11cb2fded89</title>
<path fill="none" stroke="#63b8ff" d="M181.37,-70.84C191.24,-62.99 205.77,-51.45 217.5,-42.12"/>
<polygon fill="#63b8ff" stroke="#63b8ff" points="219.15,-44.49 224.8,-35.52 214.8,-39.01 219.15,-44.49"/>
<g id="a_edge4&#45;headlabel"><a xlink:href="dir_000005_000003.html" target="_top" xlink:title="3">
<text text-anchor="middle" x="219.1" y="-45.07" font-family="Helvetica,sans-Serif" font-size="10.00" fill="#63b8ff">3</text>
</a>
</g>
</g>
<!-- dir_d8c8d72af92371d312f55c54616af8a3&#45;&gt;dir_6158402e19ce394dc9fd746184496139 -->
<g id="edge5" class="edge">
<title>dir_d8c8d72af92371d312f55c54616af8a3&#45;&gt;dir_6158402e19ce394dc9fd746184496139</title>
<path fill="none" stroke="#63b8ff" d="M191.37,-71.32C212.7,-62.78 245.76,-49.54 270.38,-39.69"/>
<polygon fill="#63b8ff" stroke="#63b8ff" points="271.37,-42.66 279.35,-35.69 268.76,-36.16 271.37,-42.66"/>
<g id="a_edge5&#45;headlabel"><a xlink:href="dir_000005_000007.html" target="_top" xlink:title="1">
<text text-anchor="middle" x="270.08" y="-42.76" font-family="Helvetica,sans-Serif" font-size="10.00" fill="#63b8ff">1</text>
</a>
</g>
</g>
</g>
</svg>
