<?xml version="1.0" encoding="UTF-8" standalone="no"?>
<!DOCTYPE svg PUBLIC "-//W3C//DTD SVG 1.1//EN"
 "http://www.w3.org/Graphics/SVG/1.1/DTD/svg11.dtd">
<!-- Generated by graphviz version 8.0.5 (20230430.1635)
 -->
<!-- Title: include/NNFS Pages: 1 -->
<svg width="272pt" height="316pt"
 viewBox="0.00 0.00 272.00 315.50" xmlns="http://www.w3.org/2000/svg" xmlns:xlink="http://www.w3.org/1999/xlink">
<g id="graph0" class="graph" transform="scale(1 1) rotate(0) translate(4 311.5)">
<title>include/NNFS</title>
<g id="clust1" class="cluster">
<title>clusterdir_d44c64559bbebec7f509842c48db8b23</title>
<g id="a_clust1"><a xlink:href="dir_d44c64559bbebec7f509842c48db8b23.html" target="_top" xlink:title="include">
<polygon fill="#daedff" stroke="#404040" stroke-dasharray="5,2" points="8,-8 8,-299.5 256,-299.5 256,-8 8,-8"/>
<text text-anchor="middle" x="132" y="-286" font-family="Helvetica,sans-Serif" font-size="10.00">include</text>
</a>
</g>
</g>
<g id="clust2" class="cluster">
<title>clusterdir_e35bf39e4fee933b811e79d0e6a4be13</title>
<g id="a_clust2"><a xlink:href="dir_e35bf39e4fee933b811e79d0e6a4be13.html" target="_top">
<polygon fill="#daedff" stroke="#404040" stroke-width="2" points="16,-16 16,-272.25 248,-272.25 248,-16 16,-16"/>
</a>
</g>
</g>
<!-- dir_e35bf39e4fee933b811e79d0e6a4be13 -->
<g id="node1" class="node">
<title>dir_e35bf39e4fee933b811e79d0e6a4be13</title>
<text text-anchor="middle" x="201" y="-250.75" font-family="Helvetica,sans-Serif" font-size="10.00">NNFS</text>
</g>
<!-- dir_f91851ebe417a4290e9501cde2dd92eb -->
<g id="node2" class="node">
<title>dir_f91851ebe417a4290e9501cde2dd92eb</title>
<g id="a_node2"><a xlink:href="dir_f91851ebe417a4290e9501cde2dd92eb.html" target="_top" xlink:title="Activation">
<polygon fill="#4ea9ff" stroke="#404040" points="103.75,-153.75 44.25,-153.75 44.25,-134.5 103.75,-134.5 103.75,-153.75"/>
<text text-anchor="middle" x="74" y="-140.25" font-family="Helvetica,sans-Serif" font-size="10.00">Activation</text>
</a>
</g>
</g>
<!-- dir_3a9a457dd738f8359b23794ac54febc2 -->
<g id="node3" class="node">
<title>dir_3a9a457dd738f8359b23794ac54febc2</title>
<g id="a_node3"><a xlink:href="dir_3a9a457dd738f8359b23794ac54febc2.html" target="_top" xlink:title="Layer">
<polygon fill="#4ea9ff" stroke="#404040" points="124,-98.5 84,-98.5 84,-79.25 124,-79.25 124,-98.5"/>
<text text-anchor="middle" x="104" y="-85" font-family="Helvetica,sans-Serif" font-size="10.00">Layer</text>
</a>
</g>
</g>
<!-- dir_f91851ebe417a4290e9501cde2dd92eb&#45;&gt;dir_3a9a457dd738f8359b23794ac54febc2 -->
<g id="edge1" class="edge">
<title>dir_f91851ebe417a4290e9501cde2dd92eb&#45;&gt;dir_3a9a457dd738f8359b23794ac54febc2</title>
<path fill="none" stroke="#63b8ff" d="M78.95,-134.33C82.93,-127.28 88.64,-117.15 93.6,-108.33"/>
<polygon fill="#63b8ff" stroke="#63b8ff" points="97.08,-110.29 98.94,-99.86 90.98,-106.85 97.08,-110.29"/>
<g id="a_edge1&#45;headlabel"><a xlink:href="dir_000000_000002.html" target="_top" xlink:title="1">
<text text-anchor="middle" x="97.79" y="-109.94" font-family="Helvetica,sans-Serif" font-size="10.00" fill="#63b8ff">1</text>
</a>
</g>
</g>
<!-- dir_295e4e05b8ccbcd64e1a69f23761d5de -->
<g id="node8" class="node">
<title>dir_295e4e05b8ccbcd64e1a69f23761d5de</title>
<g id="a_node8"><a xlink:href="dir_295e4e05b8ccbcd64e1a69f23761d5de.html" target="_top" xlink:title="Utilities">
<polygon fill="#4ea9ff" stroke="#404040" points="179.5,-43.25 130.5,-43.25 130.5,-24 179.5,-24 179.5,-43.25"/>
<text text-anchor="middle" x="155" y="-29.75" font-family="Helvetica,sans-Serif" font-size="10.00">Utilities</text>
</a>
</g>
</g>
<!-- dir_3a9a457dd738f8359b23794ac54febc2&#45;&gt;dir_295e4e05b8ccbcd64e1a69f23761d5de -->
<g id="edge2" class="edge">
<title>dir_3a9a457dd738f8359b23794ac54febc2&#45;&gt;dir_295e4e05b8ccbcd64e1a69f23761d5de</title>
<path fill="none" stroke="#63b8ff" d="M112.42,-79.08C119.61,-71.57 130.16,-60.56 138.95,-51.38"/>
<polygon fill="#63b8ff" stroke="#63b8ff" points="141.01,-54.25 145.4,-44.61 135.95,-49.41 141.01,-54.25"/>
<g id="a_edge2&#45;headlabel"><a xlink:href="dir_000002_000009.html" target="_top" xlink:title="1">
<text text-anchor="middle" x="141.57" y="-53.94" font-family="Helvetica,sans-Serif" font-size="10.00" fill="#63b8ff">1</text>
</a>
</g>
</g>
<!-- dir_e99af487b026c86d86835b5ed873e7bc -->
<g id="node4" class="node">
<title>dir_e99af487b026c86d86835b5ed873e7bc</title>
<g id="a_node4"><a xlink:href="dir_e99af487b026c86d86835b5ed873e7bc.html" target="_top" xlink:title="Loss">
<polygon fill="#4ea9ff" stroke="#404040" points="141.88,-209 104.12,-209 104.12,-189.75 141.88,-189.75 141.88,-209"/>
<text text-anchor="middle" x="123" y="-195.5" font-family="Helvetica,sans-Serif" font-size="10.00">Loss</text>
</a>
</g>
</g>
<!-- dir_e99af487b026c86d86835b5ed873e7bc&#45;&gt;dir_f91851ebe417a4290e9501cde2dd92eb -->
<g id="edge5" class="edge">
<title>dir_e99af487b026c86d86835b5ed873e7bc&#45;&gt;dir_f91851ebe417a4290e9501cde2dd92eb</title>
<path fill="none" stroke="#63b8ff" d="M114.91,-189.58C108.07,-182.15 98.07,-171.29 89.68,-162.16"/>
<polygon fill="#63b8ff" stroke="#63b8ff" points="92.61,-160.1 83.27,-155.11 87.46,-164.84 92.61,-160.1"/>
<g id="a_edge5&#45;headlabel"><a xlink:href="dir_000003_000000.html" target="_top" xlink:title="1">
<text text-anchor="middle" x="96.14" y="-155.95" font-family="Helvetica,sans-Serif" font-size="10.00" fill="#63b8ff">1</text>
</a>
</g>
</g>
<!-- dir_e99af487b026c86d86835b5ed873e7bc&#45;&gt;dir_3a9a457dd738f8359b23794ac54febc2 -->
<g id="edge4" class="edge">
<title>dir_e99af487b026c86d86835b5ed873e7bc&#45;&gt;dir_3a9a457dd738f8359b23794ac54febc2</title>
<path fill="none" stroke="#63b8ff" d="M121.7,-189.26C119.9,-176.84 116.48,-153.95 113,-134.5 111.52,-126.23 109.72,-117.14 108.12,-109.33"/>
<polygon fill="#63b8ff" stroke="#63b8ff" points="111.38,-108.82 105.91,-99.74 104.52,-110.25 111.38,-108.82"/>
<g id="a_edge4&#45;headlabel"><a xlink:href="dir_000003_000002.html" target="_top" xlink:title="1">
<text text-anchor="middle" x="114.89" y="-106.88" font-family="Helvetica,sans-Serif" font-size="10.00" fill="#63b8ff">1</text>
</a>
</g>
</g>
<!-- dir_e99af487b026c86d86835b5ed873e7bc&#45;&gt;dir_295e4e05b8ccbcd64e1a69f23761d5de -->
<g id="edge3" class="edge">
<title>dir_e99af487b026c86d86835b5ed873e7bc&#45;&gt;dir_295e4e05b8ccbcd64e1a69f23761d5de</title>
<path fill="none" stroke="#63b8ff" d="M124.72,-189.57C129.71,-164.03 144.29,-89.45 151.23,-53.9"/>
<polygon fill="#63b8ff" stroke="#63b8ff" points="154.79,-54.96 153.27,-44.47 147.92,-53.62 154.79,-54.96"/>
<g id="a_edge3&#45;headlabel"><a xlink:href="dir_000003_000009.html" target="_top" xlink:title="1">
<text text-anchor="middle" x="156.89" y="-54.16" font-family="Helvetica,sans-Serif" font-size="10.00" fill="#63b8ff">1</text>
</a>
</g>
</g>
<!-- dir_03668986811a328da6e127c8b00cd083 -->
<g id="node5" class="node">
<title>dir_03668986811a328da6e127c8b00cd083</title>
<g id="a_node5"><a xlink:href="dir_03668986811a328da6e127c8b00cd083.html" target="_top" xlink:title="Metrics">
<polygon fill="#4ea9ff" stroke="#404040" points="237.12,-98.5 188.88,-98.5 188.88,-79.25 237.12,-79.25 237.12,-98.5"/>
<text text-anchor="middle" x="213" y="-85" font-family="Helvetica,sans-Serif" font-size="10.00">Metrics</text>
</a>
</g>
</g>
<!-- dir_03668986811a328da6e127c8b00cd083&#45;&gt;dir_295e4e05b8ccbcd64e1a69f23761d5de -->
<g id="edge6" class="edge">
<title>dir_03668986811a328da6e127c8b00cd083&#45;&gt;dir_295e4e05b8ccbcd64e1a69f23761d5de</title>
<path fill="none" stroke="#63b8ff" d="M203.16,-78.84C194.86,-71.22 182.77,-60.12 172.78,-50.95"/>
<polygon fill="#63b8ff" stroke="#63b8ff" points="175.43,-48.71 165.69,-44.52 170.69,-53.87 175.43,-48.71"/>
<g id="a_edge6&#45;headlabel"><a xlink:href="dir_000004_000009.html" target="_top" xlink:title="1">
<text text-anchor="middle" x="179" y="-44.17" font-family="Helvetica,sans-Serif" font-size="10.00" fill="#63b8ff">1</text>
</a>
</g>
</g>
<!-- dir_a9a0d096714d1b7bc26a819d9f04f360 -->
<g id="node6" class="node">
<title>dir_a9a0d096714d1b7bc26a819d9f04f360</title>
<g id="a_node6"><a xlink:href="dir_a9a0d096714d1b7bc26a819d9f04f360.html" target="_top" xlink:title="Model">
<polygon fill="#4ea9ff" stroke="#404040" points="144.12,-264.25 101.88,-264.25 101.88,-245 144.12,-245 144.12,-264.25"/>
<text text-anchor="middle" x="123" y="-250.75" font-family="Helvetica,sans-Serif" font-size="10.00">Model</text>
</a>
</g>
</g>
<!-- dir_a9a0d096714d1b7bc26a819d9f04f360&#45;&gt;dir_f91851ebe417a4290e9501cde2dd92eb -->
<g id="edge11" class="edge">
<title>dir_a9a0d096714d1b7bc26a819d9f04f360&#45;&gt;dir_f91851ebe417a4290e9501cde2dd92eb</title>
<path fill="none" stroke="#63b8ff" d="M116.53,-244.76C110.37,-236.01 101.14,-222.08 95,-209 88.24,-194.6 82.72,-177.43 79.05,-164.52"/>
<polygon fill="#63b8ff" stroke="#63b8ff" points="82.2,-163.79 76.2,-155.06 75.45,-165.63 82.2,-163.79"/>
<g id="a_edge11&#45;headlabel"><a xlink:href="dir_000005_000000.html" target="_top" xlink:title="5">
<text text-anchor="middle" x="85.89" y="-161.64" font-family="Helvetica,sans-Serif" font-size="10.00" fill="#63b8ff">5</text>
</a>
</g>
</g>
<!-- dir_a9a0d096714d1b7bc26a819d9f04f360&#45;&gt;dir_3a9a457dd738f8359b23794ac54febc2 -->
<g id="edge8" class="edge">
<title>dir_a9a0d096714d1b7bc26a819d9f04f360&#45;&gt;dir_3a9a457dd738f8359b23794ac54febc2</title>
<path fill="none" stroke="#63b8ff" d="M110.56,-244.59C90.11,-228.86 50.13,-194.23 35,-153.75 32,-145.74 30.91,-142.01 35,-134.5 43.31,-119.23 59.35,-108.38 73.87,-101.21"/>
<polygon fill="#63b8ff" stroke="#63b8ff" points="74.9,-104.13 82.57,-96.82 72.01,-97.76 74.9,-104.13"/>
<g id="a_edge8&#45;headlabel"><a xlink:href="dir_000005_000002.html" target="_top" xlink:title="3">
<text text-anchor="middle" x="73.79" y="-104.33" font-family="Helvetica,sans-Serif" font-size="10.00" fill="#63b8ff">3</text>
</a>
</g>
</g>
<!-- dir_a9a0d096714d1b7bc26a819d9f04f360&#45;&gt;dir_e99af487b026c86d86835b5ed873e7bc -->
<g id="edge10" class="edge">
<title>dir_a9a0d096714d1b7bc26a819d9f04f360&#45;&gt;dir_e99af487b026c86d86835b5ed873e7bc</title>
<path fill="none" stroke="#63b8ff" d="M123,-244.83C123,-238.17 123,-228.74 123,-220.28"/>
<polygon fill="#63b8ff" stroke="#63b8ff" points="126.5,-220.36 123,-210.36 119.5,-220.36 126.5,-220.36"/>
<g id="a_edge10&#45;headlabel"><a xlink:href="dir_000005_000003.html" target="_top" xlink:title="3">
<text text-anchor="middle" x="129.34" y="-219.08" font-family="Helvetica,sans-Serif" font-size="10.00" fill="#63b8ff">3</text>
</a>
</g>
</g>
<!-- dir_a9a0d096714d1b7bc26a819d9f04f360&#45;&gt;dir_03668986811a328da6e127c8b00cd083 -->
<g id="edge7" class="edge">
<title>dir_a9a0d096714d1b7bc26a819d9f04f360&#45;&gt;dir_03668986811a328da6e127c8b00cd083</title>
<path fill="none" stroke="#63b8ff" d="M139.06,-244.5C163.87,-229.37 210.56,-196.46 229,-153.75 235.3,-139.15 230.04,-121.57 223.91,-108.55"/>
<polygon fill="#63b8ff" stroke="#63b8ff" points="226.56,-107.06 218.8,-99.85 220.36,-110.33 226.56,-107.06"/>
<g id="a_edge7&#45;headlabel"><a xlink:href="dir_000005_000004.html" target="_top" xlink:title="1">
<text text-anchor="middle" x="230.74" y="-104.04" font-family="Helvetica,sans-Serif" font-size="10.00" fill="#63b8ff">1</text>
</a>
</g>
</g>
<!-- dir_dc6bd0b194df736e276328fb2fb40902 -->
<g id="node7" class="node">
<title>dir_dc6bd0b194df736e276328fb2fb40902</title>
<g id="a_node7"><a xlink:href="dir_dc6bd0b194df736e276328fb2fb40902.html" target="_top" xlink:title="Optimizer">
<polygon fill="#4ea9ff" stroke="#404040" points="219.62,-153.75 162.38,-153.75 162.38,-134.5 219.62,-134.5 219.62,-153.75"/>
<text text-anchor="middle" x="191" y="-140.25" font-family="Helvetica,sans-Serif" font-size="10.00">Optimizer</text>
</a>
</g>
</g>
<!-- dir_a9a0d096714d1b7bc26a819d9f04f360&#45;&gt;dir_dc6bd0b194df736e276328fb2fb40902 -->
<g id="edge9" class="edge">
<title>dir_a9a0d096714d1b7bc26a819d9f04f360&#45;&gt;dir_dc6bd0b194df736e276328fb2fb40902</title>
<path fill="none" stroke="#63b8ff" d="M128.58,-244.74C134.23,-235.73 143.23,-221.4 151,-209 160.65,-193.6 171.6,-176.11 179.6,-163.33"/>
<polygon fill="#63b8ff" stroke="#63b8ff" points="182.97,-165.56 185.31,-155.22 177.03,-161.84 182.97,-165.56"/>
<g id="a_edge9&#45;headlabel"><a xlink:href="dir_000005_000007.html" target="_top" xlink:title="1">
<text text-anchor="middle" x="183.47" y="-165.24" font-family="Helvetica,sans-Serif" font-size="10.00" fill="#63b8ff">1</text>
</a>
</g>
</g>
<!-- dir_dc6bd0b194df736e276328fb2fb40902&#45;&gt;dir_3a9a457dd738f8359b23794ac54febc2 -->
<g id="edge13" class="edge">
<title>dir_dc6bd0b194df736e276328fb2fb40902&#45;&gt;dir_3a9a457dd738f8359b23794ac54febc2</title>
<path fill="none" stroke="#63b8ff" d="M176.24,-134.09C162.99,-125.98 143.31,-113.93 127.83,-104.46"/>
<polygon fill="#63b8ff" stroke="#63b8ff" points="130.19,-101.19 119.83,-98.95 126.53,-107.16 130.19,-101.19"/>
<g id="a_edge13&#45;headlabel"><a xlink:href="dir_000007_000002.html" target="_top" xlink:title="1">
<text text-anchor="middle" x="133.74" y="-96.77" font-family="Helvetica,sans-Serif" font-size="10.00" fill="#63b8ff">1</text>
</a>
</g>
</g>
<!-- dir_dc6bd0b194df736e276328fb2fb40902&#45;&gt;dir_295e4e05b8ccbcd64e1a69f23761d5de -->
<g id="edge12" class="edge">
<title>dir_dc6bd0b194df736e276328fb2fb40902&#45;&gt;dir_295e4e05b8ccbcd64e1a69f23761d5de</title>
<path fill="none" stroke="#63b8ff" d="M188.05,-134.25C182.25,-116.76 169.23,-77.52 161.37,-53.84"/>
<polygon fill="#63b8ff" stroke="#63b8ff" points="164.46,-53.02 157.99,-44.63 157.81,-55.22 164.46,-53.02"/>
<g id="a_edge12&#45;headlabel"><a xlink:href="dir_000007_000009.html" target="_top" xlink:title="1">
<text text-anchor="middle" x="168.28" y="-50.66" font-family="Helvetica,sans-Serif" font-size="10.00" fill="#63b8ff">1</text>
</a>
</g>
</g>
</g>
</svg>
