<?xml version="1.0" encoding="UTF-8" standalone="no"?>
<!DOCTYPE svg PUBLIC "-//W3C//DTD SVG 1.1//EN"
 "http://www.w3.org/Graphics/SVG/1.1/DTD/svg11.dtd">
<!-- Generated by graphviz version 8.0.5 (20230430.1635)
 -->
<!-- Title: include/NNFS/Model Pages: 1 -->
<svg width="356pt" height="134pt"
 viewBox="0.00 0.00 356.00 133.75" xmlns="http://www.w3.org/2000/svg" xmlns:xlink="http://www.w3.org/1999/xlink">
<g id="graph0" class="graph" transform="scale(1 1) rotate(0) translate(4 129.75)">
<title>include/NNFS/Model</title>
<g id="clust1" class="cluster">
<title>clusterdir_e35bf39e4fee933b811e79d0e6a4be13</title>
<g id="a_clust1"><a xlink:href="dir_e35bf39e4fee933b811e79d0e6a4be13.html" target="_top" xlink:title="NNFS">
<polygon fill="#daedff" stroke="#7f7f7f" stroke-dasharray="5,2" points="8,-8 8,-117.75 340,-117.75 340,-8 8,-8"/>
<text text-anchor="middle" x="174" y="-104.25" font-family="Helvetica,sans-Serif" font-size="10.00">NNFS</text>
</a>
</g>
</g>
<!-- dir_03668986811a328da6e127c8b00cd083 -->
<g id="node1" class="node">
<title>dir_03668986811a328da6e127c8b00cd083</title>
<g id="a_node1"><a xlink:href="dir_03668986811a328da6e127c8b00cd083.html" target="_top" xlink:title="Metrics">
<polygon fill="#4ea9ff" stroke="#404040" points="64.12,-35.25 15.88,-35.25 15.88,-16 64.12,-16 64.12,-35.25"/>
<text text-anchor="middle" x="40" y="-21.75" font-family="Helvetica,sans-Serif" font-size="10.00">Metrics</text>
</a>
</g>
</g>
<!-- dir_3a9a457dd738f8359b23794ac54febc2 -->
<g id="node2" class="node">
<title>dir_3a9a457dd738f8359b23794ac54febc2</title>
<g id="a_node2"><a xlink:href="dir_3a9a457dd738f8359b23794ac54febc2.html" target="_top" xlink:title="Layer">
<polygon fill="#4ea9ff" stroke="#404040" points="122,-35.25 82,-35.25 82,-16 122,-16 122,-35.25"/>
<text text-anchor="middle" x="102" y="-21.75" font-family="Helvetica,sans-Serif" font-size="10.00">Layer</text>
</a>
</g>
</g>
<!-- dir_dc6bd0b194df736e276328fb2fb40902 -->
<g id="node3" class="node">
<title>dir_dc6bd0b194df736e276328fb2fb40902</title>
<g id="a_node3"><a xlink:href="dir_dc6bd0b194df736e276328fb2fb40902.html" target="_top" xlink:title="Optimizer">
<polygon fill="#4ea9ff" stroke="#404040" points="197.62,-35.25 140.38,-35.25 140.38,-16 197.62,-16 197.62,-35.25"/>
<text text-anchor="middle" x="169" y="-21.75" font-family="Helvetica,sans-Serif" font-size="10.00">Optimizer</text>
</a>
</g>
</g>
<!-- dir_e99af487b026c86d86835b5ed873e7bc -->
<g id="node4" class="node">
<title>dir_e99af487b026c86d86835b5ed873e7bc</title>
<g id="a_node4"><a xlink:href="dir_e99af487b026c86d86835b5ed873e7bc.html" target="_top" xlink:title="Loss">
<polygon fill="#4ea9ff" stroke="#404040" points="253.88,-35.25 216.12,-35.25 216.12,-16 253.88,-16 253.88,-35.25"/>
<text text-anchor="middle" x="235" y="-21.75" font-family="Helvetica,sans-Serif" font-size="10.00">Loss</text>
</a>
</g>
</g>
<!-- dir_f91851ebe417a4290e9501cde2dd92eb -->
<g id="node5" class="node">
<title>dir_f91851ebe417a4290e9501cde2dd92eb</title>
<g id="a_node5"><a xlink:href="dir_f91851ebe417a4290e9501cde2dd92eb.html" target="_top" xlink:title="Activation">
<polygon fill="#4ea9ff" stroke="#404040" points="331.75,-35.25 272.25,-35.25 272.25,-16 331.75,-16 331.75,-35.25"/>
<text text-anchor="middle" x="302" y="-21.75" font-family="Helvetica,sans-Serif" font-size="10.00">Activation</text>
</a>
</g>
</g>
<!-- dir_a9a0d096714d1b7bc26a819d9f04f360 -->
<g id="node6" class="node">
<title>dir_a9a0d096714d1b7bc26a819d9f04f360</title>
<g id="a_node6"><a xlink:href="dir_a9a0d096714d1b7bc26a819d9f04f360.html" target="_top" xlink:title="Model">
<polygon fill="#daedff" stroke="#404040" stroke-width="2" points="190.12,-90.5 147.88,-90.5 147.88,-71.25 190.12,-71.25 190.12,-90.5"/>
<text text-anchor="middle" x="169" y="-77" font-family="Helvetica,sans-Serif" font-size="10.00">Model</text>
</a>
</g>
</g>
<!-- dir_a9a0d096714d1b7bc26a819d9f04f360&#45;&gt;dir_03668986811a328da6e127c8b00cd083 -->
<g id="edge1" class="edge">
<title>dir_a9a0d096714d1b7bc26a819d9f04f360&#45;&gt;dir_03668986811a328da6e127c8b00cd083</title>
<path fill="none" stroke="#63b8ff" d="M147.41,-70.96C126.79,-62.45 95.47,-49.52 71.96,-39.82"/>
<polygon fill="#63b8ff" stroke="#63b8ff" points="73.67,-36.33 63.09,-35.75 71,-42.8 73.67,-36.33"/>
<g id="a_edge1&#45;headlabel"><a xlink:href="dir_000005_000004.html" target="_top" xlink:title="1">
<text text-anchor="middle" x="77.08" y="-31.2" font-family="Helvetica,sans-Serif" font-size="10.00" fill="#63b8ff">1</text>
</a>
</g>
</g>
<!-- dir_a9a0d096714d1b7bc26a819d9f04f360&#45;&gt;dir_3a9a457dd738f8359b23794ac54febc2 -->
<g id="edge2" class="edge">
<title>dir_a9a0d096714d1b7bc26a819d9f04f360&#45;&gt;dir_3a9a457dd738f8359b23794ac54febc2</title>
<path fill="none" stroke="#63b8ff" d="M157.63,-70.84C147.76,-62.99 133.23,-51.45 121.5,-42.12"/>
<polygon fill="#63b8ff" stroke="#63b8ff" points="124.2,-39.01 114.2,-35.52 119.85,-44.49 124.2,-39.01"/>
<g id="a_edge2&#45;headlabel"><a xlink:href="dir_000005_000002.html" target="_top" xlink:title="3">
<text text-anchor="middle" x="127.78" y="-35.15" font-family="Helvetica,sans-Serif" font-size="10.00" fill="#63b8ff">3</text>
</a>
</g>
</g>
<!-- dir_a9a0d096714d1b7bc26a819d9f04f360&#45;&gt;dir_dc6bd0b194df736e276328fb2fb40902 -->
<g id="edge3" class="edge">
<title>dir_a9a0d096714d1b7bc26a819d9f04f360&#45;&gt;dir_dc6bd0b194df736e276328fb2fb40902</title>
<path fill="none" stroke="#63b8ff" d="M169,-71.08C169,-64.42 169,-54.99 169,-46.53"/>
<polygon fill="#63b8ff" stroke="#63b8ff" points="172.5,-46.61 169,-36.61 165.5,-46.61 172.5,-46.61"/>
<g id="a_edge3&#45;headlabel"><a xlink:href="dir_000005_000007.html" target="_top" xlink:title="1">
<text text-anchor="middle" x="175.34" y="-45.33" font-family="Helvetica,sans-Serif" font-size="10.00" fill="#63b8ff">1</text>
</a>
</g>
</g>
<!-- dir_a9a0d096714d1b7bc26a819d9f04f360&#45;&gt;dir_e99af487b026c86d86835b5ed873e7bc -->
<g id="edge4" class="edge">
<title>dir_a9a0d096714d1b7bc26a819d9f04f360&#45;&gt;dir_e99af487b026c86d86835b5ed873e7bc</title>
<path fill="none" stroke="#63b8ff" d="M180.2,-70.84C189.83,-63.07 203.95,-51.67 215.45,-42.4"/>
<polygon fill="#63b8ff" stroke="#63b8ff" points="217.38,-44.53 222.97,-35.52 212.99,-39.08 217.38,-44.53"/>
<g id="a_edge4&#45;headlabel"><a xlink:href="dir_000005_000003.html" target="_top" xlink:title="3">
<text text-anchor="middle" x="217.37" y="-45.12" font-family="Helvetica,sans-Serif" font-size="10.00" fill="#63b8ff">3</text>
</a>
</g>
</g>
<!-- dir_a9a0d096714d1b7bc26a819d9f04f360&#45;&gt;dir_f91851ebe417a4290e9501cde2dd92eb -->
<g id="edge5" class="edge">
<title>dir_a9a0d096714d1b7bc26a819d9f04f360&#45;&gt;dir_f91851ebe417a4290e9501cde2dd92eb</title>
<path fill="none" stroke="#63b8ff" d="M190.37,-71.32C211.7,-62.78 244.76,-49.54 269.38,-39.69"/>
<polygon fill="#63b8ff" stroke="#63b8ff" points="270.37,-42.66 278.35,-35.69 267.76,-36.16 270.37,-42.66"/>
<g id="a_edge5&#45;headlabel"><a xlink:href="dir_000005_000000.html" target="_top" xlink:title="5">
<text text-anchor="middle" x="269.08" y="-42.76" font-family="Helvetica,sans-Serif" font-size="10.00" fill="#63b8ff">5</text>
</a>
</g>
</g>
</g>
</svg>
