<?xml version="1.0" encoding="UTF-8" standalone="no"?>
<!DOCTYPE svg PUBLIC "-//W3C//DTD SVG 1.1//EN"
 "http://www.w3.org/Graphics/SVG/1.1/DTD/svg11.dtd">
<!-- Generated by graphviz version 8.0.2 (20230410.1723)
 -->
<!-- Title: include/NNFSCore/Model Pages: 1 -->
<svg width="344pt" height="133pt"
 viewBox="0.00 0.00 344.00 133.00" xmlns="http://www.w3.org/2000/svg" xmlns:xlink="http://www.w3.org/1999/xlink">
<g id="graph0" class="graph" transform="scale(1 1) rotate(0) translate(4 129)">
<title>include/NNFSCore/Model</title>
<g id="clust1" class="cluster">
<title>clusterdir_b83ee6e98edabda9ce26bff501159cde</title>
<g id="a_clust1"><a xlink:href="dir_b83ee6e98edabda9ce26bff501159cde.html" target="_top" xlink:title="NNFSCore">
<polygon fill="#daedff" stroke="#7f7f7f" stroke-dasharray="5,2" points="8,-8 8,-117 328,-117 328,-8 8,-8"/>
<text text-anchor="middle" x="168" y="-105" font-family="Helvetica,sans-Serif" font-size="10.00">NNFSCore</text>
</a>
</g>
</g>
<!-- dir_0122ab7167139957223f7cfcb3da127b -->
<g id="node1" class="node">
<title>dir_0122ab7167139957223f7cfcb3da127b</title>
<g id="a_node1"><a xlink:href="dir_0122ab7167139957223f7cfcb3da127b.html" target="_top" xlink:title="Layer">
<polygon fill="#4ea9ff" stroke="#404040" points="57.5,-35 16.5,-35 16.5,-16 57.5,-16 57.5,-35"/>
<text text-anchor="middle" x="37" y="-23" font-family="Helvetica,sans-Serif" font-size="10.00">Layer</text>
</a>
</g>
</g>
<!-- dir_201cb20a8b2f7377cbbd09d4dd7052b4 -->
<g id="node2" class="node">
<title>dir_201cb20a8b2f7377cbbd09d4dd7052b4</title>
<g id="a_node2"><a xlink:href="dir_201cb20a8b2f7377cbbd09d4dd7052b4.html" target="_top" xlink:title="Activation">
<polygon fill="#4ea9ff" stroke="#404040" points="136,-35 76,-35 76,-16 136,-16 136,-35"/>
<text text-anchor="middle" x="106" y="-23" font-family="Helvetica,sans-Serif" font-size="10.00">Activation</text>
</a>
</g>
</g>
<!-- dir_3f817c6e3071a82219b2b11cb2fded89 -->
<g id="node3" class="node">
<title>dir_3f817c6e3071a82219b2b11cb2fded89</title>
<g id="a_node3"><a xlink:href="dir_3f817c6e3071a82219b2b11cb2fded89.html" target="_top" xlink:title="Loss">
<polygon fill="#4ea9ff" stroke="#404040" points="192,-35 154,-35 154,-16 192,-16 192,-35"/>
<text text-anchor="middle" x="173" y="-23" font-family="Helvetica,sans-Serif" font-size="10.00">Loss</text>
</a>
</g>
</g>
<!-- dir_679677e8dfef9bc7f4ca0f5616a35919 -->
<g id="node4" class="node">
<title>dir_679677e8dfef9bc7f4ca0f5616a35919</title>
<g id="a_node4"><a xlink:href="dir_679677e8dfef9bc7f4ca0f5616a35919.html" target="_top" xlink:title="Callback">
<polygon fill="#4ea9ff" stroke="#404040" points="264,-35 210,-35 210,-16 264,-16 264,-35"/>
<text text-anchor="middle" x="237" y="-23" font-family="Helvetica,sans-Serif" font-size="10.00">Callback</text>
</a>
</g>
</g>
<!-- dir_f1335659ee664ff8766a532faaea479e -->
<g id="node5" class="node">
<title>dir_f1335659ee664ff8766a532faaea479e</title>
<g id="a_node5"><a xlink:href="dir_f1335659ee664ff8766a532faaea479e.html" target="_top" xlink:title="Utils">
<polygon fill="#4ea9ff" stroke="#404040" points="319.5,-35 282.5,-35 282.5,-16 319.5,-16 319.5,-35"/>
<text text-anchor="middle" x="301" y="-23" font-family="Helvetica,sans-Serif" font-size="10.00">Utils</text>
</a>
</g>
</g>
<!-- dir_d8c8d72af92371d312f55c54616af8a3 -->
<g id="node6" class="node">
<title>dir_d8c8d72af92371d312f55c54616af8a3</title>
<g id="a_node6"><a xlink:href="dir_d8c8d72af92371d312f55c54616af8a3.html" target="_top" xlink:title="Model">
<polygon fill="#daedff" stroke="#404040" stroke-width="2" points="194.5,-90 151.5,-90 151.5,-71 194.5,-71 194.5,-90"/>
<text text-anchor="middle" x="173" y="-78" font-family="Helvetica,sans-Serif" font-size="10.00">Model</text>
</a>
</g>
</g>
<!-- dir_d8c8d72af92371d312f55c54616af8a3&#45;&gt;dir_0122ab7167139957223f7cfcb3da127b -->
<g id="edge1" class="edge">
<title>dir_d8c8d72af92371d312f55c54616af8a3&#45;&gt;dir_0122ab7167139957223f7cfcb3da127b</title>
<path fill="none" stroke="#63b8ff" d="M151.15,-70.98C128.68,-62.23 93.48,-48.51 68.11,-38.62"/>
<polygon fill="#63b8ff" stroke="#63b8ff" points="69.49,-35.02 58.9,-34.65 66.95,-41.54 69.49,-35.02"/>
<g id="a_edge1&#45;headlabel"><a xlink:href="dir_000006_000004.html" target="_top" xlink:title="2">
<text text-anchor="middle" x="72.87" y="-31.18" font-family="Helvetica,sans-Serif" font-size="10.00" fill="#63b8ff">2</text>
</a>
</g>
</g>
<!-- dir_d8c8d72af92371d312f55c54616af8a3&#45;&gt;dir_201cb20a8b2f7377cbbd09d4dd7052b4 -->
<g id="edge2" class="edge">
<title>dir_d8c8d72af92371d312f55c54616af8a3&#45;&gt;dir_201cb20a8b2f7377cbbd09d4dd7052b4</title>
<path fill="none" stroke="#63b8ff" d="M161.63,-70.51C151.76,-62.7 137.23,-51.21 125.5,-41.93"/>
<polygon fill="#63b8ff" stroke="#63b8ff" points="128.21,-38.82 118.2,-35.36 123.87,-44.31 128.21,-38.82"/>
<g id="a_edge2&#45;headlabel"><a xlink:href="dir_000006_000000.html" target="_top" xlink:title="2">
<text text-anchor="middle" x="131.79" y="-36.32" font-family="Helvetica,sans-Serif" font-size="10.00" fill="#63b8ff">2</text>
</a>
</g>
</g>
<!-- dir_d8c8d72af92371d312f55c54616af8a3&#45;&gt;dir_3f817c6e3071a82219b2b11cb2fded89 -->
<g id="edge3" class="edge">
<title>dir_d8c8d72af92371d312f55c54616af8a3&#45;&gt;dir_3f817c6e3071a82219b2b11cb2fded89</title>
<path fill="none" stroke="#63b8ff" d="M173,-70.75C173,-64.11 173,-54.73 173,-46.31"/>
<polygon fill="#63b8ff" stroke="#63b8ff" points="176.5,-46.44 173,-36.44 169.5,-46.44 176.5,-46.44"/>
<g id="a_edge3&#45;headlabel"><a xlink:href="dir_000006_000005.html" target="_top" xlink:title="2">
<text text-anchor="middle" x="179.34" y="-46.54" font-family="Helvetica,sans-Serif" font-size="10.00" fill="#63b8ff">2</text>
</a>
</g>
</g>
<!-- dir_d8c8d72af92371d312f55c54616af8a3&#45;&gt;dir_679677e8dfef9bc7f4ca0f5616a35919 -->
<g id="edge4" class="edge">
<title>dir_d8c8d72af92371d312f55c54616af8a3&#45;&gt;dir_679677e8dfef9bc7f4ca0f5616a35919</title>
<path fill="none" stroke="#63b8ff" d="M183.86,-70.51C193.2,-62.77 206.89,-51.43 218.04,-42.2"/>
<polygon fill="#63b8ff" stroke="#63b8ff" points="219.83,-44.43 225.3,-35.36 215.37,-39.04 219.83,-44.43"/>
<g id="a_edge4&#45;headlabel"><a xlink:href="dir_000006_000001.html" target="_top" xlink:title="1">
<text text-anchor="middle" x="219.88" y="-46.41" font-family="Helvetica,sans-Serif" font-size="10.00" fill="#63b8ff">1</text>
</a>
</g>
</g>
<!-- dir_d8c8d72af92371d312f55c54616af8a3&#45;&gt;dir_f1335659ee664ff8766a532faaea479e -->
<g id="edge5" class="edge">
<title>dir_d8c8d72af92371d312f55c54616af8a3&#45;&gt;dir_f1335659ee664ff8766a532faaea479e</title>
<path fill="none" stroke="#63b8ff" d="M194.71,-70.51C215.99,-61.7 248.56,-48.22 272.03,-38.49"/>
<polygon fill="#63b8ff" stroke="#63b8ff" points="273.2,-41.38 281.1,-34.32 270.53,-34.92 273.2,-41.38"/>
<g id="a_edge5&#45;headlabel"><a xlink:href="dir_000006_000009.html" target="_top" xlink:title="1">
<text text-anchor="middle" x="271.97" y="-42.88" font-family="Helvetica,sans-Serif" font-size="10.00" fill="#63b8ff">1</text>
</a>
</g>
</g>
</g>
</svg>
