<?xml version="1.0" encoding="UTF-8" standalone="no"?>
<!DOCTYPE svg PUBLIC "-//W3C//DTD SVG 1.1//EN"
 "http://www.w3.org/Graphics/SVG/1.1/DTD/svg11.dtd">
<!-- Generated by graphviz version 8.0.1 (20230327.1645)
 -->
<!-- Title: Graphical Class Hierarchy Pages: 1 -->
<svg width="423pt" height="138pt"
 viewBox="0.00 0.00 423.00 138.00" xmlns="http://www.w3.org/2000/svg" xmlns:xlink="http://www.w3.org/1999/xlink">
<g id="graph0" class="graph" transform="scale(1 1) rotate(0) translate(4 134)">
<title>Graphical Class Hierarchy</title>
<!-- Node0 -->
<g id="node1" class="node">
<title>Node0</title>
<g id="a_node1"><a xlink:href="class_n_n_f_s_core_1_1_differentiable.html" target="_top" xlink:title="Abstract base class for functions with gradients.">
<polygon fill="white" stroke="#666666" points="125,-74 0,-74 0,-55 125,-55 125,-74"/>
<text text-anchor="middle" x="62.5" y="-62" font-family="Helvetica,sans-Serif" font-size="10.00">NNFSCore::Differentiable</text>
</a>
</g>
</g>
<!-- Node1 -->
<g id="node2" class="node">
<title>Node1</title>
<g id="a_node2"><a xlink:href="class_n_n_f_s_core_1_1_activation.html" target="_top" xlink:title="Rectified Linear Unit (ReLU) activation function.">
<polygon fill="white" stroke="#666666" points="274,-74 161,-74 161,-55 274,-55 274,-74"/>
<text text-anchor="middle" x="217.5" y="-62" font-family="Helvetica,sans-Serif" font-size="10.00">NNFSCore::Activation</text>
</a>
</g>
</g>
<!-- Node0&#45;&gt;Node1 -->
<g id="edge1" class="edge">
<title>Node0&#45;&gt;Node1</title>
<path fill="none" stroke="#63b8ff" d="M136.16,-64.5C144.47,-64.5 152.85,-64.5 160.9,-64.5"/>
<polygon fill="#63b8ff" stroke="#63b8ff" points="136.29,-61 126.29,-64.5 136.29,-68 136.29,-61"/>
</g>
<!-- Node2 -->
<g id="node3" class="node">
<title>Node2</title>
<g id="a_node3"><a xlink:href="class_n_n_f_s_core_1_1_linear.html" target="_top" xlink:title="Rectified Linear Unit (ReLU) activation function.">
<polygon fill="white" stroke="#666666" points="410.5,-130 314.5,-130 314.5,-111 410.5,-111 410.5,-130"/>
<text text-anchor="middle" x="362.5" y="-118" font-family="Helvetica,sans-Serif" font-size="10.00">NNFSCore::Linear</text>
</a>
</g>
</g>
<!-- Node1&#45;&gt;Node2 -->
<g id="edge2" class="edge">
<title>Node1&#45;&gt;Node2</title>
<path fill="none" stroke="#63b8ff" d="M250.98,-78.52C268.38,-85.9 290.26,-94.96 310,-102.5 317.08,-105.2 324.76,-107.98 331.98,-110.51"/>
<polygon fill="#63b8ff" stroke="#63b8ff" points="252.86,-75.09 242.29,-74.39 250.12,-81.53 252.86,-75.09"/>
</g>
<!-- Node3 -->
<g id="node4" class="node">
<title>Node3</title>
<g id="a_node4"><a xlink:href="class_n_n_f_s_core_1_1_re_l_u.html" target="_top" xlink:title="Rectified Linear Unit (ReLU) activation function.">
<polygon fill="white" stroke="#666666" points="410,-93 315,-93 315,-74 410,-74 410,-93"/>
<text text-anchor="middle" x="362.5" y="-81" font-family="Helvetica,sans-Serif" font-size="10.00">NNFSCore::ReLU</text>
</a>
</g>
</g>
<!-- Node1&#45;&gt;Node3 -->
<g id="edge3" class="edge">
<title>Node1&#45;&gt;Node3</title>
<path fill="none" stroke="#63b8ff" d="M284.95,-73.33C294.94,-74.66 305.06,-76 314.52,-77.26"/>
<polygon fill="#63b8ff" stroke="#63b8ff" points="285.57,-69.75 275.2,-71.9 284.65,-76.69 285.57,-69.75"/>
</g>
<!-- Node4 -->
<g id="node5" class="node">
<title>Node4</title>
<g id="a_node5"><a xlink:href="class_n_n_f_s_core_1_1_sigmoid.html" target="_top" xlink:title="Sigmoid activation function.">
<polygon fill="white" stroke="#666666" points="414.5,-56 310.5,-56 310.5,-37 414.5,-37 414.5,-56"/>
<text text-anchor="middle" x="362.5" y="-44" font-family="Helvetica,sans-Serif" font-size="10.00">NNFSCore::Sigmoid</text>
</a>
</g>
</g>
<!-- Node1&#45;&gt;Node4 -->
<g id="edge4" class="edge">
<title>Node1&#45;&gt;Node4</title>
<path fill="none" stroke="#63b8ff" d="M284.94,-56.14C293.49,-55.06 302.14,-53.97 310.39,-52.93"/>
<polygon fill="#63b8ff" stroke="#63b8ff" points="284.68,-52.77 275.2,-57.49 285.56,-59.71 284.68,-52.77"/>
</g>
<!-- Node5 -->
<g id="node6" class="node">
<title>Node5</title>
<g id="a_node6"><a xlink:href="class_n_n_f_s_core_1_1_softmax.html" target="_top" xlink:title=" ">
<polygon fill="white" stroke="#666666" points="415,-19 310,-19 310,0 415,0 415,-19"/>
<text text-anchor="middle" x="362.5" y="-7" font-family="Helvetica,sans-Serif" font-size="10.00">NNFSCore::Softmax</text>
</a>
</g>
</g>
<!-- Node1&#45;&gt;Node5 -->
<g id="edge5" class="edge">
<title>Node1&#45;&gt;Node5</title>
<path fill="none" stroke="#63b8ff" d="M253.37,-50.58C270.41,-43.83 291.24,-35.65 310,-28.5 317.84,-25.51 326.37,-22.33 334.2,-19.45"/>
<polygon fill="#63b8ff" stroke="#63b8ff" points="252.3,-47.63 244.3,-54.58 254.88,-54.14 252.3,-47.63"/>
</g>
</g>
</svg>
