<?xml version="1.0" encoding="UTF-8" standalone="no"?>
<!DOCTYPE svg PUBLIC "-//W3C//DTD SVG 1.1//EN"
 "http://www.w3.org/Graphics/SVG/1.1/DTD/svg11.dtd">
<!-- Generated by graphviz version 8.0.5 (20230430.1635)
 -->
<!-- Title: Graphical Class Hierarchy Pages: 1 -->
<svg width="204pt" height="471pt"
 viewBox="0.00 0.00 204.25 471.25" xmlns="http://www.w3.org/2000/svg" xmlns:xlink="http://www.w3.org/1999/xlink">
<g id="graph0" class="graph" transform="scale(1 1) rotate(0) translate(4 467.25)">
<title>Graphical Class Hierarchy</title>
<!-- Node0 -->
<g id="Node000000" class="node">
<title>Node0</title>
<g id="a_Node000000"><a xlink:title=" ">
<polygon fill="#e0e0e0" stroke="#999999" points="69.25,-241.25 0,-241.25 0,-222 69.25,-222 69.25,-241.25"/>
<text text-anchor="middle" x="34.62" y="-227.75" font-family="Helvetica,sans-Serif" font-size="10.00">testing::Test</text>
</a>
</g>
</g>
<!-- Node1 -->
<g id="Node000001" class="node">
<title>Node1</title>
<g id="a_Node000001"><a xlink:href="class_adagrad_test.html" target="_top" xlink:title=" ">
<polygon fill="white" stroke="#666666" points="186.5,-463.25 115,-463.25 115,-444 186.5,-444 186.5,-463.25"/>
<text text-anchor="middle" x="150.75" y="-449.75" font-family="Helvetica,sans-Serif" font-size="10.00">AdagradTest</text>
</a>
</g>
</g>
<!-- Node0&#45;&gt;Node1 -->
<g id="edge17_Node000000_Node000001" class="edge">
<title>Node0&#45;&gt;Node1</title>
<g id="a_edge17_Node000000_Node000001"><a xlink:title=" ">
<path fill="none" stroke="#63b8ff" d="M37.12,-252.48C41.11,-292.98 55.37,-382.9 105.25,-435.62 108.23,-438.77 111.83,-441.38 115.69,-443.55"/>
<polygon fill="#63b8ff" stroke="#63b8ff" points="40.53,-252.26 36.19,-242.6 33.56,-252.86 40.53,-252.26"/>
</a>
</g>
</g>
<!-- Node2 -->
<g id="Node000002" class="node">
<title>Node2</title>
<g id="a_Node000002"><a xlink:href="class_adam_test.html" target="_top" xlink:title=" ">
<polygon fill="white" stroke="#666666" points="181.25,-426.25 120.25,-426.25 120.25,-407 181.25,-407 181.25,-426.25"/>
<text text-anchor="middle" x="150.75" y="-412.75" font-family="Helvetica,sans-Serif" font-size="10.00">AdamTest</text>
</a>
</g>
</g>
<!-- Node0&#45;&gt;Node2 -->
<g id="edge18_Node000000_Node000002" class="edge">
<title>Node0&#45;&gt;Node2</title>
<g id="a_edge18_Node000000_Node000002"><a xlink:title=" ">
<path fill="none" stroke="#63b8ff" d="M38.88,-252C45.43,-286.61 63.3,-357.12 105.25,-398.62 109.4,-402.73 114.6,-405.93 119.98,-408.42"/>
<polygon fill="#63b8ff" stroke="#63b8ff" points="42.19,-251.62 37.02,-242.37 35.3,-252.82 42.19,-251.62"/>
</a>
</g>
</g>
<!-- Node3 -->
<g id="Node000003" class="node">
<title>Node3</title>
<g id="a_Node000003"><a xlink:href="class_c_c_e_softmax_test.html" target="_top" xlink:title=" ">
<polygon fill="white" stroke="#666666" points="196.25,-389.25 105.25,-389.25 105.25,-370 196.25,-370 196.25,-389.25"/>
<text text-anchor="middle" x="150.75" y="-375.75" font-family="Helvetica,sans-Serif" font-size="10.00">CCESoftmaxTest</text>
</a>
</g>
</g>
<!-- Node0&#45;&gt;Node3 -->
<g id="edge19_Node000000_Node000003" class="edge">
<title>Node0&#45;&gt;Node3</title>
<g id="a_edge19_Node000000_Node000003"><a xlink:title=" ">
<path fill="none" stroke="#63b8ff" d="M41.57,-251.8C50.83,-279.98 71.26,-331.1 105.25,-361.62 108.72,-364.74 112.8,-367.36 117.06,-369.54"/>
<polygon fill="#63b8ff" stroke="#63b8ff" points="44.7,-251.07 38.37,-242.57 38.01,-253.16 44.7,-251.07"/>
</a>
</g>
</g>
<!-- Node4 -->
<g id="Node000004" class="node">
<title>Node4</title>
<g id="a_Node000004"><a xlink:href="class_c_c_e_test.html" target="_top" xlink:title=" ">
<polygon fill="white" stroke="#666666" points="178.25,-352.25 123.25,-352.25 123.25,-333 178.25,-333 178.25,-352.25"/>
<text text-anchor="middle" x="150.75" y="-338.75" font-family="Helvetica,sans-Serif" font-size="10.00">CCETest</text>
</a>
</g>
</g>
<!-- Node0&#45;&gt;Node4 -->
<g id="edge20_Node000000_Node000004" class="edge">
<title>Node0&#45;&gt;Node4</title>
<g id="a_edge20_Node000000_Node000004"><a xlink:title=" ">
<path fill="none" stroke="#63b8ff" d="M45.93,-251.11C57.78,-271.85 79,-304.41 105.25,-324.62 110.53,-328.69 116.86,-331.98 123.06,-334.57"/>
<polygon fill="#63b8ff" stroke="#63b8ff" points="48.65,-249.79 40.75,-242.73 42.52,-253.17 48.65,-249.79"/>
</a>
</g>
</g>
<!-- Node5 -->
<g id="Node000005" class="node">
<title>Node5</title>
<g id="a_Node000005"><a xlink:href="class_dense_test.html" target="_top" xlink:title=" ">
<polygon fill="white" stroke="#666666" points="182.38,-315.25 119.12,-315.25 119.12,-296 182.38,-296 182.38,-315.25"/>
<text text-anchor="middle" x="150.75" y="-301.75" font-family="Helvetica,sans-Serif" font-size="10.00">DenseTest</text>
</a>
</g>
</g>
<!-- Node0&#45;&gt;Node5 -->
<g id="edge21_Node000000_Node000005" class="edge">
<title>Node0&#45;&gt;Node5</title>
<g id="a_edge21_Node000000_Node000005"><a xlink:title=" ">
<path fill="none" stroke="#63b8ff" d="M53.71,-248.65C67.16,-260.67 86.38,-276.54 105.25,-287.62 110.28,-290.58 115.89,-293.26 121.38,-295.6"/>
<polygon fill="#63b8ff" stroke="#63b8ff" points="56.51,-246.55 46.76,-242.39 51.79,-251.72 56.51,-246.55"/>
</a>
</g>
</g>
<!-- Node6 -->
<g id="Node000006" class="node">
<title>Node6</title>
<g id="a_Node000006"><a xlink:href="class_metrics_test.html" target="_top" xlink:title=" ">
<polygon fill="white" stroke="#666666" points="184.62,-278.25 116.88,-278.25 116.88,-259 184.62,-259 184.62,-278.25"/>
<text text-anchor="middle" x="150.75" y="-264.75" font-family="Helvetica,sans-Serif" font-size="10.00">MetricsTest</text>
</a>
</g>
</g>
<!-- Node0&#45;&gt;Node6 -->
<g id="edge22_Node000000_Node000006" class="edge">
<title>Node0&#45;&gt;Node6</title>
<g id="a_edge22_Node000000_Node000006"><a xlink:title=" ">
<path fill="none" stroke="#63b8ff" d="M77,-245.04C90.73,-249.49 105.77,-254.37 118.6,-258.53"/>
<polygon fill="#63b8ff" stroke="#63b8ff" points="78.4,-241.49 67.81,-241.74 76.24,-248.15 78.4,-241.49"/>
</a>
</g>
</g>
<!-- Node7 -->
<g id="Node000007" class="node">
<title>Node7</title>
<g id="a_Node000007"><a xlink:href="class_optimizer_test.html" target="_top" xlink:title=" ">
<polygon fill="white" stroke="#666666" points="189.12,-241.25 112.38,-241.25 112.38,-222 189.12,-222 189.12,-241.25"/>
<text text-anchor="middle" x="150.75" y="-227.75" font-family="Helvetica,sans-Serif" font-size="10.00">OptimizerTest</text>
</a>
</g>
</g>
<!-- Node0&#45;&gt;Node7 -->
<g id="edge23_Node000000_Node000007" class="edge">
<title>Node0&#45;&gt;Node7</title>
<g id="a_edge23_Node000000_Node000007"><a xlink:title=" ">
<path fill="none" stroke="#63b8ff" d="M80.27,-231.62C90.82,-231.62 101.96,-231.62 112.16,-231.62"/>
<polygon fill="#63b8ff" stroke="#63b8ff" points="80.56,-228.13 70.56,-231.62 80.56,-235.13 80.56,-228.13"/>
</a>
</g>
</g>
<!-- Node8 -->
<g id="Node000008" class="node">
<title>Node8</title>
<g id="a_Node000008"><a xlink:href="class_r_m_sprop_test.html" target="_top" xlink:title=" ">
<polygon fill="white" stroke="#666666" points="188.75,-204.25 112.75,-204.25 112.75,-185 188.75,-185 188.75,-204.25"/>
<text text-anchor="middle" x="150.75" y="-190.75" font-family="Helvetica,sans-Serif" font-size="10.00">RMSpropTest</text>
</a>
</g>
</g>
<!-- Node0&#45;&gt;Node8 -->
<g id="edge24_Node000000_Node000008" class="edge">
<title>Node0&#45;&gt;Node8</title>
<g id="a_edge24_Node000000_Node000008"><a xlink:title=" ">
<path fill="none" stroke="#63b8ff" d="M77,-218.21C90.73,-213.76 105.77,-208.88 118.6,-204.72"/>
<polygon fill="#63b8ff" stroke="#63b8ff" points="76.24,-215.1 67.81,-221.51 78.4,-221.76 76.24,-215.1"/>
</a>
</g>
</g>
<!-- Node9 -->
<g id="Node000009" class="node">
<title>Node9</title>
<g id="a_Node000009"><a xlink:href="class_re_l_u_test.html" target="_top" xlink:title=" ">
<polygon fill="white" stroke="#666666" points="181.25,-167.25 120.25,-167.25 120.25,-148 181.25,-148 181.25,-167.25"/>
<text text-anchor="middle" x="150.75" y="-153.75" font-family="Helvetica,sans-Serif" font-size="10.00">ReLUTest</text>
</a>
</g>
</g>
<!-- Node0&#45;&gt;Node9 -->
<g id="edge25_Node000000_Node000009" class="edge">
<title>Node0&#45;&gt;Node9</title>
<g id="a_edge25_Node000000_Node000009"><a xlink:title=" ">
<path fill="none" stroke="#63b8ff" d="M53.71,-214.6C67.16,-202.58 86.38,-186.71 105.25,-175.62 110.28,-172.67 115.89,-169.99 121.38,-167.65"/>
<polygon fill="#63b8ff" stroke="#63b8ff" points="51.79,-211.53 46.76,-220.86 56.51,-216.7 51.79,-211.53"/>
</a>
</g>
</g>
<!-- Node10 -->
<g id="Node000010" class="node">
<title>Node10</title>
<g id="a_Node000010"><a xlink:href="class_s_g_d_test.html" target="_top" xlink:title=" ">
<polygon fill="white" stroke="#666666" points="179,-130.25 122.5,-130.25 122.5,-111 179,-111 179,-130.25"/>
<text text-anchor="middle" x="150.75" y="-116.75" font-family="Helvetica,sans-Serif" font-size="10.00">SGDTest</text>
</a>
</g>
</g>
<!-- Node0&#45;&gt;Node10 -->
<g id="edge26_Node000000_Node000010" class="edge">
<title>Node0&#45;&gt;Node10</title>
<g id="a_edge26_Node000000_Node000010"><a xlink:title=" ">
<path fill="none" stroke="#63b8ff" d="M45.93,-212.14C57.78,-191.4 79,-158.84 105.25,-138.62 110.27,-134.76 116.23,-131.6 122.13,-129.08"/>
<polygon fill="#63b8ff" stroke="#63b8ff" points="42.52,-210.08 40.75,-220.52 48.65,-213.46 42.52,-210.08"/>
</a>
</g>
</g>
<!-- Node11 -->
<g id="Node000011" class="node">
<title>Node11</title>
<g id="a_Node000011"><a xlink:href="class_sigmoid_test.html" target="_top" xlink:title=" ">
<polygon fill="white" stroke="#666666" points="186.12,-93.25 115.38,-93.25 115.38,-74 186.12,-74 186.12,-93.25"/>
<text text-anchor="middle" x="150.75" y="-79.75" font-family="Helvetica,sans-Serif" font-size="10.00">SigmoidTest</text>
</a>
</g>
</g>
<!-- Node0&#45;&gt;Node11 -->
<g id="edge27_Node000000_Node000011" class="edge">
<title>Node0&#45;&gt;Node11</title>
<g id="a_edge27_Node000000_Node000011"><a xlink:title=" ">
<path fill="none" stroke="#63b8ff" d="M41.57,-211.45C50.83,-183.27 71.26,-132.15 105.25,-101.62 108.72,-98.51 112.8,-95.89 117.06,-93.71"/>
<polygon fill="#63b8ff" stroke="#63b8ff" points="38.01,-210.09 38.37,-220.68 44.7,-212.18 38.01,-210.09"/>
</a>
</g>
</g>
<!-- Node12 -->
<g id="Node000012" class="node">
<title>Node12</title>
<g id="a_Node000012"><a xlink:href="class_softmax_test.html" target="_top" xlink:title=" ">
<polygon fill="white" stroke="#666666" points="186.5,-56.25 115,-56.25 115,-37 186.5,-37 186.5,-56.25"/>
<text text-anchor="middle" x="150.75" y="-42.75" font-family="Helvetica,sans-Serif" font-size="10.00">SoftmaxTest</text>
</a>
</g>
</g>
<!-- Node0&#45;&gt;Node12 -->
<g id="edge28_Node000000_Node000012" class="edge">
<title>Node0&#45;&gt;Node12</title>
<g id="a_edge28_Node000000_Node000012"><a xlink:title=" ">
<path fill="none" stroke="#63b8ff" d="M38.88,-211.25C45.43,-176.64 63.3,-106.13 105.25,-64.62 108.45,-61.46 112.28,-58.83 116.33,-56.65"/>
<polygon fill="#63b8ff" stroke="#63b8ff" points="35.3,-210.43 37.02,-220.88 42.19,-211.63 35.3,-210.43"/>
</a>
</g>
</g>
<!-- Node13 -->
<g id="Node000013" class="node">
<title>Node13</title>
<g id="a_Node000013"><a xlink:href="class_tanh_test.html" target="_top" xlink:title=" ">
<polygon fill="white" stroke="#666666" points="179.38,-19.25 122.12,-19.25 122.12,0 179.38,0 179.38,-19.25"/>
<text text-anchor="middle" x="150.75" y="-5.75" font-family="Helvetica,sans-Serif" font-size="10.00">TanhTest</text>
</a>
</g>
</g>
<!-- Node0&#45;&gt;Node13 -->
<g id="edge29_Node000000_Node000013" class="edge">
<title>Node0&#45;&gt;Node13</title>
<g id="a_edge29_Node000000_Node000013"><a xlink:title=" ">
<path fill="none" stroke="#63b8ff" d="M37.12,-210.77C41.11,-170.27 55.37,-80.35 105.25,-27.62 109.83,-22.78 115.9,-19.21 122.07,-16.58"/>
<polygon fill="#63b8ff" stroke="#63b8ff" points="33.56,-210.39 36.19,-220.65 40.53,-210.99 33.56,-210.39"/>
</a>
</g>
</g>
</g>
</svg>
