<?xml version="1.0" encoding="UTF-8" standalone="no"?>
<!DOCTYPE svg PUBLIC "-//W3C//DTD SVG 1.1//EN"
 "http://www.w3.org/Graphics/SVG/1.1/DTD/svg11.dtd">
<!-- Generated by graphviz version 8.0.5 (20230430.1635)
 -->
<!-- Title: Graphical Class Hierarchy Pages: 1 -->
<svg width="264pt" height="138pt"
 viewBox="0.00 0.00 264.25 138.25" xmlns="http://www.w3.org/2000/svg" xmlns:xlink="http://www.w3.org/1999/xlink">
<g id="graph0" class="graph" transform="scale(1 1) rotate(0) translate(4 134.25)">
<title>Graphical Class Hierarchy</title>
<!-- Node0 -->
<g id="node1" class="node">
<title>Node0</title>
<g id="a_node1"><a xlink:href="class_n_n_f_s_core_1_1_optimizer.html" target="_top" xlink:title=" ">
<polygon fill="white" stroke="#666666" points="109.75,-74.25 0,-74.25 0,-55 109.75,-55 109.75,-74.25"/>
<text text-anchor="middle" x="54.88" y="-60.75" font-family="Helvetica,sans-Serif" font-size="10.00">NNFSCore::Optimizer</text>
</a>
</g>
</g>
<!-- Node1 -->
<g id="node2" class="node">
<title>Node1</title>
<g id="a_node2"><a xlink:href="class_n_n_f_s_core_1_1_adagrad.html" target="_top" xlink:title=" ">
<polygon fill="white" stroke="#666666" points="253.25,-130.25 148.75,-130.25 148.75,-111 253.25,-111 253.25,-130.25"/>
<text text-anchor="middle" x="201" y="-116.75" font-family="Helvetica,sans-Serif" font-size="10.00">NNFSCore::Adagrad</text>
</a>
</g>
</g>
<!-- Node0&#45;&gt;Node1 -->
<g id="edge1" class="edge">
<title>Node0&#45;&gt;Node1</title>
<path fill="none" stroke="#63b8ff" d="M88.18,-79.02C105.18,-86.41 126.45,-95.36 145.75,-102.62 152.99,-105.35 160.86,-108.09 168.3,-110.58"/>
<polygon fill="#63b8ff" stroke="#63b8ff" points="89.77,-75.46 79.21,-74.65 86.96,-81.87 89.77,-75.46"/>
</g>
<!-- Node2 -->
<g id="node3" class="node">
<title>Node2</title>
<g id="a_node3"><a xlink:href="class_n_n_f_s_core_1_1_adam.html" target="_top" xlink:title=" ">
<polygon fill="white" stroke="#666666" points="248,-93.25 154,-93.25 154,-74 248,-74 248,-93.25"/>
<text text-anchor="middle" x="201" y="-79.75" font-family="Helvetica,sans-Serif" font-size="10.00">NNFSCore::Adam</text>
</a>
</g>
</g>
<!-- Node0&#45;&gt;Node2 -->
<g id="edge2" class="edge">
<title>Node0&#45;&gt;Node2</title>
<path fill="none" stroke="#63b8ff" d="M120.54,-73.15C131.7,-74.62 143.1,-76.12 153.65,-77.51"/>
<polygon fill="#63b8ff" stroke="#63b8ff" points="121.32,-69.59 110.95,-71.75 120.41,-76.53 121.32,-69.59"/>
</g>
<!-- Node3 -->
<g id="node4" class="node">
<title>Node3</title>
<g id="a_node4"><a xlink:href="class_n_n_f_s_core_1_1_r_m_s_prop.html" target="_top" xlink:title=" ">
<polygon fill="white" stroke="#666666" points="256.25,-56.25 145.75,-56.25 145.75,-37 256.25,-37 256.25,-56.25"/>
<text text-anchor="middle" x="201" y="-42.75" font-family="Helvetica,sans-Serif" font-size="10.00">NNFSCore::RMSProp</text>
</a>
</g>
</g>
<!-- Node0&#45;&gt;Node3 -->
<g id="edge3" class="edge">
<title>Node0&#45;&gt;Node3</title>
<path fill="none" stroke="#63b8ff" d="M120.76,-56.52C129.07,-55.48 137.5,-54.43 145.62,-53.42"/>
<polygon fill="#63b8ff" stroke="#63b8ff" points="120.44,-53.16 110.95,-57.87 121.31,-60.1 120.44,-53.16"/>
</g>
<!-- Node4 -->
<g id="node5" class="node">
<title>Node4</title>
<g id="a_node5"><a xlink:href="class_n_n_f_s_core_1_1_s_g_d.html" target="_top" xlink:title=" ">
<polygon fill="white" stroke="#666666" points="245.75,-19.25 156.25,-19.25 156.25,0 245.75,0 245.75,-19.25"/>
<text text-anchor="middle" x="201" y="-5.75" font-family="Helvetica,sans-Serif" font-size="10.00">NNFSCore::SGD</text>
</a>
</g>
</g>
<!-- Node0&#45;&gt;Node4 -->
<g id="edge4" class="edge">
<title>Node0&#45;&gt;Node4</title>
<path fill="none" stroke="#63b8ff" d="M88.91,-50.37C105.81,-43.25 126.75,-34.68 145.75,-27.62 153.01,-24.93 160.88,-22.21 168.31,-19.72"/>
<polygon fill="#63b8ff" stroke="#63b8ff" points="87.81,-47.46 79.98,-54.59 90.55,-53.91 87.81,-47.46"/>
</g>
</g>
</svg>
