<?xml version="1.0" encoding="UTF-8" standalone="no"?>
<!DOCTYPE svg PUBLIC "-//W3C//DTD SVG 1.1//EN"
 "http://www.w3.org/Graphics/SVG/1.1/DTD/svg11.dtd">
<!-- Generated by graphviz version 8.0.5 (20230430.1635)
 -->
<!-- Title: Graphical Class Hierarchy Pages: 1 -->
<svg width="204pt" height="212pt"
 viewBox="0.00 0.00 204.25 212.25" xmlns="http://www.w3.org/2000/svg" xmlns:xlink="http://www.w3.org/1999/xlink">
<g id="graph0" class="graph" transform="scale(1 1) rotate(0) translate(4 208.25)">
<title>Graphical Class Hierarchy</title>
<!-- Node0 -->
<g id="node1" class="node">
<title>Node0</title>
<g id="a_node1"><a xlink:title=" ">
<polygon fill="#e0e0e0" stroke="#999999" points="69.25,-111.25 0,-111.25 0,-92 69.25,-92 69.25,-111.25"/>
<text text-anchor="middle" x="34.62" y="-97.75" font-family="Helvetica,sans-Serif" font-size="10.00">testing::Test</text>
</a>
</g>
</g>
<!-- Node1 -->
<g id="node2" class="node">
<title>Node1</title>
<g id="a_node2"><a xlink:href="class_c_c_e_softmax_test.html" target="_top" xlink:title=" ">
<polygon fill="white" stroke="#666666" points="196.25,-204.25 105.25,-204.25 105.25,-185 196.25,-185 196.25,-204.25"/>
<text text-anchor="middle" x="150.75" y="-190.75" font-family="Helvetica,sans-Serif" font-size="10.00">CCESoftmaxTest</text>
</a>
</g>
</g>
<!-- Node0&#45;&gt;Node1 -->
<g id="edge1" class="edge">
<title>Node0&#45;&gt;Node1</title>
<path fill="none" stroke="#63b8ff" d="M48.94,-120.06C61.77,-136.72 82.54,-160.97 105.25,-176.62 109.64,-179.65 114.62,-182.29 119.61,-184.55"/>
<polygon fill="#63b8ff" stroke="#63b8ff" points="51.46,-118.59 42.66,-112.68 45.86,-122.79 51.46,-118.59"/>
</g>
<!-- Node2 -->
<g id="node3" class="node">
<title>Node2</title>
<g id="a_node3"><a xlink:href="class_c_c_e_test.html" target="_top" xlink:title=" ">
<polygon fill="white" stroke="#666666" points="178.25,-167.25 123.25,-167.25 123.25,-148 178.25,-148 178.25,-167.25"/>
<text text-anchor="middle" x="150.75" y="-153.75" font-family="Helvetica,sans-Serif" font-size="10.00">CCETest</text>
</a>
</g>
</g>
<!-- Node0&#45;&gt;Node2 -->
<g id="edge2" class="edge">
<title>Node0&#45;&gt;Node2</title>
<path fill="none" stroke="#63b8ff" d="M61.99,-116.95C74.85,-124.18 90.67,-132.73 105.25,-139.62 111.13,-142.41 117.55,-145.16 123.65,-147.65"/>
<polygon fill="#63b8ff" stroke="#63b8ff" points="64.21,-113.62 53.79,-111.72 60.75,-119.7 64.21,-113.62"/>
</g>
<!-- Node3 -->
<g id="node4" class="node">
<title>Node3</title>
<g id="a_node4"><a xlink:href="class_dense_test.html" target="_top" xlink:title=" ">
<polygon fill="white" stroke="#666666" points="182.38,-130.25 119.12,-130.25 119.12,-111 182.38,-111 182.38,-130.25"/>
<text text-anchor="middle" x="150.75" y="-116.75" font-family="Helvetica,sans-Serif" font-size="10.00">DenseTest</text>
</a>
</g>
</g>
<!-- Node0&#45;&gt;Node3 -->
<g id="edge3" class="edge">
<title>Node0&#45;&gt;Node3</title>
<path fill="none" stroke="#63b8ff" d="M80.16,-109.04C93.1,-111.19 106.96,-113.5 118.87,-115.48"/>
<polygon fill="#63b8ff" stroke="#63b8ff" points="81,-105.46 70.56,-107.27 79.85,-112.37 81,-105.46"/>
</g>
<!-- Node4 -->
<g id="node5" class="node">
<title>Node4</title>
<g id="a_node5"><a xlink:href="class_metrics_test.html" target="_top" xlink:title=" ">
<polygon fill="white" stroke="#666666" points="184.62,-93.25 116.88,-93.25 116.88,-74 184.62,-74 184.62,-93.25"/>
<text text-anchor="middle" x="150.75" y="-79.75" font-family="Helvetica,sans-Serif" font-size="10.00">MetricsTest</text>
</a>
</g>
</g>
<!-- Node0&#45;&gt;Node4 -->
<g id="edge4" class="edge">
<title>Node0&#45;&gt;Node4</title>
<path fill="none" stroke="#63b8ff" d="M80.35,-94.57C92.4,-92.67 105.23,-90.65 116.54,-88.86"/>
<polygon fill="#63b8ff" stroke="#63b8ff" points="79.89,-91.26 70.56,-96.27 80.98,-98.17 79.89,-91.26"/>
</g>
<!-- Node5 -->
<g id="node6" class="node">
<title>Node5</title>
<g id="a_node6"><a xlink:href="class_re_l_u_test.html" target="_top" xlink:title=" ">
<polygon fill="white" stroke="#666666" points="181.25,-56.25 120.25,-56.25 120.25,-37 181.25,-37 181.25,-56.25"/>
<text text-anchor="middle" x="150.75" y="-42.75" font-family="Helvetica,sans-Serif" font-size="10.00">ReLUTest</text>
</a>
</g>
</g>
<!-- Node0&#45;&gt;Node5 -->
<g id="edge5" class="edge">
<title>Node0&#45;&gt;Node5</title>
<path fill="none" stroke="#63b8ff" d="M62.93,-86.27C75.64,-79.34 91.06,-71.25 105.25,-64.62 111.14,-61.88 117.57,-59.13 123.67,-56.65"/>
<polygon fill="#63b8ff" stroke="#63b8ff" points="61.47,-83.63 54.4,-91.52 64.85,-89.76 61.47,-83.63"/>
</g>
<!-- Node6 -->
<g id="node7" class="node">
<title>Node6</title>
<g id="a_node7"><a xlink:href="class_softmax_test.html" target="_top" xlink:title=" ">
<polygon fill="white" stroke="#666666" points="186.5,-19.25 115,-19.25 115,0 186.5,0 186.5,-19.25"/>
<text text-anchor="middle" x="150.75" y="-5.75" font-family="Helvetica,sans-Serif" font-size="10.00">SoftmaxTest</text>
</a>
</g>
</g>
<!-- Node0&#45;&gt;Node6 -->
<g id="edge6" class="edge">
<title>Node0&#45;&gt;Node6</title>
<path fill="none" stroke="#63b8ff" d="M49.35,-82.99C62.24,-66.57 82.86,-42.95 105.25,-27.62 109.65,-24.61 114.63,-21.98 119.63,-19.73"/>
<polygon fill="#63b8ff" stroke="#63b8ff" points="45.98,-80.63 42.69,-90.71 51.54,-84.88 45.98,-80.63"/>
</g>
</g>
</svg>
