<?xml version="1.0" encoding="UTF-8" standalone="no"?>
<!DOCTYPE svg PUBLIC "-//W3C//DTD SVG 1.1//EN"
 "http://www.w3.org/Graphics/SVG/1.1/DTD/svg11.dtd">
<!-- Generated by graphviz version 8.0.5 (20230430.1635)
 -->
<!-- Title: Graphical Class Hierarchy Pages: 1 -->
<svg width="218pt" height="64pt"
 viewBox="0.00 0.00 217.75 64.25" xmlns="http://www.w3.org/2000/svg" xmlns:xlink="http://www.w3.org/1999/xlink">
<g id="graph0" class="graph" transform="scale(1 1) rotate(0) translate(4 60.25)">
<title>Graphical Class Hierarchy</title>
<!-- Node0 -->
<g id="Node000000" class="node">
<title>Node0</title>
<g id="a_Node000000"><a xlink:href="class_n_n_f_s_1_1_loss.html" target="_top" xlink:title="Base class for all loss functions.">
<polygon fill="white" stroke="#666666" points="70,-37.25 0,-37.25 0,-18 70,-18 70,-37.25"/>
<text text-anchor="middle" x="35" y="-23.75" font-family="Helvetica,sans-Serif" font-size="10.00">NNFS::Loss</text>
</a>
</g>
</g>
<!-- Node1 -->
<g id="Node000001" class="node">
<title>Node1</title>
<g id="a_Node000001"><a xlink:href="class_n_n_f_s_1_1_c_c_e.html" target="_top" xlink:title="Cross&#45;entropy loss function.">
<polygon fill="white" stroke="#666666" points="191.75,-56.25 124,-56.25 124,-37 191.75,-37 191.75,-56.25"/>
<text text-anchor="middle" x="157.88" y="-42.75" font-family="Helvetica,sans-Serif" font-size="10.00">NNFS::CCE</text>
</a>
</g>
</g>
<!-- Node0&#45;&gt;Node1 -->
<g id="edge7_Node000000_Node000001" class="edge">
<title>Node0&#45;&gt;Node1</title>
<g id="a_edge7_Node000000_Node000001"><a xlink:title=" ">
<path fill="none" stroke="#63b8ff" d="M80.88,-34.68C95.07,-36.91 110.5,-39.34 123.73,-41.41"/>
<polygon fill="#63b8ff" stroke="#63b8ff" points="81.74,-31.11 71.31,-33.02 80.65,-38.03 81.74,-31.11"/>
</a>
</g>
</g>
<!-- Node2 -->
<g id="Node000002" class="node">
<title>Node2</title>
<g id="a_Node000002"><a xlink:href="class_n_n_f_s_1_1_c_c_e_softmax.html" target="_top" xlink:title="Cross&#45;entropy loss function with softmax activation.">
<polygon fill="white" stroke="#666666" points="209.75,-19.25 106,-19.25 106,0 209.75,0 209.75,-19.25"/>
<text text-anchor="middle" x="157.88" y="-5.75" font-family="Helvetica,sans-Serif" font-size="10.00">NNFS::CCESoftmax</text>
</a>
</g>
</g>
<!-- Node0&#45;&gt;Node2 -->
<g id="edge8_Node000000_Node000002" class="edge">
<title>Node0&#45;&gt;Node2</title>
<g id="a_edge8_Node000000_Node000002"><a xlink:title=" ">
<path fill="none" stroke="#63b8ff" d="M81.02,-20.92C89.08,-19.72 97.55,-18.46 105.77,-17.23"/>
<polygon fill="#63b8ff" stroke="#63b8ff" points="80.69,-17.58 71.31,-22.52 81.72,-24.5 80.69,-17.58"/>
</a>
</g>
</g>
</g>
</svg>
