<?xml version="1.0" encoding="UTF-8" standalone="no"?>
<!DOCTYPE svg PUBLIC "-//W3C//DTD SVG 1.1//EN"
 "http://www.w3.org/Graphics/SVG/1.1/DTD/svg11.dtd">
<!-- Generated by graphviz version 8.0.2 (20230410.1723)
 -->
<!-- Title: Graphical Class Hierarchy Pages: 1 -->
<svg width="422pt" height="101pt"
 viewBox="0.00 0.00 422.00 101.00" xmlns="http://www.w3.org/2000/svg" xmlns:xlink="http://www.w3.org/1999/xlink">
<g id="graph0" class="graph" transform="scale(1 1) rotate(0) translate(4 97)">
<title>Graphical Class Hierarchy</title>
<!-- Node0 -->
<g id="node1" class="node">
<title>Node0</title>
<g id="a_node1"><a xlink:href="class_n_n_f_s_core_1_1_differentiable.html" target="_top" xlink:title="Abstract base class for functions with gradients.">
<polygon fill="white" stroke="#666666" points="125,-56 0,-56 0,-37 125,-37 125,-56"/>
<text text-anchor="middle" x="62.5" y="-44" font-family="Helvetica,sans-Serif" font-size="10.00">NNFSCore::Differentiable</text>
</a>
</g>
</g>
<!-- Node1 -->
<g id="node2" class="node">
<title>Node1</title>
<g id="a_node2"><a xlink:href="class_n_n_f_s_core_1_1_activation.html" target="_top" xlink:title="Abstract base class for activation functions.">
<polygon fill="white" stroke="#666666" points="274,-56 161,-56 161,-37 274,-37 274,-56"/>
<text text-anchor="middle" x="217.5" y="-44" font-family="Helvetica,sans-Serif" font-size="10.00">NNFSCore::Activation</text>
</a>
</g>
</g>
<!-- Node0&#45;&gt;Node1 -->
<g id="edge1" class="edge">
<title>Node0&#45;&gt;Node1</title>
<path fill="none" stroke="#63b8ff" d="M136.16,-46.5C144.47,-46.5 152.85,-46.5 160.9,-46.5"/>
<polygon fill="#63b8ff" stroke="#63b8ff" points="136.29,-43 126.29,-46.5 136.29,-50 136.29,-43"/>
</g>
<!-- Node2 -->
<g id="node3" class="node">
<title>Node2</title>
<g id="a_node3"><a xlink:href="class_n_n_f_s_core_1_1_linear.html" target="_top" xlink:title="Linear activation function.">
<polygon fill="white" stroke="#666666" points="410,-93 314,-93 314,-74 410,-74 410,-93"/>
<text text-anchor="middle" x="362" y="-81" font-family="Helvetica,sans-Serif" font-size="10.00">NNFSCore::Linear</text>
</a>
</g>
</g>
<!-- Node1&#45;&gt;Node2 -->
<g id="edge2" class="edge">
<title>Node1&#45;&gt;Node2</title>
<path fill="none" stroke="#63b8ff" d="M267.09,-59.12C285.25,-63.83 305.6,-69.12 322.71,-73.56"/>
<polygon fill="#63b8ff" stroke="#63b8ff" points="268.25,-55.54 257.69,-56.42 266.49,-62.32 268.25,-55.54"/>
</g>
<!-- Node3 -->
<g id="node4" class="node">
<title>Node3</title>
<g id="a_node4"><a xlink:href="class_n_n_f_s_core_1_1_re_l_u.html" target="_top" xlink:title="Rectified Linear&#45;Unit activation function.">
<polygon fill="white" stroke="#666666" points="409.5,-56 314.5,-56 314.5,-37 409.5,-37 409.5,-56"/>
<text text-anchor="middle" x="362" y="-44" font-family="Helvetica,sans-Serif" font-size="10.00">NNFSCore::ReLU</text>
</a>
</g>
</g>
<!-- Node1&#45;&gt;Node3 -->
<g id="edge3" class="edge">
<title>Node1&#45;&gt;Node3</title>
<path fill="none" stroke="#63b8ff" d="M285.28,-46.5C294.98,-46.5 304.8,-46.5 314,-46.5"/>
<polygon fill="#63b8ff" stroke="#63b8ff" points="285.41,-43 275.41,-46.5 285.41,-50 285.41,-43"/>
</g>
<!-- Node4 -->
<g id="node5" class="node">
<title>Node4</title>
<g id="a_node5"><a xlink:href="class_n_n_f_s_core_1_1_sigmoid.html" target="_top" xlink:title="Sigmoid activation function.">
<polygon fill="white" stroke="#666666" points="414,-19 310,-19 310,0 414,0 414,-19"/>
<text text-anchor="middle" x="362" y="-7" font-family="Helvetica,sans-Serif" font-size="10.00">NNFSCore::Sigmoid</text>
</a>
</g>
</g>
<!-- Node1&#45;&gt;Node4 -->
<g id="edge4" class="edge">
<title>Node1&#45;&gt;Node4</title>
<path fill="none" stroke="#63b8ff" d="M267.09,-33.88C285.25,-29.17 305.6,-23.88 322.71,-19.44"/>
<polygon fill="#63b8ff" stroke="#63b8ff" points="266.49,-30.68 257.69,-36.58 268.25,-37.46 266.49,-30.68"/>
</g>
</g>
</svg>
