<?xml version="1.0" encoding="UTF-8" standalone="no"?>
<!DOCTYPE svg PUBLIC "-//W3C//DTD SVG 1.1//EN"
 "http://www.w3.org/Graphics/SVG/1.1/DTD/svg11.dtd">
<!-- Generated by graphviz version 8.0.2 (20230410.1723)
 -->
<!-- Title: Graphical Class Hierarchy Pages: 1 -->
<svg width="215pt" height="138pt"
 viewBox="0.00 0.00 215.00 138.00" xmlns="http://www.w3.org/2000/svg" xmlns:xlink="http://www.w3.org/1999/xlink">
<g id="graph0" class="graph" transform="scale(1 1) rotate(0) translate(4 134)">
<title>Graphical Class Hierarchy</title>
<!-- Node0 -->
<g id="node1" class="node">
<title>Node0</title>
<g id="a_node1"><a xlink:title=" ">
<polygon fill="#e0e0e0" stroke="#999999" points="70,-74 0,-74 0,-55 70,-55 70,-74"/>
<text text-anchor="middle" x="35" y="-62" font-family="Helvetica,sans-Serif" font-size="10.00">testing::Test</text>
</a>
</g>
</g>
<!-- Node1 -->
<g id="node2" class="node">
<title>Node1</title>
<g id="a_node2"><a xlink:href="class_c_s_v_logger_test.html" target="_top" xlink:title=" ">
<polygon fill="white" stroke="#666666" points="199.5,-130 113.5,-130 113.5,-111 199.5,-111 199.5,-130"/>
<text text-anchor="middle" x="156.5" y="-118" font-family="Helvetica,sans-Serif" font-size="10.00">CSVLoggerTest</text>
</a>
</g>
</g>
<!-- Node0&#45;&gt;Node1 -->
<g id="edge1" class="edge">
<title>Node0&#45;&gt;Node1</title>
<path fill="none" stroke="#63b8ff" d="M61.88,-79.75C74.89,-87.1 91.03,-95.76 106,-102.5 112.34,-105.35 119.27,-108.1 125.9,-110.55"/>
<polygon fill="#63b8ff" stroke="#63b8ff" points="64.03,-76.37 53.62,-74.43 60.55,-82.44 64.03,-76.37"/>
</g>
<!-- Node2 -->
<g id="node3" class="node">
<title>Node2</title>
<g id="a_node3"><a xlink:href="class_dense_test.html" target="_top" xlink:title=" ">
<polygon fill="white" stroke="#666666" points="188.5,-93 124.5,-93 124.5,-74 188.5,-74 188.5,-93"/>
<text text-anchor="middle" x="156.5" y="-81" font-family="Helvetica,sans-Serif" font-size="10.00">DenseTest</text>
</a>
</g>
</g>
<!-- Node0&#45;&gt;Node2 -->
<g id="edge2" class="edge">
<title>Node0&#45;&gt;Node2</title>
<path fill="none" stroke="#63b8ff" d="M80.94,-71.65C95.32,-73.93 110.92,-76.41 124.11,-78.51"/>
<polygon fill="#63b8ff" stroke="#63b8ff" points="81.67,-68.06 71.24,-69.94 80.57,-74.97 81.67,-68.06"/>
</g>
<!-- Node3 -->
<g id="node4" class="node">
<title>Node3</title>
<g id="a_node4"><a xlink:href="class_loss_test.html" target="_top" xlink:title=" ">
<polygon fill="white" stroke="#666666" points="185.5,-56 127.5,-56 127.5,-37 185.5,-37 185.5,-56"/>
<text text-anchor="middle" x="156.5" y="-44" font-family="Helvetica,sans-Serif" font-size="10.00">LossTest</text>
</a>
</g>
</g>
<!-- Node0&#45;&gt;Node3 -->
<g id="edge3" class="edge">
<title>Node0&#45;&gt;Node3</title>
<path fill="none" stroke="#63b8ff" d="M80.76,-57.76C96.36,-55.41 113.42,-52.84 127.29,-50.75"/>
<polygon fill="#63b8ff" stroke="#63b8ff" points="80.61,-54.39 71.24,-59.34 81.65,-61.31 80.61,-54.39"/>
</g>
<!-- Node4 -->
<g id="node5" class="node">
<title>Node4</title>
<g id="a_node5"><a xlink:href="class_neural_network_test.html" target="_top" xlink:title=" ">
<polygon fill="white" stroke="#666666" points="207,-19 106,-19 106,0 207,0 207,-19"/>
<text text-anchor="middle" x="156.5" y="-7" font-family="Helvetica,sans-Serif" font-size="10.00">NeuralNetworkTest</text>
</a>
</g>
</g>
<!-- Node0&#45;&gt;Node4 -->
<g id="edge4" class="edge">
<title>Node0&#45;&gt;Node4</title>
<path fill="none" stroke="#63b8ff" d="M63.45,-49.51C76.23,-42.76 91.73,-34.89 106,-28.5 113.06,-25.34 120.81,-22.21 128.05,-19.43"/>
<polygon fill="#63b8ff" stroke="#63b8ff" points="62.04,-46.83 54.87,-54.63 65.34,-53 62.04,-46.83"/>
</g>
</g>
</svg>
