<?xml version="1.0" encoding="UTF-8" standalone="no"?>
<!DOCTYPE svg PUBLIC "-//W3C//DTD SVG 1.1//EN"
 "http://www.w3.org/Graphics/SVG/1.1/DTD/svg11.dtd">
<!-- Generated by graphviz version 8.0.5 (20230430.1635)
 -->
<!-- Title: Graphical Class Hierarchy Pages: 1 -->
<svg width="389pt" height="138pt"
 viewBox="0.00 0.00 389.00 138.25" xmlns="http://www.w3.org/2000/svg" xmlns:xlink="http://www.w3.org/1999/xlink">
<g id="graph0" class="graph" transform="scale(1 1) rotate(0) translate(4 134.25)">
<title>Graphical Class Hierarchy</title>
<!-- Node0 -->
<g id="node1" class="node">
<title>Node0</title>
<g id="a_node1"><a xlink:href="class_n_n_f_s_core_1_1_layer.html" target="_top" xlink:title="Base class for all layers.">
<polygon fill="white" stroke="#666666" points="92.5,-55.25 0,-55.25 0,-36 92.5,-36 92.5,-55.25"/>
<text text-anchor="middle" x="46.25" y="-41.75" font-family="Helvetica,sans-Serif" font-size="10.00">NNFSCore::Layer</text>
</a>
</g>
</g>
<!-- Node1 -->
<g id="node2" class="node">
<title>Node1</title>
<g id="a_node2"><a xlink:href="class_n_n_f_s_core_1_1_activation.html" target="_top" xlink:title="Base class for all activation functions.">
<polygon fill="white" stroke="#666666" points="240.5,-74.25 128.5,-74.25 128.5,-55 240.5,-55 240.5,-74.25"/>
<text text-anchor="middle" x="184.5" y="-60.75" font-family="Helvetica,sans-Serif" font-size="10.00">NNFSCore::Activation</text>
</a>
</g>
</g>
<!-- Node0&#45;&gt;Node1 -->
<g id="edge1" class="edge">
<title>Node0&#45;&gt;Node1</title>
<path fill="none" stroke="#63b8ff" d="M103.81,-53.51C111.87,-54.64 120.15,-55.79 128.18,-56.91"/>
<polygon fill="#63b8ff" stroke="#63b8ff" points="104.39,-49.92 94,-52 103.42,-56.85 104.39,-49.92"/>
</g>
<!-- Node6 -->
<g id="node7" class="node">
<title>Node6</title>
<g id="a_node7"><a xlink:href="class_n_n_f_s_core_1_1_dense.html" target="_top" xlink:title="Dense layer.">
<polygon fill="white" stroke="#666666" points="232.62,-37.25 136.38,-37.25 136.38,-18 232.62,-18 232.62,-37.25"/>
<text text-anchor="middle" x="184.5" y="-23.75" font-family="Helvetica,sans-Serif" font-size="10.00">NNFSCore::Dense</text>
</a>
</g>
</g>
<!-- Node0&#45;&gt;Node6 -->
<g id="edge6" class="edge">
<title>Node0&#45;&gt;Node6</title>
<path fill="none" stroke="#63b8ff" d="M103.66,-38.17C114.49,-36.74 125.73,-35.26 136.24,-33.87"/>
<polygon fill="#63b8ff" stroke="#63b8ff" points="103.45,-34.8 94,-39.58 104.37,-41.74 103.45,-34.8"/>
</g>
<!-- Node2 -->
<g id="node3" class="node">
<title>Node2</title>
<g id="a_node3"><a xlink:href="class_n_n_f_s_core_1_1_re_l_u.html" target="_top" xlink:title="ReLU activation function.">
<polygon fill="white" stroke="#666666" points="375.75,-130.25 281.75,-130.25 281.75,-111 375.75,-111 375.75,-130.25"/>
<text text-anchor="middle" x="328.75" y="-116.75" font-family="Helvetica,sans-Serif" font-size="10.00">NNFSCore::ReLU</text>
</a>
</g>
</g>
<!-- Node1&#45;&gt;Node2 -->
<g id="edge2" class="edge">
<title>Node1&#45;&gt;Node2</title>
<path fill="none" stroke="#63b8ff" d="M218.63,-79C235.81,-86.32 257.18,-95.2 276.5,-102.62 283.45,-105.3 291,-108.03 298.1,-110.54"/>
<polygon fill="#63b8ff" stroke="#63b8ff" points="220.11,-75.4 209.54,-74.68 217.36,-81.83 220.11,-75.4"/>
</g>
<!-- Node3 -->
<g id="node4" class="node">
<title>Node3</title>
<g id="a_node4"><a xlink:href="class_n_n_f_s_core_1_1_sigmoid.html" target="_top" xlink:title="Sigmoid activation function.">
<polygon fill="white" stroke="#666666" points="380.62,-93.25 276.88,-93.25 276.88,-74 380.62,-74 380.62,-93.25"/>
<text text-anchor="middle" x="328.75" y="-79.75" font-family="Helvetica,sans-Serif" font-size="10.00">NNFSCore::Sigmoid</text>
</a>
</g>
</g>
<!-- Node1&#45;&gt;Node3 -->
<g id="edge3" class="edge">
<title>Node1&#45;&gt;Node3</title>
<path fill="none" stroke="#63b8ff" d="M251.73,-73.47C260.03,-74.58 268.42,-75.7 276.45,-76.77"/>
<polygon fill="#63b8ff" stroke="#63b8ff" points="252.28,-69.88 241.9,-72.03 251.35,-76.82 252.28,-69.88"/>
</g>
<!-- Node4 -->
<g id="node5" class="node">
<title>Node4</title>
<g id="a_node5"><a xlink:href="class_n_n_f_s_core_1_1_softmax.html" target="_top" xlink:title="Softmax activation function.">
<polygon fill="white" stroke="#666666" points="381,-56.25 276.5,-56.25 276.5,-37 381,-37 381,-56.25"/>
<text text-anchor="middle" x="328.75" y="-42.75" font-family="Helvetica,sans-Serif" font-size="10.00">NNFSCore::Softmax</text>
</a>
</g>
</g>
<!-- Node1&#45;&gt;Node4 -->
<g id="edge4" class="edge">
<title>Node1&#45;&gt;Node4</title>
<path fill="none" stroke="#63b8ff" d="M251.73,-56.24C260.03,-55.19 268.42,-54.13 276.45,-53.12"/>
<polygon fill="#63b8ff" stroke="#63b8ff" points="251.39,-52.89 241.9,-57.61 252.27,-59.83 251.39,-52.89"/>
</g>
<!-- Node5 -->
<g id="node6" class="node">
<title>Node5</title>
<g id="a_node6"><a xlink:href="class_n_n_f_s_core_1_1_tanh.html" target="_top" xlink:title=" ">
<polygon fill="white" stroke="#666666" points="373.88,-19.25 283.62,-19.25 283.62,0 373.88,0 373.88,-19.25"/>
<text text-anchor="middle" x="328.75" y="-5.75" font-family="Helvetica,sans-Serif" font-size="10.00">NNFSCore::Tanh</text>
</a>
</g>
</g>
<!-- Node1&#45;&gt;Node5 -->
<g id="edge5" class="edge">
<title>Node1&#45;&gt;Node5</title>
<path fill="none" stroke="#63b8ff" d="M229.35,-51.02C233.15,-49.62 236.91,-48.15 240.5,-46.62 257.16,-39.56 259.92,-34.86 276.5,-27.62 282.9,-24.83 289.88,-22.15 296.57,-19.75"/>
<polygon fill="#63b8ff" stroke="#63b8ff" points="228.55,-47.95 220.28,-54.57 230.88,-54.55 228.55,-47.95"/>
</g>
</g>
</svg>
