<?xml version="1.0" encoding="UTF-8" standalone="no"?>
<!DOCTYPE svg PUBLIC "-//W3C//DTD SVG 1.1//EN"
 "http://www.w3.org/Graphics/SVG/1.1/DTD/svg11.dtd">
<!-- Generated by graphviz version 8.0.5 (20230430.1635)
 -->
<!-- Title: Graphical Class Hierarchy Pages: 1 -->
<svg width="258pt" height="64pt"
 viewBox="0.00 0.00 258.25 64.25" xmlns="http://www.w3.org/2000/svg" xmlns:xlink="http://www.w3.org/1999/xlink">
<g id="graph0" class="graph" transform="scale(1 1) rotate(0) translate(4 60.25)">
<title>Graphical Class Hierarchy</title>
<!-- Node0 -->
<g id="node1" class="node">
<title>Node0</title>
<g id="a_node1"><a xlink:href="class_n_n_f_s_core_1_1_loss.html" target="_top" xlink:title=" ">
<polygon fill="white" stroke="#666666" points="90.25,-37.25 0,-37.25 0,-18 90.25,-18 90.25,-37.25"/>
<text text-anchor="middle" x="45.12" y="-23.75" font-family="Helvetica,sans-Serif" font-size="10.00">NNFSCore::Loss</text>
</a>
</g>
</g>
<!-- Node1 -->
<g id="node2" class="node">
<title>Node1</title>
<g id="a_node2"><a xlink:href="class_n_n_f_s_core_1_1_c_c_e.html" target="_top" xlink:title=" ">
<polygon fill="white" stroke="#666666" points="232.25,-56.25 144.25,-56.25 144.25,-37 232.25,-37 232.25,-56.25"/>
<text text-anchor="middle" x="188.25" y="-42.75" font-family="Helvetica,sans-Serif" font-size="10.00">NNFSCore::CCE</text>
</a>
</g>
</g>
<!-- Node0&#45;&gt;Node1 -->
<g id="edge1" class="edge">
<title>Node0&#45;&gt;Node1</title>
<path fill="none" stroke="#63b8ff" d="M101.09,-35.03C115.37,-36.95 130.54,-38.99 144.11,-40.82"/>
<polygon fill="#63b8ff" stroke="#63b8ff" points="101.77,-31.45 91.39,-33.58 100.83,-38.39 101.77,-31.45"/>
</g>
<!-- Node2 -->
<g id="node3" class="node">
<title>Node2</title>
<g id="a_node3"><a xlink:href="class_n_n_f_s_core_1_1_c_c_e_softmax.html" target="_top" xlink:title=" ">
<polygon fill="white" stroke="#666666" points="250.25,-19.25 126.25,-19.25 126.25,0 250.25,0 250.25,-19.25"/>
<text text-anchor="middle" x="188.25" y="-5.75" font-family="Helvetica,sans-Serif" font-size="10.00">NNFSCore::CCESoftmax</text>
</a>
</g>
</g>
<!-- Node0&#45;&gt;Node2 -->
<g id="edge2" class="edge">
<title>Node0&#45;&gt;Node2</title>
<path fill="none" stroke="#63b8ff" d="M101.19,-20.6C109.26,-19.57 117.63,-18.51 125.82,-17.46"/>
<polygon fill="#63b8ff" stroke="#63b8ff" points="100.87,-17.24 91.39,-21.98 101.75,-24.19 100.87,-17.24"/>
</g>
</g>
</svg>
