<svg width="48" height="49" viewBox="0 0 48 49" fill="none" xmlns="http://www.w3.org/2000/svg">
<rect width="48" height="48" transform="translate(0 0.219971)" fill="var(--page-foreground-color)"/>
<path d="M13.44 23.22V10.62H15.186L20.856 20.484V10.62H22.422V23.22H20.694L15.024 13.356V23.22H13.44ZM25.3052 23.22V10.62H27.0512L32.7212 20.484V10.62H34.2872V23.22H32.5592L26.8892 13.356V23.22H25.3052ZM13.44 37.22V24.62H20.604V26.096H15.078V30.65H20.604V32.126H15.078V37.22H13.44ZM30.3156 37.508C28.8876 37.508 27.7716 37.13 26.9676 36.374C26.1636 35.618 25.7616 34.562 25.7616 33.206H27.3996C27.3996 34.082 27.6576 34.778 28.1736 35.294C28.7016 35.81 29.4096 36.068 30.2976 36.068C31.0896 36.068 31.7016 35.888 32.1336 35.528C32.5656 35.156 32.7816 34.64 32.7816 33.98C32.7816 33.428 32.6256 32.984 32.3136 32.648C32.0136 32.312 31.4976 32.018 30.7656 31.766L28.6776 31.028C26.9856 30.488 26.1396 29.384 26.1396 27.716C26.1396 26.708 26.5056 25.892 27.2376 25.268C27.9696 24.644 28.9236 24.332 30.0996 24.332C31.3356 24.332 32.3256 24.68 33.0696 25.376C33.8136 26.072 34.1856 27.008 34.1856 28.184H32.5476C32.5476 27.404 32.3316 26.804 31.8996 26.384C31.4676 25.952 30.8496 25.736 30.0456 25.736C29.3496 25.736 28.7976 25.91 28.3896 26.258C27.9936 26.594 27.7956 27.05 27.7956 27.626C27.7956 28.154 27.9696 28.592 28.3176 28.94C28.6656 29.288 29.2296 29.594 30.0096 29.858L31.9536 30.542C33.6096 31.13 34.4376 32.264 34.4376 33.944C34.4376 35.012 34.0596 35.876 33.3036 36.536C32.5596 37.184 31.5636 37.508 30.3156 37.508Z" fill="var(--page-background-color)"/>
</svg>
