<?xml version="1.0" encoding="UTF-8" standalone="no"?>
<!DOCTYPE svg PUBLIC "-//W3C//DTD SVG 1.1//EN"
 "http://www.w3.org/Graphics/SVG/1.1/DTD/svg11.dtd">
<!-- Generated by graphviz version 8.0.5 (20230430.1635)
 -->
<!-- Title: tools/paint/main.cpp Pages: 1 -->
<svg width="492pt" height="193pt"
 viewBox="0.00 0.00 492.38 193.00" xmlns="http://www.w3.org/2000/svg" xmlns:xlink="http://www.w3.org/1999/xlink">
<g id="graph0" class="graph" transform="scale(1 1) rotate(0) translate(4 189)">
<title>tools/paint/main.cpp</title>
<!-- Node1 -->
<g id="Node000001" class="node">
<title>Node1</title>
<g id="a_Node000001"><a xlink:title=" ">
<polygon fill="#999999" stroke="#666666" points="241.12,-185 138.12,-185 138.12,-165.75 241.12,-165.75 241.12,-185"/>
<text text-anchor="middle" x="189.62" y="-171.5" font-family="Helvetica,sans-Serif" font-size="10.00">tools/paint/main.cpp</text>
</a>
</g>
</g>
<!-- Node2 -->
<g id="Node000002" class="node">
<title>Node2</title>
<g id="a_Node000002"><a xlink:href="paint_8h.html" target="_top" xlink:title=" ">
<polygon fill="white" stroke="#666666" points="173.88,-129.75 129.38,-129.75 129.38,-110.5 173.88,-110.5 173.88,-129.75"/>
<text text-anchor="middle" x="151.62" y="-116.25" font-family="Helvetica,sans-Serif" font-size="10.00">paint.h</text>
</a>
</g>
</g>
<!-- Node1&#45;&gt;Node2 -->
<g id="edge1_Node000001_Node000002" class="edge">
<title>Node1&#45;&gt;Node2</title>
<g id="a_edge1_Node000001_Node000002"><a xlink:title=" ">
<path fill="none" stroke="#63b8ff" d="M183.35,-165.58C178.21,-158.38 170.77,-147.96 164.39,-139.01"/>
<polygon fill="#63b8ff" stroke="#63b8ff" points="166.69,-137.22 158.04,-131.11 161,-141.28 166.69,-137.22"/>
</a>
</g>
</g>
<!-- Node13 -->
<g id="Node000013" class="node">
<title>Node13</title>
<g id="a_Node000013"><a xlink:title=" ">
<polygon fill="#e0e0e0" stroke="#999999" points="263.38,-129.75 191.88,-129.75 191.88,-110.5 263.38,-110.5 263.38,-129.75"/>
<text text-anchor="middle" x="227.62" y="-116.25" font-family="Helvetica,sans-Serif" font-size="10.00">QApplication</text>
</a>
</g>
</g>
<!-- Node1&#45;&gt;Node13 -->
<g id="edge14_Node000001_Node000013" class="edge">
<title>Node1&#45;&gt;Node13</title>
<g id="a_edge14_Node000001_Node000013"><a xlink:title=" ">
<path fill="none" stroke="#63b8ff" d="M195.9,-165.58C201.04,-158.38 208.48,-147.96 214.86,-139.01"/>
<polygon fill="#63b8ff" stroke="#63b8ff" points="218.25,-141.28 221.21,-131.11 212.56,-137.22 218.25,-141.28"/>
</a>
</g>
</g>
<!-- Node3 -->
<g id="Node000003" class="node">
<title>Node3</title>
<g id="a_Node000003"><a xlink:title=" ">
<polygon fill="#e0e0e0" stroke="#999999" points="57.25,-74.5 0,-74.5 0,-55.25 57.25,-55.25 57.25,-74.5"/>
<text text-anchor="middle" x="28.62" y="-61" font-family="Helvetica,sans-Serif" font-size="10.00">ui_paint.h</text>
</a>
</g>
</g>
<!-- Node2&#45;&gt;Node3 -->
<g id="edge2_Node000002_Node000003" class="edge">
<title>Node2&#45;&gt;Node3</title>
<g id="a_edge2_Node000002_Node000003"><a xlink:title=" ">
<path fill="none" stroke="#63b8ff" d="M130.76,-110.09C111.23,-101.64 81.82,-88.9 59.56,-79.27"/>
<polygon fill="#63b8ff" stroke="#63b8ff" points="61.16,-75.71 50.59,-74.95 58.38,-82.14 61.16,-75.71"/>
</a>
</g>
</g>
<!-- Node4 -->
<g id="Node000004" class="node">
<title>Node4</title>
<g id="a_Node000004"><a xlink:href="canvas_8h.html" target="_top" xlink:title=" ">
<polygon fill="white" stroke="#666666" points="207.12,-74.5 152.12,-74.5 152.12,-55.25 207.12,-55.25 207.12,-74.5"/>
<text text-anchor="middle" x="179.62" y="-61" font-family="Helvetica,sans-Serif" font-size="10.00">canvas.h</text>
</a>
</g>
</g>
<!-- Node2&#45;&gt;Node4 -->
<g id="edge3_Node000002_Node000004" class="edge">
<title>Node2&#45;&gt;Node4</title>
<g id="a_edge3_Node000002_Node000004"><a xlink:title=" ">
<path fill="none" stroke="#63b8ff" d="M156.25,-110.33C159.96,-103.28 165.28,-93.15 169.92,-84.33"/>
<polygon fill="#63b8ff" stroke="#63b8ff" points="173.34,-86.34 174.9,-75.86 167.15,-83.08 173.34,-86.34"/>
</a>
</g>
</g>
<!-- Node5 -->
<g id="Node000005" class="node">
<title>Node5</title>
<g id="a_Node000005"><a xlink:title=" ">
<polygon fill="#e0e0e0" stroke="#999999" points="74.38,-19.25 20.88,-19.25 20.88,0 74.38,0 74.38,-19.25"/>
<text text-anchor="middle" x="47.62" y="-5.75" font-family="Helvetica,sans-Serif" font-size="10.00">QWidget</text>
</a>
</g>
</g>
<!-- Node2&#45;&gt;Node5 -->
<g id="edge10_Node000002_Node000005" class="edge">
<title>Node2&#45;&gt;Node5</title>
<g id="a_edge10_Node000002_Node000005"><a xlink:title=" ">
<path fill="none" stroke="#63b8ff" d="M143.11,-110.25C125.75,-92.13 85.97,-50.63 63.63,-27.32"/>
<polygon fill="#63b8ff" stroke="#63b8ff" points="66.7,-25.42 57.25,-20.63 61.65,-30.27 66.7,-25.42"/>
</a>
</g>
</g>
<!-- Node6 -->
<g id="Node000006" class="node">
<title>Node6</title>
<g id="a_Node000006"><a xlink:title=" ">
<polygon fill="#e0e0e0" stroke="#999999" points="140.38,-19.25 92.88,-19.25 92.88,0 140.38,0 140.38,-19.25"/>
<text text-anchor="middle" x="116.62" y="-5.75" font-family="Helvetica,sans-Serif" font-size="10.00">QLabel</text>
</a>
</g>
</g>
<!-- Node2&#45;&gt;Node6 -->
<g id="edge11_Node000002_Node000006" class="edge">
<title>Node2&#45;&gt;Node6</title>
<g id="a_edge11_Node000002_Node000006"><a xlink:title=" ">
<path fill="none" stroke="#63b8ff" d="M148.76,-110.25C143.12,-92.76 130.46,-53.52 122.82,-29.84"/>
<polygon fill="#63b8ff" stroke="#63b8ff" points="125.93,-29.07 119.53,-20.63 119.27,-31.22 125.93,-29.07"/>
</a>
</g>
</g>
<!-- Node11 -->
<g id="Node000011" class="node">
<title>Node11</title>
<g id="a_Node000011"><a xlink:title=" ">
<polygon fill="#e0e0e0" stroke="#999999" points="299.88,-74.5 225.38,-74.5 225.38,-55.25 299.88,-55.25 299.88,-74.5"/>
<text text-anchor="middle" x="262.62" y="-61" font-family="Helvetica,sans-Serif" font-size="10.00">QPushButton</text>
</a>
</g>
</g>
<!-- Node2&#45;&gt;Node11 -->
<g id="edge12_Node000002_Node000011" class="edge">
<title>Node2&#45;&gt;Node11</title>
<g id="a_edge12_Node000002_Node000011"><a xlink:title=" ">
<path fill="none" stroke="#63b8ff" d="M170.45,-110.09C187.84,-101.75 213.9,-89.25 233.89,-79.66"/>
<polygon fill="#63b8ff" stroke="#63b8ff" points="235.2,-82.43 242.7,-74.95 232.17,-76.12 235.2,-82.43"/>
</a>
</g>
</g>
<!-- Node12 -->
<g id="Node000012" class="node">
<title>Node12</title>
<g id="a_Node000012"><a xlink:title=" ">
<polygon fill="#e0e0e0" stroke="#999999" points="385.12,-74.5 318.12,-74.5 318.12,-55.25 385.12,-55.25 385.12,-74.5"/>
<text text-anchor="middle" x="351.62" y="-61" font-family="Helvetica,sans-Serif" font-size="10.00">NNFS/Core</text>
</a>
</g>
</g>
<!-- Node2&#45;&gt;Node12 -->
<g id="edge13_Node000002_Node000012" class="edge">
<title>Node2&#45;&gt;Node12</title>
<g id="a_edge13_Node000002_Node000012"><a xlink:title=" ">
<path fill="none" stroke="#63b8ff" d="M174.3,-112.78C177.1,-112.01 179.93,-111.23 182.62,-110.5 224.91,-99.04 273.25,-86.31 307.37,-77.39"/>
<polygon fill="#63b8ff" stroke="#63b8ff" points="308.13,-80.55 316.92,-74.63 306.36,-73.77 308.13,-80.55"/>
</a>
</g>
</g>
<!-- Node4&#45;&gt;Node5 -->
<g id="edge4_Node000004_Node000005" class="edge">
<title>Node4&#45;&gt;Node5</title>
<g id="a_edge4_Node000004_Node000005"><a xlink:title=" ">
<path fill="none" stroke="#63b8ff" d="M157.23,-54.84C136.09,-46.31 104.14,-33.42 80.18,-23.76"/>
<polygon fill="#63b8ff" stroke="#63b8ff" points="81.71,-20.2 71.13,-19.7 79.09,-26.69 81.71,-20.2"/>
</a>
</g>
</g>
<!-- Node4&#45;&gt;Node6 -->
<g id="edge5_Node000004_Node000006" class="edge">
<title>Node4&#45;&gt;Node6</title>
<g id="a_edge5_Node000004_Node000006"><a xlink:title=" ">
<path fill="none" stroke="#63b8ff" d="M168.94,-54.84C159.74,-47.07 146.26,-35.67 135.29,-26.4"/>
<polygon fill="#63b8ff" stroke="#63b8ff" points="138.05,-23.31 128.15,-19.52 133.53,-28.65 138.05,-23.31"/>
</a>
</g>
</g>
<!-- Node7 -->
<g id="Node000007" class="node">
<title>Node7</title>
<g id="a_Node000007"><a xlink:title=" ">
<polygon fill="#e0e0e0" stroke="#999999" points="388.62,-19.25 312.62,-19.25 312.62,0 388.62,0 388.62,-19.25"/>
<text text-anchor="middle" x="350.62" y="-5.75" font-family="Helvetica,sans-Serif" font-size="10.00">QVBoxLayout</text>
</a>
</g>
</g>
<!-- Node4&#45;&gt;Node7 -->
<g id="edge6_Node000004_Node000007" class="edge">
<title>Node4&#45;&gt;Node7</title>
<g id="a_edge6_Node000004_Node000007"><a xlink:title=" ">
<path fill="none" stroke="#63b8ff" d="M207.48,-55.2C235.62,-46.44 279.37,-32.82 311.09,-22.94"/>
<polygon fill="#63b8ff" stroke="#63b8ff" points="311.84,-26.06 320.35,-19.74 309.76,-19.37 311.84,-26.06"/>
</a>
</g>
</g>
<!-- Node8 -->
<g id="Node000008" class="node">
<title>Node8</title>
<g id="a_Node000008"><a xlink:title=" ">
<polygon fill="#e0e0e0" stroke="#999999" points="484.38,-19.25 406.88,-19.25 406.88,0 484.38,0 484.38,-19.25"/>
<text text-anchor="middle" x="445.62" y="-5.75" font-family="Helvetica,sans-Serif" font-size="10.00">QMouseEvent</text>
</a>
</g>
</g>
<!-- Node4&#45;&gt;Node8 -->
<g id="edge7_Node000004_Node000008" class="edge">
<title>Node4&#45;&gt;Node8</title>
<g id="a_edge7_Node000004_Node000008"><a xlink:title=" ">
<path fill="none" stroke="#63b8ff" d="M207.48,-57.27C210.56,-56.57 213.66,-55.88 216.62,-55.25 278.23,-42.07 349.5,-28.43 395.96,-19.76"/>
<polygon fill="#63b8ff" stroke="#63b8ff" points="396.45,-23.04 405.64,-17.77 395.17,-16.16 396.45,-23.04"/>
</a>
</g>
</g>
<!-- Node9 -->
<g id="Node000009" class="node">
<title>Node9</title>
<g id="a_Node000009"><a xlink:title=" ">
<polygon fill="#e0e0e0" stroke="#999999" points="212.75,-19.25 158.5,-19.25 158.5,0 212.75,0 212.75,-19.25"/>
<text text-anchor="middle" x="185.62" y="-5.75" font-family="Helvetica,sans-Serif" font-size="10.00">QPainter</text>
</a>
</g>
</g>
<!-- Node4&#45;&gt;Node9 -->
<g id="edge8_Node000004_Node000009" class="edge">
<title>Node4&#45;&gt;Node9</title>
<g id="a_edge8_Node000004_Node000009"><a xlink:title=" ">
<path fill="none" stroke="#63b8ff" d="M180.62,-55.08C181.37,-48.42 182.43,-38.99 183.38,-30.53"/>
<polygon fill="#63b8ff" stroke="#63b8ff" points="186.97,-30.94 184.61,-20.61 180.01,-30.15 186.97,-30.94"/>
</a>
</g>
</g>
<!-- Node10 -->
<g id="Node000010" class="node">
<title>Node10</title>
<g id="a_Node000010"><a xlink:title=" ">
<polygon fill="#e0e0e0" stroke="#999999" points="294.25,-19.25 231,-19.25 231,0 294.25,0 294.25,-19.25"/>
<text text-anchor="middle" x="262.62" y="-5.75" font-family="Helvetica,sans-Serif" font-size="10.00">Eigen/Core</text>
</a>
</g>
</g>
<!-- Node4&#45;&gt;Node10 -->
<g id="edge9_Node000004_Node000010" class="edge">
<title>Node4&#45;&gt;Node10</title>
<g id="a_edge9_Node000004_Node000010"><a xlink:title=" ">
<path fill="none" stroke="#63b8ff" d="M193.7,-54.84C206.22,-46.81 224.77,-34.91 239.47,-25.48"/>
<polygon fill="#63b8ff" stroke="#63b8ff" points="240.95,-28.05 247.48,-19.7 237.17,-22.16 240.95,-28.05"/>
</a>
</g>
</g>
</g>
</svg>
