<?xml version="1.0" encoding="UTF-8" standalone="no"?>
<!DOCTYPE svg PUBLIC "-//W3C//DTD SVG 1.1//EN"
 "http://www.w3.org/Graphics/SVG/1.1/DTD/svg11.dtd">
<!-- Generated by graphviz version 8.0.5 (20230430.1635)
 -->
<!-- Title: tools/mnist.cpp Pages: 1 -->
<svg width="935pt" height="83pt"
 viewBox="0.00 0.00 935.12 82.50" xmlns="http://www.w3.org/2000/svg" xmlns:xlink="http://www.w3.org/1999/xlink">
<g id="graph0" class="graph" transform="scale(1 1) rotate(0) translate(4 78.5)">
<title>tools/mnist.cpp</title>
<!-- Node1 -->
<g id="Node000001" class="node">
<title>Node1</title>
<g id="a_Node000001"><a xlink:title=" ">
<polygon fill="#999999" stroke="#666666" points="485.25,-74.5 403.25,-74.5 403.25,-55.25 485.25,-55.25 485.25,-74.5"/>
<text text-anchor="middle" x="444.25" y="-61" font-family="Helvetica,sans-Serif" font-size="10.00">tools/mnist.cpp</text>
</a>
</g>
</g>
<!-- Node2 -->
<g id="Node000002" class="node">
<title>Node2</title>
<g id="a_Node000002"><a xlink:title=" ">
<polygon fill="#e0e0e0" stroke="#999999" points="44.5,-19.25 0,-19.25 0,0 44.5,0 44.5,-19.25"/>
<text text-anchor="middle" x="22.25" y="-5.75" font-family="Helvetica,sans-Serif" font-size="10.00">stdio.h</text>
</a>
</g>
</g>
<!-- Node1&#45;&gt;Node2 -->
<g id="edge1_Node000001_Node000002" class="edge">
<title>Node1&#45;&gt;Node2</title>
<g id="a_edge1_Node000001_Node000002"><a xlink:title=" ">
<path fill="none" stroke="#63b8ff" d="M402.83,-61.3C332.99,-56.5 187.27,-44.48 55.51,-19.42"/>
<polygon fill="#63b8ff" stroke="#63b8ff" points="56.32,-15.82 45.84,-17.35 54.99,-22.69 56.32,-15.82"/>
</a>
</g>
</g>
<!-- Node3 -->
<g id="Node000003" class="node">
<title>Node3</title>
<g id="a_Node000003"><a xlink:title=" ">
<polygon fill="#e0e0e0" stroke="#999999" points="116,-19.25 62.5,-19.25 62.5,0 116,0 116,-19.25"/>
<text text-anchor="middle" x="89.25" y="-5.75" font-family="Helvetica,sans-Serif" font-size="10.00">iostream</text>
</a>
</g>
</g>
<!-- Node1&#45;&gt;Node3 -->
<g id="edge2_Node000001_Node000003" class="edge">
<title>Node1&#45;&gt;Node3</title>
<g id="a_edge2_Node000001_Node000003"><a xlink:title=" ">
<path fill="none" stroke="#63b8ff" d="M402.86,-59.48C343.68,-52.9 231.32,-39.3 127.04,-19.64"/>
<polygon fill="#63b8ff" stroke="#63b8ff" points="127.8,-16.03 117.32,-17.59 126.49,-22.9 127.8,-16.03"/>
</a>
</g>
</g>
<!-- Node4 -->
<g id="Node000004" class="node">
<title>Node4</title>
<g id="a_Node000004"><a xlink:title=" ">
<polygon fill="#e0e0e0" stroke="#999999" points="182.75,-19.25 133.75,-19.25 133.75,0 182.75,0 182.75,-19.25"/>
<text text-anchor="middle" x="158.25" y="-5.75" font-family="Helvetica,sans-Serif" font-size="10.00">fstream</text>
</a>
</g>
</g>
<!-- Node1&#45;&gt;Node4 -->
<g id="edge3_Node000001_Node000004" class="edge">
<title>Node1&#45;&gt;Node4</title>
<g id="a_edge3_Node000001_Node000004"><a xlink:title=" ">
<path fill="none" stroke="#63b8ff" d="M402.86,-57.63C354.75,-50.14 272.76,-36.66 193.69,-19.65"/>
<polygon fill="#63b8ff" stroke="#63b8ff" points="194.58,-16.05 184.06,-17.34 193.09,-22.89 194.58,-16.05"/>
</a>
</g>
</g>
<!-- Node5 -->
<g id="Node000005" class="node">
<title>Node5</title>
<g id="a_Node000005"><a xlink:title=" ">
<polygon fill="#e0e0e0" stroke="#999999" points="243.75,-19.25 200.75,-19.25 200.75,0 243.75,0 243.75,-19.25"/>
<text text-anchor="middle" x="222.25" y="-5.75" font-family="Helvetica,sans-Serif" font-size="10.00">vector</text>
</a>
</g>
</g>
<!-- Node1&#45;&gt;Node5 -->
<g id="edge4_Node000001_Node000005" class="edge">
<title>Node1&#45;&gt;Node5</title>
<g id="a_edge4_Node000001_Node000005"><a xlink:title=" ">
<path fill="none" stroke="#63b8ff" d="M403.14,-54.79C366.65,-46.62 311.64,-34 254.85,-19.58"/>
<polygon fill="#63b8ff" stroke="#63b8ff" points="255.79,-15.95 245.24,-16.86 254.06,-22.73 255.79,-15.95"/>
</a>
</g>
</g>
<!-- Node6 -->
<g id="Node000006" class="node">
<title>Node6</title>
<g id="a_Node000006"><a xlink:title=" ">
<polygon fill="#e0e0e0" stroke="#999999" points="302.25,-19.25 262.25,-19.25 262.25,0 302.25,0 302.25,-19.25"/>
<text text-anchor="middle" x="282.25" y="-5.75" font-family="Helvetica,sans-Serif" font-size="10.00">string</text>
</a>
</g>
</g>
<!-- Node1&#45;&gt;Node6 -->
<g id="edge5_Node000001_Node000006" class="edge">
<title>Node1&#45;&gt;Node6</title>
<g id="a_edge5_Node000001_Node000006"><a xlink:title=" ">
<path fill="none" stroke="#63b8ff" d="M416.77,-54.84C387.99,-45.38 342.88,-30.56 312.95,-20.72"/>
<polygon fill="#63b8ff" stroke="#63b8ff" points="314.26,-17.13 303.67,-17.34 312.07,-23.78 314.26,-17.13"/>
</a>
</g>
</g>
<!-- Node7 -->
<g id="Node000007" class="node">
<title>Node7</title>
<g id="a_Node000007"><a xlink:title=" ">
<polygon fill="#e0e0e0" stroke="#999999" points="363.75,-19.25 320.75,-19.25 320.75,0 363.75,0 363.75,-19.25"/>
<text text-anchor="middle" x="342.25" y="-5.75" font-family="Helvetica,sans-Serif" font-size="10.00">cmath</text>
</a>
</g>
</g>
<!-- Node1&#45;&gt;Node7 -->
<g id="edge6_Node000001_Node000007" class="edge">
<title>Node1&#45;&gt;Node7</title>
<g id="a_edge6_Node000001_Node000007"><a xlink:title=" ">
<path fill="none" stroke="#63b8ff" d="M426.95,-54.84C411.12,-46.58 387.46,-34.23 369.17,-24.68"/>
<polygon fill="#63b8ff" stroke="#63b8ff" points="371.12,-21.23 360.64,-19.7 367.88,-27.43 371.12,-21.23"/>
</a>
</g>
</g>
<!-- Node8 -->
<g id="Node000008" class="node">
<title>Node8</title>
<g id="a_Node000008"><a xlink:title=" ">
<polygon fill="#e0e0e0" stroke="#999999" points="437.12,-19.25 381.38,-19.25 381.38,0 437.12,0 437.12,-19.25"/>
<text text-anchor="middle" x="409.25" y="-5.75" font-family="Helvetica,sans-Serif" font-size="10.00">algorithm</text>
</a>
</g>
</g>
<!-- Node1&#45;&gt;Node8 -->
<g id="edge7_Node000001_Node000008" class="edge">
<title>Node1&#45;&gt;Node8</title>
<g id="a_edge7_Node000001_Node000008"><a xlink:title=" ">
<path fill="none" stroke="#63b8ff" d="M438.47,-55.08C433.79,-47.96 427.03,-37.68 421.19,-28.8"/>
<polygon fill="#63b8ff" stroke="#63b8ff" points="423.57,-27.04 415.16,-20.61 417.72,-30.89 423.57,-27.04"/>
</a>
</g>
</g>
<!-- Node9 -->
<g id="Node000009" class="node">
<title>Node9</title>
<g id="a_Node000009"><a xlink:title=" ">
<polygon fill="#e0e0e0" stroke="#999999" points="503.38,-19.25 455.12,-19.25 455.12,0 503.38,0 503.38,-19.25"/>
<text text-anchor="middle" x="479.25" y="-5.75" font-family="Helvetica,sans-Serif" font-size="10.00">random</text>
</a>
</g>
</g>
<!-- Node1&#45;&gt;Node9 -->
<g id="edge8_Node000001_Node000009" class="edge">
<title>Node1&#45;&gt;Node9</title>
<g id="a_edge8_Node000001_Node000009"><a xlink:title=" ">
<path fill="none" stroke="#63b8ff" d="M450.03,-55.08C454.71,-47.96 461.47,-37.68 467.31,-28.8"/>
<polygon fill="#63b8ff" stroke="#63b8ff" points="470.78,-30.89 473.34,-20.61 464.93,-27.04 470.78,-30.89"/>
</a>
</g>
</g>
<!-- Node10 -->
<g id="Node000010" class="node">
<title>Node10</title>
<g id="a_Node000010"><a xlink:title=" ">
<polygon fill="#e0e0e0" stroke="#999999" points="581,-19.25 521.5,-19.25 521.5,0 581,0 581,-19.25"/>
<text text-anchor="middle" x="551.25" y="-5.75" font-family="Helvetica,sans-Serif" font-size="10.00">filesystem</text>
</a>
</g>
</g>
<!-- Node1&#45;&gt;Node10 -->
<g id="edge9_Node000001_Node000010" class="edge">
<title>Node1&#45;&gt;Node10</title>
<g id="a_edge9_Node000001_Node000010"><a xlink:title=" ">
<path fill="none" stroke="#63b8ff" d="M462.4,-54.84C479.08,-46.54 504.05,-34.11 523.28,-24.54"/>
<polygon fill="#63b8ff" stroke="#63b8ff" points="524.62,-27.29 532.01,-19.7 521.5,-21.02 524.62,-27.29"/>
</a>
</g>
</g>
<!-- Node11 -->
<g id="Node000011" class="node">
<title>Node11</title>
<g id="a_Node000011"><a xlink:title=" ">
<polygon fill="#e0e0e0" stroke="#999999" points="645.62,-19.25 598.88,-19.25 598.88,0 645.62,0 645.62,-19.25"/>
<text text-anchor="middle" x="622.25" y="-5.75" font-family="Helvetica,sans-Serif" font-size="10.00">stdlib.h</text>
</a>
</g>
</g>
<!-- Node1&#45;&gt;Node11 -->
<g id="edge10_Node000001_Node000011" class="edge">
<title>Node1&#45;&gt;Node11</title>
<g id="a_edge10_Node000001_Node000011"><a xlink:title=" ">
<path fill="none" stroke="#63b8ff" d="M474.45,-54.84C505.9,-45.43 555.1,-30.71 587.99,-20.87"/>
<polygon fill="#63b8ff" stroke="#63b8ff" points="588.89,-23.96 597.47,-17.74 586.89,-17.25 588.89,-23.96"/>
</a>
</g>
</g>
<!-- Node12 -->
<g id="Node000012" class="node">
<title>Node12</title>
<g id="a_Node000012"><a xlink:title=" ">
<polygon fill="#e0e0e0" stroke="#999999" points="713.12,-19.25 663.38,-19.25 663.38,0 713.12,0 713.12,-19.25"/>
<text text-anchor="middle" x="688.25" y="-5.75" font-family="Helvetica,sans-Serif" font-size="10.00">unistd.h</text>
</a>
</g>
</g>
<!-- Node1&#45;&gt;Node12 -->
<g id="edge11_Node000001_Node000012" class="edge">
<title>Node1&#45;&gt;Node12</title>
<g id="a_edge11_Node000001_Node000012"><a xlink:title=" ">
<path fill="none" stroke="#63b8ff" d="M485.4,-55.63C525.58,-47.46 588.71,-34.34 652.39,-19.61"/>
<polygon fill="#63b8ff" stroke="#63b8ff" points="653.08,-22.82 662.03,-17.14 651.49,-16 653.08,-22.82"/>
</a>
</g>
</g>
<!-- Node13 -->
<g id="Node000013" class="node">
<title>Node13</title>
<g id="a_Node000013"><a xlink:title=" ">
<polygon fill="#e0e0e0" stroke="#999999" points="794.88,-19.25 731.62,-19.25 731.62,0 794.88,0 794.88,-19.25"/>
<text text-anchor="middle" x="763.25" y="-5.75" font-family="Helvetica,sans-Serif" font-size="10.00">Eigen/Core</text>
</a>
</g>
</g>
<!-- Node1&#45;&gt;Node13 -->
<g id="edge12_Node000001_Node000013" class="edge">
<title>Node1&#45;&gt;Node13</title>
<g id="a_edge12_Node000001_Node000013"><a xlink:title=" ">
<path fill="none" stroke="#63b8ff" d="M485.34,-57.91C537.61,-50.19 630.93,-35.93 720.84,-19.43"/>
<polygon fill="#63b8ff" stroke="#63b8ff" points="721.3,-22.72 730.5,-17.46 720.03,-15.84 721.3,-22.72"/>
</a>
</g>
</g>
<!-- Node14 -->
<g id="Node000014" class="node">
<title>Node14</title>
<g id="a_Node000014"><a xlink:title=" ">
<polygon fill="#e0e0e0" stroke="#999999" points="871.25,-19.25 813.25,-19.25 813.25,0 871.25,0 871.25,-19.25"/>
<text text-anchor="middle" x="842.25" y="-5.75" font-family="Helvetica,sans-Serif" font-size="10.00">curl/curl.h</text>
</a>
</g>
</g>
<!-- Node1&#45;&gt;Node14 -->
<g id="edge13_Node000001_Node000014" class="edge">
<title>Node1&#45;&gt;Node14</title>
<g id="a_edge13_Node000001_Node000014"><a xlink:title=" ">
<path fill="none" stroke="#63b8ff" d="M485.48,-60.12C550.69,-53.88 681.79,-40.14 802.34,-19.43"/>
<polygon fill="#63b8ff" stroke="#63b8ff" points="802.6,-22.77 811.85,-17.6 801.4,-15.87 802.6,-22.77"/>
</a>
</g>
</g>
<!-- Node15 -->
<g id="Node000015" class="node">
<title>Node15</title>
<g id="a_Node000015"><a xlink:title=" ">
<polygon fill="#e0e0e0" stroke="#999999" points="927.12,-19.25 889.38,-19.25 889.38,0 927.12,0 927.12,-19.25"/>
<text text-anchor="middle" x="908.25" y="-5.75" font-family="Helvetica,sans-Serif" font-size="10.00">zlib.h</text>
</a>
</g>
</g>
<!-- Node1&#45;&gt;Node15 -->
<g id="edge14_Node000001_Node000015" class="edge">
<title>Node1&#45;&gt;Node15</title>
<g id="a_edge14_Node000001_Node000015"><a xlink:title=" ">
<path fill="none" stroke="#63b8ff" d="M485.53,-62.36C561.59,-58.97 728.99,-48.82 878.38,-19.23"/>
<polygon fill="#63b8ff" stroke="#63b8ff" points="878.99,-22.48 888.1,-17.07 877.6,-15.62 878.99,-22.48"/>
</a>
</g>
</g>
</g>
</svg>
