<?xml version="1.0" encoding="UTF-8" standalone="no"?>
<!DOCTYPE svg PUBLIC "-//W3C//DTD SVG 1.1//EN"
 "http://www.w3.org/Graphics/SVG/1.1/DTD/svg11.dtd">
<!-- Generated by graphviz version 8.0.5 (20230430.1635)
 -->
<!-- Title: tools/train.cpp Pages: 1 -->
<svg width="935pt" height="138pt"
 viewBox="0.00 0.00 935.25 137.75" xmlns="http://www.w3.org/2000/svg" xmlns:xlink="http://www.w3.org/1999/xlink">
<g id="graph0" class="graph" transform="scale(1 1) rotate(0) translate(4 133.75)">
<title>tools/train.cpp</title>
<!-- Node1 -->
<g id="Node000001" class="node">
<title>Node1</title>
<g id="a_Node000001"><a xlink:title=" ">
<polygon fill="#999999" stroke="#666666" points="305.12,-129.75 228.38,-129.75 228.38,-110.5 305.12,-110.5 305.12,-129.75"/>
<text text-anchor="middle" x="266.75" y="-116.25" font-family="Helvetica,sans-Serif" font-size="10.00">tools/train.cpp</text>
</a>
</g>
</g>
<!-- Node2 -->
<g id="Node000002" class="node">
<title>Node2</title>
<g id="a_Node000002"><a xlink:title=" ">
<polygon fill="#e0e0e0" stroke="#999999" points="53.5,-19.25 0,-19.25 0,0 53.5,0 53.5,-19.25"/>
<text text-anchor="middle" x="26.75" y="-5.75" font-family="Helvetica,sans-Serif" font-size="10.00">iostream</text>
</a>
</g>
</g>
<!-- Node1&#45;&gt;Node2 -->
<g id="edge1_Node000001_Node000002" class="edge">
<title>Node1&#45;&gt;Node2</title>
<g id="a_edge1_Node000001_Node000002"><a xlink:title=" ">
<path fill="none" stroke="#63b8ff" d="M246.21,-110.15C225.77,-101.2 193.54,-87.02 165.75,-74.5 127.75,-57.37 84.1,-37.24 56.01,-24.22"/>
<polygon fill="#63b8ff" stroke="#63b8ff" points="57.59,-20.63 47.05,-19.6 54.65,-26.98 57.59,-20.63"/>
</a>
</g>
</g>
<!-- Node3 -->
<g id="Node000003" class="node">
<title>Node3</title>
<g id="a_Node000003"><a xlink:title=" ">
<polygon fill="#e0e0e0" stroke="#999999" points="114.25,-19.25 71.25,-19.25 71.25,0 114.25,0 114.25,-19.25"/>
<text text-anchor="middle" x="92.75" y="-5.75" font-family="Helvetica,sans-Serif" font-size="10.00">vector</text>
</a>
</g>
</g>
<!-- Node1&#45;&gt;Node3 -->
<g id="edge2_Node000001_Node000003" class="edge">
<title>Node1&#45;&gt;Node3</title>
<g id="a_edge2_Node000001_Node000003"><a xlink:title=" ">
<path fill="none" stroke="#63b8ff" d="M252.21,-110.06C222.07,-91.27 152.54,-47.91 116.06,-25.16"/>
<polygon fill="#63b8ff" stroke="#63b8ff" points="118.46,-21.91 108.12,-19.59 114.76,-27.85 118.46,-21.91"/>
</a>
</g>
</g>
<!-- Node4 -->
<g id="Node000004" class="node">
<title>Node4</title>
<g id="a_Node000004"><a xlink:title=" ">
<polygon fill="#e0e0e0" stroke="#999999" points="172.75,-19.25 132.75,-19.25 132.75,0 172.75,0 172.75,-19.25"/>
<text text-anchor="middle" x="152.75" y="-5.75" font-family="Helvetica,sans-Serif" font-size="10.00">string</text>
</a>
</g>
</g>
<!-- Node1&#45;&gt;Node4 -->
<g id="edge3_Node000001_Node000004" class="edge">
<title>Node1&#45;&gt;Node4</title>
<g id="a_edge3_Node000001_Node000004"><a xlink:title=" ">
<path fill="none" stroke="#63b8ff" d="M257.42,-110.25C238.3,-92.05 194.4,-50.27 169.97,-27.01"/>
<polygon fill="#63b8ff" stroke="#63b8ff" points="172.86,-24.99 163.21,-20.63 168.04,-30.06 172.86,-24.99"/>
</a>
</g>
</g>
<!-- Node5 -->
<g id="Node000005" class="node">
<title>Node5</title>
<g id="a_Node000005"><a xlink:title=" ">
<polygon fill="#e0e0e0" stroke="#999999" points="234.25,-19.25 191.25,-19.25 191.25,0 234.25,0 234.25,-19.25"/>
<text text-anchor="middle" x="212.75" y="-5.75" font-family="Helvetica,sans-Serif" font-size="10.00">cmath</text>
</a>
</g>
</g>
<!-- Node1&#45;&gt;Node5 -->
<g id="edge4_Node000001_Node000005" class="edge">
<title>Node1&#45;&gt;Node5</title>
<g id="a_edge4_Node000001_Node000005"><a xlink:title=" ">
<path fill="none" stroke="#63b8ff" d="M262.33,-110.25C253.55,-92.6 233.74,-52.8 221.99,-29.2"/>
<polygon fill="#63b8ff" stroke="#63b8ff" points="224.82,-28.02 217.23,-20.63 218.55,-31.14 224.82,-28.02"/>
</a>
</g>
</g>
<!-- Node6 -->
<g id="Node000006" class="node">
<title>Node6</title>
<g id="a_Node000006"><a xlink:title=" ">
<polygon fill="#e0e0e0" stroke="#999999" points="459,-74.5 408.5,-74.5 408.5,-55.25 459,-55.25 459,-74.5"/>
<text text-anchor="middle" x="433.75" y="-61" font-family="Helvetica,sans-Serif" font-size="10.00">memory</text>
</a>
</g>
</g>
<!-- Node1&#45;&gt;Node6 -->
<g id="edge5_Node000001_Node000006" class="edge">
<title>Node1&#45;&gt;Node6</title>
<g id="a_edge5_Node000001_Node000006"><a xlink:title=" ">
<path fill="none" stroke="#63b8ff" d="M295.08,-110.09C323.38,-101.07 366.99,-87.16 397.74,-77.36"/>
<polygon fill="#63b8ff" stroke="#63b8ff" points="398.56,-80.45 407.03,-74.08 396.44,-73.78 398.56,-80.45"/>
</a>
</g>
</g>
<!-- Node7 -->
<g id="Node000007" class="node">
<title>Node7</title>
<g id="a_Node000007"><a xlink:title=" ">
<polygon fill="#e0e0e0" stroke="#999999" points="301.62,-19.25 251.88,-19.25 251.88,0 301.62,0 301.62,-19.25"/>
<text text-anchor="middle" x="276.75" y="-5.75" font-family="Helvetica,sans-Serif" font-size="10.00">unistd.h</text>
</a>
</g>
</g>
<!-- Node1&#45;&gt;Node7 -->
<g id="edge6_Node000001_Node000007" class="edge">
<title>Node1&#45;&gt;Node7</title>
<g id="a_edge6_Node000001_Node000007"><a xlink:title=" ">
<path fill="none" stroke="#63b8ff" d="M267.57,-110.25C269.17,-92.92 272.73,-54.23 274.92,-30.49"/>
<polygon fill="#63b8ff" stroke="#63b8ff" points="278.49,-30.91 275.92,-20.63 271.52,-30.26 278.49,-30.91"/>
</a>
</g>
</g>
<!-- Node8 -->
<g id="Node000008" class="node">
<title>Node8</title>
<g id="a_Node000008"><a xlink:title=" ">
<polygon fill="#e0e0e0" stroke="#999999" points="383.38,-19.25 320.12,-19.25 320.12,0 383.38,0 383.38,-19.25"/>
<text text-anchor="middle" x="351.75" y="-5.75" font-family="Helvetica,sans-Serif" font-size="10.00">Eigen/Core</text>
</a>
</g>
</g>
<!-- Node1&#45;&gt;Node8 -->
<g id="edge7_Node000001_Node000008" class="edge">
<title>Node1&#45;&gt;Node8</title>
<g id="a_edge7_Node000001_Node000008"><a xlink:title=" ">
<path fill="none" stroke="#63b8ff" d="M273.71,-110.25C287.71,-92.36 319.55,-51.72 337.94,-28.25"/>
<polygon fill="#63b8ff" stroke="#63b8ff" points="341.29,-30.66 344.7,-20.63 335.78,-26.34 341.29,-30.66"/>
</a>
</g>
</g>
<!-- Node9 -->
<g id="Node000009" class="node">
<title>Node9</title>
<g id="a_Node000009"><a xlink:title=" ">
<polygon fill="#e0e0e0" stroke="#999999" points="544.25,-74.5 477.25,-74.5 477.25,-55.25 544.25,-55.25 544.25,-74.5"/>
<text text-anchor="middle" x="510.75" y="-61" font-family="Helvetica,sans-Serif" font-size="10.00">NNFS/Core</text>
</a>
</g>
</g>
<!-- Node1&#45;&gt;Node9 -->
<g id="edge8_Node000001_Node000009" class="edge">
<title>Node1&#45;&gt;Node9</title>
<g id="a_edge8_Node000001_Node000009"><a xlink:title=" ">
<path fill="none" stroke="#63b8ff" d="M305.41,-110.69C349.2,-101.13 420.43,-85.59 466.43,-75.55"/>
<polygon fill="#63b8ff" stroke="#63b8ff" points="466.96,-78.8 475.98,-73.24 465.47,-71.96 466.96,-78.8"/>
</a>
</g>
</g>
<!-- Node10 -->
<g id="Node000010" class="node">
<title>Node10</title>
<g id="a_Node000010"><a xlink:href="mnist_8cpp.html" target="_top" xlink:title=" ">
<polygon fill="white" stroke="#666666" points="390.75,-74.5 332.75,-74.5 332.75,-55.25 390.75,-55.25 390.75,-74.5"/>
<text text-anchor="middle" x="361.75" y="-61" font-family="Helvetica,sans-Serif" font-size="10.00">mnist.cpp</text>
</a>
</g>
</g>
<!-- Node1&#45;&gt;Node10 -->
<g id="edge9_Node000001_Node000010" class="edge">
<title>Node1&#45;&gt;Node10</title>
<g id="a_edge9_Node000001_Node000010"><a xlink:title=" ">
<path fill="none" stroke="#63b8ff" d="M282.87,-110.09C297.47,-101.91 319.24,-89.71 336.21,-80.19"/>
<polygon fill="#63b8ff" stroke="#63b8ff" points="337.54,-82.9 344.56,-74.95 334.12,-76.79 337.54,-82.9"/>
</a>
</g>
</g>
<!-- Node10&#45;&gt;Node2 -->
<g id="edge11_Node000010_Node000002" class="edge">
<title>Node10&#45;&gt;Node2</title>
<g id="a_edge11_Node000010_Node000002"><a xlink:title=" ">
<path fill="none" stroke="#63b8ff" d="M332.63,-60.47C280.64,-54.18 168.22,-39.71 64.48,-19.65"/>
<polygon fill="#63b8ff" stroke="#63b8ff" points="65.31,-16.05 54.83,-17.56 63.97,-22.92 65.31,-16.05"/>
</a>
</g>
</g>
<!-- Node10&#45;&gt;Node3 -->
<g id="edge13_Node000010_Node000003" class="edge">
<title>Node10&#45;&gt;Node3</title>
<g id="a_edge13_Node000010_Node000003"><a xlink:title=" ">
<path fill="none" stroke="#63b8ff" d="M332.27,-59.19C288.98,-52.12 205.49,-37.81 125.01,-19.37"/>
<polygon fill="#63b8ff" stroke="#63b8ff" points="126.24,-15.83 115.71,-16.99 124.66,-22.65 126.24,-15.83"/>
</a>
</g>
</g>
<!-- Node10&#45;&gt;Node4 -->
<g id="edge14_Node000010_Node000004" class="edge">
<title>Node10&#45;&gt;Node4</title>
<g id="a_edge14_Node000010_Node000004"><a xlink:title=" ">
<path fill="none" stroke="#63b8ff" d="M332.34,-57.02C298.63,-49.07 241.5,-35.31 183.46,-19.62"/>
<polygon fill="#63b8ff" stroke="#63b8ff" points="184.57,-16.02 174,-16.78 182.73,-22.78 184.57,-16.02"/>
</a>
</g>
</g>
<!-- Node10&#45;&gt;Node5 -->
<g id="edge15_Node000010_Node000005" class="edge">
<title>Node10&#45;&gt;Node5</title>
<g id="a_edge15_Node000010_Node000005"><a xlink:title=" ">
<path fill="none" stroke="#63b8ff" d="M336.47,-54.84C311.26,-45.83 272.43,-31.95 245,-22.15"/>
<polygon fill="#63b8ff" stroke="#63b8ff" points="246.34,-18.56 235.75,-18.49 243.98,-25.15 246.34,-18.56"/>
</a>
</g>
</g>
<!-- Node10&#45;&gt;Node7 -->
<g id="edge20_Node000010_Node000007" class="edge">
<title>Node10&#45;&gt;Node7</title>
<g id="a_edge20_Node000010_Node000007"><a xlink:title=" ">
<path fill="none" stroke="#63b8ff" d="M347.33,-54.84C334.51,-46.81 315.52,-34.91 300.46,-25.48"/>
<polygon fill="#63b8ff" stroke="#63b8ff" points="302.57,-22.05 292.24,-19.7 298.86,-27.98 302.57,-22.05"/>
</a>
</g>
</g>
<!-- Node10&#45;&gt;Node8 -->
<g id="edge21_Node000010_Node000008" class="edge">
<title>Node10&#45;&gt;Node8</title>
<g id="a_edge21_Node000010_Node000008"><a xlink:title=" ">
<path fill="none" stroke="#63b8ff" d="M360.1,-55.08C358.83,-48.34 357.04,-38.77 355.43,-30.24"/>
<polygon fill="#63b8ff" stroke="#63b8ff" points="358.72,-29.79 353.44,-20.61 351.84,-31.08 358.72,-29.79"/>
</a>
</g>
</g>
<!-- Node11 -->
<g id="Node000011" class="node">
<title>Node11</title>
<g id="a_Node000011"><a xlink:title=" ">
<polygon fill="#e0e0e0" stroke="#999999" points="860,-19.25 815.5,-19.25 815.5,0 860,0 860,-19.25"/>
<text text-anchor="middle" x="837.75" y="-5.75" font-family="Helvetica,sans-Serif" font-size="10.00">stdio.h</text>
</a>
</g>
</g>
<!-- Node10&#45;&gt;Node11 -->
<g id="edge10_Node000010_Node000011" class="edge">
<title>Node10&#45;&gt;Node11</title>
<g id="a_edge10_Node000010_Node000011"><a xlink:title=" ">
<path fill="none" stroke="#63b8ff" d="M391.13,-56.79C394.03,-56.22 396.94,-55.69 399.75,-55.25 575.64,-27.64 626.12,-50.78 804.37,-19.36"/>
<polygon fill="#63b8ff" stroke="#63b8ff" points="804.95,-22.64 814.17,-17.42 803.71,-15.75 804.95,-22.64"/>
</a>
</g>
</g>
<!-- Node12 -->
<g id="Node000012" class="node">
<title>Node12</title>
<g id="a_Node000012"><a xlink:title=" ">
<polygon fill="#e0e0e0" stroke="#999999" points="927.25,-19.25 878.25,-19.25 878.25,0 927.25,0 927.25,-19.25"/>
<text text-anchor="middle" x="902.75" y="-5.75" font-family="Helvetica,sans-Serif" font-size="10.00">fstream</text>
</a>
</g>
</g>
<!-- Node10&#45;&gt;Node12 -->
<g id="edge12_Node000010_Node000012" class="edge">
<title>Node10&#45;&gt;Node12</title>
<g id="a_edge12_Node000010_Node000012"><a xlink:title=" ">
<path fill="none" stroke="#63b8ff" d="M391.13,-56.76C394.03,-56.19 396.94,-55.67 399.75,-55.25 603.03,-24.55 660.55,-52.13 867.37,-19.16"/>
<polygon fill="#63b8ff" stroke="#63b8ff" points="867.66,-22.49 876.97,-17.43 866.54,-15.58 867.66,-22.49"/>
</a>
</g>
</g>
<!-- Node13 -->
<g id="Node000013" class="node">
<title>Node13</title>
<g id="a_Node000013"><a xlink:title=" ">
<polygon fill="#e0e0e0" stroke="#999999" points="457.62,-19.25 401.88,-19.25 401.88,0 457.62,0 457.62,-19.25"/>
<text text-anchor="middle" x="429.75" y="-5.75" font-family="Helvetica,sans-Serif" font-size="10.00">algorithm</text>
</a>
</g>
</g>
<!-- Node10&#45;&gt;Node13 -->
<g id="edge16_Node000010_Node000013" class="edge">
<title>Node10&#45;&gt;Node13</title>
<g id="a_edge16_Node000010_Node000013"><a xlink:title=" ">
<path fill="none" stroke="#63b8ff" d="M373.29,-54.84C383.31,-46.99 398.05,-35.45 409.96,-26.12"/>
<polygon fill="#63b8ff" stroke="#63b8ff" points="411.67,-28.45 417.39,-19.52 407.35,-22.93 411.67,-28.45"/>
</a>
</g>
</g>
<!-- Node14 -->
<g id="Node000014" class="node">
<title>Node14</title>
<g id="a_Node000014"><a xlink:title=" ">
<polygon fill="#e0e0e0" stroke="#999999" points="523.88,-19.25 475.62,-19.25 475.62,0 523.88,0 523.88,-19.25"/>
<text text-anchor="middle" x="499.75" y="-5.75" font-family="Helvetica,sans-Serif" font-size="10.00">random</text>
</a>
</g>
</g>
<!-- Node10&#45;&gt;Node14 -->
<g id="edge17_Node000010_Node000014" class="edge">
<title>Node10&#45;&gt;Node14</title>
<g id="a_edge17_Node000010_Node000014"><a xlink:title=" ">
<path fill="none" stroke="#63b8ff" d="M385.16,-54.84C407.36,-46.27 440.97,-33.31 466.05,-23.63"/>
<polygon fill="#63b8ff" stroke="#63b8ff" points="467.16,-26.57 475.23,-19.7 464.64,-20.04 467.16,-26.57"/>
</a>
</g>
</g>
<!-- Node15 -->
<g id="Node000015" class="node">
<title>Node15</title>
<g id="a_Node000015"><a xlink:title=" ">
<polygon fill="#e0e0e0" stroke="#999999" points="601.5,-19.25 542,-19.25 542,0 601.5,0 601.5,-19.25"/>
<text text-anchor="middle" x="571.75" y="-5.75" font-family="Helvetica,sans-Serif" font-size="10.00">filesystem</text>
</a>
</g>
</g>
<!-- Node10&#45;&gt;Node15 -->
<g id="edge18_Node000010_Node000015" class="edge">
<title>Node10&#45;&gt;Node15</title>
<g id="a_edge18_Node000010_Node000015"><a xlink:title=" ">
<path fill="none" stroke="#63b8ff" d="M390.95,-56.47C427.47,-47.21 490.18,-31.31 531.31,-20.88"/>
<polygon fill="#63b8ff" stroke="#63b8ff" points="531.95,-24.07 540.78,-18.22 530.23,-17.29 531.95,-24.07"/>
</a>
</g>
</g>
<!-- Node16 -->
<g id="Node000016" class="node">
<title>Node16</title>
<g id="a_Node000016"><a xlink:title=" ">
<polygon fill="#e0e0e0" stroke="#999999" points="666.12,-19.25 619.38,-19.25 619.38,0 666.12,0 666.12,-19.25"/>
<text text-anchor="middle" x="642.75" y="-5.75" font-family="Helvetica,sans-Serif" font-size="10.00">stdlib.h</text>
</a>
</g>
</g>
<!-- Node10&#45;&gt;Node16 -->
<g id="edge19_Node000010_Node000016" class="edge">
<title>Node10&#45;&gt;Node16</title>
<g id="a_edge19_Node000010_Node000016"><a xlink:title=" ">
<path fill="none" stroke="#63b8ff" d="M391.17,-57.03C394.07,-56.41 396.96,-55.8 399.75,-55.25 489.69,-37.38 515.95,-39.47 608.37,-19.61"/>
<polygon fill="#63b8ff" stroke="#63b8ff" points="609.02,-22.83 618.05,-17.28 607.53,-15.99 609.02,-22.83"/>
</a>
</g>
</g>
<!-- Node17 -->
<g id="Node000017" class="node">
<title>Node17</title>
<g id="a_Node000017"><a xlink:title=" ">
<polygon fill="#e0e0e0" stroke="#999999" points="741.75,-19.25 683.75,-19.25 683.75,0 741.75,0 741.75,-19.25"/>
<text text-anchor="middle" x="712.75" y="-5.75" font-family="Helvetica,sans-Serif" font-size="10.00">curl/curl.h</text>
</a>
</g>
</g>
<!-- Node10&#45;&gt;Node17 -->
<g id="edge22_Node000010_Node000017" class="edge">
<title>Node10&#45;&gt;Node17</title>
<g id="a_edge22_Node000010_Node000017"><a xlink:title=" ">
<path fill="none" stroke="#63b8ff" d="M391.15,-56.92C394.05,-56.32 396.95,-55.75 399.75,-55.25 517.66,-34.2 551.5,-40.52 672.54,-19.49"/>
<polygon fill="#63b8ff" stroke="#63b8ff" points="673.11,-22.77 682.35,-17.58 671.89,-15.88 673.11,-22.77"/>
</a>
</g>
</g>
<!-- Node18 -->
<g id="Node000018" class="node">
<title>Node18</title>
<g id="a_Node000018"><a xlink:title=" ">
<polygon fill="#e0e0e0" stroke="#999999" points="797.62,-19.25 759.88,-19.25 759.88,0 797.62,0 797.62,-19.25"/>
<text text-anchor="middle" x="778.75" y="-5.75" font-family="Helvetica,sans-Serif" font-size="10.00">zlib.h</text>
</a>
</g>
</g>
<!-- Node10&#45;&gt;Node18 -->
<g id="edge23_Node000010_Node000018" class="edge">
<title>Node10&#45;&gt;Node18</title>
<g id="a_edge23_Node000010_Node000018"><a xlink:title=" ">
<path fill="none" stroke="#63b8ff" d="M391.14,-56.84C394.04,-56.25 396.95,-55.71 399.75,-55.25 551.02,-30.42 595.1,-49.58 748.83,-19.24"/>
<polygon fill="#63b8ff" stroke="#63b8ff" points="749.49,-22.47 758.6,-17.07 748.1,-15.61 749.49,-22.47"/>
</a>
</g>
</g>
</g>
</svg>
