<?xml version="1.0" encoding="UTF-8" standalone="no"?>
<!DOCTYPE svg PUBLIC "-//W3C//DTD SVG 1.1//EN"
 "http://www.w3.org/Graphics/SVG/1.1/DTD/svg11.dtd">
<!-- Generated by graphviz version 8.0.1 (20230327.1645)
 -->
<!-- Title: /Users/appxpy/Desktop/neural_network_project/include/NNFSCore/Activation/Activation.hpp Pages: 1 -->
<svg width="658pt" height="148pt"
 viewBox="0.00 0.00 658.00 148.00" xmlns="http://www.w3.org/2000/svg" xmlns:xlink="http://www.w3.org/1999/xlink">
<g id="graph0" class="graph" transform="scale(1 1) rotate(0) translate(4 144)">
<title>/Users/appxpy/Desktop/neural_network_project/include/NNFSCore/Activation/Activation.hpp</title>
<!-- Node1 -->
<g id="node1" class="node">
<title>Node1</title>
<g id="a_node1"><a xlink:title=" ">
<polygon fill="#999999" stroke="#666666" points="399,-140 250,-140 250,-88 399,-88 399,-140"/>
<text text-anchor="start" x="258" y="-128" font-family="Helvetica,sans-Serif" font-size="10.00">/Users/appxpy/Desktop</text>
<text text-anchor="start" x="258" y="-117" font-family="Helvetica,sans-Serif" font-size="10.00">/neural_network_project</text>
<text text-anchor="start" x="258" y="-106" font-family="Helvetica,sans-Serif" font-size="10.00">/include/NNFSCore/Activation</text>
<text text-anchor="middle" x="324.5" y="-95" font-family="Helvetica,sans-Serif" font-size="10.00">/Activation.hpp</text>
</a>
</g>
</g>
<!-- Node2 -->
<g id="node2" class="node">
<title>Node2</title>
<g id="a_node2"><a xlink:href="_linear_8hpp.html" target="_top" xlink:title=" ">
<polygon fill="white" stroke="#666666" points="149,-52 0,-52 0,0 149,0 149,-52"/>
<text text-anchor="start" x="8" y="-40" font-family="Helvetica,sans-Serif" font-size="10.00">/Users/appxpy/Desktop</text>
<text text-anchor="start" x="8" y="-29" font-family="Helvetica,sans-Serif" font-size="10.00">/neural_network_project</text>
<text text-anchor="start" x="8" y="-18" font-family="Helvetica,sans-Serif" font-size="10.00">/include/NNFSCore/Activation</text>
<text text-anchor="middle" x="74.5" y="-7" font-family="Helvetica,sans-Serif" font-size="10.00">/Linear.hpp</text>
</a>
</g>
</g>
<!-- Node1&#45;&gt;Node2 -->
<g id="edge1" class="edge">
<title>Node1&#45;&gt;Node2</title>
<path fill="none" stroke="#63b8ff" d="M240.13,-83.98C210.36,-73.74 177.13,-62.31 148.3,-52.39"/>
<polygon fill="#63b8ff" stroke="#63b8ff" points="238.91,-87.6 249.51,-87.55 241.19,-80.98 238.91,-87.6"/>
</g>
<!-- Node3 -->
<g id="node3" class="node">
<title>Node3</title>
<g id="a_node3"><a xlink:href="_re_l_u_8hpp.html" target="_top" xlink:title=" ">
<polygon fill="white" stroke="#666666" points="316,-52 167,-52 167,0 316,0 316,-52"/>
<text text-anchor="start" x="175" y="-40" font-family="Helvetica,sans-Serif" font-size="10.00">/Users/appxpy/Desktop</text>
<text text-anchor="start" x="175" y="-29" font-family="Helvetica,sans-Serif" font-size="10.00">/neural_network_project</text>
<text text-anchor="start" x="175" y="-18" font-family="Helvetica,sans-Serif" font-size="10.00">/include/NNFSCore/Activation</text>
<text text-anchor="middle" x="241.5" y="-7" font-family="Helvetica,sans-Serif" font-size="10.00">/ReLU.hpp</text>
</a>
</g>
</g>
<!-- Node1&#45;&gt;Node3 -->
<g id="edge2" class="edge">
<title>Node1&#45;&gt;Node3</title>
<path fill="none" stroke="#63b8ff" d="M292.53,-79.87C283.74,-70.77 274.36,-61.05 266.07,-52.45"/>
<polygon fill="#63b8ff" stroke="#63b8ff" points="289.58,-81.9 299.05,-86.66 294.62,-77.04 289.58,-81.9"/>
</g>
<!-- Node4 -->
<g id="node4" class="node">
<title>Node4</title>
<g id="a_node4"><a xlink:href="_sigmoid_8hpp.html" target="_top" xlink:title=" ">
<polygon fill="white" stroke="#666666" points="483,-52 334,-52 334,0 483,0 483,-52"/>
<text text-anchor="start" x="342" y="-40" font-family="Helvetica,sans-Serif" font-size="10.00">/Users/appxpy/Desktop</text>
<text text-anchor="start" x="342" y="-29" font-family="Helvetica,sans-Serif" font-size="10.00">/neural_network_project</text>
<text text-anchor="start" x="342" y="-18" font-family="Helvetica,sans-Serif" font-size="10.00">/include/NNFSCore/Activation</text>
<text text-anchor="middle" x="408.5" y="-7" font-family="Helvetica,sans-Serif" font-size="10.00">/Sigmoid.hpp</text>
</a>
</g>
</g>
<!-- Node1&#45;&gt;Node4 -->
<g id="edge3" class="edge">
<title>Node1&#45;&gt;Node4</title>
<path fill="none" stroke="#63b8ff" d="M356.86,-79.87C365.75,-70.77 375.24,-61.05 383.64,-52.45"/>
<polygon fill="#63b8ff" stroke="#63b8ff" points="354.73,-77.06 350.25,-86.66 359.74,-81.95 354.73,-77.06"/>
</g>
<!-- Node5 -->
<g id="node5" class="node">
<title>Node5</title>
<g id="a_node5"><a xlink:href="_softmax_8hpp.html" target="_top" xlink:title=" ">
<polygon fill="white" stroke="#666666" points="650,-52 501,-52 501,0 650,0 650,-52"/>
<text text-anchor="start" x="509" y="-40" font-family="Helvetica,sans-Serif" font-size="10.00">/Users/appxpy/Desktop</text>
<text text-anchor="start" x="509" y="-29" font-family="Helvetica,sans-Serif" font-size="10.00">/neural_network_project</text>
<text text-anchor="start" x="509" y="-18" font-family="Helvetica,sans-Serif" font-size="10.00">/include/NNFSCore/Activation</text>
<text text-anchor="middle" x="575.5" y="-7" font-family="Helvetica,sans-Serif" font-size="10.00">/Softmax.hpp</text>
</a>
</g>
</g>
<!-- Node1&#45;&gt;Node5 -->
<g id="edge4" class="edge">
<title>Node1&#45;&gt;Node5</title>
<path fill="none" stroke="#63b8ff" d="M408.81,-84.11C438.81,-73.84 472.33,-62.35 501.4,-52.39"/>
<polygon fill="#63b8ff" stroke="#63b8ff" points="408.12,-80.99 399.79,-87.55 410.38,-87.62 408.12,-80.99"/>
</g>
</g>
</svg>
