<?xml version="1.0" encoding="UTF-8" standalone="no"?>
<!DOCTYPE svg PUBLIC "-//W3C//DTD SVG 1.1//EN"
 "http://www.w3.org/Graphics/SVG/1.1/DTD/svg11.dtd">
<!-- Generated by graphviz version 8.0.1 (20230327.1645)
 -->
<!-- Title: /Users/appxpy/Desktop/NNFS/include/NNFSCore/Activation/Activation.hpp Pages: 1 -->
<svg width="594pt" height="126pt"
 viewBox="0.00 0.00 594.00 126.00" xmlns="http://www.w3.org/2000/svg" xmlns:xlink="http://www.w3.org/1999/xlink">
<g id="graph0" class="graph" transform="scale(1 1) rotate(0) translate(4 122)">
<title>/Users/appxpy/Desktop/NNFS/include/NNFSCore/Activation/Activation.hpp</title>
<!-- Node1 -->
<g id="node1" class="node">
<title>Node1</title>
<g id="a_node1"><a xlink:title=" ">
<polygon fill="#999999" stroke="#666666" points="359,-118 226,-118 226,-77 359,-77 359,-118"/>
<text text-anchor="start" x="234" y="-106" font-family="Helvetica,sans-Serif" font-size="10.00">/Users/appxpy/Desktop</text>
<text text-anchor="start" x="234" y="-95" font-family="Helvetica,sans-Serif" font-size="10.00">/NNFS/include/NNFSCore</text>
<text text-anchor="middle" x="292.5" y="-84" font-family="Helvetica,sans-Serif" font-size="10.00">/Activation/Activation.hpp</text>
</a>
</g>
</g>
<!-- Node2 -->
<g id="node2" class="node">
<title>Node2</title>
<g id="a_node2"><a xlink:href="_linear_8hpp.html" target="_top" xlink:title=" ">
<polygon fill="white" stroke="#666666" points="133,-41 0,-41 0,0 133,0 133,-41"/>
<text text-anchor="start" x="8" y="-29" font-family="Helvetica,sans-Serif" font-size="10.00">/Users/appxpy/Desktop</text>
<text text-anchor="start" x="8" y="-18" font-family="Helvetica,sans-Serif" font-size="10.00">/NNFS/include/NNFSCore</text>
<text text-anchor="middle" x="66.5" y="-7" font-family="Helvetica,sans-Serif" font-size="10.00">/Activation/Linear.hpp</text>
</a>
</g>
</g>
<!-- Node1&#45;&gt;Node2 -->
<g id="edge1" class="edge">
<title>Node1&#45;&gt;Node2</title>
<path fill="none" stroke="#63b8ff" d="M222.35,-73.22C191.72,-63.06 156.16,-51.26 126.75,-41.49"/>
<polygon fill="#63b8ff" stroke="#63b8ff" points="220.94,-76.77 231.53,-76.6 223.14,-70.13 220.94,-76.77"/>
</g>
<!-- Node3 -->
<g id="node3" class="node">
<title>Node3</title>
<g id="a_node3"><a xlink:href="_re_l_u_8hpp.html" target="_top" xlink:title=" ">
<polygon fill="white" stroke="#666666" points="284,-41 151,-41 151,0 284,0 284,-41"/>
<text text-anchor="start" x="159" y="-29" font-family="Helvetica,sans-Serif" font-size="10.00">/Users/appxpy/Desktop</text>
<text text-anchor="start" x="159" y="-18" font-family="Helvetica,sans-Serif" font-size="10.00">/NNFS/include/NNFSCore</text>
<text text-anchor="middle" x="217.5" y="-7" font-family="Helvetica,sans-Serif" font-size="10.00">/Activation/ReLU.hpp</text>
</a>
</g>
</g>
<!-- Node1&#45;&gt;Node3 -->
<g id="edge2" class="edge">
<title>Node1&#45;&gt;Node3</title>
<path fill="none" stroke="#63b8ff" d="M265.02,-69.02C255.84,-59.84 245.81,-49.81 237.33,-41.33"/>
<polygon fill="#63b8ff" stroke="#63b8ff" points="262.25,-71.2 271.79,-75.79 267.2,-66.25 262.25,-71.2"/>
</g>
<!-- Node4 -->
<g id="node4" class="node">
<title>Node4</title>
<g id="a_node4"><a xlink:href="_sigmoid_8hpp.html" target="_top" xlink:title=" ">
<polygon fill="white" stroke="#666666" points="435,-41 302,-41 302,0 435,0 435,-41"/>
<text text-anchor="start" x="310" y="-29" font-family="Helvetica,sans-Serif" font-size="10.00">/Users/appxpy/Desktop</text>
<text text-anchor="start" x="310" y="-18" font-family="Helvetica,sans-Serif" font-size="10.00">/NNFS/include/NNFSCore</text>
<text text-anchor="middle" x="368.5" y="-7" font-family="Helvetica,sans-Serif" font-size="10.00">/Activation/Sigmoid.hpp</text>
</a>
</g>
</g>
<!-- Node1&#45;&gt;Node4 -->
<g id="edge3" class="edge">
<title>Node1&#45;&gt;Node4</title>
<path fill="none" stroke="#63b8ff" d="M320.07,-69.29C329.44,-60.05 339.73,-49.89 348.4,-41.33"/>
<polygon fill="#63b8ff" stroke="#63b8ff" points="318.13,-66.28 313.47,-75.79 323.04,-71.26 318.13,-66.28"/>
</g>
<!-- Node5 -->
<g id="node5" class="node">
<title>Node5</title>
<g id="a_node5"><a xlink:href="_softmax_8hpp.html" target="_top" xlink:title=" ">
<polygon fill="white" stroke="#666666" points="586,-41 453,-41 453,0 586,0 586,-41"/>
<text text-anchor="start" x="461" y="-29" font-family="Helvetica,sans-Serif" font-size="10.00">/Users/appxpy/Desktop</text>
<text text-anchor="start" x="461" y="-18" font-family="Helvetica,sans-Serif" font-size="10.00">/NNFS/include/NNFSCore</text>
<text text-anchor="middle" x="519.5" y="-7" font-family="Helvetica,sans-Serif" font-size="10.00">/Activation/Softmax.hpp</text>
</a>
</g>
</g>
<!-- Node1&#45;&gt;Node5 -->
<g id="edge4" class="edge">
<title>Node1&#45;&gt;Node5</title>
<path fill="none" stroke="#63b8ff" d="M362.96,-73.22C393.73,-63.06 429.44,-51.26 458.98,-41.49"/>
<polygon fill="#63b8ff" stroke="#63b8ff" points="362.13,-70.14 353.74,-76.6 364.33,-76.78 362.13,-70.14"/>
</g>
</g>
</svg>
