<?xml version="1.0" encoding="UTF-8" standalone="no"?>
<!DOCTYPE svg PUBLIC "-//W3C//DTD SVG 1.1//EN"
 "http://www.w3.org/Graphics/SVG/1.1/DTD/svg11.dtd">
<!-- Generated by graphviz version 8.0.1 (20230327.1645)
 -->
<!-- Title: /Users/appxpy/Desktop/NNFS/include/NNFSCore/Activation/Softmax.hpp Pages: 1 -->
<svg width="153pt" height="214pt"
 viewBox="0.00 0.00 153.00 214.00" xmlns="http://www.w3.org/2000/svg" xmlns:xlink="http://www.w3.org/1999/xlink">
<g id="graph0" class="graph" transform="scale(1 1) rotate(0) translate(4 210)">
<title>/Users/appxpy/Desktop/NNFS/include/NNFSCore/Activation/Softmax.hpp</title>
<!-- Node1 -->
<g id="node1" class="node">
<title>Node1</title>
<g id="a_node1"><a xlink:title=" ">
<polygon fill="#999999" stroke="#666666" points="139,-206 6,-206 6,-165 139,-165 139,-206"/>
<text text-anchor="start" x="14" y="-194" font-family="Helvetica,sans-Serif" font-size="10.00">/Users/appxpy/Desktop</text>
<text text-anchor="start" x="14" y="-183" font-family="Helvetica,sans-Serif" font-size="10.00">/NNFS/include/NNFSCore</text>
<text text-anchor="middle" x="72.5" y="-172" font-family="Helvetica,sans-Serif" font-size="10.00">/Activation/Softmax.hpp</text>
</a>
</g>
</g>
<!-- Node2 -->
<g id="node2" class="node">
<title>Node2</title>
<g id="a_node2"><a xlink:href="_activation_8hpp.html" target="_top" xlink:title=" ">
<polygon fill="white" stroke="#666666" points="112,-129 33,-129 33,-110 112,-110 112,-129"/>
<text text-anchor="middle" x="72.5" y="-117" font-family="Helvetica,sans-Serif" font-size="10.00">Activation.hpp</text>
</a>
</g>
</g>
<!-- Node1&#45;&gt;Node2 -->
<g id="edge1" class="edge">
<title>Node1&#45;&gt;Node2</title>
<path fill="none" stroke="#63b8ff" d="M72.5,-164.6C72.5,-156.8 72.5,-147.87 72.5,-140.1"/>
<polygon fill="#63b8ff" stroke="#63b8ff" points="76,-140.16 72.5,-130.16 69,-140.16 76,-140.16"/>
</g>
<!-- Node3 -->
<g id="node3" class="node">
<title>Node3</title>
<g id="a_node3"><a xlink:href="_differentiable_8hpp.html" target="_top" xlink:title=" ">
<polygon fill="white" stroke="#666666" points="145,-74 0,-74 0,-55 145,-55 145,-74"/>
<text text-anchor="middle" x="72.5" y="-62" font-family="Helvetica,sans-Serif" font-size="10.00">../Common/Differentiable.hpp</text>
</a>
</g>
</g>
<!-- Node2&#45;&gt;Node3 -->
<g id="edge2" class="edge">
<title>Node2&#45;&gt;Node3</title>
<path fill="none" stroke="#63b8ff" d="M72.5,-109.75C72.5,-103.11 72.5,-93.73 72.5,-85.31"/>
<polygon fill="#63b8ff" stroke="#63b8ff" points="76,-85.44 72.5,-75.44 69,-85.44 76,-85.44"/>
</g>
<!-- Node4 -->
<g id="node4" class="node">
<title>Node4</title>
<g id="a_node4"><a xlink:title=" ">
<polygon fill="#e0e0e0" stroke="#999999" points="105,-19 40,-19 40,0 105,0 105,-19"/>
<text text-anchor="middle" x="72.5" y="-7" font-family="Helvetica,sans-Serif" font-size="10.00">Eigen/Core</text>
</a>
</g>
</g>
<!-- Node3&#45;&gt;Node4 -->
<g id="edge3" class="edge">
<title>Node3&#45;&gt;Node4</title>
<path fill="none" stroke="#63b8ff" d="M72.5,-54.75C72.5,-48.11 72.5,-38.73 72.5,-30.31"/>
<polygon fill="#63b8ff" stroke="#63b8ff" points="76,-30.44 72.5,-20.44 69,-30.44 76,-30.44"/>
</g>
</g>
</svg>
