<?xml version="1.0" encoding="UTF-8" standalone="no"?>
<!DOCTYPE svg PUBLIC "-//W3C//DTD SVG 1.1//EN"
 "http://www.w3.org/Graphics/SVG/1.1/DTD/svg11.dtd">
<!-- Generated by graphviz version 8.0.1 (20230327.1645)
 -->
<!-- Title: NNFSCore::Activation Pages: 1 -->
<svg width="473pt" height="137pt"
 viewBox="0.00 0.00 473.00 137.00" xmlns="http://www.w3.org/2000/svg" xmlns:xlink="http://www.w3.org/1999/xlink">
<g id="graph0" class="graph" transform="scale(1 1) rotate(0) translate(4 133)">
<title>NNFSCore::Activation</title>
<!-- Node1 -->
<g id="node1" class="node">
<title>Node1</title>
<g id="a_node1"><a xlink:title="Rectified Linear Unit (ReLU) activation function.">
<polygon fill="#999999" stroke="#666666" points="282.5,-74 167.5,-74 167.5,-55 282.5,-55 282.5,-74"/>
<text text-anchor="middle" x="225" y="-62" font-family="Helvetica,sans-Serif" font-size="10.00">NNFSCore::Activation</text>
</a>
</g>
</g>
<!-- Node3 -->
<g id="node3" class="node">
<title>Node3</title>
<g id="a_node3"><a xlink:href="class_n_n_f_s_core_1_1_linear.html" target="_top" xlink:title="Rectified Linear Unit (ReLU) activation function.">
<polygon fill="white" stroke="#666666" points="98,-19 0,-19 0,0 98,0 98,-19"/>
<text text-anchor="middle" x="49" y="-7" font-family="Helvetica,sans-Serif" font-size="10.00">NNFSCore::Linear</text>
</a>
</g>
</g>
<!-- Node1&#45;&gt;Node3 -->
<g id="edge2" class="edge">
<title>Node1&#45;&gt;Node3</title>
<path fill="none" stroke="#63b8ff" d="M184.7,-51.36C152.4,-41.64 107.82,-28.21 78.71,-19.45"/>
<polygon fill="#63b8ff" stroke="#63b8ff" points="183.56,-54.98 194.14,-54.51 185.58,-48.27 183.56,-54.98"/>
</g>
<!-- Node4 -->
<g id="node4" class="node">
<title>Node4</title>
<g id="a_node4"><a xlink:href="class_n_n_f_s_core_1_1_re_l_u.html" target="_top" xlink:title="Rectified Linear Unit (ReLU) activation function.">
<polygon fill="white" stroke="#666666" points="213.5,-19 116.5,-19 116.5,0 213.5,0 213.5,-19"/>
<text text-anchor="middle" x="165" y="-7" font-family="Helvetica,sans-Serif" font-size="10.00">NNFSCore::ReLU</text>
</a>
</g>
</g>
<!-- Node1&#45;&gt;Node4 -->
<g id="edge3" class="edge">
<title>Node1&#45;&gt;Node4</title>
<path fill="none" stroke="#63b8ff" d="M206.73,-47.37C196.31,-38.16 183.65,-26.98 175.03,-19.36"/>
<polygon fill="#63b8ff" stroke="#63b8ff" points="204.01,-49.51 213.82,-53.51 208.64,-44.27 204.01,-49.51"/>
</g>
<!-- Node5 -->
<g id="node5" class="node">
<title>Node5</title>
<g id="a_node5"><a xlink:href="class_n_n_f_s_core_1_1_sigmoid.html" target="_top" xlink:title="Sigmoid activation function.">
<polygon fill="white" stroke="#666666" points="338.5,-19 231.5,-19 231.5,0 338.5,0 338.5,-19"/>
<text text-anchor="middle" x="285" y="-7" font-family="Helvetica,sans-Serif" font-size="10.00">NNFSCore::Sigmoid</text>
</a>
</g>
</g>
<!-- Node1&#45;&gt;Node5 -->
<g id="edge4" class="edge">
<title>Node1&#45;&gt;Node5</title>
<path fill="none" stroke="#63b8ff" d="M243.27,-47.37C253.69,-38.16 266.35,-26.98 274.97,-19.36"/>
<polygon fill="#63b8ff" stroke="#63b8ff" points="241.36,-44.27 236.18,-53.51 245.99,-49.51 241.36,-44.27"/>
</g>
<!-- Node6 -->
<g id="node6" class="node">
<title>Node6</title>
<g id="a_node6"><a xlink:href="class_n_n_f_s_core_1_1_softmax.html" target="_top" xlink:title=" ">
<polygon fill="white" stroke="#666666" points="465,-19 357,-19 357,0 465,0 465,-19"/>
<text text-anchor="middle" x="411" y="-7" font-family="Helvetica,sans-Serif" font-size="10.00">NNFSCore::Softmax</text>
</a>
</g>
</g>
<!-- Node1&#45;&gt;Node6 -->
<g id="edge5" class="edge">
<title>Node1&#45;&gt;Node6</title>
<path fill="none" stroke="#63b8ff" d="M266.7,-51.62C300.9,-41.87 348.57,-28.29 379.6,-19.45"/>
<polygon fill="#63b8ff" stroke="#63b8ff" points="266.21,-48.4 257.55,-54.51 268.13,-55.13 266.21,-48.4"/>
</g>
<!-- Node2 -->
<g id="node2" class="node">
<title>Node2</title>
<g id="a_node2"><a xlink:href="class_n_n_f_s_core_1_1_differentiable.html" target="_top" xlink:title="Abstract base class for functions with gradients.">
<polygon fill="white" stroke="#666666" points="289.5,-129 160.5,-129 160.5,-110 289.5,-110 289.5,-129"/>
<text text-anchor="middle" x="225" y="-117" font-family="Helvetica,sans-Serif" font-size="10.00">NNFSCore::Differentiable</text>
</a>
</g>
</g>
<!-- Node2&#45;&gt;Node1 -->
<g id="edge1" class="edge">
<title>Node2&#45;&gt;Node1</title>
<path fill="none" stroke="#63b8ff" d="M225,-98.93C225,-90.53 225,-81.13 225,-74.44"/>
<polygon fill="#63b8ff" stroke="#63b8ff" points="221.5,-98.75 225,-108.75 228.5,-98.75 221.5,-98.75"/>
</g>
</g>
</svg>
