<?xml version="1.0" encoding="UTF-8" standalone="no"?>
<!DOCTYPE svg PUBLIC "-//W3C//DTD SVG 1.1//EN"
 "http://www.w3.org/Graphics/SVG/1.1/DTD/svg11.dtd">
<!-- Generated by graphviz version 8.0.1 (20230327.1645)
 -->
<!-- Title: NNFSCore::Softmax Pages: 1 -->
<svg width="137pt" height="137pt"
 viewBox="0.00 0.00 137.00 137.00" xmlns="http://www.w3.org/2000/svg" xmlns:xlink="http://www.w3.org/1999/xlink">
<g id="graph0" class="graph" transform="scale(1 1) rotate(0) translate(4 133)">
<title>NNFSCore::Softmax</title>
<!-- Node1 -->
<g id="node1" class="node">
<title>Node1</title>
<g id="a_node1"><a xlink:title=" ">
<polygon fill="#999999" stroke="#666666" points="118.5,-19 10.5,-19 10.5,0 118.5,0 118.5,-19"/>
<text text-anchor="middle" x="64.5" y="-7" font-family="Helvetica,sans-Serif" font-size="10.00">NNFSCore::Softmax</text>
</a>
</g>
</g>
<!-- Node2 -->
<g id="node2" class="node">
<title>Node2</title>
<g id="a_node2"><a xlink:href="class_n_n_f_s_core_1_1_activation.html" target="_top" xlink:title="Rectified Linear Unit (ReLU) activation function.">
<polygon fill="white" stroke="#666666" points="122,-74 7,-74 7,-55 122,-55 122,-74"/>
<text text-anchor="middle" x="64.5" y="-62" font-family="Helvetica,sans-Serif" font-size="10.00">NNFSCore::Activation</text>
</a>
</g>
</g>
<!-- Node2&#45;&gt;Node1 -->
<g id="edge1" class="edge">
<title>Node2&#45;&gt;Node1</title>
<path fill="none" stroke="#63b8ff" d="M64.5,-43.93C64.5,-35.53 64.5,-26.13 64.5,-19.44"/>
<polygon fill="#63b8ff" stroke="#63b8ff" points="61,-43.75 64.5,-53.75 68,-43.75 61,-43.75"/>
</g>
<!-- Node3 -->
<g id="node3" class="node">
<title>Node3</title>
<g id="a_node3"><a xlink:href="class_n_n_f_s_core_1_1_differentiable.html" target="_top" xlink:title="Abstract base class for functions with gradients.">
<polygon fill="white" stroke="#666666" points="129,-129 0,-129 0,-110 129,-110 129,-129"/>
<text text-anchor="middle" x="64.5" y="-117" font-family="Helvetica,sans-Serif" font-size="10.00">NNFSCore::Differentiable</text>
</a>
</g>
</g>
<!-- Node3&#45;&gt;Node2 -->
<g id="edge2" class="edge">
<title>Node3&#45;&gt;Node2</title>
<path fill="none" stroke="#63b8ff" d="M64.5,-98.93C64.5,-90.53 64.5,-81.13 64.5,-74.44"/>
<polygon fill="#63b8ff" stroke="#63b8ff" points="61,-98.75 64.5,-108.75 68,-98.75 61,-98.75"/>
</g>
</g>
</svg>
