<?xml version="1.0" encoding="UTF-8" standalone="no"?>
<!DOCTYPE svg PUBLIC "-//W3C//DTD SVG 1.1//EN"
 "http://www.w3.org/Graphics/SVG/1.1/DTD/svg11.dtd">
<!-- Generated by graphviz version 8.0.1 (20230327.1645)
 -->
<!-- Title: Graphical Class Hierarchy Pages: 1 -->
<svg width="432pt" height="138pt"
 viewBox="0.00 0.00 432.00 138.00" xmlns="http://www.w3.org/2000/svg" xmlns:xlink="http://www.w3.org/1999/xlink">
<g id="graph0" class="graph" transform="scale(1 1) rotate(0) translate(4 134)">
<title>Graphical Class Hierarchy</title>
<!-- Node0 -->
<g id="node1" class="node">
<title>Node0</title>
<g id="a_node1"><a xlink:href="class_n_n_f_s_core_1_1_differentiable.html" target="_top" xlink:title="Abstract base class for functions with gradients.">
<polygon fill="white" stroke="#666666" points="129,-74 0,-74 0,-55 129,-55 129,-74"/>
<text text-anchor="middle" x="64.5" y="-62" font-family="Helvetica,sans-Serif" font-size="10.00">NNFSCore::Differentiable</text>
</a>
</g>
</g>
<!-- Node1 -->
<g id="node2" class="node">
<title>Node1</title>
<g id="a_node2"><a xlink:href="class_n_n_f_s_core_1_1_activation.html" target="_top" xlink:title="Rectified Linear Unit (ReLU) activation function.">
<polygon fill="white" stroke="#666666" points="280,-74 165,-74 165,-55 280,-55 280,-74"/>
<text text-anchor="middle" x="222.5" y="-62" font-family="Helvetica,sans-Serif" font-size="10.00">NNFSCore::Activation</text>
</a>
</g>
</g>
<!-- Node0&#45;&gt;Node1 -->
<g id="edge1" class="edge">
<title>Node0&#45;&gt;Node1</title>
<path fill="none" stroke="#63b8ff" d="M140.26,-64.5C148.57,-64.5 156.92,-64.5 164.95,-64.5"/>
<polygon fill="#63b8ff" stroke="#63b8ff" points="140.4,-61 130.4,-64.5 140.4,-68 140.4,-61"/>
</g>
<!-- Node2 -->
<g id="node3" class="node">
<title>Node2</title>
<g id="a_node3"><a xlink:href="class_n_n_f_s_core_1_1_linear.html" target="_top" xlink:title="Rectified Linear Unit (ReLU) activation function.">
<polygon fill="white" stroke="#666666" points="419,-130 321,-130 321,-111 419,-111 419,-130"/>
<text text-anchor="middle" x="370" y="-118" font-family="Helvetica,sans-Serif" font-size="10.00">NNFSCore::Linear</text>
</a>
</g>
</g>
<!-- Node1&#45;&gt;Node2 -->
<g id="edge2" class="edge">
<title>Node1&#45;&gt;Node2</title>
<path fill="none" stroke="#63b8ff" d="M256.32,-78.57C273.91,-85.96 296.02,-95.01 316,-102.5 323.28,-105.23 331.19,-108.01 338.61,-110.54"/>
<polygon fill="#63b8ff" stroke="#63b8ff" points="258.1,-75.1 247.53,-74.43 255.38,-81.55 258.1,-75.1"/>
</g>
<!-- Node3 -->
<g id="node4" class="node">
<title>Node3</title>
<g id="a_node4"><a xlink:href="class_n_n_f_s_core_1_1_re_l_u.html" target="_top" xlink:title="Rectified Linear Unit (ReLU) activation function.">
<polygon fill="white" stroke="#666666" points="418.5,-93 321.5,-93 321.5,-74 418.5,-74 418.5,-93"/>
<text text-anchor="middle" x="370" y="-81" font-family="Helvetica,sans-Serif" font-size="10.00">NNFSCore::ReLU</text>
</a>
</g>
</g>
<!-- Node1&#45;&gt;Node3 -->
<g id="edge3" class="edge">
<title>Node1&#45;&gt;Node3</title>
<path fill="none" stroke="#63b8ff" d="M290.78,-73.29C301.05,-74.63 311.47,-75.99 321.2,-77.26"/>
<polygon fill="#63b8ff" stroke="#63b8ff" points="291.54,-69.72 281.17,-71.9 290.63,-76.67 291.54,-69.72"/>
</g>
<!-- Node4 -->
<g id="node5" class="node">
<title>Node4</title>
<g id="a_node5"><a xlink:href="class_n_n_f_s_core_1_1_sigmoid.html" target="_top" xlink:title="Sigmoid activation function.">
<polygon fill="white" stroke="#666666" points="423.5,-56 316.5,-56 316.5,-37 423.5,-37 423.5,-56"/>
<text text-anchor="middle" x="370" y="-44" font-family="Helvetica,sans-Serif" font-size="10.00">NNFSCore::Sigmoid</text>
</a>
</g>
</g>
<!-- Node1&#45;&gt;Node4 -->
<g id="edge4" class="edge">
<title>Node1&#45;&gt;Node4</title>
<path fill="none" stroke="#63b8ff" d="M290.81,-56.17C299.28,-55.13 307.85,-54.07 316.05,-53.05"/>
<polygon fill="#63b8ff" stroke="#63b8ff" points="290.67,-52.79 281.17,-57.49 291.52,-59.73 290.67,-52.79"/>
</g>
<!-- Node5 -->
<g id="node6" class="node">
<title>Node5</title>
<g id="a_node6"><a xlink:href="class_n_n_f_s_core_1_1_softmax.html" target="_top" xlink:title=" ">
<polygon fill="white" stroke="#666666" points="424,-19 316,-19 316,0 424,0 424,-19"/>
<text text-anchor="middle" x="370" y="-7" font-family="Helvetica,sans-Serif" font-size="10.00">NNFSCore::Softmax</text>
</a>
</g>
</g>
<!-- Node1&#45;&gt;Node5 -->
<g id="edge5" class="edge">
<title>Node1&#45;&gt;Node5</title>
<path fill="none" stroke="#63b8ff" d="M258.73,-50.53C275.96,-43.77 297.02,-35.59 316,-28.5 324.06,-25.49 332.84,-22.3 340.89,-19.42"/>
<polygon fill="#63b8ff" stroke="#63b8ff" points="257.58,-47.62 249.56,-54.54 260.14,-54.13 257.58,-47.62"/>
</g>
</g>
</svg>
