<svg width="64" height="74" viewBox="0 0 64 74" fill="none" xmlns="http://www.w3.org/2000/svg">
<mask id="mask0_701_12" style="mask-type:alpha" maskUnits="userSpaceOnUse" x="0" y="0" width="64" height="74">
<path d="M32.3132 33.1287C37.8856 33.0798 44.7378 34.6011 50.617 39.2601C55.8529 43.409 59.0375 48.9232 61.0551 55.1929C62.3013 59.0644 63.0323 63.0446 63.5533 67.067C63.8333 69.2292 63.3274 71.1325 61.4092 72.3872C59.7761 73.4557 58.0367 73.5214 56.3006 72.5778C54.5545 71.6249 53.8665 70.0219 53.6599 68.1431C53.3379 65.1671 52.7671 62.2233 51.9534 59.3427C51.1052 56.3566 49.8885 53.5409 48.1306 50.9614C45.6315 47.294 42.2396 44.8426 37.9421 43.8779C31.4676 42.4283 25.0504 42.6686 18.8432 45.2609C16.6569 46.1733 14.657 47.4179 12.9909 49.107C10.62 51.512 9.71534 54.4019 10.5509 57.7211C11.5534 61.7013 15.071 64.0135 19.1644 63.7167C24.9695 63.2951 29.89 61.0107 34.1724 57.1527C35.9598 55.542 38.2422 55.3818 40.1646 56.5944C42.0195 57.7649 42.8508 59.9583 42.2817 62.1314C42.0389 63.059 41.5035 63.7918 40.8214 64.431C33.8064 71.0085 25.5318 74.2028 15.8956 73.4658C8.37643 72.8898 1.62792 66.2364 0.592543 58.5854C-0.447895 50.9057 2.26028 44.7659 8.31657 40.0638C14.856 34.9898 22.4147 33.1135 32.3132 33.1287Z" fill="#011627"/>
<path d="M30.3597 0.999999C44.6838 0.892903 55.3032 7.19805 62.3991 19.5334C63.8535 22.0633 62.9378 25.0527 60.5501 26.3479C58.0375 27.7106 55.2206 26.8792 53.7063 24.2161C50.3118 18.2441 45.4882 13.9864 38.8923 11.9178C28.353 8.61053 16.8323 13.2797 10.8746 23.2C10.5669 23.7127 10.2887 24.2448 9.95646 24.7415C8.47759 26.9534 5.70618 27.6086 3.39344 26.3184C2.31511 25.7194 1.50556 24.7319 1.12962 23.5569C0.753679 22.3819 0.839604 21.1077 1.3699 19.9939C2.71893 17.093 4.61516 14.532 6.78793 12.2012C12.41 6.16842 19.2841 2.4479 27.4744 1.25298C28.4272 1.11047 29.3968 1.08433 30.3597 0.999999Z" fill="#011627"/>
</mask>
<g mask="url(#mask0_701_12)">
<rect x="-15.4375" y="-10.1321" width="94.875" height="94.875" fill="#6598C1"/>
<g opacity="0.4" filter="url(#filter0_f_701_12)">
<path d="M51.4892 80.6278L25.4566 72.9555L14.5808 63.301L17.8133 37.8428L39.1617 34.9215L38.966 16.7447L63.5813 8.6441L79.4375 13.3172L69.4052 53.0479L53.9166 58.0033L51.4892 80.6278Z" fill="#4D5BCE"/>
</g>
<g filter="url(#filter1_f_701_12)">
<path d="M45.3462 7.43622L47.3559 40.1905L43.1908 55.8473L22.446 59.8593L13.6484 35.8172L-0.39722 41.6061L-14.2134 15.3324L-15.4375 -4.61794L18.4631 -5.0537L27.0467 11.5219L45.3462 7.43622Z" fill="#43D9AD"/>
</g>
</g>
<defs>
<filter id="filter0_f_701_12" x="-15.4193" y="-21.356" width="124.857" height="131.984" filterUnits="userSpaceOnUse" color-interpolation-filters="sRGB">
<feFlood flood-opacity="0" result="BackgroundImageFix"/>
<feBlend mode="normal" in="SourceGraphic" in2="BackgroundImageFix" result="shape"/>
<feGaussianBlur stdDeviation="15" result="effect1_foregroundBlur_701_12"/>
</filter>
<filter id="filter1_f_701_12" x="-75.4375" y="-65.0537" width="182.793" height="184.913" filterUnits="userSpaceOnUse" color-interpolation-filters="sRGB">
<feFlood flood-opacity="0" result="BackgroundImageFix"/>
<feBlend mode="normal" in="SourceGraphic" in2="BackgroundImageFix" result="shape"/>
<feGaussianBlur stdDeviation="30" result="effect1_foregroundBlur_701_12"/>
</filter>
</defs>
</svg>
